<?xml version="1.0" encoding="utf-8"?>
<!-- Generator: Adobe Illustrator 16.0.0, SVG Export Plug-In . SVG Version: 6.00 Build 0)  -->
<!DOCTYPE svg PUBLIC "-//W3C//DTD SVG 1.1//EN" "http://www.w3.org/Graphics/SVG/1.1/DTD/svg11.dtd">
<svg version="1.1" id="Layer_1" xmlns="http://www.w3.org/2000/svg" xmlns:xlink="http://www.w3.org/1999/xlink" x="0px" y="0px"
	 width="31.51px" height="18.583px" viewBox="0 0 31.51 18.583" enable-background="new 0 0 31.51 18.583" xml:space="preserve">
<g>
	<path fill="#F29100" d="M0,0h31.51v18.583H0V0z M15.756,16.317c3.033,0,6.066,0,9.101,0c0.309,0,1.202-0.65,1.282-0.94
		c0.015-0.053-0.008-0.118-0.017-0.177c-0.146-1.028,0.752-2.076,1.8-2.008c0.369,0.024,0.559-0.103,0.766-0.327
		c0.113-0.125,0.261-0.227,0.353-0.365c0.093-0.142,0.19-0.315,0.191-0.476c0.014-1.819,0.009-3.64,0.008-5.46
		c0-0.243-0.724-1.147-0.958-1.196c-0.044-0.01-0.094,0.01-0.143,0.016c-1.057,0.134-2.078-0.718-2.021-1.778
		c0.021-0.398-0.133-0.598-0.369-0.819c-0.07-0.067-0.148-0.129-0.205-0.207c-0.191-0.264-0.447-0.316-0.761-0.314
		c-2.038,0.012-4.076,0.006-6.115,0.006c-3.991,0-7.983-0.002-11.975,0.005c-0.171,0-0.379,0.023-0.505,0.12
		C5.93,2.593,5.706,2.84,5.49,3.085C5.424,3.161,5.398,3.303,5.407,3.409C5.502,4.451,4.701,5.43,3.653,5.387
		C3.202,5.368,2.998,5.572,2.746,5.817C2.643,5.919,2.523,6.012,2.442,6.13c-0.077,0.113-0.16,0.253-0.16,0.381
		c-0.011,1.857-0.008,3.713-0.006,5.569c0,0.217,0.778,1.112,0.983,1.144c0.035,0.005,0.072-0.007,0.107-0.014
		c0.842-0.184,2.038,0.518,2.021,1.683c-0.008,0.518,0.261,0.748,0.527,1.061c0.242,0.282,0.514,0.375,0.887,0.373
		C9.787,16.311,12.771,16.317,15.756,16.317"/>
	<path fill="#F29100" d="M15.379,14.178c-1.398-0.028-2.945-0.608-4.132-1.978c-1.58-1.823-1.457-4.421,0.269-6.111
		c2.174-2.127,5.857-2.26,8.176-0.295c2.422,2.053,2.216,5.533-0.436,7.334C18.23,13.825,17.053,14.179,15.379,14.178"/>
	<path fill="#F29100" d="M23.236,9.267c0.012-1.015,0.865-1.852,1.868-1.83c1.022,0.021,1.841,0.854,1.836,1.868
		c-0.005,1.011-0.845,1.848-1.856,1.849C24.059,11.154,23.226,10.304,23.236,9.267"/>
	<path fill="#F29100" d="M4.595,9.306C4.591,8.277,5.406,7.449,6.431,7.439c1.011-0.01,1.86,0.829,1.866,1.844
		S7.471,11.14,6.453,11.15C5.438,11.16,4.599,10.328,4.595,9.306"/>
</g>
</svg>
