<?xml version="1.0" encoding="UTF-8"?>
<!DOCTYPE svg PUBLIC "-//W3C//DTD SVG 1.1//EN" "http://www.w3.org/Graphics/SVG/1.1/DTD/svg11.dtd">
<!-- Creator: CorelDRAW 2017 -->
<svg xmlns="http://www.w3.org/2000/svg" xml:space="preserve" width="37px" height="37px" version="1.1" style="shape-rendering:geometricPrecision; text-rendering:geometricPrecision; image-rendering:optimizeQuality; fill-rule:evenodd; clip-rule:evenodd"
viewBox="0 0 1890 1890"
 xmlns:xlink="http://www.w3.org/1999/xlink">
 <defs>
  <style type="text/css">
   <![CDATA[
    .fil0 {fill:#66B22E}
   ]]>
  </style>
 </defs>
 <g id="Camada_x0020_1">
  <metadata id="CorelCorpID_0Corel-Layer"/>
  <g id="_1914657382464">
   <g>
    <path class="fil0" d="M890 0l110 0c10,0 20,0 20,0 40,10 90,10 130,20 480,110 790,560 730,1040 -20,190 -100,360 -230,510 -170,200 -390,300 -660,320 -140,10 -270,-10 -400,-70 -320,-140 -520,-390 -580,-730 0,-30 -10,-60 -10,-90l0 -110c0,-20 10,-40 10,-60 20,-190 90,-360 220,-500 150,-180 350,-280 580,-320 20,0 50,-10 80,-10l0 0zm710 950c0,-370 -290,-660 -650,-660 -360,0 -660,290 -660,650 0,370 300,660 660,660 360,0 650,-290 650,-650z"/>
   </g>
   <path class="fil0" d="M1270 930c10,170 -120,320 -290,340 -190,20 -340,-120 -360,-290 -20,-190 120,-340 290,-360 190,-20 360,130 360,310z"/>
  </g>
 </g>
</svg>
