<?xml version="1.0" encoding="UTF-8"?>
<!DOCTYPE svg PUBLIC "-//W3C//DTD SVG 1.1//EN" "http://www.w3.org/Graphics/SVG/1.1/DTD/svg11.dtd">
<!-- Creator: CorelDRAW 2017 -->
<svg xmlns="http://www.w3.org/2000/svg" xml:space="preserve" width="21px" height="21px" version="1.1" style="shape-rendering:geometricPrecision; text-rendering:geometricPrecision; image-rendering:optimizeQuality; fill-rule:evenodd; clip-rule:evenodd"
viewBox="0 0 980 980"
 xmlns:xlink="http://www.w3.org/1999/xlink">
 <defs>
  <style type="text/css">
   <![CDATA[
    .fil0 {fill:#11374F}
   ]]>
  </style>
 </defs>
 <g id="Camada_x0020_1">
  <metadata id="CorelCorpID_0Corel-Layer"/>
  <path class="fil0" d="M490 0c-270,0 -490,220 -490,490 0,270 220,490 490,490 270,0 490,-220 490,-490 0,-270 -220,-490 -490,-490zm260 530c-10,10 -30,20 -50,20l-410 0c-20,0 -40,-10 -60,-20 -10,-10 -20,-30 -20,-50 0,-20 10,-40 30,-50 10,-10 30,-20 50,-20l410 0c20,0 30,10 50,20 10,10 20,30 20,50 0,20 -10,40 -20,50z"/>
 </g>
</svg>
