<?xml version="1.0" encoding="UTF-8"?>
<!DOCTYPE svg PUBLIC "-//W3C//DTD SVG 1.1//EN" "http://www.w3.org/Graphics/SVG/1.1/DTD/svg11.dtd">
<!-- Creator: CorelDRAW 2017 -->
<svg xmlns="http://www.w3.org/2000/svg" xml:space="preserve" width="36px" height="36px" version="1.1" style="shape-rendering:geometricPrecision; text-rendering:geometricPrecision; image-rendering:optimizeQuality; fill-rule:evenodd; clip-rule:evenodd"
viewBox="0 0 1790 1790"
 xmlns:xlink="http://www.w3.org/1999/xlink">
 <defs>
  <style type="text/css">
   <![CDATA[
    .fil0 {fill:#E20613}
   ]]>
  </style>
 </defs>
 <g id="Camada_x0020_1">
  <metadata id="CorelCorpID_0Corel-Layer"/>
  <g>
   <path class="fil0" d="M1790 890c-10,500 -410,900 -900,900 -490,-10 -890,-410 -890,-900 0,-490 400,-890 890,-890 500,0 900,400 900,890l0 0zm-900 160c10,10 10,10 20,20 70,70 150,150 220,220 20,20 50,20 70,0 30,-30 60,-50 90,-80 30,-30 30,-60 0,-80 -80,-80 -150,-150 -220,-220 -10,-10 -10,-10 -20,-20 10,0 10,-10 20,-10 70,-80 150,-150 220,-220 30,-30 30,-50 0,-80 -30,-30 -60,-60 -80,-80 -30,-30 -60,-30 -80,0 -80,70 -150,140 -220,220 -10,0 -10,10 -20,10 0,0 -10,-10 -10,-10 -80,-80 -150,-150 -220,-220 -30,-30 -50,-30 -80,0 -30,20 -50,50 -80,80 -30,30 -30,50 0,80 70,70 140,150 220,220 0,0 10,0 10,10 0,0 0,0 0,10 0,0 -10,0 -10,10 -80,70 -150,150 -230,220 -20,20 -20,50 0,70 30,30 60,60 90,90 30,30 50,30 80,0 70,-80 150,-150 220,-220 0,-10 10,-10 10,-20z"/>
  </g>
 </g>
</svg>
