<?xml version="1.0" encoding="UTF-8"?>
<!DOCTYPE svg PUBLIC "-//W3C//DTD SVG 1.1//EN" "http://www.w3.org/Graphics/SVG/1.1/DTD/svg11.dtd">
<!-- Creator: CorelDRAW 2017 -->
<svg xmlns="http://www.w3.org/2000/svg" xml:space="preserve" width="35px" height="41px" version="1.1" style="shape-rendering:geometricPrecision; text-rendering:geometricPrecision; image-rendering:optimizeQuality; fill-rule:evenodd; clip-rule:evenodd"
viewBox="0 0 1270 1510"
 xmlns:xlink="http://www.w3.org/1999/xlink">
 <defs>
  <style type="text/css">
   <![CDATA[
    .fil0 {fill:#09202C}
   ]]>
  </style>
 </defs>
 <g id="Camada_x0020_1">
  <metadata id="CorelCorpID_0Corel-Layer"/>
  <g id="_1914434293344">
   <path class="fil0" d="M760 0c10,0 20,10 20,10 20,10 30,20 30,40 0,30 0,50 0,70 0,30 -20,50 -40,50 -10,0 -10,0 -20,0 0,20 0,40 0,60 0,10 10,10 10,10 50,20 100,30 150,50 20,-20 40,-50 60,-80 30,-30 60,-40 100,-10 20,20 30,30 50,50 30,20 40,60 10,90 -10,20 -30,40 -50,70 30,30 50,60 80,90 60,80 90,170 110,270 10,120 0,230 -40,340 -40,80 -80,160 -150,220 -90,80 -190,140 -310,160 -110,30 -220,20 -330,-20 -120,-30 -210,-100 -290,-190 -80,-90 -120,-200 -140,-310 -20,-120 -10,-230 40,-340 40,-100 100,-190 190,-260 80,-60 170,-100 270,-130 10,0 10,0 10,-10 0,-20 0,-30 0,-60 -20,0 -40,-10 -50,-30 0,0 0,0 0,-10 0,-30 -10,-50 0,-80 0,-30 20,-40 40,-50l250 0 0 0zm-120 1330c260,0 460,-210 460,-460 0,-260 -210,-460 -460,-460 -260,0 -470,210 -470,460 0,250 210,460 470,460z"/>
   <path class="fil0" d="M750 870c0,60 -40,110 -90,110 -60,10 -120,-20 -130,-80 -10,-10 -10,-20 -20,-30 -80,-60 -160,-130 -240,-190 0,0 -10,-10 -10,-20 -10,-10 -10,-30 0,-50 10,-10 30,-20 40,-10 10,0 20,0 30,10 90,50 180,90 270,140 0,0 10,10 20,10 70,-10 130,40 130,110z"/>
  </g>
 </g>
</svg>
