<?xml version="1.0" encoding="UTF-8"?>
<!DOCTYPE svg PUBLIC "-//W3C//DTD SVG 1.1//EN" "http://www.w3.org/Graphics/SVG/1.1/DTD/svg11.dtd">
<!-- Creator: CorelDRAW 2017 -->
<svg xmlns="http://www.w3.org/2000/svg" xml:space="preserve" width="28px" height="27px" version="1.1" style="shape-rendering:geometricPrecision; text-rendering:geometricPrecision; image-rendering:optimizeQuality; fill-rule:evenodd; clip-rule:evenodd"
viewBox="0 0 1570 1520"
 xmlns:xlink="http://www.w3.org/1999/xlink">
 <defs>
  <style type="text/css">
   <![CDATA[
    .fil0 {fill:#66B22E}
   ]]>
  </style>
 </defs>
 <g id="Camada_x0020_1">
  <metadata id="CorelCorpID_0Corel-Layer"/>
  <path class="fil0" d="M580 1060c60,-90 120,-170 180,-250 170,-260 340,-510 510,-760 40,-60 80,-60 140,-30 40,30 80,60 120,90 50,30 60,80 20,130 -270,400 -540,810 -820,1210 -30,50 -70,80 -130,70 -30,-10 -60,-30 -90,-50 -160,-160 -320,-320 -480,-490 -40,-30 -40,-80 0,-120 40,-40 70,-80 110,-120 40,-40 90,-40 130,0 100,100 200,200 300,300 0,10 10,10 10,20z"/>
 </g>
</svg>
