<?xml version="1.0" encoding="UTF-8"?>
<!DOCTYPE svg PUBLIC "-//W3C//DTD SVG 1.1//EN" "http://www.w3.org/Graphics/SVG/1.1/DTD/svg11.dtd">
<!-- Creator: CorelDRAW 2017 -->
<svg xmlns="http://www.w3.org/2000/svg" xml:space="preserve" width="36px" height="38px" version="1.1" style="shape-rendering:geometricPrecision; text-rendering:geometricPrecision; image-rendering:optimizeQuality; fill-rule:evenodd; clip-rule:evenodd"
viewBox="0 0 3650 3820"
 xmlns:xlink="http://www.w3.org/1999/xlink">
 <defs>
  <style type="text/css">
   <![CDATA[
    .fil0 {fill:#11374F}
   ]]>
  </style>
 </defs>
 <g id="Camada_x0020_1">
  <metadata id="CorelCorpID_0Corel-Layer"/>
  <g id="_1914657191056">
   <path class="fil0" d="M1880 0c30,20 60,40 80,70 60,60 120,110 180,180 70,70 150,70 240,50 80,-20 160,-30 230,-40 80,-10 180,70 190,170 10,100 30,200 60,300 10,40 50,80 80,100 70,40 140,80 210,110 150,60 180,180 100,320 -40,70 -70,150 -110,220 -40,60 -10,110 10,170 40,70 80,150 120,230 60,100 10,210 -110,260 -60,30 -130,70 -200,100 -80,40 -120,110 -130,200 -10,80 -20,160 -30,240 -20,100 -140,170 -230,140 -90,-20 -190,-30 -280,-50 -50,0 -100,20 -130,50 -60,60 -120,120 -180,180 -100,110 -200,110 -310,0 -40,-50 -100,-100 -140,-150 -70,-80 -160,-90 -260,-70 -70,20 -150,40 -230,40 -80,10 -180,-60 -190,-160 -10,-100 -30,-190 -50,-290 -10,-70 -60,-110 -120,-140 -70,-40 -150,-70 -220,-110 -110,-50 -110,-170 -80,-250 50,-90 90,-180 140,-260 30,-60 10,-120 -20,-170 -30,-70 -80,-140 -110,-220 -70,-140 -10,-220 100,-280 70,-30 140,-70 210,-100 80,-40 110,-110 120,-190 20,-80 20,-160 40,-250 10,-90 130,-160 230,-130 90,20 180,30 270,40 50,10 100,-10 140,-50 60,-60 120,-130 190,-190 20,-20 50,-50 80,-70l110 0zm-50 2620c600,-10 1090,-490 1090,-1110 0,-610 -500,-1100 -1090,-1090 -600,0 -1100,470 -1100,1100 0,610 500,1090 1100,1100z"/>
   <path class="fil0" d="M3050 3820c-40,-40 -90,-90 -140,-140 -170,-180 -350,-350 -530,-530 0,-10 -10,-20 -20,-30 40,-40 70,-60 130,-50 100,20 200,30 310,40 130,10 270,-120 280,-230 10,-60 20,-120 40,-180 0,0 10,-10 20,-20 10,20 20,50 40,70 130,140 270,270 410,410 30,40 80,70 60,130 -30,60 -80,70 -140,80 -70,10 -140,20 -210,30 -60,10 -70,60 -70,100 -20,80 -20,150 -40,220 -10,40 -40,70 -60,100l-80 0z"/>
   <path class="fil0" d="M530 3820c-90,-70 -70,-170 -100,-260 0,-20 0,-40 0,-60 -10,-70 -40,-90 -100,-100 -80,-10 -150,-20 -220,-40 -40,-10 -80,-40 -100,-70 -20,-40 0,-80 30,-110 160,-160 320,-310 480,-470 0,-10 10,-10 20,-10 0,20 10,50 10,70 20,140 60,270 210,320 80,20 170,10 260,0 60,0 120,-20 180,-20 30,0 60,30 100,50 -110,110 -210,210 -310,310 -130,130 -250,250 -380,370 0,10 -10,20 -10,20l-70 0z"/>
   <path class="fil0" d="M2480 1520c-10,410 -330,660 -660,650 -390,-10 -660,-320 -650,-680 20,-390 330,-650 670,-640 380,20 650,320 640,670z"/>
  </g>
 </g>
</svg>
