<?xml version="1.0" encoding="UTF-8"?>
<!DOCTYPE svg PUBLIC "-//W3C//DTD SVG 1.1//EN" "http://www.w3.org/Graphics/SVG/1.1/DTD/svg11.dtd">
<!-- Creator: CorelDRAW 2017 -->
<svg xmlns="http://www.w3.org/2000/svg" xml:space="preserve" width="72px" height="58px" version="1.1" style="shape-rendering:geometricPrecision; text-rendering:geometricPrecision; image-rendering:optimizeQuality; fill-rule:evenodd; clip-rule:evenodd"
viewBox="0 0 9980 8100"
 xmlns:xlink="http://www.w3.org/1999/xlink">
 <defs>
  <style type="text/css">
   <![CDATA[
    .fil0 {fill:#B1B1B1}
    .fil1 {fill:white}
   ]]>
  </style>
 </defs>
 <g id="Camada_x0020_1">
  <metadata id="CorelCorpID_0Corel-Layer"/>
  <g id="_1914657429376">
   <g>
    <path class="fil0" d="M9980 490l0 550c-10,10 -10,30 -10,50 -50,390 -110,780 -240,1160 -150,460 -380,890 -720,1240 -240,250 -520,440 -850,560 -370,140 -760,200 -1160,160 -80,-10 -130,10 -180,80 -310,410 -680,750 -1170,950 -50,20 -70,50 -70,100 0,430 0,850 0,1280 0,70 20,80 90,80 410,0 830,0 1250,0l100 0c0,40 0,70 0,100 0,240 10,480 0,720 0,60 20,80 80,80 130,0 260,0 390,0l0 500 -5010 0 0 -500c130,0 260,0 380,0 70,10 100,-10 100,-90 -10,-240 -10,-480 -10,-720l0 -90 100 0c420,0 840,0 1260,0 70,0 90,-20 90,-80 -10,-430 -10,-860 0,-1290 0,-40 -20,-70 -60,-90 -70,-30 -130,-50 -190,-90 -410,-200 -720,-510 -1000,-860 -40,-70 -90,-90 -170,-80 -310,30 -610,0 -910,-80 -660,-170 -1150,-570 -1490,-1150 -300,-500 -460,-1050 -530,-1620 -20,-110 -30,-220 -50,-320l0 -550c630,0 1270,0 1900,10 60,0 80,-20 80,-80 0,-140 0,-280 0,-420l6020 0c0,140 0,280 0,420 -10,60 10,80 70,80 640,-10 1270,-10 1910,-10l0 0zm-9290 660c0,30 -10,40 0,60 50,460 170,910 390,1320 240,460 590,800 1100,950 160,50 330,60 490,90 10,0 10,-10 10,-20 -10,-20 -20,-50 -30,-70 -100,-220 -200,-440 -290,-660 -180,-510 -270,-1050 -330,-1590 -10,-60 -30,-80 -100,-80 -380,0 -770,0 -1160,0l-80 0zm8610 10c-20,-10 -30,-10 -50,-10 -410,0 -820,0 -1230,0 -60,0 -60,30 -70,70 -40,300 -80,600 -140,900 -80,430 -220,850 -430,1250 -30,60 -50,120 -90,190 340,-10 650,-90 920,-260 390,-230 640,-590 800,-1000 90,-220 150,-440 210,-670 40,-150 60,-310 80,-470z"/>
   </g>
   <g id="_1914657429504">
    <path class="fil1" d="M5040 550c20,20 40,30 60,50 50,50 100,100 150,150 60,60 120,70 200,50 60,-20 130,-30 190,-40 60,0 150,60 160,140 10,90 20,170 50,250 0,40 40,70 60,90 60,30 120,60 180,90 120,50 150,140 80,270 -30,50 -60,120 -90,180 -30,50 -10,90 10,130 30,70 70,130 100,200 40,80 0,170 -90,220 -60,20 -110,50 -170,70 -70,40 -100,100 -110,170 -10,70 -10,140 -20,200 -20,80 -120,140 -190,120 -80,-20 -160,-30 -230,-40 -50,-10 -90,10 -120,40 -40,50 -90,100 -140,150 -90,90 -170,90 -260,0 -40,-40 -80,-80 -120,-130 -60,-60 -130,-70 -210,-50 -60,10 -130,30 -190,30 -70,10 -150,-50 -160,-130 -10,-80 -30,-170 -40,-250 -10,-60 -50,-80 -100,-110 -60,-30 -120,-60 -190,-90 -80,-40 -90,-140 -60,-210 40,-70 70,-150 110,-220 30,-50 10,-90 -10,-140 -30,-60 -60,-120 -90,-180 -60,-120 -10,-180 80,-230 60,-30 120,-60 180,-90 60,-30 90,-80 100,-150 10,-70 10,-140 20,-210 20,-70 120,-130 200,-110 70,20 150,30 220,40 50,0 90,-20 120,-50 50,-50 100,-100 150,-150 30,-20 50,-40 80,-60l90 0zm-50 2170c500,-10 910,-400 910,-920 0,-510 -420,-910 -910,-910 -490,0 -910,400 -910,920 0,510 420,900 910,910z"/>
    <path class="fil1" d="M6010 3720c-40,-40 -80,-80 -120,-120 -140,-140 -290,-290 -440,-440 0,0 -10,-10 -20,-20 30,-30 60,-50 110,-40 80,10 170,20 260,30 110,10 220,-100 230,-190 10,-50 20,-100 30,-150 10,-10 10,-10 20,-20 10,20 20,40 30,60 110,110 230,230 340,340 30,30 70,60 50,110 -20,50 -60,60 -110,60 -60,10 -120,20 -180,30 -40,10 -50,50 -60,80 -10,70 -10,130 -30,190 -10,30 -30,50 -50,80l-60 0 0 0z"/>
    <path class="fil1" d="M3910 3720c-70,-60 -50,-150 -80,-220 0,-20 0,-30 0,-50 -10,-60 -30,-70 -80,-80 -70,-10 -130,-20 -190,-30 -30,-10 -60,-40 -80,-60 -20,-30 10,-70 30,-90 130,-130 260,-260 400,-400 0,0 0,0 10,0 10,20 10,40 10,50 20,120 50,230 170,270 70,20 150,10 220,10 50,-10 100,-20 150,-30 30,0 50,30 90,50 -100,90 -180,170 -270,260 -100,100 -200,200 -310,300 0,10 0,10 -10,20l-60 0z"/>
    <path class="fil1" d="M5530 1810c0,340 -270,550 -550,540 -320,-10 -540,-260 -530,-560 10,-330 270,-540 550,-530 320,10 540,260 530,550z"/>
   </g>
  </g>
 </g>
</svg>
