<?xml version="1.0" encoding="UTF-8"?>
<!DOCTYPE svg PUBLIC "-//W3C//DTD SVG 1.1//EN" "http://www.w3.org/Graphics/SVG/1.1/DTD/svg11.dtd">
<!-- Creator: CorelDRAW 2017 -->
<svg xmlns="http://www.w3.org/2000/svg" xml:space="preserve" width="152px" height="100px" version="1.1" style="shape-rendering:geometricPrecision; text-rendering:geometricPrecision; image-rendering:optimizeQuality; fill-rule:evenodd; clip-rule:evenodd"
viewBox="0 0 26430 17370"
 xmlns:xlink="http://www.w3.org/1999/xlink">
 <defs>
  <style type="text/css">
   <![CDATA[
    .fil0 {fill:#09202C}
    .fil1 {fill:#E42620}
   ]]>
  </style>
 </defs>
 <g id="Camada_x0020_1">
  <metadata id="CorelCorpID_0Corel-Layer"/>
  <g id="_1914657425152">
   <g>
    <path class="fil0" d="M15730 2800c-1240,0 -2250,1010 -2250,2250 0,1240 1010,2250 2250,2250 1240,-10 2250,-1020 2240,-2250 0,-1240 -1000,-2250 -2240,-2250zm120 3360c-640,80 -1180,-400 -1240,-990 -60,-640 400,-1170 990,-1240 660,-70 1230,430 1250,1070 20,590 -410,1100 -1000,1160z"/>
    <path class="fil0" d="M22340 1060c-120,0 -160,-40 -160,-160 10,-300 0,-590 0,-900l-12910 0c0,310 0,600 10,900 0,120 -40,160 -170,160 -1360,0 -2720,0 -4090,0l0 1160c40,230 70,460 110,690 160,1230 490,2410 1140,3480 740,1240 1770,2100 3190,2470 640,170 1300,240 1960,170 160,-20 270,20 370,160 580,770 1270,1420 2130,1860 130,70 270,130 400,190 100,40 140,100 140,200 -10,920 -10,1840 0,2760 0,140 -50,180 -190,180 -900,-10 -1800,0 -2700,0 -60,0 -120,0 -210,0l0 190c0,520 0,1030 10,1540 0,160 -60,210 -210,200 -260,-10 -530,0 -810,0l0 1060 10750 0 0 -1060c-280,0 -560,-10 -840,0 -130,0 -170,-40 -170,-180 10,-510 0,-1030 0,-1550 0,-60 0,-120 -10,-200l-210 0c-900,0 -1790,-10 -2690,0 -140,0 -180,-40 -180,-180 0,-910 0,-1830 0,-2740 0,-120 30,-180 150,-230 1040,-420 1840,-1160 2510,-2040 110,-130 210,-170 370,-160 860,80 1700,-40 2500,-340 700,-260 1310,-670 1820,-1210 740,-760 1210,-1660 1550,-2660 270,-810 410,-1640 500,-2490 10,-30 20,-70 30,-110l0 -1160c-1360,0 -2720,0 -4090,0zm-11580 6610c-360,-70 -720,-110 -1060,-200 -1100,-320 -1840,-1050 -2360,-2040 -470,-890 -730,-1840 -840,-2840 -10,-30 -10,-70 -10,-130l190 0c830,0 1660,10 2490,0 150,0 190,40 210,190 120,1150 310,2300 710,3390 180,490 410,950 620,1430 20,40 50,90 70,140 -10,20 -20,40 -20,60zm8190 -2230c-80,670 -340,1260 -790,1760 -610,670 -1370,1040 -2270,1090 -480,30 -940,-40 -1380,-230 -1120,-490 -1780,-1330 -1990,-2530 -20,-90 -30,-180 -40,-280l0 -400c10,-60 20,-120 30,-180 70,-660 330,-1240 760,-1740 530,-600 1190,-970 1980,-1090 90,-10 180,-20 280,-40l400 0c20,10 40,10 60,20 150,20 300,30 450,60 1620,370 2710,1900 2510,3560zm5860 -1950c-130,490 -280,980 -460,1440 -350,890 -890,1650 -1710,2160 -590,360 -1250,530 -1970,550 70,-150 120,-290 190,-420 440,-850 740,-1750 920,-2680 120,-640 210,-1280 300,-1920 20,-90 20,-160 150,-160 880,0 1760,0 2640,0 30,0 60,10 110,20 -50,340 -90,680 -170,1010z"/>
   </g>
   <g>
    <g>
     <path class="fil1" d="M1740 11740c-160,0 -310,-80 -410,-210 -170,-230 -120,-550 100,-720l1670 -1240c220,-170 550,-130 720,100 170,230 120,550 -110,720l-1660 1240c-90,70 -200,110 -310,110z"/>
    </g>
    <g>
     <path class="fil1" d="M3590 5520c-110,0 -220,-30 -310,-100l-1660 -1240c-230,-170 -270,-490 -110,-720 170,-230 500,-270 720,-100l1670 1240c220,170 270,490 100,720 -100,130 -250,200 -410,200z"/>
    </g>
    <g>
     <path class="fil1" d="M2730 8030l-2220 0c-280,0 -510,-230 -510,-510 0,-290 230,-520 510,-520l2220 0c290,0 520,230 520,520 0,280 -230,510 -520,510z"/>
    </g>
   </g>
  </g>
 </g>
</svg>
