<?xml version="1.0" encoding="UTF-8"?>
<!DOCTYPE svg PUBLIC "-//W3C//DTD SVG 1.1//EN" "http://www.w3.org/Graphics/SVG/1.1/DTD/svg11.dtd">
<!-- Creator: CorelDRAW X7 -->
<svg xmlns="http://www.w3.org/2000/svg" xml:space="preserve" width="40px" height="30px" version="1.1" style="shape-rendering:geometricPrecision; text-rendering:geometricPrecision; image-rendering:optimizeQuality; fill-rule:evenodd; clip-rule:evenodd"
viewBox="0 0 16427 12353"
 xmlns:xlink="http://www.w3.org/1999/xlink">
 <defs>
  <style type="text/css">
   <![CDATA[
    .fil0 {fill:white}
   ]]>
  </style>
 </defs>
 <g id="Camada_x0020_1">
  <metadata id="CorelCorpID_0Corel-Layer"/>
  <path class="fil0" d="M10001 6533l-2013 2013c-189,175 -486,175 -662,0l0 0c-189,-189 -189,-486 0,-662l1702 -1702 -1702 -1702c-189,-176 -189,-473 0,-662l0 0c176,-189 473,-189 662,0l2013 2013c0,0 14,13 14,13l0 0c94,95 135,203 135,324l0 14 0 0 0 13c0,108 -41,230 -135,311l0 0c0,14 -14,14 -14,27zm4455 -6533l-12485 0c-1084,0 -1971,887 -1971,1971l0 8411c0,1084 887,1971 1971,1971l12485 0c1084,0 1971,-887 1971,-1971l0 -8411c0,-1084 -887,-1971 -1971,-1971zm0 535l-12485 0c-789,0 -1435,646 -1435,1436l0 8411c0,790 646,1436 1435,1436l12485 0c790,0 1436,-646 1436,-1436l0 -8411c0,-790 -646,-1436 -1436,-1436z"/>
 </g>
</svg>
