<?xml version="1.0" encoding="UTF-8"?>
<!DOCTYPE svg PUBLIC "-//W3C//DTD SVG 1.1//EN" "http://www.w3.org/Graphics/SVG/1.1/DTD/svg11.dtd">
<!-- Creator: CorelDRAW X7 -->
<svg xmlns="http://www.w3.org/2000/svg" xml:space="preserve" width="40px" height="30px" version="1.1" style="shape-rendering:geometricPrecision; text-rendering:geometricPrecision; image-rendering:optimizeQuality; fill-rule:evenodd; clip-rule:evenodd"
viewBox="0 0 91961 69155"
 xmlns:xlink="http://www.w3.org/1999/xlink">
 <defs>
  <style type="text/css">
   <![CDATA[
    .fil0 {fill:white}
   ]]>
  </style>
 </defs>
 <g id="Camada_x0020_1">
  <metadata id="CorelCorpID_0Corel-Layer"/>
  <path class="fil0" d="M35974 36572l11268 11268c1059,983 2723,983 3706,0l0 0c1059,-1058 1059,-2722 0,-3706l-9528 -9528 9528 -9529c1059,-983 1059,-2647 0,-3706l0 0c-982,-1058 -2646,-1058 -3706,0l-11268 11268c0,0 -75,76 -75,76l0 0c-529,529 -756,1135 -756,1815l0 76 0 0 0 75c0,605 227,1286 756,1740l0 0c0,76 75,76 75,151zm-24940 -36572l69891 0c6070,0 11036,4965 11036,11034l0 47087c0,6068 -4966,11034 -11036,11034l-69891 0c-6069,0 -11034,-4966 -11034,-11034l0 -47087c0,-6069 4965,-11034 11034,-11034zm0 2997l69892 0c4420,0 8037,3616 8037,8037l0 47086c0,4420 -3617,8036 -8037,8036l-69892 0c-4420,0 -8036,-3616 -8036,-8036l0 -47086c0,-4421 3616,-8037 8036,-8037z"/>
 </g>
</svg>
