<?xml version="1.0" encoding="UTF-8"?>
<!DOCTYPE svg PUBLIC "-//W3C//DTD SVG 1.1//EN" "http://www.w3.org/Graphics/SVG/1.1/DTD/svg11.dtd">
<!-- Creator: CorelDRAW 2017 -->
<svg xmlns="http://www.w3.org/2000/svg" xml:space="preserve" width="141px" height="48px" version="1.1" style="shape-rendering:geometricPrecision; text-rendering:geometricPrecision; image-rendering:optimizeQuality; fill-rule:evenodd; clip-rule:evenodd"
viewBox="0 0 10440 3570"
 xmlns:xlink="http://www.w3.org/1999/xlink">
 <defs>
  <style type="text/css">
   <![CDATA[
    .fil3 {fill:#EFB54F}
    .fil4 {fill:#E54E3E}
    .fil2 {fill:#48B753}
    .fil1 {fill:#38489A}
    .fil0 {fill:#38489A;fill-rule:nonzero}
   ]]>
  </style>
 </defs>
 <g id="Camada_x0020_1">
  <metadata id="CorelCorpID_0Corel-Layer"/>
  <g id="_2409819999312">
   <path class="fil0" d="M900 1660c-50,40 -100,90 -140,160 -50,70 -90,150 -120,230 -40,80 -70,160 -100,250 -40,80 -60,160 -80,240 60,-50 120,-150 200,-290 20,-30 50,-70 70,-120 30,-50 50,-100 80,-150 20,-60 40,-120 60,-170 20,-50 30,-100 30,-150zm320 290c-40,90 -90,190 -150,280 -50,100 -110,180 -170,260 -70,90 -140,160 -220,220 -80,60 -170,100 -270,130 0,100 20,190 40,280 30,90 90,140 170,140 30,0 50,0 80,-10 20,0 50,-10 80,-40 30,-10 70,-30 120,-70 50,-40 110,-80 170,-130 60,-40 120,-100 170,-150 60,-60 100,-120 130,-180 10,-30 30,-40 60,-40 30,0 60,10 90,40 30,30 40,60 40,90 0,30 -30,80 -80,150 -60,70 -120,140 -190,210 -70,70 -140,140 -220,210 -70,60 -130,100 -170,120 -10,0 -50,20 -120,60 -60,30 -120,50 -160,50 -100,0 -190,-20 -260,-60 -70,-40 -130,-90 -180,-160 -50,-70 -80,-150 -110,-230 -20,-90 -30,-180 -30,-280 -30,-10 -40,-40 -40,-70 0,-40 10,-60 30,-90 0,-50 10,-100 10,-160 10,-60 20,-120 30,-170 30,-100 70,-210 120,-340 40,-130 100,-260 180,-380 70,-120 150,-220 250,-300 100,-90 220,-130 340,-130 130,0 220,40 260,130 50,80 70,170 70,280 0,70 -10,130 -20,190 -10,60 -30,110 -50,150z"/>
   <path class="fil0" d="M2010 1760c10,60 10,110 20,170 0,50 0,100 0,160 0,10 0,30 0,40 0,20 0,40 0,50 30,-60 70,-130 130,-220 50,-90 110,-170 170,-250 60,-80 120,-150 180,-210 60,-60 120,-90 160,-90 110,0 190,30 230,90 50,60 70,110 70,170 0,190 -20,380 -50,570 -40,190 -60,380 -60,570 0,50 0,100 0,150 10,50 10,100 20,150l110 80 370 -120c30,-10 50,-10 60,-10 70,0 110,30 110,110 0,30 -20,60 -70,100 -50,30 -100,70 -160,100 -70,30 -130,50 -200,70 -60,20 -110,20 -150,20 -130,0 -240,-60 -330,-190 -90,-130 -140,-320 -140,-560 0,-90 10,-190 20,-280 0,-90 10,-160 20,-230 -80,120 -160,240 -230,360 -70,130 -130,260 -190,380 -30,40 -50,90 -70,150 -30,50 -50,110 -80,160 -30,50 -60,90 -110,120 -40,40 -80,50 -140,50 -50,0 -90,-10 -120,-40 -30,-40 -50,-80 -60,-150 0,-80 10,-160 30,-260 10,-90 40,-180 60,-280 30,-90 50,-180 80,-260 30,-90 50,-170 70,-250l0 0c0,-40 0,-90 10,-150 0,-60 0,-110 10,-160 10,-50 20,-100 30,-130 20,-40 50,-60 90,-60 60,0 90,30 110,80l0 0z"/>
   <path class="fil0" d="M4300 1660c-50,40 -90,90 -140,160 -40,70 -80,150 -120,230 -30,80 -70,160 -100,250 -30,80 -60,160 -70,240 50,-50 120,-150 200,-290 20,-30 40,-70 70,-120 20,-50 50,-100 70,-150 20,-60 40,-120 60,-170 20,-50 30,-100 30,-150zm320 290c-40,90 -90,190 -140,280 -50,100 -110,180 -180,260 -60,90 -140,160 -210,220 -80,60 -170,100 -270,130 0,100 10,190 40,280 30,90 80,140 170,140 20,0 40,0 70,-10 20,0 50,-10 80,-40 30,-10 70,-30 120,-70 50,-40 110,-80 170,-130 60,-40 120,-100 180,-150 50,-60 100,-120 120,-180 20,-30 40,-40 60,-40 40,0 70,10 90,40 30,30 40,60 40,90 0,30 -20,80 -80,150 -50,70 -110,140 -180,210 -70,70 -150,140 -220,210 -80,60 -130,100 -170,120 -20,0 -60,20 -120,60 -70,30 -120,50 -170,50 -100,0 -180,-20 -260,-60 -70,-40 -130,-90 -180,-160 -40,-70 -80,-150 -100,-230 -20,-90 -40,-180 -40,-280 -20,-10 -40,-40 -40,-70 0,-40 20,-60 40,-90 0,-50 0,-100 0,-160 10,-60 20,-120 40,-170 30,-100 60,-210 110,-340 50,-130 110,-260 180,-380 70,-120 160,-220 260,-300 100,-90 210,-130 340,-130 120,0 210,40 250,130 50,80 70,170 70,280 0,70 0,130 -10,190 -20,60 -30,110 -60,150z"/>
   <path class="fil0" d="M6010 2100c-10,10 -10,10 -10,20l0 30 10 -40 0 -10zm-700 -170c60,-120 100,-200 130,-250 40,-40 60,-70 80,-70 20,0 40,30 60,80 10,50 20,100 20,150 0,90 -10,200 -40,310 -30,110 -60,230 -90,340 50,-80 100,-170 140,-250 40,-90 80,-170 130,-250 30,-40 50,-90 90,-150 30,-60 70,-120 110,-180 50,-60 90,-120 140,-160 50,-40 110,-60 170,-60 60,0 100,10 130,30 30,30 60,60 80,100 10,30 30,70 30,110 10,50 10,90 10,130 0,130 -20,260 -60,400 -40,130 -60,260 -70,380l340 -560c50,-70 110,-110 190,-120 40,0 70,20 110,40 30,30 60,70 70,130 0,80 -10,170 -20,290 -10,110 -10,220 -10,330 0,80 0,160 20,230 10,70 30,130 70,170 90,-10 180,-50 270,-130 90,-70 170,-160 240,-260 70,-100 140,-210 190,-320 60,-110 100,-200 130,-280 40,-50 70,-70 110,-70 30,0 50,10 80,30 20,30 30,60 30,100 -80,250 -180,470 -310,650 -130,190 -290,360 -500,540 -20,20 -60,40 -90,60 -40,20 -90,20 -140,20 -80,0 -150,-20 -210,-60 -60,-50 -100,-100 -130,-170 -30,-60 -60,-130 -70,-200 -20,-80 -30,-140 -30,-200 -70,100 -140,200 -220,290 -80,80 -180,130 -310,130 -60,0 -110,-20 -150,-50 -30,-40 -60,-80 -70,-130 -20,-50 -30,-100 -30,-160 -10,-50 -10,-110 -10,-150 0,-50 0,-90 10,-140 0,-40 10,-90 10,-130 -40,70 -90,170 -150,290 -60,110 -120,220 -190,330 -70,110 -140,200 -210,280 -70,80 -140,110 -210,110 -50,0 -100,-20 -140,-60 -40,-50 -60,-120 -60,-210 0,-100 20,-200 40,-320 30,-110 60,-220 90,-340 30,-110 70,-220 110,-330 40,-110 70,-200 90,-290z"/>
   <path class="fil1" d="M8550 190c0,-100 90,-190 190,-190l280 0 280 0c110,0 200,90 200,190l0 610c-570,500 -390,500 -950,0l0 -610z"/>
   <path class="fil2" d="M7800 1890c-110,0 -200,-90 -200,-200l0 -270 0 -270c0,-110 90,-200 200,-200l600 0c500,560 510,380 0,940l-600 0z"/>
   <path class="fil3" d="M9500 2640c0,110 -90,200 -200,200l-280 0 -270 0c-110,0 -200,-90 -200,-200l0 -600c560,-500 380,-500 950,0l0 600z"/>
   <path class="fil4" d="M10240 950c110,0 200,90 200,200l0 270 0 270c0,110 -90,200 -200,200l-590 0c-510,-560 -510,-380 0,-940l590 0z"/>
  </g>
 </g>
</svg>
