<?xml version="1.0" encoding="utf-8"?>
<!-- Generator: Adobe Illustrator 16.0.0, SVG Export Plug-In . SVG Version: 6.00 Build 0)  -->
<!DOCTYPE svg PUBLIC "-//W3C//DTD SVG 1.1//EN" "http://www.w3.org/Graphics/SVG/1.1/DTD/svg11.dtd">
<svg version="1.1" id="Layer_1" xmlns="http://www.w3.org/2000/svg" xmlns:xlink="http://www.w3.org/1999/xlink" x="0px" y="0px"
	 width="24.245px" height="28.438px" viewBox="0 0 24.245 28.438" enable-background="new 0 0 24.245 28.438" xml:space="preserve">
<path fill="#35A8E0" d="M13.035,28.438c-3.004-0.049-5.106-0.095-7.19-0.411c-1.403-0.213-2.8-0.486-4.064-1.173
	c-0.396-0.216-0.77-0.497-1.102-0.804c-0.465-0.431-0.694-0.993-0.678-1.633c0.014-0.492-0.01-1.001,0.104-1.473
	c0.212-0.891,0.846-1.521,1.51-2.104c1.111-0.978,2.39-1.696,3.717-2.324c0.825-0.392,1.674-0.733,2.523-1.071
	c1.143-0.456,1.389-1.617,0.933-2.695c-0.028-0.065-0.09-0.117-0.14-0.173c-1.562-1.709-2.506-3.724-2.898-5.989
	C5.455,6.892,5.548,5.216,6.269,3.62c0.82-1.814,2.219-2.951,4.148-3.402c2.026-0.475,3.939-0.193,5.652,1.04
	c1.304,0.938,2.039,2.257,2.363,3.812c0.336,1.605,0.22,3.193-0.237,4.761c-0.505,1.737-1.33,3.3-2.542,4.651
	c-0.487,0.542-0.59,1.869-0.15,2.449c0.164,0.217,0.422,0.409,0.678,0.503c1.377,0.503,2.736,1.043,4.022,1.752
	c0.935,0.515,1.823,1.095,2.616,1.817c0.97,0.887,1.508,1.921,1.416,3.287c-0.061,0.893-0.366,1.604-1.074,2.11
	c-0.436,0.313-0.92,0.574-1.415,0.783c-1.194,0.504-2.461,0.772-3.743,0.892C16.052,28.258,14.093,28.363,13.035,28.438
	 M12.231,27.376c0.621-0.061,1.178-0.113,1.734-0.17c0.211-0.021,0.321-0.123,0.288-0.351c-0.11-0.755-0.173-1.521-0.333-2.264
	c-0.297-1.38-0.781-2.702-1.361-3.988c-0.07-0.157-0.051-0.249,0.086-0.351c0.271-0.197,0.531-0.411,0.796-0.619
	c0.305-0.239,0.319-0.306,0.146-0.651c-0.308-0.617-0.842-1.012-1.387-1.392c-0.051-0.035-0.182-0.011-0.244,0.032
	c-0.236,0.167-0.486,0.326-0.68,0.536c-0.26,0.286-0.486,0.607-0.699,0.932c-0.12,0.181-0.081,0.355,0.125,0.498
	c0.291,0.2,0.555,0.443,0.843,0.647c0.163,0.115,0.173,0.216,0.101,0.394c-0.301,0.741-0.611,1.482-0.867,2.24
	c-0.43,1.274-0.768,2.571-0.821,3.929c-0.008,0.22,0.056,0.334,0.277,0.357C10.918,27.23,11.603,27.308,12.231,27.376"/>
</svg>
