<?xml version="1.0" encoding="utf-8"?>
<!-- Generator: Adobe Illustrator 16.0.0, SVG Export Plug-In . SVG Version: 6.00 Build 0)  -->
<!DOCTYPE svg PUBLIC "-//W3C//DTD SVG 1.1//EN" "http://www.w3.org/Graphics/SVG/1.1/DTD/svg11.dtd">
<svg version="1.1" id="Layer_1" xmlns="http://www.w3.org/2000/svg" xmlns:xlink="http://www.w3.org/1999/xlink" x="0px" y="0px"
	 width="23.702px" height="29.325px" viewBox="0 0 23.702 29.325" enable-background="new 0 0 23.702 29.325" xml:space="preserve">
<path fill="#35A8E0" d="M2.98,0h14.32c0.026,0.014,0.051,0.031,0.077,0.036c1.255,0.212,2.138,0.901,2.662,2.061
	c0.034,0.074,0.164,0.132,0.26,0.15c0.363,0.074,0.744,0.084,1.093,0.2c1.437,0.477,2.306,1.761,2.307,3.367
	c0.002,4.496,0.001,8.993,0.001,13.49c0,2.167,0.004,4.334-0.001,6.501c-0.006,2.058-1.469,3.519-3.52,3.519
	c-4.793,0.001-9.586,0.001-14.378-0.001c-0.181,0-0.366,0.002-0.54-0.04c-1.861-0.45-3.393-1.438-4.615-2.9
	C0.193,25.839-0.004,25.2,0,24.477c0.018-3.304,0.007-6.607,0.007-9.91c0-3.705-0.008-7.409,0.005-11.113
	c0.006-1.465,0.692-2.529,2.021-3.155C2.328,0.157,2.663,0.098,2.98,0 M5.65,16.907c0.146-0.096,0.233-0.15,0.317-0.21
	c1.136-0.789,2.272-1.576,3.402-2.374c0.167-0.118,0.278-0.122,0.446-0.002c1.138,0.805,2.283,1.597,3.426,2.393
	c0.082,0.057,0.166,0.109,0.295,0.194v-0.396c0-3.731-0.001-7.462,0.002-11.193c0-0.285,0.01-0.573,0.046-0.856
	c0.117-0.935,0.545-1.656,1.453-2.027c0.137-0.058,0.278-0.103,0.419-0.153c-2.488-0.029-4.968-0.039-7.447-0.023
	C7.003,2.265,6.15,2.854,5.861,3.768C5.721,4.212,5.66,4.701,5.658,5.171C5.643,8.969,5.65,12.767,5.65,16.564V16.907z
	 M20.314,4.539V4.93c0,5.785,0,11.568-0.004,17.354c0,0.313-0.013,0.633-0.076,0.939c-0.334,1.633-1.688,2.719-3.385,2.72
	c-4.343,0.004-8.686,0.002-13.029,0.002H3.504c-0.008,0.034-0.018,0.069-0.025,0.104c0.578,0.308,1.151,0.627,1.739,0.914
	c0.173,0.086,0.388,0.111,0.584,0.111c4.791,0.006,9.583,0.008,14.375-0.005c0.271-0.001,0.569-0.096,0.802-0.235
	c0.387-0.232,0.461-0.639,0.461-1.074c-0.006-6.644-0.004-13.287-0.004-19.931c0-0.104,0.002-0.211-0.008-0.314
	C21.376,4.96,20.893,4.525,20.314,4.539"/>
</svg>
