<?xml version="1.0" encoding="UTF-8"?>
<!DOCTYPE svg PUBLIC "-//W3C//DTD SVG 1.1//EN" "http://www.w3.org/Graphics/SVG/1.1/DTD/svg11.dtd">
<!-- Creator: CorelDRAW 2017 -->
<svg xmlns="http://www.w3.org/2000/svg" xml:space="preserve" width="63px" height="81px" version="1.1" style="shape-rendering:geometricPrecision; text-rendering:geometricPrecision; image-rendering:optimizeQuality; fill-rule:evenodd; clip-rule:evenodd"
viewBox="0 0 12370 16080"
 xmlns:xlink="http://www.w3.org/1999/xlink">
 <defs>
  <style type="text/css">
   <![CDATA[
    .fil0 {fill:#A2C4DF}
   ]]>
  </style>
 </defs>
 <g id="Camada_x0020_1">
  <metadata id="CorelCorpID_0Corel-Layer"/>
  <g id="_1914657215536">
   <path class="fil0" d="M7570 0c590,140 1020,530 1440,940 890,880 1770,1770 2640,2660 270,280 520,580 640,960 50,140 80,300 80,460 0,2850 0,5700 0,8560 0,1410 -1090,2500 -2510,2500 -2450,0 -4900,0 -7350,0 -1420,0 -2510,-1090 -2510,-2510 0,-3680 0,-7370 0,-11050 0,-1280 860,-2280 2130,-2490 20,0 40,-20 70,-30l5370 0zm-6330 8050c0,1800 0,3610 0,5410 0,150 0,300 40,440 160,610 620,950 1290,950 2410,0 4820,0 7240,-10 210,0 430,-40 620,-130 490,-230 700,-650 700,-1190 0,-2620 0,-5230 0,-7850 0,-70 -10,-140 -10,-200 -10,-190 -100,-330 -270,-390 -180,-60 -380,-110 -560,-120 -710,-10 -1420,-10 -2120,-10 -510,0 -750,-240 -750,-750 0,-700 0,-1400 -10,-2110 0,-180 -30,-360 -90,-530 -60,-210 -210,-330 -440,-330 -1450,0 -2890,0 -4340,10 -300,0 -570,70 -820,260 -350,270 -480,640 -480,1080 0,1820 0,3640 0,5470z"/>
   <path class="fil0" d="M6170 3110c70,610 -110,1230 170,1830 -60,0 -100,10 -150,10 -1000,0 -2010,0 -3010,0 -360,0 -620,-150 -670,-450 -40,-310 -40,-640 0,-950 30,-270 270,-450 570,-450 1020,-10 2040,-10 3060,0 10,0 20,0 30,10z"/>
   <rect class="fil0" x="4960" y="9280" width="4920" height="1220"/>
   <rect class="fil0" x="4960" y="11760" width="4920" height="1220"/>
   <rect class="fil0" x="4960" y="6820" width="4920" height="1210"/>
   <rect class="fil0" x="2490" y="9280" width="1210" height="1230"/>
   <rect class="fil0" x="2490" y="11760" width="1210" height="1210"/>
   <rect class="fil0" x="2490" y="6810" width="1210" height="1210"/>
  </g>
 </g>
</svg>
