<?xml version="1.0" encoding="UTF-8"?>
<!DOCTYPE svg PUBLIC "-//W3C//DTD SVG 1.1//EN" "http://www.w3.org/Graphics/SVG/1.1/DTD/svg11.dtd">
<!-- Creator: CorelDRAW 2017 -->
<svg xmlns="http://www.w3.org/2000/svg" xml:space="preserve" width="65px" height="85px" version="1.1" style="shape-rendering:geometricPrecision; text-rendering:geometricPrecision; image-rendering:optimizeQuality; fill-rule:evenodd; clip-rule:evenodd"
viewBox="0 0 8470 11000"
 xmlns:xlink="http://www.w3.org/1999/xlink">
 <defs>
  <style type="text/css">
   <![CDATA[
    .fil0 {fill:#A2C4DF}
   ]]>
  </style>
 </defs>
 <g id="Camada_x0020_1">
  <metadata id="CorelCorpID_0Corel-Layer"/>
  <g id="_1914657374688">
   <path class="fil0" d="M7760 0c10,10 20,20 40,20 420,110 670,420 670,870 0,1370 0,2740 0,4110 0,1280 0,2550 0,3820 0,570 -350,920 -920,920 -670,0 -1330,0 -2000,0 -280,0 -460,-170 -460,-430 0,-190 140,-370 330,-400 70,-10 130,-20 200,-20 620,0 1240,0 1860,0l130 0 0 -8040 -6760 0 0 8030 840 0 0 -890c120,30 200,80 260,180 180,290 580,420 910,320 60,-20 140,-20 200,0 340,100 730,-30 920,-320 80,-120 80,-120 250,-180l0 3010c-40,-20 -70,-40 -100,-60 -360,-240 -720,-470 -1070,-720 -70,-40 -120,-50 -190,0 -350,240 -710,480 -1070,720 -30,20 -60,30 -100,60l0 -1260c-50,0 -90,0 -140,0 -290,-10 -580,10 -860,-20 -400,-50 -680,-400 -700,-800 0,-40 0,-90 0,-130 0,-2610 0,-5230 0,-7840 0,-510 200,-780 690,-940 10,0 10,0 20,-10l7050 0z"/>
   <path class="fil0" d="M4230 2960c-690,0 -1380,10 -2070,0 -220,0 -360,-90 -440,-290 -80,-210 60,-490 290,-530 60,-20 120,-20 180,-20 1360,0 2730,0 4090,0 190,0 350,50 440,230 150,310 -60,610 -420,610 -690,10 -1380,0 -2070,0z"/>
   <g>
    <path class="fil0" d="M4000 6020c0,10 -20,50 -10,80 10,40 40,100 70,110 330,90 380,520 130,700 -30,20 -40,110 -20,140 170,290 -60,620 -360,610 -40,0 -100,60 -110,110 -80,310 -380,430 -640,240 -70,-50 -130,-50 -190,0 -260,190 -570,70 -630,-240 -20,-80 -60,-110 -140,-110 -330,-20 -490,-300 -340,-590 40,-80 30,-130 -30,-180 -240,-200 -170,-570 110,-670 90,-30 110,-70 100,-160 -50,-320 230,-540 530,-420 70,20 110,10 140,-50 170,-300 530,-300 710,0 40,70 80,60 150,40 260,-100 530,90 530,390l0 0zm-360 760c0,-380 -300,-680 -670,-680 -380,-10 -690,300 -690,680 0,370 320,680 690,680 370,-10 670,-310 670,-680z"/>
   </g>
   <path class="fil0" d="M3600 3810c480,0 960,0 1430,0 270,0 460,170 470,400 10,270 -180,450 -480,450 -570,0 -1130,0 -1700,0 -380,0 -770,0 -1150,0 -190,0 -350,-70 -430,-260 -130,-290 80,-590 420,-590 480,0 960,0 1440,0z"/>
  </g>
 </g>
</svg>
