<?xml version="1.0" encoding="UTF-8"?>
<!DOCTYPE svg PUBLIC "-//W3C//DTD SVG 1.1//EN" "http://www.w3.org/Graphics/SVG/1.1/DTD/svg11.dtd">
<!-- Creator: CorelDRAW 2017 -->
<svg xmlns="http://www.w3.org/2000/svg" xml:space="preserve" width="65px" height="85px" version="1.1" style="shape-rendering:geometricPrecision; text-rendering:geometricPrecision; image-rendering:optimizeQuality; fill-rule:evenodd; clip-rule:evenodd"
viewBox="0 0 4200 5450"
 xmlns:xlink="http://www.w3.org/1999/xlink">
 <defs>
  <style type="text/css">
   <![CDATA[
    .fil0 {fill:#C6C6C5}
   ]]>
  </style>
 </defs>
 <g id="Camada_x0020_1">
  <metadata id="CorelCorpID_0Corel-Layer"/>
  <g id="_1914649250176">
   <path class="fil0" d="M3850 0c0,0 10,10 10,10 220,60 340,210 340,430 0,680 0,1360 0,2040 0,630 0,1260 0,1890 0,280 -180,460 -460,460 -330,0 -660,0 -990,0 -140,0 -230,-90 -230,-220 0,-90 70,-180 170,-190 30,-10 60,-10 90,-10 310,0 620,0 930,0l60 0 0 -3990 -3350 0 0 3980 420 0 0 -440c60,20 100,40 130,90 90,150 280,210 450,160 30,-10 70,-10 100,0 160,50 360,-20 450,-160 40,-60 40,-60 120,-90l0 1490c-10,-10 -30,-20 -40,-30 -180,-120 -360,-230 -530,-350 -40,-30 -60,-30 -100,0 -170,120 -350,230 -530,350 -10,10 -30,20 -50,30l0 -620c-20,0 -40,0 -60,0 -150,-10 -290,0 -440,-10 -190,-30 -330,-200 -340,-400 0,-20 0,-40 0,-60 0,-1300 0,-2590 0,-3890 0,-250 100,-390 340,-460 10,0 10,-10 10,-10l3500 0z"/>
   <path class="fil0" d="M2100 1470c-340,0 -690,0 -1030,0 -110,0 -180,-50 -220,-140 -40,-110 30,-250 150,-270 30,-10 60,-10 90,-10 670,0 1350,0 2020,0 100,0 180,30 220,120 80,150 -30,300 -210,300 -340,0 -680,0 -1020,0z"/>
   <g>
    <path class="fil0" d="M1980 2980c0,10 -10,30 0,40 0,20 20,50 30,60 160,40 190,260 70,340 -20,10 -20,60 -10,80 80,140 -30,300 -180,300 -20,0 -50,30 -60,50 -30,160 -190,210 -310,120 -40,-20 -70,-20 -100,0 -130,90 -280,40 -310,-120 -10,-40 -30,-50 -70,-60 -160,0 -240,-140 -170,-290 20,-30 20,-60 -10,-80 -120,-100 -90,-290 50,-340 50,-10 60,-30 50,-70 -20,-160 110,-270 270,-220 30,20 50,10 70,-20 80,-150 260,-150 340,0 20,40 50,30 80,20 130,-50 260,40 260,190l0 0zm-180 380c0,-190 -140,-340 -330,-340 -180,0 -340,150 -340,340 0,180 160,340 340,340 190,-10 330,-160 330,-340z"/>
   </g>
   <path class="fil0" d="M1790 1890c230,0 470,0 700,0 140,0 230,80 240,200 0,130 -100,220 -240,220 -280,0 -560,0 -840,0 -190,0 -380,0 -570,0 -100,0 -180,-30 -220,-130 -60,-140 40,-290 210,-290 240,0 480,0 720,0z"/>
  </g>
 </g>
</svg>
