<?xml version="1.0" encoding="UTF-8"?>
<!DOCTYPE svg PUBLIC "-//W3C//DTD SVG 1.1//EN" "http://www.w3.org/Graphics/SVG/1.1/DTD/svg11.dtd">
<!-- Creator: CorelDRAW 2017 -->
<svg xmlns="http://www.w3.org/2000/svg" xml:space="preserve" width="69px" height="81px" version="1.1" style="shape-rendering:geometricPrecision; text-rendering:geometricPrecision; image-rendering:optimizeQuality; fill-rule:evenodd; clip-rule:evenodd"
viewBox="0 0 6940 8210"
 xmlns:xlink="http://www.w3.org/1999/xlink">
 <defs>
  <style type="text/css">
   <![CDATA[
    .fil0 {fill:#A2C4DF}
   ]]>
  </style>
 </defs>
 <g id="Camada_x0020_1">
  <metadata id="CorelCorpID_0Corel-Layer"/>
  <g>
   <path class="fil0" d="M3260 0l420 0c20,0 40,10 70,10 170,30 340,40 500,70 520,100 980,310 1380,670 620,560 870,1280 930,2090 20,360 10,720 -50,1070 0,50 10,90 50,130 310,320 440,720 350,1160 -100,500 -450,830 -910,1040 -50,20 -80,50 -100,100 -70,240 -190,450 -330,650 -400,530 -920,880 -1530,1100 -260,90 -530,160 -810,90 -1040,-270 -1820,-830 -2210,-1870 -10,-30 -40,-60 -70,-80 -140,-90 -290,-160 -420,-260 -350,-290 -580,-650 -520,-1140 40,-310 140,-600 380,-820 20,-20 30,-60 30,-90 -80,-540 -100,-1080 10,-1620 260,-1310 1210,-2080 2440,-2250 130,-20 260,-30 390,-50l0 0zm-50 4350c-20,-30 -40,-60 -60,-80 -220,-220 -440,-450 -670,-670 -120,-120 -230,-120 -360,0 -70,80 -150,160 -220,230 -130,130 -130,240 0,360 370,370 740,740 1110,1120 20,10 40,30 60,50 180,150 370,120 500,-60 550,-820 1110,-1640 1660,-2450 80,-120 50,-240 -60,-320 -100,-60 -190,-130 -290,-200 -140,-90 -250,-70 -350,70 -190,290 -390,580 -590,870 -230,350 -470,710 -730,1080z"/>
  </g>
 </g>
</svg>
