<?xml version="1.0" encoding="UTF-8"?>
<!DOCTYPE svg PUBLIC "-//W3C//DTD SVG 1.1//EN" "http://www.w3.org/Graphics/SVG/1.1/DTD/svg11.dtd">
<!-- Creator: CorelDRAW 2017 -->
<svg xmlns="http://www.w3.org/2000/svg" xml:space="preserve" width="69px" height="81px" version="1.1" style="shape-rendering:geometricPrecision; text-rendering:geometricPrecision; image-rendering:optimizeQuality; fill-rule:evenodd; clip-rule:evenodd"
viewBox="0 0 4690 5540"
 xmlns:xlink="http://www.w3.org/1999/xlink">
 <defs>
  <style type="text/css">
   <![CDATA[
    .fil0 {fill:#C6C6C5}
   ]]>
  </style>
 </defs>
 <g id="Camada_x0020_1">
  <metadata id="CorelCorpID_0Corel-Layer"/>
  <g>
   <path class="fil0" d="M2200 0l280 0c20,0 40,10 50,10 120,10 230,20 340,50 350,60 660,210 930,450 420,370 590,860 630,1410 20,240 10,480 -30,720 -10,40 0,60 30,90 210,220 300,480 240,780 -70,340 -310,560 -620,710 -30,10 -50,30 -60,60 -50,160 -130,310 -230,440 -260,360 -620,600 -1030,740 -180,60 -360,110 -550,60 -700,-170 -1230,-560 -1490,-1260 -10,-20 -30,-40 -50,-50 -90,-60 -200,-110 -280,-180 -240,-200 -390,-440 -350,-770 20,-210 90,-400 250,-550 20,-20 20,-40 20,-60 -50,-370 -60,-730 10,-1090 170,-890 820,-1410 1650,-1530 90,-10 180,-20 260,-30l0 0zm-30 2940c-20,-20 -30,-40 -40,-60 -150,-150 -300,-300 -450,-450 -90,-80 -160,-80 -250,0 -50,60 -100,110 -150,160 -80,80 -80,160 0,240 250,250 500,500 760,750 10,20 20,30 40,40 110,100 240,80 330,-40 380,-550 750,-1110 1120,-1660 60,-70 40,-160 -40,-210 -60,-40 -130,-90 -190,-130 -100,-70 -170,-50 -240,40 -130,200 -260,390 -400,590 -160,240 -320,480 -490,730z"/>
  </g>
 </g>
</svg>
