<?xml version="1.0" encoding="UTF-8"?>
<!DOCTYPE svg PUBLIC "-//W3C//DTD SVG 1.1//EN" "http://www.w3.org/Graphics/SVG/1.1/DTD/svg11.dtd">
<!-- Creator: CorelDRAW 2017 -->
<svg xmlns="http://www.w3.org/2000/svg" xml:space="preserve" width="78px" height="81px" version="1.1" style="shape-rendering:geometricPrecision; text-rendering:geometricPrecision; image-rendering:optimizeQuality; fill-rule:evenodd; clip-rule:evenodd"
viewBox="0 0 5920 6160"
 xmlns:xlink="http://www.w3.org/1999/xlink">
 <defs>
  <style type="text/css">
   <![CDATA[
    .fil0 {fill:#C6C6C5}
   ]]>
  </style>
 </defs>
 <g id="Camada_x0020_1">
  <metadata id="CorelCorpID_0Corel-Layer"/>
  <g id="_1914434301888">
   <path class="fil0" d="M0 1090c0,0 10,-10 10,-20 50,-210 210,-350 430,-360 160,0 320,0 480,0 180,10 280,140 250,300 -30,90 -110,160 -220,170 -140,0 -280,0 -410,0 -140,10 -180,50 -160,190 30,110 90,200 190,260 10,10 30,10 50,30 -160,0 -300,-20 -430,-100 -100,-60 -150,-140 -180,-250 0,-10 -10,-20 -10,-40l0 -180 0 0z"/>
   <path class="fil0" d="M0 2280c0,-10 10,-20 10,-30 40,-190 180,-330 380,-350 190,-10 380,-10 570,0 160,10 250,150 200,300 -20,100 -120,160 -240,170 -140,0 -270,0 -400,0 -110,0 -160,50 -140,160 20,130 90,230 210,290 10,10 20,10 40,20 -140,0 -270,-10 -390,-70 -120,-50 -200,-150 -230,-280 0,-20 -10,-30 -10,-40l0 -170 0 0z"/>
   <path class="fil0" d="M0 4650c0,0 10,-10 10,-10 30,-230 210,-370 430,-380 170,0 340,0 500,10 150,0 230,100 230,220 10,130 -70,220 -210,240 -130,10 -250,0 -370,0 -10,0 -20,0 -40,0 -160,0 -210,80 -150,240 40,100 110,190 210,240 -140,0 -270,-20 -400,-90 -110,-50 -170,-140 -200,-260 0,-10 -10,-20 -10,-40l0 -170 0 0z"/>
   <path class="fil0" d="M0 3460c0,-10 10,-20 10,-20 50,-220 210,-350 430,-360 160,0 320,0 480,0 180,0 280,130 250,290 -30,100 -110,170 -220,170 -140,10 -270,10 -410,10 -140,0 -180,50 -150,190 20,130 100,220 220,280 -230,20 -570,-80 -600,-360 0,-10 -10,-10 -10,-20l0 -180 0 0z"/>
   <g>
    <path class="fil0" d="M5920 1220c0,-420 -290,-680 -560,-730 -70,-10 -150,0 -190,-30 -50,-30 -60,-110 -100,-160 -110,-160 -260,-250 -440,-290 -20,0 -30,-10 -50,-10l-3010 0c-90,40 -200,60 -290,110 -140,80 -230,210 -290,370 280,60 450,230 410,530 -20,260 -210,370 -450,410l0 240c160,20 300,80 390,210 50,90 70,180 70,280 -10,240 -140,370 -460,450l0 240c70,20 140,30 200,60 190,90 290,280 260,490 -30,200 -200,360 -400,380 -50,10 -70,30 -60,70 0,60 0,120 0,190 160,20 290,70 380,210 70,90 80,190 80,290 -10,230 -160,370 -450,440 -40,300 10,590 220,830 210,230 470,360 790,360 1080,-10 2150,-10 3230,-10 360,0 640,-230 710,-590 10,-50 10,-100 10,-150 0,-1400 -10,-2790 0,-4190l0 0zm-740 4460c-1070,0 -2130,0 -3200,0 -140,0 -240,-50 -300,-190 -10,-10 -10,-20 -20,-50l80 0c920,0 1830,0 2740,0 370,0 660,-240 720,-600 10,-50 10,-110 10,-160 0,-1220 0,-2430 0,-3650l0 -70c100,-20 190,50 220,160 10,30 20,60 20,100 0,1390 0,2790 0,4190 0,170 -100,270 -270,270z"/>
   </g>
  </g>
 </g>
</svg>
