<?xml version="1.0" encoding="UTF-8"?>
<!DOCTYPE svg PUBLIC "-//W3C//DTD SVG 1.1//EN" "http://www.w3.org/Graphics/SVG/1.1/DTD/svg11.dtd">
<!-- Creator: CorelDRAW 2017 -->
<svg xmlns="http://www.w3.org/2000/svg" xml:space="preserve" width="78px" height="81px" version="1.1" style="shape-rendering:geometricPrecision; text-rendering:geometricPrecision; image-rendering:optimizeQuality; fill-rule:evenodd; clip-rule:evenodd"
viewBox="0 0 6890 7170"
 xmlns:xlink="http://www.w3.org/1999/xlink">
 <defs>
  <style type="text/css">
   <![CDATA[
    .fil0 {fill:#A2C4DF}
   ]]>
  </style>
 </defs>
 <g id="Camada_x0020_1">
  <metadata id="CorelCorpID_0Corel-Layer"/>
  <g id="_1914657210032">
   <path class="fil0" d="M0 1270c10,-10 10,-20 10,-30 60,-240 240,-400 500,-410 190,-10 370,-10 560,0 210,0 330,160 290,340 -30,110 -120,190 -250,200 -160,10 -330,10 -490,10 -150,0 -200,60 -170,210 20,130 100,240 210,310 20,10 30,10 70,30 -200,0 -360,-20 -510,-110 -110,-70 -180,-170 -200,-290 -10,-20 -10,-30 -20,-50l0 -210 0 0z"/>
   <path class="fil0" d="M0 2660c10,-10 10,-30 10,-40 50,-220 220,-390 440,-400 220,-20 450,-20 670,0 180,10 290,170 240,340 -40,120 -150,190 -290,200 -160,0 -310,0 -460,0 -140,0 -190,60 -170,190 30,150 110,270 250,340 10,0 20,10 40,20 -160,0 -310,-20 -450,-80 -150,-70 -230,-180 -270,-340 0,-10 0,-20 -10,-30l0 -200 0 0z"/>
   <path class="fil0" d="M0 5420c0,-10 10,-10 10,-20 30,-260 250,-430 510,-430 190,-10 380,-10 580,0 160,10 260,120 270,260 0,150 -90,260 -260,280 -140,10 -280,0 -420,0 -20,0 -30,0 -40,0 -200,0 -260,100 -190,280 50,120 130,220 260,270 -170,0 -330,-10 -480,-90 -120,-70 -190,-170 -220,-300 -10,-20 -10,-40 -20,-60l0 -190 0 0z"/>
   <path class="fil0" d="M0 4030c0,-10 10,-20 10,-30 60,-240 240,-410 500,-410 190,-10 370,-10 560,0 210,0 330,150 290,340 -30,110 -120,190 -260,200 -150,10 -310,0 -470,0 -160,10 -210,60 -180,220 30,150 120,270 260,330 -270,30 -660,-90 -700,-420 0,-10 -10,-10 -10,-20l0 -210 0 0z"/>
   <g>
    <path class="fil0" d="M6890 1420c10,-480 -330,-790 -650,-850 -80,-10 -170,0 -220,-30 -60,-40 -70,-130 -120,-190 -120,-180 -300,-290 -510,-330 -20,-10 -40,-10 -60,-20l-3500 0c-110,40 -230,70 -340,130 -160,90 -270,240 -340,430 330,70 520,270 490,610 -40,310 -250,440 -530,480l0 280c180,30 340,90 450,250 60,100 90,210 80,330 -10,280 -160,420 -530,520l0 270c80,30 160,40 230,80 230,100 330,320 300,570 -40,230 -230,410 -470,440 -50,10 -70,30 -70,90 10,70 0,140 0,210 190,20 350,90 450,250 70,100 100,220 90,340 -10,270 -180,430 -530,510 -40,350 20,680 270,960 240,270 540,420 910,420 1260,-10 2510,0 3760,0 420,0 750,-280 830,-690 10,-60 10,-120 10,-180 0,-1630 0,-3250 0,-4880l0 0zm-860 5200c-1240,0 -2480,0 -3720,0 -160,0 -290,-70 -360,-220 0,-20 0,-30 -10,-60l90 0c1060,0 2120,0 3190,0 430,0 760,-280 830,-700 20,-60 10,-130 10,-190 0,-1420 0,-2830 0,-4250l0 -90c120,-10 240,70 270,190 10,40 10,80 10,120 0,1630 0,3250 0,4880 0,200 -110,320 -310,320z"/>
   </g>
  </g>
 </g>
</svg>
