<?xml version="1.0" encoding="UTF-8"?>
<!DOCTYPE svg PUBLIC "-//W3C//DTD SVG 1.1//EN" "http://www.w3.org/Graphics/SVG/1.1/DTD/svg11.dtd">
<!-- Creator: CorelDRAW 2017 -->
<svg xmlns="http://www.w3.org/2000/svg" xml:space="preserve" width="77px" height="77px" version="1.1" style="shape-rendering:geometricPrecision; text-rendering:geometricPrecision; image-rendering:optimizeQuality; fill-rule:evenodd; clip-rule:evenodd"
viewBox="0 0 5630 5630"
 xmlns:xlink="http://www.w3.org/1999/xlink">
 <defs>
  <style type="text/css">
   <![CDATA[
    .fil1 {fill:#9C9B9B}
    .fil0 {fill:#C6C6C5}
   ]]>
  </style>
 </defs>
 <g id="Camada_x0020_1">
  <metadata id="CorelCorpID_0Corel-Layer"/>
  <g id="_1914657205520">
   <path class="fil0" d="M5630 2820c0,-1560 -1260,-2820 -2810,-2820 -1560,0 -2820,1260 -2820,2820 0,1550 1260,2810 2820,2810 1550,0 2810,-1260 2810,-2810z"/>
   <path class="fil1" d="M3010 4560c-530,-10 -950,-10 -1360,-150 -50,-20 -100,-40 -150,-70 -290,-120 -280,-560 -90,-730 190,-160 410,-260 630,-360 100,-40 210,-80 310,-120 180,-80 230,-270 100,-420 -180,-190 -320,-410 -350,-680 -30,-340 0,-660 270,-910 320,-310 1070,-280 1260,350 120,430 60,840 -250,1190 -40,40 -80,100 -100,160 -50,180 10,260 170,330 270,110 540,230 790,360 180,100 270,250 260,460 -10,180 -70,310 -230,370 -190,80 -390,140 -590,170 -260,40 -520,40 -670,50z"/>
  </g>
 </g>
</svg>
