<?xml version="1.0" encoding="utf-8"?>
<!-- Generator: Adobe Illustrator 16.0.0, SVG Export Plug-In . SVG Version: 6.00 Build 0)  -->
<!DOCTYPE svg PUBLIC "-//W3C//DTD SVG 1.1//EN" "http://www.w3.org/Graphics/SVG/1.1/DTD/svg11.dtd">
<svg version="1.1" id="Layer_1" xmlns="http://www.w3.org/2000/svg" xmlns:xlink="http://www.w3.org/1999/xlink" x="0px" y="0px"
	 width="1619.507px" height="219.526px" viewBox="0 0 1619.507 219.526" enable-background="new 0 0 1619.507 219.526"
	 xml:space="preserve">
<g>
	<g>
		<path fill="#DADADA" d="M31.028,108c2.443,5.747,4.947,11.469,7.283,17.259c0.874,2.165,2.371,3.356,4.48,4.019
			c5.628,1.766,11.37,2.529,17.24,1.742c3.785-0.507,7.5-1.343,10.754-3.533c1.211-0.815,1.996-1.853,1.945-3.391
			c-0.23-6.89,1.789-13.253,4.565-19.438c0.612-1.362,1.368-2.686,1.775-4.108c1.006-3.511-1.009-5.607-4.591-5.085
			c-2.426,0.354-4.334,1.747-6.436,2.775c-2.611,1.277-4.014,0.685-5.188-1.954c-0.658-1.479-1.293-3.01-2.223-4.315
			c-2.795-3.923-7.522-3.914-10.302,0.02c-0.847,1.199-1.358,2.651-1.933,4.024c-0.649,1.556-1.683,2.808-3.285,3.196
			c-2.299,0.557-4.672,0.807-7.014,1.188c-0.02-0.149-0.039-0.299-0.059-0.449c-1.371,0-2.745-0.065-4.111,0.013
			c-3.68,0.211-5.285,2.951-3.732,6.299C30.47,106.845,30.776,107.411,31.028,108z"/>
		<path fill="#DADADA" d="M113.827,163.148c-8.35-14.629-20.532-24.7-36.555-30.07c-0.996-0.334-1.63-0.069-2.458,0.438
			c-1.921,1.176-3.854,2.431-5.95,3.205c-5.061,1.87-10.383,2.076-15.72,1.871c-4.771-0.184-9.351-1.143-13.472-3.69
			c-0.822-0.509-1.52-0.518-2.399-0.179c-9.989,3.851-18.316,10.001-25.059,18.266c-9.466,11.604-13.888,24.686-11.638,39.785
			c1.607,10.778,7.396,17.952,17.596,21.708c6.287,2.315,12.813,3.496,19.436,4.006c7.346,0.567,14.721,0.772,20.141,1.039
			c6.67-0.188,11.387-0.264,16.099-0.465c7.759-0.331,15.474-1.087,22.993-3.145c5.248-1.436,10.227-3.474,14.324-7.206
			c4.799-4.372,6.963-10.02,7.912-16.294C120.648,182.05,119.013,172.234,113.827,163.148z M75.757,190.173
			c-0.831,0-1.674,0-2.606,0c0,1.818,0,3.549,0,5.339c-0.911,0-1.733,0-2.646,0c0,0.901,0,1.744,0,2.677c-1.819,0-3.549,0-5.339,0
			c0,0.911,0,1.733,0,2.614c-3.565,0-7.068,0-10.665,0c0-0.841,0-1.686,0-2.587c-1.8,0-3.509,0-5.329,0c0-0.928,0-1.799,0-2.668
			c-0.006,0-0.012,0-0.018,0c0-0.005,0-0.011,0-0.016c-0.849,0-1.697,0-2.641,0c0-1.803,0-3.556,0-5.31c-0.008,0-0.016,0-0.023,0
			c0-0.008,0-0.017,0-0.025c-0.848,0-1.695,0-2.597,0c0-7.087,0-14.136,0-21.282c0.862,0,1.729,0,2.597,0c0-0.008,0-0.017,0-0.025
			c0.008,0,0.016,0,0.023,0c0-1.735,0-3.469,0-5.304c0.906,0,1.773,0,2.64,0c0-0.008,0-0.016,0-0.023c0.009,0,0.018,0,0.026,0
			c0-0.848,0-1.696,0-2.64c1.791,0,3.547,0,5.301,0c0-0.008,0-0.016,0-0.023c0.009,0,0.018,0,0.025,0
			c-0.005-0.884-0.01-1.768-0.014-2.652c3.552,0,7.104,0,10.654,0c-0.004,0.884-0.008,1.768-0.013,2.652c0.009,0,0.017,0,0.025,0
			c0,0.008,0,0.016,0,0.023c1.734,0,3.47,0,5.296,0c0,0.88,0,1.724,0,2.625c0.911,0,1.733,0,2.646,0c0,1.789,0,3.519,0,5.339
			c0.93,0,1.773,0,2.656,0C75.757,176.012,75.757,183.047,75.757,190.173z"/>
		<path fill="#DADADA" d="M64.106,195.605c1.102-0.001,1.101-0.006,1.109-1.109c0.014-1.746-0.189-1.539,1.559-1.553
			c1.098-0.009,1.097-0.008,1.105-1.115c0.014-1.744-0.188-1.535,1.562-1.549c1.095-0.009,1.101-0.008,1.101-1.119
			c0.002-6.154,0.001-12.309,0.001-18.463c0-1.821,0-1.843-1.851-1.855c-0.605-0.004-0.842-0.189-0.823-0.813
			c0.035-1.219-0.009-2.439,0.017-3.659c0.013-0.559-0.156-0.811-0.756-0.768c-0.628,0.046-1.262,0.01-1.972,0.01
			c0-0.95,0-1.822,0-2.693c-0.009,0-0.017,0-0.026,0c0.001-0.008,0.001-0.016,0.001-0.023c-3.542,0-7.085,0-10.628,0
			c0,0.008,0,0.016,0,0.023c-0.008,0-0.017,0-0.025,0c0,0.867,0,1.735,0,2.64c-1.834,0-3.568,0-5.301,0c0,0.008,0,0.016,0,0.023
			c-0.009,0-0.018,0-0.026,0c0,1.755,0,3.509,0,5.304c-0.944,0-1.793,0-2.64,0c0,0.008,0,0.017,0,0.025c-0.008,0-0.016,0-0.023,0
			c0,7.094,0,14.188,0,21.282c0.008,0,0.016,0,0.023,0c0,0.008,0,0.017,0,0.025c0.867,0,1.732,0,2.641,0c0,1.816,0,3.563,0,5.31
			c0.006,0,0.012,0,0.018,0c0,0.005,0,0.011,0,0.017c2.04,0.019,4.08,0.049,6.12,0.056
			C58.229,195.614,61.168,195.608,64.106,195.605z M57.181,190.221c1.748,0,3.52,0,5.293,0c0-0.006,0-0.012,0-0.018
			c0.005,0,0.01,0,0.016,0c-0.016-0.27-0.045-0.539-0.046-0.808c-0.003-6.51-0.002-13.02-0.002-19.53c0-0.299,0-0.598,0-0.946
			c0.927,0,1.771,0,2.677,0c0,7.079,0,14.151,0,21.284c-0.889,0-1.758,0-2.629,0c0,0.006,0.001,0.012,0.001,0.018l0,0l0,0l0,0l0,0
			c-0.006,0-0.011,0-0.017,0c0,0.848,0,1.696,0,2.618c-1.739,0-3.486,0-5.293,0C57.181,192.007,57.181,191.164,57.181,190.221z"/>
	</g>
	<g>
		<path fill="#DADADA" d="M1530.885,108c2.444,5.747,4.948,11.469,7.284,17.259c0.874,2.165,2.37,3.356,4.479,4.019
			c5.629,1.766,11.371,2.529,17.24,1.742c3.786-0.507,7.501-1.343,10.755-3.533c1.211-0.815,1.996-1.853,1.944-3.391
			c-0.23-6.89,1.789-13.253,4.566-19.438c0.611-1.362,1.367-2.686,1.774-4.108c1.006-3.511-1.008-5.607-4.591-5.085
			c-2.425,0.354-4.333,1.747-6.435,2.775c-2.611,1.277-4.015,0.685-5.188-1.954c-0.657-1.479-1.293-3.01-2.223-4.315
			c-2.795-3.923-7.522-3.914-10.301,0.02c-0.848,1.199-1.358,2.651-1.933,4.024c-0.65,1.556-1.684,2.808-3.286,3.196
			c-2.299,0.557-4.672,0.807-7.013,1.188c-0.02-0.149-0.039-0.299-0.059-0.449c-1.371,0-2.746-0.065-4.112,0.013
			c-3.68,0.211-5.284,2.951-3.731,6.299C1530.327,106.845,1530.634,107.411,1530.885,108z"/>
		<path fill="#DADADA" d="M1613.684,163.148c-8.349-14.629-20.532-24.7-36.554-30.07c-0.997-0.334-1.63-0.069-2.458,0.438
			c-1.921,1.176-3.855,2.431-5.95,3.205c-5.062,1.87-10.384,2.076-15.721,1.871c-4.771-0.184-9.351-1.143-13.471-3.69
			c-0.823-0.509-1.52-0.518-2.4-0.179c-9.988,3.851-18.316,10.001-25.059,18.266c-9.466,11.604-13.888,24.686-11.637,39.785
			c1.606,10.778,7.396,17.952,17.595,21.708c6.288,2.315,12.813,3.496,19.436,4.006c7.347,0.567,14.722,0.772,20.141,1.039
			c6.671-0.188,11.388-0.264,16.099-0.465c7.76-0.331,15.474-1.087,22.994-3.145c5.247-1.436,10.227-3.474,14.323-7.206
			c4.8-4.372,6.963-10.02,7.913-16.294C1620.505,182.05,1618.869,172.234,1613.684,163.148z M1575.614,190.173
			c-0.831,0-1.674,0-2.607,0c0,1.818,0,3.549,0,5.339c-0.911,0-1.733,0-2.646,0c0,0.901,0,1.744,0,2.677c-1.818,0-3.549,0-5.338,0
			c0,0.911,0,1.733,0,2.614c-3.565,0-7.069,0-10.665,0c0-0.841,0-1.686,0-2.587c-1.8,0-3.51,0-5.33,0c0-0.928,0-1.799,0-2.668
			c-0.005,0-0.012,0-0.017,0c0-0.005,0-0.011,0-0.016c-0.85,0-1.698,0-2.642,0c0-1.803,0-3.556,0-5.31c-0.008,0-0.016,0-0.023,0
			c0-0.008,0-0.017,0-0.025c-0.848,0-1.694,0-2.596,0c0-7.087,0-14.136,0-21.282c0.861,0,1.729,0,2.596,0c0-0.008,0-0.017,0-0.025
			c0.008,0,0.016,0,0.023,0c0-1.735,0-3.469,0-5.304c0.906,0,1.773,0,2.641,0c0-0.008,0-0.016,0-0.023c0.008,0,0.017,0,0.025,0
			c0-0.848,0-1.696,0-2.64c1.792,0,3.547,0,5.302,0c0-0.008,0-0.016,0-0.023c0.008,0,0.017,0,0.025,0
			c-0.005-0.884-0.01-1.768-0.014-2.652c3.552,0,7.103,0,10.654,0c-0.004,0.884-0.009,1.768-0.014,2.652c0.009,0,0.018,0,0.025,0
			c0,0.008,0,0.016,0,0.023c1.735,0,3.471,0,5.297,0c0,0.88,0,1.724,0,2.625c0.91,0,1.733,0,2.646,0c0,1.789,0,3.519,0,5.339
			c0.93,0,1.772,0,2.656,0C1575.614,176.012,1575.614,183.047,1575.614,190.173z"/>
		<path fill="#DADADA" d="M1563.964,195.605c1.102-0.001,1.1-0.006,1.109-1.109c0.014-1.746-0.19-1.539,1.558-1.553
			c1.099-0.009,1.097-0.008,1.105-1.115c0.014-1.744-0.188-1.535,1.562-1.549c1.095-0.009,1.101-0.008,1.101-1.119
			c0.002-6.154,0.001-12.309,0.001-18.463c0-1.821,0.001-1.843-1.85-1.855c-0.606-0.004-0.842-0.189-0.823-0.813
			c0.035-1.219-0.009-2.439,0.017-3.659c0.012-0.559-0.156-0.811-0.756-0.768c-0.628,0.046-1.262,0.01-1.973,0.01
			c0-0.95,0-1.822,0-2.693c-0.008,0-0.017,0-0.025,0c0-0.008,0-0.016,0-0.023c-3.542,0-7.085,0-10.627,0c0,0.008,0,0.016,0,0.023
			c-0.009,0-0.018,0-0.025,0c0,0.867,0,1.735,0,2.64c-1.834,0-3.568,0-5.302,0c0,0.008,0,0.016,0,0.023c-0.009,0-0.018,0-0.025,0
			c0,1.755,0,3.509,0,5.304c-0.945,0-1.793,0-2.641,0c0,0.008,0,0.017,0,0.025c-0.008,0-0.016,0-0.023,0c0,7.094,0,14.188,0,21.282
			c0.008,0,0.016,0,0.023,0c0,0.008,0,0.017,0,0.025c0.867,0,1.733,0,2.642,0c0,1.816,0,3.563,0,5.31c0.005,0,0.012,0,0.017,0
			c0,0.005,0,0.011,0,0.017c2.04,0.019,4.08,0.049,6.12,0.056C1558.086,195.614,1561.025,195.608,1563.964,195.605z
			 M1557.038,190.221c1.748,0,3.52,0,5.292,0c0-0.006,0-0.012,0-0.018c0.005,0,0.011,0,0.017,0c-0.017-0.27-0.046-0.539-0.046-0.808
			c-0.003-6.51-0.002-13.02-0.002-19.53c0-0.299,0-0.598,0-0.946c0.926,0,1.77,0,2.677,0c0,7.079,0,14.151,0,21.284
			c-0.889,0-1.759,0-2.629,0c0,0.006,0,0.012,0.001,0.018l0,0l0,0l0,0l0,0c-0.006,0-0.012,0-0.018,0c0,0.848,0,1.696,0,2.618
			c-1.738,0-3.485,0-5.292,0C1557.038,192.007,1557.038,191.164,1557.038,190.221z"/>
	</g>
	<g>
		<path fill="#DADADA" d="M269.233,121.929c2.026,4.763,4.102,9.507,6.037,14.306c0.725,1.795,1.965,2.782,3.714,3.331
			c4.665,1.464,9.425,2.096,14.29,1.444c3.138-0.42,6.217-1.113,8.914-2.929c1.004-0.676,1.655-1.536,1.612-2.811
			c-0.191-5.711,1.483-10.985,3.784-16.112c0.508-1.129,1.135-2.227,1.473-3.405c0.833-2.91-0.837-4.647-3.807-4.214
			c-2.01,0.293-3.592,1.448-5.334,2.3c-2.164,1.058-3.326,0.567-4.3-1.62c-0.545-1.226-1.071-2.495-1.843-3.577
			c-2.316-3.251-6.234-3.244-8.538,0.017c-0.702,0.994-1.126,2.197-1.602,3.336c-0.539,1.289-1.396,2.327-2.724,2.649
			c-1.906,0.461-3.873,0.669-5.813,0.985c-0.017-0.124-0.032-0.248-0.048-0.372c-1.137,0-2.276-0.054-3.409,0.01
			c-3.05,0.175-4.38,2.446-3.093,5.222C268.771,120.971,269.025,121.439,269.233,121.929z"/>
		<path fill="#DADADA" d="M337.864,167.64c-6.92-12.126-17.019-20.474-30.299-24.924c-0.826-0.277-1.352-0.057-2.037,0.363
			c-1.593,0.975-3.196,2.015-4.932,2.656c-4.195,1.55-8.607,1.721-13.031,1.551c-3.955-0.152-7.75-0.948-11.166-3.059
			c-0.683-0.422-1.26-0.429-1.989-0.148c-8.28,3.191-15.183,8.29-20.771,15.14c-7.847,9.619-11.512,20.462-9.646,32.978
			c1.332,8.933,6.131,14.879,14.584,17.993c5.213,1.919,10.621,2.897,16.111,3.321c6.089,0.47,12.201,0.639,16.693,0.86
			c5.529-0.155,9.439-0.219,13.344-0.385c6.432-0.274,12.826-0.901,19.06-2.606c4.35-1.19,8.478-2.88,11.872-5.973
			c3.979-3.624,5.771-8.305,6.561-13.505C343.519,183.308,342.163,175.171,337.864,167.64z M306.309,190.041
			c-0.688,0-1.387,0-2.16,0c0,1.507,0,2.941,0,4.425c-0.756,0-1.437,0-2.194,0c0,0.748,0,1.446,0,2.219c-1.507,0-2.941,0-4.425,0
			c0,0.755,0,1.437,0,2.167c-2.955,0-5.859,0-8.84,0c0-0.697,0-1.397,0-2.144c-1.491,0-2.909,0-4.417,0c0-0.77,0-1.491,0-2.212
			c-0.006,0-0.01,0-0.016,0c0-0.004,0-0.009,0-0.014c-0.703,0-1.406,0-2.188,0c0-1.494,0-2.947,0-4.401c-0.007,0-0.013,0-0.02,0
			c0-0.007,0-0.014,0-0.021c-0.702,0-1.405,0-2.151,0c0-5.874,0-11.717,0-17.64c0.714,0,1.433,0,2.151,0c0-0.007,0-0.014,0-0.021
			c0.007,0,0.013,0,0.02,0c0-1.438,0-2.875,0-4.396c0.751,0,1.47,0,2.188,0c0-0.006,0-0.013,0-0.02c0.007,0,0.014,0,0.021,0
			c0-0.703,0-1.406,0-2.188c1.485,0,2.939,0,4.395,0c0-0.006,0-0.013,0-0.019c0.007,0,0.014,0,0.021,0
			c-0.004-0.733-0.007-1.466-0.011-2.198c2.943,0,5.887,0,8.831,0c-0.004,0.732-0.007,1.465-0.011,2.198c0.006,0,0.014,0,0.021,0
			c0,0.006,0,0.013,0,0.019c1.438,0,2.876,0,4.39,0c0,0.729,0,1.429,0,2.176c0.756,0,1.438,0,2.193,0c0,1.483,0,2.917,0,4.426
			c0.771,0,1.471,0,2.202,0C306.309,178.303,306.309,184.134,306.309,190.041z"/>
		<path fill="#DADADA" d="M296.651,194.543c0.914-0.001,0.913-0.005,0.92-0.919c0.012-1.447-0.157-1.275,1.292-1.287
			c0.91-0.008,0.909-0.006,0.916-0.924c0.011-1.445-0.155-1.271,1.295-1.284c0.907-0.008,0.911-0.006,0.912-0.927
			c0.001-5.101,0.001-10.203,0.001-15.304c0-1.51,0-1.528-1.533-1.538c-0.504-0.003-0.698-0.157-0.684-0.674
			c0.029-1.01-0.007-2.022,0.015-3.033c0.01-0.463-0.13-0.672-0.627-0.636c-0.521,0.038-1.046,0.008-1.635,0.008
			c0-0.788,0-1.51,0-2.232c-0.007,0-0.015,0-0.021,0c0-0.006,0-0.013,0-0.019c-2.937,0-5.873,0-8.81,0c0,0.006,0,0.013,0,0.019
			c-0.007,0-0.014,0-0.021,0c0,0.719,0,1.438,0,2.188c-1.521,0-2.958,0-4.395,0c0,0.006,0,0.013,0,0.02c-0.008,0-0.015,0-0.021,0
			c0,1.454,0,2.909,0,4.396c-0.783,0-1.486,0-2.188,0c0,0.007,0,0.014,0,0.021c-0.007,0-0.013,0-0.02,0c0,5.88,0,11.76,0,17.64
			c0.007,0,0.013,0,0.02,0c0,0.007,0,0.014,0,0.021c0.719,0,1.437,0,2.188,0c0,1.505,0,2.953,0,4.401c0.006,0,0.01,0,0.016,0
			c0,0.004,0,0.009,0,0.014c1.69,0.016,3.381,0.041,5.072,0.046C291.78,194.55,294.216,194.546,296.651,194.543z M290.911,190.08
			c1.449,0,2.918,0,4.387,0c0-0.004,0-0.01,0-0.015c0.005,0,0.01,0,0.014,0c-0.014-0.223-0.037-0.446-0.038-0.67
			c-0.002-5.396-0.001-10.792-0.001-16.188c0-0.248,0-0.496,0-0.784c0.768,0,1.467,0,2.219,0c0,5.868,0,11.729,0,17.642
			c-0.736,0-1.459,0-2.18,0c0,0.005,0,0.01,0.001,0.015l0,0l0,0v0v0c-0.005,0-0.01,0-0.015,0c0,0.703,0,1.406,0,2.17
			c-1.441,0-2.889,0-4.387,0C290.911,191.561,290.911,190.862,290.911,190.08z"/>
	</g>
	<g>
		<path fill="#DADADA" d="M1152.841,126.618c2.026,4.763,4.102,9.506,6.038,14.306c0.724,1.794,1.964,2.782,3.713,3.331
			c4.665,1.463,9.425,2.096,14.29,1.444c3.138-0.42,6.218-1.114,8.914-2.929c1.004-0.676,1.655-1.536,1.612-2.811
			c-0.191-5.711,1.483-10.985,3.784-16.112c0.508-1.129,1.134-2.227,1.472-3.405c0.834-2.91-0.836-4.647-3.806-4.214
			c-2.01,0.293-3.592,1.448-5.334,2.3c-2.164,1.058-3.327,0.567-4.3-1.62c-0.545-1.226-1.072-2.495-1.843-3.577
			c-2.316-3.252-6.234-3.244-8.538,0.017c-0.702,0.994-1.126,2.197-1.602,3.336c-0.539,1.289-1.396,2.327-2.725,2.648
			c-1.905,0.462-3.872,0.669-5.813,0.985c-0.017-0.124-0.032-0.248-0.049-0.372c-1.136,0-2.275-0.054-3.408,0.01
			c-3.05,0.175-4.38,2.446-3.093,5.221C1152.379,125.659,1152.633,126.128,1152.841,126.618z"/>
		<path fill="#DADADA" d="M1221.472,172.329c-6.92-12.126-17.019-20.474-30.299-24.924c-0.826-0.277-1.352-0.057-2.038,0.363
			c-1.592,0.976-3.195,2.015-4.932,2.657c-4.195,1.55-8.606,1.721-13.03,1.551c-3.955-0.152-7.751-0.948-11.166-3.06
			c-0.683-0.421-1.26-0.429-1.989-0.147c-8.28,3.191-15.183,8.29-20.771,15.14c-7.847,9.618-11.512,20.462-9.646,32.977
			c1.332,8.934,6.131,14.88,14.584,17.994c5.213,1.919,10.621,2.897,16.11,3.321c6.09,0.47,12.202,0.64,16.694,0.861
			c5.529-0.155,9.438-0.219,13.344-0.385c6.432-0.274,12.826-0.901,19.06-2.607c4.35-1.19,8.477-2.879,11.872-5.973
			c3.979-3.624,5.771-8.305,6.56-13.506C1227.126,187.997,1225.771,179.86,1221.472,172.329z M1189.916,194.729
			c-0.688,0-1.387,0-2.16,0c0,1.507,0,2.941,0,4.426c-0.756,0-1.438,0-2.194,0c0,0.748,0,1.446,0,2.219c-1.507,0-2.941,0-4.425,0
			c0,0.755,0,1.437,0,2.167c-2.955,0-5.859,0-8.84,0c0-0.697,0-1.397,0-2.145c-1.492,0-2.909,0-4.418,0c0-0.769,0-1.491,0-2.212
			c-0.005,0-0.009,0-0.014,0c0-0.004,0-0.009,0-0.014c-0.704,0-1.408,0-2.189,0c0-1.494,0-2.947,0-4.401c-0.007,0-0.013,0-0.02,0
			c0-0.007,0-0.014,0-0.021c-0.702,0-1.405,0-2.151,0c0-5.874,0-11.717,0-17.64c0.714,0,1.433,0,2.151,0c0-0.007,0-0.014,0-0.021
			c0.007,0,0.013,0,0.02,0c0-1.438,0-2.875,0-4.396c0.751,0,1.47,0,2.188,0c0-0.007,0-0.013,0-0.02c0.007,0,0.014,0,0.021,0
			c0-0.703,0-1.406,0-2.188c1.485,0,2.939,0,4.395,0c0-0.006,0-0.013,0-0.02c0.007,0,0.014,0,0.021,0
			c-0.004-0.732-0.008-1.465-0.012-2.198c2.944,0,5.888,0,8.832,0c-0.004,0.732-0.008,1.465-0.011,2.198c0.007,0,0.014,0,0.021,0
			c0,0.007,0,0.013,0,0.02c1.438,0,2.876,0,4.39,0c0,0.729,0,1.429,0,2.176c0.756,0,1.438,0,2.194,0c0,1.482,0,2.917,0,4.426
			c0.771,0,1.47,0,2.201,0C1189.916,182.992,1189.916,188.823,1189.916,194.729z"/>
		<path fill="#DADADA" d="M1180.26,199.232c0.913-0.001,0.912-0.005,0.919-0.919c0.012-1.447-0.157-1.276,1.292-1.288
			c0.91-0.007,0.909-0.006,0.916-0.924c0.011-1.445-0.155-1.272,1.295-1.284c0.907-0.008,0.911-0.006,0.912-0.927
			c0.001-5.102,0.001-10.203,0.001-15.304c0-1.51,0-1.528-1.533-1.538c-0.503-0.003-0.698-0.157-0.684-0.674
			c0.029-1.01-0.007-2.022,0.015-3.033c0.01-0.463-0.13-0.672-0.627-0.636c-0.521,0.038-1.046,0.008-1.635,0.008
			c0-0.788,0-1.51,0-2.232c-0.007,0-0.014,0-0.021,0c0.001-0.006,0.001-0.013,0.001-0.02c-2.937,0-5.873,0-8.81,0
			c0,0.007,0,0.013,0,0.02c-0.007,0-0.014,0-0.021,0c0,0.719,0,1.438,0,2.188c-1.521,0-2.958,0-4.395,0c0,0.006,0,0.013,0,0.02
			c-0.008,0-0.015,0-0.021,0c0,1.454,0,2.909,0,4.396c-0.783,0-1.486,0-2.188,0c0,0.007,0,0.014,0,0.021c-0.007,0-0.013,0-0.02,0
			c0,5.88,0,11.76,0,17.64c0.007,0,0.013,0,0.02,0c0,0.007,0,0.014,0,0.021c0.719,0,1.437,0,2.189,0c0,1.506,0,2.954,0,4.401
			c0.005,0,0.009,0,0.014,0c0,0.004,0,0.009,0,0.014c1.691,0.016,3.382,0.041,5.073,0.046
			C1175.388,199.239,1177.823,199.234,1180.26,199.232z M1174.519,194.769c1.449,0,2.918,0,4.387,0c0-0.004,0-0.01,0-0.015
			c0.005,0,0.009,0,0.014,0c-0.014-0.223-0.038-0.447-0.038-0.67c-0.002-5.396-0.002-10.792-0.002-16.188c0-0.248,0-0.496,0-0.784
			c0.768,0,1.468,0,2.219,0c0,5.868,0,11.729,0,17.642c-0.736,0-1.457,0-2.179,0c0,0.005,0,0.01,0.001,0.015l0,0l0,0v0v0
			c-0.005,0-0.01,0-0.015,0c0,0.703,0,1.406,0,2.17c-1.441,0-2.889,0-4.387,0C1174.519,196.25,1174.519,195.551,1174.519,194.769z"
			/>
	</g>
	<g>
		<path fill="#DADADA" d="M159.965,12.791c1.648,3.875,3.337,7.735,4.913,11.64c0.589,1.46,1.598,2.264,3.021,2.71
			c3.796,1.191,7.669,1.706,11.628,1.175c2.553-0.342,5.059-0.906,7.252-2.383c0.817-0.55,1.348-1.25,1.313-2.287
			c-0.156-4.647,1.207-8.938,3.079-13.11c0.413-0.919,0.923-1.812,1.197-2.771c0.679-2.368-0.681-3.781-3.097-3.429
			c-1.635,0.238-2.922,1.178-4.34,1.871c-1.761,0.861-2.707,0.462-3.498-1.318c-0.443-0.997-0.873-2.03-1.5-2.91
			c-1.885-2.646-5.072-2.639-6.947,0.014c-0.571,0.809-0.916,1.788-1.303,2.714c-0.438,1.049-1.136,1.893-2.217,2.155
			c-1.551,0.375-3.15,0.544-4.729,0.801c-0.013-0.101-0.026-0.202-0.04-0.303c-0.924,0-1.852-0.044-2.772,0.009
			c-2.481,0.142-3.564,1.99-2.517,4.248C159.589,12.011,159.796,12.393,159.965,12.791z"/>
		<path fill="#DADADA" d="M215.807,49.984c-5.63-9.867-13.847-16.659-24.653-20.28c-0.672-0.226-1.1-0.047-1.658,0.295
			c-1.295,0.793-2.6,1.64-4.012,2.161c-3.414,1.261-7.004,1.4-10.603,1.262c-3.218-0.124-6.307-0.771-9.085-2.489
			c-0.556-0.343-1.025-0.349-1.619-0.121c-6.736,2.597-12.354,6.745-16.9,12.319c-6.385,7.826-9.366,16.649-7.848,26.832
			c1.083,7.269,4.987,12.107,11.865,14.641c4.242,1.562,8.643,2.357,13.109,2.702c4.954,0.382,9.928,0.521,13.582,0.7
			c4.5-0.126,7.681-0.178,10.858-0.313c5.233-0.223,10.436-0.733,15.507-2.121c3.539-0.968,6.898-2.343,9.66-4.86
			c3.237-2.949,4.696-6.757,5.338-10.989C220.407,62.732,219.304,56.112,215.807,49.984z M190.132,68.21c-0.561,0-1.129,0-1.758,0
			c0,1.227,0,2.393,0,3.601c-0.615,0-1.17,0-1.785,0c0,0.608,0,1.176,0,1.805c-1.227,0-2.394,0-3.602,0c0,0.614,0,1.169,0,1.763
			c-2.404,0-4.768,0-7.191,0c0-0.567,0-1.137,0-1.745c-1.215,0-2.367,0-3.596,0c0-0.626,0-1.213,0-1.8c-0.004,0-0.008,0-0.011,0
			c0-0.003,0-0.007,0-0.011c-0.573,0-1.146,0-1.782,0c0-1.216,0-2.398,0-3.581c-0.004,0-0.01,0-0.016,0c0-0.006,0-0.012,0-0.017
			c-0.57,0-1.143,0-1.75,0c0-4.78,0-9.534,0-14.354c0.581,0,1.166,0,1.75,0c0-0.006,0-0.011,0-0.017c0.006,0,0.012,0,0.016,0
			c0-1.17,0-2.339,0-3.577c0.611,0,1.197,0,1.781,0c0-0.005,0-0.01,0-0.016c0.006,0,0.012,0,0.018,0c0-0.572,0-1.144,0-1.781
			c1.209,0,2.393,0,3.575,0c0-0.005,0-0.01,0-0.016c0.006,0,0.011,0,0.017,0c-0.002-0.596-0.006-1.192-0.009-1.789
			c2.396,0,4.791,0,7.187,0c-0.004,0.596-0.006,1.192-0.01,1.789c0.006,0,0.012,0,0.018,0c0,0.005,0,0.011,0,0.016
			c1.17,0,2.34,0,3.572,0c0,0.594,0,1.163,0,1.771c0.613,0,1.168,0,1.784,0c0,1.206,0,2.373,0,3.601c0.627,0,1.196,0,1.792,0
			C190.132,58.66,190.132,63.404,190.132,68.21z"/>
		<path fill="#DADADA" d="M182.274,71.874c0.742-0.001,0.742-0.004,0.748-0.748c0.01-1.178-0.129-1.038,1.051-1.047
			c0.74-0.006,0.739-0.005,0.745-0.752c0.009-1.176-0.126-1.035,1.054-1.044c0.738-0.006,0.742-0.005,0.742-0.755
			c0.001-4.15,0-8.301,0-12.452c0-1.228,0.001-1.243-1.247-1.251c-0.409-0.002-0.567-0.127-0.556-0.548
			c0.023-0.822-0.006-1.645,0.012-2.467c0.008-0.377-0.105-0.547-0.51-0.518c-0.424,0.031-0.852,0.007-1.33,0.007
			c0-0.641,0-1.229,0-1.816c-0.006,0-0.012,0-0.018,0c0-0.005,0-0.01,0-0.016c-2.389,0-4.778,0-7.168,0c0,0.005,0,0.01,0,0.016
			c-0.005,0-0.011,0-0.017,0c0,0.585,0,1.17,0,1.781c-1.237,0-2.406,0-3.575,0c0,0.005,0,0.011,0,0.016c-0.006,0-0.012,0-0.018,0
			c0,1.184,0,2.367,0,3.577c-0.637,0-1.209,0-1.781,0c0,0.006,0,0.012,0,0.017c-0.004,0-0.01,0-0.016,0c0,4.785,0,9.569,0,14.354
			c0.006,0,0.012,0,0.016,0c0,0.005,0,0.011,0,0.017c0.586,0,1.17,0,1.782,0c0,1.225,0,2.403,0,3.581c0.003,0,0.007,0,0.011,0
			c0,0.003,0,0.007,0,0.011c1.377,0.013,2.752,0.033,4.129,0.038C178.31,71.879,180.292,71.876,182.274,71.874z M177.603,68.243
			c1.18,0,2.375,0,3.57,0c0-0.004,0-0.008,0-0.012c0.003,0,0.007,0,0.011,0c-0.011-0.182-0.03-0.363-0.031-0.545
			c-0.001-4.391-0.001-8.781-0.001-13.171c0-0.202,0-0.403,0-0.638c0.624,0,1.193,0,1.805,0c0,4.774,0,9.543,0,14.354
			c-0.6,0-1.186,0-1.772,0c0,0.004,0,0.008,0.001,0.012l0,0l0,0l0,0l0,0c-0.004,0-0.008,0-0.012,0c0,0.572,0,1.144,0,1.766
			c-1.173,0-2.352,0-3.57,0C177.603,69.447,177.603,68.878,177.603,68.243z"/>
	</g>
	<g>
		<path fill="#DADADA" d="M1368.29,123.068c1.648,3.875,3.337,7.735,4.913,11.64c0.589,1.46,1.599,2.264,3.021,2.71
			c3.797,1.191,7.669,1.706,11.628,1.175c2.553-0.342,5.059-0.906,7.253-2.383c0.816-0.55,1.347-1.25,1.312-2.287
			c-0.155-4.647,1.207-8.938,3.079-13.109c0.413-0.919,0.923-1.812,1.197-2.771c0.679-2.368-0.68-3.781-3.096-3.429
			c-1.636,0.238-2.923,1.178-4.34,1.871c-1.762,0.861-2.708,0.462-3.499-1.318c-0.444-0.997-0.873-2.03-1.5-2.91
			c-1.885-2.646-5.073-2.639-6.946,0.014c-0.572,0.809-0.916,1.788-1.304,2.714c-0.438,1.049-1.136,1.893-2.216,2.155
			c-1.551,0.375-3.151,0.544-4.73,0.801c-0.013-0.101-0.026-0.202-0.039-0.303c-0.925,0-1.852-0.044-2.773,0.008
			c-2.481,0.142-3.564,1.99-2.517,4.249C1367.914,122.289,1368.121,122.67,1368.29,123.068z"/>
		<path fill="#DADADA" d="M1424.132,160.261c-5.63-9.867-13.847-16.659-24.652-20.28c-0.673-0.226-1.1-0.046-1.658,0.296
			c-1.296,0.793-2.6,1.639-4.013,2.161c-3.413,1.261-7.003,1.4-10.603,1.262c-3.218-0.124-6.306-0.771-9.085-2.489
			c-0.556-0.343-1.025-0.349-1.619-0.121c-6.736,2.597-12.353,6.745-16.899,12.319c-6.385,7.826-9.367,16.649-7.849,26.832
			c1.083,7.269,4.987,12.107,11.866,14.641c4.241,1.562,8.641,2.357,13.108,2.702c4.954,0.382,9.928,0.521,13.583,0.7
			c4.499-0.126,7.68-0.178,10.857-0.313c5.233-0.223,10.436-0.733,15.508-2.121c3.539-0.968,6.896-2.343,9.66-4.86
			c3.236-2.949,4.695-6.757,5.337-10.989C1428.732,173.009,1427.629,166.389,1424.132,160.261z M1398.457,178.488
			c-0.561,0-1.129,0-1.759,0c0,1.226,0,2.393,0,3.601c-0.614,0-1.169,0-1.784,0c0,0.608,0,1.176,0,1.805c-1.227,0-2.394,0-3.601,0
			c0,0.615,0,1.169,0,1.764c-2.404,0-4.768,0-7.193,0c0-0.568,0-1.137,0-1.745c-1.213,0-2.366,0-3.594,0c0-0.626,0-1.213,0-1.8
			c-0.004,0-0.008,0-0.012,0c0-0.003,0-0.007,0-0.011c-0.572,0-1.146,0-1.781,0c0-1.216,0-2.398,0-3.581c-0.005,0-0.011,0-0.016,0
			c0-0.006,0-0.012,0-0.017c-0.572,0-1.144,0-1.751,0c0-4.78,0-9.534,0-14.354c0.581,0,1.166,0,1.751,0c0-0.006,0-0.011,0-0.017
			c0.005,0,0.01,0,0.016,0c0-1.17,0-2.34,0-3.577c0.611,0,1.195,0,1.78,0c0-0.005,0-0.01,0-0.016c0.006,0,0.012,0,0.018,0
			c0-0.572,0-1.144,0-1.781c1.209,0,2.393,0,3.575,0c0-0.005,0-0.011,0-0.016c0.006,0,0.012,0,0.018,0
			c-0.004-0.596-0.006-1.192-0.01-1.789c2.396,0,4.791,0,7.187,0c-0.003,0.596-0.007,1.192-0.009,1.789c0.005,0,0.011,0,0.017,0
			c0,0.005,0,0.01,0,0.016c1.17,0,2.341,0,3.571,0c0,0.594,0,1.163,0,1.771c0.615,0,1.17,0,1.785,0c0,1.206,0,2.373,0,3.601
			c0.627,0,1.196,0,1.792,0C1398.457,168.937,1398.457,173.682,1398.457,178.488z"/>
		<path fill="#DADADA" d="M1390.6,182.151c0.743-0.001,0.742-0.004,0.748-0.748c0.009-1.178-0.128-1.038,1.051-1.047
			c0.74-0.006,0.739-0.005,0.745-0.752c0.01-1.176-0.126-1.035,1.054-1.045c0.738-0.006,0.742-0.005,0.742-0.754
			c0.002-4.15,0.001-8.301,0.001-12.452c0-1.229,0-1.243-1.248-1.251c-0.409-0.003-0.567-0.127-0.556-0.548
			c0.024-0.822-0.006-1.646,0.012-2.468c0.008-0.376-0.105-0.546-0.51-0.517c-0.424,0.031-0.851,0.007-1.33,0.007
			c0-0.641,0-1.229,0-1.816c-0.006,0-0.012,0-0.018,0c0.001-0.005,0.001-0.01,0.001-0.016c-2.39,0-4.779,0-7.168,0
			c0,0.005,0,0.01,0,0.016c-0.006,0-0.012,0-0.018,0c0,0.585,0,1.17,0,1.781c-1.236,0-2.406,0-3.575,0c0,0.005,0,0.011,0,0.016
			c-0.006,0-0.012,0-0.018,0c0,1.184,0,2.367,0,3.577c-0.637,0-1.209,0-1.78,0c0,0.006,0,0.012,0,0.017c-0.006,0-0.011,0-0.016,0
			c0,4.785,0,9.569,0,14.354c0.005,0,0.01,0,0.016,0c0,0.005,0,0.011,0,0.017c0.585,0,1.169,0,1.781,0c0,1.225,0,2.403,0,3.581
			c0.004,0,0.008,0,0.012,0c0,0.003,0,0.007,0,0.011c1.376,0.013,2.752,0.033,4.128,0.038
			C1386.636,182.157,1388.617,182.153,1390.6,182.151z M1385.929,178.52c1.179,0,2.374,0,3.569,0c0-0.004,0-0.008,0-0.012
			c0.003,0,0.007,0,0.011,0c-0.011-0.182-0.031-0.363-0.031-0.545c-0.002-4.391-0.001-8.781-0.001-13.172c0-0.201,0-0.403,0-0.638
			c0.624,0,1.193,0,1.806,0c0,4.774,0,9.543,0,14.354c-0.6,0-1.187,0-1.773,0c0,0.004,0,0.008,0.001,0.012l0,0l0,0l0,0l0,0
			c-0.005,0-0.008,0-0.012,0c0,0.572,0,1.144,0,1.766c-1.173,0-2.351,0-3.569,0C1385.929,179.724,1385.929,179.156,1385.929,178.52z
			"/>
	</g>
	<g>
		<path fill="#DADADA" d="M483.263,124.375c1.649,3.875,3.338,7.735,4.913,11.64c0.589,1.46,1.599,2.264,3.021,2.71
			c3.796,1.191,7.669,1.706,11.627,1.175c2.554-0.342,5.06-0.906,7.253-2.383c0.817-0.55,1.347-1.25,1.313-2.287
			c-0.156-4.647,1.206-8.938,3.078-13.11c0.413-0.918,0.924-1.812,1.198-2.771c0.679-2.368-0.681-3.781-3.097-3.429
			c-1.636,0.239-2.922,1.178-4.34,1.871c-1.762,0.861-2.707,0.462-3.499-1.318c-0.443-0.997-0.872-2.03-1.499-2.91
			c-1.885-2.646-5.073-2.639-6.947,0.014c-0.572,0.809-0.916,1.788-1.303,2.714c-0.439,1.049-1.136,1.894-2.217,2.155
			c-1.551,0.375-3.15,0.544-4.73,0.802c-0.013-0.101-0.025-0.202-0.039-0.303c-0.924,0-1.852-0.044-2.773,0.009
			c-2.481,0.142-3.564,1.99-2.517,4.248C482.888,123.596,483.094,123.978,483.263,124.375z"/>
		<path fill="#DADADA" d="M539.104,161.568c-5.63-9.867-13.847-16.659-24.652-20.28c-0.672-0.226-1.1-0.046-1.658,0.295
			c-1.295,0.793-2.6,1.64-4.013,2.161c-3.413,1.261-7.003,1.4-10.603,1.262c-3.217-0.124-6.306-0.771-9.085-2.489
			c-0.556-0.343-1.024-0.349-1.618-0.121c-6.737,2.597-12.354,6.745-16.9,12.319c-6.385,7.826-9.367,16.649-7.849,26.832
			c1.084,7.269,4.988,12.107,11.866,14.64c4.241,1.562,8.642,2.357,13.108,2.702c4.954,0.382,9.929,0.521,13.583,0.7
			c4.5-0.126,7.68-0.178,10.857-0.313c5.233-0.223,10.436-0.733,15.508-2.121c3.539-0.968,6.897-2.343,9.66-4.86
			c3.237-2.948,4.696-6.757,5.337-10.989C543.706,174.316,542.603,167.697,539.104,161.568z M513.43,179.795
			c-0.561,0-1.128,0-1.758,0c0,1.227,0,2.394,0,3.601c-0.614,0-1.169,0-1.784,0c0,0.608,0,1.176,0,1.805c-1.228,0-2.395,0-3.602,0
			c0,0.615,0,1.169,0,1.763c-2.404,0-4.768,0-7.192,0c0-0.567,0-1.137,0-1.745c-1.214,0-2.366,0-3.595,0c0-0.626,0-1.213,0-1.8
			c-0.004,0-0.008,0-0.012,0c0-0.004,0-0.008,0-0.011c-0.572,0-1.145,0-1.781,0c0-1.216,0-2.398,0-3.581c-0.005,0-0.01,0-0.016,0
			c0-0.006,0-0.011,0-0.017c-0.571,0-1.143,0-1.75,0c0-4.78,0-9.533,0-14.353c0.58,0,1.165,0,1.75,0c0-0.006,0-0.012,0-0.017
			c0.006,0,0.011,0,0.016,0c0-1.17,0-2.34,0-3.577c0.611,0,1.196,0,1.781,0c0-0.005,0-0.011,0-0.016c0.006,0,0.012,0,0.018,0
			c0-0.572,0-1.144,0-1.781c1.208,0,2.392,0,3.575,0c0-0.005,0-0.01,0-0.016c0.006,0,0.011,0,0.017,0
			c-0.003-0.596-0.006-1.192-0.009-1.789c2.396,0,4.79,0,7.186,0c-0.003,0.596-0.006,1.192-0.009,1.789c0.006,0,0.012,0,0.018,0
			c0,0.005,0,0.011,0,0.016c1.17,0,2.34,0,3.571,0c0,0.594,0,1.163,0,1.771c0.614,0,1.169,0,1.785,0c0,1.207,0,2.374,0,3.601
			c0.626,0,1.195,0,1.791,0C513.43,170.244,513.43,174.989,513.43,179.795z"/>
		<path fill="#DADADA" d="M505.572,183.458c0.743,0,0.742-0.004,0.749-0.748c0.009-1.177-0.129-1.038,1.051-1.047
			c0.74-0.006,0.739-0.005,0.745-0.752c0.009-1.176-0.126-1.035,1.054-1.044c0.738-0.006,0.742-0.005,0.742-0.754
			c0.001-4.151,0-8.301,0-12.452c0-1.228,0-1.243-1.248-1.251c-0.408-0.002-0.566-0.127-0.555-0.548
			c0.023-0.822-0.006-1.645,0.012-2.467c0.008-0.377-0.105-0.547-0.511-0.518c-0.423,0.031-0.851,0.007-1.329,0.007
			c0-0.641,0-1.229,0-1.816c-0.006,0-0.012,0-0.018,0c0-0.005,0-0.01,0-0.016c-2.389,0-4.778,0-7.168,0c0,0.005,0,0.011,0,0.016
			c-0.006,0-0.011,0-0.017,0c0,0.585,0,1.17,0,1.781c-1.237,0-2.406,0-3.575,0c0,0.005,0,0.011,0,0.016c-0.006,0-0.012,0-0.018,0
			c0,1.183,0,2.367,0,3.577c-0.638,0-1.209,0-1.781,0c0,0.005,0,0.011,0,0.017c-0.005,0-0.01,0-0.016,0c0,4.784,0,9.568,0,14.353
			c0.006,0,0.011,0,0.016,0c0,0.006,0,0.011,0,0.017c0.585,0,1.17,0,1.781,0c0,1.225,0,2.403,0,3.581c0.004,0,0.008,0,0.012,0
			c0,0.003,0,0.007,0,0.011c1.376,0.013,2.752,0.033,4.128,0.038C501.608,183.464,503.591,183.46,505.572,183.458z M500.901,179.827
			c1.18,0,2.374,0,3.569,0c0-0.004,0-0.008,0-0.012c0.004,0,0.007,0,0.011,0c-0.011-0.182-0.03-0.363-0.03-0.545
			c-0.002-4.391-0.001-8.781-0.001-13.171c0-0.202,0-0.403,0-0.638c0.624,0,1.193,0,1.805,0c0,4.774,0,9.543,0,14.354
			c-0.6,0-1.186,0-1.773,0c0,0.004,0.001,0.008,0.001,0.012l0,0l0,0l0,0l0,0c-0.004,0-0.008,0-0.012,0c0,0.572,0,1.144,0,1.766
			c-1.173,0-2.351,0-3.569,0C500.901,181.032,500.901,180.463,500.901,179.827z"/>
	</g>
	<g>
		<path fill="#DADADA" d="M385.15,18.489c1.294,3.043,2.62,6.073,3.856,9.139c0.463,1.146,1.256,1.777,2.373,2.127
			c2.98,0.935,6.021,1.339,9.129,0.923c2.004-0.269,3.971-0.711,5.694-1.871c0.642-0.432,1.058-0.981,1.03-1.795
			c-0.123-3.648,0.947-7.018,2.417-10.293c0.323-0.721,0.724-1.422,0.94-2.175c0.532-1.859-0.535-2.969-2.432-2.692
			c-1.284,0.188-2.295,0.925-3.407,1.469c-1.383,0.676-2.126,0.363-2.747-1.035c-0.348-0.783-0.686-1.594-1.178-2.285
			c-1.479-2.077-3.982-2.072-5.454,0.011c-0.448,0.635-0.72,1.403-1.022,2.131c-0.345,0.824-0.892,1.486-1.74,1.692
			c-1.218,0.295-2.475,0.428-3.714,0.629c-0.011-0.079-0.021-0.158-0.03-0.238c-0.727,0-1.455-0.035-2.178,0.007
			c-1.949,0.112-2.799,1.563-1.977,3.335C384.854,17.877,385.017,18.177,385.15,18.489z"/>
		<path fill="#DADADA" d="M428.993,47.69c-4.42-7.747-10.871-13.079-19.355-15.922c-0.528-0.177-0.863-0.037-1.302,0.232
			c-1.017,0.623-2.042,1.288-3.15,1.697c-2.681,0.99-5.499,1.099-8.324,0.991c-2.526-0.098-4.951-0.605-7.134-1.955
			c-0.436-0.27-0.805-0.274-1.27-0.094c-5.29,2.039-9.699,5.295-13.27,9.672c-5.013,6.145-7.354,13.072-6.162,21.067
			c0.851,5.707,3.916,9.505,9.316,11.494c3.33,1.226,6.785,1.851,10.292,2.122c3.89,0.3,7.795,0.409,10.665,0.55
			c3.531-0.099,6.029-0.14,8.523-0.246c4.109-0.175,8.193-0.576,12.176-1.666c2.779-0.76,5.416-1.84,7.584-3.816
			c2.542-2.315,3.688-5.305,4.191-8.627C432.605,57.699,431.739,52.502,428.993,47.69z M408.835,62.001c-0.439,0-0.887,0-1.381,0
			c0,0.963,0,1.879,0,2.827c-0.482,0-0.918,0-1.4,0c0,0.477,0,0.923,0,1.417c-0.963,0-1.879,0-2.827,0c0,0.483,0,0.918,0,1.385
			c-1.888,0-3.743,0-5.647,0c0-0.446,0-0.893,0-1.37c-0.953,0-1.857,0-2.822,0c0-0.491,0-0.952,0-1.413c-0.002,0-0.006,0-0.009,0
			c0-0.003,0-0.006,0-0.009c-0.45,0-0.899,0-1.398,0c0-0.954,0-1.883,0-2.812c-0.004,0-0.009,0-0.013,0c0-0.004,0-0.009,0-0.013
			c-0.449,0-0.897,0-1.375,0c0-3.753,0-7.485,0-11.27c0.457,0,0.916,0,1.375,0c0-0.004,0-0.009,0-0.013c0.004,0,0.008,0,0.013,0
			c0-0.918,0-1.837,0-2.809c0.479,0,0.938,0,1.397,0c0-0.004,0-0.008,0-0.013c0.005,0,0.01,0,0.014,0c0-0.449,0-0.897,0-1.398
			c0.949,0,1.879,0,2.808,0c0-0.004,0-0.008,0-0.012c0.005,0,0.009,0,0.013,0c-0.002-0.468-0.004-0.936-0.006-1.404
			c1.88,0,3.761,0,5.641,0c-0.002,0.468-0.004,0.936-0.006,1.404c0.004,0,0.008,0,0.013,0c0,0.004,0,0.008,0,0.012
			c0.919,0,1.837,0,2.804,0c0,0.466,0,0.913,0,1.391c0.482,0,0.918,0,1.402,0c0,0.947,0,1.863,0,2.827c0.492,0,0.938,0,1.406,0
			C408.835,54.502,408.835,58.228,408.835,62.001z"/>
		<path fill="#DADADA" d="M402.666,64.877c0.583,0,0.583-0.003,0.587-0.587c0.008-0.924-0.1-0.814,0.826-0.822
			c0.58-0.005,0.58-0.004,0.584-0.591c0.008-0.923-0.099-0.812,0.828-0.82c0.579-0.005,0.582-0.004,0.582-0.592
			c0.002-3.259,0.001-6.518,0.001-9.776c0-0.964,0-0.976-0.979-0.982c-0.321-0.002-0.446-0.1-0.437-0.43
			c0.019-0.646-0.005-1.292,0.009-1.938c0.007-0.296-0.082-0.429-0.4-0.406c-0.332,0.024-0.668,0.005-1.044,0.005
			c0-0.503,0-0.965,0-1.426c-0.005,0-0.009,0-0.014,0c0.001-0.004,0.001-0.008,0.001-0.012c-1.877,0-3.752,0-5.629,0
			c0,0.004,0,0.008,0,0.012c-0.004,0-0.008,0-0.013,0c0,0.459,0,0.919,0,1.398c-0.972,0-1.89,0-2.808,0c0,0.004,0,0.009,0,0.013
			c-0.004,0-0.009,0-0.014,0c0,0.929,0,1.858,0,2.809c-0.5,0-0.949,0-1.397,0c0,0.004,0,0.009,0,0.013c-0.005,0-0.009,0-0.013,0
			c0,3.756,0,7.513,0,11.27c0.004,0,0.008,0,0.013,0c0,0.004,0,0.009,0,0.013c0.459,0,0.918,0,1.398,0c0,0.962,0,1.887,0,2.812
			c0.003,0,0.007,0,0.009,0c0,0.003,0,0.006,0,0.009c1.08,0.01,2.16,0.026,3.241,0.03C399.554,64.881,401.11,64.878,402.666,64.877z
			 M398.999,62.026c0.926,0,1.863,0,2.802,0c0-0.003,0-0.006,0-0.009c0.003,0,0.006,0,0.009,0c-0.009-0.143-0.024-0.285-0.024-0.428
			c-0.001-3.447-0.001-6.894-0.001-10.341c0-0.158,0-0.316,0-0.5c0.49,0,0.938,0,1.418,0c0,3.749,0,7.493,0,11.27
			c-0.471,0-0.932,0-1.393,0c0,0.003,0,0.006,0,0.009l0,0l0,0l0,0l0,0c-0.002,0-0.006,0-0.009,0c0,0.449,0,0.898,0,1.387
			c-0.921,0-1.845,0-2.802,0C398.999,62.972,398.999,62.525,398.999,62.026z"/>
	</g>
	<g>
		<path fill="#DADADA" d="M1233.818,18.798c1.295,3.043,2.62,6.073,3.857,9.139c0.462,1.146,1.255,1.777,2.372,2.128
			c2.98,0.935,6.021,1.339,9.129,0.923c2.004-0.269,3.972-0.711,5.694-1.871c0.642-0.432,1.058-0.981,1.03-1.795
			c-0.123-3.648,0.947-7.018,2.417-10.293c0.324-0.721,0.725-1.422,0.94-2.175c0.532-1.859-0.534-2.969-2.432-2.692
			c-1.284,0.187-2.294,0.925-3.407,1.469c-1.383,0.676-2.125,0.362-2.747-1.035c-0.348-0.783-0.685-1.594-1.177-2.285
			c-1.479-2.078-3.983-2.072-5.454,0.011c-0.449,0.635-0.72,1.403-1.023,2.131c-0.345,0.824-0.892,1.486-1.74,1.692
			c-1.217,0.295-2.474,0.428-3.714,0.629c-0.01-0.079-0.021-0.158-0.03-0.238c-0.727,0-1.454-0.035-2.178,0.007
			c-1.948,0.111-2.799,1.563-1.977,3.335C1233.523,18.186,1233.686,18.486,1233.818,18.798z"/>
		<path fill="#DADADA" d="M1277.661,48c-4.42-7.747-10.871-13.079-19.355-15.922c-0.527-0.177-0.863-0.037-1.302,0.232
			c-1.017,0.623-2.041,1.287-3.15,1.697c-2.68,0.99-5.498,1.1-8.324,0.991c-2.526-0.097-4.951-0.605-7.133-1.954
			c-0.437-0.27-0.805-0.274-1.271-0.094c-5.29,2.039-9.699,5.295-13.27,9.672c-5.012,6.145-7.354,13.071-6.162,21.066
			c0.852,5.707,3.917,9.505,9.316,11.495c3.33,1.226,6.785,1.851,10.292,2.122c3.891,0.3,7.795,0.409,10.665,0.55
			c3.532-0.099,6.029-0.14,8.524-0.246c4.108-0.175,8.193-0.576,12.176-1.665c2.778-0.76,5.415-1.84,7.584-3.816
			c2.541-2.315,3.687-5.305,4.19-8.627C1281.273,58.008,1280.407,52.811,1277.661,48z M1257.503,62.31c-0.439,0-0.886,0-1.38,0
			c0,0.963,0,1.879,0,2.827c-0.482,0-0.918,0-1.401,0c0,0.478,0,0.924,0,1.417c-0.963,0-1.879,0-2.827,0c0,0.482,0,0.918,0,1.384
			c-1.888,0-3.743,0-5.647,0c0-0.445,0-0.892,0-1.37c-0.952,0-1.857,0-2.821,0c0-0.492,0-0.953,0-1.413c-0.003,0-0.007,0-0.01,0
			c0-0.003,0-0.006,0-0.009c-0.449,0-0.898,0-1.398,0c0-0.955,0-1.883,0-2.812c-0.004,0-0.008,0-0.013,0c0-0.004,0-0.009,0-0.014
			c-0.448,0-0.896,0-1.374,0c0-3.752,0-7.485,0-11.269c0.456,0,0.915,0,1.374,0c0-0.004,0-0.009,0-0.013c0.005,0,0.009,0,0.013,0
			c0-0.918,0-1.837,0-2.809c0.479,0,0.938,0,1.398,0c0-0.004,0-0.008,0-0.013c0.004,0,0.009,0,0.014,0c0-0.449,0-0.898,0-1.398
			c0.948,0,1.878,0,2.807,0c0-0.004,0-0.008,0-0.012c0.005,0,0.009,0,0.014,0c-0.003-0.468-0.005-0.937-0.007-1.404
			c1.881,0,3.761,0,5.642,0c-0.003,0.468-0.005,0.936-0.007,1.404c0.004,0,0.009,0,0.013,0c0,0.004,0,0.008,0,0.012
			c0.919,0,1.838,0,2.805,0c0,0.466,0,0.913,0,1.391c0.482,0,0.918,0,1.401,0c0,0.947,0,1.863,0,2.827c0.492,0,0.938,0,1.406,0
			C1257.503,54.811,1257.503,58.536,1257.503,62.31z"/>
		<path fill="#DADADA" d="M1251.334,65.186c0.584,0,0.583-0.003,0.588-0.587c0.007-0.924-0.101-0.815,0.825-0.822
			c0.581-0.005,0.58-0.004,0.585-0.59c0.007-0.923-0.1-0.813,0.827-0.82c0.579-0.005,0.582-0.004,0.583-0.593
			c0.001-3.259,0-6.518,0-9.776c0-0.965,0-0.976-0.979-0.982c-0.321-0.002-0.445-0.1-0.437-0.431
			c0.019-0.645-0.004-1.292,0.01-1.938c0.006-0.295-0.083-0.429-0.401-0.406c-0.332,0.024-0.668,0.005-1.044,0.005
			c0-0.503,0-0.965,0-1.426c-0.004,0-0.009,0-0.013,0c0-0.004,0-0.008,0-0.012c-1.876,0-3.752,0-5.628,0c0,0.004,0,0.008,0,0.012
			c-0.005,0-0.009,0-0.014,0c0,0.459,0,0.919,0,1.398c-0.971,0-1.889,0-2.807,0c0,0.004,0,0.008,0,0.013c-0.005,0-0.01,0-0.014,0
			c0,0.929,0,1.858,0,2.809c-0.501,0-0.949,0-1.398,0c0,0.004,0,0.009,0,0.013c-0.004,0-0.008,0-0.013,0c0,3.756,0,7.513,0,11.269
			c0.005,0,0.009,0,0.013,0c0,0.004,0,0.009,0,0.014c0.459,0,0.918,0,1.398,0c0,0.961,0,1.887,0,2.812c0.003,0,0.007,0,0.01,0
			c0,0.003,0,0.006,0,0.009c1.08,0.01,2.16,0.026,3.24,0.03C1248.222,65.19,1249.778,65.188,1251.334,65.186z M1247.667,62.335
			c0.926,0,1.863,0,2.803,0c0-0.003,0-0.006,0-0.009c0.002,0,0.005,0,0.008,0c-0.008-0.143-0.023-0.286-0.023-0.428
			c-0.002-3.447-0.002-6.894-0.002-10.341c0-0.158,0-0.316,0-0.501c0.49,0,0.938,0,1.418,0c0,3.749,0,7.493,0,11.271
			c-0.471,0-0.932,0-1.393,0c0,0.003,0.001,0.006,0.001,0.009l0,0l0,0l0,0l0,0c-0.003,0-0.007,0-0.009,0c0,0.449,0,0.898,0,1.387
			c-0.921,0-1.846,0-2.803,0C1247.667,63.281,1247.667,62.834,1247.667,62.335z"/>
	</g>
	<g>
		<path fill="#DADADA" d="M563.798,20.225c1.066,2.507,2.159,5.004,3.179,7.53c0.381,0.944,1.034,1.464,1.954,1.753
			c2.455,0.77,4.961,1.103,7.521,0.76c1.652-0.221,3.273-0.586,4.692-1.541c0.528-0.356,0.871-0.809,0.849-1.48
			c-0.101-3.006,0.781-5.782,1.992-8.48c0.267-0.595,0.597-1.172,0.774-1.792c0.438-1.532-0.44-2.446-2.003-2.218
			c-1.059,0.154-1.891,0.762-2.808,1.21c-1.14,0.557-1.751,0.299-2.264-0.853c-0.286-0.645-0.563-1.313-0.97-1.883
			c-1.219-1.711-3.281-1.707-4.494,0.009c-0.369,0.523-0.593,1.156-0.844,1.755c-0.283,0.679-0.734,1.225-1.434,1.395
			c-1.002,0.243-2.038,0.352-3.06,0.519c-0.009-0.065-0.017-0.131-0.025-0.196c-0.599,0-1.198-0.028-1.794,0.006
			c-1.605,0.092-2.306,1.287-1.629,2.748C563.556,19.721,563.688,19.968,563.798,20.225z"/>
		<path fill="#DADADA" d="M599.923,44.286c-3.643-6.383-8.958-10.776-15.947-13.119c-0.436-0.146-0.712-0.03-1.073,0.191
			c-0.839,0.514-1.683,1.061-2.596,1.398c-2.208,0.816-4.53,0.906-6.858,0.816c-2.082-0.08-4.08-0.499-5.878-1.61
			c-0.359-0.222-0.663-0.226-1.047-0.078c-4.358,1.68-7.991,4.364-10.933,7.97c-4.131,5.063-6.061,10.771-5.078,17.358
			c0.701,4.702,3.227,7.832,7.677,9.471c2.743,1.01,5.591,1.525,8.479,1.748c3.205,0.248,6.423,0.337,8.787,0.453
			c2.911-0.082,4.969-0.115,7.024-0.203c3.386-0.144,6.751-0.475,10.032-1.372c2.289-0.626,4.461-1.516,6.249-3.144
			c2.094-1.907,3.038-4.372,3.452-7.109C602.899,52.533,602.186,48.25,599.923,44.286z M583.313,56.077c-0.362,0-0.73,0-1.137,0
			c0,0.793,0,1.548,0,2.329c-0.398,0-0.757,0-1.155,0c0,0.394,0,0.761,0,1.168c-0.794,0-1.548,0-2.329,0c0,0.397,0,0.756,0,1.141
			c-1.556,0-3.084,0-4.653,0c0-0.367,0-0.735,0-1.129c-0.785,0-1.53,0-2.325,0c0-0.405,0-0.785,0-1.164c-0.002,0-0.005,0-0.008,0
			c0-0.002,0-0.005,0-0.007c-0.37,0-0.74,0-1.152,0c0-0.786,0-1.551,0-2.317c-0.003,0-0.006,0-0.01,0c0-0.003,0-0.007,0-0.011
			c-0.37,0-0.739,0-1.133,0c0-3.092,0-6.167,0-9.285c0.376,0,0.754,0,1.133,0c0-0.004,0-0.008,0-0.011c0.004,0,0.007,0,0.01,0
			c0-0.757,0-1.514,0-2.314c0.396,0,0.773,0,1.152,0c0-0.003,0-0.007,0-0.01c0.004,0,0.008,0,0.012,0c0-0.37,0-0.74,0-1.152
			c0.781,0,1.547,0,2.313,0c0-0.003,0-0.007,0-0.01c0.004,0,0.008,0,0.011,0c-0.002-0.386-0.004-0.771-0.006-1.157
			c1.55,0,3.1,0,4.649,0c-0.002,0.386-0.004,0.771-0.006,1.157c0.003,0,0.007,0,0.01,0c0,0.003,0,0.007,0,0.01
			c0.758,0,1.515,0,2.312,0c0,0.384,0,0.752,0,1.146c0.397,0,0.756,0,1.154,0c0,0.78,0,1.535,0,2.329c0.405,0,0.774,0,1.159,0
			C583.313,49.898,583.313,52.968,583.313,56.077z"/>
		<path fill="#DADADA" d="M578.23,58.447c0.48,0,0.479-0.002,0.483-0.484c0.006-0.762-0.082-0.671,0.68-0.678
			c0.479-0.004,0.479-0.003,0.482-0.486c0.006-0.761-0.081-0.669,0.682-0.676c0.479-0.004,0.48-0.003,0.48-0.488
			c0.001-2.685,0-5.37,0-8.055c0-0.795,0-0.804-0.807-0.81c-0.265-0.002-0.367-0.083-0.359-0.354
			c0.016-0.532-0.004-1.064,0.008-1.597c0.005-0.244-0.068-0.354-0.33-0.334c-0.274,0.02-0.551,0.004-0.861,0.004
			c0-0.415,0-0.795,0-1.175c-0.003,0-0.007,0-0.011,0c0.001-0.003,0.001-0.007,0.001-0.01c-1.547,0-3.092,0-4.638,0
			c0,0.003,0,0.007,0,0.01c-0.003,0-0.007,0-0.011,0c0,0.378,0,0.757,0,1.152c-0.801,0-1.557,0-2.313,0c0,0.003,0,0.007,0,0.01
			c-0.004,0-0.008,0-0.012,0c0,0.766,0,1.531,0,2.314c-0.412,0-0.782,0-1.152,0c0,0.003,0,0.007,0,0.011c-0.003,0-0.006,0-0.01,0
			c0,3.095,0,6.19,0,9.285c0.004,0,0.007,0,0.01,0c0,0.003,0,0.007,0,0.011c0.379,0,0.757,0,1.152,0c0,0.793,0,1.555,0,2.317
			c0.003,0,0.006,0,0.008,0c0,0.002,0,0.005,0,0.007c0.891,0.008,1.78,0.021,2.67,0.024C575.666,58.45,576.948,58.448,578.23,58.447
			z M575.208,56.098c0.764,0,1.537,0,2.31,0c0-0.002,0-0.005,0-0.008c0.003,0,0.005,0,0.007,0c-0.007-0.118-0.02-0.235-0.02-0.353
			c-0.001-2.84-0.001-5.681-0.001-8.521c0-0.13,0-0.261,0-0.413c0.404,0,0.772,0,1.168,0c0,3.088,0,6.174,0,9.286
			c-0.388,0-0.768,0-1.147,0c0,0.002,0,0.005,0.001,0.008l0,0l0,0l0,0l0,0c-0.003,0-0.005,0-0.008,0c0,0.37,0,0.74,0,1.143
			c-0.759,0-1.521,0-2.31,0C575.208,56.877,575.208,56.509,575.208,56.098z"/>
	</g>
	<g>
		<path fill="#DADADA" d="M1467.71,13.606c1.067,2.507,2.159,5.004,3.179,7.53c0.381,0.944,1.034,1.464,1.954,1.753
			c2.456,0.77,4.961,1.103,7.521,0.76c1.652-0.221,3.273-0.586,4.692-1.542c0.528-0.355,0.871-0.808,0.849-1.479
			c-0.101-3.006,0.781-5.782,1.992-8.48c0.267-0.595,0.597-1.172,0.774-1.792c0.439-1.532-0.44-2.446-2.003-2.218
			c-1.059,0.154-1.891,0.762-2.808,1.21c-1.14,0.557-1.751,0.299-2.264-0.853c-0.286-0.645-0.563-1.313-0.97-1.883
			c-1.219-1.711-3.281-1.707-4.494,0.009c-0.37,0.523-0.593,1.157-0.843,1.756c-0.284,0.679-0.734,1.225-1.435,1.395
			c-1.002,0.243-2.038,0.352-3.06,0.519c-0.008-0.065-0.017-0.131-0.025-0.196c-0.598,0-1.198-0.029-1.794,0.005
			c-1.605,0.092-2.306,1.287-1.628,2.748C1467.467,13.102,1467.601,13.349,1467.71,13.606z"/>
		<path fill="#DADADA" d="M1503.835,37.667c-3.642-6.383-8.958-10.776-15.948-13.119c-0.435-0.146-0.711-0.03-1.072,0.191
			c-0.838,0.514-1.682,1.061-2.596,1.398c-2.208,0.816-4.53,0.906-6.858,0.816c-2.082-0.08-4.08-0.499-5.878-1.61
			c-0.359-0.222-0.663-0.226-1.047-0.078c-4.358,1.68-7.991,4.363-10.934,7.969c-4.13,5.063-6.059,10.771-5.077,17.358
			c0.701,4.702,3.227,7.832,7.677,9.471c2.743,1.011,5.59,1.525,8.479,1.749c3.205,0.247,6.423,0.336,8.787,0.453
			c2.911-0.082,4.969-0.115,7.024-0.203c3.386-0.144,6.751-0.474,10.032-1.372c2.289-0.626,4.462-1.516,6.249-3.144
			c2.094-1.907,3.038-4.371,3.452-7.109C1506.812,45.914,1506.098,41.631,1503.835,37.667z M1487.226,49.458
			c-0.362,0-0.73,0-1.137,0c0,0.793,0,1.548,0,2.33c-0.398,0-0.757,0-1.155,0c0,0.394,0,0.761,0,1.168c-0.794,0-1.548,0-2.329,0
			c0,0.397,0,0.756,0,1.141c-1.556,0-3.084,0-4.653,0c0-0.367,0-0.735,0-1.129c-0.785,0-1.53,0-2.325,0c0-0.405,0-0.785,0-1.164
			c-0.002,0-0.005,0-0.008,0c0-0.002,0-0.005,0-0.007c-0.37,0-0.74,0-1.152,0c0-0.786,0-1.551,0-2.316c-0.003,0-0.007,0-0.01,0
			c0-0.004,0-0.007,0-0.011c-0.37,0-0.739,0-1.133,0c0-3.092,0-6.167,0-9.285c0.376,0,0.754,0,1.133,0c0-0.004,0-0.007,0-0.011
			c0.003,0,0.007,0,0.01,0c0-0.757,0-1.514,0-2.314c0.396,0,0.774,0,1.152,0c0-0.003,0-0.007,0-0.01c0.004,0,0.008,0,0.012,0
			c0-0.37,0-0.74,0-1.152c0.781,0,1.547,0,2.313,0c0-0.003,0-0.007,0-0.01c0.004,0,0.008,0,0.011,0
			c-0.002-0.386-0.004-0.771-0.006-1.157c1.55,0,3.1,0,4.648,0c-0.002,0.386-0.003,0.771-0.005,1.157c0.003,0,0.007,0,0.011,0
			c0,0.003,0,0.007,0,0.01c0.757,0,1.514,0,2.311,0c0,0.384,0,0.752,0,1.146c0.397,0,0.756,0,1.154,0c0,0.78,0,1.535,0,2.33
			c0.406,0,0.774,0,1.159,0C1487.226,43.279,1487.226,46.349,1487.226,49.458z"/>
		<path fill="#DADADA" d="M1482.143,51.828c0.48,0,0.48-0.002,0.484-0.484c0.006-0.762-0.083-0.671,0.68-0.678
			c0.479-0.004,0.479-0.003,0.482-0.486c0.006-0.761-0.082-0.669,0.681-0.676c0.478-0.004,0.48-0.003,0.48-0.488
			c0.001-2.685,0-5.37,0-8.055c0-0.795,0.001-0.804-0.807-0.81c-0.265-0.001-0.367-0.083-0.359-0.354
			c0.016-0.532-0.004-1.064,0.008-1.597c0.005-0.243-0.068-0.354-0.33-0.334c-0.274,0.02-0.551,0.004-0.86,0.004
			c0-0.415,0-0.795,0-1.175c-0.004,0-0.008,0-0.012,0c0.001-0.003,0.001-0.007,0.001-0.01c-1.546,0-3.092,0-4.638,0
			c0,0.003,0,0.007,0,0.01c-0.003,0-0.007,0-0.011,0c0,0.378,0,0.757,0,1.152c-0.8,0-1.557,0-2.313,0c0,0.003,0,0.007,0,0.01
			c-0.004,0-0.008,0-0.012,0c0,0.766,0,1.531,0,2.314c-0.412,0-0.782,0-1.152,0c0,0.003,0,0.007,0,0.011c-0.003,0-0.007,0-0.01,0
			c0,3.095,0,6.19,0,9.285c0.003,0,0.007,0,0.01,0c0,0.003,0,0.007,0,0.011c0.379,0,0.757,0,1.152,0c0,0.792,0,1.554,0,2.316
			c0.003,0,0.006,0,0.008,0c0,0.002,0,0.005,0,0.007c0.891,0.008,1.78,0.021,2.67,0.024
			C1479.578,51.831,1480.86,51.829,1482.143,51.828z M1479.121,49.479c0.763,0,1.535,0,2.309,0c0-0.002,0-0.005,0-0.008
			c0.003,0,0.005,0,0.008,0c-0.008-0.118-0.021-0.235-0.021-0.353c-0.001-2.84-0.001-5.681-0.001-8.521c0-0.13,0-0.261,0-0.413
			c0.404,0,0.772,0,1.168,0c0,3.089,0,6.174,0,9.286c-0.388,0-0.768,0-1.146,0c0,0.002,0,0.005,0,0.008l0,0l0,0l0,0l0,0
			c-0.003,0-0.005,0-0.008,0c0,0.37,0,0.74,0,1.143c-0.759,0-1.521,0-2.309,0C1479.121,50.258,1479.121,49.89,1479.121,49.479z"/>
	</g>
</g>
</svg>
