<?xml version="1.0" encoding="utf-8"?>
<!-- Generator: Adobe Illustrator 16.0.0, SVG Export Plug-In . SVG Version: 6.00 Build 0)  -->
<!DOCTYPE svg PUBLIC "-//W3C//DTD SVG 1.1//EN" "http://www.w3.org/Graphics/SVG/1.1/DTD/svg11.dtd">
<svg version="1.1" id="Layer_1" xmlns="http://www.w3.org/2000/svg" xmlns:xlink="http://www.w3.org/1999/xlink" x="0px" y="0px"
	 width="1627.754px" height="238.573px" viewBox="0 0 1627.754 238.573" enable-background="new 0 0 1627.754 238.573"
	 xml:space="preserve">
<g>
	<path fill="#D9D9D9" d="M0,151.735c5.479-0.893,10.963-1.766,16.433-2.717c0.433-0.076,0.935-0.625,1.128-1.073
		c1.409-3.265,2.791-6.544,4.064-9.863c0.213-0.553,0.076-1.47-0.264-1.971c-2.992-4.4-6.068-8.744-9.07-13.032
		c3.526-3.46,6.972-6.838,10.564-10.363c3.698,2.636,7.721,5.351,11.555,8.308c1.719,1.325,2.982,1.44,4.903,0.335
		c2.254-1.295,4.794-2.175,7.306-2.91c1.479-0.434,2.049-1.112,2.258-2.561c0.664-4.631,1.441-9.246,2.186-13.865
		c0.073-0.459,0.214-0.906,0.346-1.448H66c0.59,3.27,1.19,6.583,1.785,9.897c0.34,1.899,0.776,3.79,0.967,5.705
		c0.131,1.316,0.703,1.813,1.924,2.245c2.91,1.032,5.783,2.21,8.558,3.561c1.187,0.578,1.929,0.539,2.954-0.218
		c4.236-3.127,8.533-6.169,12.684-9.154c3.481,3.48,6.869,6.868,10.418,10.416c-1.179,1.693-2.502,3.599-3.83,5.501
		c-1.742,2.495-3.439,5.026-5.262,7.463c-0.73,0.977-0.734,1.69-0.205,2.797c1.303,2.734,2.502,5.534,3.492,8.396
		c0.471,1.36,1.081,1.948,2.499,2.147c4.632,0.656,9.244,1.452,13.862,2.204c0.509,0.083,1.006,0.235,1.709,0.404
		c0,3.808,0,7.6,0,11.393c0,3.198,0.002,3.209-3.155,3.759c-4.263,0.743-8.526,1.485-12.797,2.187
		c-1.011,0.166-1.56,0.525-1.952,1.61c-1.13,3.124-2.431,6.191-3.813,9.213c-0.41,0.897-0.349,1.439,0.193,2.183
		c3.174,4.35,6.305,8.73,9.323,12.926c-3.496,3.466-6.925,6.865-10.533,10.443c-3.008-2.106-6.571-4.273-9.737-6.915
		c-2.83-2.361-5.275-3.154-8.563-0.841c-1.709,1.202-3.973,1.648-6.023,2.317c-1,0.326-1.496,0.752-1.679,1.878
		c-0.844,5.193-1.815,10.365-2.756,15.621H51.279c-0.549-3.244-1.105-6.512-1.652-9.782c-0.377-2.249-0.09-4.992-1.307-6.607
		c-1.115-1.483-3.861-1.716-5.859-2.571c-1.396-0.597-2.822-1.188-4.084-2.014c-1.248-0.818-2.123-0.59-3.254,0.227
		c-4.172,3.016-8.418,5.929-12.459,8.757c-3.496-3.491-6.92-6.907-10.48-10.46c2.869-4.014,5.882-8.317,9.006-12.538
		c0.789-1.066,0.713-1.802,0.161-2.951c-1.336-2.783-2.535-5.646-3.571-8.555c-0.433-1.212-0.927-1.774-2.23-1.984
		c-5.194-0.838-10.368-1.81-15.549-2.733V151.735z M79.258,159.206c-0.073-11.312-9.211-20.438-20.469-20.443
		c-11.371-0.004-20.601,9.355-20.498,20.787c0.098,11.132,9.33,20.262,20.49,20.265C70.104,179.819,79.33,170.532,79.258,159.206"/>
	<path fill="#D9D9D9" d="M1510.198,151.735c5.48-0.893,10.963-1.766,16.434-2.717c0.433-0.076,0.935-0.625,1.128-1.073
		c1.409-3.265,2.791-6.544,4.064-9.863c0.214-0.553,0.076-1.47-0.264-1.971c-2.993-4.4-6.069-8.744-9.07-13.032
		c3.526-3.46,6.972-6.838,10.565-10.363c3.697,2.636,7.719,5.351,11.554,8.308c1.72,1.325,2.982,1.44,4.904,0.335
		c2.254-1.295,4.793-2.175,7.304-2.91c1.479-0.434,2.05-1.112,2.258-2.561c0.665-4.631,1.442-9.246,2.187-13.865
		c0.073-0.459,0.214-0.906,0.346-1.448h14.592c0.591,3.27,1.19,6.583,1.784,9.897c0.34,1.899,0.777,3.79,0.969,5.705
		c0.131,1.316,0.701,1.813,1.923,2.245c2.909,1.032,5.782,2.21,8.558,3.561c1.186,0.578,1.928,0.539,2.954-0.218
		c4.235-3.127,8.533-6.169,12.684-9.154c3.481,3.48,6.869,6.868,10.417,10.416c-1.178,1.693-2.501,3.599-3.829,5.501
		c-1.742,2.495-3.439,5.026-5.262,7.463c-0.729,0.977-0.733,1.69-0.206,2.797c1.305,2.734,2.503,5.534,3.493,8.396
		c0.47,1.36,1.081,1.948,2.499,2.147c4.632,0.656,9.244,1.452,13.862,2.204c0.509,0.083,1.006,0.235,1.709,0.404v11.393
		c0,3.198,0.002,3.209-3.155,3.759c-4.263,0.743-8.527,1.485-12.797,2.187c-1.011,0.166-1.56,0.525-1.952,1.61
		c-1.13,3.124-2.431,6.191-3.813,9.213c-0.409,0.897-0.348,1.439,0.195,2.183c3.172,4.35,6.303,8.73,9.322,12.926
		c-3.496,3.466-6.925,6.865-10.533,10.443c-3.008-2.106-6.57-4.273-9.737-6.915c-2.831-2.361-5.275-3.154-8.563-0.841
		c-1.709,1.202-3.974,1.648-6.024,2.317c-0.999,0.326-1.494,0.752-1.678,1.878c-0.843,5.193-1.816,10.365-2.756,15.621h-14.784
		c-0.549-3.244-1.104-6.512-1.653-9.782c-0.377-2.249-0.09-4.992-1.306-6.607c-1.116-1.483-3.861-1.716-5.858-2.571
		c-1.396-0.597-2.823-1.188-4.084-2.014c-1.25-0.818-2.125-0.59-3.256,0.227c-4.171,3.016-8.417,5.929-12.458,8.757
		c-3.497-3.491-6.921-6.907-10.48-10.46c2.869-4.014,5.882-8.317,9.006-12.538c0.789-1.066,0.713-1.802,0.162-2.951
		c-1.337-2.783-2.536-5.646-3.572-8.555c-0.433-1.212-0.927-1.774-2.229-1.984c-5.195-0.838-10.369-1.81-15.551-2.733V151.735z
		 M1589.457,159.206c-0.073-11.312-9.212-20.438-20.469-20.443c-11.371-0.004-20.601,9.355-20.499,20.787
		c0.099,11.132,9.33,20.262,20.491,20.265C1580.303,179.819,1589.529,170.532,1589.457,159.206"/>
	<path fill="#D9D9D9" d="M230.85,185.251c4.429-0.721,8.861-1.427,13.281-2.196c0.35-0.061,0.756-0.505,0.912-0.867
		c1.139-2.639,2.256-5.288,3.285-7.971c0.172-0.447,0.062-1.188-0.214-1.593c-2.419-3.556-4.905-7.066-7.329-10.532
		c2.85-2.796,5.633-5.526,8.537-8.376c2.988,2.131,6.238,4.325,9.338,6.715c1.389,1.071,2.409,1.164,3.963,0.271
		c1.821-1.047,3.875-1.758,5.903-2.352c1.195-0.35,1.657-0.899,1.825-2.07c0.537-3.742,1.165-7.472,1.766-11.205
		c0.061-0.37,0.174-0.732,0.28-1.171h11.793c0.476,2.643,0.962,5.321,1.442,8c0.275,1.535,0.628,3.062,0.781,4.61
		c0.106,1.064,0.568,1.465,1.555,1.815c2.352,0.834,4.674,1.785,6.917,2.878c0.958,0.467,1.558,0.435,2.387-0.177
		c3.423-2.527,6.896-4.986,10.251-7.398c2.813,2.813,5.551,5.55,8.419,8.418c-0.953,1.368-2.021,2.909-3.095,4.445
		c-1.409,2.017-2.78,4.062-4.252,6.032c-0.592,0.789-0.594,1.366-0.167,2.26c1.054,2.21,2.022,4.473,2.823,6.785
		c0.379,1.1,0.873,1.574,2.019,1.737c3.744,0.529,7.472,1.172,11.203,1.781c0.412,0.067,0.813,0.19,1.382,0.326
		c0,3.077,0,6.142,0,9.208c0,2.584,0.001,2.593-2.55,3.037c-3.445,0.601-6.892,1.201-10.343,1.768
		c-0.817,0.134-1.26,0.424-1.577,1.301c-0.913,2.525-1.966,5.004-3.082,7.446c-0.331,0.724-0.281,1.163,0.157,1.764
		c2.564,3.515,5.095,7.055,7.535,10.446c-2.826,2.801-5.598,5.549-8.514,8.44c-2.43-1.702-5.311-3.453-7.869-5.588
		c-2.287-1.909-4.263-2.549-6.92-0.68c-1.381,0.971-3.211,1.332-4.869,1.873c-0.807,0.263-1.207,0.607-1.355,1.517
		c-0.682,4.197-1.469,8.377-2.227,12.625h-11.949c-0.443-2.622-0.893-5.263-1.336-7.906c-0.305-1.818-0.072-4.034-1.055-5.339
		c-0.902-1.199-3.121-1.387-4.734-2.078c-1.129-0.483-2.282-0.96-3.301-1.628c-1.011-0.661-1.718-0.477-2.631,0.184
		c-3.372,2.437-6.803,4.791-10.068,7.077c-2.828-2.821-5.594-5.582-8.472-8.454c2.319-3.244,4.755-6.722,7.279-10.133
		c0.638-0.861,0.575-1.456,0.13-2.384c-1.08-2.25-2.048-4.564-2.886-6.914c-0.351-0.98-0.749-1.434-1.802-1.604
		c-4.199-0.677-8.381-1.463-12.568-2.209V185.251z M294.904,191.289c-0.059-9.142-7.443-16.519-16.542-16.522
		c-9.19-0.003-16.649,7.561-16.567,16.8c0.08,8.996,7.541,16.375,16.562,16.378C287.506,207.948,294.963,200.442,294.904,191.289"/>
	<path fill="#D9D9D9" d="M1226.109,176.184c4.429-0.721,8.861-1.427,13.281-2.196c0.35-0.061,0.756-0.505,0.912-0.867
		c1.139-2.639,2.256-5.288,3.285-7.971c0.172-0.447,0.062-1.188-0.214-1.593c-2.419-3.556-4.904-7.066-7.33-10.532
		c2.851-2.796,5.634-5.526,8.539-8.376c2.987,2.131,6.237,4.325,9.338,6.715c1.389,1.071,2.408,1.164,3.963,0.271
		c1.82-1.047,3.874-1.758,5.902-2.352c1.195-0.35,1.657-0.899,1.825-2.07c0.537-3.742,1.165-7.472,1.767-11.205
		c0.06-0.37,0.173-0.732,0.279-1.171h11.793c0.477,2.643,0.962,5.321,1.442,8c0.274,1.535,0.628,3.062,0.782,4.61
		c0.105,1.064,0.567,1.465,1.554,1.815c2.352,0.834,4.674,1.785,6.917,2.878c0.958,0.467,1.558,0.435,2.387-0.177
		c3.423-2.527,6.896-4.986,10.251-7.398c2.813,2.813,5.552,5.55,8.419,8.418c-0.953,1.368-2.021,2.909-3.095,4.445
		c-1.409,2.017-2.78,4.062-4.252,6.032c-0.591,0.789-0.593,1.366-0.167,2.26c1.054,2.21,2.023,4.473,2.823,6.785
		c0.38,1.1,0.873,1.574,2.019,1.737c3.744,0.529,7.471,1.172,11.203,1.781c0.411,0.067,0.814,0.19,1.382,0.326v9.208
		c0,2.584,0.001,2.593-2.55,3.037c-3.445,0.601-6.891,1.201-10.342,1.768c-0.818,0.134-1.261,0.424-1.578,1.301
		c-0.913,2.525-1.965,5.004-3.082,7.446c-0.331,0.724-0.28,1.163,0.158,1.764c2.563,3.515,5.094,7.055,7.534,10.446
		c-2.825,2.801-5.598,5.549-8.514,8.44c-2.43-1.702-5.31-3.453-7.868-5.588c-2.289-1.909-4.264-2.549-6.921-0.68
		c-1.381,0.971-3.211,1.332-4.868,1.873c-0.808,0.263-1.209,0.607-1.356,1.517c-0.681,4.197-1.468,8.377-2.228,12.625h-11.947
		c-0.444-2.622-0.894-5.263-1.336-7.906c-0.306-1.818-0.073-4.034-1.056-5.339c-0.902-1.199-3.12-1.387-4.734-2.078
		c-1.129-0.483-2.282-0.96-3.302-1.628c-1.01-0.661-1.717-0.477-2.63,0.184c-3.372,2.437-6.803,4.791-10.068,7.077
		c-2.827-2.821-5.593-5.582-8.472-8.454c2.319-3.244,4.754-6.722,7.279-10.133c0.639-0.861,0.576-1.456,0.13-2.384
		c-1.08-2.25-2.049-4.564-2.886-6.914c-0.35-0.98-0.749-1.434-1.802-1.604c-4.199-0.677-8.38-1.463-12.568-2.209V176.184z
		 M1290.165,182.222c-0.06-9.142-7.444-16.519-16.543-16.522c-9.189-0.003-16.648,7.561-16.566,16.8
		c0.08,8.996,7.541,16.375,16.561,16.378C1282.767,198.881,1290.224,191.375,1290.165,182.222"/>
	<path fill="#D9D9D9" d="M121.588,32.45c3.476-0.566,6.953-1.12,10.424-1.723c0.275-0.048,0.593-0.396,0.716-0.681
		c0.894-2.071,1.771-4.15,2.577-6.256c0.136-0.351,0.049-0.932-0.168-1.25c-1.897-2.791-3.848-5.546-5.752-8.266
		c2.236-2.194,4.422-4.337,6.701-6.573c2.346,1.672,4.896,3.394,7.328,5.269c1.092,0.841,1.891,0.914,3.11,0.213
		c1.431-0.821,3.041-1.379,4.633-1.846c0.938-0.275,1.302-0.705,1.433-1.624c0.422-2.937,0.914-5.864,1.387-8.795
		c0.047-0.29,0.136-0.574,0.219-0.918h9.256c0.374,2.074,0.756,4.175,1.133,6.278c0.215,1.204,0.492,2.404,0.613,3.618
		c0.083,0.835,0.445,1.15,1.221,1.424c1.844,0.655,3.668,1.402,5.428,2.259c0.752,0.367,1.223,0.342,1.873-0.139
		c2.687-1.983,5.412-3.913,8.045-5.806c2.209,2.208,4.357,4.356,6.607,6.607c-0.746,1.074-1.586,2.283-2.428,3.489
		c-1.105,1.583-2.184,3.188-3.338,4.734c-0.463,0.619-0.467,1.072-0.131,1.774c0.826,1.734,1.588,3.51,2.215,5.325
		c0.299,0.863,0.686,1.235,1.586,1.363c2.938,0.415,5.863,0.92,8.792,1.397c0.323,0.053,0.64,0.15,1.084,0.256
		c0,2.416,0,4.821,0,7.227c0,2.029,0.001,2.035-2.001,2.384c-2.704,0.471-5.408,0.942-8.117,1.387
		c-0.641,0.106-0.988,0.334-1.238,1.022c-0.717,1.981-1.541,3.927-2.418,5.844c-0.261,0.568-0.221,0.912,0.123,1.384
		c2.012,2.759,3.998,5.537,5.914,8.199c-2.218,2.198-4.393,4.354-6.682,6.623c-1.908-1.335-4.168-2.71-6.176-4.385
		c-1.797-1.498-3.346-2.001-5.432-0.534c-1.084,0.762-2.52,1.045-3.822,1.47c-0.633,0.207-0.947,0.477-1.063,1.191
		c-0.534,3.294-1.151,6.575-1.748,9.908h-9.377c-0.348-2.057-0.7-4.13-1.048-6.204c-0.24-1.427-0.059-3.167-0.829-4.191
		c-0.708-0.941-2.448-1.088-3.716-1.631c-0.885-0.379-1.791-0.753-2.592-1.277c-0.791-0.519-1.346-0.375-2.063,0.144
		c-2.646,1.913-5.339,3.76-7.901,5.554c-2.219-2.214-4.391-4.381-6.648-6.635c1.82-2.546,3.73-5.275,5.713-7.952
		c0.5-0.676,0.452-1.143,0.102-1.872c-0.848-1.765-1.607-3.581-2.266-5.426c-0.273-0.77-0.587-1.126-1.414-1.259
		c-3.296-0.531-6.576-1.148-9.863-1.733V32.45z M171.86,37.189c-0.046-7.175-5.842-12.964-12.983-12.967
		c-7.211-0.002-13.065,5.934-13.002,13.185c0.063,7.061,5.918,12.852,12.998,12.854C166.055,50.263,171.906,44.373,171.86,37.189"/>
	<path fill="#D9D9D9" d="M1377.886,119.091c3.476-0.566,6.953-1.12,10.424-1.723c0.274-0.048,0.593-0.396,0.716-0.681
		c0.893-2.071,1.77-4.15,2.578-6.255c0.135-0.352,0.048-0.933-0.168-1.251c-1.898-2.791-3.85-5.546-5.753-8.266
		c2.236-2.194,4.422-4.337,6.7-6.573c2.347,1.672,4.897,3.394,7.329,5.269c1.091,0.841,1.892,0.914,3.11,0.213
		c1.43-0.821,3.041-1.379,4.633-1.846c0.938-0.275,1.301-0.705,1.433-1.624c0.423-2.937,0.914-5.864,1.387-8.795
		c0.047-0.29,0.136-0.574,0.219-0.918h9.256c0.374,2.074,0.755,4.175,1.132,6.278c0.216,1.204,0.493,2.404,0.614,3.618
		c0.083,0.835,0.445,1.15,1.22,1.424c1.846,0.655,3.668,1.402,5.429,2.259c0.752,0.367,1.223,0.342,1.873-0.139
		c2.687-1.983,5.412-3.913,8.046-5.806c2.208,2.208,4.355,4.356,6.606,6.607c-0.747,1.074-1.586,2.283-2.428,3.489
		c-1.106,1.583-2.184,3.188-3.338,4.734c-0.463,0.62-0.466,1.072-0.131,1.774c0.828,1.734,1.588,3.51,2.215,5.325
		c0.299,0.863,0.686,1.235,1.586,1.363c2.938,0.415,5.863,0.92,8.792,1.398c0.323,0.052,0.639,0.149,1.084,0.255v7.228
		c0,2.029,0.001,2.035-2.001,2.384c-2.704,0.471-5.408,0.942-8.117,1.387c-0.641,0.106-0.989,0.334-1.238,1.022
		c-0.717,1.981-1.542,3.927-2.419,5.844c-0.26,0.568-0.22,0.913,0.124,1.384c2.013,2.759,3.998,5.538,5.913,8.199
		c-2.217,2.198-4.392,4.354-6.681,6.623c-1.908-1.335-4.168-2.71-6.176-4.385c-1.797-1.498-3.347-2.001-5.432-0.534
		c-1.084,0.763-2.52,1.045-3.821,1.47c-0.634,0.207-0.948,0.477-1.064,1.191c-0.535,3.294-1.152,6.575-1.748,9.908h-9.377
		c-0.348-2.057-0.701-4.13-1.048-6.204c-0.24-1.427-0.059-3.167-0.829-4.191c-0.708-0.941-2.449-1.088-3.716-1.631
		c-0.885-0.379-1.791-0.753-2.591-1.277c-0.792-0.519-1.348-0.375-2.064,0.145c-2.646,1.913-5.339,3.761-7.902,5.554
		c-2.219-2.214-4.39-4.381-6.647-6.635c1.82-2.546,3.73-5.275,5.713-7.952c0.5-0.676,0.452-1.143,0.102-1.872
		c-0.848-1.765-1.607-3.581-2.266-5.426c-0.273-0.769-0.587-1.126-1.414-1.259c-3.295-0.531-6.577-1.148-9.863-1.733V119.091z
		 M1428.158,123.83c-0.046-7.175-5.842-12.964-12.983-12.967c-7.212-0.002-13.065,5.934-13.002,13.185
		c0.063,7.061,5.918,12.852,12.997,12.854C1422.353,136.904,1428.204,131.014,1428.158,123.83"/>
	<path fill="#D9D9D9" d="M322.531,62.438c2.156-0.351,4.313-0.695,6.465-1.069c0.17-0.03,0.369-0.246,0.444-0.422
		c0.554-1.284,1.097-2.574,1.599-3.88c0.084-0.218,0.031-0.579-0.104-0.775c-1.178-1.731-2.388-3.44-3.568-5.128
		c1.388-1.36,2.742-2.689,4.156-4.076c1.454,1.037,3.037,2.105,4.545,3.268c0.678,0.521,1.174,0.567,1.93,0.132
		c0.887-0.51,1.886-0.856,2.873-1.146c0.582-0.17,0.807-0.437,0.889-1.007c0.262-1.822,0.566-3.637,0.859-5.455
		c0.029-0.18,0.084-0.356,0.137-0.57h5.74c0.232,1.287,0.469,2.59,0.703,3.894c0.133,0.747,0.305,1.491,0.379,2.244
		c0.053,0.518,0.277,0.714,0.758,0.884c1.145,0.406,2.275,0.869,3.367,1.401c0.465,0.227,0.758,0.211,1.162-0.086
		c1.666-1.23,3.355-2.427,4.988-3.602c1.37,1.37,2.703,2.702,4.1,4.098c-0.465,0.666-0.984,1.416-1.508,2.164
		c-0.686,0.982-1.353,1.977-2.07,2.936c-0.286,0.384-0.287,0.665-0.08,1.1c0.513,1.076,0.984,2.178,1.373,3.303
		c0.186,0.535,0.427,0.766,0.984,0.845c1.821,0.258,3.637,0.571,5.453,0.867c0.2,0.033,0.396,0.093,0.672,0.159V67
		c0,1.258,0.002,1.262-1.24,1.479c-1.678,0.292-3.355,0.584-5.034,0.86c-0.398,0.066-0.614,0.207-0.769,0.634
		c-0.445,1.229-0.957,2.435-1.5,3.624c-0.162,0.353-0.137,0.566,0.076,0.859c1.248,1.711,2.48,3.434,3.667,5.085
		c-1.375,1.363-2.724,2.701-4.144,4.108c-1.182-0.828-2.584-1.681-3.83-2.72c-1.113-0.929-2.075-1.241-3.368-0.331
		c-0.673,0.473-1.563,0.648-2.37,0.912c-0.393,0.128-0.588,0.295-0.66,0.738c-0.332,2.043-0.715,4.078-1.085,6.146h-5.815
		c-0.215-1.277-0.435-2.562-0.65-3.849c-0.148-0.885-0.035-1.964-0.514-2.599c-0.439-0.583-1.52-0.675-2.305-1.011
		c-0.55-0.235-1.111-0.468-1.606-0.792c-0.491-0.322-0.836-0.233-1.28,0.089c-1.643,1.186-3.313,2.332-4.9,3.445
		c-1.377-1.374-2.724-2.718-4.125-4.115c1.129-1.58,2.314-3.272,3.543-4.933c0.312-0.419,0.281-0.709,0.064-1.161
		c-0.525-1.095-0.998-2.221-1.406-3.365c-0.17-0.477-0.363-0.698-0.877-0.781c-2.044-0.329-4.078-0.712-6.117-1.075V62.438z
		 M353.712,65.377c-0.029-4.45-3.624-8.041-8.052-8.042c-4.475-0.002-8.104,3.68-8.065,8.177c0.039,4.379,3.671,7.971,8.062,7.973
		C350.111,73.486,353.74,69.833,353.712,65.377"/>
	<path fill="#D9D9D9" d="M1267.271,43.395c2.156-0.351,4.313-0.695,6.465-1.069c0.17-0.03,0.367-0.246,0.444-0.422
		c0.554-1.284,1.097-2.574,1.599-3.88c0.083-0.218,0.03-0.579-0.104-0.775c-1.179-1.731-2.389-3.44-3.568-5.128
		c1.387-1.36,2.742-2.689,4.156-4.076c1.454,1.037,3.037,2.105,4.545,3.268c0.677,0.521,1.173,0.567,1.929,0.132
		c0.887-0.51,1.886-0.856,2.874-1.145c0.581-0.17,0.806-0.437,0.888-1.007c0.263-1.822,0.567-3.637,0.86-5.455
		c0.029-0.18,0.084-0.355,0.136-0.57h5.741c0.232,1.287,0.468,2.59,0.701,3.894c0.134,0.747,0.306,1.491,0.381,2.244
		c0.052,0.518,0.277,0.714,0.757,0.884c1.146,0.406,2.275,0.869,3.367,1.401c0.466,0.227,0.758,0.211,1.162-0.086
		c1.666-1.23,3.355-2.427,4.989-3.603c1.37,1.37,2.702,2.702,4.099,4.098c-0.464,0.666-0.984,1.416-1.507,2.164
		c-0.687,0.982-1.354,1.977-2.07,2.936c-0.287,0.384-0.288,0.665-0.081,1.1c0.514,1.076,0.985,2.178,1.374,3.303
		c0.186,0.535,0.425,0.766,0.983,0.845c1.822,0.258,3.637,0.571,5.454,0.867c0.2,0.033,0.396,0.093,0.672,0.159v4.482
		c0,1.258,0.001,1.262-1.241,1.479c-1.677,0.292-3.355,0.584-5.034,0.86c-0.397,0.066-0.614,0.207-0.768,0.634
		c-0.445,1.229-0.957,2.435-1.501,3.624c-0.161,0.353-0.137,0.566,0.077,0.859c1.247,1.711,2.479,3.434,3.667,5.085
		c-1.375,1.363-2.725,2.701-4.144,4.108c-1.183-0.828-2.585-1.681-3.831-2.72c-1.113-0.929-2.075-1.241-3.368-0.331
		c-0.673,0.473-1.563,0.648-2.37,0.912c-0.393,0.128-0.588,0.295-0.659,0.738c-0.332,2.043-0.716,4.078-1.085,6.146h-5.816
		c-0.215-1.277-0.434-2.562-0.65-3.849c-0.147-0.885-0.034-1.964-0.513-2.599c-0.44-0.583-1.52-0.675-2.305-1.011
		c-0.55-0.235-1.111-0.468-1.607-0.792c-0.491-0.322-0.836-0.233-1.28,0.089c-1.642,1.186-3.312,2.332-4.9,3.445
		c-1.377-1.374-2.723-2.718-4.124-4.115c1.129-1.58,2.313-3.272,3.543-4.933c0.311-0.419,0.281-0.709,0.063-1.161
		c-0.525-1.095-0.998-2.221-1.405-3.365c-0.17-0.477-0.364-0.698-0.877-0.781c-2.043-0.329-4.079-0.712-6.117-1.075V43.395z
		 M1298.451,46.334c-0.028-4.45-3.624-8.041-8.052-8.042c-4.474-0.002-8.104,3.68-8.065,8.177c0.039,4.379,3.671,7.971,8.063,7.973
		C1294.851,54.443,1298.48,50.79,1298.451,46.334"/>
	<path fill="#D9D9D9" d="M1503.748,28.502c2.156-0.351,4.313-0.695,6.465-1.069c0.171-0.03,0.367-0.246,0.444-0.422
		c0.554-1.285,1.097-2.574,1.599-3.88c0.083-0.218,0.03-0.579-0.104-0.775c-1.178-1.732-2.388-3.44-3.568-5.128
		c1.388-1.36,2.742-2.689,4.156-4.076c1.454,1.037,3.037,2.105,4.545,3.268c0.676,0.521,1.173,0.567,1.929,0.132
		c0.888-0.51,1.887-0.856,2.874-1.146c0.581-0.17,0.807-0.437,0.889-1.007c0.262-1.822,0.566-3.638,0.859-5.455
		c0.029-0.18,0.084-0.356,0.137-0.57h5.74c0.232,1.287,0.469,2.59,0.701,3.894c0.134,0.747,0.307,1.491,0.381,2.244
		c0.053,0.518,0.277,0.713,0.757,0.884c1.146,0.406,2.275,0.869,3.366,1.401c0.468,0.227,0.759,0.211,1.163-0.086
		c1.666-1.23,3.356-2.427,4.989-3.602c1.37,1.37,2.703,2.702,4.099,4.098c-0.464,0.666-0.983,1.416-1.507,2.164
		c-0.686,0.982-1.353,1.977-2.069,2.936c-0.287,0.384-0.289,0.665-0.082,1.1c0.514,1.076,0.985,2.178,1.375,3.303
		c0.185,0.535,0.425,0.766,0.982,0.845c1.822,0.258,3.637,0.571,5.454,0.867c0.2,0.033,0.396,0.093,0.672,0.159v4.482
		c0,1.258,0.001,1.262-1.241,1.479c-1.677,0.292-3.354,0.584-5.033,0.86c-0.398,0.065-0.614,0.207-0.77,0.634
		c-0.444,1.229-0.956,2.435-1.5,3.624c-0.161,0.353-0.136,0.566,0.077,0.859c1.248,1.711,2.479,3.434,3.667,5.085
		c-1.375,1.363-2.724,2.701-4.143,4.108c-1.184-0.828-2.586-1.681-3.831-2.72c-1.114-0.929-2.075-1.241-3.368-0.331
		c-0.673,0.473-1.563,0.648-2.37,0.912c-0.394,0.128-0.588,0.295-0.66,0.738c-0.332,2.043-0.715,4.078-1.085,6.146h-5.816
		c-0.215-1.277-0.434-2.562-0.649-3.849c-0.148-0.885-0.035-1.964-0.515-2.599c-0.438-0.584-1.519-0.675-2.304-1.011
		c-0.55-0.235-1.11-0.468-1.606-0.792c-0.491-0.322-0.836-0.233-1.281,0.089c-1.641,1.186-3.312,2.332-4.901,3.445
		c-1.376-1.374-2.722-2.718-4.123-4.115c1.129-1.58,2.314-3.272,3.543-4.933c0.311-0.419,0.281-0.709,0.064-1.161
		c-0.526-1.095-0.998-2.221-1.406-3.365c-0.17-0.477-0.364-0.698-0.877-0.781c-2.044-0.329-4.079-0.712-6.117-1.075V28.502z
		 M1534.929,31.441c-0.029-4.45-3.624-8.041-8.053-8.042c-4.474-0.002-8.104,3.68-8.064,8.177c0.039,4.379,3.671,7.971,8.062,7.973
		C1531.327,39.55,1534.957,35.897,1534.929,31.441"/>
	<path fill="#D9D9D9" d="M437.65,185.586c1.746-0.285,3.494-0.563,5.236-0.866c0.139-0.024,0.299-0.199,0.359-0.342
		c0.449-1.04,0.889-2.085,1.295-3.143c0.068-0.176,0.023-0.469-0.084-0.628c-0.954-1.402-1.934-2.786-2.891-4.152
		c1.125-1.103,2.222-2.179,3.367-3.302c1.178,0.84,2.459,1.705,3.682,2.647c0.547,0.422,0.949,0.459,1.562,0.107
		c0.718-0.413,1.527-0.693,2.327-0.928c0.471-0.138,0.653-0.354,0.719-0.815c0.213-1.476,0.461-2.946,0.697-4.418
		c0.023-0.146,0.068-0.289,0.109-0.461h4.649c0.188,1.042,0.38,2.097,0.569,3.153c0.107,0.605,0.247,1.208,0.309,1.818
		c0.041,0.419,0.223,0.577,0.612,0.715c0.927,0.329,1.842,0.704,2.726,1.135c0.379,0.184,0.615,0.171,0.942-0.07
		c1.349-0.996,2.718-1.966,4.041-2.917c1.108,1.109,2.188,2.189,3.319,3.319c-0.377,0.54-0.797,1.147-1.221,1.753
		c-0.556,0.795-1.096,1.601-1.677,2.378c-0.231,0.312-0.233,0.538-0.065,0.892c0.416,0.871,0.798,1.763,1.113,2.674
		c0.149,0.434,0.344,0.621,0.795,0.685c1.477,0.209,2.946,0.462,4.418,0.702c0.162,0.026,0.32,0.075,0.545,0.128
		c0,1.214,0,2.422,0,3.631c0,1.018,0,1.022-1.006,1.197c-1.358,0.237-2.717,0.473-4.078,0.697c-0.321,0.053-0.496,0.167-0.621,0.513
		c-0.36,0.995-0.774,1.972-1.215,2.935c-0.131,0.286-0.11,0.459,0.062,0.696c1.011,1.386,2.009,2.781,2.971,4.118
		c-1.114,1.104-2.207,2.187-3.356,3.327c-0.957-0.671-2.094-1.361-3.103-2.203c-0.901-0.752-1.68-1.005-2.728-0.268
		c-0.545,0.383-1.266,0.525-1.92,0.738c-0.317,0.104-0.476,0.24-0.534,0.599c-0.269,1.654-0.578,3.302-0.878,4.977h-4.711
		c-0.174-1.034-0.352-2.075-0.526-3.117c-0.12-0.717-0.028-1.591-0.416-2.105c-0.354-0.473-1.229-0.547-1.866-0.819
		c-0.445-0.19-0.9-0.379-1.302-0.642c-0.397-0.26-0.676-0.188-1.036,0.072c-1.33,0.961-2.682,1.89-3.97,2.79
		c-1.114-1.112-2.205-2.2-3.339-3.332c0.914-1.279,1.874-2.65,2.869-3.995c0.252-0.339,0.228-0.574,0.052-0.94
		c-0.427-0.887-0.808-1.799-1.138-2.726c-0.139-0.386-0.295-0.565-0.711-0.632c-1.655-0.267-3.304-0.577-4.955-0.871V185.586z
		 M462.902,187.966c-0.022-3.604-2.935-6.512-6.521-6.513c-3.623-0.002-6.563,2.98-6.53,6.622c0.03,3.547,2.971,6.456,6.527,6.457
		C459.986,194.533,462.926,191.574,462.902,187.966"/>
	<path fill="#D9D9D9" d="M451.399,35.277c1.745-0.285,3.493-0.563,5.235-0.866c0.139-0.024,0.299-0.199,0.359-0.342
		c0.449-1.04,0.889-2.085,1.295-3.142c0.068-0.176,0.023-0.468-0.084-0.628c-0.954-1.402-1.934-2.786-2.891-4.152
		c1.125-1.102,2.222-2.179,3.367-3.302c1.178,0.84,2.459,1.705,3.682,2.647c0.547,0.422,0.949,0.459,1.563,0.107
		c0.717-0.413,1.526-0.693,2.326-0.927c0.471-0.139,0.653-0.355,0.721-0.816c0.211-1.476,0.459-2.946,0.695-4.418
		c0.023-0.146,0.068-0.288,0.11-0.461h4.649c0.188,1.042,0.379,2.097,0.568,3.153c0.107,0.605,0.247,1.208,0.309,1.818
		c0.041,0.419,0.224,0.577,0.612,0.715c0.927,0.329,1.843,0.704,2.726,1.135c0.379,0.184,0.615,0.171,0.942-0.07
		c1.349-0.996,2.718-1.965,4.041-2.916c1.109,1.109,2.188,2.188,3.319,3.318c-0.376,0.54-0.797,1.147-1.221,1.753
		c-0.556,0.795-1.096,1.601-1.676,2.378c-0.232,0.311-0.234,0.538-0.065,0.891c0.415,0.871,0.797,1.763,1.112,2.674
		c0.149,0.434,0.344,0.621,0.797,0.685c1.475,0.209,2.944,0.462,4.416,0.702c0.162,0.027,0.32,0.075,0.545,0.129v3.63
		c0,1.018,0,1.022-1.006,1.197c-1.358,0.237-2.717,0.473-4.078,0.697c-0.321,0.053-0.496,0.167-0.621,0.513
		c-0.36,0.995-0.774,1.973-1.215,2.935c-0.131,0.286-0.11,0.459,0.062,0.696c1.011,1.386,2.009,2.781,2.972,4.118
		c-1.115,1.104-2.207,2.187-3.356,3.327c-0.958-0.671-2.095-1.361-3.103-2.203c-0.902-0.752-1.681-1.005-2.729-0.268
		c-0.544,0.383-1.266,0.525-1.919,0.738c-0.318,0.104-0.476,0.24-0.535,0.599c-0.269,1.654-0.578,3.302-0.878,4.977h-4.71
		c-0.175-1.034-0.353-2.075-0.526-3.117c-0.121-0.717-0.029-1.59-0.417-2.105c-0.354-0.473-1.229-0.547-1.866-0.819
		c-0.444-0.19-0.899-0.379-1.302-0.642c-0.397-0.26-0.676-0.188-1.036,0.073c-1.33,0.96-2.682,1.889-3.97,2.789
		c-1.114-1.112-2.205-2.2-3.339-3.332c0.914-1.279,1.874-2.65,2.869-3.995c0.252-0.339,0.228-0.574,0.052-0.94
		c-0.426-0.887-0.808-1.799-1.138-2.725c-0.139-0.387-0.295-0.566-0.711-0.633c-1.655-0.267-3.303-0.576-4.954-0.871V35.277z
		 M476.651,37.657c-0.023-3.604-2.935-6.512-6.521-6.513c-3.623-0.002-6.564,2.98-6.531,6.622c0.031,3.547,2.972,6.456,6.527,6.457
		C473.734,44.224,476.674,41.266,476.651,37.657"/>
	<path fill="#D9D9D9" d="M1088.117,31.528c1.746-0.285,3.493-0.563,5.236-0.866c0.138-0.024,0.297-0.199,0.358-0.342
		c0.449-1.04,0.89-2.085,1.295-3.142c0.068-0.176,0.024-0.469-0.084-0.628c-0.953-1.402-1.934-2.786-2.89-4.152
		c1.124-1.103,2.221-2.179,3.366-3.302c1.178,0.84,2.46,1.705,3.682,2.647c0.547,0.422,0.949,0.459,1.563,0.107
		c0.718-0.413,1.526-0.693,2.326-0.928c0.472-0.138,0.653-0.354,0.72-0.814c0.212-1.477,0.46-2.946,0.696-4.418
		c0.023-0.146,0.068-0.289,0.11-0.461h4.649c0.188,1.042,0.379,2.097,0.568,3.153c0.108,0.605,0.247,1.208,0.309,1.818
		c0.042,0.419,0.224,0.577,0.613,0.715c0.927,0.329,1.842,0.704,2.726,1.135c0.378,0.184,0.615,0.171,0.94-0.07
		c1.351-0.996,2.72-1.966,4.043-2.916c1.108,1.108,2.188,2.188,3.318,3.318c-0.376,0.54-0.797,1.147-1.22,1.753
		c-0.556,0.795-1.097,1.601-1.677,2.378c-0.232,0.311-0.234,0.538-0.065,0.891c0.415,0.871,0.797,1.763,1.112,2.674
		c0.149,0.434,0.345,0.621,0.796,0.685c1.476,0.209,2.946,0.462,4.417,0.702c0.162,0.026,0.32,0.075,0.545,0.128v3.631
		c0,1.018,0,1.022-1.006,1.197c-1.358,0.237-2.716,0.473-4.077,0.697c-0.322,0.053-0.497,0.167-0.622,0.513
		c-0.36,0.995-0.774,1.972-1.215,2.936c-0.13,0.286-0.11,0.459,0.062,0.696c1.012,1.386,2.009,2.781,2.971,4.118
		c-1.113,1.104-2.206,2.188-3.355,3.327c-0.959-0.671-2.094-1.361-3.103-2.203c-0.902-0.752-1.681-1.005-2.729-0.268
		c-0.544,0.383-1.265,0.525-1.919,0.738c-0.317,0.104-0.476,0.24-0.535,0.599c-0.268,1.654-0.578,3.302-0.878,4.977h-4.71
		c-0.175-1.034-0.352-2.075-0.526-3.117c-0.12-0.717-0.028-1.591-0.416-2.105c-0.355-0.473-1.23-0.547-1.866-0.819
		c-0.445-0.19-0.9-0.379-1.302-0.642c-0.397-0.26-0.677-0.188-1.037,0.072c-1.329,0.961-2.682,1.89-3.97,2.79
		c-1.113-1.112-2.205-2.2-3.339-3.332c0.914-1.279,1.874-2.65,2.869-3.995c0.252-0.339,0.227-0.574,0.052-0.94
		c-0.426-0.887-0.808-1.799-1.138-2.725c-0.138-0.387-0.295-0.566-0.711-0.633c-1.655-0.267-3.303-0.577-4.954-0.871V31.528z
		 M1113.369,33.908c-0.022-3.604-2.935-6.512-6.521-6.513c-3.623-0.002-6.564,2.98-6.531,6.622c0.031,3.547,2.972,6.456,6.527,6.457
		C1110.452,40.475,1113.393,37.517,1113.369,33.908"/>
</g>
</svg>
