<?xml version="1.0" encoding="utf-8"?>
<!-- Generator: Adobe Illustrator 16.0.0, SVG Export Plug-In . SVG Version: 6.00 Build 0)  -->
<!DOCTYPE svg PUBLIC "-//W3C//DTD SVG 1.1//EN" "http://www.w3.org/Graphics/SVG/1.1/DTD/svg11.dtd">
<svg version="1.1" id="Layer_1" xmlns="http://www.w3.org/2000/svg" xmlns:xlink="http://www.w3.org/1999/xlink" x="0px" y="0px"
	 width="1680.976px" height="201.991px" viewBox="0 0 1680.976 201.991" enable-background="new 0 0 1680.976 201.991"
	 xml:space="preserve">
<rect x="-325.577" y="-625.93" fill="none" width="1600" height="1898"/>
<g>
	<path fill="#D9D9D9" d="M415.173,34.553c0.236,0.59,0.227,1.121-0.172,1.679c-0.184,0.257-0.146,0.683-0.176,1.035
		c-0.23,2.726,0.574,5.179,1.975,7.477c1.124,1.843,2.547,3.444,4.02,5.005c2.232,2.362,3.757,5.128,4.684,8.23
		c0.432,1.441,0.729,2.911,0.854,4.412c0.013,0.146,0.01,0.294,0.015,0.5c-0.327-0.147-0.617-0.274-0.905-0.408
		c-2.131-0.99-4.273-1.954-6.525-2.64c-2.553-0.778-5.159-1.02-7.816-0.744c-2.066,0.214-4.078,0.006-5.979-0.885
		c-2.049-0.961-3.533-2.514-4.576-4.499c-0.293-0.556-0.516-1.148-0.768-1.724c-0.055-0.123-0.102-0.248-0.171-0.417
		c-3.471,3.471-16.039,16.04-19.493,19.493c-0.641-0.641-1.26-1.26-1.904-1.905c0.113-0.113,0.216-0.216,0.318-0.319
		c8.356-8.356,25.85-25.841,34.193-34.209c0.594-0.596,1.193-0.851,1.99-0.519C414.881,34.261,415.026,34.407,415.173,34.553"/>
	<path fill="#D9D9D9" d="M366.069,34.553c-0.236,0.59-0.227,1.121,0.172,1.679c0.184,0.257,0.146,0.683,0.176,1.035
		c0.231,2.726-0.574,5.179-1.975,7.477c-1.124,1.843-2.546,3.444-4.02,5.005c-2.232,2.362-3.757,5.128-4.684,8.23
		c-0.432,1.441-0.729,2.911-0.854,4.412c-0.013,0.146-0.01,0.294-0.015,0.5c0.327-0.147,0.617-0.274,0.905-0.408
		c2.131-0.99,4.273-1.954,6.525-2.64c2.553-0.778,5.16-1.02,7.816-0.744c2.066,0.214,4.078,0.006,5.979-0.885
		c2.05-0.961,3.533-2.514,4.576-4.499c0.293-0.556,0.516-1.148,0.769-1.724c0.054-0.123,0.101-0.248,0.17-0.417
		c3.471,3.471,16.039,16.04,19.493,19.493c0.641-0.641,1.26-1.26,1.904-1.905c-0.112-0.113-0.215-0.216-0.318-0.319
		c-8.355-8.356-25.85-25.841-34.193-34.209c-0.594-0.596-1.193-0.851-1.99-0.519C366.361,34.261,366.216,34.407,366.069,34.553"/>
	<path fill="#D9D9D9" d="M659.812,164.383c0.236,0.59,0.227,1.121-0.172,1.679c-0.184,0.257-0.146,0.683-0.176,1.035
		c-0.23,2.726,0.574,5.179,1.975,7.477c1.124,1.843,2.547,3.444,4.021,5.005c2.231,2.361,3.756,5.128,4.683,8.229
		c0.432,1.441,0.729,2.91,0.854,4.412c0.013,0.146,0.01,0.294,0.015,0.5c-0.327-0.147-0.617-0.274-0.905-0.408
		c-2.131-0.99-4.273-1.954-6.525-2.64c-2.553-0.778-5.159-1.02-7.816-0.744c-2.066,0.214-4.078,0.006-5.979-0.885
		c-2.049-0.961-3.533-2.514-4.576-4.499c-0.293-0.556-0.516-1.148-0.768-1.724c-0.055-0.123-0.102-0.248-0.171-0.417
		c-3.471,3.471-16.039,16.04-19.493,19.493c-0.641-0.641-1.26-1.26-1.904-1.905c0.113-0.113,0.216-0.216,0.318-0.319
		c8.356-8.356,25.85-25.841,34.193-34.209c0.594-0.596,1.193-0.851,1.99-0.519C659.52,164.091,659.665,164.237,659.812,164.383"/>
	<path fill="#D9D9D9" d="M610.708,164.383c-0.236,0.59-0.227,1.121,0.172,1.679c0.184,0.257,0.146,0.683,0.176,1.035
		c0.231,2.726-0.574,5.179-1.975,7.477c-1.124,1.843-2.547,3.444-4.02,5.005c-2.232,2.361-3.757,5.128-4.684,8.229
		c-0.432,1.441-0.729,2.91-0.854,4.412c-0.013,0.146-0.01,0.294-0.015,0.5c0.327-0.147,0.617-0.274,0.905-0.408
		c2.131-0.99,4.273-1.954,6.525-2.64c2.553-0.778,5.159-1.02,7.816-0.744c2.066,0.214,4.078,0.006,5.979-0.885
		c2.049-0.961,3.533-2.514,4.576-4.499c0.293-0.556,0.516-1.148,0.769-1.724c0.054-0.123,0.101-0.248,0.17-0.417
		c3.471,3.471,16.039,16.04,19.493,19.493c0.641-0.641,1.26-1.26,1.904-1.905c-0.113-0.113-0.216-0.216-0.318-0.319
		c-8.356-8.356-25.85-25.841-34.193-34.209c-0.594-0.596-1.193-0.851-1.99-0.519C611,164.091,610.854,164.237,610.708,164.383"/>
	<path fill="#D9D9D9" d="M1304.478,24.035c0.235,0.59,0.227,1.121-0.173,1.679c-0.183,0.257-0.146,0.683-0.176,1.035
		c-0.231,2.726,0.575,5.179,1.976,7.477c1.123,1.843,2.546,3.444,4.02,5.005c2.232,2.362,3.756,5.128,4.683,8.23
		c0.432,1.441,0.729,2.911,0.854,4.412c0.012,0.146,0.009,0.294,0.014,0.5c-0.327-0.147-0.617-0.274-0.904-0.408
		c-2.132-0.99-4.273-1.954-6.525-2.64c-2.554-0.778-5.16-1.02-7.817-0.744c-2.065,0.214-4.078,0.006-5.978-0.885
		c-2.05-0.961-3.534-2.514-4.577-4.499c-0.292-0.556-0.515-1.148-0.769-1.724c-0.054-0.123-0.101-0.248-0.17-0.417
		c-3.471,3.471-16.039,16.04-19.492,19.493c-0.642-0.641-1.261-1.26-1.905-1.905c0.113-0.113,0.216-0.216,0.319-0.319
		c8.355-8.355,25.849-25.841,34.192-34.209c0.594-0.596,1.194-0.851,1.99-0.519L1304.478,24.035z"/>
	<path fill="#D9D9D9" d="M1255.373,24.035c-0.236,0.59-0.227,1.121,0.172,1.679c0.184,0.257,0.146,0.683,0.176,1.035
		c0.231,2.726-0.574,5.179-1.975,7.477c-1.124,1.843-2.546,3.444-4.021,5.005c-2.231,2.362-3.756,5.128-4.683,8.23
		c-0.431,1.441-0.729,2.911-0.854,4.412c-0.013,0.146-0.01,0.294-0.015,0.5c0.327-0.147,0.617-0.274,0.905-0.408
		c2.131-0.99,4.273-1.954,6.525-2.64c2.554-0.778,5.159-1.02,7.816-0.744c2.066,0.214,4.078,0.006,5.979-0.885
		c2.05-0.961,3.534-2.514,4.577-4.499c0.292-0.556,0.515-1.148,0.768-1.724c0.054-0.123,0.101-0.248,0.17-0.417l19.493,19.493
		c0.641-0.641,1.26-1.26,1.905-1.905c-0.113-0.113-0.217-0.216-0.319-0.319c-8.356-8.355-25.849-25.841-34.193-34.209
		c-0.594-0.596-1.193-0.851-1.989-0.519L1255.373,24.035z"/>
	<path fill="#D9D9D9" d="M1541.399,0.85c0.236,0.59,0.228,1.121-0.172,1.679c-0.183,0.257-0.146,0.683-0.176,1.035
		c-0.23,2.726,0.575,5.179,1.975,7.477c1.125,1.843,2.547,3.444,4.021,5.005c2.231,2.362,3.756,5.128,4.683,8.23
		c0.432,1.441,0.729,2.911,0.854,4.412c0.012,0.146,0.009,0.294,0.014,0.5c-0.327-0.147-0.617-0.274-0.905-0.408
		c-2.131-0.99-4.272-1.954-6.524-2.64c-2.554-0.778-5.16-1.02-7.817-0.744c-2.065,0.214-4.078,0.006-5.978-0.885
		c-2.05-0.961-3.534-2.514-4.577-4.499c-0.292-0.556-0.515-1.148-0.768-1.724c-0.055-0.123-0.102-0.248-0.171-0.417l-19.492,19.493
		l-1.905-1.905c0.113-0.113,0.216-0.216,0.318-0.319c8.356-8.355,25.85-25.841,34.193-34.209c0.594-0.596,1.194-0.851,1.99-0.519
		C1541.107,0.558,1541.254,0.704,1541.399,0.85"/>
	<path fill="#D9D9D9" d="M1492.296,0.85c-0.236,0.59-0.227,1.121,0.172,1.679c0.184,0.257,0.146,0.683,0.176,1.035
		c0.231,2.726-0.574,5.179-1.975,7.477c-1.124,1.843-2.546,3.444-4.02,5.005c-2.232,2.362-3.757,5.128-4.684,8.23
		c-0.431,1.441-0.729,2.911-0.854,4.412c-0.013,0.146-0.01,0.294-0.015,0.5c0.327-0.147,0.617-0.274,0.905-0.408
		c2.131-0.99,4.273-1.954,6.525-2.64c2.554-0.778,5.16-1.02,7.816-0.744c2.066,0.214,4.078,0.006,5.979-0.885
		c2.05-0.961,3.533-2.514,4.576-4.499c0.293-0.556,0.516-1.148,0.769-1.724c0.054-0.123,0.101-0.248,0.17-0.417
		c3.471,3.471,16.039,16.04,19.493,19.493l1.905-1.905c-0.113-0.113-0.216-0.216-0.319-0.319
		c-8.356-8.355-25.849-25.841-34.193-34.209c-0.594-0.596-1.193-0.851-1.989-0.519C1492.588,0.558,1492.442,0.704,1492.296,0.85"/>
	<path fill="#D9D9D9" d="M603.261,6.598c0.166,0.418,0.16,0.795-0.123,1.191c-0.129,0.182-0.104,0.484-0.125,0.734
		c-0.164,1.933,0.408,3.673,1.401,5.302c0.797,1.308,1.806,2.444,2.851,3.55c1.584,1.675,2.664,3.637,3.321,5.837
		c0.306,1.022,0.517,2.064,0.606,3.129c0.008,0.104,0.006,0.209,0.01,0.355c-0.232-0.105-0.438-0.195-0.643-0.289
		c-1.51-0.702-3.029-1.386-4.627-1.873c-1.812-0.552-3.66-0.723-5.545-0.528c-1.465,0.152-2.892,0.005-4.24-0.627
		c-1.452-0.682-2.506-1.783-3.245-3.19c-0.207-0.395-0.365-0.814-0.544-1.223c-0.038-0.087-0.072-0.175-0.121-0.295
		c-2.461,2.461-11.375,11.375-13.825,13.825c-0.454-0.455-0.894-0.894-1.351-1.351c0.08-0.081,0.154-0.154,0.227-0.227
		c5.926-5.926,18.332-18.327,24.25-24.261c0.422-0.423,0.848-0.604,1.411-0.369C603.054,6.391,603.156,6.494,603.261,6.598"/>
	<path fill="#D9D9D9" d="M568.435,6.598c-0.167,0.418-0.16,0.795,0.122,1.191c0.13,0.182,0.104,0.484,0.125,0.734
		c0.164,1.933-0.407,3.673-1.401,5.302c-0.797,1.308-1.805,2.444-2.851,3.55c-1.583,1.675-2.664,3.637-3.321,5.837
		c-0.306,1.022-0.517,2.064-0.605,3.129c-0.008,0.104-0.006,0.209-0.01,0.355c0.231-0.105,0.438-0.195,0.642-0.289
		c1.511-0.702,3.03-1.386,4.628-1.873c1.811-0.552,3.659-0.723,5.544-0.528c1.465,0.152,2.892,0.005,4.24-0.627
		c1.452-0.682,2.506-1.783,3.246-3.19c0.206-0.395,0.364-0.814,0.544-1.223c0.037-0.087,0.072-0.175,0.121-0.295
		c2.461,2.461,11.375,11.375,13.824,13.825c0.455-0.455,0.894-0.894,1.352-1.351c-0.081-0.081-0.154-0.154-0.227-0.227
		c-5.927-5.926-18.332-18.327-24.25-24.261c-0.422-0.423-0.848-0.604-1.412-0.369C568.642,6.391,568.538,6.494,568.435,6.598"/>
	<path fill="#D9D9D9" d="M552.894,80.108c0.308,0.771,0.297,1.466-0.225,2.196c-0.24,0.335-0.191,0.893-0.23,1.353
		c-0.303,3.565,0.752,6.772,2.583,9.777c1.469,2.41,3.328,4.504,5.257,6.545c2.918,3.088,4.911,6.706,6.123,10.762
		c0.564,1.884,0.953,3.806,1.117,5.769c0.015,0.192,0.011,0.385,0.019,0.654c-0.429-0.193-0.808-0.359-1.184-0.533
		c-2.787-1.294-5.589-2.555-8.533-3.453c-3.339-1.017-6.747-1.334-10.222-0.973c-2.701,0.28-5.332,0.008-7.817-1.157
		c-2.68-1.257-4.621-3.287-5.985-5.883c-0.381-0.727-0.672-1.501-1.004-2.255c-0.07-0.16-0.133-0.323-0.223-0.544
		c-4.539,4.539-20.975,20.974-25.49,25.49c-0.838-0.839-1.646-1.648-2.49-2.491c0.147-0.148,0.283-0.283,0.418-0.417
		c10.926-10.927,33.801-33.792,44.711-44.734c0.777-0.779,1.562-1.113,2.603-0.679C552.511,79.726,552.702,79.917,552.894,80.108"/>
	<path fill="#D9D9D9" d="M488.683,80.108c-0.309,0.771-0.297,1.466,0.225,2.196c0.24,0.335,0.191,0.893,0.23,1.353
		c0.303,3.565-0.752,6.772-2.583,9.777c-1.47,2.41-3.328,4.504-5.256,6.545c-2.919,3.088-4.912,6.706-6.124,10.762
		c-0.564,1.884-0.953,3.806-1.116,5.769c-0.017,0.192-0.012,0.385-0.021,0.654c0.43-0.193,0.809-0.359,1.185-0.533
		c2.787-1.294,5.588-2.555,8.533-3.453c3.339-1.017,6.747-1.334,10.222-0.973c2.701,0.28,5.332,0.008,7.817-1.157
		c2.68-1.257,4.62-3.287,5.985-5.883c0.381-0.727,0.672-1.501,1.004-2.255c0.069-0.16,0.133-0.323,0.223-0.544
		c4.539,4.539,20.974,20.974,25.49,25.49c0.838-0.839,1.646-1.648,2.49-2.491c-0.147-0.148-0.283-0.283-0.418-0.417
		c-10.926-10.927-33.801-33.792-44.712-44.734c-0.776-0.779-1.561-1.113-2.602-0.679C489.064,79.726,488.874,79.917,488.683,80.108"
		/>
	<path fill="#D9D9D9" d="M1450.805,107.668c0.309,0.771,0.298,1.466-0.225,2.196c-0.24,0.335-0.191,0.893-0.23,1.353
		c-0.303,3.565,0.753,6.772,2.583,9.777c1.47,2.41,3.328,4.504,5.256,6.545c2.92,3.088,4.912,6.706,6.125,10.762
		c0.563,1.884,0.952,3.806,1.115,5.769c0.017,0.192,0.013,0.385,0.021,0.654c-0.429-0.193-0.809-0.359-1.185-0.533
		c-2.787-1.294-5.588-2.555-8.533-3.453c-3.339-1.017-6.746-1.334-10.222-0.973c-2.701,0.28-5.332,0.008-7.816-1.157
		c-2.681-1.257-4.621-3.287-5.985-5.883c-0.382-0.727-0.673-1.501-1.004-2.255c-0.071-0.16-0.133-0.323-0.223-0.544
		c-4.539,4.539-20.975,20.974-25.49,25.49c-0.838-0.839-1.647-1.648-2.491-2.491l0.418-0.417
		c10.926-10.927,33.801-33.792,44.712-44.734c0.777-0.779,1.562-1.113,2.602-0.679
		C1450.423,107.286,1450.614,107.477,1450.805,107.668"/>
	<path fill="#D9D9D9" d="M1386.595,107.668c-0.309,0.771-0.298,1.466,0.225,2.196c0.24,0.335,0.191,0.893,0.23,1.353
		c0.303,3.565-0.753,6.772-2.584,9.777c-1.469,2.41-3.327,4.504-5.257,6.545c-2.918,3.088-4.911,6.706-6.124,10.762
		c-0.563,1.884-0.951,3.806-1.115,5.769c-0.016,0.192-0.012,0.385-0.02,0.654c0.429-0.193,0.809-0.359,1.184-0.533
		c2.787-1.294,5.589-2.555,8.533-3.453c3.34-1.017,6.747-1.334,10.223-0.973c2.701,0.28,5.332,0.008,7.816-1.157
		c2.681-1.257,4.621-3.287,5.985-5.883c0.382-0.727,0.673-1.501,1.004-2.255c0.07-0.16,0.133-0.323,0.223-0.544
		c4.539,4.539,20.974,20.974,25.49,25.49c0.838-0.839,1.647-1.648,2.49-2.491l-0.417-0.417
		c-10.926-10.927-33.801-33.792-44.712-44.734c-0.777-0.779-1.563-1.113-2.603-0.679
		C1386.977,107.286,1386.785,107.477,1386.595,107.668"/>
	<path fill="#D9D9D9" d="M227.614,0.765c0.309,0.771,0.297,1.466-0.225,2.196c-0.24,0.335-0.191,0.893-0.23,1.353
		c-0.303,3.565,0.752,6.772,2.584,9.777c1.469,2.41,3.328,4.504,5.256,6.545c2.919,3.088,4.912,6.706,6.123,10.762
		c0.564,1.884,0.953,3.806,1.117,5.769c0.016,0.192,0.012,0.385,0.02,0.654c-0.43-0.193-0.809-0.359-1.184-0.533
		c-2.787-1.294-5.588-2.555-8.533-3.453c-3.34-1.017-6.747-1.334-10.223-0.973c-2.701,0.28-5.332,0.008-7.816-1.157
		c-2.68-1.257-4.621-3.287-5.985-5.883c-0.382-0.727-0.673-1.501-1.004-2.255c-0.069-0.16-0.133-0.323-0.223-0.544
		c-4.539,4.539-20.974,20.974-25.49,25.49c-0.838-0.839-1.647-1.648-2.491-2.491c0.148-0.148,0.283-0.283,0.418-0.417
		c10.926-10.927,33.801-33.792,44.713-44.734c0.776-0.779,1.561-1.113,2.602-0.679C227.233,0.383,227.424,0.574,227.614,0.765"/>
	<path fill="#D9D9D9" d="M163.404,0.765c-0.308,0.771-0.298,1.466,0.225,2.196c0.24,0.335,0.191,0.893,0.229,1.353
		c0.304,3.565-0.752,6.772-2.582,9.777c-1.469,2.41-3.328,4.504-5.256,6.545c-2.92,3.088-4.912,6.706-6.125,10.762
		c-0.563,1.884-0.953,3.806-1.115,5.769c-0.016,0.192-0.012,0.385-0.02,0.654c0.428-0.193,0.807-0.359,1.184-0.533
		c2.787-1.294,5.588-2.555,8.533-3.453c3.338-1.017,6.746-1.334,10.222-0.973c2.7,0.28,5.332,0.008,7.817-1.157
		c2.68-1.257,4.621-3.287,5.984-5.883c0.383-0.727,0.673-1.501,1.004-2.255c0.07-0.16,0.133-0.323,0.223-0.544
		c4.539,4.539,20.975,20.974,25.49,25.49c0.838-0.839,1.647-1.648,2.491-2.491c-0.147-0.148-0.282-0.283-0.418-0.417
		c-10.926-10.927-33.801-33.792-44.712-44.734c-0.777-0.779-1.561-1.113-2.602-0.679C163.786,0.383,163.595,0.574,163.404,0.765"/>
	<path fill="#D9D9D9" d="M390.785,117.395c0.505,1.263,0.487,2.4-0.369,3.596c-0.392,0.55-0.312,1.463-0.376,2.216
		c-0.496,5.838,1.232,11.09,4.23,16.011c2.405,3.947,5.45,7.377,8.607,10.718c4.779,5.058,8.043,10.983,10.029,17.625
		c0.922,3.085,1.56,6.232,1.826,9.447c0.026,0.314,0.021,0.63,0.033,1.071c-0.701-0.315-1.324-0.587-1.939-0.873
		c-4.563-2.12-9.15-4.184-13.975-5.654c-5.467-1.667-11.049-2.184-16.738-1.594c-4.424,0.459-8.732,0.014-12.803-1.896
		c-4.389-2.058-7.566-5.383-9.801-9.634c-0.625-1.19-1.102-2.459-1.644-3.692c-0.115-0.262-0.218-0.53-0.365-0.892
		c-7.433,7.433-34.347,34.347-41.743,41.743c-1.373-1.373-2.697-2.698-4.078-4.079c0.241-0.242,0.463-0.463,0.684-0.683
		c17.893-17.894,55.354-55.338,73.221-73.257c1.273-1.277,2.559-1.823,4.262-1.112C390.159,116.77,390.472,117.082,390.785,117.395"
		/>
	<path fill="#D9D9D9" d="M285.632,117.395c-0.505,1.263-0.487,2.4,0.369,3.596c0.392,0.55,0.313,1.463,0.376,2.216
		c0.495,5.838-1.232,11.09-4.229,16.011c-2.406,3.947-5.451,7.377-8.609,10.718c-4.778,5.058-8.043,10.983-10.028,17.625
		c-0.922,3.085-1.56,6.232-1.827,9.447c-0.025,0.314-0.02,0.63-0.031,1.071c0.7-0.315,1.322-0.587,1.938-0.873
		c4.563-2.12,9.149-4.184,13.974-5.654c5.467-1.667,11.049-2.184,16.739-1.594c4.423,0.459,8.731,0.014,12.802-1.896
		c4.389-2.058,7.567-5.383,9.801-9.634c0.625-1.19,1.103-2.459,1.645-3.692c0.115-0.262,0.217-0.53,0.365-0.892
		c7.433,7.433,34.347,34.347,41.742,41.743c1.373-1.373,2.699-2.698,4.08-4.079c-0.242-0.242-0.463-0.463-0.685-0.683
		c-17.894-17.894-55.354-55.338-73.222-73.257c-1.272-1.277-2.557-1.823-4.262-1.112
		C286.258,116.77,285.944,117.082,285.632,117.395"/>
	<path fill="#D9D9D9" d="M1262.368,123.798c0.505,1.263,0.487,2.4-0.369,3.596c-0.392,0.55-0.312,1.463-0.376,2.216
		c-0.496,5.838,1.232,11.09,4.23,16.011c2.405,3.947,5.45,7.377,8.607,10.718c4.779,5.058,8.043,10.983,10.029,17.625
		c0.922,3.085,1.56,6.232,1.827,9.447c0.026,0.314,0.02,0.63,0.031,1.071c-0.7-0.315-1.322-0.587-1.938-0.873
		c-4.563-2.12-9.15-4.184-13.974-5.654c-5.468-1.667-11.05-2.184-16.739-1.594c-4.423,0.459-8.732,0.014-12.802-1.895
		c-4.39-2.058-7.567-5.383-9.802-9.634c-0.625-1.189-1.102-2.459-1.644-3.692c-0.115-0.262-0.217-0.53-0.365-0.892
		c-7.433,7.433-34.347,34.347-41.743,41.743l-4.079-4.079c0.242-0.242,0.463-0.463,0.685-0.683
		c17.893-17.894,55.354-55.338,73.221-73.257c1.273-1.277,2.558-1.823,4.262-1.112L1262.368,123.798z"/>
	<path fill="#D9D9D9" d="M1157.215,123.798c-0.505,1.263-0.487,2.4,0.369,3.596c0.392,0.55,0.312,1.463,0.376,2.216
		c0.496,5.838-1.232,11.09-4.23,16.011c-2.405,3.947-5.45,7.377-8.607,10.718c-4.779,5.058-8.043,10.983-10.029,17.625
		c-0.922,3.085-1.56,6.232-1.827,9.447c-0.025,0.314-0.02,0.63-0.031,1.071c0.7-0.315,1.322-0.587,1.938-0.873
		c4.563-2.12,9.15-4.184,13.975-5.654c5.467-1.667,11.049-2.184,16.738-1.594c4.424,0.459,8.732,0.014,12.803-1.895
		c4.389-2.058,7.566-5.383,9.801-9.634c0.625-1.189,1.102-2.459,1.644-3.692c0.115-0.262,0.217-0.53,0.365-0.892
		c7.433,7.433,34.347,34.347,41.743,41.743l4.079-4.079c-0.242-0.242-0.463-0.463-0.685-0.683
		c-17.893-17.894-55.354-55.338-73.221-73.257c-1.273-1.277-2.558-1.823-4.262-1.112L1157.215,123.798z"/>
	<path fill="#D9D9D9" d="M153.704,86.315c0.602,1.503,0.579,2.857-0.439,4.281c-0.467,0.653-0.371,1.74-0.447,2.637
		c-0.59,6.949,1.466,13.2,5.035,19.057c2.862,4.698,6.487,8.78,10.246,12.758c5.688,6.019,9.572,13.072,11.937,20.978
		c1.098,3.671,1.856,7.418,2.175,11.244c0.031,0.373,0.023,0.75,0.038,1.275c-0.835-0.376-1.575-0.699-2.308-1.039
		c-5.432-2.523-10.892-4.98-16.633-6.73c-6.508-1.984-13.152-2.6-19.925-1.896c-5.264,0.546-10.394,0.016-15.237-2.256
		c-5.225-2.449-9.008-6.407-11.666-11.467c-0.744-1.416-1.312-2.926-1.957-4.395c-0.137-0.311-0.258-0.63-0.434-1.061
		c-8.847,8.847-40.882,40.882-49.686,49.685c-1.635-1.634-3.211-3.211-4.855-4.855c0.289-0.288,0.551-0.551,0.814-0.813
		c21.298-21.298,65.886-65.867,87.152-87.195c1.516-1.52,3.045-2.17,5.072-1.324C152.959,85.57,153.332,85.943,153.704,86.315"/>
	<path fill="#D9D9D9" d="M28.544,86.315c-0.602,1.503-0.579,2.857,0.439,4.281c0.467,0.653,0.371,1.74,0.447,2.637
		c0.59,6.949-1.466,13.2-5.035,19.057c-2.862,4.698-6.487,8.78-10.246,12.758c-5.688,6.019-9.572,13.072-11.937,20.978
		c-1.098,3.671-1.856,7.418-2.175,11.244c-0.031,0.373-0.023,0.75-0.038,1.275c0.835-0.376,1.575-0.699,2.308-1.039
		c5.432-2.523,10.892-4.98,16.633-6.73c6.508-1.984,13.152-2.6,19.925-1.896c5.264,0.546,10.394,0.016,15.237-2.256
		c5.225-2.449,9.008-6.407,11.666-11.467c0.744-1.416,1.312-2.926,1.957-4.395c0.137-0.311,0.258-0.63,0.434-1.061
		c8.847,8.847,40.882,40.882,49.686,49.685c1.635-1.634,3.211-3.211,4.855-4.855c-0.289-0.288-0.551-0.551-0.814-0.813
		C100.588,152.419,56,107.851,34.733,86.522c-1.516-1.52-3.045-2.17-5.072-1.324C29.289,85.57,28.916,85.943,28.544,86.315"/>
	<path fill="#D9D9D9" d="M1652.432,104.776c0.602,1.503,0.579,2.857-0.438,4.281c-0.467,0.653-0.372,1.74-0.448,2.637
		c-0.59,6.949,1.466,13.2,5.035,19.057c2.862,4.698,6.487,8.78,10.246,12.758c5.688,6.019,9.572,13.071,11.937,20.978
		c1.098,3.671,1.857,7.418,2.175,11.244c0.031,0.373,0.023,0.75,0.038,1.275c-0.835-0.376-1.574-0.699-2.308-1.04
		c-5.431-2.522-10.892-4.98-16.632-6.729c-6.508-1.984-13.152-2.6-19.926-1.897c-5.264,0.546-10.393,0.016-15.237-2.256
		c-5.225-2.449-9.007-6.407-11.665-11.467c-0.745-1.416-1.313-2.926-1.958-4.395c-0.136-0.311-0.258-0.63-0.434-1.061
		l-49.685,49.685c-1.635-1.634-3.212-3.211-4.855-4.855c0.288-0.288,0.551-0.551,0.813-0.813
		c21.298-21.298,65.886-65.867,87.153-87.195c1.515-1.52,3.044-2.17,5.071-1.324C1651.687,104.031,1652.06,104.404,1652.432,104.776
		"/>
	<path fill="#D9D9D9" d="M1527.272,104.776c-0.602,1.503-0.58,2.857,0.438,4.281c0.467,0.653,0.372,1.74,0.448,2.637
		c0.59,6.949-1.467,13.2-5.035,19.057c-2.863,4.698-6.488,8.78-10.246,12.758c-5.688,6.019-9.573,13.071-11.938,20.978
		c-1.098,3.671-1.856,7.418-2.175,11.244c-0.03,0.373-0.022,0.75-0.038,1.275c0.835-0.376,1.575-0.699,2.309-1.04
		c5.431-2.522,10.891-4.98,16.632-6.729c6.508-1.984,13.152-2.6,19.925-1.897c5.264,0.546,10.394,0.016,15.238-2.256
		c5.224-2.449,9.007-6.407,11.665-11.467c0.745-1.416,1.312-2.926,1.958-4.395c0.136-0.311,0.258-0.63,0.433-1.061l49.686,49.685
		c1.635-1.634,3.212-3.211,4.855-4.855c-0.289-0.288-0.551-0.551-0.813-0.813c-21.299-21.298-65.887-65.867-87.153-87.195
		c-1.515-1.52-3.044-2.17-5.072-1.324C1528.017,104.031,1527.644,104.404,1527.272,104.776"/>
</g>
</svg>
