<?xml version="1.0" encoding="utf-8"?>
<!-- Generator: Adobe Illustrator 16.0.0, SVG Export Plug-In . SVG Version: 6.00 Build 0)  -->
<!DOCTYPE svg PUBLIC "-//W3C//DTD SVG 1.1//EN" "http://www.w3.org/Graphics/SVG/1.1/DTD/svg11.dtd">
<svg version="1.1" id="Layer_1" xmlns="http://www.w3.org/2000/svg" xmlns:xlink="http://www.w3.org/1999/xlink" x="0px" y="0px"
	 width="1617.705px" height="228.311px" viewBox="0 0 1617.705 228.311" enable-background="new 0 0 1617.705 228.311"
	 xml:space="preserve">
<g>
	<path fill="#D9D9D9" d="M126.41,112.918c-0.434,1.202-0.867,2.404-1.3,3.606c-1.024,2.856-3.174,3.921-6.067,2.985
		c-1.205-0.39-2.4-0.816-3.703-1.261c-0.416,1.22-0.778,2.285-1.144,3.349c-1.119,3.257-3.087,4.265-6.351,3.257
		c-0.203-0.063-0.414-0.103-0.623-0.154c-0.953,2.172-1.824,4.335-2.836,6.429c-3.295,6.831-7.653,12.828-14.338,16.687
		c-3.021,1.743-6.354,2.942-9.547,4.385c-0.832,0.376-1.688,0.706-2.498,1.122c-1.744,0.892-2.359,2.554-1.496,4.327
		c0.783,1.606,1.643,3.188,2.608,4.69c5.788,9.003,6.949,18.744,4.707,29.034c-0.487,2.241-1.101,4.454-1.694,6.84
		c0.367,0.125,0.773,0.247,1.168,0.401c2.39,0.933,3.455,3.127,2.685,5.578c-0.405,1.289-0.867,2.558-1.368,4.025
		c1.195,0.409,2.342,0.743,3.441,1.194c0.798,0.327,1.632,0.694,2.272,1.247c1.091,0.94,1.575,2.265,1.222,3.668
		c-0.396,1.58-1.026,3.103-1.58,4.727C60.1,208.858,30.192,198.645,0,188.335c0.744-1.742,1.313-3.605,2.297-5.216
		c0.902-1.481,2.539-1.951,4.256-1.477c1.471,0.407,2.897,0.97,4.519,1.523c0.399-1.17,0.747-2.19,1.097-3.209
		c1.201-3.515,2.981-4.442,6.536-3.407c0.167,0.048,0.343,0.067,0.501,0.097c0.961-2.185,1.832-4.35,2.848-6.444
		c3.588-7.39,8.482-13.649,15.91-17.527c2.778-1.451,5.743-2.544,8.608-3.833c1.153-0.519,2.388-0.946,3.026-2.205
		c0.515-1.013,0.625-2.028,0.074-3.038c-1.363-2.502-2.766-4.983-4.134-7.483c-4.252-7.769-4.845-16.037-3.233-24.568
		c0.527-2.787,1.271-5.532,1.945-8.418c-0.357-0.122-0.771-0.244-1.17-0.402c-2.333-0.931-3.395-3.113-2.648-5.507
		c0.41-1.318,0.887-2.616,1.385-4.077c-1.205-0.411-2.303-0.782-3.396-1.161c-3.26-1.128-4.281-3.223-3.182-6.494
		c0.372-1.107,0.717-2.223,1.074-3.335C66.344,92.409,96.377,102.664,126.41,112.918 M75.414,195.872
		c0.143-0.418,0.29-0.748,0.368-1.094c0.603-2.668,1.338-5.317,1.757-8.016c0.975-6.265,0.196-12.312-2.81-17.964
		c-1.372-2.58-2.984-5.035-4.308-7.637c-2.912-5.722-0.725-11.815,5.127-14.434c2.133-0.954,4.328-1.77,6.496-2.649
		c3.457-1.402,6.537-3.361,9.207-6.001c3.273-3.238,5.577-7.098,7.469-11.237c0.66-1.441,1.218-2.93,1.828-4.412
		c-16.619-5.675-33.035-11.28-49.543-16.916c-0.135,0.395-0.281,0.725-0.36,1.071c-0.614,2.704-1.36,5.388-1.79,8.121
		c-0.973,6.18-0.282,12.171,2.654,17.776c1.338,2.557,2.906,4.993,4.227,7.559c2.697,5.243,1.191,10.888-3.863,13.865
		c-2.406,1.417-5.09,2.376-7.673,3.483c-3.429,1.47-6.515,3.428-9.149,6.092c-3.174,3.209-5.518,6.965-7.352,11.057
		c-0.646,1.445-1.216,2.926-1.818,4.387c2.992,1.022,5.776,1.972,8.648,2.953c2.43-7.44,7.893-11.968,14.434-15.505
		c1.959-1.059,3.865-2.225,5.729-3.445c1.82-1.191,3.451-2.667,4.311-4.701c2.637-6.238,2.836-12.532,0.172-18.84
		c-0.797-1.885-1.588-3.774-2.283-5.696c-0.393-1.084-0.526-2.239-0.029-3.379c8.085,2.76,16.098,5.496,24.141,8.243
		c-0.352,1.419-1.232,2.408-2.338,3.13c-1.709,1.119-3.479,2.153-5.271,3.135c-4.147,2.271-7.368,5.403-9.569,9.634
		c-1.974,3.794-2.616,7.639-1.062,11.709c1.095,2.867,2.252,5.711,3.341,8.58c1.764,4.649,2.635,9.416,1.696,14.383
		c-0.242,1.28-0.576,2.542-0.877,3.848C69.731,193.93,72.489,194.873,75.414,195.872"/>
	<path fill="#D9D9D9" d="M1602.756,102.144c0.15,1.269,0.3,2.538,0.453,3.806c0.361,3.013-1.082,4.927-4.089,5.386
		c-1.253,0.191-2.512,0.346-3.876,0.531c0.174,1.278,0.327,2.392,0.478,3.507c0.458,3.413-0.852,5.196-4.22,5.755
		c-0.211,0.035-0.416,0.094-0.627,0.142c0.12,2.369,0.311,4.693,0.346,7.018c0.111,7.584-1.1,14.897-5.348,21.342
		c-1.92,2.911-4.364,5.476-6.573,8.196c-0.575,0.709-1.192,1.387-1.731,2.122c-1.159,1.578-0.965,3.34,0.602,4.538
		c1.42,1.086,2.896,2.115,4.433,3.026c9.206,5.457,14.606,13.647,17.211,23.851c0.567,2.223,1.011,4.477,1.548,6.874
		c0.384-0.052,0.803-0.125,1.223-0.164c2.556-0.235,4.491,1.249,4.9,3.787c0.214,1.332,0.37,2.674,0.579,4.211
		c1.252-0.17,2.427-0.384,3.611-0.473c0.859-0.065,1.77-0.11,2.592,0.097c1.396,0.354,2.422,1.318,2.735,2.732
		c0.352,1.591,0.471,3.234,0.703,4.935c-31.274,4.257-62.589,8.521-94.2,12.824c-0.114-1.892-0.44-3.812-0.283-5.692
		c0.145-1.729,1.396-2.883,3.145-3.227c1.497-0.295,3.025-0.432,4.723-0.662c-0.167-1.225-0.313-2.293-0.458-3.36
		c-0.499-3.682,0.678-5.307,4.319-5.974c0.171-0.032,0.337-0.094,0.491-0.139c-0.119-2.383-0.31-4.709-0.339-7.037
		c-0.103-8.214,1.471-16.001,6.375-22.795c1.835-2.541,3.997-4.846,5.981-7.282c0.798-0.981,1.71-1.915,1.718-3.327
		c0.007-1.136-0.35-2.093-1.293-2.75c-2.34-1.627-4.705-3.217-7.048-4.839c-7.281-5.043-11.515-12.17-13.894-20.519
		c-0.776-2.728-1.341-5.515-2.032-8.397c-0.374,0.051-0.798,0.127-1.225,0.163c-2.503,0.214-4.43-1.262-4.835-3.737
		c-0.222-1.362-0.379-2.735-0.587-4.265c-1.262,0.172-2.41,0.332-3.559,0.484c-3.419,0.45-5.27-0.966-5.752-4.383
		c-0.162-1.156-0.354-2.308-0.533-3.463C1539.864,110.706,1571.311,106.425,1602.756,102.144 M1594.309,199.151
		c-0.061-0.438-0.076-0.798-0.161-1.143c-0.656-2.655-1.185-5.354-2.018-7.955c-1.935-6.037-5.339-11.095-10.559-14.803
		c-2.382-1.692-4.922-3.165-7.271-4.899c-5.165-3.813-5.939-10.239-1.88-15.201c1.479-1.809,3.078-3.521,4.623-5.278
		c2.463-2.803,4.34-5.933,5.544-9.488c1.477-4.362,1.808-8.845,1.646-13.393c-0.056-1.585-0.224-3.165-0.343-4.763
		c-17.4,2.368-34.588,4.708-51.872,7.061c0.056,0.414,0.073,0.775,0.158,1.12c0.661,2.692,1.196,5.426,2.035,8.063
		c1.898,5.961,5.198,11.008,10.334,14.705c2.342,1.686,4.835,3.162,7.164,4.865c4.761,3.479,5.942,9.201,2.756,14.126
		c-1.519,2.345-3.487,4.404-5.3,6.551c-2.408,2.85-4.291,5.982-5.454,9.544c-1.401,4.292-1.813,8.7-1.62,13.179
		c0.067,1.582,0.222,3.16,0.337,4.735c3.134-0.426,6.049-0.822,9.056-1.231c-1.159-7.741,1.697-14.235,5.962-20.328
		c1.277-1.823,2.459-3.72,3.579-5.644c1.094-1.881,1.891-3.931,1.749-6.135c-0.436-6.758-3.078-12.474-8.285-16.922
		c-1.555-1.328-3.108-2.663-4.592-4.07c-0.835-0.794-1.472-1.766-1.539-3.008c8.465-1.153,16.855-2.295,25.276-3.441
		c0.322,1.426-0.024,2.705-0.688,3.846c-1.027,1.765-2.147,3.482-3.311,5.163c-2.691,3.888-4.167,8.131-4.241,12.9
		c-0.065,4.276,1.082,8.001,4.294,10.944c2.263,2.074,4.571,4.098,6.83,6.176c3.659,3.367,6.572,7.239,7.958,12.1
		c0.356,1.252,0.623,2.531,0.938,3.834C1588.357,199.961,1591.245,199.568,1594.309,199.151"/>
	<path fill="#D9D9D9" d="M327.4,109.377c0.197,1.024,0.393,2.048,0.592,3.072c0.471,2.431-0.593,4.074-3.013,4.624
		c-1.009,0.229-2.024,0.428-3.125,0.659c0.218,1.03,0.407,1.928,0.595,2.827c0.572,2.752-0.389,4.28-3.099,4.933
		c-0.169,0.04-0.333,0.101-0.502,0.152c0.237,1.922,0.528,3.802,0.692,5.693c0.535,6.167-0.022,12.192-3.104,17.688
		c-1.393,2.482-3.232,4.713-4.871,7.057c-0.427,0.611-0.889,1.199-1.285,1.829c-0.851,1.353-0.589,2.776,0.756,3.659
		c1.22,0.801,2.481,1.553,3.785,2.204c7.815,3.904,12.692,10.254,15.409,18.409c0.593,1.776,1.086,3.584,1.663,5.506
		c0.311-0.065,0.646-0.149,0.986-0.205c2.066-0.342,3.729,0.753,4.211,2.795c0.253,1.072,0.458,2.155,0.718,3.395
		c1.009-0.212,1.953-0.455,2.912-0.597c0.696-0.103,1.435-0.194,2.116-0.073c1.156,0.205,2.049,0.932,2.386,2.064
		c0.381,1.274,0.573,2.605,0.862,3.976c-25.211,5.298-50.453,10.603-75.938,15.959c-0.204-1.534-0.581-3.078-0.563-4.618
		c0.016-1.416,0.968-2.428,2.371-2.811c1.201-0.328,2.437-0.528,3.805-0.815c-0.208-0.988-0.389-1.849-0.569-2.709
		c-0.622-2.968,0.24-4.36,3.166-5.117c0.138-0.034,0.269-0.095,0.392-0.14c-0.236-1.934-0.527-3.816-0.688-5.709
		c-0.564-6.682,0.26-13.114,3.854-18.932c1.346-2.177,2.971-4.18,4.443-6.279c0.592-0.845,1.28-1.659,1.204-2.809
		c-0.062-0.925-0.407-1.684-1.214-2.163c-2-1.187-4.02-2.343-6.021-3.527c-6.223-3.678-10.086-9.232-12.513-15.89
		c-0.792-2.175-1.415-4.412-2.146-6.717c-0.301,0.063-0.643,0.15-0.988,0.205c-2.025,0.32-3.68-0.769-4.155-2.76
		c-0.261-1.096-0.468-2.204-0.728-3.437c-1.018,0.213-1.942,0.411-2.868,0.602c-2.757,0.567-4.347-0.478-4.938-3.231
		c-0.201-0.932-0.426-1.859-0.639-2.788C276.703,120.031,302.052,114.704,327.4,109.377 M326.207,188.845
		c-0.074-0.353-0.109-0.646-0.198-0.92c-0.689-2.124-1.278-4.29-2.109-6.358c-1.928-4.802-4.997-8.72-9.462-11.432
		c-2.039-1.239-4.193-2.289-6.207-3.563c-4.429-2.801-5.436-7.988-2.421-12.265c1.099-1.56,2.299-3.047,3.454-4.568
		c1.841-2.426,3.186-5.084,3.957-8.049c0.947-3.637,0.954-7.307,0.557-11c-0.139-1.286-0.367-2.563-0.558-3.857
		c-14.028,2.948-27.884,5.859-41.815,8.787c0.069,0.334,0.104,0.627,0.193,0.903c0.695,2.153,1.292,4.347,2.13,6.444
		c1.894,4.742,4.877,8.658,9.274,11.367c2.005,1.235,4.121,2.291,6.117,3.54c4.078,2.554,5.377,7.143,3.07,11.339
		c-1.098,1.998-2.58,3.79-3.931,5.644c-1.794,2.461-3.144,5.121-3.882,8.089c-0.889,3.576-0.965,7.188-0.547,10.824
		c0.148,1.284,0.367,2.561,0.554,3.836c2.526-0.531,4.875-1.024,7.3-1.533c-1.396-6.234,0.547-11.688,3.662-16.898
		c0.934-1.559,1.783-3.172,2.583-4.805c0.78-1.595,1.31-3.311,1.065-5.097c-0.752-5.476-3.237-9.974-7.736-13.29
		c-1.344-0.99-2.688-1.986-3.977-3.045c-0.728-0.597-1.303-1.351-1.43-2.359c6.824-1.434,13.587-2.855,20.376-4.282
		c0.345,1.143,0.14,2.204-0.335,3.172c-0.732,1.497-1.544,2.961-2.393,4.397c-1.963,3.323-2.916,6.864-2.696,10.751
		c0.196,3.484,1.349,6.45,4.137,8.658c1.964,1.555,3.961,3.068,5.921,4.627c3.176,2.527,5.775,5.508,7.188,9.385
		c0.364,0.998,0.655,2.023,0.989,3.065C321.41,189.853,323.738,189.364,326.207,188.845"/>
	<path fill="#D9D9D9" d="M1189.628,109.774c0.521,0.903,1.041,1.807,1.563,2.71c1.24,2.144,0.772,4.044-1.335,5.354
		c-0.879,0.547-1.773,1.067-2.738,1.645c0.541,0.902,1.016,1.689,1.485,2.477c1.441,2.414,1.032,4.172-1.315,5.675
		c-0.146,0.093-0.281,0.204-0.425,0.308c0.853,1.738,1.742,3.42,2.516,5.154c2.521,5.653,3.964,11.53,2.848,17.73
		c-0.504,2.801-1.514,5.512-2.297,8.262c-0.204,0.717-0.448,1.424-0.617,2.149c-0.362,1.556,0.351,2.816,1.911,3.211
		c1.413,0.358,2.852,0.656,4.298,0.846c8.661,1.134,15.346,5.543,20.579,12.361c1.139,1.485,2.197,3.033,3.371,4.66
		c0.271-0.163,0.562-0.352,0.865-0.516c1.841-0.998,3.771-0.507,4.893,1.266c0.589,0.93,1.137,1.887,1.788,2.973
		c0.885-0.53,1.697-1.068,2.557-1.516c0.625-0.325,1.293-0.651,1.977-0.76c1.161-0.184,2.241,0.211,2.93,1.17
		c0.776,1.081,1.394,2.276,2.114,3.478c-22.096,13.246-44.217,26.51-66.551,39.9c-0.694-1.383-1.556-2.719-2.042-4.18
		c-0.447-1.343,0.122-2.611,1.321-3.432c1.029-0.702,2.131-1.295,3.33-2.014c-0.519-0.865-0.971-1.621-1.423-2.375
		c-1.558-2.601-1.198-4.199,1.32-5.869c0.119-0.08,0.223-0.18,0.325-0.262c-0.856-1.751-1.747-3.434-2.518-5.171
		c-2.717-6.13-4.04-12.478-2.545-19.151c0.561-2.497,1.441-4.921,2.147-7.387c0.284-0.992,0.667-1.986,0.22-3.048
		c-0.361-0.854-0.936-1.458-1.855-1.647c-2.277-0.469-4.563-0.901-6.843-1.366c-7.083-1.442-12.55-5.428-17.019-10.928
		c-1.459-1.796-2.779-3.707-4.224-5.647c-0.265,0.159-0.558,0.352-0.866,0.517c-1.811,0.965-3.729,0.477-4.828-1.25
		c-0.605-0.95-1.164-1.93-1.813-3.011c-0.892,0.535-1.701,1.024-2.514,1.506c-2.42,1.438-4.264,0.97-5.725-1.438
		c-0.493-0.815-1.009-1.618-1.514-2.427C1145.196,136.414,1167.412,123.093,1189.628,109.774 M1214.473,185.268
		c-0.186-0.309-0.314-0.575-0.488-0.805c-1.346-1.782-2.609-3.636-4.07-5.319c-3.393-3.908-7.572-6.609-12.68-7.712
		c-2.331-0.504-4.711-0.793-7.031-1.339c-5.1-1.199-7.746-5.773-6.296-10.8c0.529-1.833,1.178-3.631,1.771-5.445
		c0.947-2.895,1.349-5.847,1.108-8.901c-0.293-3.747-1.485-7.217-3.068-10.578c-0.551-1.17-1.186-2.302-1.788-3.463
		c-12.293,7.371-24.437,14.651-36.647,21.972c0.176,0.292,0.305,0.558,0.479,0.789c1.362,1.808,2.642,3.687,4.119,5.395
		c3.341,3.862,7.438,6.588,12.479,7.711c2.299,0.512,4.645,0.818,6.939,1.347c4.689,1.08,7.416,4.993,6.607,9.712
		c-0.385,2.248-1.2,4.425-1.87,6.619c-0.891,2.912-1.297,5.867-1.023,8.912c0.328,3.671,1.435,7.109,3.02,10.408
		c0.56,1.166,1.184,2.301,1.776,3.445c2.214-1.327,4.273-2.563,6.398-3.835c-3.358-5.435-3.304-11.225-2.063-17.168
		c0.372-1.778,0.65-3.581,0.871-5.384c0.216-1.763,0.155-3.558-0.66-5.165c-2.499-4.93-6.319-8.37-11.655-10.033
		c-1.594-0.496-3.188-0.998-4.753-1.578c-0.882-0.326-1.673-0.851-2.122-1.761c5.981-3.586,11.908-7.14,17.857-10.707
		c0.7,0.967,0.852,2.037,0.721,3.106c-0.204,1.655-0.492,3.304-0.824,4.938c-0.769,3.783-0.513,7.441,0.966,11.042
		c1.325,3.229,3.384,5.655,6.738,6.83c2.365,0.829,4.747,1.605,7.109,2.438c3.828,1.35,7.258,3.318,9.86,6.52
		c0.671,0.825,1.28,1.699,1.937,2.574C1210.269,187.79,1212.309,186.565,1214.473,185.268"/>
	<path fill="#D9D9D9" d="M200.281,3.187c0.041,0.809,0.082,1.618,0.125,2.426c0.102,1.922-0.893,3.071-2.813,3.235
		c-0.802,0.068-1.604,0.112-2.476,0.172c0.056,0.815,0.106,1.526,0.153,2.238c0.146,2.178-0.758,3.251-2.912,3.462
		c-0.135,0.013-0.268,0.042-0.402,0.063c-0.023,1.504-0.002,2.982-0.079,4.454c-0.25,4.802-1.325,9.377-4.284,13.273
		c-1.338,1.761-2.992,3.28-4.505,4.907c-0.394,0.424-0.813,0.827-1.185,1.269c-0.801,0.949-0.751,2.072,0.189,2.896
		c0.851,0.747,1.741,1.46,2.674,2.101c5.594,3.842,8.664,9.25,9.879,15.815c0.265,1.43,0.451,2.874,0.688,4.414
		c0.245-0.017,0.513-0.045,0.781-0.052c1.626-0.041,2.788,0.98,2.938,2.602c0.08,0.852,0.121,1.707,0.188,2.689
		c0.799-0.055,1.551-0.141,2.304-0.147c0.547-0.005,1.124,0.005,1.635,0.171c0.869,0.282,1.478,0.937,1.615,1.844
		c0.155,1.021,0.161,2.066,0.236,3.151c-19.962,1.37-39.95,2.743-60.128,4.128c0.008-1.202-0.117-2.43,0.062-3.612
		c0.164-1.088,1.006-1.765,2.125-1.909c0.961-0.123,1.932-0.144,3.016-0.219c-0.055-0.782-0.102-1.463-0.147-2.145
		c-0.159-2.349,0.653-3.328,2.985-3.596c0.109-0.012,0.217-0.045,0.316-0.066c0.025-1.513,0.002-2.992,0.082-4.465
		c0.283-5.201,1.608-10.061,4.998-14.15c1.268-1.53,2.732-2.897,4.09-4.354c0.547-0.586,1.164-1.139,1.229-2.031
		c0.052-0.719-0.133-1.34-0.702-1.795c-1.411-1.128-2.84-2.233-4.253-3.359c-4.393-3.498-6.77-8.184-7.92-13.567
		c-0.377-1.758-0.615-3.545-0.93-5.397c-0.239,0.016-0.512,0.047-0.783,0.052c-1.592,0.029-2.748-0.986-2.9-2.569
		c-0.083-0.871-0.124-1.746-0.191-2.722c-0.805,0.055-1.537,0.108-2.271,0.155c-2.182,0.141-3.292-0.834-3.452-3.015
		c-0.055-0.739-0.128-1.476-0.191-2.213C160.137,5.943,180.209,4.565,200.281,3.187 M190.835,64.191
		c-0.019-0.279-0.014-0.508-0.053-0.729c-0.304-1.708-0.524-3.437-0.94-5.117c-0.969-3.901-2.908-7.245-6.053-9.81
		c-1.436-1.171-2.98-2.211-4.393-3.407c-3.106-2.629-3.323-6.728-0.547-9.695c1.014-1.081,2.097-2.097,3.147-3.143
		c1.677-1.668,2.996-3.569,3.908-5.767c1.118-2.697,1.518-5.519,1.608-8.402c0.031-1.005-0.008-2.011-0.015-3.028
		c-11.106,0.763-22.078,1.516-33.11,2.272c0.019,0.265,0.014,0.494,0.053,0.716c0.304,1.73,0.527,3.482,0.945,5.186
		c0.949,3.85,2.823,7.183,5.916,9.739c1.409,1.165,2.924,2.204,4.325,3.379c2.864,2.403,3.37,6.072,1.146,9.053
		c-1.06,1.419-2.391,2.638-3.629,3.919c-1.645,1.701-2.967,3.603-3.854,5.807c-1.068,2.655-1.516,5.425-1.583,8.267
		c-0.024,1.004,0.009,2.009,0.015,3.011c2-0.138,3.859-0.265,5.779-0.397c-0.406-4.945,1.676-8.932,4.631-12.606
		c0.885-1.099,1.713-2.249,2.502-3.419c0.772-1.143,1.363-2.407,1.366-3.807c0.011-4.293-1.419-8.02-4.524-11.054
		c-0.928-0.906-1.854-1.816-2.732-2.769c-0.495-0.537-0.857-1.179-0.848-1.967c5.404-0.371,10.76-0.739,16.135-1.108
		c0.143,0.916-0.129,1.71-0.598,2.403c-0.725,1.074-1.506,2.113-2.313,3.127c-1.866,2.345-2.98,4.967-3.229,7.979
		c-0.222,2.702,0.347,5.107,2.254,7.105c1.344,1.407,2.718,2.785,4.059,4.195c2.172,2.284,3.852,4.856,4.523,7.99
		c0.172,0.807,0.285,1.627,0.431,2.465C187.037,64.452,188.88,64.325,190.835,64.191"/>
	<path fill="#D9D9D9" d="M545.313,136.085c-0.249,0.771-0.499,1.541-0.747,2.313c-0.589,1.831-1.928,2.551-3.781,2.019
		c-0.771-0.221-1.537-0.466-2.373-0.72c-0.237,0.782-0.444,1.464-0.653,2.146c-0.64,2.087-1.866,2.767-3.955,2.198
		c-0.13-0.036-0.265-0.057-0.397-0.084c-0.559,1.396-1.064,2.785-1.66,4.133c-1.944,4.398-4.578,8.29-8.732,10.876
		c-1.877,1.169-3.964,1.999-5.956,2.981c-0.521,0.256-1.054,0.483-1.56,0.764c-1.086,0.602-1.44,1.668-0.855,2.773
		c0.529,1.001,1.107,1.985,1.752,2.917c3.857,5.581,4.8,11.729,3.598,18.296c-0.263,1.43-0.604,2.845-0.93,4.369
		c0.234,0.072,0.495,0.141,0.748,0.23c1.534,0.54,2.256,1.908,1.82,3.478c-0.23,0.824-0.496,1.638-0.782,2.579
		c0.767,0.233,1.5,0.421,2.205,0.684c0.513,0.191,1.049,0.405,1.467,0.742c0.711,0.573,1.046,1.401,0.853,2.298
		c-0.219,1.01-0.586,1.988-0.902,3.029c-19.141-5.83-38.307-11.667-57.654-17.56c0.436-1.12,0.756-2.312,1.344-3.353
		c0.541-0.958,1.568-1.291,2.666-1.026c0.94,0.226,1.856,0.553,2.896,0.869c0.228-0.75,0.427-1.404,0.626-2.057
		c0.688-2.253,1.796-2.877,4.07-2.297c0.106,0.027,0.219,0.035,0.32,0.051c0.562-1.405,1.067-2.795,1.668-4.143
		c2.116-4.759,5.084-8.828,9.709-11.442c1.729-0.978,3.584-1.733,5.373-2.611c0.719-0.353,1.492-0.65,1.87-1.461
		c0.306-0.653,0.353-1.299-0.017-1.927c-0.916-1.556-1.858-3.098-2.777-4.653c-2.859-4.833-3.41-10.059-2.568-15.499
		c0.274-1.776,0.688-3.531,1.054-5.374c-0.229-0.07-0.494-0.138-0.75-0.229c-1.498-0.541-2.218-1.901-1.794-3.434
		c0.232-0.843,0.506-1.675,0.791-2.612c-0.773-0.235-1.477-0.446-2.178-0.663c-2.088-0.646-2.781-1.952-2.152-4.048
		c0.212-0.709,0.406-1.424,0.609-2.136C506.822,124.362,526.067,130.224,545.313,136.085 M514.759,189.724
		c0.082-0.268,0.168-0.48,0.21-0.7c0.326-1.704,0.734-3.398,0.943-5.117c0.484-3.989-0.137-7.805-2.16-11.322
		c-0.924-1.606-1.998-3.127-2.892-4.748c-1.966-3.563-0.709-7.47,2.942-9.253c1.332-0.65,2.706-1.214,4.061-1.816
		c2.161-0.962,4.071-2.269,5.706-3.997c2.005-2.122,3.384-4.616,4.495-7.279c0.389-0.927,0.709-1.882,1.064-2.834
		c-10.65-3.243-21.17-6.447-31.748-9.669c-0.077,0.253-0.163,0.465-0.206,0.686c-0.332,1.726-0.748,3.443-0.962,5.184
		c-0.485,3.936,0.078,7.717,2.058,11.207c0.901,1.591,1.947,3.101,2.838,4.699c1.82,3.265,0.986,6.873-2.153,8.866
		c-1.496,0.949-3.176,1.614-4.789,2.37c-2.142,1.004-4.055,2.309-5.668,4.053c-1.943,2.101-3.348,4.53-4.424,7.162
		c-0.38,0.929-0.707,1.879-1.06,2.817c1.918,0.585,3.702,1.128,5.543,1.689c1.382-4.766,4.747-7.75,8.817-10.13
		c1.218-0.712,2.401-1.492,3.556-2.304c1.128-0.793,2.131-1.763,2.632-3.07c1.539-4.008,1.531-8-0.29-11.941
		c-0.545-1.177-1.086-2.357-1.567-3.56c-0.271-0.679-0.381-1.408-0.09-2.141c5.182,1.578,10.315,3.142,15.471,4.712
		c-0.193,0.907-0.73,1.552-1.416,2.033c-1.059,0.745-2.158,1.438-3.273,2.098c-2.58,1.527-4.554,3.58-5.859,6.307
		c-1.17,2.445-1.494,4.895-0.424,7.441c0.754,1.794,1.547,3.571,2.297,5.366c1.217,2.908,1.869,5.91,1.381,9.077
		c-0.127,0.816-0.312,1.622-0.475,2.457C511.117,188.615,512.885,189.153,514.759,189.724"/>
	<path fill="#D9D9D9" d="M1416.625,115.657c-0.249,0.771-0.499,1.541-0.746,2.312c-0.59,1.832-1.929,2.552-3.781,2.02
		c-0.772-0.221-1.538-0.466-2.373-0.72c-0.238,0.782-0.445,1.464-0.654,2.146c-0.64,2.087-1.866,2.768-3.955,2.198
		c-0.13-0.036-0.264-0.057-0.397-0.084c-0.559,1.396-1.064,2.784-1.66,4.133c-1.944,4.398-4.578,8.29-8.732,10.876
		c-1.877,1.169-3.964,1.999-5.957,2.981c-0.519,0.256-1.053,0.483-1.559,0.764c-1.085,0.602-1.44,1.668-0.855,2.773
		c0.53,1.001,1.108,1.985,1.752,2.917c3.857,5.581,4.8,11.729,3.598,18.295c-0.263,1.431-0.604,2.846-0.93,4.37
		c0.235,0.072,0.495,0.14,0.748,0.23c1.534,0.54,2.257,1.908,1.82,3.478c-0.229,0.824-0.496,1.638-0.782,2.579
		c0.767,0.234,1.499,0.421,2.205,0.684c0.514,0.19,1.049,0.405,1.467,0.742c0.711,0.573,1.047,1.401,0.853,2.298
		c-0.218,1.01-0.585,1.988-0.902,3.029c-19.141-5.83-38.306-11.667-57.653-17.56c0.435-1.12,0.755-2.312,1.344-3.354
		c0.541-0.957,1.567-1.29,2.666-1.025c0.939,0.226,1.855,0.552,2.895,0.869c0.229-0.75,0.427-1.404,0.626-2.057
		c0.688-2.253,1.796-2.877,4.07-2.297c0.106,0.027,0.219,0.035,0.319,0.051c0.563-1.405,1.068-2.795,1.669-4.143
		c2.116-4.759,5.085-8.828,9.709-11.442c1.729-0.978,3.585-1.733,5.372-2.611c0.721-0.353,1.493-0.65,1.871-1.461
		c0.306-0.653,0.354-1.299-0.017-1.927c-0.916-1.556-1.858-3.098-2.777-4.653c-2.858-4.833-3.409-10.059-2.568-15.499
		c0.274-1.776,0.688-3.531,1.054-5.374c-0.229-0.07-0.494-0.138-0.75-0.231c-1.498-0.54-2.217-1.9-1.794-3.433
		c0.231-0.843,0.506-1.675,0.791-2.612c-0.773-0.235-1.476-0.446-2.178-0.663c-2.089-0.646-2.78-1.952-2.152-4.048
		c0.212-0.709,0.407-1.424,0.609-2.136C1378.134,103.934,1397.379,109.796,1416.625,115.657 M1386.07,169.296
		c0.082-0.268,0.168-0.48,0.21-0.7c0.326-1.704,0.735-3.398,0.944-5.117c0.483-3.99-0.137-7.805-2.161-11.322
		c-0.924-1.606-1.997-3.127-2.892-4.748c-1.966-3.563-0.709-7.471,2.942-9.253c1.332-0.651,2.706-1.214,4.06-1.816
		c2.162-0.962,4.072-2.269,5.707-3.997c2.006-2.122,3.385-4.616,4.495-7.279c0.389-0.927,0.709-1.882,1.064-2.834
		c-10.65-3.244-21.169-6.447-31.748-9.669c-0.077,0.253-0.163,0.465-0.206,0.686c-0.332,1.726-0.748,3.443-0.962,5.184
		c-0.485,3.936,0.079,7.717,2.057,11.207c0.903,1.591,1.948,3.101,2.839,4.699c1.82,3.265,0.986,6.873-2.153,8.866
		c-1.495,0.949-3.175,1.613-4.788,2.37c-2.143,1.004-4.055,2.309-5.668,4.053c-1.944,2.101-3.35,4.53-4.424,7.162
		c-0.381,0.929-0.708,1.879-1.061,2.817c1.918,0.585,3.702,1.128,5.543,1.689c1.382-4.766,4.747-7.75,8.817-10.13
		c1.218-0.712,2.401-1.492,3.556-2.304c1.128-0.793,2.13-1.763,2.632-3.07c1.539-4.008,1.531-8-0.29-11.94
		c-0.545-1.177-1.086-2.357-1.566-3.561c-0.272-0.679-0.381-1.408-0.09-2.141c5.181,1.578,10.314,3.142,15.47,4.712
		c-0.193,0.907-0.73,1.552-1.415,2.033c-1.059,0.745-2.159,1.438-3.274,2.098c-2.579,1.527-4.554,3.58-5.858,6.307
		c-1.17,2.445-1.495,4.895-0.426,7.441c0.755,1.793,1.549,3.571,2.299,5.366c1.217,2.908,1.869,5.91,1.38,9.077
		c-0.126,0.815-0.312,1.622-0.474,2.456C1382.429,168.187,1384.195,168.725,1386.07,169.296"/>
	<path fill="#D9D9D9" d="M385.16,8.529c0.445,0.439,0.89,0.88,1.336,1.319c1.058,1.043,1.09,2.216,0.08,3.309
		c-0.423,0.456-0.857,0.9-1.322,1.387c0.455,0.436,0.854,0.816,1.252,1.197c1.218,1.166,1.262,2.248,0.143,3.491
		c-0.07,0.077-0.131,0.163-0.197,0.246c0.771,0.869,1.553,1.701,2.275,2.581c2.357,2.868,4.127,6.038,4.468,9.802
		c0.154,1.7,0.001,3.428-0.014,5.143c-0.004,0.447-0.033,0.895-0.015,1.341c0.037,0.958,0.649,1.573,1.615,1.554
		c0.875-0.018,1.754-0.075,2.62-0.195c5.19-0.722,9.757,0.765,13.869,3.876c0.896,0.677,1.754,1.404,2.69,2.159
		c0.132-0.138,0.27-0.293,0.418-0.438c0.906-0.87,2.102-0.893,3.033-0.046c0.488,0.445,0.957,0.911,1.506,1.435
		c0.428-0.447,0.813-0.888,1.238-1.283c0.31-0.287,0.645-0.583,1.022-0.754c0.642-0.291,1.329-0.235,1.88,0.211
		c0.621,0.501,1.168,1.094,1.775,1.674c-10.67,11.177-21.356,22.368-32.144,33.665c-0.621-0.689-1.332-1.324-1.846-2.092
		c-0.472-0.706-0.345-1.53,0.219-2.195c0.483-0.57,1.026-1.088,1.606-1.695c-0.438-0.418-0.82-0.782-1.201-1.147
		c-1.315-1.256-1.361-2.238-0.172-3.605c0.057-0.063,0.102-0.139,0.146-0.203c-0.773-0.876-1.556-1.708-2.277-2.59
		c-2.547-3.113-4.322-6.574-4.519-10.672c-0.073-1.533,0.05-3.075,0.065-4.614c0.007-0.619,0.07-1.255-0.357-1.797
		c-0.344-0.437-0.773-0.695-1.334-0.658c-1.393,0.091-2.783,0.205-4.175,0.299c-4.327,0.292-8.123-1.144-11.583-3.614
		c-1.13-0.806-2.196-1.701-3.342-2.594c-0.127,0.134-0.266,0.293-0.418,0.437c-0.894,0.846-2.082,0.869-2.991,0.045
		c-0.501-0.453-0.979-0.931-1.527-1.453c-0.431,0.451-0.821,0.863-1.214,1.271c-1.172,1.217-2.313,1.239-3.54,0.079
		c-0.416-0.393-0.841-0.776-1.262-1.163C363.701,31.004,374.431,19.767,385.16,8.529 M411.541,48.241
		c-0.156-0.149-0.273-0.282-0.41-0.388c-1.063-0.817-2.088-1.688-3.201-2.429c-2.584-1.72-5.432-2.617-8.561-2.443
		c-1.429,0.079-2.851,0.291-4.279,0.344c-3.141,0.118-5.399-2.106-5.36-5.245c0.015-1.144,0.104-2.287,0.158-3.431
		c0.088-1.825-0.149-3.596-0.774-5.325c-0.766-2.12-2.008-3.937-3.457-5.629c-0.506-0.59-1.053-1.144-1.586-1.719
		c-5.938,6.219-11.803,12.361-17.701,18.538c0.148,0.141,0.266,0.275,0.403,0.381c1.075,0.829,2.114,1.712,3.24,2.465
		c2.547,1.702,5.351,2.627,8.444,2.474c1.412-0.069,2.816-0.265,4.228-0.325c2.885-0.121,5.084,1.708,5.368,4.567
		c0.135,1.361,0.009,2.75-0.03,4.125c-0.051,1.826,0.185,3.6,0.827,5.318c0.773,2.071,1.961,3.884,3.402,5.54
		c0.509,0.585,1.05,1.142,1.576,1.71c1.068-1.12,2.063-2.162,3.09-3.236c-2.808-2.61-3.696-5.967-3.924-9.602
		c-0.068-1.087-0.194-2.174-0.354-3.253c-0.155-1.054-0.477-2.082-1.203-2.882c-2.23-2.454-4.986-3.836-8.337-3.948
		c-1.001-0.034-2.003-0.071-3-0.157c-0.562-0.048-1.103-0.226-1.508-0.681c2.889-3.026,5.751-6.023,8.625-9.034
		c0.559,0.448,0.817,1.043,0.911,1.682c0.146,0.99,0.24,1.989,0.309,2.987c0.157,2.31,0.887,4.385,2.314,6.233
		c1.281,1.657,2.857,2.733,4.984,2.879c1.5,0.103,3.002,0.173,4.5,0.279c2.428,0.172,4.727,0.764,6.74,2.202
		c0.52,0.37,1.012,0.779,1.529,1.181C409.51,50.368,410.496,49.334,411.541,48.241"/>
	<path fill="#D9D9D9" d="M564.031,5.052c0.108,0.465,0.217,0.93,0.325,1.395c0.258,1.105-0.2,1.875-1.297,2.17
		c-0.458,0.123-0.919,0.232-1.418,0.357c0.116,0.467,0.22,0.875,0.321,1.283c0.311,1.249-0.103,1.965-1.33,2.312
		c-0.077,0.022-0.151,0.052-0.228,0.079c0.142,0.875,0.308,1.73,0.417,2.593c0.354,2.812,0.205,5.579-1.107,8.149
		c-0.594,1.16-1.396,2.214-2.104,3.316c-0.185,0.286-0.386,0.564-0.556,0.859c-0.366,0.634-0.221,1.281,0.41,1.661
		c0.572,0.345,1.162,0.667,1.771,0.942c3.645,1.648,5.989,4.468,7.376,8.152c0.302,0.802,0.562,1.621,0.859,2.49
		c0.14-0.035,0.293-0.079,0.446-0.111c0.94-0.193,1.721,0.279,1.978,1.205c0.134,0.486,0.247,0.978,0.388,1.541
		c0.458-0.115,0.887-0.243,1.322-0.325c0.316-0.059,0.652-0.114,0.967-0.071c0.534,0.074,0.954,0.391,1.129,0.903
		c0.196,0.577,0.309,1.182,0.465,1.804c-11.443,2.87-22.901,5.744-34.469,8.644c-0.121-0.698-0.32-1.398-0.34-2.102
		c-0.018-0.649,0.4-1.129,1.035-1.329c0.544-0.171,1.105-0.284,1.727-0.44c-0.111-0.449-0.209-0.839-0.308-1.23
		c-0.337-1.347,0.033-1.999,1.358-2.397c0.063-0.019,0.121-0.049,0.178-0.071c-0.143-0.881-0.311-1.737-0.416-2.601
		c-0.377-3.048-0.113-6.006,1.429-8.732c0.577-1.02,1.286-1.965,1.922-2.952c0.257-0.397,0.558-0.781,0.503-1.306
		c-0.046-0.423-0.217-0.764-0.595-0.969c-0.937-0.508-1.88-1.001-2.817-1.507c-2.912-1.574-4.779-4.047-6.007-7.051
		c-0.401-0.981-0.726-1.994-1.101-3.036c-0.137,0.034-0.291,0.08-0.449,0.111c-0.921,0.182-1.697-0.287-1.95-1.189
		c-0.139-0.497-0.253-1.001-0.394-1.561c-0.463,0.116-0.881,0.223-1.301,0.327c-1.252,0.308-1.998-0.142-2.318-1.392
		c-0.107-0.423-0.227-0.843-0.341-1.264C541.019,10.823,552.524,7.938,564.031,5.052 M564.889,41.44
		c-0.04-0.16-0.061-0.294-0.107-0.418c-0.353-0.96-0.66-1.94-1.076-2.872c-0.969-2.163-2.441-3.902-4.533-5.065
		c-0.955-0.53-1.959-0.973-2.903-1.52c-2.076-1.204-2.628-3.56-1.324-5.57c0.476-0.733,0.998-1.435,1.499-2.152
		c0.801-1.142,1.369-2.383,1.669-3.753c0.37-1.681,0.308-3.361,0.062-5.044c-0.086-0.586-0.215-1.166-0.324-1.755
		c-6.367,1.597-12.656,3.174-18.98,4.76c0.038,0.151,0.06,0.285,0.104,0.41c0.356,0.973,0.668,1.966,1.089,2.911
		c0.951,2.136,2.384,3.876,4.445,5.038c0.938,0.53,1.926,0.975,2.861,1.512c1.911,1.097,2.586,3.174,1.605,5.135
		c-0.467,0.934-1.114,1.779-1.699,2.652c-0.777,1.158-1.348,2.399-1.633,3.77c-0.344,1.652-0.316,3.307-0.059,4.963
		c0.09,0.585,0.213,1.165,0.319,1.746c1.147-0.288,2.213-0.555,3.313-0.831c-0.75-2.828,0.045-5.358,1.379-7.798
		c0.398-0.729,0.76-1.482,1.097-2.244c0.329-0.744,0.54-1.538,0.397-2.351c-0.441-2.493-1.657-4.508-3.775-5.946
		c-0.633-0.429-1.266-0.861-1.874-1.323c-0.343-0.26-0.62-0.595-0.696-1.054c3.098-0.777,6.168-1.547,9.25-2.32
		c0.178,0.517,0.103,1.006-0.098,1.458c-0.309,0.698-0.654,1.382-1.018,2.054c-0.84,1.556-1.213,3.193-1.043,4.968
		c0.15,1.591,0.73,2.928,2.045,3.889c0.927,0.677,1.867,1.334,2.791,2.013c1.5,1.1,2.74,2.418,3.457,4.167
		c0.184,0.451,0.334,0.915,0.506,1.386C562.711,41.986,563.768,41.721,564.889,41.44"/>
	<path fill="#D9D9D9" d="M1288.379,42.242c-0.42,0.388-0.846,0.77-1.261,1.163c-1.229,1.161-2.369,1.138-3.54-0.079
		c-0.394-0.408-0.783-0.819-1.214-1.271c-0.547,0.522-1.026,1-1.527,1.454c-0.91,0.823-2.098,0.8-2.991-0.046
		c-0.152-0.144-0.292-0.303-0.42-0.436c-1.144,0.892-2.211,1.787-3.341,2.594c-3.459,2.47-7.255,3.905-11.582,3.613
		c-1.392-0.094-2.783-0.207-4.175-0.299c-0.562-0.037-0.99,0.221-1.334,0.658c-0.428,0.543-0.365,1.179-0.358,1.798
		c0.017,1.538,0.141,3.08,0.066,4.613c-0.196,4.098-1.972,7.559-4.519,10.673c-0.722,0.882-1.505,1.714-2.278,2.59
		c0.046,0.064,0.091,0.138,0.146,0.202c1.19,1.367,1.145,2.349-0.171,3.606c-0.381,0.364-0.763,0.728-1.201,1.146
		c0.579,0.607,1.123,1.125,1.606,1.695c0.563,0.665,0.69,1.489,0.218,2.195c-0.513,0.768-1.224,1.404-1.845,2.093
		c-10.787-11.298-21.474-22.489-32.145-33.666c0.607-0.58,1.155-1.172,1.775-1.674c0.551-0.445,1.239-0.502,1.881-0.211
		c0.378,0.171,0.712,0.467,1.022,0.754c0.426,0.396,0.811,0.836,1.237,1.284c0.55-0.525,1.019-0.991,1.507-1.436
		c0.932-0.846,2.125-0.824,3.031,0.047c0.15,0.143,0.287,0.298,0.419,0.436c0.938-0.755,1.795-1.481,2.691-2.159
		c4.11-3.111,8.679-4.597,13.869-3.876c0.866,0.121,1.746,0.177,2.621,0.195c0.965,0.019,1.577-0.596,1.614-1.554
		c0.019-0.446-0.011-0.893-0.015-1.34c-0.015-1.716-0.168-3.444-0.014-5.144c0.341-3.764,2.109-6.933,4.468-9.802
		c0.723-0.88,1.505-1.711,2.275-2.581c-0.066-0.083-0.127-0.168-0.197-0.246c-1.119-1.243-1.075-2.324,0.142-3.491
		c0.398-0.381,0.797-0.761,1.253-1.197c-0.465-0.487-0.899-0.931-1.322-1.386c-1.01-1.094-0.978-2.267,0.08-3.31
		c0.446-0.439,0.891-0.879,1.336-1.319C1266.919,19.766,1277.648,31.004,1288.379,42.242 M1232.843,51.418
		c0.52-0.402,1.011-0.81,1.53-1.181c2.014-1.438,4.311-2.03,6.74-2.202c1.499-0.106,3-0.176,4.499-0.279
		c2.128-0.146,3.705-1.222,4.984-2.879c1.429-1.847,2.158-3.922,2.315-6.232c0.068-0.999,0.163-1.998,0.309-2.987
		c0.094-0.64,0.353-1.235,0.911-1.683c2.873,3.01,5.736,6.008,8.625,9.034c-0.405,0.455-0.946,0.633-1.508,0.681
		c-0.997,0.087-1.999,0.123-3,0.157c-3.351,0.113-6.107,1.494-8.337,3.948c-0.728,0.8-1.048,1.829-1.203,2.883
		c-0.159,1.078-0.286,2.165-0.354,3.253c-0.228,3.634-1.116,6.992-3.924,9.601c1.026,1.075,2.021,2.116,3.09,3.236
		c0.525-0.568,1.067-1.125,1.576-1.71c1.441-1.656,2.629-3.469,3.402-5.539c0.643-1.719,0.878-3.492,0.826-5.318
		c-0.038-1.376-0.164-2.765-0.029-4.126c0.284-2.858,2.483-4.688,5.368-4.566c1.411,0.059,2.815,0.255,4.227,0.325
		c3.095,0.152,5.898-0.773,8.445-2.475c1.126-0.753,2.165-1.636,3.24-2.465c0.138-0.105,0.255-0.239,0.401-0.38
		c-5.896-6.177-11.762-12.32-17.699-18.539c-0.533,0.576-1.08,1.13-1.585,1.719c-1.45,1.692-2.692,3.509-3.458,5.63
		c-0.625,1.728-0.862,3.499-0.774,5.324c0.054,1.144,0.144,2.287,0.158,3.431c0.039,3.139-2.22,5.363-5.36,5.245
		c-1.429-0.053-2.851-0.265-4.279-0.344c-3.13-0.174-5.978,0.723-8.561,2.443c-1.113,0.741-2.139,1.613-3.201,2.429
		c-0.137,0.106-0.254,0.239-0.41,0.388C1230.854,49.335,1231.839,50.367,1232.843,51.418"/>
	<path fill="#D9D9D9" d="M1509.918,4.847c-0.07,0.568-0.146,1.134-0.208,1.703c-0.185,1.679-1.068,2.401-2.749,2.232
		c-0.564-0.057-1.128-0.117-1.748-0.182c-0.079,0.751-0.135,1.426-0.223,2.096c-0.16,1.217-1.08,1.969-2.309,1.902
		c-0.21-0.011-0.419-0.042-0.604-0.061c-0.293,1.421-0.526,2.794-0.865,4.14c-1.037,4.123-3,7.675-6.486,10.254
		c-1.122,0.829-2.255,1.643-3.375,2.475c-0.452,0.336-0.612,0.81-0.591,1.366c0.024,0.69,0.485,1.134,0.891,1.601
		c1.009,1.162,2.103,2.257,3.038,3.473c2.504,3.25,3.393,7.037,3.468,11.059c0.021,1.139-0.036,2.28-0.059,3.449
		c0.076,0.019,0.158,0.047,0.242,0.059c1.793,0.272,2.393,1.049,2.205,2.858c-0.055,0.525-0.11,1.049-0.172,1.652
		c0.833,0.087,1.583,0.13,2.319,0.252c0.861,0.142,1.491,0.687,1.589,1.531c0.105,0.917-0.024,1.862-0.052,2.79
		c-15.536-1.625-30.925-3.234-46.294-4.84c0.087-0.836,0.12-1.642,0.269-2.426c0.132-0.696,0.618-1.185,1.297-1.379
		c0.398-0.114,0.845-0.105,1.267-0.087c0.581,0.026,1.159,0.113,1.774,0.177c0.078-0.756,0.135-1.415,0.22-2.07
		c0.161-1.248,1.086-2.004,2.34-1.928c0.206,0.013,0.412,0.042,0.601,0.063c0.227-1.182,0.409-2.292,0.653-3.388
		c1.118-5.033,3.636-9.123,8.06-11.934c0.737-0.469,1.444-0.996,2.123-1.549c0.748-0.61,0.815-1.475,0.225-2.229
		c-0.275-0.352-0.587-0.674-0.88-1.013c-1.122-1.297-2.358-2.515-3.341-3.91c-2.179-3.089-2.883-6.65-2.943-10.363
		c-0.018-1.138,0.039-2.278,0.063-3.439c-0.104-0.021-0.205-0.047-0.31-0.061c-1.657-0.222-2.324-1.074-2.151-2.752
		c0.056-0.548,0.113-1.095,0.18-1.723c-0.67-0.07-1.289-0.126-1.905-0.201c-1.478-0.179-2.214-1.093-2.083-2.573
		c0.056-0.624,0.11-1.247,0.164-1.87C1479.011,1.616,1494.464,3.231,1509.918,4.847 M1473.539,47.801
		c0.135-0.642,0.244-1.272,0.4-1.89c0.604-2.401,1.971-4.34,3.71-6.043c1.074-1.051,2.173-2.077,3.248-3.126
		c1.527-1.489,2.032-3.33,1.936-5.422c-0.109-2.332-0.896-4.386-2.272-6.248c-0.595-0.805-1.169-1.628-1.699-2.476
		c-0.342-0.549-0.53-1.169-0.395-1.872c4.139,0.433,8.262,0.864,12.422,1.299c-0.014,0.609-0.311,1.094-0.707,1.495
		c-0.704,0.712-1.445,1.388-2.186,2.062c-2.48,2.256-3.687,5.094-3.797,8.408c-0.035,1.08,0.387,2.071,0.95,2.976
		c0.577,0.925,1.185,1.835,1.837,2.708c2.181,2.916,3.678,6.051,3.228,9.856c1.478,0.154,2.911,0.304,4.451,0.465
		c0.031-0.773,0.084-1.548,0.093-2.323c0.025-2.196-0.243-4.346-0.994-6.425c-0.623-1.725-1.592-3.229-2.814-4.587
		c-0.921-1.023-1.914-2.001-2.693-3.125c-1.635-2.362-1.144-5.18,1.133-6.956c1.114-0.868,2.313-1.628,3.432-2.489
		c2.457-1.888,3.995-4.408,4.833-7.354c0.371-1.303,0.591-2.649,0.873-3.977c0.037-0.17,0.039-0.347,0.061-0.55
		c-8.494-0.888-16.94-1.771-25.492-2.666c-0.034,0.785-0.092,1.561-0.095,2.337c-0.011,2.228,0.221,4.417,1.01,6.529
		c0.644,1.721,1.609,3.225,2.857,4.559c0.782,0.836,1.591,1.649,2.343,2.512c2.062,2.366,1.781,5.524-0.688,7.468
		c-1.123,0.884-2.344,1.645-3.484,2.508c-2.496,1.894-4.086,4.421-4.94,7.405c-0.368,1.286-0.586,2.614-0.867,3.924
		c-0.036,0.169-0.038,0.346-0.061,0.561C1470.674,47.502,1472.094,47.65,1473.539,47.801"/>
</g>
</svg>
