<?xml version="1.0" encoding="utf-8"?>
<!-- Generator: Adobe Illustrator 16.0.0, SVG Export Plug-In . SVG Version: 6.00 Build 0)  -->
<!DOCTYPE svg PUBLIC "-//W3C//DTD SVG 1.1//EN" "http://www.w3.org/Graphics/SVG/1.1/DTD/svg11.dtd">
<svg version="1.1" id="Layer_1" xmlns="http://www.w3.org/2000/svg" xmlns:xlink="http://www.w3.org/1999/xlink" x="0px" y="0px"
	 width="1627.65px" height="231.795px" viewBox="0 0 1627.65 231.795" enable-background="new 0 0 1627.65 231.795"
	 xml:space="preserve">
<g>
	<g>
		<path fill="#DADADA" d="M116.908,165.44c0,14.841,0.012,29.683-0.007,44.524c-0.007,5.05-2.195,8.205-6.375,9.263
			c-0.742,0.188-1.533,0.247-2.302,0.25c-5.301,0.021-10.602,0.038-15.902,0.004c-5.143-0.033-8.445-3.224-8.739-8.372
			c-0.032-0.564-0.025-1.13-0.025-1.696c-0.001-29.471-0.005-58.941,0.013-88.411c0.001-1.335,0.021-2.713,0.336-3.997
			c0.853-3.472,4.095-5.985,7.801-6.031c5.653-0.071,11.309-0.076,16.961-0.002c4.423,0.058,7.751,3.239,8.141,7.616
			c0.082,0.913,0.096,1.834,0.096,2.752C116.91,136.041,116.908,150.741,116.908,165.44z"/>
		<path fill="#DADADA" d="M75.157,177.715c0,10.811,0.009,21.621-0.004,32.432c-0.007,5.977-3.351,9.328-9.294,9.341
			c-5.087,0.011-10.175,0.025-15.262-0.004c-5.275-0.03-8.827-3.475-8.836-8.739c-0.037-21.974-0.035-43.948-0.002-65.923
			c0.008-5.37,3.556-8.797,8.981-8.827c5.017-0.029,10.034-0.017,15.05-0.004c5.962,0.015,9.354,3.371,9.361,9.293
			C75.167,156.094,75.157,166.904,75.157,177.715z"/>
		<path fill="#DADADA" d="M0.02,186.098c-0.002-7.915-0.017-15.83,0.002-23.745c0.015-6.418,3.233-9.656,9.623-9.688
			c4.735-0.024,9.47-0.031,14.205,0.002c6.239,0.043,9.537,3.317,9.551,9.599c0.035,15.9,0.037,31.801,0,47.702
			c-0.016,6.293-3.314,9.512-9.57,9.52c-4.947,0.007-9.894,0.019-14.841-0.003c-5.491-0.024-8.894-3.292-8.947-8.794
			C-0.038,202.494,0.021,194.296,0.02,186.098z"/>
	</g>
	<g>
		<path fill="#DADADA" d="M1627.646,177.735c0,14.841,0.012,29.683-0.007,44.523c-0.007,5.051-2.195,8.206-6.375,9.264
			c-0.742,0.188-1.533,0.247-2.303,0.25c-5.3,0.021-10.601,0.037-15.901,0.003c-5.143-0.033-8.445-3.224-8.74-8.372
			c-0.032-0.564-0.024-1.13-0.024-1.696c-0.001-29.471-0.005-58.941,0.013-88.412c0-1.335,0.021-2.713,0.336-3.996
			c0.853-3.473,4.095-5.985,7.801-6.031c5.653-0.07,11.309-0.076,16.961-0.002c4.422,0.057,7.75,3.239,8.141,7.616
			c0.082,0.913,0.096,1.834,0.096,2.752C1627.648,148.335,1627.646,163.035,1627.646,177.735z"/>
		<path fill="#DADADA" d="M1585.895,190.01c0,10.81,0.009,21.62-0.003,32.431c-0.007,5.977-3.35,9.328-9.294,9.341
			c-5.088,0.011-10.175,0.025-15.262-0.004c-5.275-0.03-8.827-3.475-8.836-8.739c-0.037-21.974-0.035-43.948-0.002-65.923
			c0.008-5.37,3.556-8.796,8.981-8.828c5.017-0.028,10.033-0.016,15.05-0.003c5.962,0.015,9.354,3.371,9.361,9.293
			C1585.905,168.388,1585.895,179.199,1585.895,190.01z"/>
		<path fill="#DADADA" d="M1510.758,198.393c-0.003-7.915-0.017-15.83,0.002-23.745c0.015-6.418,3.233-9.656,9.623-9.688
			c4.734-0.023,9.47-0.031,14.205,0.002c6.239,0.043,9.537,3.317,9.551,9.599c0.035,15.901,0.037,31.802-0.001,47.702
			c-0.015,6.293-3.313,9.513-9.569,9.521c-4.947,0.006-9.894,0.019-14.841-0.004c-5.491-0.024-8.894-3.291-8.947-8.794
			C1510.7,214.788,1510.76,206.59,1510.758,198.393z"/>
	</g>
	<g>
		<path fill="#DADADA" d="M313.929,183.973c0,11.698,0.009,23.397-0.005,35.096c-0.006,3.98-1.731,6.468-5.025,7.302
			c-0.585,0.147-1.209,0.194-1.815,0.197c-4.178,0.017-8.356,0.03-12.534,0.003c-4.053-0.026-6.657-2.541-6.889-6.599
			c-0.025-0.444-0.02-0.891-0.02-1.336c-0.002-23.23-0.005-46.46,0.01-69.69c0-1.052,0.017-2.138,0.265-3.149
			c0.672-2.737,3.228-4.718,6.149-4.754c4.455-0.055,8.913-0.06,13.369-0.002c3.485,0.045,6.109,2.554,6.416,6.003
			c0.064,0.72,0.076,1.446,0.076,2.169C313.93,160.798,313.929,172.386,313.929,183.973z"/>
		<path fill="#DADADA" d="M281.019,193.647c0,8.521,0.007,17.043-0.003,25.564c-0.005,4.711-2.641,7.353-7.326,7.363
			c-4.01,0.009-8.02,0.02-12.029-0.003c-4.158-0.024-6.959-2.739-6.965-6.888c-0.029-17.321-0.028-34.643-0.002-51.963
			c0.006-4.233,2.803-6.934,7.08-6.958c3.954-0.022,7.908-0.013,11.862-0.003c4.699,0.012,7.373,2.657,7.38,7.325
			C281.026,176.604,281.019,185.126,281.019,193.647z"/>
		<path fill="#DADADA" d="M221.792,200.256c-0.002-6.239-0.013-12.479,0.001-18.717c0.012-5.059,2.549-7.611,7.586-7.636
			c3.732-0.019,7.465-0.024,11.197,0.002c4.918,0.034,7.518,2.615,7.528,7.566c0.027,12.533,0.028,25.067-0.001,37.601
			c-0.012,4.96-2.612,7.498-7.543,7.504c-3.899,0.005-7.799,0.014-11.698-0.003c-4.328-0.019-7.011-2.594-7.053-6.932
			C221.746,213.18,221.793,206.718,221.792,200.256z"/>
	</g>
	<g>
		<path fill="#DADADA" d="M1296.113,183.973c-0.001,11.698,0.009,23.397-0.006,35.096c-0.005,3.98-1.73,6.468-5.025,7.302
			c-0.585,0.147-1.209,0.194-1.814,0.197c-4.178,0.017-8.356,0.03-12.534,0.003c-4.054-0.026-6.657-2.541-6.89-6.599
			c-0.025-0.444-0.02-0.891-0.02-1.336c0-23.23-0.004-46.46,0.01-69.69c0.001-1.052,0.018-2.138,0.266-3.149
			c0.672-2.737,3.228-4.718,6.148-4.754c4.456-0.055,8.914-0.06,13.369-0.002c3.486,0.045,6.109,2.554,6.418,6.003
			c0.063,0.72,0.074,1.446,0.075,2.169C1296.114,160.798,1296.113,172.386,1296.113,183.973z"/>
		<path fill="#DADADA" d="M1263.202,193.647c0,8.521,0.008,17.043-0.002,25.564c-0.006,4.711-2.641,7.353-7.326,7.363
			c-4.01,0.009-8.021,0.02-12.03-0.003c-4.158-0.024-6.958-2.739-6.965-6.888c-0.029-17.321-0.027-34.643-0.001-51.963
			c0.006-4.233,2.803-6.934,7.079-6.958c3.955-0.022,7.909-0.013,11.863-0.003c4.699,0.012,7.373,2.657,7.379,7.325
			C1263.211,176.604,1263.202,185.126,1263.202,193.647z"/>
		<path fill="#DADADA" d="M1203.976,200.256c-0.001-6.239-0.013-12.479,0.002-18.717c0.012-5.059,2.549-7.611,7.585-7.636
			c3.732-0.019,7.465-0.024,11.197,0.002c4.918,0.034,7.518,2.615,7.529,7.566c0.027,12.533,0.028,25.067-0.001,37.601
			c-0.012,4.96-2.612,7.498-7.543,7.504c-3.899,0.005-7.799,0.014-11.698-0.003c-4.329-0.019-7.011-2.594-7.053-6.932
			C1203.931,213.18,1203.978,206.718,1203.976,200.256z"/>
	</g>
	<g>
		<path fill="#DADADA" d="M224.529,47.872c-0.001,9.639,0.007,19.278-0.005,28.917c-0.005,3.28-1.426,5.329-4.141,6.016
			c-0.481,0.122-0.996,0.161-1.495,0.163c-3.442,0.014-6.885,0.024-10.327,0.002c-3.34-0.021-5.485-2.093-5.677-5.437
			c-0.021-0.366-0.016-0.734-0.016-1.101c-0.001-19.14-0.004-38.279,0.008-57.42c0-0.867,0.014-1.762,0.219-2.595
			c0.553-2.255,2.659-3.887,5.066-3.917c3.671-0.045,7.344-0.049,11.015-0.001c2.872,0.037,5.034,2.104,5.287,4.946
			c0.054,0.593,0.063,1.191,0.063,1.787C224.53,28.777,224.529,38.325,224.529,47.872z"/>
		<path fill="#DADADA" d="M197.413,55.843c0,7.021,0.005,14.042-0.003,21.063c-0.004,3.882-2.176,6.059-6.035,6.066
			c-3.305,0.008-6.608,0.016-9.912-0.003c-3.426-0.02-5.733-2.257-5.738-5.675c-0.024-14.271-0.023-28.543-0.002-42.814
			c0.006-3.488,2.31-5.713,5.834-5.733c3.258-0.019,6.516-0.011,9.773-0.002c3.872,0.009,6.075,2.19,6.08,6.036
			C197.42,41.802,197.413,48.822,197.413,55.843z"/>
		<path fill="#DADADA" d="M148.614,61.288c-0.002-5.141-0.011-10.281,0.001-15.422c0.01-4.168,2.101-6.271,6.25-6.292
			c3.075-0.015,6.15-0.02,9.226,0.001c4.052,0.029,6.194,2.155,6.203,6.235c0.022,10.326,0.024,20.653,0,30.98
			c-0.01,4.087-2.153,6.178-6.216,6.183c-3.213,0.004-6.426,0.012-9.639-0.002c-3.566-0.017-5.775-2.138-5.811-5.712
			C148.577,71.937,148.615,66.612,148.614,61.288z"/>
	</g>
	<g>
		<path fill="#DADADA" d="M1449.426,123.205c0,9.639,0.008,19.277-0.004,28.916c-0.005,3.28-1.426,5.33-4.141,6.017
			c-0.482,0.122-0.996,0.16-1.495,0.162c-3.442,0.014-6.886,0.024-10.327,0.002c-3.34-0.021-5.485-2.094-5.677-5.438
			c-0.021-0.366-0.017-0.734-0.017-1.101c0-19.14-0.003-38.28,0.008-57.419c0.001-0.867,0.015-1.762,0.219-2.596
			c0.554-2.255,2.659-3.887,5.066-3.917c3.672-0.045,7.344-0.049,11.016-0.001c2.872,0.038,5.033,2.104,5.287,4.946
			c0.053,0.593,0.063,1.191,0.063,1.787C1449.428,104.111,1449.426,113.658,1449.426,123.205z"/>
		<path fill="#DADADA" d="M1422.311,131.177c0,7.021,0.005,14.042-0.003,21.063c-0.004,3.882-2.176,6.059-6.036,6.067
			c-3.304,0.007-6.607,0.016-9.912-0.002c-3.426-0.021-5.732-2.257-5.738-5.676c-0.023-14.271-0.022-28.543-0.001-42.814
			c0.005-3.487,2.31-5.713,5.833-5.733c3.258-0.019,6.517-0.011,9.774-0.002c3.872,0.01,6.075,2.189,6.08,6.035
			C1422.316,117.135,1422.311,124.155,1422.311,131.177z"/>
		<path fill="#DADADA" d="M1373.512,136.621c-0.002-5.141-0.011-10.281,0.001-15.422c0.01-4.168,2.1-6.271,6.25-6.292
			c3.075-0.015,6.15-0.02,9.226,0.001c4.052,0.028,6.194,2.154,6.203,6.234c0.022,10.327,0.023,20.653-0.001,30.98
			c-0.009,4.087-2.152,6.178-6.215,6.183c-3.213,0.004-6.426,0.012-9.639-0.002c-3.566-0.016-5.776-2.138-5.811-5.712
			C1373.475,147.27,1373.513,141.945,1373.512,136.621z"/>
	</g>
	<g>
		<path fill="#DADADA" d="M434.255,122.045c0,6.616,0.006,13.232-0.003,19.848c-0.003,2.251-0.979,3.658-2.842,4.129
			c-0.331,0.083-0.684,0.11-1.026,0.111c-2.362,0.009-4.726,0.017-7.088,0.002c-2.293-0.015-3.766-1.438-3.896-3.732
			c-0.015-0.251-0.012-0.504-0.012-0.756c0-13.137-0.002-26.274,0.006-39.412c0.001-0.595,0.01-1.209,0.15-1.781
			c0.38-1.548,1.825-2.668,3.478-2.689c2.52-0.031,5.041-0.033,7.561-0.001c1.971,0.026,3.455,1.444,3.629,3.396
			c0.036,0.407,0.042,0.817,0.043,1.227C434.256,108.939,434.256,115.493,434.255,122.045z"/>
		<path fill="#DADADA" d="M415.644,127.517c0,4.819,0.004,9.638-0.002,14.457c-0.003,2.665-1.493,4.159-4.143,4.165
			c-2.269,0.005-4.536,0.011-6.804-0.002c-2.352-0.014-3.935-1.549-3.938-3.896c-0.017-9.796-0.016-19.591-0.001-29.387
			c0.004-2.394,1.585-3.921,4.004-3.935c2.236-0.013,4.473-0.008,6.709-0.002c2.657,0.007,4.169,1.503,4.173,4.143
			C415.648,117.879,415.644,122.698,415.644,127.517z"/>
		<path fill="#DADADA" d="M382.148,131.254c0-3.528-0.007-7.057,0.002-10.585c0.006-2.861,1.441-4.304,4.289-4.318
			c2.111-0.011,4.222-0.014,6.332,0.001c2.781,0.02,4.252,1.479,4.258,4.279c0.016,7.088,0.017,14.176,0,21.264
			c-0.007,2.805-1.478,4.24-4.266,4.244c-2.205,0.003-4.411,0.008-6.616-0.002c-2.448-0.011-3.965-1.467-3.988-3.92
			C382.123,138.563,382.149,134.908,382.148,131.254z"/>
	</g>
	<g>
		<path fill="#DADADA" d="M1313.986,44.853c0,6.615,0.006,13.231-0.003,19.847c-0.003,2.251-0.979,3.658-2.843,4.129
			c-0.33,0.083-0.683,0.11-1.025,0.111c-2.363,0.009-4.726,0.017-7.088,0.002c-2.293-0.015-3.766-1.438-3.896-3.732
			c-0.015-0.251-0.012-0.504-0.012-0.756c0-13.137-0.002-26.274,0.006-39.411c0-0.595,0.01-1.209,0.15-1.781
			c0.379-1.548,1.824-2.669,3.477-2.689c2.521-0.031,5.041-0.033,7.561,0c1.972,0.026,3.455,1.444,3.63,3.395
			c0.036,0.407,0.042,0.818,0.042,1.227C1313.987,31.746,1313.986,38.299,1313.986,44.853z"/>
		<path fill="#DADADA" d="M1295.375,50.324c0,4.819,0.004,9.638-0.002,14.457c-0.003,2.665-1.493,4.159-4.143,4.165
			c-2.269,0.005-4.536,0.011-6.804-0.002c-2.352-0.013-3.935-1.549-3.938-3.896c-0.017-9.795-0.016-19.591-0.001-29.387
			c0.003-2.394,1.585-3.921,4.003-3.935c2.236-0.013,4.474-0.007,6.709-0.002c2.658,0.007,4.17,1.503,4.174,4.143
			C1295.379,40.686,1295.375,45.505,1295.375,50.324z"/>
		<path fill="#DADADA" d="M1261.88,54.061c-0.001-3.528-0.007-7.057,0.001-10.585c0.007-2.861,1.441-4.304,4.29-4.318
			c2.11-0.011,4.222-0.014,6.332,0.001c2.781,0.02,4.252,1.479,4.258,4.279c0.016,7.088,0.017,14.176,0,21.264
			c-0.007,2.806-1.478,4.241-4.267,4.244c-2.205,0.003-4.41,0.008-6.615-0.001c-2.447-0.011-3.965-1.467-3.988-3.92
			C1261.854,61.369,1261.881,57.715,1261.88,54.061z"/>
	</g>
	<g>
		<path fill="#DADADA" d="M531.223,202.98c0,5.483,0.005,10.965-0.002,16.448c-0.003,1.865-0.812,3.031-2.355,3.422
			c-0.273,0.069-0.566,0.091-0.851,0.092c-1.958,0.008-3.916,0.014-5.874,0.002c-1.899-0.013-3.12-1.191-3.229-3.093
			c-0.012-0.208-0.01-0.418-0.01-0.626c0-10.887-0.002-21.774,0.005-32.661c0.001-0.493,0.008-1.002,0.124-1.477
			c0.315-1.282,1.513-2.211,2.882-2.228c2.089-0.026,4.178-0.028,6.266-0.001c1.634,0.021,2.863,1.197,3.007,2.813
			c0.031,0.337,0.036,0.678,0.036,1.017C531.224,192.12,531.223,197.55,531.223,202.98z"/>
		<path fill="#DADADA" d="M515.799,207.515c0,3.994,0.004,7.987-0.001,11.981c-0.002,2.208-1.237,3.446-3.433,3.451
			c-1.88,0.004-3.76,0.009-5.639-0.002c-1.948-0.011-3.261-1.283-3.264-3.228c-0.014-8.118-0.014-16.235-0.001-24.353
			c0.003-1.984,1.313-3.25,3.318-3.261c1.853-0.01,3.706-0.006,5.56-0.001c2.202,0.005,3.455,1.245,3.458,3.433
			C515.803,199.528,515.799,203.521,515.799,207.515z"/>
		<path fill="#DADADA" d="M488.043,210.612c-0.001-2.924-0.007-5.848,0-8.772c0.006-2.371,1.194-3.566,3.555-3.578
			c1.75-0.009,3.499-0.012,5.248,0c2.305,0.016,3.523,1.225,3.528,3.546c0.013,5.874,0.014,11.748-0.001,17.622
			c-0.005,2.325-1.224,3.514-3.535,3.517c-1.826,0.002-3.654,0.007-5.481-0.001c-2.028-0.009-3.286-1.216-3.306-3.249
			C488.021,216.669,488.043,213.64,488.043,210.612z"/>
	</g>
	<g>
		<path fill="#DADADA" d="M502.501,30.807c0,5.482,0.005,10.965-0.003,16.447c-0.002,1.866-0.811,3.032-2.354,3.422
			c-0.274,0.069-0.566,0.091-0.851,0.092c-1.958,0.008-3.916,0.014-5.874,0.002c-1.899-0.013-3.12-1.191-3.229-3.093
			c-0.012-0.209-0.009-0.418-0.009-0.627c0-10.887-0.002-21.773,0.005-32.66c0-0.493,0.008-1.002,0.125-1.477
			c0.314-1.283,1.512-2.211,2.881-2.228c2.088-0.026,4.178-0.028,6.266-0.001c1.634,0.021,2.863,1.197,3.008,2.813
			c0.029,0.337,0.035,0.678,0.035,1.017C502.502,19.946,502.501,25.376,502.501,30.807z"/>
		<path fill="#DADADA" d="M487.078,35.341c0,3.993,0.003,7.987-0.002,11.98c-0.002,2.208-1.237,3.446-3.434,3.451
			c-1.879,0.004-3.758,0.009-5.637-0.002c-1.949-0.011-3.262-1.283-3.265-3.228c-0.014-8.118-0.013-16.235-0.001-24.353
			c0.003-1.983,1.313-3.25,3.318-3.261c1.854-0.011,3.706-0.006,5.56-0.002c2.202,0.006,3.455,1.246,3.458,3.434
			C487.082,27.354,487.078,31.348,487.078,35.341z"/>
		<path fill="#DADADA" d="M459.32,38.438c0-2.924-0.006-5.848,0.001-8.771c0.006-2.371,1.194-3.567,3.556-3.579
			c1.749-0.009,3.498-0.011,5.247,0c2.305,0.017,3.523,1.226,3.528,3.546c0.013,5.874,0.014,11.748,0,17.622
			c-0.006,2.325-1.225,3.514-3.535,3.517c-1.828,0.002-3.655,0.007-5.482-0.001c-2.029-0.009-3.286-1.216-3.306-3.249
			C459.3,44.495,459.321,41.466,459.32,38.438z"/>
	</g>
	<g>
		<path fill="#DADADA" d="M348.322,47.437c-0.001,5.482,0.004,10.965-0.003,16.448c-0.003,1.865-0.812,3.031-2.355,3.422
			c-0.274,0.069-0.566,0.091-0.851,0.092c-1.958,0.007-3.916,0.014-5.874,0.001c-1.899-0.012-3.12-1.191-3.229-3.093
			c-0.012-0.208-0.01-0.417-0.01-0.626c0-10.887-0.001-21.774,0.005-32.661c0-0.493,0.008-1.002,0.125-1.476
			c0.314-1.283,1.512-2.211,2.881-2.229c2.089-0.026,4.178-0.028,6.266,0c1.634,0.021,2.863,1.196,3.008,2.813
			c0.029,0.337,0.035,0.678,0.035,1.016C348.322,36.576,348.322,42.007,348.322,47.437z"/>
		<path fill="#DADADA" d="M332.898,51.971c0,3.994,0.003,7.987-0.002,11.981c-0.002,2.208-1.237,3.445-3.433,3.45
			c-1.88,0.004-3.759,0.01-5.638-0.001c-1.949-0.012-3.262-1.284-3.265-3.229c-0.014-8.118-0.013-16.235-0.001-24.353
			c0.003-1.984,1.313-3.25,3.318-3.261c1.853-0.01,3.706-0.006,5.56-0.001c2.202,0.005,3.455,1.245,3.458,3.433
			C332.902,43.984,332.898,47.978,332.898,51.971z"/>
		<path fill="#DADADA" d="M305.141,55.068c0-2.923-0.006-5.848,0.002-8.772c0.005-2.371,1.194-3.566,3.555-3.578
			c1.749-0.009,3.498-0.012,5.247,0c2.305,0.016,3.523,1.226,3.528,3.546c0.013,5.874,0.014,11.748,0,17.622
			c-0.006,2.325-1.225,3.514-3.535,3.517c-1.828,0.002-3.655,0.007-5.482-0.001c-2.028-0.009-3.286-1.216-3.306-3.248
			C305.12,61.125,305.142,58.096,305.141,55.068z"/>
	</g>
	<g>
		<path fill="#DADADA" d="M1030.432,20.141c0,5.483,0.004,10.966-0.003,16.448c-0.002,1.865-0.811,3.031-2.354,3.422
			c-0.274,0.069-0.566,0.091-0.852,0.092c-1.957,0.008-3.916,0.014-5.873,0.001c-1.9-0.012-3.12-1.191-3.229-3.093
			c-0.012-0.208-0.009-0.417-0.009-0.626c0-10.887-0.002-21.774,0.004-32.661c0.001-0.493,0.008-1.002,0.125-1.476
			c0.314-1.283,1.513-2.211,2.881-2.228c2.089-0.026,4.178-0.028,6.266-0.001c1.634,0.021,2.863,1.197,3.008,2.814
			c0.03,0.337,0.035,0.677,0.035,1.016C1030.432,9.28,1030.432,14.711,1030.432,20.141z"/>
		<path fill="#DADADA" d="M1015.008,24.675c0,3.994,0.003,7.987-0.002,11.98c-0.002,2.208-1.237,3.446-3.433,3.451
			c-1.879,0.005-3.759,0.009-5.638-0.001c-1.949-0.011-3.261-1.284-3.265-3.228c-0.013-8.118-0.013-16.235,0-24.354
			c0.003-1.983,1.313-3.249,3.317-3.261c1.854-0.01,3.707-0.006,5.56-0.001c2.203,0.005,3.456,1.245,3.458,3.433
			C1015.012,16.688,1015.008,20.682,1015.008,24.675z"/>
		<path fill="#DADADA" d="M987.251,27.772c-0.001-2.924-0.006-5.848,0.001-8.771c0.006-2.372,1.194-3.567,3.555-3.579
			c1.749-0.009,3.498-0.012,5.247,0.001c2.306,0.016,3.524,1.225,3.528,3.546c0.014,5.874,0.014,11.748,0,17.622
			c-0.005,2.325-1.224,3.514-3.535,3.517c-1.827,0.002-3.654,0.007-5.482-0.001c-2.028-0.009-3.285-1.216-3.305-3.249
			C987.229,33.829,987.252,30.801,987.251,27.772z"/>
	</g>
	<g>
		<path fill="#DADADA" d="M1534.1,31.84c0,5.482,0.004,10.965-0.003,16.447c-0.002,1.866-0.812,3.031-2.354,3.422
			c-0.274,0.069-0.566,0.091-0.852,0.092c-1.957,0.008-3.916,0.014-5.874,0.001c-1.899-0.012-3.12-1.19-3.229-3.092
			c-0.012-0.208-0.009-0.417-0.009-0.626c-0.001-10.887-0.002-21.773,0.004-32.66c0-0.493,0.009-1.002,0.125-1.477
			c0.314-1.283,1.513-2.211,2.881-2.228c2.089-0.026,4.178-0.028,6.266-0.001c1.634,0.021,2.863,1.196,3.008,2.813
			c0.03,0.337,0.035,0.678,0.035,1.017C1534.1,20.979,1534.1,26.409,1534.1,31.84z"/>
		<path fill="#DADADA" d="M1518.676,36.374c0,3.993,0.003,7.987-0.002,11.98c-0.002,2.208-1.237,3.446-3.433,3.451
			c-1.88,0.004-3.759,0.009-5.639-0.002c-1.948-0.011-3.261-1.284-3.264-3.229c-0.013-8.117-0.013-16.235-0.001-24.353
			c0.004-1.983,1.314-3.25,3.318-3.261c1.854-0.011,3.707-0.006,5.56-0.002c2.202,0.006,3.455,1.246,3.458,3.434
			C1518.68,28.387,1518.676,32.381,1518.676,36.374z"/>
		<path fill="#DADADA" d="M1490.919,39.471c-0.001-2.924-0.006-5.848,0.001-8.772c0.006-2.371,1.194-3.566,3.555-3.578
			c1.749-0.009,3.498-0.011,5.247,0c2.306,0.017,3.523,1.226,3.528,3.546c0.014,5.874,0.014,11.748,0,17.622
			c-0.006,2.324-1.225,3.514-3.535,3.517c-1.827,0.002-3.654,0.007-5.482-0.001c-2.028-0.009-3.285-1.216-3.306-3.249
			C1490.897,45.528,1490.92,42.499,1490.919,39.471z"/>
	</g>
</g>
</svg>
