<?xml version="1.0" encoding="utf-8"?>
<!-- Generator: Adobe Illustrator 16.0.0, SVG Export Plug-In . SVG Version: 6.00 Build 0)  -->
<!DOCTYPE svg PUBLIC "-//W3C//DTD SVG 1.1//EN" "http://www.w3.org/Graphics/SVG/1.1/DTD/svg11.dtd">
<svg version="1.1" id="Layer_1" xmlns="http://www.w3.org/2000/svg" xmlns:xlink="http://www.w3.org/1999/xlink" x="0px" y="0px"
	 width="1601.4px" height="225.657px" viewBox="0 0 1601.4 225.657" enable-background="new 0 0 1601.4 225.657"
	 xml:space="preserve">
<g>
	<path fill="#D9D9D9" d="M38.819,86.332c0.574,0.265,1.186,0.472,1.717,0.807c1.381,0.872,2.195,2.168,2.232,3.789
		c0.059,2.567,0.102,5.147-0.089,7.704c-0.155,2.094-1.805,3.676-3.743,4.036c-1.902,0.353-3.777-0.53-4.91-2.309
		c-0.125-0.198-0.272-0.381-0.435-0.606c-0.284,0.15-0.538,0.263-0.771,0.41c-6.691,4.232-13.385,8.461-20.069,12.705
		c-2.565,1.63-3.679,4.408-2.964,7.278c0.412,1.66,1.255,2.369,2.976,2.431c3.474,0.125,6.584-1.15,9.437-2.889
		c5.832-3.555,11.568-7.268,17.296-10.993c6.437-4.186,12.815-8.46,19.224-12.688c2.242-1.479,4.387-1.429,6.219,0.109
		c1.998,1.68,2.217,5.292,0.395,7.156c-0.529,0.54-1.146,1.009-1.775,1.433c-7.504,5.049-15.025,10.071-22.523,15.129
		c-4.48,3.021-6.62,7.467-7.276,12.654c-0.366,2.902-0.485,5.853-0.496,8.781c-0.048,14.2-0.021,28.401-0.022,42.601
		c0,3.273-1.157,4.919-4.354,5.735c-7.533,1.925-14.925,1.528-21.958-1.952c-4.61-2.281-6.95-6.02-6.928-11.326
		c0.075-18.303,0.051-36.607,0.008-54.911c-0.007-2.955,0.097-5.854,1.153-8.656c1.169-3.103,3.025-5.671,5.835-7.466
		c9.349-5.971,18.708-11.927,28.088-17.849c0.828-0.521,1.843-0.749,2.771-1.113H38.819z"/>
	<path fill="#D9D9D9" d="M71.688,116.681c-5.465,3.782-10.857,7.5-16.231,11.244c-1.845,1.286-3.673,2.601-5.458,3.969
		c-1.926,1.474-2.637,3.459-2.285,5.86c0.26,1.777,1.791,3.01,3.984,3.171c3.791,0.277,7.269-0.848,10.479-2.658
		c2.861-1.614,5.622-3.446,8.252-5.416c8.494-6.366,16.903-12.845,25.358-19.263c0.793-0.604,1.618-1.257,2.536-1.586
		c3.093-1.108,5.976,0.981,6.303,4.468c0.037,0.399,0.018,0.804,0.018,1.206c0.002,19.75-0.016,39.5,0.022,59.25
		c0.005,2.411-0.815,4.181-2.777,5.649c-9.788,7.318-19.518,14.718-29.269,22.087c-3.211,2.427-6.641,4.413-10.73,4.87
		c-7.816,0.875-15.002-0.483-20.751-6.331c-2.046-2.081-3.032-4.697-3.03-7.652c0.004-19.871-0.022-39.742,0.029-59.613
		c0.012-4.489,2.107-8.098,5.412-11.022c1.08-0.956,2.243-1.831,3.432-2.653c8.627-5.97,17.268-11.922,25.912-17.867
		c2.326-1.599,4.514-1.546,6.395,0.119c1.095,0.969,1.517,2.245,1.531,3.663c0.02,2.171,0.035,4.344-0.006,6.516
		c-0.043,2.313-1.388,4.076-3.476,4.667c-2.04,0.577-4.062-0.287-5.337-2.279C71.937,116.979,71.854,116.892,71.688,116.681
		 M71.366,165.326c0.253-0.052,0.3-0.048,0.326-0.069c7.627-5.902,15.256-11.799,22.854-17.735c0.331-0.258,0.522-0.877,0.532-1.332
		c0.05-2.491,0.027-4.984,0.019-7.476c-0.001-0.291-0.063-0.582-0.116-1.022c-7.813,6.068-15.49,12.027-23.156,18.002
		c-0.221,0.172-0.437,0.512-0.438,0.777C71.354,159.395,71.366,162.319,71.366,165.326"/>
	<path fill="#D9D9D9" d="M1535.555,89.668c0.573,0.265,1.185,0.472,1.715,0.807c1.382,0.872,2.196,2.167,2.233,3.789
		c0.059,2.567,0.102,5.146-0.089,7.704c-0.155,2.094-1.805,3.676-3.743,4.036c-1.901,0.353-3.777-0.531-4.91-2.309
		c-0.125-0.198-0.272-0.381-0.436-0.606c-0.284,0.15-0.537,0.263-0.77,0.41c-6.691,4.232-13.386,8.461-20.069,12.705
		c-2.566,1.63-3.678,4.408-2.964,7.278c0.413,1.66,1.255,2.369,2.976,2.431c3.474,0.125,6.584-1.15,9.437-2.889
		c5.832-3.555,11.568-7.268,17.296-10.993c6.436-4.186,12.814-8.46,19.224-12.688c2.241-1.479,4.387-1.429,6.218,0.109
		c1.998,1.68,2.219,5.292,0.396,7.156c-0.529,0.54-1.147,1.009-1.776,1.433c-7.503,5.049-15.024,10.071-22.522,15.129
		c-4.48,3.021-6.62,7.467-7.276,12.654c-0.366,2.902-0.486,5.852-0.496,8.781c-0.048,14.2-0.021,28.4-0.021,42.601
		c0,3.273-1.158,4.919-4.354,5.735c-7.534,1.925-14.925,1.528-21.958-1.952c-4.61-2.281-6.95-6.02-6.928-11.326
		c0.076-18.303,0.05-36.607,0.008-54.911c-0.007-2.955,0.097-5.854,1.153-8.656c1.169-3.104,3.024-5.671,5.835-7.466
		c9.349-5.971,18.708-11.927,28.088-17.849c0.828-0.522,1.843-0.749,2.77-1.113H1535.555z"/>
	<path fill="#D9D9D9" d="M1568.422,120.018c-5.464,3.782-10.856,7.5-16.23,11.244c-1.845,1.285-3.672,2.601-5.458,3.969
		c-1.925,1.474-2.636,3.459-2.285,5.86c0.26,1.777,1.79,3.01,3.985,3.171c3.79,0.277,7.268-0.848,10.478-2.658
		c2.861-1.614,5.622-3.446,8.252-5.416c8.494-6.366,16.903-12.845,25.357-19.263c0.794-0.603,1.619-1.257,2.537-1.586
		c3.093-1.108,5.976,0.981,6.303,4.468c0.037,0.399,0.018,0.804,0.018,1.206c0,19.75-0.016,39.5,0.022,59.25
		c0.005,2.411-0.815,4.181-2.777,5.647c-9.789,7.319-19.518,14.719-29.269,22.088c-3.211,2.427-6.641,4.413-10.73,4.87
		c-7.816,0.875-15.002-0.483-20.751-6.331c-2.047-2.081-3.032-4.698-3.032-7.652c0.006-19.871-0.021-39.742,0.031-59.613
		c0.012-4.489,2.107-8.098,5.412-11.022c1.08-0.956,2.243-1.831,3.431-2.653c8.628-5.97,17.269-11.922,25.913-17.867
		c2.326-1.599,4.515-1.546,6.395,0.119c1.095,0.969,1.517,2.245,1.531,3.662c0.02,2.172,0.034,4.345-0.006,6.517
		c-0.043,2.313-1.388,4.076-3.476,4.667c-2.04,0.577-4.062-0.287-5.337-2.279C1568.671,120.316,1568.589,120.229,1568.422,120.018
		 M1568.102,168.662c0.252-0.052,0.299-0.048,0.325-0.069c7.627-5.902,15.256-11.799,22.854-17.735
		c0.331-0.258,0.522-0.877,0.532-1.332c0.05-2.491,0.026-4.984,0.019-7.476c-0.001-0.291-0.063-0.582-0.116-1.022
		c-7.813,6.068-15.49,12.027-23.155,18.002c-0.222,0.172-0.438,0.512-0.439,0.777
		C1568.089,162.731,1568.102,165.656,1568.102,168.662"/>
	<path fill="#D9D9D9" d="M246.52,129.882c0.446,0.206,0.92,0.366,1.331,0.626c1.072,0.676,1.704,1.682,1.732,2.94
		c0.046,1.991,0.078,3.993-0.068,5.977c-0.121,1.625-1.4,2.852-2.904,3.131c-1.476,0.275-2.931-0.411-3.81-1.791
		c-0.097-0.153-0.212-0.296-0.338-0.47c-0.22,0.117-0.417,0.204-0.597,0.318c-5.192,3.284-10.387,6.564-15.571,9.858
		c-1.992,1.264-2.854,3.42-2.3,5.646c0.319,1.289,0.974,1.839,2.309,1.887c2.695,0.097,5.107-0.893,7.32-2.242
		c4.525-2.758,8.977-5.639,13.421-8.529c4.993-3.248,9.942-6.564,14.915-9.844c1.738-1.148,3.404-1.109,4.824,0.084
		c1.551,1.303,1.721,4.106,0.307,5.552c-0.41,0.419-0.891,0.783-1.378,1.112c-5.822,3.918-11.658,7.814-17.476,11.738
		c-3.476,2.344-5.137,5.794-5.645,9.818c-0.285,2.252-0.377,4.54-0.385,6.813c-0.037,11.017-0.018,22.035-0.018,33.053
		c0,2.539-0.898,3.816-3.378,4.45c-5.846,1.493-11.579,1.185-17.036-1.515c-3.578-1.769-5.393-4.671-5.375-8.787
		c0.059-14.201,0.038-28.403,0.006-42.604c-0.006-2.293,0.074-4.542,0.894-6.716c0.907-2.408,2.349-4.4,4.528-5.793
		c7.254-4.633,14.514-9.254,21.791-13.848c0.644-0.406,1.431-0.582,2.15-0.864H246.52z"/>
	<path fill="#D9D9D9" d="M272.021,153.429c-4.239,2.934-8.422,5.819-12.592,8.723c-1.433,0.998-2.85,2.019-4.236,3.08
		c-1.493,1.144-2.045,2.684-1.772,4.547c0.202,1.378,1.39,2.335,3.093,2.46c2.94,0.215,5.639-0.658,8.129-2.063
		c2.22-1.251,4.362-2.673,6.402-4.202c6.59-4.939,13.114-9.966,19.674-14.945c0.616-0.468,1.256-0.975,1.969-1.231
		c2.399-0.859,4.637,0.762,4.89,3.467c0.028,0.309,0.015,0.624,0.015,0.935c0,15.324-0.013,30.648,0.018,45.971
		c0.003,1.871-0.633,3.245-2.155,4.383c-7.595,5.678-15.144,11.419-22.709,17.137c-2.492,1.883-5.151,3.423-8.325,3.778
		c-6.064,0.679-11.639-0.374-16.1-4.911c-1.588-1.616-2.354-3.645-2.352-5.938c0.004-15.417-0.018-30.834,0.022-46.251
		c0.009-3.484,1.635-6.284,4.198-8.553c0.84-0.741,1.742-1.421,2.662-2.058c6.695-4.632,13.399-9.25,20.106-13.863
		c1.804-1.24,3.502-1.199,4.961,0.093c0.849,0.752,1.177,1.742,1.187,2.842c0.017,1.685,0.027,3.371-0.004,5.055
		c-0.031,1.796-1.076,3.163-2.695,3.621c-1.583,0.448-3.151-0.222-4.141-1.768C272.214,153.661,272.149,153.593,272.021,153.429
		 M271.772,191.171c0.195-0.04,0.231-0.037,0.252-0.054c5.916-4.579,11.837-9.154,17.732-13.76c0.256-0.2,0.405-0.68,0.412-1.033
		c0.039-1.933,0.021-3.867,0.016-5.801c0-0.225-0.051-0.451-0.09-0.792c-6.063,4.708-12.02,9.331-17.967,13.967
		c-0.171,0.133-0.339,0.397-0.341,0.602C271.763,186.569,271.772,188.838,271.772,191.171"/>
	<path fill="#D9D9D9" d="M1244.182,116.649c0.483,0.223,0.997,0.397,1.443,0.679c1.162,0.733,1.848,1.823,1.879,3.187
		c0.049,2.16,0.085,4.33-0.075,6.481c-0.131,1.762-1.518,3.093-3.147,3.396c-1.602,0.297-3.18-0.446-4.132-1.943
		c-0.105-0.166-0.229-0.32-0.366-0.509c-0.239,0.126-0.452,0.221-0.648,0.344c-5.629,3.561-11.26,7.118-16.883,10.689
		c-2.159,1.371-3.095,3.708-2.494,6.122c0.349,1.397,1.056,1.994,2.504,2.046c2.922,0.105,5.539-0.968,7.938-2.431
		c4.906-2.99,9.732-6.114,14.551-9.248c5.414-3.521,10.78-7.117,16.172-10.674c1.886-1.244,3.691-1.202,5.231,0.092
		c1.681,1.413,1.865,4.452,0.332,6.02c-0.444,0.454-0.964,0.849-1.494,1.205c-6.313,4.248-12.641,8.473-18.948,12.728
		c-3.768,2.542-5.569,6.282-6.12,10.645c-0.309,2.442-0.409,4.923-0.418,7.387c-0.04,11.946-0.017,23.893-0.018,35.839
		c0,2.753-0.975,4.138-3.663,4.825c-6.338,1.62-12.557,1.285-18.474-1.642c-3.878-1.919-5.846-5.065-5.827-9.528
		c0.063-15.398,0.043-30.797,0.007-46.195c-0.007-2.486,0.081-4.925,0.969-7.282c0.983-2.611,2.546-4.771,4.91-6.281
		c7.864-5.022,15.737-10.034,23.629-15.015c0.696-0.44,1.55-0.631,2.331-0.937H1244.182z"/>
	<path fill="#D9D9D9" d="M1271.832,142.181c-4.597,3.182-9.133,6.309-13.653,9.459c-1.553,1.081-3.09,2.188-4.592,3.339
		c-1.62,1.24-2.219,2.91-1.923,4.93c0.219,1.494,1.507,2.532,3.353,2.667c3.188,0.233,6.115-0.713,8.814-2.236
		c2.406-1.357,4.73-2.899,6.942-4.556c7.146-5.355,14.22-10.806,21.332-16.205c0.668-0.507,1.362-1.058,2.134-1.335
		c2.603-0.932,5.028,0.826,5.302,3.759c0.032,0.336,0.017,0.676,0.017,1.015c0,16.615-0.014,33.23,0.018,49.845
		c0.004,2.028-0.685,3.517-2.336,4.751c-8.234,6.157-16.42,12.383-24.623,18.582c-2.702,2.042-5.586,3.712-9.025,4.097
		c-6.577,0.736-12.621-0.406-17.458-5.326c-1.722-1.751-2.551-3.952-2.551-6.438c0.005-16.716-0.018-33.433,0.026-50.149
		c0.009-3.777,1.772-6.813,4.553-9.273c0.909-0.805,1.888-1.541,2.887-2.231c7.258-5.022,14.526-10.029,21.8-15.031
		c1.956-1.345,3.797-1.3,5.379,0.1c0.921,0.816,1.276,1.889,1.287,3.081c0.018,1.828,0.03,3.655-0.004,5.482
		c-0.036,1.947-1.167,3.43-2.925,3.927c-1.716,0.485-3.416-0.242-4.489-1.918C1272.041,142.432,1271.973,142.358,1271.832,142.181
		 M1271.563,183.104c0.212-0.044,0.251-0.04,0.274-0.058c6.414-4.965,12.834-9.926,19.227-14.92c0.278-0.217,0.439-0.737,0.447-1.12
		c0.042-2.096,0.022-4.193,0.016-6.29c0-0.245-0.054-0.489-0.098-0.859c-6.573,5.105-13.032,10.117-19.48,15.145
		c-0.186,0.144-0.367,0.431-0.37,0.653C1271.553,178.114,1271.563,180.575,1271.563,183.104"/>
	<path fill="#D9D9D9" d="M136.108,0c0.293,0.136,0.606,0.242,0.877,0.413c0.707,0.446,1.125,1.11,1.145,1.94
		c0.029,1.314,0.052,2.635-0.046,3.944c-0.08,1.072-0.925,1.882-1.916,2.066c-0.974,0.181-1.935-0.271-2.515-1.182
		c-0.063-0.101-0.14-0.195-0.223-0.31c-0.145,0.077-0.275,0.135-0.394,0.21c-3.427,2.167-6.853,4.332-10.275,6.505
		c-1.313,0.834-1.883,2.257-1.519,3.726c0.213,0.85,0.644,1.213,1.525,1.245c1.777,0.064,3.37-0.589,4.83-1.479
		c2.986-1.82,5.924-3.722,8.855-5.629c3.295-2.144,6.561-4.331,9.842-6.496c1.148-0.757,2.246-0.731,3.184,0.056
		c1.023,0.86,1.135,2.71,0.202,3.664c-0.271,0.276-0.587,0.516-0.909,0.733c-3.842,2.586-7.692,5.157-11.531,7.746
		c-2.293,1.547-3.389,3.823-3.725,6.479c-0.188,1.486-0.248,2.996-0.254,4.495c-0.025,7.27-0.011,14.541-0.012,21.811
		c0,1.676-0.594,2.518-2.229,2.937c-3.857,0.985-7.642,0.782-11.242-1c-2.36-1.168-3.559-3.082-3.547-5.798
		c0.039-9.371,0.025-18.743,0.004-28.114c-0.004-1.513,0.05-2.997,0.59-4.431c0.599-1.589,1.549-2.904,2.988-3.823
		c4.785-3.057,9.578-6.106,14.379-9.138c0.424-0.268,0.944-0.384,1.42-0.57H136.108z"/>
	<path fill="#D9D9D9" d="M152.935,15.538c-2.797,1.936-5.558,3.84-8.309,5.756c-0.945,0.659-1.881,1.332-2.795,2.032
		c-0.986,0.755-1.35,1.772-1.17,3.001c0.133,0.909,0.917,1.541,2.04,1.623c1.94,0.142,3.722-0.434,5.365-1.361
		c1.464-0.826,2.878-1.764,4.225-2.773c4.349-3.259,8.653-6.576,12.982-9.862c0.407-0.308,0.829-0.643,1.299-0.812
		c1.584-0.567,3.06,0.503,3.228,2.288c0.019,0.204,0.008,0.411,0.008,0.617c0,10.112-0.008,20.224,0.012,30.335
		c0.003,1.234-0.417,2.141-1.421,2.892c-5.013,3.747-9.993,7.535-14.986,11.308c-1.644,1.243-3.399,2.259-5.493,2.494
		c-4.002,0.448-7.681-0.248-10.623-3.242c-1.049-1.065-1.553-2.405-1.553-3.918c0.002-10.173-0.011-20.346,0.016-30.52
		c0.006-2.298,1.078-4.146,2.771-5.643c0.554-0.49,1.149-0.938,1.757-1.358c4.417-3.057,8.841-6.104,13.268-9.148
		c1.19-0.819,2.311-0.791,3.273,0.061c0.561,0.496,0.775,1.149,0.783,1.875c0.011,1.112,0.018,2.225-0.002,3.336
		c-0.022,1.185-0.711,2.087-1.78,2.39c-1.044,0.295-2.079-0.147-2.733-1.167C153.063,15.691,153.021,15.646,152.935,15.538
		 M152.771,40.443c0.13-0.027,0.154-0.025,0.168-0.035c3.904-3.022,7.81-6.041,11.701-9.08c0.168-0.132,0.267-0.449,0.271-0.682
		c0.025-1.276,0.014-2.552,0.01-3.828c0-0.149-0.033-0.298-0.06-0.523c-4,3.107-7.931,6.158-11.854,9.216
		c-0.113,0.089-0.225,0.263-0.226,0.398C152.765,37.406,152.771,38.904,152.771,40.443"/>
	<path fill="#D9D9D9" d="M1395.481,88.21c0.295,0.136,0.607,0.242,0.879,0.413c0.707,0.446,1.125,1.11,1.144,1.94
		c0.03,1.314,0.052,2.635-0.046,3.944c-0.08,1.072-0.924,1.882-1.916,2.066c-0.975,0.181-1.934-0.271-2.514-1.182
		c-0.064-0.101-0.141-0.195-0.224-0.31c-0.145,0.077-0.274,0.135-0.394,0.21c-3.426,2.167-6.854,4.332-10.275,6.505
		c-1.313,0.834-1.883,2.257-1.518,3.726c0.212,0.85,0.643,1.213,1.523,1.245c1.778,0.064,3.371-0.589,4.831-1.479
		c2.986-1.821,5.923-3.722,8.855-5.629c3.295-2.143,6.561-4.331,9.842-6.496c1.147-0.757,2.246-0.731,3.184,0.056
		c1.023,0.86,1.136,2.71,0.202,3.664c-0.271,0.276-0.587,0.516-0.909,0.733c-3.842,2.586-7.692,5.157-11.531,7.746
		c-2.293,1.547-3.39,3.823-3.725,6.479c-0.188,1.486-0.249,2.996-0.254,4.495c-0.024,7.271-0.011,14.541-0.012,21.811
		c0,1.676-0.593,2.518-2.229,2.936c-3.856,0.986-7.641,0.783-11.241-0.999c-2.36-1.168-3.559-3.082-3.548-5.798
		c0.039-9.371,0.026-18.743,0.004-28.114c-0.002-1.513,0.051-2.997,0.591-4.432c0.599-1.588,1.549-2.903,2.987-3.822
		c4.787-3.057,9.578-6.106,14.381-9.138c0.424-0.268,0.943-0.384,1.419-0.57H1395.481z"/>
	<path fill="#D9D9D9" d="M1412.31,103.748c-2.797,1.936-5.559,3.84-8.31,5.756c-0.944,0.659-1.881,1.332-2.795,2.032
		c-0.985,0.755-1.35,1.772-1.17,3.001c0.133,0.909,0.917,1.541,2.04,1.623c1.941,0.142,3.722-0.434,5.365-1.361
		c1.465-0.826,2.878-1.764,4.225-2.773c4.348-3.259,8.653-6.576,12.982-9.862c0.406-0.308,0.829-0.643,1.299-0.812
		c1.584-0.567,3.059,0.503,3.227,2.288c0.02,0.204,0.01,0.411,0.01,0.617c0,10.112-0.009,20.223,0.011,30.335
		c0.003,1.234-0.417,2.141-1.421,2.892c-5.012,3.747-9.993,7.535-14.986,11.308c-1.644,1.243-3.398,2.259-5.493,2.494
		c-4.002,0.448-7.681-0.248-10.624-3.242c-1.048-1.065-1.552-2.405-1.552-3.918c0.002-10.173-0.011-20.347,0.015-30.52
		c0.006-2.298,1.079-4.146,2.771-5.643c0.554-0.49,1.148-0.938,1.757-1.358c4.417-3.057,8.841-6.104,13.267-9.148
		c1.191-0.819,2.312-0.791,3.274,0.062c0.56,0.496,0.776,1.148,0.783,1.875c0.01,1.112,0.018,2.225-0.002,3.336
		c-0.022,1.185-0.711,2.087-1.78,2.39c-1.044,0.295-2.079-0.147-2.732-1.167C1412.438,103.901,1412.396,103.856,1412.31,103.748
		 M1412.146,128.653c0.129-0.027,0.152-0.025,0.167-0.035c3.903-3.022,7.81-6.041,11.7-9.08c0.17-0.132,0.268-0.449,0.272-0.682
		c0.026-1.276,0.014-2.552,0.01-3.828c-0.001-0.149-0.032-0.298-0.06-0.523c-4,3.107-7.932,6.158-11.855,9.216
		c-0.112,0.088-0.224,0.263-0.225,0.398C1412.14,125.616,1412.146,127.114,1412.146,128.653"/>
	<path fill="#D9D9D9" d="M321.525,41.104c0.22,0.102,0.454,0.181,0.657,0.309c0.528,0.334,0.841,0.83,0.854,1.451
		c0.022,0.983,0.039,1.971-0.034,2.95c-0.06,0.802-0.691,1.408-1.433,1.546c-0.729,0.135-1.447-0.203-1.882-0.884
		c-0.047-0.076-0.104-0.146-0.165-0.232c-0.109,0.057-0.206,0.1-0.296,0.157c-2.563,1.62-5.127,3.24-7.686,4.865
		c-0.982,0.625-1.408,1.688-1.135,2.787c0.158,0.636,0.48,0.908,1.139,0.932c1.331,0.047,2.522-0.441,3.614-1.107
		c2.233-1.361,4.431-2.783,6.624-4.21c2.465-1.603,4.907-3.24,7.361-4.859c0.859-0.566,1.681-0.547,2.382,0.042
		c0.766,0.643,0.85,2.027,0.151,2.74c-0.203,0.207-0.439,0.387-0.681,0.549c-2.873,1.934-5.754,3.857-8.625,5.794
		c-1.716,1.157-2.534,2.86-2.786,4.846c-0.141,1.112-0.187,2.241-0.189,3.363c-0.02,5.438-0.01,10.876-0.01,16.315
		c0,1.253-0.442,1.883-1.666,2.196c-2.887,0.737-5.717,0.585-8.41-0.748c-1.766-0.873-2.661-2.305-2.653-4.337
		c0.028-7.009,0.021-14.02,0.003-21.029c-0.002-1.132,0.037-2.242,0.441-3.315c0.447-1.189,1.158-2.172,2.236-2.859
		c3.579-2.287,7.163-4.568,10.756-6.836c0.316-0.2,0.705-0.287,1.061-0.426H321.525z"/>
	<path fill="#D9D9D9" d="M334.112,52.726c-2.093,1.449-4.158,2.873-6.216,4.307c-0.707,0.492-1.405,0.996-2.09,1.52
		c-0.738,0.564-1.011,1.324-0.875,2.244c0.099,0.68,0.685,1.153,1.526,1.214c1.451,0.106,2.783-0.325,4.013-1.018
		c1.095-0.618,2.153-1.319,3.159-2.074c3.254-2.438,6.474-4.919,9.712-7.377c0.304-0.231,0.62-0.481,0.971-0.607
		c1.185-0.425,2.289,0.375,2.414,1.711c0.015,0.153,0.007,0.308,0.007,0.461c0,7.563-0.006,15.128,0.008,22.692
		c0.002,0.923-0.312,1.601-1.063,2.163c-3.749,2.802-7.475,5.636-11.209,8.458c-1.23,0.93-2.543,1.69-4.109,1.865
		c-2.994,0.336-5.746-0.184-7.947-2.424c-0.783-0.797-1.162-1.799-1.16-2.931c0.002-7.61-0.01-15.219,0.011-22.829
		c0.005-1.72,0.808-3.102,2.073-4.221c0.414-0.367,0.859-0.702,1.313-1.017c3.304-2.286,6.613-4.565,9.925-6.842
		c0.889-0.613,1.728-0.592,2.448,0.046c0.419,0.371,0.58,0.859,0.586,1.402c0.009,0.832,0.013,1.664-0.002,2.496
		c-0.016,0.886-0.532,1.562-1.331,1.787c-0.781,0.221-1.555-0.11-2.044-0.873C334.208,52.841,334.177,52.808,334.112,52.726
		 M333.989,71.356c0.098-0.02,0.114-0.018,0.125-0.026c2.92-2.261,5.842-4.519,8.752-6.792c0.127-0.099,0.2-0.336,0.205-0.51
		c0.018-0.955,0.01-1.909,0.006-2.864c0-0.111-0.023-0.222-0.043-0.391c-2.994,2.324-5.934,4.605-8.869,6.894
		c-0.084,0.066-0.166,0.196-0.168,0.298C333.985,69.085,333.989,70.205,333.989,71.356"/>
	<path fill="#D9D9D9" d="M1280.313,20.434c0.221,0.102,0.454,0.181,0.657,0.309c0.529,0.334,0.841,0.83,0.855,1.451
		c0.022,0.983,0.039,1.971-0.034,2.95c-0.059,0.802-0.691,1.408-1.434,1.546c-0.729,0.135-1.446-0.203-1.881-0.884
		c-0.048-0.076-0.104-0.146-0.166-0.232c-0.108,0.057-0.205,0.101-0.295,0.157c-2.563,1.62-5.127,3.24-7.686,4.866
		c-0.983,0.624-1.409,1.687-1.135,2.787c0.157,0.636,0.479,0.907,1.139,0.931c1.331,0.048,2.521-0.441,3.614-1.107
		c2.233-1.361,4.431-2.783,6.624-4.21c2.465-1.603,4.908-3.24,7.361-4.859c0.858-0.566,1.681-0.547,2.381,0.042
		c0.767,0.643,0.851,2.027,0.152,2.74c-0.203,0.207-0.439,0.387-0.681,0.549c-2.873,1.934-5.754,3.857-8.625,5.794
		c-1.716,1.157-2.535,2.86-2.786,4.846c-0.141,1.112-0.188,2.241-0.19,3.363c-0.019,5.438-0.008,10.877-0.009,16.314
		c0,1.253-0.443,1.884-1.667,2.196c-2.886,0.737-5.716,0.585-8.41-0.747c-1.765-0.874-2.661-2.306-2.652-4.338
		c0.028-7.009,0.02-14.019,0.003-21.029c-0.002-1.132,0.037-2.242,0.441-3.314c0.448-1.188,1.158-2.172,2.235-2.859
		c3.58-2.287,7.164-4.568,10.756-6.836c0.317-0.2,0.706-0.287,1.062-0.426H1280.313z"/>
	<path fill="#D9D9D9" d="M1292.901,32.056c-2.093,1.449-4.158,2.873-6.216,4.307c-0.707,0.492-1.406,0.996-2.09,1.52
		c-0.738,0.564-1.011,1.324-0.875,2.244c0.099,0.68,0.685,1.153,1.525,1.214c1.451,0.106,2.783-0.324,4.014-1.018
		c1.095-0.618,2.152-1.319,3.159-2.074c3.254-2.438,6.474-4.919,9.711-7.377c0.305-0.231,0.62-0.481,0.972-0.607
		c1.185-0.425,2.289,0.375,2.414,1.711c0.014,0.153,0.007,0.308,0.007,0.462c0,7.563-0.006,15.127,0.008,22.691
		c0.002,0.923-0.312,1.601-1.063,2.163c-3.749,2.802-7.476,5.636-11.209,8.458c-1.23,0.93-2.543,1.69-4.109,1.866
		c-2.994,0.335-5.746-0.185-7.947-2.425c-0.784-0.797-1.162-1.799-1.161-2.931c0.002-7.61-0.009-15.219,0.012-22.829
		c0.005-1.719,0.807-3.101,2.072-4.221c0.414-0.367,0.859-0.702,1.314-1.017c3.304-2.286,6.613-4.565,9.924-6.842
		c0.89-0.612,1.729-0.592,2.449,0.046c0.419,0.371,0.58,0.859,0.586,1.402c0.007,0.832,0.013,1.664-0.002,2.496
		c-0.017,0.886-0.532,1.561-1.331,1.787c-0.781,0.221-1.555-0.11-2.044-0.873C1292.996,32.17,1292.966,32.138,1292.901,32.056
		 M1292.778,50.686c0.097-0.02,0.114-0.018,0.125-0.026c2.92-2.261,5.842-4.519,8.752-6.792c0.127-0.099,0.2-0.336,0.204-0.51
		c0.019-0.954,0.01-1.909,0.007-2.864c0-0.111-0.023-0.222-0.044-0.391c-2.993,2.324-5.933,4.606-8.868,6.894
		c-0.085,0.066-0.167,0.196-0.169,0.298C1292.774,48.415,1292.778,49.535,1292.778,50.686"/>
	<path fill="#D9D9D9" d="M438.058,156.473c0.22,0.102,0.453,0.181,0.656,0.309c0.529,0.334,0.842,0.83,0.855,1.451
		c0.023,0.983,0.039,1.971-0.034,2.95c-0.06,0.802-0.69,1.408-1.433,1.546c-0.729,0.135-1.447-0.203-1.881-0.884
		c-0.049-0.076-0.104-0.146-0.166-0.232c-0.109,0.057-0.206,0.1-0.295,0.157c-2.563,1.62-5.127,3.24-7.687,4.865
		c-0.983,0.625-1.409,1.688-1.135,2.787c0.157,0.636,0.479,0.908,1.14,0.932c1.33,0.047,2.521-0.441,3.613-1.107
		c2.234-1.361,4.432-2.783,6.624-4.21c2.465-1.603,4.907-3.24,7.362-4.859c0.857-0.566,1.68-0.547,2.381,0.042
		c0.766,0.643,0.85,2.027,0.152,2.74c-0.203,0.207-0.44,0.387-0.682,0.549c-2.873,1.934-5.754,3.857-8.625,5.794
		c-1.716,1.157-2.535,2.86-2.786,4.846c-0.141,1.112-0.187,2.241-0.19,3.363c-0.019,5.438-0.008,10.876-0.008,16.315
		c0,1.253-0.443,1.883-1.668,2.196c-2.886,0.737-5.715,0.585-8.41-0.748c-1.764-0.873-2.66-2.305-2.652-4.337
		c0.029-7.009,0.02-14.019,0.003-21.029c-0.002-1.132,0.037-2.242,0.442-3.315c0.447-1.189,1.158-2.172,2.234-2.859
		c3.58-2.287,7.164-4.568,10.756-6.836c0.317-0.2,0.707-0.287,1.062-0.426H438.058z"/>
	<path fill="#D9D9D9" d="M450.646,168.095c-2.094,1.449-4.158,2.873-6.217,4.307c-0.707,0.492-1.406,0.996-2.09,1.52
		c-0.738,0.564-1.01,1.324-0.875,2.244c0.1,0.68,0.686,1.153,1.525,1.214c1.451,0.106,2.783-0.325,4.014-1.018
		c1.095-0.618,2.152-1.319,3.16-2.074c3.253-2.438,6.473-4.919,9.711-7.377c0.304-0.231,0.619-0.481,0.971-0.607
		c1.186-0.425,2.289,0.375,2.414,1.711c0.014,0.153,0.007,0.308,0.007,0.461c0,7.564-0.006,15.128,0.009,22.692
		c0.002,0.923-0.313,1.601-1.063,2.163c-3.749,2.802-7.476,5.636-11.209,8.458c-1.229,0.93-2.543,1.689-4.108,1.865
		c-2.994,0.336-5.746-0.184-7.947-2.424c-0.784-0.797-1.162-1.799-1.162-2.931c0.003-7.61-0.008-15.219,0.012-22.829
		c0.005-1.72,0.807-3.102,2.072-4.221c0.414-0.367,0.859-0.702,1.314-1.017c3.305-2.286,6.613-4.565,9.924-6.842
		c0.891-0.613,1.729-0.592,2.449,0.046c0.419,0.371,0.58,0.859,0.586,1.402c0.008,0.832,0.014,1.664-0.002,2.496
		c-0.016,0.886-0.531,1.561-1.33,1.787c-0.781,0.221-1.556-0.11-2.045-0.873C450.739,168.21,450.709,168.177,450.646,168.095
		 M450.522,186.725c0.096-0.02,0.113-0.018,0.125-0.026c2.92-2.261,5.842-4.519,8.752-6.792c0.127-0.099,0.199-0.336,0.203-0.51
		c0.02-0.955,0.01-1.909,0.008-2.864c0-0.111-0.024-0.222-0.045-0.391c-2.992,2.324-5.933,4.606-8.867,6.894
		c-0.086,0.066-0.168,0.196-0.168,0.298C450.519,184.454,450.522,185.574,450.522,186.725"/>
	<path fill="#D9D9D9" d="M455.624,13.743c0.184,0.085,0.379,0.151,0.549,0.258c0.44,0.278,0.7,0.692,0.711,1.209
		c0.02,0.819,0.033,1.643-0.027,2.459c-0.051,0.669-0.576,1.174-1.194,1.289c-0.608,0.113-1.207-0.17-1.567-0.737
		c-0.041-0.063-0.088-0.122-0.14-0.194c-0.091,0.048-0.172,0.084-0.245,0.131c-2.137,1.351-4.273,2.701-6.406,4.056
		c-0.819,0.52-1.174,1.407-0.947,2.323c0.132,0.53,0.4,0.756,0.951,0.776c1.107,0.04,2.101-0.367,3.012-0.922
		c1.861-1.135,3.693-2.32,5.521-3.509c2.054-1.337,4.09-2.701,6.135-4.05c0.717-0.473,1.402-0.457,1.986,0.034
		c0.637,0.536,0.707,1.689,0.125,2.284c-0.168,0.173-0.365,0.323-0.566,0.458c-2.395,1.612-4.797,3.215-7.189,4.829
		c-1.43,0.965-2.113,2.384-2.322,4.04c-0.117,0.926-0.155,1.868-0.158,2.802c-0.016,4.533-0.008,9.067-0.008,13.599
		c0,1.045-0.369,1.571-1.39,1.831c-2.405,0.615-4.764,0.488-7.009-0.623c-1.473-0.728-2.219-1.922-2.212-3.615
		c0.024-5.843,0.016-11.686,0.003-17.529c-0.002-0.943,0.031-1.868,0.368-2.763c0.372-0.99,0.965-1.81,1.862-2.383
		c2.984-1.906,5.972-3.807,8.965-5.698c0.266-0.166,0.59-0.239,0.886-0.355H455.624z"/>
	<path fill="#D9D9D9" d="M466.116,23.431c-1.744,1.207-3.465,2.394-5.182,3.589c-0.589,0.411-1.172,0.831-1.742,1.267
		c-0.615,0.471-0.842,1.104-0.729,1.871c0.083,0.567,0.57,0.961,1.271,1.012c1.209,0.088,2.32-0.271,3.344-0.849
		c0.914-0.515,1.795-1.1,2.635-1.729c2.712-2.031,5.396-4.1,8.095-6.148c0.253-0.193,0.517-0.402,0.81-0.507
		c0.987-0.353,1.908,0.314,2.013,1.427c0.012,0.127,0.005,0.256,0.005,0.384c0.001,6.305-0.005,12.61,0.007,18.914
		c0.002,0.77-0.26,1.335-0.886,1.803c-3.125,2.336-6.23,4.698-9.344,7.051c-1.024,0.774-2.119,1.408-3.424,1.554
		c-2.496,0.28-4.789-0.154-6.625-2.021c-0.652-0.664-0.968-1.499-0.968-2.442c0.002-6.343-0.007-12.686,0.011-19.029
		c0.004-1.434,0.672-2.586,1.727-3.519c0.345-0.305,0.716-0.585,1.096-0.847c2.754-1.906,5.512-3.805,8.271-5.703
		c0.742-0.511,1.441-0.494,2.041,0.038c0.35,0.309,0.484,0.716,0.488,1.169c0.008,0.693,0.012,1.387,0,2.08
		c-0.015,0.739-0.443,1.301-1.11,1.49c-0.651,0.184-1.296-0.092-1.704-0.728C466.196,23.525,466.17,23.498,466.116,23.431
		 M466.014,38.958c0.081-0.016,0.095-0.015,0.104-0.022c2.434-1.884,4.869-3.766,7.295-5.661c0.105-0.083,0.166-0.28,0.17-0.425
		c0.016-0.796,0.009-1.591,0.006-2.387c0-0.093-0.02-0.186-0.037-0.326c-2.494,1.937-4.945,3.839-7.393,5.746
		c-0.069,0.055-0.139,0.164-0.14,0.248C466.01,37.065,466.014,37.999,466.014,38.958"/>
	<path fill="#D9D9D9" d="M1496.253,14.14c0.183,0.085,0.378,0.151,0.548,0.258c0.44,0.278,0.701,0.691,0.712,1.209
		c0.02,0.819,0.033,1.643-0.028,2.459c-0.05,0.669-0.575,1.174-1.194,1.288c-0.607,0.113-1.206-0.169-1.567-0.736
		c-0.04-0.063-0.087-0.122-0.139-0.194c-0.091,0.048-0.172,0.084-0.246,0.131c-2.136,1.351-4.273,2.701-6.406,4.056
		c-0.82,0.52-1.174,1.407-0.947,2.323c0.132,0.53,0.401,0.756,0.95,0.776c1.109,0.04,2.103-0.367,3.014-0.922
		c1.86-1.135,3.692-2.32,5.521-3.509c2.054-1.337,4.09-2.701,6.136-4.051c0.717-0.472,1.401-0.456,1.985,0.035
		c0.638,0.536,0.708,1.688,0.126,2.284c-0.168,0.173-0.366,0.322-0.567,0.458c-2.395,1.612-4.796,3.215-7.188,4.829
		c-1.43,0.965-2.113,2.384-2.323,4.04c-0.117,0.926-0.155,1.868-0.158,2.802c-0.016,4.533-0.007,9.066-0.007,13.599
		c0,1.045-0.37,1.57-1.39,1.831c-2.405,0.615-4.765,0.488-7.009-0.623c-1.473-0.728-2.22-1.922-2.213-3.615
		c0.024-5.843,0.017-11.686,0.004-17.529c-0.003-0.943,0.03-1.868,0.367-2.763c0.373-0.99,0.965-1.81,1.862-2.383
		c2.985-1.906,5.972-3.808,8.966-5.698c0.266-0.167,0.589-0.239,0.885-0.355H1496.253z"/>
	<path fill="#D9D9D9" d="M1506.744,23.827c-1.744,1.207-3.465,2.395-5.18,3.589c-0.591,0.41-1.173,0.83-1.743,1.267
		c-0.615,0.47-0.841,1.104-0.729,1.871c0.083,0.567,0.571,0.96,1.272,1.012c1.21,0.088,2.32-0.271,3.345-0.849
		c0.913-0.515,1.794-1.1,2.634-1.729c2.711-2.032,5.396-4.1,8.095-6.149c0.253-0.192,0.517-0.401,0.81-0.506
		c0.987-0.353,1.907,0.313,2.012,1.426c0.013,0.128,0.006,0.257,0.006,0.385c0,6.305-0.006,12.609,0.008,18.914
		c0.001,0.77-0.262,1.335-0.888,1.803c-3.125,2.336-6.229,4.698-9.343,7.051c-1.024,0.774-2.12,1.408-3.425,1.554
		c-2.496,0.28-4.789-0.154-6.624-2.021c-0.653-0.664-0.968-1.499-0.968-2.443c0.002-6.343-0.007-12.686,0.01-19.029
		c0.003-1.433,0.672-2.585,1.728-3.518c0.345-0.305,0.717-0.585,1.096-0.847c2.754-1.906,5.512-3.806,8.271-5.703
		c0.742-0.511,1.44-0.494,2.041,0.038c0.35,0.309,0.484,0.716,0.488,1.169c0.007,0.693,0.011,1.387-0.001,2.08
		c-0.014,0.738-0.443,1.301-1.11,1.49c-0.65,0.184-1.296-0.092-1.704-0.728C1506.824,23.922,1506.798,23.895,1506.744,23.827
		 M1506.643,39.355c0.081-0.017,0.095-0.015,0.104-0.022c2.435-1.884,4.87-3.766,7.296-5.661c0.105-0.083,0.166-0.28,0.169-0.426
		c0.017-0.795,0.009-1.59,0.006-2.386c0-0.093-0.02-0.186-0.036-0.326c-2.494,1.938-4.945,3.839-7.393,5.746
		c-0.07,0.055-0.139,0.164-0.14,0.248C1506.638,37.462,1506.643,38.396,1506.643,39.355"/>
	<path fill="#D9D9D9" d="M1086.563,11.8c0.183,0.085,0.378,0.151,0.548,0.258c0.44,0.278,0.701,0.691,0.712,1.209
		c0.02,0.819,0.033,1.643-0.028,2.459c-0.05,0.669-0.575,1.174-1.194,1.289c-0.607,0.112-1.206-0.17-1.567-0.737
		c-0.04-0.063-0.087-0.122-0.139-0.194c-0.091,0.048-0.172,0.084-0.246,0.131c-2.136,1.351-4.273,2.701-6.406,4.056
		c-0.82,0.52-1.174,1.407-0.946,2.323c0.131,0.53,0.4,0.756,0.949,0.776c1.109,0.04,2.103-0.367,3.014-0.922
		c1.86-1.135,3.692-2.32,5.521-3.509c2.054-1.337,4.09-2.701,6.136-4.051c0.717-0.472,1.401-0.456,1.985,0.035
		c0.638,0.536,0.708,1.689,0.126,2.284c-0.168,0.173-0.366,0.322-0.567,0.458c-2.395,1.612-4.796,3.215-7.188,4.829
		c-1.43,0.965-2.113,2.384-2.323,4.04c-0.117,0.926-0.155,1.868-0.158,2.802c-0.015,4.533-0.007,9.066-0.007,13.599
		c0,1.045-0.37,1.571-1.39,1.831c-2.405,0.615-4.765,0.488-7.009-0.623c-1.473-0.728-2.22-1.922-2.213-3.615
		c0.024-5.843,0.017-11.686,0.004-17.529c-0.003-0.943,0.03-1.868,0.367-2.763c0.373-0.99,0.965-1.81,1.862-2.383
		c2.985-1.906,5.972-3.807,8.966-5.698c0.266-0.166,0.589-0.239,0.885-0.355H1086.563z"/>
	<path fill="#D9D9D9" d="M1097.055,21.488c-1.744,1.207-3.465,2.394-5.18,3.589c-0.591,0.41-1.173,0.83-1.743,1.267
		c-0.615,0.471-0.841,1.104-0.729,1.871c0.083,0.567,0.571,0.96,1.272,1.012c1.21,0.088,2.32-0.271,3.345-0.849
		c0.913-0.515,1.794-1.1,2.634-1.729c2.711-2.032,5.396-4.1,8.095-6.148c0.253-0.193,0.517-0.402,0.81-0.507
		c0.987-0.354,1.907,0.314,2.012,1.426c0.013,0.128,0.006,0.257,0.006,0.385c0,6.305-0.006,12.609,0.008,18.914
		c0.001,0.77-0.262,1.335-0.888,1.803c-3.125,2.336-6.229,4.698-9.343,7.051c-1.024,0.774-2.12,1.408-3.425,1.554
		c-2.496,0.28-4.789-0.154-6.624-2.021c-0.653-0.664-0.968-1.499-0.968-2.442c0.002-6.343-0.007-12.687,0.01-19.029
		c0.004-1.434,0.672-2.586,1.728-3.519c0.345-0.305,0.717-0.585,1.096-0.847c2.754-1.906,5.512-3.805,8.271-5.703
		c0.742-0.511,1.44-0.494,2.041,0.038c0.35,0.309,0.484,0.716,0.488,1.169c0.007,0.693,0.011,1.387-0.001,2.08
		c-0.014,0.738-0.443,1.301-1.11,1.49c-0.65,0.184-1.296-0.092-1.704-0.728C1097.135,21.583,1097.108,21.555,1097.055,21.488
		 M1096.953,37.016c0.081-0.017,0.095-0.015,0.104-0.021c2.435-1.884,4.87-3.766,7.296-5.661c0.105-0.083,0.166-0.28,0.169-0.426
		c0.017-0.795,0.009-1.59,0.006-2.386c0-0.093-0.02-0.186-0.036-0.326c-2.494,1.937-4.945,3.839-7.393,5.746
		c-0.07,0.055-0.139,0.164-0.14,0.248C1096.948,35.123,1096.953,36.056,1096.953,37.016"/>
</g>
</svg>
