<?xml version="1.0" encoding="utf-8"?>
<!-- Generator: Adobe Illustrator 16.0.0, SVG Export Plug-In . SVG Version: 6.00 Build 0)  -->
<!DOCTYPE svg PUBLIC "-//W3C//DTD SVG 1.1//EN" "http://www.w3.org/Graphics/SVG/1.1/DTD/svg11.dtd">
<svg version="1.1" id="Layer_1" xmlns="http://www.w3.org/2000/svg" xmlns:xlink="http://www.w3.org/1999/xlink" x="0px" y="0px"
	 width="1656.239px" height="239.235px" viewBox="0 0 1656.239 239.235" enable-background="new 0 0 1656.239 239.235"
	 xml:space="preserve">
<g>
	<g>
		<path fill="#D9D9D9" d="M75.128,79.095c1.213,0.992,2.504,1.905,3.625,2.993c2.6,2.527,5.199,5.064,7.646,7.737
			c3.022,3.302,6.6,3.423,10.614,2.473c3.354-0.795,6.772-1.381,10.192-1.815c3.188-0.405,7.903,3.207,8.245,7.218
			c0.384,4.506,1.268,9.015,2.441,13.385c0.447,1.66,2.064,3.325,3.586,4.309c2.886,1.863,5.988,3.486,9.18,4.761
			c6.512,2.602,7.798,7.85,4.305,14.194c-1.729,3.139-3.089,6.483-4.828,9.616c-1.468,2.642-0.369,4.947,0.678,7.179
			c1.627,3.468,3.582,6.782,5.328,10.197c2.236,4.377,0.123,9.211-4.931,11.549c-2.907,1.345-5.774,2.781-8.663,4.171
			c-3.684,1.772-5.361,4.861-5.842,8.777c-0.441,3.588-0.758,7.206-1.46,10.745c-0.817,4.115-5.846,7.07-10.028,5.947
			c-3.923-1.052-8.029-1.43-12.066-2.03c-2.367-0.351-4.313,0.635-5.958,2.259c-2.579,2.548-5.191,5.068-7.681,7.701
			c-4.572,4.83-8.932,4.905-13.47,0.008c-2.089-2.253-4.438-4.273-6.448-6.589c-3.111-3.583-6.883-3.914-11.168-2.923
			c-3.287,0.76-6.613,1.461-9.961,1.798c-3.564,0.359-7.842-2.809-8.351-7.064c-0.521-4.346-1.454-8.643-2.179-12.966
			c-0.522-3.116-2.906-4.547-5.35-5.85c-3.236-1.726-6.519-3.378-9.836-4.946c-4.506-2.129-4.865-7.375-3.133-10.943
			c1.878-3.868,3.684-7.779,5.754-11.543c1.459-2.652,0.395-4.948-0.617-7.194c-1.475-3.273-3.39-6.346-4.881-9.613
			c-2.956-6.474-0.348-9.865,4.311-12.204c3.082-1.548,6.104-3.23,9.25-4.633c3.554-1.584,4.771-4.607,5.322-8.044
			c0.584-3.647,0.846-7.347,1.482-10.982c0.697-3.977,5.879-7.257,10.193-6.042c3.828,1.078,7.863,1.429,11.815,2.05
			c2.472,0.388,4.468-0.65,6.166-2.328c2.747-2.715,5.425-5.5,8.195-8.189c1.177-1.142,2.517-2.117,3.782-3.168H75.128z
			 M72.849,193.702c26.166-0.455,47.836-21.19,47.826-48.315c-0.012-27.094-21.879-48.148-47.974-48.107
			c-25.954,0.04-47.853,20.972-47.837,48.25C24.88,172.533,46.662,193.367,72.849,193.702"/>
		<path fill="#D9D9D9" d="M119.19,239.235c-2.011-2.069-3.998-4.161-6.035-6.202c-7.742-7.754-15.5-15.491-23.248-23.241
			c-0.322-0.324-0.584-0.711-0.918-1.124c1.431-1.874,2.94-2.758,5.471-2.309c4.475,0.793,9.027,1.183,13.559,1.611
			c5.934,0.561,11.76-5.132,12.385-10.103c0.324-2.589,1.059-5.127,1.608-7.687c0.317-0.277,0.636-0.554,0.955-0.83
			c0.544,0.956,0.914,2.084,1.661,2.841c5.982,6.07,12.04,12.064,18.063,18.094c1.566,1.568,3.506,3.221,2.479,5.668
			c-1.037,2.469-3.413,3.137-6.029,3.396c-3.114,0.307-6.19,1.015-9.274,1.596c-2.342,0.44-2.732,2.394-3.058,4.267
			c-0.561,3.247-0.795,6.567-1.602,9.746c-0.396,1.554-1.771,2.859-2.7,4.277H119.19z"/>
		<path fill="#D9D9D9" d="M23.011,239.235c-3.698-3.073-2.786-7.757-4.051-11.679c-0.26-0.806-0.135-1.728-0.271-2.583
			c-0.468-2.931-1.511-3.92-4.421-4.348c-3.182-0.467-6.432-0.699-9.506-1.557c-1.654-0.462-3.438-1.735-4.371-3.16
			c-1.033-1.574,0.164-3.325,1.441-4.611c6.953-6.996,13.922-13.975,20.898-20.947c0.141-0.14,0.436-0.124,0.991-0.266
			c0.12,1.035,0.228,1.995,0.344,2.955c0.745,6.201,2.505,12.108,9.127,14.071c3.511,1.04,7.566,0.439,11.36,0.255
			c2.729-0.132,5.429-1.082,8.146-1.107c1.317-0.012,2.646,1.265,4.418,2.193c-4.938,4.876-9.406,9.302-13.891,13.713
			c-5.503,5.413-11.021,10.811-16.518,16.23c-0.205,0.202-0.26,0.557-0.383,0.841H23.011z"/>
		<path fill="#D9D9D9" d="M113.472,145.886c-0.67,25.158-20.738,41.023-41.312,40.497c-23.907-0.612-40.877-19.859-40.045-42.412
			c0.888-24.102,20.628-40.32,41.712-39.584C97.119,105.201,113.657,123.917,113.472,145.886"/>
		<path fill="#D9D9D9" d="M274.979,118.113c0.868,0.71,1.791,1.362,2.592,2.14c1.857,1.806,3.715,3.618,5.463,5.529
			c2.16,2.36,4.718,2.447,7.588,1.767c2.396-0.568,4.839-0.987,7.283-1.297c2.279-0.289,5.648,2.292,5.893,5.159
			c0.275,3.22,0.904,6.442,1.746,9.566c0.318,1.186,1.475,2.376,2.563,3.079c2.063,1.332,4.279,2.492,6.561,3.403
			c4.654,1.86,5.572,5.61,3.076,10.144c-1.236,2.244-2.209,4.634-3.451,6.873c-1.049,1.888-0.264,3.535,0.484,5.13
			c1.164,2.479,2.562,4.847,3.809,7.288c1.598,3.128,0.087,6.583-3.524,8.254c-2.079,0.961-4.127,1.988-6.192,2.981
			c-2.631,1.266-3.83,3.474-4.174,6.273c-0.315,2.564-0.541,5.15-1.043,7.679c-0.584,2.941-4.179,5.053-7.168,4.25
			c-2.803-0.752-5.738-1.022-8.623-1.45c-1.691-0.251-3.084,0.453-4.259,1.614c-1.843,1.821-3.71,3.622-5.489,5.504
			c-3.267,3.452-6.383,3.505-9.627,0.006c-1.492-1.611-3.172-3.054-4.608-4.71c-2.224-2.56-4.918-2.797-7.981-2.088
			c-2.348,0.543-4.726,1.044-7.118,1.285c-2.547,0.256-5.604-2.008-5.969-5.049c-0.372-3.106-1.039-6.177-1.557-9.266
			c-0.373-2.228-2.077-3.251-3.823-4.181c-2.313-1.234-4.659-2.415-7.03-3.535c-3.22-1.522-3.477-5.271-2.238-7.822
			c1.342-2.764,2.632-5.559,4.111-8.249c1.043-1.895,0.283-3.536-0.439-5.142c-1.055-2.338-2.424-4.535-3.489-6.869
			c-2.112-4.627-0.248-7.051,3.08-8.722c2.203-1.107,4.362-2.309,6.612-3.312c2.539-1.132,3.408-3.292,3.803-5.749
			c0.418-2.606,0.605-5.25,1.061-7.848c0.498-2.842,4.2-5.187,7.283-4.318c2.736,0.771,5.621,1.021,8.445,1.465
			c1.766,0.277,3.194-0.465,4.407-1.664c1.963-1.94,3.877-3.931,5.856-5.853c0.841-0.817,1.8-1.513,2.703-2.265H274.979z
			 M273.351,200.022c18.7-0.325,34.187-15.145,34.179-34.531c-0.006-19.363-15.635-34.41-34.285-34.381
			c-18.549,0.029-34.198,14.988-34.188,34.484C239.067,184.893,254.635,199.782,273.351,200.022"/>
		<path fill="#D9D9D9" d="M306.47,232.563c-1.437-1.478-2.856-2.973-4.312-4.432c-5.533-5.542-11.08-11.072-16.615-16.611
			c-0.23-0.231-0.418-0.507-0.657-0.803c1.022-1.339,2.103-1.971,3.91-1.65c3.198,0.567,6.45,0.846,9.69,1.152
			c4.24,0.4,8.403-3.668,8.851-7.221c0.233-1.85,0.757-3.664,1.149-5.494c0.228-0.198,0.455-0.395,0.683-0.593
			c0.389,0.683,0.653,1.489,1.187,2.03c4.275,4.338,8.605,8.622,12.91,12.932c1.119,1.12,2.506,2.302,1.771,4.05
			c-0.741,1.765-2.439,2.243-4.309,2.427c-2.226,0.22-4.425,0.726-6.629,1.142c-1.674,0.315-1.953,1.71-2.185,3.049
			c-0.401,2.32-0.568,4.694-1.146,6.965c-0.281,1.111-1.264,2.044-1.93,3.057H306.47z"/>
		<path fill="#D9D9D9" d="M237.731,232.563c-2.643-2.196-1.99-5.544-2.895-8.347c-0.186-0.576-0.096-1.235-0.193-1.846
			c-0.334-2.094-1.08-2.802-3.16-3.106c-2.272-0.334-4.596-0.5-6.793-1.113c-1.183-0.33-2.457-1.24-3.125-2.259
			c-0.737-1.125,0.119-2.376,1.031-3.295c4.969-5,9.95-9.987,14.937-14.97c0.1-0.1,0.312-0.089,0.708-0.19
			c0.086,0.739,0.162,1.425,0.246,2.111c0.531,4.432,1.789,8.654,6.521,10.057c2.51,0.743,5.408,0.314,8.12,0.182
			c1.95-0.094,3.88-0.773,5.822-0.791c0.941-0.009,1.891,0.904,3.156,1.568c-3.527,3.484-6.723,6.647-9.927,9.8
			c-3.933,3.868-7.877,7.726-11.806,11.599c-0.146,0.144-0.185,0.398-0.272,0.601H237.731z"/>
		<path fill="#D9D9D9" d="M302.383,165.848c-0.479,17.98-14.821,29.319-29.524,28.943c-17.086-0.438-29.214-14.194-28.619-30.312
			c0.635-17.225,14.742-28.815,29.811-28.289C290.697,136.771,302.516,150.147,302.383,165.848"/>
		<path fill="#D9D9D9" d="M170.65,5.872c0.593,0.486,1.226,0.932,1.772,1.465c1.272,1.236,2.545,2.477,3.742,3.785
			c1.478,1.615,3.229,1.675,5.192,1.209c1.642-0.388,3.313-0.675,4.986-0.888c1.56-0.198,3.866,1.569,4.034,3.532
			c0.188,2.204,0.619,4.41,1.194,6.548c0.218,0.812,1.009,1.627,1.755,2.108c1.41,0.912,2.928,1.706,4.489,2.33
			c3.187,1.273,3.815,3.84,2.106,6.944c-0.846,1.536-1.512,3.172-2.362,4.704c-0.718,1.293-0.181,2.42,0.332,3.512
			c0.796,1.697,1.753,3.318,2.606,4.989c1.095,2.141,0.06,4.506-2.412,5.65c-1.422,0.658-2.825,1.361-4.238,2.041
			c-1.803,0.866-2.623,2.378-2.857,4.294c-0.217,1.755-0.371,3.525-0.715,5.257c-0.4,2.013-2.859,3.458-4.906,2.909
			c-1.918-0.515-3.929-0.7-5.904-0.993c-1.156-0.172-2.109,0.31-2.913,1.105c-1.263,1.247-2.54,2.479-3.759,3.767
			c-2.235,2.364-4.369,2.4-6.59,0.005c-1.021-1.103-2.17-2.091-3.154-3.224c-1.522-1.753-3.367-1.915-5.463-1.43
			c-1.608,0.372-3.236,0.715-4.875,0.88c-1.742,0.175-3.836-1.375-4.084-3.456c-0.254-2.127-0.711-4.229-1.066-6.344
			c-0.255-1.524-1.422-2.224-2.617-2.862c-1.583-0.844-3.189-1.652-4.813-2.419c-2.203-1.042-2.379-3.608-1.532-5.354
			c0.919-1.893,1.802-3.806,2.815-5.647c0.713-1.298,0.193-2.421-0.302-3.52c-0.722-1.601-1.659-3.105-2.388-4.703
			c-1.446-3.167-0.17-4.826,2.107-5.97c1.508-0.758,2.987-1.58,4.526-2.267c1.738-0.775,2.334-2.254,2.603-3.936
			c0.287-1.783,0.414-3.594,0.727-5.372c0.341-1.946,2.876-3.55,4.986-2.956c1.873,0.528,3.848,0.699,5.781,1.003
			c1.209,0.19,2.186-0.318,3.017-1.139c1.344-1.328,2.653-2.691,4.009-4.007c0.576-0.558,1.23-1.036,1.852-1.55H170.65z
			 M169.536,61.941c12.801-0.222,23.402-10.367,23.396-23.638c-0.005-13.255-10.703-23.555-23.469-23.535
			c-12.698,0.019-23.411,10.26-23.404,23.605C146.067,51.584,156.724,61.777,169.536,61.941"/>
		<path fill="#D9D9D9" d="M192.206,84.217c-0.982-1.012-1.955-2.036-2.951-3.034c-3.788-3.794-7.584-7.579-11.373-11.371
			c-0.159-0.158-0.286-0.347-0.45-0.549c0.7-0.917,1.438-1.35,2.677-1.13c2.188,0.388,4.416,0.579,6.633,0.788
			c2.902,0.274,5.754-2.511,6.059-4.943c0.16-1.266,0.52-2.508,0.787-3.76c0.156-0.136,0.312-0.271,0.468-0.406
			c0.267,0.467,0.446,1.019,0.812,1.39c2.928,2.969,5.892,5.902,8.838,8.852c0.767,0.767,1.716,1.575,1.213,2.771
			c-0.508,1.208-1.67,1.536-2.949,1.662c-1.523,0.15-3.029,0.497-4.538,0.781c-1.146,0.216-1.337,1.171-1.495,2.088
			c-0.275,1.588-0.39,3.212-0.785,4.767c-0.193,0.761-0.865,1.399-1.32,2.093H192.206z"/>
		<path fill="#D9D9D9" d="M145.153,84.217c-1.81-1.504-1.363-3.795-1.981-5.714c-0.128-0.394-0.065-0.845-0.133-1.264
			c-0.229-1.433-0.739-1.917-2.163-2.127c-1.557-0.228-3.146-0.342-4.65-0.761c-0.81-0.226-1.682-0.849-2.139-1.546
			c-0.505-0.771,0.08-1.627,0.706-2.256c3.401-3.423,6.812-6.837,10.224-10.248c0.068-0.068,0.213-0.062,0.484-0.13
			c0.059,0.506,0.111,0.976,0.169,1.445c0.364,3.034,1.226,5.924,4.465,6.884c1.718,0.509,3.701,0.215,5.558,0.125
			c1.336-0.064,2.656-0.529,3.986-0.541c0.645-0.006,1.295,0.618,2.161,1.073c-2.416,2.385-4.603,4.55-6.796,6.708
			c-2.693,2.649-5.393,5.289-8.082,7.94c-0.1,0.099-0.126,0.273-0.186,0.412H145.153z"/>
		<path fill="#D9D9D9" d="M189.409,38.548c-0.327,12.308-10.146,20.07-20.211,19.812c-11.695-0.299-19.998-9.715-19.592-20.749
			c0.436-11.791,10.092-19.726,20.407-19.365C181.409,18.643,189.5,27.8,189.409,38.548"/>
		<path fill="#D9D9D9" d="M423.332,91.483c0.395,0.323,0.815,0.62,1.181,0.975c0.849,0.824,1.694,1.651,2.493,2.522
			c0.984,1.077,2.15,1.116,3.46,0.806c1.094-0.258,2.208-0.45,3.323-0.591c1.039-0.132,2.576,1.045,2.687,2.354
			c0.125,1.469,0.413,2.938,0.796,4.363c0.146,0.541,0.674,1.084,1.17,1.405c0.94,0.607,1.951,1.136,2.992,1.552
			c2.122,0.848,2.541,2.559,1.403,4.627c-0.564,1.023-1.007,2.113-1.574,3.135c-0.479,0.861-0.121,1.612,0.222,2.34
			c0.53,1.13,1.168,2.211,1.736,3.324c0.729,1.427,0.04,3.002-1.607,3.765c-0.949,0.438-1.883,0.906-2.824,1.359
			c-1.201,0.578-1.748,1.585-1.904,2.861c-0.145,1.17-0.247,2.35-0.477,3.503c-0.266,1.342-1.905,2.305-3.269,1.939
			c-1.278-0.343-2.618-0.466-3.935-0.662c-0.771-0.114-1.405,0.207-1.941,0.737c-0.84,0.83-1.691,1.651-2.504,2.51
			c-1.49,1.574-2.911,1.599-4.391,0.003c-0.681-0.735-1.446-1.393-2.103-2.148c-1.014-1.168-2.243-1.276-3.64-0.953
			c-1.071,0.248-2.156,0.476-3.247,0.586c-1.162,0.117-2.556-0.916-2.722-2.303c-0.17-1.417-0.475-2.817-0.711-4.226
			c-0.17-1.016-0.947-1.483-1.744-1.907c-1.056-0.563-2.125-1.102-3.207-1.613c-1.469-0.694-1.586-2.404-1.021-3.567
			c0.612-1.261,1.201-2.536,1.876-3.763c0.475-0.865,0.129-1.613-0.201-2.345c-0.48-1.067-1.104-2.069-1.592-3.134
			c-0.963-2.11-0.113-3.216,1.405-3.978c1.005-0.505,1.989-1.053,3.016-1.51c1.158-0.517,1.556-1.502,1.735-2.623
			c0.189-1.188,0.275-2.394,0.482-3.58c0.228-1.296,1.918-2.365,3.323-1.969c1.248,0.351,2.563,0.466,3.853,0.668
			c0.805,0.127,1.455-0.212,2.01-0.759c0.895-0.885,1.768-1.793,2.671-2.67c0.384-0.372,0.821-0.69,1.233-1.032H423.332z
			 M422.589,128.844c8.528-0.148,15.594-6.908,15.59-15.75c-0.004-8.832-7.132-15.696-15.638-15.682
			c-8.461,0.013-15.6,6.836-15.594,15.729C406.951,121.942,414.052,128.734,422.589,128.844"/>
		<path fill="#D9D9D9" d="M437.695,143.687c-0.655-0.674-1.303-1.356-1.967-2.022c-2.524-2.527-5.054-5.05-7.578-7.576
			c-0.106-0.106-0.191-0.232-0.301-0.366c0.467-0.611,0.959-0.899,1.783-0.753c1.459,0.259,2.943,0.386,4.42,0.525
			c1.936,0.183,3.834-1.673,4.037-3.293c0.105-0.844,0.346-1.671,0.525-2.506c0.104-0.09,0.207-0.181,0.311-0.271
			c0.178,0.312,0.299,0.68,0.542,0.927c1.95,1.978,3.925,3.932,5.888,5.898c0.512,0.511,1.144,1.05,0.809,1.847
			c-0.338,0.805-1.112,1.023-1.965,1.107c-1.016,0.101-2.019,0.332-3.024,0.521c-0.763,0.144-0.89,0.78-0.996,1.391
			c-0.183,1.058-0.26,2.141-0.522,3.177c-0.129,0.506-0.576,0.932-0.881,1.394H437.695z"/>
		<path fill="#D9D9D9" d="M406.342,143.687c-1.205-1.002-0.908-2.529-1.32-3.807c-0.084-0.263-0.043-0.563-0.088-0.842
			c-0.152-0.955-0.492-1.278-1.441-1.418c-1.037-0.152-2.096-0.227-3.1-0.507c-0.539-0.151-1.119-0.566-1.424-1.03
			c-0.337-0.513,0.053-1.084,0.471-1.503c2.266-2.281,4.537-4.556,6.812-6.829c0.046-0.045,0.142-0.04,0.323-0.086
			c0.039,0.337,0.074,0.65,0.111,0.963c0.244,2.021,0.817,3.947,2.976,4.587c1.146,0.339,2.467,0.143,3.704,0.083
			c0.889-0.043,1.77-0.353,2.656-0.361c0.429-0.004,0.861,0.412,1.439,0.715c-1.609,1.589-3.066,3.032-4.529,4.47
			c-1.793,1.765-3.592,3.524-5.384,5.291c-0.067,0.066-0.084,0.181-0.125,0.274H406.342z"/>
		<path fill="#D9D9D9" d="M306.966,20.929c0.303,0.248,0.626,0.476,0.905,0.748c0.65,0.631,1.299,1.265,1.91,1.932
			c0.754,0.825,1.648,0.855,2.651,0.618c0.839-0.199,1.692-0.345,2.546-0.454c0.797-0.101,1.975,0.802,2.061,1.804
			c0.096,1.125,0.316,2.252,0.609,3.343c0.111,0.415,0.516,0.831,0.896,1.077c0.72,0.465,1.494,0.871,2.292,1.189
			c1.627,0.65,1.948,1.961,1.075,3.546c-0.432,0.784-0.771,1.619-1.205,2.402c-0.367,0.66-0.094,1.235,0.169,1.793
			c0.407,0.866,0.896,1.694,1.331,2.547c0.559,1.094,0.031,2.301-1.232,2.885c-0.726,0.336-1.441,0.695-2.164,1.042
			c-0.92,0.443-1.339,1.214-1.459,2.193c-0.109,0.896-0.189,1.8-0.365,2.684c-0.203,1.028-1.459,1.766-2.504,1.485
			c-0.98-0.263-2.007-0.357-3.015-0.507c-0.591-0.088-1.078,0.159-1.487,0.565c-0.646,0.636-1.298,1.265-1.92,1.923
			c-1.142,1.207-2.23,1.225-3.365,0.002c-0.521-0.563-1.107-1.067-1.61-1.646c-0.777-0.896-1.72-0.978-2.789-0.73
			c-0.821,0.19-1.652,0.365-2.489,0.449c-0.89,0.09-1.958-0.702-2.086-1.764c-0.13-1.086-0.363-2.159-0.544-3.239
			c-0.13-0.779-0.726-1.136-1.336-1.462c-0.81-0.431-1.628-0.843-2.457-1.235c-1.126-0.532-1.215-1.842-0.783-2.734
			c0.47-0.966,0.921-1.943,1.438-2.883c0.363-0.663,0.098-1.236-0.154-1.797c-0.369-0.818-0.848-1.585-1.221-2.401
			c-0.737-1.618-0.086-2.465,1.078-3.049c0.77-0.387,1.524-0.807,2.311-1.157c0.887-0.396,1.191-1.151,1.329-2.01
			c0.146-0.911,0.211-1.835,0.37-2.743c0.175-0.994,1.469-1.813,2.547-1.509c0.956,0.269,1.964,0.357,2.951,0.512
			c0.617,0.097,1.117-0.163,1.541-0.582c0.686-0.678,1.355-1.374,2.047-2.046c0.294-0.285,0.628-0.529,0.945-0.791H306.966z
			 M306.396,49.558c6.536-0.114,11.949-5.293,11.947-12.069c-0.003-6.768-5.465-12.028-11.984-12.018
			c-6.482,0.01-11.953,5.239-11.949,12.053C294.414,44.271,299.855,49.474,306.396,49.558"/>
		<path fill="#D9D9D9" d="M317.973,60.932c-0.502-0.517-0.998-1.039-1.507-1.549c-1.935-1.937-3.872-3.87-5.808-5.806
			c-0.08-0.081-0.146-0.177-0.229-0.281c0.356-0.468,0.733-0.689,1.366-0.577c1.117,0.199,2.255,0.296,3.387,0.403
			c1.482,0.14,2.938-1.282,3.094-2.524c0.081-0.646,0.266-1.28,0.402-1.92c0.079-0.069,0.159-0.138,0.238-0.207
			c0.136,0.239,0.229,0.52,0.414,0.709c1.496,1.517,3.009,3.014,4.514,4.52c0.391,0.392,0.875,0.805,0.619,1.416
			c-0.26,0.617-0.854,0.784-1.506,0.848c-0.778,0.077-1.547,0.254-2.317,0.399c-0.585,0.111-0.683,0.598-0.765,1.066
			c-0.139,0.811-0.197,1.641-0.399,2.435c-0.099,0.388-0.442,0.714-0.675,1.068H317.973z"/>
		<path fill="#D9D9D9" d="M293.947,60.932c-0.924-0.768-0.696-1.938-1.012-2.917c-0.065-0.202-0.033-0.432-0.067-0.646
			c-0.117-0.732-0.378-0.979-1.104-1.086c-0.795-0.117-1.606-0.174-2.375-0.389c-0.414-0.115-0.858-0.433-1.092-0.789
			c-0.258-0.393,0.041-0.831,0.36-1.152c1.737-1.748,3.478-3.491,5.22-5.232c0.035-0.035,0.109-0.031,0.248-0.067
			c0.03,0.259,0.057,0.498,0.086,0.738c0.186,1.549,0.625,3.025,2.28,3.515c0.877,0.26,1.89,0.11,2.837,0.064
			c0.682-0.033,1.357-0.27,2.036-0.277c0.329-0.003,0.659,0.316,1.103,0.548c-1.232,1.218-2.35,2.324-3.47,3.426
			c-1.374,1.352-2.753,2.7-4.126,4.054c-0.051,0.05-0.064,0.139-0.096,0.21H293.947z"/>
		<path fill="#D9D9D9" d="M316.544,37.613c-0.167,6.285-5.18,10.248-10.319,10.116c-5.972-0.153-10.211-4.961-10.004-10.594
			c0.223-6.021,5.153-10.072,10.42-9.888C312.459,27.451,316.59,32.125,316.544,37.613"/>
		<path fill="#D9D9D9" d="M477.707,0c0.303,0.248,0.626,0.476,0.906,0.748c0.648,0.631,1.299,1.264,1.91,1.932
			c0.754,0.825,1.647,0.855,2.65,0.618c0.838-0.199,1.691-0.345,2.546-0.454c0.798-0.101,1.974,0.802,2.06,1.804
			c0.097,1.125,0.316,2.252,0.61,3.343c0.111,0.415,0.515,0.831,0.896,1.076c0.72,0.466,1.495,0.872,2.292,1.189
			c1.627,0.65,1.947,1.961,1.076,3.546c-0.433,0.784-0.772,1.619-1.207,2.402c-0.366,0.66-0.092,1.235,0.17,1.793
			c0.406,0.866,0.895,1.694,1.33,2.547c0.56,1.093,0.031,2.301-1.231,2.885c-0.726,0.336-1.442,0.695-2.164,1.042
			c-0.92,0.443-1.339,1.214-1.459,2.193c-0.11,0.896-0.188,1.8-0.364,2.684c-0.205,1.028-1.461,1.766-2.506,1.485
			c-0.98-0.263-2.006-0.357-3.014-0.507c-0.592-0.088-1.078,0.159-1.488,0.564c-0.645,0.637-1.297,1.266-1.919,1.924
			c-1.142,1.207-2.231,1.225-3.364,0.002c-0.522-0.563-1.108-1.067-1.611-1.646c-0.777-0.895-1.719-0.978-2.789-0.73
			c-0.821,0.19-1.652,0.365-2.489,0.449c-0.89,0.09-1.958-0.702-2.086-1.764c-0.129-1.086-0.362-2.159-0.544-3.239
			c-0.13-0.779-0.727-1.136-1.336-1.462c-0.809-0.431-1.628-0.843-2.457-1.235c-1.126-0.532-1.215-1.842-0.783-2.734
			c0.469-0.966,0.92-1.943,1.438-2.883c0.365-0.663,0.099-1.236-0.153-1.797c-0.369-0.818-0.847-1.586-1.22-2.402
			c-0.738-1.617-0.088-2.464,1.076-3.048c0.771-0.387,1.525-0.807,2.312-1.157c0.887-0.396,1.19-1.151,1.329-2.01
			c0.146-0.911,0.211-1.835,0.369-2.743c0.176-0.994,1.47-1.813,2.548-1.509c0.956,0.269,1.964,0.356,2.95,0.512
			c0.619,0.097,1.117-0.163,1.541-0.582c0.687-0.678,1.355-1.374,2.048-2.046c0.294-0.285,0.628-0.529,0.944-0.791H477.707z
			 M477.138,28.629c6.536-0.114,11.949-5.293,11.947-12.069c-0.003-6.768-5.465-12.028-11.983-12.018
			c-6.484,0.01-11.953,5.239-11.951,12.053C465.154,23.341,470.596,28.545,477.138,28.629"/>
		<path fill="#D9D9D9" d="M488.714,40.003c-0.502-0.517-0.998-1.039-1.507-1.549c-1.934-1.937-3.872-3.87-5.809-5.806
			c-0.08-0.081-0.146-0.177-0.229-0.281c0.357-0.468,0.734-0.689,1.365-0.577c1.119,0.199,2.256,0.296,3.388,0.403
			c1.483,0.14,2.938-1.282,3.094-2.524c0.081-0.646,0.265-1.28,0.402-1.92l0.237-0.207c0.137,0.238,0.229,0.52,0.416,0.709
			c1.494,1.517,3.008,3.014,4.513,4.52c0.391,0.392,0.875,0.805,0.618,1.416c-0.258,0.617-0.853,0.784-1.506,0.848
			c-0.777,0.077-1.547,0.254-2.316,0.399c-0.585,0.11-0.684,0.598-0.764,1.066c-0.141,0.811-0.198,1.641-0.4,2.435
			c-0.1,0.388-0.441,0.714-0.675,1.068H488.714z"/>
		<path fill="#D9D9D9" d="M464.688,40.003c-0.924-0.768-0.695-1.938-1.012-2.917c-0.064-0.202-0.033-0.432-0.066-0.646
			c-0.117-0.732-0.378-0.979-1.105-1.086c-0.794-0.117-1.605-0.174-2.373-0.389c-0.414-0.115-0.859-0.433-1.093-0.789
			c-0.258-0.393,0.041-0.831,0.36-1.152c1.736-1.748,3.478-3.491,5.22-5.232c0.035-0.035,0.108-0.031,0.248-0.067
			c0.03,0.259,0.058,0.498,0.086,0.738c0.187,1.549,0.625,3.025,2.28,3.515c0.877,0.26,1.89,0.11,2.837,0.064
			c0.682-0.033,1.356-0.27,2.036-0.277c0.328-0.003,0.66,0.316,1.103,0.548c-1.233,1.218-2.35,2.324-3.47,3.426
			c-1.374,1.352-2.753,2.7-4.126,4.054c-0.052,0.05-0.065,0.139-0.097,0.21H464.688z"/>
		<path fill="#D9D9D9" d="M487.285,16.685c-0.167,6.284-5.18,10.248-10.318,10.116c-5.973-0.153-10.213-4.961-10.004-10.594
			c0.221-6.021,5.152-10.072,10.42-9.888C483.2,6.521,487.331,11.196,487.285,16.685"/>
		<path fill="#D9D9D9" d="M517.945,168.418c0.303,0.248,0.626,0.476,0.906,0.748c0.648,0.631,1.298,1.265,1.91,1.932
			c0.754,0.825,1.647,0.855,2.65,0.618c0.838-0.198,1.692-0.345,2.547-0.453c0.797-0.102,1.973,0.801,2.06,1.803
			c0.096,1.125,0.315,2.252,0.61,3.343c0.11,0.415,0.515,0.831,0.896,1.077c0.72,0.465,1.495,0.871,2.292,1.189
			c1.627,0.65,1.947,1.961,1.076,3.546c-0.432,0.784-0.772,1.619-1.206,2.402c-0.367,0.66-0.093,1.235,0.169,1.793
			c0.406,0.866,0.895,1.694,1.331,2.547c0.559,1.094,0.03,2.301-1.232,2.885c-0.726,0.336-1.442,0.695-2.164,1.042
			c-0.92,0.443-1.339,1.214-1.459,2.193c-0.11,0.896-0.188,1.8-0.364,2.684c-0.205,1.028-1.461,1.766-2.506,1.485
			c-0.979-0.263-2.006-0.357-3.014-0.507c-0.591-0.088-1.078,0.159-1.488,0.565c-0.645,0.636-1.297,1.265-1.919,1.923
			c-1.142,1.207-2.231,1.225-3.364,0.002c-0.522-0.563-1.108-1.067-1.611-1.646c-0.777-0.895-1.719-0.977-2.789-0.73
			c-0.821,0.19-1.652,0.365-2.489,0.449c-0.89,0.09-1.958-0.702-2.086-1.764c-0.13-1.086-0.362-2.159-0.544-3.239
			c-0.13-0.779-0.727-1.136-1.336-1.461c-0.809-0.432-1.628-0.844-2.457-1.236c-1.126-0.532-1.215-1.842-0.783-2.734
			c0.469-0.966,0.92-1.943,1.438-2.883c0.364-0.663,0.098-1.236-0.154-1.797c-0.369-0.818-0.847-1.585-1.22-2.401
			c-0.738-1.618-0.088-2.465,1.076-3.049c0.771-0.387,1.525-0.807,2.312-1.157c0.888-0.396,1.19-1.151,1.329-2.01
			c0.146-0.911,0.211-1.835,0.37-2.743c0.175-0.993,1.469-1.813,2.547-1.509c0.956,0.269,1.964,0.357,2.951,0.512
			c0.616,0.097,1.116-0.163,1.541-0.582c0.686-0.678,1.354-1.374,2.047-2.046c0.294-0.285,0.628-0.529,0.944-0.791H517.945z
			 M517.377,197.047c6.535-0.114,11.948-5.293,11.946-12.069c-0.003-6.768-5.465-12.028-11.983-12.018
			c-6.483,0.01-11.953,5.239-11.951,12.053C505.394,191.759,510.834,196.963,517.377,197.047"/>
		<path fill="#D9D9D9" d="M528.952,208.421c-0.502-0.517-0.998-1.039-1.507-1.549c-1.934-1.938-3.872-3.87-5.809-5.806
			c-0.08-0.081-0.146-0.177-0.229-0.281c0.357-0.468,0.734-0.689,1.366-0.577c1.118,0.199,2.255,0.296,3.387,0.403
			c1.483,0.14,2.938-1.282,3.095-2.524c0.08-0.646,0.264-1.28,0.401-1.92c0.079-0.069,0.159-0.138,0.237-0.207
			c0.137,0.238,0.229,0.52,0.416,0.709c1.494,1.517,3.008,3.014,4.513,4.52c0.392,0.392,0.875,0.805,0.619,1.416
			c-0.259,0.617-0.853,0.784-1.507,0.848c-0.777,0.077-1.547,0.254-2.316,0.398c-0.585,0.11-0.684,0.598-0.764,1.066
			c-0.141,0.811-0.198,1.64-0.4,2.435c-0.099,0.388-0.441,0.714-0.675,1.068H528.952z"/>
		<path fill="#D9D9D9" d="M504.927,208.421c-0.925-0.768-0.696-1.938-1.013-2.917c-0.064-0.202-0.032-0.432-0.066-0.646
			c-0.117-0.732-0.378-0.979-1.105-1.086c-0.793-0.117-1.605-0.174-2.373-0.389c-0.414-0.115-0.859-0.433-1.093-0.789
			c-0.258-0.393,0.041-0.831,0.36-1.152c1.736-1.748,3.479-3.491,5.22-5.232c0.035-0.035,0.109-0.031,0.248-0.067
			c0.03,0.259,0.058,0.498,0.086,0.738c0.187,1.549,0.625,3.025,2.28,3.515c0.877,0.26,1.89,0.11,2.838,0.064
			c0.682-0.033,1.355-0.271,2.035-0.277c0.328-0.003,0.66,0.316,1.104,0.548c-1.234,1.218-2.351,2.324-3.471,3.426
			c-1.374,1.352-2.753,2.7-4.126,4.054c-0.051,0.05-0.065,0.139-0.097,0.21H504.927z"/>
		<path fill="#D9D9D9" d="M527.523,185.102c-0.167,6.284-5.18,10.248-10.318,10.116c-5.973-0.153-10.213-4.961-10.004-10.594
			c0.221-6.021,5.152-10.072,10.42-9.888C523.438,174.939,527.569,179.614,527.523,185.102"/>
	</g>
	<g>
		<path fill="#D9D9D9" d="M1585.909,79.095c1.214,0.992,2.505,1.905,3.625,2.993c2.601,2.527,5.2,5.064,7.646,7.737
			c3.021,3.302,6.6,3.423,10.615,2.473c3.354-0.795,6.771-1.381,10.191-1.815c3.189-0.405,7.903,3.207,8.245,7.218
			c0.384,4.506,1.266,9.015,2.442,13.385c0.446,1.66,2.063,3.325,3.586,4.309c2.885,1.863,5.987,3.486,9.179,4.761
			c6.512,2.602,7.798,7.85,4.304,14.194c-1.729,3.139-3.088,6.483-4.827,9.616c-1.468,2.642-0.37,4.947,0.678,7.179
			c1.628,3.468,3.583,6.782,5.329,10.197c2.235,4.377,0.122,9.211-4.932,11.549c-2.909,1.345-5.774,2.781-8.663,4.171
			c-3.684,1.772-5.36,4.861-5.842,8.777c-0.44,3.588-0.758,7.206-1.46,10.745c-0.817,4.115-5.846,7.07-10.03,5.947
			c-3.921-1.052-8.027-1.43-12.064-2.03c-2.367-0.351-4.314,0.635-5.958,2.259c-2.579,2.548-5.191,5.068-7.683,7.701
			c-4.569,4.83-8.93,4.905-13.469,0.008c-2.088-2.253-4.437-4.273-6.447-6.589c-3.111-3.583-6.883-3.914-11.168-2.923
			c-3.286,0.76-6.613,1.461-9.962,1.798c-3.563,0.359-7.841-2.809-8.35-7.064c-0.521-4.346-1.454-8.643-2.179-12.966
			c-0.522-3.116-2.907-4.547-5.35-5.85c-3.236-1.726-6.519-3.378-9.836-4.946c-4.506-2.129-4.865-7.375-3.133-10.943
			c1.878-3.868,3.684-7.779,5.754-11.543c1.459-2.652,0.396-4.948-0.617-7.194c-1.475-3.273-3.39-6.346-4.881-9.613
			c-2.956-6.474-0.348-9.865,4.311-12.204c3.082-1.548,6.104-3.23,9.251-4.633c3.553-1.584,4.77-4.607,5.32-8.044
			c0.585-3.647,0.847-7.347,1.483-10.982c0.697-3.977,5.879-7.257,10.193-6.042c3.828,1.078,7.863,1.429,11.815,2.05
			c2.47,0.388,4.468-0.65,6.166-2.328c2.747-2.715,5.424-5.5,8.195-8.189c1.177-1.142,2.517-2.117,3.782-3.168H1585.909z
			 M1583.632,193.702c26.165-0.455,47.835-21.19,47.823-48.315c-0.01-27.094-21.877-48.148-47.972-48.107
			c-25.955,0.04-47.852,20.972-47.837,48.25C1535.661,172.533,1557.444,193.367,1583.632,193.702"/>
		<path fill="#D9D9D9" d="M1629.973,239.235c-2.011-2.069-3.998-4.161-6.034-6.202c-7.742-7.754-15.501-15.491-23.247-23.241
			c-0.324-0.324-0.585-0.711-0.92-1.124c1.431-1.874,2.94-2.758,5.471-2.309c4.475,0.793,9.027,1.183,13.559,1.611
			c5.934,0.561,11.76-5.132,12.385-10.103c0.324-2.589,1.059-5.127,1.608-7.687c0.318-0.277,0.636-0.554,0.955-0.83
			c0.544,0.956,0.914,2.084,1.66,2.841c5.983,6.07,12.041,12.064,18.063,18.094c1.566,1.568,3.507,3.221,2.479,5.668
			c-1.037,2.469-3.413,3.137-6.029,3.396c-3.114,0.307-6.19,1.015-9.274,1.596c-2.342,0.44-2.732,2.394-3.058,4.267
			c-0.562,3.247-0.795,6.567-1.602,9.746c-0.396,1.554-1.771,2.859-2.7,4.277H1629.973z"/>
		<path fill="#D9D9D9" d="M1533.793,239.235c-3.698-3.073-2.786-7.757-4.05-11.679c-0.261-0.806-0.136-1.728-0.271-2.583
			c-0.468-2.931-1.511-3.92-4.421-4.348c-3.181-0.467-6.432-0.699-9.506-1.557c-1.654-0.462-3.438-1.735-4.371-3.16
			c-1.033-1.574,0.164-3.325,1.442-4.611c6.952-6.996,13.922-13.975,20.897-20.947c0.141-0.14,0.437-0.124,0.991-0.266
			c0.12,1.035,0.229,1.995,0.344,2.955c0.745,6.201,2.504,12.108,9.127,14.071c3.511,1.04,7.566,0.439,11.36,0.255
			c2.729-0.132,5.429-1.082,8.148-1.107c1.315-0.012,2.645,1.265,4.416,2.193c-4.938,4.876-9.406,9.302-13.891,13.713
			c-5.503,5.413-11.021,10.811-16.518,16.23c-0.205,0.202-0.26,0.557-0.383,0.841H1533.793z"/>
		<path fill="#D9D9D9" d="M1624.253,145.886c-0.669,25.158-20.737,41.023-41.311,40.497c-23.907-0.612-40.877-19.859-40.045-42.412
			c0.888-24.102,20.628-40.32,41.712-39.584C1607.902,105.201,1624.439,123.917,1624.253,145.886"/>
		<path fill="#D9D9D9" d="M1277.275,120.804c0.868,0.71,1.791,1.362,2.592,2.14c1.857,1.806,3.716,3.618,5.464,5.529
			c2.16,2.36,4.717,2.447,7.587,1.767c2.396-0.568,4.839-0.987,7.284-1.297c2.278-0.289,5.647,2.292,5.892,5.159
			c0.275,3.22,0.905,6.442,1.746,9.565c0.319,1.188,1.475,2.377,2.563,3.08c2.063,1.332,4.279,2.492,6.561,3.403
			c4.654,1.86,5.573,5.61,3.076,10.144c-1.236,2.244-2.208,4.634-3.451,6.873c-1.048,1.888-0.264,3.535,0.485,5.13
			c1.163,2.479,2.56,4.847,3.808,7.288c1.598,3.128,0.087,6.583-3.523,8.254c-2.08,0.961-4.128,1.988-6.192,2.981
			c-2.632,1.266-3.831,3.474-4.175,6.273c-0.315,2.564-0.541,5.15-1.043,7.679c-0.584,2.94-4.179,5.053-7.168,4.25
			c-2.804-0.752-5.738-1.022-8.623-1.45c-1.691-0.251-3.083,0.453-4.258,1.614c-1.844,1.821-3.711,3.622-5.49,5.504
			c-3.267,3.452-6.383,3.505-9.626,0.005c-1.493-1.61-3.173-3.053-4.609-4.709c-2.223-2.561-4.918-2.797-7.981-2.089
			c-2.348,0.544-4.726,1.045-7.118,1.285c-2.548,0.257-5.604-2.008-5.969-5.048c-0.372-3.106-1.038-6.177-1.557-9.267
			c-0.373-2.227-2.077-3.25-3.823-4.18c-2.313-1.234-4.658-2.415-7.029-3.535c-3.221-1.522-3.478-5.271-2.239-7.822
			c1.342-2.764,2.632-5.559,4.112-8.249c1.043-1.896,0.282-3.536-0.441-5.142c-1.053-2.339-2.422-4.535-3.488-6.869
			c-2.111-4.627-0.248-7.051,3.08-8.723c2.203-1.106,4.363-2.308,6.612-3.311c2.539-1.132,3.409-3.292,3.803-5.749
			c0.418-2.606,0.605-5.25,1.06-7.848c0.498-2.842,4.201-5.188,7.284-4.318c2.736,0.77,5.621,1.02,8.445,1.465
			c1.766,0.277,3.194-0.465,4.407-1.664c1.963-1.94,3.876-3.931,5.856-5.853c0.841-0.817,1.8-1.513,2.703-2.265H1277.275z
			 M1275.648,202.713c18.699-0.325,34.187-15.145,34.179-34.531c-0.007-19.363-15.636-34.41-34.285-34.381
			c-18.549,0.028-34.199,14.988-34.188,34.484C1241.365,187.584,1256.932,202.473,1275.648,202.713"/>
		<path fill="#D9D9D9" d="M1308.767,235.255c-1.437-1.478-2.855-2.974-4.312-4.432c-5.533-5.542-11.079-11.072-16.615-16.611
			c-0.231-0.231-0.418-0.507-0.657-0.803c1.022-1.339,2.103-1.971,3.91-1.65c3.198,0.567,6.451,0.846,9.69,1.152
			c4.24,0.4,8.403-3.669,8.851-7.221c0.232-1.851,0.757-3.664,1.15-5.494c0.227-0.198,0.454-0.396,0.682-0.593
			c0.389,0.683,0.654,1.489,1.187,2.03c4.275,4.338,8.605,8.622,12.91,12.931c1.119,1.121,2.506,2.303,1.771,4.051
			c-0.741,1.765-2.438,2.243-4.309,2.427c-2.226,0.22-4.425,0.726-6.629,1.141c-1.674,0.316-1.953,1.711-2.185,3.05
			c-0.401,2.32-0.568,4.693-1.146,6.965c-0.281,1.111-1.264,2.044-1.93,3.057H1308.767z"/>
		<path fill="#D9D9D9" d="M1240.029,235.255c-2.644-2.196-1.991-5.544-2.896-8.347c-0.185-0.576-0.096-1.235-0.192-1.846
			c-0.334-2.094-1.08-2.802-3.16-3.107c-2.273-0.334-4.597-0.5-6.794-1.113c-1.183-0.33-2.456-1.24-3.124-2.259
			c-0.738-1.125,0.117-2.376,1.031-3.295c4.969-5,9.949-9.988,14.936-14.97c0.1-0.1,0.311-0.089,0.708-0.19
			c0.086,0.739,0.163,1.425,0.246,2.111c0.532,4.432,1.789,8.654,6.521,10.056c2.509,0.744,5.408,0.313,8.12,0.183
			c1.95-0.094,3.88-0.774,5.822-0.791c0.941-0.009,1.891,0.904,3.157,1.567c-3.528,3.485-6.723,6.648-9.927,9.801
			c-3.934,3.868-7.878,7.726-11.807,11.599c-0.146,0.144-0.184,0.398-0.272,0.601H1240.029z"/>
		<path fill="#D9D9D9" d="M1304.68,168.539c-0.479,17.98-14.821,29.319-29.524,28.943c-17.086-0.438-29.214-14.194-28.62-30.312
			c0.636-17.225,14.743-28.816,29.812-28.29C1292.994,139.462,1304.813,152.838,1304.68,168.539"/>
		<path fill="#D9D9D9" d="M1429.589,78.412c0.593,0.486,1.226,0.932,1.773,1.465c1.271,1.236,2.544,2.477,3.74,3.785
			c1.479,1.615,3.229,1.675,5.193,1.209c1.641-0.388,3.313-0.675,4.986-0.888c1.56-0.198,3.866,1.569,4.034,3.532
			c0.187,2.204,0.618,4.41,1.194,6.548c0.218,0.813,1.009,1.627,1.754,2.108c1.411,0.912,2.93,1.706,4.49,2.33
			c3.187,1.273,3.815,3.84,2.106,6.944c-0.847,1.536-1.512,3.172-2.362,4.704c-0.718,1.293-0.181,2.42,0.332,3.512
			c0.796,1.697,1.753,3.318,2.606,4.989c1.095,2.141,0.06,4.506-2.412,5.65c-1.423,0.658-2.825,1.361-4.238,2.041
			c-1.802,0.866-2.623,2.378-2.858,4.294c-0.216,1.755-0.371,3.525-0.714,5.257c-0.4,2.013-2.859,3.458-4.907,2.909
			c-1.918-0.515-3.928-0.7-5.902-0.993c-1.158-0.172-2.11,0.31-2.914,1.105c-1.263,1.247-2.54,2.479-3.759,3.767
			c-2.235,2.364-4.368,2.4-6.59,0.005c-1.021-1.103-2.171-2.091-3.154-3.224c-1.522-1.753-3.367-1.915-5.463-1.43
			c-1.608,0.372-3.236,0.715-4.875,0.88c-1.742,0.175-3.836-1.375-4.084-3.456c-0.255-2.127-0.711-4.229-1.066-6.344
			c-0.255-1.524-1.422-2.224-2.617-2.862c-1.584-0.844-3.188-1.652-4.812-2.419c-2.204-1.042-2.38-3.608-1.533-5.354
			c0.919-1.893,1.802-3.806,2.814-5.647c0.714-1.298,0.194-2.421-0.301-3.52c-0.722-1.601-1.659-3.105-2.388-4.703
			c-1.446-3.167-0.17-4.826,2.107-5.97c1.509-0.758,2.987-1.58,4.526-2.267c1.738-0.775,2.334-2.254,2.603-3.936
			c0.287-1.783,0.414-3.594,0.727-5.372c0.341-1.946,2.876-3.55,4.986-2.956c1.873,0.528,3.848,0.699,5.78,1.003
			c1.209,0.19,2.187-0.318,3.018-1.139c1.344-1.328,2.653-2.691,4.009-4.007c0.576-0.558,1.23-1.036,1.852-1.55H1429.589z
			 M1428.474,134.481c12.802-0.222,23.402-10.367,23.397-23.638c-0.005-13.255-10.703-23.555-23.471-23.535
			c-12.696,0.019-23.409,10.26-23.402,23.605C1405.006,124.125,1415.662,134.318,1428.474,134.481"/>
		<path fill="#D9D9D9" d="M1451.146,156.758c-0.983-1.012-1.955-2.036-2.952-3.034c-3.788-3.794-7.584-7.579-11.373-11.371
			c-0.159-0.158-0.286-0.347-0.45-0.549c0.7-0.917,1.438-1.35,2.676-1.13c2.189,0.388,4.417,0.579,6.634,0.788
			c2.902,0.274,5.754-2.511,6.06-4.943c0.159-1.266,0.518-2.508,0.786-3.76c0.155-0.136,0.312-0.271,0.468-0.406
			c0.266,0.467,0.447,1.019,0.812,1.39c2.928,2.969,5.892,5.902,8.838,8.852c0.767,0.767,1.716,1.575,1.213,2.772
			c-0.508,1.208-1.67,1.536-2.949,1.662c-1.524,0.15-3.029,0.497-4.538,0.781c-1.146,0.216-1.337,1.171-1.495,2.088
			c-0.275,1.588-0.39,3.212-0.785,4.768c-0.192,0.761-0.865,1.398-1.32,2.093H1451.146z"/>
		<path fill="#D9D9D9" d="M1404.092,156.758c-1.81-1.504-1.363-3.795-1.981-5.714c-0.128-0.394-0.066-0.845-0.133-1.264
			c-0.229-1.433-0.739-1.917-2.163-2.127c-1.556-0.228-3.146-0.342-4.65-0.761c-0.81-0.226-1.682-0.849-2.139-1.546
			c-0.505-0.771,0.08-1.627,0.706-2.256c3.401-3.423,6.811-6.837,10.224-10.248c0.068-0.068,0.213-0.061,0.485-0.13
			c0.058,0.506,0.111,0.976,0.167,1.445c0.365,3.034,1.226,5.924,4.466,6.884c1.717,0.509,3.701,0.215,5.558,0.125
			c1.336-0.064,2.656-0.529,3.986-0.541c0.645-0.006,1.294,0.618,2.161,1.073c-2.416,2.385-4.603,4.55-6.796,6.708
			c-2.693,2.649-5.393,5.289-8.082,7.94c-0.1,0.099-0.126,0.273-0.186,0.412H1404.092z"/>
		<path fill="#D9D9D9" d="M1448.348,111.088c-0.328,12.308-10.146,20.07-20.21,19.812c-11.696-0.299-19.999-9.715-19.593-20.749
			c0.436-11.791,10.093-19.725,20.407-19.365C1440.348,91.184,1448.438,100.34,1448.348,111.088"/>
		<path fill="#D9D9D9" d="M1297.243,20.099c0.395,0.323,0.815,0.62,1.181,0.975c0.848,0.824,1.695,1.651,2.493,2.522
			c0.985,1.077,2.151,1.116,3.46,0.806c1.093-0.258,2.208-0.45,3.323-0.591c1.038-0.132,2.575,1.045,2.687,2.353
			c0.125,1.469,0.413,2.938,0.796,4.363c0.146,0.541,0.673,1.084,1.169,1.405c0.941,0.607,1.952,1.136,2.992,1.552
			c2.123,0.848,2.542,2.559,1.403,4.627c-0.563,1.023-1.006,2.113-1.573,3.135c-0.479,0.861-0.121,1.612,0.221,2.34
			c0.531,1.13,1.168,2.211,1.737,3.324c0.729,1.426,0.04,3.002-1.608,3.764c-0.947,0.439-1.882,0.907-2.823,1.36
			c-1.201,0.578-1.747,1.585-1.904,2.861c-0.144,1.17-0.247,2.35-0.476,3.503c-0.267,1.342-1.906,2.305-3.27,1.939
			c-1.279-0.343-2.618-0.466-3.934-0.662c-0.771-0.114-1.406,0.207-1.942,0.737c-0.84,0.83-1.692,1.651-2.504,2.51
			c-1.49,1.574-2.911,1.599-4.39,0.002c-0.682-0.734-1.447-1.392-2.104-2.147c-1.014-1.169-2.243-1.276-3.64-0.953
			c-1.071,0.247-2.156,0.476-3.247,0.586c-1.162,0.117-2.557-0.916-2.723-2.303c-0.17-1.417-0.474-2.817-0.71-4.227
			c-0.171-1.015-0.947-1.482-1.743-1.907c-1.057-0.563-2.125-1.101-3.207-1.612c-1.47-0.694-1.586-2.404-1.021-3.567
			c0.612-1.261,1.201-2.536,1.876-3.763c0.476-0.865,0.128-1.613-0.201-2.345c-0.48-1.067-1.104-2.069-1.592-3.134
			c-0.963-2.11-0.113-3.216,1.405-3.978c1.005-0.505,1.99-1.053,3.016-1.51c1.158-0.517,1.555-1.502,1.735-2.623
			c0.189-1.188,0.274-2.395,0.482-3.58c0.228-1.296,1.917-2.365,3.323-1.969c1.248,0.351,2.563,0.465,3.853,0.668
			c0.805,0.127,1.456-0.212,2.01-0.759c0.895-0.885,1.768-1.793,2.671-2.67c0.384-0.372,0.821-0.69,1.233-1.032H1297.243z
			 M1296.5,57.458c8.529-0.148,15.594-6.908,15.59-15.75c-0.004-8.832-7.132-15.696-15.638-15.682
			c-8.461,0.013-15.6,6.836-15.595,15.728C1280.863,50.558,1287.963,57.35,1296.5,57.458"/>
		<path fill="#D9D9D9" d="M1311.606,72.301c-0.655-0.674-1.304-1.356-1.968-2.022c-2.523-2.528-5.053-5.05-7.578-7.576
			c-0.105-0.106-0.19-0.232-0.3-0.366c0.466-0.611,0.959-0.899,1.783-0.753c1.459,0.259,2.943,0.386,4.421,0.525
			c1.935,0.183,3.833-1.673,4.037-3.293c0.106-0.844,0.345-1.671,0.524-2.506l0.311-0.271c0.178,0.313,0.298,0.68,0.542,0.926
			c1.95,1.979,3.925,3.933,5.888,5.899c0.512,0.511,1.144,1.05,0.809,1.847c-0.338,0.805-1.112,1.023-1.965,1.107
			c-1.016,0.1-2.019,0.331-3.024,0.521c-0.763,0.144-0.89,0.78-0.996,1.391c-0.183,1.058-0.26,2.14-0.522,3.177
			c-0.128,0.506-0.576,0.932-0.88,1.394H1311.606z"/>
		<path fill="#D9D9D9" d="M1280.253,72.301c-1.205-1.002-0.907-2.529-1.319-3.807c-0.085-0.263-0.044-0.563-0.09-0.842
			c-0.151-0.956-0.491-1.278-1.44-1.418c-1.037-0.152-2.096-0.227-3.099-0.507c-0.539-0.151-1.12-0.566-1.426-1.03
			c-0.336-0.513,0.055-1.084,0.472-1.504c2.266-2.28,4.538-4.555,6.812-6.828c0.046-0.045,0.143-0.04,0.323-0.086
			c0.039,0.337,0.075,0.65,0.112,0.963c0.242,2.021,0.816,3.947,2.975,4.587c1.145,0.339,2.467,0.143,3.704,0.083
			c0.889-0.043,1.769-0.353,2.656-0.361c0.429-0.004,0.861,0.412,1.439,0.715c-1.61,1.589-3.067,3.032-4.528,4.47
			c-1.793,1.765-3.593,3.524-5.385,5.291c-0.066,0.066-0.085,0.181-0.125,0.274H1280.253z"/>
		<path fill="#D9D9D9" d="M1309.742,41.871c-0.219,8.201-6.76,13.373-13.467,13.201c-7.793-0.199-13.325-6.473-13.055-13.825
			c0.29-7.857,6.726-13.144,13.598-12.904C1304.412,28.608,1309.803,34.709,1309.742,41.871"/>
		<path fill="#D9D9D9" d="M1022.53,5.405c0.303,0.248,0.626,0.476,0.906,0.748c0.648,0.631,1.298,1.265,1.91,1.932
			c0.755,0.825,1.647,0.855,2.65,0.618c0.838-0.199,1.692-0.345,2.546-0.454c0.797-0.101,1.975,0.802,2.061,1.804
			c0.096,1.125,0.315,2.252,0.609,3.343c0.112,0.415,0.516,0.831,0.896,1.077c0.72,0.465,1.495,0.871,2.292,1.189
			c1.627,0.65,1.948,1.961,1.076,3.546c-0.433,0.784-0.772,1.619-1.206,2.402c-0.367,0.66-0.093,1.235,0.169,1.793
			c0.407,0.866,0.895,1.694,1.331,2.547c0.559,1.094,0.031,2.301-1.232,2.885c-0.726,0.336-1.441,0.695-2.164,1.042
			c-0.92,0.443-1.339,1.214-1.459,2.193c-0.109,0.896-0.188,1.8-0.365,2.684c-0.203,1.028-1.46,1.766-2.505,1.485
			c-0.979-0.263-2.006-0.357-3.014-0.507c-0.591-0.088-1.078,0.159-1.488,0.565c-0.645,0.636-1.297,1.265-1.919,1.923
			c-1.142,1.207-2.23,1.225-3.365,0.002c-0.521-0.563-1.107-1.067-1.61-1.646c-0.777-0.895-1.719-0.977-2.789-0.73
			c-0.821,0.19-1.652,0.365-2.489,0.449c-0.89,0.09-1.958-0.702-2.086-1.764c-0.129-1.086-0.363-2.159-0.544-3.239
			c-0.13-0.779-0.726-1.136-1.336-1.461c-0.809-0.432-1.628-0.844-2.457-1.236c-1.126-0.532-1.215-1.842-0.783-2.734
			c0.47-0.966,0.92-1.943,1.438-2.883c0.363-0.663,0.098-1.236-0.154-1.797c-0.369-0.818-0.847-1.585-1.22-2.401
			c-0.738-1.618-0.087-2.465,1.077-3.049c0.77-0.387,1.524-0.807,2.311-1.157c0.887-0.396,1.191-1.151,1.329-2.01
			c0.146-0.911,0.211-1.835,0.371-2.743c0.174-0.994,1.468-1.813,2.546-1.509c0.956,0.269,1.964,0.356,2.951,0.512
			c0.618,0.097,1.117-0.163,1.541-0.582c0.686-0.678,1.354-1.374,2.047-2.046c0.294-0.285,0.628-0.529,0.945-0.791H1022.53z
			 M1021.961,34.034c6.536-0.114,11.949-5.293,11.947-12.069c-0.003-6.768-5.465-12.028-11.984-12.018
			c-6.482,0.01-11.952,5.239-11.949,12.053C1009.979,28.746,1015.419,33.95,1021.961,34.034"/>
		<path fill="#D9D9D9" d="M1033.537,45.408c-0.502-0.517-0.998-1.039-1.507-1.549c-1.935-1.937-3.872-3.87-5.808-5.806
			c-0.08-0.081-0.146-0.177-0.229-0.281c0.357-0.468,0.734-0.689,1.366-0.577c1.118,0.199,2.255,0.296,3.387,0.403
			c1.483,0.14,2.938-1.282,3.094-2.524c0.081-0.646,0.266-1.28,0.402-1.92c0.079-0.069,0.159-0.138,0.238-0.207
			c0.136,0.239,0.229,0.52,0.415,0.709c1.495,1.517,3.008,3.014,4.513,4.52c0.391,0.392,0.875,0.805,0.619,1.416
			c-0.259,0.617-0.854,0.784-1.506,0.848c-0.778,0.077-1.547,0.254-2.317,0.399c-0.585,0.111-0.683,0.598-0.764,1.066
			c-0.141,0.811-0.198,1.641-0.4,2.435c-0.099,0.388-0.441,0.714-0.675,1.068H1033.537z"/>
		<path fill="#D9D9D9" d="M1009.512,45.408c-0.924-0.768-0.696-1.938-1.012-2.917c-0.065-0.202-0.033-0.432-0.067-0.646
			c-0.117-0.732-0.378-0.979-1.104-1.086c-0.795-0.117-1.606-0.174-2.374-0.389c-0.414-0.115-0.859-0.433-1.093-0.789
			c-0.258-0.393,0.041-0.831,0.36-1.152c1.737-1.748,3.478-3.491,5.22-5.232c0.035-0.035,0.109-0.031,0.248-0.067
			c0.03,0.259,0.058,0.499,0.086,0.738c0.187,1.549,0.625,3.025,2.28,3.515c0.877,0.26,1.89,0.11,2.837,0.064
			c0.682-0.033,1.357-0.27,2.036-0.277c0.329-0.003,0.66,0.316,1.103,0.548c-1.232,1.218-2.35,2.324-3.47,3.426
			c-1.374,1.352-2.753,2.7-4.126,4.054c-0.051,0.05-0.064,0.139-0.096,0.21H1009.512z"/>
		<path fill="#D9D9D9" d="M1032.108,22.089c-0.167,6.285-5.18,10.248-10.319,10.116c-5.972-0.153-10.212-4.961-10.004-10.594
			c0.223-6.021,5.153-10.072,10.42-9.888C1028.023,11.927,1032.154,16.602,1032.108,22.089"/>
		<path fill="#D9D9D9" d="M1517.295,6.438c0.303,0.248,0.626,0.476,0.905,0.748c0.649,0.631,1.3,1.264,1.91,1.932
			c0.755,0.825,1.648,0.855,2.651,0.618c0.838-0.199,1.691-0.345,2.546-0.454c0.797-0.101,1.974,0.802,2.06,1.804
			c0.097,1.125,0.316,2.252,0.61,3.343c0.112,0.415,0.515,0.831,0.896,1.076c0.721,0.466,1.495,0.872,2.293,1.19
			c1.627,0.65,1.947,1.961,1.075,3.546c-0.432,0.784-0.771,1.619-1.206,2.402c-0.366,0.66-0.093,1.235,0.169,1.793
			c0.407,0.866,0.896,1.694,1.331,2.547c0.56,1.093,0.031,2.301-1.231,2.885c-0.727,0.336-1.442,0.695-2.164,1.042
			c-0.92,0.443-1.339,1.214-1.459,2.193c-0.11,0.896-0.189,1.8-0.365,2.684c-0.204,1.028-1.46,1.766-2.505,1.485
			c-0.98-0.263-2.006-0.357-3.014-0.507c-0.592-0.088-1.078,0.159-1.488,0.563c-0.645,0.637-1.297,1.266-1.919,1.924
			c-1.142,1.207-2.231,1.225-3.365,0.002c-0.521-0.563-1.108-1.067-1.61-1.646c-0.777-0.895-1.72-0.977-2.789-0.73
			c-0.821,0.19-1.652,0.365-2.489,0.449c-0.891,0.09-1.958-0.702-2.086-1.764c-0.13-1.086-0.363-2.159-0.544-3.239
			c-0.131-0.779-0.727-1.136-1.336-1.462c-0.81-0.431-1.629-0.843-2.457-1.235c-1.126-0.532-1.215-1.842-0.783-2.734
			c0.469-0.966,0.92-1.943,1.438-2.883c0.364-0.663,0.099-1.236-0.153-1.797c-0.369-0.818-0.848-1.586-1.221-2.401
			c-0.737-1.618-0.087-2.465,1.077-3.049c0.771-0.387,1.525-0.807,2.312-1.157c0.887-0.396,1.19-1.151,1.329-2.01
			c0.146-0.911,0.211-1.835,0.369-2.743c0.176-0.994,1.47-1.813,2.548-1.509c0.956,0.269,1.964,0.356,2.95,0.512
			c0.617,0.097,1.116-0.163,1.541-0.582c0.687-0.678,1.355-1.374,2.047-2.046c0.295-0.285,0.629-0.529,0.945-0.791H1517.295z
			 M1516.726,35.067c6.536-0.114,11.949-5.293,11.947-12.069c-0.003-6.768-5.466-12.028-11.984-12.018
			c-6.483,0.01-11.953,5.239-11.95,12.053C1504.742,29.779,1510.184,34.983,1516.726,35.067"/>
		<path fill="#D9D9D9" d="M1528.302,46.441c-0.502-0.517-0.998-1.039-1.507-1.549c-1.935-1.938-3.873-3.87-5.809-5.806
			c-0.08-0.081-0.146-0.177-0.229-0.281c0.356-0.468,0.733-0.689,1.365-0.577c1.118,0.199,2.256,0.296,3.388,0.403
			c1.482,0.14,2.938-1.282,3.094-2.524c0.081-0.646,0.265-1.28,0.402-1.92c0.079-0.069,0.158-0.138,0.237-0.207
			c0.137,0.239,0.229,0.52,0.415,0.709c1.495,1.517,3.009,3.014,4.513,4.52c0.392,0.392,0.876,0.805,0.619,1.416
			c-0.259,0.617-0.853,0.784-1.506,0.848c-0.777,0.077-1.547,0.254-2.316,0.398c-0.585,0.111-0.684,0.598-0.765,1.066
			c-0.14,0.811-0.197,1.641-0.399,2.435c-0.1,0.388-0.442,0.714-0.676,1.068H1528.302z"/>
		<path fill="#D9D9D9" d="M1504.275,46.441c-0.924-0.768-0.695-1.938-1.012-2.917c-0.064-0.202-0.033-0.432-0.066-0.646
			c-0.117-0.732-0.379-0.979-1.105-1.086c-0.794-0.117-1.605-0.174-2.374-0.389c-0.414-0.115-0.859-0.433-1.092-0.789
			c-0.258-0.393,0.041-0.831,0.36-1.152c1.736-1.748,3.478-3.491,5.22-5.232c0.035-0.035,0.108-0.031,0.248-0.067
			c0.029,0.259,0.057,0.498,0.086,0.738c0.186,1.549,0.625,3.025,2.28,3.515c0.877,0.26,1.89,0.11,2.837,0.064
			c0.682-0.033,1.356-0.27,2.036-0.277c0.328-0.003,0.66,0.316,1.103,0.548c-1.233,1.218-2.351,2.324-3.47,3.426
			c-1.374,1.352-2.753,2.7-4.126,4.054c-0.052,0.05-0.065,0.139-0.097,0.21H1504.275z"/>
		<path fill="#D9D9D9" d="M1526.873,23.123c-0.167,6.284-5.18,10.248-10.319,10.116c-5.972-0.153-10.212-4.961-10.004-10.594
			c0.222-6.021,5.153-10.072,10.42-9.888C1522.788,12.959,1526.919,17.635,1526.873,23.123"/>
	</g>
</g>
</svg>
