<?xml version="1.0" encoding="utf-8"?>
<!-- Generator: Adobe Illustrator 16.0.0, SVG Export Plug-In . SVG Version: 6.00 Build 0)  -->
<!DOCTYPE svg PUBLIC "-//W3C//DTD SVG 1.1//EN" "http://www.w3.org/Graphics/SVG/1.1/DTD/svg11.dtd">
<svg version="1.1" id="Layer_1" xmlns="http://www.w3.org/2000/svg" xmlns:xlink="http://www.w3.org/1999/xlink" x="0px" y="0px"
	 width="1598.841px" height="212.665px" viewBox="0 0 1598.841 212.665" enable-background="new 0 0 1598.841 212.665"
	 xml:space="preserve">
<g>
	<path fill="#D9D9D9" d="M0,175.505c0-18.31,0-36.62,0-54.929c0.318-1.322,0.539-2.678,0.974-3.961
		c2.696-7.966,9.595-12.871,18.215-12.882c20.554-0.027,41.106-0.038,61.658,0.034c2.146,0.007,4.392,0.3,6.415,0.985
		c7.98,2.701,12.795,9.616,12.804,18.052c0.011,10.977,0.003,21.954,0.002,32.93c-0.001,6.091,0.036,12.183-0.026,18.273
		c-0.037,3.778-1.213,7.24-3.436,10.297c-3.926,5.4-9.318,7.946-15.939,7.95c-20.031,0.012-40.063,0.006-60.096,0
		c-1.072-0.001-2.152-0.007-3.219-0.116c-7.816-0.804-13.205-4.888-16.135-12.155C0.642,178.559,0.396,177.001,0,175.505
		 M50.148,142.216c-7.945,0-15.891-0.001-23.836,0.001c-2.41,0-4.82-0.031-7.229,0.025c-2.055,0.048-3.61,1.646-3.662,3.696
		c-0.035,1.399-0.037,2.801,0.007,4.2c0.049,1.591,1.196,3.045,2.728,3.427c0.653,0.162,1.354,0.193,2.032,0.193
		c19.896,0.01,39.792,0.009,59.688,0.004c0.486,0,0.978-0.02,1.459-0.086c1.649-0.231,2.929-1.148,3.135-2.764
		c0.248-1.942,0.263-3.97-0.01-5.906c-0.262-1.857-1.869-2.785-4.028-2.787C70.338,142.213,60.242,142.217,50.148,142.216
		 M50.088,165.307c-10.162,0-20.321-0.003-30.482,0.002c-2.123,0.001-3.732,0.961-3.996,2.832c-0.27,1.907-0.279,3.908-0.018,5.814
		c0.269,1.954,1.966,2.911,4.361,2.912c20.062,0.001,40.121,0.001,60.183,0c0.228,0,0.456,0.007,0.684-0.008
		c2.345-0.153,3.828-1.712,3.854-4.06c0.011-1.009-0.066-2.024,0.015-3.027c0.217-2.665-1.715-4.527-4.51-4.501
		C70.148,165.361,60.117,165.306,50.088,165.307 M49.929,130.642c9.964,0,19.928,0,29.892-0.002c0.455,0,0.912-0.004,1.365-0.044
		c1.646-0.144,3.113-1.183,3.307-2.818c0.227-1.917,0.262-3.912-0.012-5.816c-0.283-1.961-1.917-2.849-4.385-2.849
		c-20.026-0.002-40.051-0.001-60.076,0.001c-0.357,0-0.717,0.008-1.073,0.038c-1.67,0.141-3.138,1.143-3.335,2.779
		c-0.236,1.945-0.268,3.972,0.012,5.907c0.274,1.905,1.895,2.801,4.219,2.802C29.871,130.644,39.899,130.642,49.929,130.642"/>
	<path fill="#D9D9D9" d="M1498.763,179.446v-54.93c0.319-1.321,0.54-2.677,0.974-3.96c2.696-7.966,9.596-12.871,18.216-12.882
		c20.553-0.027,41.105-0.038,61.657,0.034c2.146,0.007,4.393,0.3,6.415,0.985c7.981,2.701,12.796,9.616,12.804,18.052
		c0.011,10.977,0.004,21.953,0.003,32.93c-0.001,6.091,0.036,12.183-0.026,18.273c-0.038,3.778-1.214,7.24-3.436,10.297
		c-3.926,5.4-9.319,7.946-15.939,7.95c-20.032,0.012-40.063,0.006-60.096,0c-1.073-0.001-2.153-0.007-3.219-0.116
		c-7.817-0.804-13.205-4.888-16.136-12.155C1499.404,182.499,1499.16,180.942,1498.763,179.446 M1548.912,146.157
		c-7.946,0-15.892-0.001-23.836,0.001c-2.41,0-4.821-0.031-7.229,0.025c-2.054,0.048-3.61,1.645-3.662,3.696
		c-0.035,1.399-0.037,2.801,0.007,4.2c0.05,1.591,1.196,3.045,2.729,3.426c0.653,0.163,1.353,0.194,2.032,0.194
		c19.896,0.01,39.792,0.009,59.688,0.004c0.487,0,0.979-0.019,1.459-0.086c1.65-0.231,2.929-1.148,3.136-2.764
		c0.247-1.942,0.263-3.97-0.011-5.906c-0.262-1.857-1.868-2.785-4.028-2.787C1569.101,146.154,1559.006,146.158,1548.912,146.157
		 M1548.851,169.247c-10.161,0-20.321-0.003-30.481,0.002c-2.123,0.001-3.733,0.961-3.996,2.832c-0.27,1.907-0.28,3.908-0.019,5.814
		c0.27,1.954,1.966,2.911,4.362,2.912c20.061,0.001,40.121,0,60.182,0c0.229,0,0.457,0.007,0.685-0.008
		c2.345-0.153,3.828-1.712,3.854-4.06c0.012-1.009-0.065-2.024,0.016-3.027c0.217-2.665-1.716-4.527-4.511-4.501
		C1568.912,169.302,1558.881,169.246,1548.851,169.247 M1548.691,134.582c9.965,0,19.929,0,29.892-0.002
		c0.456,0,0.913-0.004,1.366-0.044c1.646-0.143,3.113-1.183,3.307-2.818c0.226-1.917,0.262-3.912-0.012-5.816
		c-0.283-1.961-1.917-2.849-4.385-2.849c-20.026-0.002-40.052-0.001-60.076,0.001c-0.358,0-0.718,0.008-1.073,0.038
		c-1.67,0.141-3.138,1.143-3.336,2.779c-0.235,1.945-0.268,3.972,0.012,5.907c0.275,1.905,1.896,2.801,4.219,2.802
		C1528.634,134.584,1538.663,134.582,1548.691,134.582"/>
	<path fill="#D9D9D9" d="M230.066,191.337v-40.193c0.234-0.967,0.396-1.959,0.713-2.898c1.974-5.829,7.021-9.418,13.328-9.426
		c15.039-0.02,30.078-0.027,45.117,0.025c1.568,0.005,3.213,0.22,4.693,0.72c5.84,1.978,9.363,7.037,9.369,13.21
		c0.008,8.031,0.002,16.063,0,24.095c0,4.457,0.027,8.914-0.018,13.371c-0.027,2.764-0.889,5.298-2.515,7.534
		c-2.872,3.952-6.818,5.814-11.663,5.817c-14.657,0.009-29.314,0.005-43.973,0c-0.785,0-1.576-0.005-2.355-0.085
		c-5.721-0.588-9.663-3.576-11.807-8.894C230.537,193.571,230.357,192.431,230.066,191.337 M266.762,166.979
		c-5.814,0-11.628-0.001-17.441,0c-1.764,0.001-3.527-0.021-5.289,0.019c-1.504,0.035-2.642,1.204-2.68,2.704
		c-0.025,1.024-0.027,2.049,0.004,3.073c0.037,1.165,0.877,2.229,1.997,2.508c0.478,0.119,0.99,0.141,1.487,0.141
		c14.559,0.007,29.115,0.007,43.675,0.003c0.356,0,0.715-0.014,1.067-0.063c1.207-0.169,2.144-0.84,2.293-2.022
		c0.182-1.421,0.193-2.905-0.006-4.322c-0.192-1.358-1.367-2.038-2.948-2.039C281.535,166.977,274.148,166.979,266.762,166.979
		 M266.717,183.874c-7.434,0-14.869-0.002-22.305,0.001c-1.553,0.001-2.73,0.704-2.924,2.073c-0.195,1.395-0.205,2.859-0.013,4.254
		c0.197,1.43,1.438,2.13,3.192,2.13c14.679,0.001,29.357,0.001,44.035,0.001c0.168,0,0.334,0.004,0.5-0.006
		c1.717-0.112,2.803-1.253,2.82-2.971c0.008-0.738-0.048-1.48,0.012-2.215c0.158-1.95-1.254-3.312-3.301-3.294
		C281.396,183.914,274.057,183.874,266.717,183.874 M266.601,158.509c7.291,0,14.581,0,21.872-0.001
		c0.333,0,0.668-0.004,0.999-0.032c1.205-0.105,2.278-0.867,2.42-2.063c0.165-1.402,0.192-2.862-0.009-4.255
		c-0.207-1.435-1.402-2.085-3.208-2.085c-14.653-0.001-29.306-0.001-43.959,0.001c-0.263,0-0.524,0.006-0.785,0.028
		c-1.222,0.103-2.296,0.836-2.44,2.033c-0.172,1.424-0.195,2.907,0.008,4.322c0.201,1.394,1.387,2.05,3.088,2.05
		C251.924,158.511,259.263,158.509,266.601,158.509"/>
	<path fill="#D9D9D9" d="M1193.618,200.404v-40.193c0.233-0.967,0.395-1.959,0.713-2.898c1.973-5.829,7.021-9.418,13.328-9.426
		c15.039-0.02,30.078-0.027,45.117,0.025c1.568,0.005,3.213,0.22,4.692,0.72c5.84,1.978,9.363,7.037,9.369,13.21
		c0.008,8.031,0.003,16.063,0.001,24.095c0,4.457,0.027,8.914-0.018,13.371c-0.028,2.764-0.89,5.298-2.516,7.534
		c-2.872,3.952-6.817,5.814-11.663,5.817c-14.656,0.009-29.314,0.005-43.972,0c-0.786,0-1.576-0.005-2.355-0.085
		c-5.721-0.588-9.663-3.576-11.808-8.894C1194.088,202.638,1193.909,201.498,1193.618,200.404 M1230.313,176.046
		c-5.813,0-11.627-0.001-17.441,0c-1.763,0.001-3.526-0.021-5.289,0.019c-1.503,0.035-2.641,1.204-2.679,2.704
		c-0.026,1.024-0.028,2.049,0.004,3.073c0.037,1.165,0.876,2.229,1.997,2.508c0.478,0.119,0.99,0.141,1.486,0.141
		c14.559,0.007,29.116,0.007,43.676,0.003c0.355,0,0.715-0.014,1.066-0.063c1.207-0.169,2.145-0.84,2.294-2.022
		c0.182-1.421,0.193-2.905-0.007-4.322c-0.191-1.358-1.367-2.038-2.948-2.039C1245.086,176.044,1237.699,176.046,1230.313,176.046
		 M1230.268,192.941c-7.434,0-14.868-0.002-22.304,0.001c-1.553,0.001-2.73,0.704-2.924,2.073c-0.196,1.395-0.205,2.859-0.013,4.254
		c0.196,1.43,1.438,2.13,3.191,2.13c14.68,0.001,29.357,0.001,44.036,0.001c0.167,0,0.334,0.004,0.5-0.006
		c1.716-0.112,2.802-1.253,2.82-2.971c0.008-0.738-0.048-1.48,0.012-2.215c0.158-1.95-1.255-3.312-3.301-3.294
		C1244.947,192.981,1237.608,192.941,1230.268,192.941 M1230.152,167.576c7.291,0,14.581,0,21.872-0.001
		c0.333,0,0.668-0.004,0.999-0.032c1.205-0.105,2.278-0.867,2.42-2.063c0.165-1.402,0.191-2.862-0.01-4.255
		c-0.207-1.435-1.401-2.085-3.209-2.085c-14.651-0.001-29.305-0.001-43.957,0.001c-0.263,0-0.525,0.006-0.785,0.028
		c-1.223,0.103-2.297,0.836-2.441,2.033c-0.172,1.424-0.195,2.907,0.009,4.322c0.201,1.394,1.386,2.05,3.087,2.05
		C1215.475,167.578,1222.814,167.576,1230.152,167.576"/>
	<path fill="#D9D9D9" d="M123.291,35.959V8.446c0.159-0.662,0.271-1.341,0.488-1.983c1.35-3.991,4.805-6.447,9.123-6.453
		c10.294-0.013,20.589-0.019,30.883,0.017c1.075,0.004,2.2,0.151,3.213,0.493c3.998,1.354,6.409,4.817,6.414,9.043
		c0.006,5.498,0.002,10.996,0.002,16.494c-0.002,3.051,0.018,6.102-0.014,9.152c-0.02,1.893-0.609,3.627-1.723,5.158
		c-1.965,2.705-4.666,3.98-7.982,3.982c-10.033,0.006-20.066,0.003-30.102,0c-0.536-0.001-1.077-0.004-1.611-0.059
		c-3.916-0.402-6.613-2.448-8.082-6.088C123.612,37.489,123.489,36.709,123.291,35.959 M148.409,19.286
		c-3.979,0-7.959-0.001-11.938,0c-1.207,0-2.414-0.015-3.621,0.013c-1.029,0.024-1.809,0.824-1.834,1.852
		c-0.018,0.701-0.02,1.403,0.003,2.103c0.024,0.798,0.601,1.526,1.366,1.717c0.328,0.081,0.679,0.097,1.019,0.097
		c9.965,0.005,19.931,0.004,29.897,0.002c0.242,0,0.488-0.01,0.729-0.043c0.827-0.116,1.468-0.575,1.571-1.385
		c0.123-0.972,0.131-1.988-0.006-2.958c-0.131-0.93-0.936-1.395-2.018-1.396C158.522,19.284,153.465,19.286,148.409,19.286
		 M148.379,30.851c-5.09,0-10.179-0.001-15.268,0.001c-1.063,0-1.87,0.481-2.002,1.419c-0.134,0.955-0.141,1.957-0.009,2.912
		c0.135,0.978,0.985,1.458,2.185,1.458c10.049,0.001,20.096,0,30.145,0c0.113,0,0.229,0.003,0.343-0.004
		c1.174-0.076,1.917-0.857,1.931-2.033c0.004-0.506-0.033-1.014,0.008-1.517c0.107-1.334-0.859-2.267-2.261-2.254
		C158.428,30.879,153.403,30.851,148.379,30.851 M148.299,13.488c4.992,0,9.981,0,14.973-0.001c0.229,0,0.457-0.002,0.684-0.022
		c0.824-0.072,1.561-0.593,1.656-1.412c0.114-0.96,0.133-1.959-0.006-2.913c-0.141-0.982-0.96-1.427-2.196-1.427
		c-10.03-0.001-20.061,0-30.091,0.001c-0.18,0-0.359,0.004-0.537,0.02c-0.837,0.07-1.572,0.572-1.671,1.392
		c-0.118,0.974-0.134,1.989,0.006,2.958c0.138,0.955,0.949,1.403,2.113,1.404C138.252,13.489,143.276,13.488,148.299,13.488"/>
	<path fill="#D9D9D9" d="M1361.995,133.735v-27.513c0.16-0.662,0.271-1.34,0.488-1.983c1.351-3.991,4.806-6.447,9.124-6.453
		c10.294-0.013,20.589-0.018,30.883,0.017c1.075,0.004,2.2,0.151,3.213,0.494c3.998,1.354,6.409,4.816,6.413,9.042
		c0.006,5.498,0.002,10.996,0.002,16.494c-0.001,3.051,0.018,6.102-0.013,9.152c-0.02,1.893-0.609,3.627-1.723,5.158
		c-1.966,2.705-4.667,3.98-7.982,3.982c-10.034,0.006-20.067,0.003-30.102,0c-0.537-0.001-1.078-0.004-1.611-0.059
		c-3.916-0.402-6.615-2.448-8.082-6.087C1362.317,135.265,1362.194,134.485,1361.995,133.735 M1387.114,117.062
		c-3.98,0-7.959-0.001-11.939,0c-1.207,0-2.414-0.015-3.621,0.013c-1.028,0.024-1.808,0.824-1.834,1.851
		c-0.018,0.701-0.019,1.403,0.003,2.104c0.025,0.797,0.601,1.525,1.367,1.716c0.327,0.081,0.678,0.097,1.019,0.097
		c9.965,0.005,19.931,0.004,29.896,0.002c0.244,0,0.49-0.01,0.731-0.043c0.825-0.116,1.467-0.575,1.57-1.384
		c0.123-0.973,0.132-1.989-0.006-2.959c-0.131-0.93-0.935-1.395-2.017-1.396C1397.227,117.06,1392.17,117.062,1387.114,117.062
		 M1387.084,128.627c-5.09,0-10.179-0.001-15.268,0.001c-1.063,0-1.87,0.481-2.002,1.419c-0.135,0.955-0.141,1.957-0.01,2.912
		c0.136,0.978,0.985,1.458,2.186,1.458c10.048,0.001,20.096,0.001,30.144,0c0.114,0,0.229,0.003,0.343-0.004
		c1.175-0.076,1.918-0.857,1.931-2.033c0.005-0.506-0.033-1.014,0.008-1.517c0.108-1.334-0.859-2.267-2.26-2.254
		C1397.132,128.655,1392.108,128.627,1387.084,128.627 M1387.004,111.264c4.991,0,9.981,0,14.973-0.001
		c0.228,0,0.457-0.002,0.684-0.022c0.824-0.072,1.56-0.593,1.656-1.412c0.113-0.96,0.132-1.959-0.006-2.913
		c-0.142-0.982-0.961-1.427-2.196-1.427c-10.03,0-20.062,0-30.091,0.001c-0.18,0-0.359,0.004-0.537,0.019
		c-0.837,0.07-1.572,0.572-1.671,1.392c-0.118,0.974-0.135,1.99,0.006,2.958c0.137,0.955,0.949,1.403,2.112,1.404
		C1376.957,111.265,1381.981,111.264,1387.004,111.264"/>
	<path fill="#D9D9D9" d="M316.662,63.426V43.278c0.117-0.485,0.199-0.982,0.358-1.453c0.988-2.922,3.519-4.721,6.681-4.725
		c7.539-0.01,15.078-0.014,22.616,0.013c0.787,0.002,1.611,0.11,2.353,0.361c2.928,0.991,4.693,3.527,4.697,6.621
		c0.004,4.027,0,8.053,0,12.079c0,2.234,0.014,4.469-0.01,6.703c-0.014,1.385-0.445,2.655-1.26,3.777
		c-1.439,1.98-3.418,2.914-5.846,2.916c-7.348,0.004-14.696,0.002-22.043-0.001c-0.395,0-0.791-0.002-1.182-0.042
		c-2.867-0.295-4.844-1.793-5.919-4.458C316.898,64.546,316.809,63.975,316.662,63.426 M335.058,51.216
		c-2.915,0-5.829-0.001-8.743,0c-0.884,0-1.768-0.011-2.652,0.009c-0.752,0.018-1.324,0.604-1.342,1.356
		c-0.014,0.513-0.015,1.027,0.002,1.54c0.019,0.584,0.438,1.118,1,1.257c0.24,0.06,0.496,0.071,0.745,0.071
		c7.298,0.004,14.597,0.004,21.894,0.002c0.18,0,0.359-0.007,0.535-0.032c0.605-0.085,1.076-0.421,1.15-1.013
		c0.092-0.713,0.096-1.457-0.004-2.167c-0.096-0.681-0.686-1.022-1.477-1.022C342.463,51.215,338.76,51.216,335.058,51.216
		 M335.035,59.685c-3.728,0-7.453-0.001-11.181,0.001c-0.778,0-1.37,0.353-1.466,1.039c-0.1,0.699-0.104,1.433-0.007,2.132
		c0.099,0.717,0.721,1.068,1.6,1.068c7.359,0.001,14.718,0.001,22.075,0c0.084,0,0.167,0.003,0.251-0.003
		c0.86-0.056,1.403-0.628,1.413-1.489c0.004-0.37-0.023-0.742,0.006-1.11c0.079-0.978-0.629-1.661-1.654-1.651
		C342.394,59.705,338.713,59.685,335.035,59.685 M334.977,46.97c3.655,0,7.309,0,10.964-0.001c0.167,0,0.335-0.001,0.501-0.016
		c0.604-0.052,1.143-0.434,1.213-1.034c0.084-0.703,0.096-1.434-0.005-2.133c-0.103-0.719-0.702-1.045-1.608-1.045
		c-7.344,0-14.689,0-22.035,0c-0.131,0-0.264,0.004-0.393,0.015c-0.613,0.051-1.152,0.419-1.225,1.019
		c-0.086,0.713-0.098,1.457,0.005,2.166c0.101,0.699,0.694,1.028,1.547,1.028C327.619,46.971,331.297,46.97,334.977,46.97"/>
	<path fill="#D9D9D9" d="M1248.103,47.342V27.194c0.116-0.485,0.197-0.982,0.356-1.453c0.989-2.922,3.521-4.721,6.683-4.725
		c7.538-0.01,15.076-0.014,22.615,0.012c0.787,0.003,1.611,0.111,2.354,0.362c2.927,0.991,4.692,3.527,4.696,6.621
		c0.004,4.027,0.001,8.053,0.001,12.079c0,2.234,0.013,4.469-0.011,6.702c-0.014,1.386-0.444,2.656-1.26,3.778
		c-1.439,1.98-3.418,2.914-5.846,2.915c-7.349,0.005-14.696,0.003-22.043,0c-0.395,0-0.79-0.002-1.182-0.042
		c-2.867-0.295-4.844-1.793-5.919-4.458C1248.338,48.462,1248.248,47.891,1248.103,47.342 M1266.497,35.132
		c-2.915,0-5.829-0.001-8.743,0c-0.884,0-1.768-0.011-2.651,0.009c-0.755,0.018-1.324,0.604-1.344,1.356
		c-0.013,0.513-0.014,1.027,0.003,1.54c0.019,0.584,0.438,1.118,1,1.257c0.24,0.06,0.496,0.071,0.745,0.071
		c7.298,0.004,14.597,0.003,21.895,0.002c0.178,0,0.358-0.007,0.535-0.032c0.604-0.085,1.075-0.421,1.149-1.014
		c0.092-0.712,0.097-1.456-0.004-2.166c-0.096-0.681-0.685-1.022-1.477-1.022C1273.902,35.131,1270.199,35.132,1266.497,35.132
		 M1266.475,43.601c-3.728,0-7.453-0.001-11.181,0.001c-0.778,0-1.37,0.352-1.466,1.039c-0.099,0.699-0.103,1.433-0.007,2.132
		c0.099,0.717,0.721,1.068,1.6,1.068c7.359,0.001,14.718,0,22.075,0c0.083,0,0.167,0.003,0.251-0.003
		c0.86-0.056,1.404-0.628,1.413-1.489c0.004-0.37-0.023-0.742,0.006-1.11c0.079-0.978-0.629-1.661-1.654-1.651
		C1273.833,43.621,1270.153,43.601,1266.475,43.601 M1266.416,30.886c3.655,0,7.31,0,10.964-0.001c0.167,0,0.335-0.001,0.501-0.016
		c0.604-0.052,1.143-0.434,1.213-1.034c0.084-0.703,0.097-1.435-0.005-2.133c-0.103-0.719-0.702-1.045-1.607-1.045
		c-7.345,0-14.69,0-22.036,0c-0.131,0-0.263,0.004-0.393,0.015c-0.613,0.051-1.151,0.419-1.225,1.019
		c-0.086,0.713-0.098,1.457,0.005,2.166c0.101,0.699,0.695,1.028,1.547,1.028C1259.06,30.887,1262.737,30.886,1266.416,30.886"/>
	<path fill="#D9D9D9" d="M1477.738,39.596V19.448c0.117-0.485,0.198-0.982,0.357-1.453c0.988-2.922,3.52-4.721,6.682-4.725
		c7.538-0.01,15.077-0.014,22.616,0.013c0.786,0.002,1.61,0.11,2.353,0.361c2.927,0.991,4.693,3.527,4.696,6.621
		c0.004,4.027,0.001,8.053,0.001,12.079c0,2.234,0.013,4.469-0.01,6.702c-0.015,1.386-0.445,2.656-1.261,3.778
		c-1.439,1.98-3.418,2.914-5.846,2.916c-7.348,0.004-14.696,0.002-22.043-0.001c-0.394,0-0.79-0.002-1.181-0.042
		c-2.868-0.295-4.845-1.793-5.919-4.458C1477.975,40.716,1477.884,40.145,1477.738,39.596 M1496.133,27.386
		c-2.915,0-5.828-0.001-8.742,0c-0.885,0-1.769-0.011-2.652,0.009c-0.754,0.018-1.324,0.604-1.343,1.356
		c-0.014,0.513-0.015,1.027,0.002,1.54c0.019,0.584,0.438,1.118,1.001,1.257c0.24,0.06,0.496,0.071,0.745,0.071
		c7.298,0.004,14.596,0.003,21.894,0.002c0.179,0,0.359-0.007,0.535-0.032c0.605-0.085,1.075-0.421,1.15-1.014
		c0.091-0.712,0.096-1.456-0.005-2.166c-0.096-0.681-0.685-1.022-1.477-1.022C1503.538,27.385,1499.835,27.386,1496.133,27.386
		 M1496.11,35.854c-3.728,0-7.453-0.001-11.181,0.001c-0.778,0-1.369,0.352-1.466,1.039c-0.099,0.699-0.103,1.433-0.007,2.132
		c0.1,0.717,0.721,1.068,1.6,1.068c7.359,0.001,14.718,0,22.075,0c0.084,0,0.167,0.003,0.251-0.003
		c0.86-0.056,1.404-0.628,1.413-1.489c0.004-0.37-0.023-0.742,0.007-1.11c0.078-0.978-0.63-1.661-1.655-1.651
		C1503.469,35.875,1499.789,35.854,1496.11,35.854 M1496.053,23.14c3.654,0,7.309,0,10.964-0.001c0.167,0,0.335-0.001,0.501-0.016
		c0.604-0.052,1.142-0.434,1.213-1.034c0.083-0.703,0.096-1.435-0.005-2.133c-0.104-0.719-0.702-1.045-1.608-1.045
		c-7.345,0-14.689,0-22.036,0c-0.131,0-0.263,0.004-0.393,0.015c-0.613,0.051-1.151,0.419-1.225,1.019
		c-0.086,0.713-0.098,1.457,0.005,2.166c0.101,0.699,0.695,1.028,1.548,1.028C1488.695,23.141,1492.373,23.14,1496.053,23.14"/>
	<path fill="#D9D9D9" d="M412.585,190.362v-20.148c0.117-0.485,0.198-0.982,0.356-1.453c0.99-2.922,3.521-4.721,6.683-4.725
		c7.538-0.01,15.077-0.014,22.616,0.013c0.787,0.002,1.611,0.11,2.354,0.361c2.926,0.991,4.692,3.527,4.695,6.621
		c0.004,4.027,0.001,8.053,0.001,12.079c0,2.234,0.013,4.469-0.01,6.703c-0.015,1.385-0.445,2.655-1.261,3.777
		c-1.439,1.981-3.418,2.914-5.846,2.916c-7.348,0.004-14.695,0.002-22.043-0.001c-0.394,0-0.789-0.002-1.181-0.042
		c-2.867-0.295-4.845-1.793-5.919-4.458C412.821,191.482,412.73,190.911,412.585,190.362 M430.98,178.152
		c-2.916,0-5.83-0.001-8.743,0c-0.884,0-1.769-0.011-2.652,0.009c-0.753,0.018-1.323,0.604-1.343,1.356
		c-0.014,0.513-0.014,1.027,0.002,1.54c0.02,0.584,0.439,1.118,1.001,1.257c0.24,0.06,0.496,0.071,0.745,0.071
		c7.298,0.004,14.596,0.004,21.895,0.002c0.178,0,0.358-0.007,0.534-0.032c0.604-0.085,1.075-0.421,1.15-1.013
		c0.091-0.713,0.096-1.457-0.005-2.167c-0.096-0.681-0.685-1.022-1.477-1.022C438.385,178.151,434.682,178.152,430.98,178.152
		 M430.957,186.621c-3.727,0-7.453-0.001-11.18,0.001c-0.779,0-1.37,0.352-1.467,1.039c-0.099,0.699-0.103,1.433-0.006,2.132
		c0.099,0.717,0.721,1.068,1.6,1.068c7.357,0.001,14.717,0.001,22.074,0c0.084,0,0.168,0.003,0.252-0.003
		c0.859-0.056,1.404-0.628,1.412-1.489c0.004-0.37-0.023-0.742,0.006-1.11c0.08-0.977-0.629-1.66-1.654-1.651
		C438.316,186.641,434.637,186.621,430.957,186.621 M430.898,173.906c3.656,0,7.31,0,10.965-0.001c0.167,0,0.335-0.001,0.501-0.016
		c0.604-0.052,1.142-0.434,1.213-1.034c0.083-0.703,0.096-1.434-0.005-2.133c-0.104-0.719-0.702-1.045-1.608-1.045
		c-7.345,0-14.69,0-22.036,0c-0.131,0-0.263,0.004-0.393,0.015c-0.613,0.051-1.15,0.419-1.225,1.019
		c-0.086,0.713-0.098,1.457,0.006,2.166c0.1,0.699,0.695,1.028,1.547,1.028C423.542,173.907,427.221,173.906,430.898,173.906"/>
	<path fill="#D9D9D9" d="M438.563,31.569V17.281c0.083-0.344,0.141-0.696,0.253-1.03c0.701-2.072,2.496-3.348,4.738-3.351
		c5.346-0.007,10.692-0.01,16.038,0.009c0.558,0.002,1.143,0.078,1.669,0.256c2.075,0.703,3.327,2.501,3.329,4.696
		c0.004,2.855,0.002,5.71,0.002,8.565c0,1.584,0.009,3.169-0.008,4.753c-0.01,0.983-0.315,1.883-0.894,2.679
		c-1.021,1.404-2.424,2.066-4.146,2.067c-5.211,0.004-10.422,0.002-15.631,0c-0.279,0-0.561-0.001-0.838-0.03
		c-2.033-0.209-3.436-1.271-4.197-3.161C438.729,32.363,438.666,31.958,438.563,31.569 M451.606,22.91c-2.065,0-4.133,0-6.2,0
		c-0.627,0-1.254-0.008-1.88,0.007c-0.534,0.012-0.938,0.428-0.953,0.961c-0.009,0.364-0.009,0.729,0.003,1.092
		c0.012,0.414,0.311,0.793,0.709,0.892c0.17,0.042,0.353,0.05,0.528,0.05c5.175,0.003,10.351,0.002,15.526,0.001
		c0.127,0,0.254-0.005,0.379-0.022c0.429-0.06,0.762-0.299,0.816-0.719c0.063-0.505,0.067-1.033-0.004-1.536
		c-0.068-0.483-0.486-0.725-1.048-0.725C456.858,22.909,454.232,22.91,451.606,22.91 M451.59,28.916c-2.643,0-5.284-0.001-7.928,0
		c-0.553,0.001-0.971,0.25-1.039,0.737c-0.07,0.496-0.074,1.017-0.006,1.512c0.07,0.509,0.512,0.758,1.135,0.758
		c5.219,0,10.437,0,15.654,0c0.061,0,0.119,0.002,0.178-0.002c0.61-0.04,0.996-0.446,1.004-1.056
		c0.002-0.263-0.019-0.527,0.004-0.788c0.056-0.693-0.447-1.177-1.174-1.171C456.81,28.93,454.199,28.916,451.59,28.916
		 M451.549,19.899c2.593,0,5.184,0,7.775,0c0.119,0,0.238-0.002,0.355-0.012c0.429-0.037,0.81-0.308,0.859-0.733
		c0.06-0.499,0.069-1.017-0.002-1.513c-0.074-0.51-0.498-0.741-1.141-0.741c-5.209,0-10.418,0-15.627,0
		c-0.094,0-0.186,0.003-0.279,0.01c-0.434,0.037-0.816,0.298-0.867,0.723c-0.062,0.506-0.069,1.033,0.004,1.537
		c0.07,0.495,0.492,0.728,1.097,0.729C446.332,19.9,448.94,19.899,451.549,19.899"/>
	<path fill="#D9D9D9" d="M1067.806,31.569V17.281c0.083-0.344,0.14-0.696,0.253-1.03c0.701-2.072,2.496-3.348,4.738-3.351
		c5.346-0.007,10.691-0.01,16.037,0.009c0.559,0.002,1.144,0.078,1.67,0.256c2.075,0.703,3.327,2.501,3.329,4.696
		c0.003,2.855,0.001,5.71,0.001,8.565c0,1.584,0.01,3.169-0.007,4.753c-0.01,0.983-0.315,1.883-0.894,2.679
		c-1.021,1.404-2.424,2.066-4.146,2.067c-5.21,0.004-10.421,0.002-15.631,0c-0.279,0-0.56-0.001-0.838-0.03
		c-2.033-0.209-3.435-1.271-4.197-3.161C1067.973,32.363,1067.908,31.958,1067.806,31.569 M1080.85,22.91c-2.067,0-4.133,0-6.2,0
		c-0.627,0-1.254-0.008-1.88,0.007c-0.535,0.012-0.939,0.428-0.953,0.961c-0.009,0.364-0.009,0.729,0.002,1.092
		c0.013,0.414,0.311,0.793,0.71,0.892c0.17,0.042,0.353,0.05,0.528,0.05c5.175,0.003,10.351,0.002,15.525,0.001
		c0.127,0,0.254-0.005,0.379-0.022c0.43-0.06,0.763-0.299,0.816-0.719c0.064-0.505,0.068-1.033-0.003-1.536
		c-0.068-0.483-0.486-0.725-1.048-0.725C1086.102,22.909,1083.476,22.91,1080.85,22.91 M1080.833,28.916
		c-2.643,0-5.286-0.001-7.928,0c-0.553,0.001-0.971,0.25-1.04,0.737c-0.07,0.496-0.072,1.017-0.005,1.512
		c0.07,0.509,0.512,0.758,1.135,0.758c5.218,0,10.437,0,15.654,0c0.06,0,0.119,0.002,0.178-0.002c0.61-0.04,0.996-0.446,1.002-1.056
		c0.003-0.263-0.017-0.527,0.005-0.788c0.057-0.693-0.446-1.177-1.174-1.171C1086.052,28.93,1083.442,28.916,1080.833,28.916
		 M1080.793,19.899c2.592,0,5.183,0,7.774,0c0.119,0,0.237-0.002,0.354-0.012c0.429-0.037,0.811-0.308,0.86-0.733
		c0.06-0.499,0.069-1.017-0.003-1.513c-0.073-0.51-0.498-0.741-1.14-0.741c-5.209,0-10.418,0-15.627,0
		c-0.093,0-0.187,0.003-0.279,0.01c-0.434,0.037-0.815,0.298-0.868,0.723c-0.061,0.506-0.068,1.033,0.004,1.537
		c0.071,0.495,0.492,0.728,1.098,0.729C1075.575,19.9,1078.184,19.899,1080.793,19.899"/>
</g>
</svg>
