<?xml version="1.0" encoding="utf-8"?>
<!-- Generator: Adobe Illustrator 16.0.0, SVG Export Plug-In . SVG Version: 6.00 Build 0)  -->
<!DOCTYPE svg PUBLIC "-//W3C//DTD SVG 1.1//EN" "http://www.w3.org/Graphics/SVG/1.1/DTD/svg11.dtd">
<svg version="1.1" id="Layer_1" xmlns="http://www.w3.org/2000/svg" xmlns:xlink="http://www.w3.org/1999/xlink" x="0px" y="0px"
	 width="1623.856px" height="221.092px" viewBox="0 0 1623.856 221.092" enable-background="new 0 0 1623.856 221.092"
	 xml:space="preserve">
<g>
	<defs>
		<rect id="SVGID_1_" x="-1731.428" y="-21.065" width="1600" height="2733.65"/>
	</defs>
	<clipPath id="SVGID_2_">
		<use xlink:href="#SVGID_1_"  overflow="visible"/>
	</clipPath>
	<g clip-path="url(#SVGID_2_)">
		<defs>
			<rect id="SVGID_57_" x="-1731.428" y="-21.064" width="1600" height="2733.649"/>
		</defs>
		<clipPath id="SVGID_4_">
			<use xlink:href="#SVGID_57_"  overflow="visible"/>
		</clipPath>
	</g>
</g>
<g>
	<g>
		<path fill="#D9D9D9" d="M0.001,131.059c0.134-0.245,0.278-0.483,0.401-0.734c0.793-1.615,2.072-2.514,3.883-2.521
			c5.711-0.019,11.423-0.025,17.134,0.002c2.407,0.012,4.259,1.762,4.285,4.186c0.062,5.783,0.062,11.567,0,17.352
			c-0.026,2.423-1.878,4.173-4.285,4.186c-5.711,0.026-11.423,0.02-17.134,0.002c-1.811-0.006-3.09-0.905-3.883-2.521
			c-0.123-0.25-0.268-0.49-0.401-0.734C0.001,143.869,0.001,137.464,0.001,131.059"/>
		<path fill="#D9D9D9" d="M22.273,84.767c2.612,0.901,3.54,2.779,3.488,5.472c-0.1,5.123-0.025,10.25-0.03,15.374
			c-0.004,3.223-1.683,4.92-4.886,4.926c-5.053,0.009-10.107-0.096-15.156,0.042c-2.703,0.073-4.662-0.721-5.689-3.322V88.042
			c0.646-1.539,1.738-2.63,3.277-3.275H22.273z"/>
		<path fill="#D9D9D9" d="M0.001,174.076c0.116-0.215,0.242-0.424,0.347-0.644c0.783-1.664,2.068-2.616,3.928-2.623
			c5.711-0.021,11.422-0.034,17.133,0.002c2.474,0.017,4.283,1.792,4.305,4.279c0.049,5.71,0.049,11.421,0.002,17.132
			c-0.021,2.526-1.877,4.309-4.394,4.319c-5.638,0.021-11.276,0.016-16.914,0.002c-1.946-0.005-3.298-0.957-4.101-2.717
			c-0.084-0.186-0.203-0.357-0.306-0.534C0.001,186.886,0.001,180.48,0.001,174.076"/>
		<rect x="38.651" y="84.768" fill="#D9D9D9" width="73.149" height="8.484"/>
		<rect x="38.762" y="127.889" fill="#D9D9D9" width="72.965" height="8.392"/>
		<rect x="38.758" y="170.891" fill="#D9D9D9" width="72.967" height="8.389"/>
		<rect x="38.77" y="102.065" fill="#D9D9D9" width="64.393" height="8.408"/>
		<rect x="38.762" y="145.062" fill="#D9D9D9" width="64.398" height="8.398"/>
		<rect x="38.762" y="188.063" fill="#D9D9D9" width="64.398" height="8.405"/>
		<path fill="#D9D9D9" d="M215.888,164.919c0.108-0.196,0.223-0.389,0.321-0.589c0.637-1.296,1.664-2.019,3.115-2.023
			c4.582-0.014,9.165-0.02,13.747,0.002c1.931,0.01,3.417,1.414,3.438,3.358c0.05,4.64,0.05,9.281,0,13.921
			c-0.021,1.945-1.508,3.349-3.438,3.358c-4.582,0.023-9.165,0.017-13.747,0.002c-1.451-0.005-2.479-0.726-3.115-2.022
			c-0.099-0.201-0.213-0.393-0.321-0.59V164.919z"/>
		<path fill="#D9D9D9" d="M233.758,127.777c2.096,0.723,2.84,2.23,2.797,4.39c-0.078,4.11-0.02,8.223-0.023,12.335
			c-0.002,2.586-1.35,3.947-3.92,3.952c-4.053,0.007-8.109-0.077-12.16,0.033c-2.169,0.06-3.74-0.578-4.564-2.665v-15.417
			c0.518-1.235,1.394-2.111,2.629-2.628H233.758z"/>
		<path fill="#D9D9D9" d="M215.888,199.433c0.093-0.172,0.194-0.34,0.276-0.517c0.629-1.335,1.662-2.099,3.153-2.105
			c4.581-0.017,9.164-0.026,13.745,0.003c1.986,0.012,3.438,1.437,3.454,3.432c0.04,4.582,0.039,9.164,0.002,13.746
			c-0.017,2.026-1.506,3.457-3.524,3.465c-4.525,0.018-9.049,0.013-13.572,0.002c-1.561-0.004-2.646-0.768-3.289-2.18
			c-0.068-0.149-0.164-0.286-0.245-0.429V199.433z"/>
		<rect x="246.896" y="127.777" fill="#D9D9D9" width="58.69" height="6.807"/>
		<rect x="246.985" y="162.376" fill="#D9D9D9" width="58.543" height="6.732"/>
		<rect x="246.984" y="196.877" fill="#D9D9D9" width="58.542" height="6.73"/>
		<rect x="246.991" y="141.656" fill="#D9D9D9" width="51.665" height="6.746"/>
		<rect x="246.987" y="176.153" fill="#D9D9D9" width="51.668" height="6.738"/>
		<rect x="246.987" y="210.655" fill="#D9D9D9" width="51.668" height="6.744"/>
		<path fill="#D9D9D9" d="M124.971,26.444c0.076-0.14,0.158-0.276,0.229-0.42c0.453-0.922,1.184-1.436,2.219-1.438
			c3.263-0.011,6.524-0.015,9.787,0.001c1.375,0.007,2.434,1.006,2.448,2.39c0.035,3.304,0.035,6.609,0,9.913
			c-0.015,1.384-1.073,2.383-2.448,2.39c-3.263,0.016-6.524,0.012-9.787,0.002c-1.035-0.004-1.766-0.518-2.219-1.44
			c-0.07-0.143-0.152-0.28-0.229-0.42V26.444z"/>
		<path fill="#D9D9D9" d="M137.693,0c1.492,0.516,2.022,1.588,1.992,3.125c-0.056,2.927-0.014,5.855-0.018,8.783
			c-0.002,1.841-0.961,2.812-2.791,2.814c-2.885,0.005-5.773-0.055-8.657,0.023c-1.544,0.042-2.663-0.412-3.249-1.897V1.871
			c0.368-0.879,0.992-1.503,1.871-1.871H137.693z"/>
		<path fill="#D9D9D9" d="M124.971,51.018c0.066-0.123,0.138-0.242,0.197-0.368c0.447-0.951,1.183-1.494,2.244-1.498
			c3.262-0.013,6.524-0.019,9.787,0.001c1.413,0.009,2.447,1.024,2.459,2.444c0.028,3.262,0.028,6.525,0.002,9.787
			c-0.013,1.443-1.072,2.461-2.511,2.467c-3.221,0.013-6.44,0.009-9.662,0.001c-1.112-0.002-1.884-0.547-2.342-1.552
			c-0.049-0.106-0.116-0.204-0.175-0.305V51.018z"/>
		<rect x="147.049" fill="#D9D9D9" width="41.787" height="4.847"/>
		<rect x="147.112" y="24.634" fill="#D9D9D9" width="41.682" height="4.794"/>
		<rect x="147.11" y="49.198" fill="#D9D9D9" width="41.682" height="4.792"/>
		<rect x="147.116" y="9.883" fill="#D9D9D9" width="36.785" height="4.803"/>
		<rect x="147.113" y="34.444" fill="#D9D9D9" width="36.787" height="4.797"/>
		<rect x="147.112" y="59.008" fill="#D9D9D9" width="36.788" height="4.802"/>
		<path fill="#D9D9D9" d="M314.811,52.342c0.045-0.081,0.092-0.161,0.133-0.244c0.263-0.536,0.688-0.835,1.289-0.837
			c1.896-0.006,3.793-0.008,5.689,0.001c0.799,0.004,1.414,0.585,1.424,1.389c0.02,1.921,0.02,3.842,0,5.762
			c-0.01,0.804-0.625,1.386-1.424,1.389c-1.896,0.01-3.793,0.008-5.689,0.001c-0.602-0.002-1.026-0.3-1.289-0.836
			c-0.041-0.084-0.088-0.163-0.133-0.245V52.342z"/>
		<path fill="#D9D9D9" d="M322.205,36.971c0.867,0.299,1.176,0.923,1.158,1.817c-0.033,1.701-0.008,3.403-0.01,5.105
			c-0.001,1.07-0.559,1.633-1.622,1.635c-1.678,0.003-3.356-0.031-5.032,0.014c-0.898,0.025-1.549-0.239-1.89-1.103v-6.38
			c0.214-0.511,0.577-0.874,1.088-1.088H322.205z"/>
		<path fill="#D9D9D9" d="M314.811,66.625c0.037-0.071,0.08-0.141,0.114-0.214c0.261-0.552,0.687-0.869,1.304-0.871
			c1.897-0.007,3.793-0.011,5.689,0.001c0.822,0.005,1.422,0.595,1.43,1.421c0.017,1.896,0.017,3.792,0,5.688
			c-0.007,0.839-0.623,1.431-1.459,1.435c-1.871,0.008-3.744,0.006-5.615,0.001c-0.646-0.002-1.096-0.318-1.361-0.902
			c-0.029-0.062-0.068-0.119-0.102-0.178V66.625z"/>
		<rect x="327.643" y="36.971" fill="#D9D9D9" width="24.291" height="2.817"/>
		<rect x="327.68" y="51.29" fill="#D9D9D9" width="24.229" height="2.786"/>
		<rect x="327.68" y="65.567" fill="#D9D9D9" width="24.229" height="2.786"/>
		<rect x="327.684" y="42.715" fill="#D9D9D9" width="21.382" height="2.792"/>
		<rect x="327.682" y="56.99" fill="#D9D9D9" width="21.383" height="2.789"/>
		<rect x="327.682" y="71.27" fill="#D9D9D9" width="21.383" height="2.791"/>
		<path fill="#D9D9D9" d="M422.641,170.84c0.045-0.081,0.092-0.161,0.133-0.244c0.264-0.536,0.688-0.835,1.289-0.837
			c1.896-0.006,3.793-0.008,5.69,0.001c0.799,0.004,1.413,0.585,1.423,1.39c0.02,1.92,0.02,3.841,0,5.761
			c-0.01,0.805-0.624,1.386-1.423,1.39c-1.897,0.009-3.794,0.007-5.69,0c-0.601-0.002-1.025-0.3-1.289-0.836
			c-0.041-0.083-0.088-0.163-0.133-0.244V170.84z"/>
		<path fill="#D9D9D9" d="M430.036,155.469c0.867,0.299,1.175,0.923,1.158,1.817c-0.033,1.701-0.008,3.403-0.011,5.104
			c0,1.07-0.559,1.633-1.621,1.635c-1.678,0.003-3.356-0.032-5.033,0.014c-0.898,0.024-1.548-0.239-1.889-1.104v-6.381
			c0.214-0.511,0.576-0.873,1.088-1.087H430.036z"/>
		<path fill="#D9D9D9" d="M422.641,185.124c0.038-0.071,0.08-0.141,0.115-0.214c0.26-0.552,0.688-0.869,1.304-0.871
			c1.897-0.007,3.793-0.011,5.688,0.001c0.822,0.005,1.423,0.595,1.431,1.421c0.017,1.896,0.017,3.792,0,5.688
			c-0.007,0.839-0.623,1.431-1.459,1.436c-1.872,0.007-3.744,0.005-5.616,0c-0.646-0.001-1.095-0.318-1.361-0.902
			c-0.028-0.062-0.067-0.118-0.102-0.177V185.124z"/>
		<rect x="435.475" y="155.469" fill="#D9D9D9" width="24.289" height="2.817"/>
		<rect x="435.512" y="169.786" fill="#D9D9D9" width="24.228" height="2.787"/>
		<rect x="435.51" y="184.065" fill="#D9D9D9" width="24.229" height="2.786"/>
		<rect x="435.514" y="161.213" fill="#D9D9D9" width="21.381" height="2.792"/>
		<rect x="435.512" y="175.489" fill="#D9D9D9" width="21.383" height="2.789"/>
		<rect x="435.512" y="189.769" fill="#D9D9D9" width="21.383" height="2.791"/>
		<path fill="#D9D9D9" d="M445.31,27.004c0.028-0.052,0.06-0.104,0.086-0.157c0.17-0.347,0.444-0.54,0.833-0.541
			c1.224-0.004,2.449-0.005,3.674,0c0.516,0.003,0.913,0.378,0.919,0.898c0.013,1.24,0.013,2.481,0,3.721
			c-0.006,0.52-0.403,0.896-0.919,0.897c-1.225,0.006-2.45,0.005-3.674,0.001c-0.389-0.002-0.663-0.194-0.833-0.541
			c-0.026-0.053-0.058-0.105-0.086-0.157V27.004z"/>
		<path fill="#D9D9D9" d="M450.086,17.077c0.56,0.193,0.759,0.596,0.748,1.173c-0.021,1.1-0.006,2.198-0.008,3.297
			c0,0.691-0.359,1.055-1.047,1.056c-1.084,0.002-2.168-0.021-3.25,0.009c-0.58,0.016-1-0.154-1.22-0.712v-4.121
			c0.138-0.33,0.372-0.564,0.702-0.702H450.086z"/>
		<path fill="#D9D9D9" d="M445.31,36.229c0.024-0.046,0.052-0.091,0.073-0.138c0.168-0.357,0.444-0.562,0.844-0.563
			c1.224-0.004,2.449-0.007,3.673,0.001c0.53,0.003,0.919,0.384,0.924,0.917c0.011,1.226,0.011,2.45,0,3.674
			c-0.004,0.542-0.401,0.924-0.942,0.926c-1.209,0.005-2.418,0.004-3.627,0.001c-0.416-0.001-0.707-0.205-0.879-0.583
			c-0.019-0.04-0.043-0.076-0.065-0.114V36.229z"/>
		<rect x="453.598" y="17.077" fill="#D9D9D9" width="15.687" height="1.819"/>
		<rect x="453.621" y="26.323" fill="#D9D9D9" width="15.646" height="1.8"/>
		<rect x="453.62" y="35.545" fill="#D9D9D9" width="15.647" height="1.799"/>
		<rect x="453.622" y="20.787" fill="#D9D9D9" width="13.81" height="1.803"/>
		<rect x="453.621" y="30.007" fill="#D9D9D9" width="13.811" height="1.801"/>
		<rect x="453.621" y="39.229" fill="#D9D9D9" width="13.811" height="1.802"/>
	</g>
	<g>
		<path fill="#D9D9D9" d="M1512.056,152.521c0.134-0.245,0.278-0.485,0.401-0.735c0.793-1.615,2.072-2.514,3.883-2.52
			c5.711-0.019,11.423-0.026,17.134,0.002c2.407,0.012,4.259,1.762,4.285,4.185c0.063,5.783,0.063,11.568,0,17.352
			c-0.026,2.423-1.878,4.173-4.285,4.184c-5.711,0.028-11.423,0.021-17.134,0.003c-1.811-0.006-3.09-0.906-3.883-2.521
			c-0.123-0.25-0.268-0.49-0.401-0.734V152.521z"/>
		<path fill="#D9D9D9" d="M1534.328,106.229c2.612,0.901,3.54,2.78,3.488,5.471c-0.1,5.123-0.025,10.25-0.03,15.375
			c-0.004,3.222-1.683,4.92-4.886,4.925c-5.052,0.009-10.106-0.095-15.156,0.042c-2.703,0.074-4.662-0.721-5.688-3.322v-19.216
			c0.645-1.538,1.737-2.63,3.276-3.275H1534.328z"/>
		<path fill="#D9D9D9" d="M1512.056,195.537c0.116-0.215,0.242-0.424,0.347-0.644c0.783-1.664,2.068-2.616,3.929-2.623
			c5.71-0.022,11.421-0.034,17.132,0.002c2.475,0.016,4.283,1.792,4.305,4.279c0.05,5.71,0.049,11.421,0.002,17.132
			c-0.021,2.526-1.877,4.309-4.394,4.319c-5.638,0.022-11.276,0.016-16.914,0.002c-1.946-0.005-3.298-0.957-4.1-2.717
			c-0.085-0.186-0.203-0.356-0.307-0.534V195.537z"/>
		<rect x="1550.706" y="106.229" fill="#D9D9D9" width="73.15" height="8.484"/>
		<rect x="1550.815" y="149.351" fill="#D9D9D9" width="72.966" height="8.392"/>
		<rect x="1550.813" y="192.353" fill="#D9D9D9" width="72.966" height="8.389"/>
		<rect x="1550.824" y="123.527" fill="#D9D9D9" width="64.393" height="8.408"/>
		<rect x="1550.817" y="166.523" fill="#D9D9D9" width="64.397" height="8.398"/>
		<rect x="1550.817" y="209.523" fill="#D9D9D9" width="64.397" height="8.406"/>
		<path fill="#D9D9D9" d="M1197.979,168.542c0.107-0.196,0.223-0.389,0.321-0.589c0.636-1.296,1.663-2.018,3.115-2.023
			c4.583-0.014,9.165-0.02,13.747,0.002c1.931,0.01,3.417,1.414,3.438,3.358c0.051,4.64,0.051,9.281,0,13.921
			c-0.021,1.944-1.507,3.349-3.438,3.357c-4.582,0.023-9.164,0.018-13.747,0.002c-1.452-0.005-2.479-0.726-3.115-2.021
			c-0.099-0.201-0.214-0.394-0.321-0.59V168.542z"/>
		<path fill="#D9D9D9" d="M1215.848,131.401c2.097,0.723,2.841,2.23,2.799,4.39c-0.079,4.11-0.021,8.223-0.024,12.335
			c-0.003,2.586-1.35,3.947-3.92,3.952c-4.053,0.007-8.109-0.077-12.16,0.033c-2.169,0.06-3.741-0.578-4.563-2.665v-15.417
			c0.517-1.235,1.393-2.111,2.628-2.628H1215.848z"/>
		<path fill="#D9D9D9" d="M1197.979,203.056c0.093-0.172,0.193-0.34,0.276-0.517c0.629-1.335,1.661-2.099,3.153-2.104
			c4.581-0.019,9.164-0.027,13.745,0.002c1.985,0.012,3.437,1.437,3.454,3.432c0.04,4.582,0.039,9.164,0.002,13.746
			c-0.018,2.026-1.506,3.457-3.525,3.465c-4.523,0.019-9.048,0.013-13.571,0.002c-1.561-0.004-2.646-0.768-3.29-2.18
			c-0.067-0.149-0.162-0.286-0.244-0.429V203.056z"/>
		<rect x="1228.988" y="131.401" fill="#D9D9D9" width="58.689" height="6.807"/>
		<rect x="1229.075" y="166" fill="#D9D9D9" width="58.543" height="6.732"/>
		<rect x="1229.075" y="200.5" fill="#D9D9D9" width="58.542" height="6.731"/>
		<rect x="1229.082" y="145.28" fill="#D9D9D9" width="51.665" height="6.746"/>
		<rect x="1229.078" y="179.777" fill="#D9D9D9" width="51.668" height="6.738"/>
		<rect x="1229.077" y="214.277" fill="#D9D9D9" width="51.668" height="6.744"/>
		<path fill="#D9D9D9" d="M1377.762,119.02c0.076-0.14,0.158-0.277,0.229-0.42c0.453-0.923,1.184-1.436,2.218-1.44
			c3.264-0.01,6.525-0.014,9.788,0.002c1.375,0.006,2.434,1.006,2.448,2.39c0.035,3.304,0.035,6.609,0,9.912
			c-0.015,1.385-1.073,2.384-2.448,2.391c-3.263,0.016-6.524,0.012-9.788,0.001c-1.034-0.003-1.765-0.517-2.218-1.439
			c-0.07-0.143-0.152-0.279-0.229-0.419V119.02z"/>
		<path fill="#D9D9D9" d="M1390.484,92.575c1.492,0.515,2.022,1.588,1.992,3.125c-0.056,2.927-0.014,5.855-0.017,8.783
			c-0.003,1.841-0.962,2.811-2.791,2.813c-2.887,0.005-5.774-0.055-8.658,0.024c-1.544,0.042-2.663-0.412-3.249-1.898V94.446
			c0.368-0.879,0.992-1.503,1.871-1.871H1390.484z"/>
		<path fill="#D9D9D9" d="M1377.762,143.593c0.065-0.123,0.138-0.242,0.196-0.368c0.448-0.951,1.184-1.494,2.245-1.498
			c3.262-0.013,6.524-0.019,9.787,0.001c1.413,0.009,2.447,1.024,2.459,2.444c0.028,3.262,0.028,6.525,0.001,9.787
			c-0.012,1.443-1.072,2.462-2.51,2.467c-3.222,0.013-6.441,0.009-9.662,0.001c-1.112-0.002-1.884-0.547-2.342-1.552
			c-0.049-0.106-0.116-0.203-0.175-0.305V143.593z"/>
		<rect x="1399.84" y="92.575" fill="#D9D9D9" width="41.787" height="4.847"/>
		<rect x="1399.903" y="117.208" fill="#D9D9D9" width="41.682" height="4.794"/>
		<rect x="1399.901" y="141.773" fill="#D9D9D9" width="41.682" height="4.792"/>
		<rect x="1399.907" y="102.458" fill="#D9D9D9" width="36.785" height="4.803"/>
		<rect x="1399.904" y="127.02" fill="#D9D9D9" width="36.787" height="4.797"/>
		<rect x="1399.903" y="151.583" fill="#D9D9D9" width="36.788" height="4.802"/>
		<path fill="#D9D9D9" d="M1487.724,20.612c0.029-0.052,0.061-0.104,0.086-0.157c0.171-0.347,0.444-0.54,0.833-0.541
			c1.225-0.004,2.449-0.005,3.674,0c0.517,0.003,0.914,0.378,0.92,0.898c0.013,1.24,0.013,2.48,0,3.721
			c-0.006,0.519-0.403,0.895-0.92,0.897c-1.225,0.006-2.449,0.005-3.674,0.001c-0.389-0.002-0.662-0.194-0.833-0.541
			c-0.025-0.053-0.057-0.105-0.086-0.157V20.612z"/>
		<path fill="#D9D9D9" d="M1492.5,10.686c0.561,0.193,0.759,0.596,0.748,1.173c-0.021,1.099-0.005,2.198-0.007,3.297
			c0,0.691-0.36,1.055-1.047,1.056c-1.084,0.002-2.168-0.02-3.25,0.009c-0.58,0.016-1-0.154-1.22-0.712v-4.121
			c0.138-0.33,0.371-0.564,0.701-0.702H1492.5z"/>
		<path fill="#D9D9D9" d="M1487.724,29.837c0.025-0.046,0.052-0.091,0.074-0.138c0.168-0.357,0.444-0.561,0.843-0.563
			c1.225-0.004,2.449-0.007,3.674,0.001c0.53,0.003,0.918,0.384,0.924,0.917c0.01,1.225,0.01,2.45,0,3.674
			c-0.004,0.542-0.402,0.924-0.942,0.926c-1.209,0.005-2.418,0.004-3.627,0.001c-0.417-0.001-0.707-0.205-0.879-0.583
			c-0.019-0.04-0.044-0.076-0.066-0.114V29.837z"/>
		<rect x="1496.012" y="10.686" fill="#D9D9D9" width="15.687" height="1.819"/>
		<rect x="1496.035" y="19.932" fill="#D9D9D9" width="15.646" height="1.8"/>
		<rect x="1496.035" y="29.153" fill="#D9D9D9" width="15.646" height="1.799"/>
		<rect x="1496.037" y="14.395" fill="#D9D9D9" width="13.809" height="1.803"/>
		<rect x="1496.036" y="23.614" fill="#D9D9D9" width="13.81" height="1.801"/>
		<rect x="1496.035" y="32.837" fill="#D9D9D9" width="13.811" height="1.802"/>
		<path fill="#D9D9D9" d="M1078.398,27.719c0.045-0.081,0.092-0.161,0.133-0.244c0.263-0.536,0.688-0.835,1.289-0.837
			c1.896-0.006,3.793-0.008,5.689,0.001c0.799,0.004,1.414,0.585,1.423,1.39c0.021,1.92,0.021,3.841,0,5.761
			c-0.009,0.805-0.624,1.386-1.423,1.39c-1.896,0.009-3.793,0.007-5.689,0c-0.602-0.002-1.026-0.3-1.289-0.836
			c-0.041-0.083-0.088-0.163-0.133-0.244V27.719z"/>
		<path fill="#D9D9D9" d="M1085.794,12.348c0.866,0.299,1.176,0.923,1.157,1.817c-0.032,1.701-0.008,3.403-0.01,5.104
			c-0.001,1.07-0.559,1.633-1.622,1.635c-1.678,0.003-3.355-0.032-5.032,0.014c-0.898,0.024-1.549-0.239-1.89-1.104v-6.381
			c0.214-0.511,0.577-0.873,1.088-1.087H1085.794z"/>
		<path fill="#D9D9D9" d="M1078.398,42.002c0.037-0.071,0.08-0.141,0.114-0.214c0.261-0.552,0.688-0.869,1.305-0.871
			c1.896-0.007,3.793-0.011,5.688,0.001c0.822,0.005,1.422,0.595,1.43,1.421c0.017,1.896,0.017,3.792,0,5.688
			c-0.007,0.839-0.623,1.431-1.459,1.436c-1.871,0.007-3.743,0.005-5.615,0c-0.646-0.001-1.096-0.318-1.361-0.902
			c-0.029-0.062-0.068-0.118-0.102-0.177V42.002z"/>
		<rect x="1091.231" y="12.348" fill="#D9D9D9" width="24.29" height="2.817"/>
		<rect x="1091.268" y="26.666" fill="#D9D9D9" width="24.229" height="2.787"/>
		<rect x="1091.269" y="40.944" fill="#D9D9D9" width="24.228" height="2.786"/>
		<rect x="1091.271" y="18.092" fill="#D9D9D9" width="21.382" height="2.792"/>
		<rect x="1091.27" y="32.368" fill="#D9D9D9" width="21.383" height="2.789"/>
		<rect x="1091.27" y="46.646" fill="#D9D9D9" width="21.383" height="2.791"/>
		<path fill="#D9D9D9" d="M1271.77,39.526c0.045-0.081,0.092-0.161,0.133-0.244c0.263-0.536,0.688-0.835,1.289-0.837
			c1.896-0.006,3.793-0.008,5.689,0.001c0.8,0.004,1.414,0.585,1.424,1.39c0.02,1.92,0.02,3.841,0,5.761
			c-0.01,0.805-0.624,1.386-1.424,1.39c-1.896,0.009-3.793,0.007-5.689,0c-0.602-0.002-1.026-0.3-1.289-0.836
			c-0.041-0.083-0.088-0.163-0.133-0.244V39.526z"/>
		<path fill="#D9D9D9" d="M1279.165,24.155c0.867,0.299,1.175,0.923,1.158,1.817c-0.033,1.701-0.009,3.403-0.011,5.105
			c0,1.07-0.559,1.633-1.621,1.635c-1.679,0.003-3.356-0.031-5.033,0.014c-0.898,0.025-1.548-0.239-1.89-1.103v-6.38
			c0.215-0.511,0.577-0.874,1.089-1.088H1279.165z"/>
		<path fill="#D9D9D9" d="M1271.77,53.81c0.038-0.07,0.08-0.141,0.115-0.214c0.26-0.552,0.687-0.869,1.304-0.871
			c1.896-0.007,3.793-0.011,5.688,0.001c0.822,0.005,1.422,0.596,1.431,1.421c0.016,1.896,0.016,3.792,0,5.688
			c-0.007,0.839-0.623,1.431-1.459,1.434c-1.872,0.008-3.744,0.006-5.616,0.001c-0.646-0.001-1.095-0.318-1.362-0.902
			c-0.027-0.063-0.066-0.118-0.101-0.177V53.81z"/>
		<rect x="1284.604" y="24.156" fill="#D9D9D9" width="24.289" height="2.817"/>
		<rect x="1284.641" y="38.474" fill="#D9D9D9" width="24.228" height="2.787"/>
		<rect x="1284.639" y="52.752" fill="#D9D9D9" width="24.229" height="2.786"/>
		<rect x="1284.643" y="29.898" fill="#D9D9D9" width="21.382" height="2.792"/>
		<rect x="1284.641" y="44.177" fill="#D9D9D9" width="21.383" height="2.788"/>
		<rect x="1284.641" y="58.455" fill="#D9D9D9" width="21.383" height="2.791"/>
	</g>
</g>
</svg>
