<?xml version="1.0" encoding="utf-8"?>
<!-- Generator: Adobe Illustrator 16.0.0, SVG Export Plug-In . SVG Version: 6.00 Build 0)  -->
<!DOCTYPE svg PUBLIC "-//W3C//DTD SVG 1.1//EN" "http://www.w3.org/Graphics/SVG/1.1/DTD/svg11.dtd">
<svg version="1.1" id="Layer_1" xmlns="http://www.w3.org/2000/svg" xmlns:xlink="http://www.w3.org/1999/xlink" x="0px" y="0px"
	 width="1116.45px" height="19.827px" viewBox="0 0 1116.45 19.827" enable-background="new 0 0 1116.45 19.827"
	 xml:space="preserve">
<g>
	<g>
		
			<rect x="688.662" y="-1.892" transform="matrix(0.8219 0.5696 -0.5696 0.8219 128.3568 -390.7211)" fill="#FF0000" width="0.751" height="23.61"/>
	</g>
	<g>
		
			<rect x="695.787" y="-1.892" transform="matrix(0.8219 0.5696 -0.5696 0.8219 129.6257 -394.7796)" fill="#FF0000" width="0.751" height="23.61"/>
	</g>
	<g>
		
			<rect x="702.912" y="-1.892" transform="matrix(0.8219 0.5696 -0.5696 0.8219 130.8945 -398.8381)" fill="#FF0000" width="0.751" height="23.61"/>
	</g>
	<g>
		
			<rect x="710.037" y="-1.892" transform="matrix(0.8219 0.5696 -0.5696 0.8219 132.1635 -402.8966)" fill="#FF0000" width="0.751" height="23.61"/>
	</g>
	<g>
		
			<rect x="717.162" y="-1.892" transform="matrix(0.8219 0.5696 -0.5696 0.8219 133.4323 -406.9551)" fill="#FF0000" width="0.751" height="23.61"/>
	</g>
	<g>
		
			<rect x="724.287" y="-1.892" transform="matrix(0.8219 0.5696 -0.5696 0.8219 134.7012 -411.0137)" fill="#FF0000" width="0.751" height="23.61"/>
	</g>
	<g>
		
			<rect x="731.412" y="-1.892" transform="matrix(0.8219 0.5696 -0.5696 0.8219 135.9701 -415.0722)" fill="#FF0000" width="0.751" height="23.61"/>
	</g>
	<g>
		
			<rect x="738.537" y="-1.892" transform="matrix(0.8219 0.5696 -0.5696 0.8219 137.239 -419.1307)" fill="#FF0000" width="0.751" height="23.61"/>
	</g>
	<g>
		
			<rect x="745.662" y="-1.892" transform="matrix(0.8219 0.5696 -0.5696 0.8219 138.5078 -423.1892)" fill="#FF0000" width="0.751" height="23.61"/>
	</g>
	<g>
		
			<rect x="752.787" y="-1.892" transform="matrix(0.8219 0.5696 -0.5696 0.8219 139.7767 -427.2477)" fill="#FF0000" width="0.751" height="23.61"/>
	</g>
	<g>
		
			<rect x="759.912" y="-1.892" transform="matrix(0.8219 0.5696 -0.5696 0.8219 141.0456 -431.3062)" fill="#FF0000" width="0.751" height="23.61"/>
	</g>
	<g>
		
			<rect x="767.037" y="-1.892" transform="matrix(0.8219 0.5696 -0.5696 0.8219 142.3145 -435.3647)" fill="#FF0000" width="0.751" height="23.61"/>
	</g>
	<g>
		
			<rect x="774.162" y="-1.892" transform="matrix(0.8219 0.5696 -0.5696 0.8219 143.5834 -439.4232)" fill="#FF0000" width="0.751" height="23.61"/>
	</g>
	<g>
		
			<rect x="781.287" y="-1.892" transform="matrix(0.8219 0.5696 -0.5696 0.8219 144.8522 -443.4818)" fill="#FF0000" width="0.751" height="23.61"/>
	</g>
	<g>
		
			<rect x="788.412" y="-1.892" transform="matrix(0.8219 0.5696 -0.5696 0.8219 146.1212 -447.5403)" fill="#FF0000" width="0.751" height="23.61"/>
	</g>
	<g>
		
			<rect x="795.537" y="-1.892" transform="matrix(0.8219 0.5696 -0.5696 0.8219 147.39 -451.5988)" fill="#FF0000" width="0.751" height="23.61"/>
	</g>
	<g>
		
			<rect x="802.662" y="-1.892" transform="matrix(0.8219 0.5696 -0.5696 0.8219 148.6589 -455.6573)" fill="#FF0000" width="0.751" height="23.61"/>
	</g>
	<g>
		
			<rect x="809.787" y="-1.892" transform="matrix(0.8219 0.5696 -0.5696 0.8219 149.9278 -459.7158)" fill="#FF0000" width="0.751" height="23.61"/>
	</g>
	<g>
		
			<rect x="816.912" y="-1.892" transform="matrix(0.8219 0.5696 -0.5696 0.8219 151.1967 -463.7743)" fill="#FF0000" width="0.751" height="23.61"/>
	</g>
	<g>
		
			<rect x="824.037" y="-1.892" transform="matrix(0.8219 0.5696 -0.5696 0.8219 152.4656 -467.8328)" fill="#FF0000" width="0.751" height="23.61"/>
	</g>
	<g>
		
			<rect x="831.162" y="-1.892" transform="matrix(0.8219 0.5696 -0.5696 0.8219 153.7344 -471.8913)" fill="#FF0000" width="0.751" height="23.61"/>
	</g>
	<g>
		
			<rect x="838.287" y="-1.892" transform="matrix(0.8219 0.5696 -0.5696 0.8219 155.0033 -475.9499)" fill="#FF0000" width="0.751" height="23.61"/>
	</g>
	<g>
		
			<rect x="845.412" y="-1.892" transform="matrix(0.8219 0.5696 -0.5696 0.8219 156.2722 -480.0084)" fill="#FF0000" width="0.751" height="23.61"/>
	</g>
	<g>
		
			<rect x="852.537" y="-1.892" transform="matrix(0.8219 0.5696 -0.5696 0.8219 157.5411 -484.0669)" fill="#FF0000" width="0.751" height="23.61"/>
	</g>
	<g>
		
			<rect x="860.162" y="-1.892" transform="matrix(0.8219 0.5696 -0.5696 0.8219 158.899 -488.4102)" fill="#FF0000" width="0.751" height="23.61"/>
	</g>
	<g>
		
			<rect x="867.287" y="-1.892" transform="matrix(0.8219 0.5696 -0.5696 0.8219 160.1679 -492.4687)" fill="#FF0000" width="0.751" height="23.61"/>
	</g>
	<g>
		
			<rect x="874.412" y="-1.892" transform="matrix(0.8219 0.5696 -0.5696 0.8219 161.4368 -496.5272)" fill="#FF0000" width="0.751" height="23.61"/>
	</g>
	<g>
		
			<rect x="881.537" y="-1.892" transform="matrix(0.8219 0.5696 -0.5696 0.8219 162.7056 -500.5857)" fill="#FF0000" width="0.751" height="23.61"/>
	</g>
	<g>
		
			<rect x="916.662" y="-1.892" transform="matrix(0.8219 0.5696 -0.5696 0.8219 168.961 -520.5935)" fill="#FF0000" width="0.751" height="23.61"/>
	</g>
	<g>
		
			<rect x="923.787" y="-1.892" transform="matrix(0.8219 0.5696 -0.5696 0.8219 170.2299 -524.652)" fill="#FF0000" width="0.751" height="23.61"/>
	</g>
	<g>
		
			<rect x="930.912" y="-1.892" transform="matrix(0.8219 0.5696 -0.5696 0.8219 171.4988 -528.7105)" fill="#FF0000" width="0.751" height="23.61"/>
	</g>
	<g>
		
			<rect x="938.037" y="-1.892" transform="matrix(0.8219 0.5696 -0.5696 0.8219 172.7677 -532.769)" fill="#FF0000" width="0.751" height="23.61"/>
	</g>
	<g>
		
			<rect x="888.662" y="-1.892" transform="matrix(0.8219 0.5696 -0.5696 0.8219 163.9745 -504.6442)" fill="#FF0000" width="0.751" height="23.61"/>
	</g>
	<g>
		
			<rect x="895.787" y="-1.892" transform="matrix(0.8219 0.5696 -0.5696 0.8219 165.2434 -508.7028)" fill="#FF0000" width="0.751" height="23.61"/>
	</g>
	<g>
		
			<rect x="902.912" y="-1.892" transform="matrix(0.8219 0.5696 -0.5696 0.8219 166.5123 -512.7612)" fill="#FF0000" width="0.751" height="23.61"/>
	</g>
	<g>
		
			<rect x="910.037" y="-1.892" transform="matrix(0.8219 0.5696 -0.5696 0.8219 167.7812 -516.8198)" fill="#FF0000" width="0.751" height="23.61"/>
	</g>
	<g>
		
			<rect x="945.162" y="-1.892" transform="matrix(0.8219 0.5696 -0.5696 0.8219 174.0366 -536.8275)" fill="#FF0000" width="0.751" height="23.61"/>
	</g>
	<g>
		
			<rect x="952.287" y="-1.892" transform="matrix(0.8219 0.5696 -0.5696 0.8219 175.3054 -540.886)" fill="#FF0000" width="0.751" height="23.61"/>
	</g>
	<g>
		
			<rect x="959.412" y="-1.892" transform="matrix(0.8219 0.5696 -0.5696 0.8219 176.5743 -544.9445)" fill="#FF0000" width="0.751" height="23.61"/>
	</g>
	<g>
		
			<rect x="966.537" y="-1.892" transform="matrix(0.8219 0.5696 -0.5696 0.8219 177.8432 -549.0031)" fill="#FF0000" width="0.751" height="23.61"/>
	</g>
	<g>
		
			<rect x="973.662" y="-1.892" transform="matrix(0.8219 0.5696 -0.5696 0.8219 179.1121 -553.0616)" fill="#FF0000" width="0.751" height="23.61"/>
	</g>
	<g>
		
			<rect x="980.787" y="-1.892" transform="matrix(0.8219 0.5696 -0.5696 0.8219 180.381 -557.1201)" fill="#FF0000" width="0.751" height="23.61"/>
	</g>
	<g>
		
			<rect x="987.912" y="-1.892" transform="matrix(0.8219 0.5696 -0.5696 0.8219 181.6498 -561.1786)" fill="#FF0000" width="0.751" height="23.61"/>
	</g>
	<g>
		
			<rect x="995.037" y="-1.892" transform="matrix(0.8219 0.5696 -0.5696 0.8219 182.9187 -565.2371)" fill="#FF0000" width="0.751" height="23.61"/>
	</g>
	<g>
		
			<rect x="1002.162" y="-1.892" transform="matrix(0.8219 0.5696 -0.5696 0.8219 184.1876 -569.2956)" fill="#FF0000" width="0.751" height="23.61"/>
	</g>
	<g>
		
			<rect x="1009.287" y="-1.892" transform="matrix(0.8219 0.5696 -0.5696 0.8219 185.4565 -573.3541)" fill="#FF0000" width="0.751" height="23.61"/>
	</g>
	<g>
		
			<rect x="1016.412" y="-1.892" transform="matrix(0.8219 0.5696 -0.5696 0.8219 186.7254 -577.4127)" fill="#FF0000" width="0.751" height="23.61"/>
	</g>
	<g>
		
			<rect x="1023.537" y="-1.892" transform="matrix(0.8219 0.5696 -0.5696 0.8219 187.9943 -581.4711)" fill="#FF0000" width="0.751" height="23.61"/>
	</g>
	<g>
		
			<rect x="1030.662" y="-1.892" transform="matrix(0.8219 0.5696 -0.5696 0.8219 189.2631 -585.5297)" fill="#FF0000" width="0.751" height="23.61"/>
	</g>
	<g>
		
			<rect x="1037.787" y="-1.892" transform="matrix(0.8219 0.5696 -0.5696 0.8219 190.532 -589.5882)" fill="#FF0000" width="0.751" height="23.61"/>
	</g>
	<g>
		
			<rect x="1044.912" y="-1.892" transform="matrix(0.8219 0.5696 -0.5696 0.8219 191.8009 -593.6467)" fill="#FF0000" width="0.751" height="23.61"/>
	</g>
	<g>
		
			<rect x="1052.037" y="-1.892" transform="matrix(0.8219 0.5696 -0.5696 0.8219 193.0698 -597.7052)" fill="#FF0000" width="0.751" height="23.61"/>
	</g>
	<g>
		
			<rect x="1059.162" y="-1.892" transform="matrix(0.8219 0.5696 -0.5696 0.8219 194.3387 -601.7637)" fill="#FF0000" width="0.751" height="23.61"/>
	</g>
	<g>
		
			<rect x="1066.287" y="-1.892" transform="matrix(0.8219 0.5696 -0.5696 0.8219 195.6075 -605.8222)" fill="#FF0000" width="0.751" height="23.61"/>
	</g>
	<g>
		
			<rect x="1073.412" y="-1.892" transform="matrix(0.8219 0.5696 -0.5696 0.8219 196.8765 -609.8807)" fill="#FF0000" width="0.751" height="23.61"/>
	</g>
	<g>
		
			<rect x="1080.537" y="-1.892" transform="matrix(0.8219 0.5696 -0.5696 0.8219 198.1453 -613.9393)" fill="#FF0000" width="0.751" height="23.61"/>
	</g>
	<g>
		
			<rect x="1087.662" y="-1.892" transform="matrix(0.8219 0.5696 -0.5696 0.8219 199.4142 -617.9977)" fill="#FF0000" width="0.751" height="23.61"/>
	</g>
	<g>
		
			<rect x="1094.787" y="-1.892" transform="matrix(0.8219 0.5696 -0.5696 0.8219 200.6831 -622.0563)" fill="#FF0000" width="0.751" height="23.61"/>
	</g>
	<g>
		
			<rect x="1101.912" y="-1.892" transform="matrix(0.8219 0.5696 -0.5696 0.8219 201.952 -626.1148)" fill="#FF0000" width="0.751" height="23.61"/>
	</g>
	<g>
		
			<rect x="1109.037" y="-1.892" transform="matrix(0.8219 0.5696 -0.5696 0.8219 203.2208 -630.1733)" fill="#FF0000" width="0.751" height="23.61"/>
	</g>
	<g>
		
			<rect x="6.662" y="-1.892" transform="matrix(0.8219 0.5696 -0.5696 0.8219 6.9002 -2.2432)" fill="#FF0000" width="0.751" height="23.61"/>
	</g>
	<g>
		
			<rect x="13.787" y="-1.892" transform="matrix(0.8219 0.5696 -0.5696 0.8219 8.1691 -6.3017)" fill="#FF0000" width="0.751" height="23.61"/>
	</g>
	<g>
		
			<rect x="20.912" y="-1.892" transform="matrix(0.8219 0.5696 -0.5696 0.8219 9.438 -10.3603)" fill="#FF0000" width="0.751" height="23.61"/>
	</g>
	<g>
		
			<rect x="28.037" y="-1.892" transform="matrix(0.8219 0.5696 -0.5696 0.8219 10.7069 -14.4188)" fill="#FF0000" width="0.751" height="23.61"/>
	</g>
	<g>
		
			<rect x="35.162" y="-1.892" transform="matrix(0.8219 0.5696 -0.5696 0.8219 11.9758 -18.4773)" fill="#FF0000" width="0.751" height="23.61"/>
	</g>
	<g>
		
			<rect x="42.287" y="-1.892" transform="matrix(0.8219 0.5696 -0.5696 0.8219 13.2447 -22.5358)" fill="#FF0000" width="0.751" height="23.61"/>
	</g>
	<g>
		
			<rect x="49.412" y="-1.892" transform="matrix(0.8219 0.5696 -0.5696 0.8219 14.5135 -26.5943)" fill="#FF0000" width="0.751" height="23.61"/>
	</g>
	<g>
		
			<rect x="56.537" y="-1.892" transform="matrix(0.8219 0.5696 -0.5696 0.8219 15.7824 -30.6528)" fill="#FF0000" width="0.751" height="23.61"/>
	</g>
	<g>
		
			<rect x="63.662" y="-1.892" transform="matrix(0.8219 0.5696 -0.5696 0.8219 17.0513 -34.7113)" fill="#FF0000" width="0.751" height="23.61"/>
	</g>
	<g>
		
			<rect x="70.787" y="-1.892" transform="matrix(0.8219 0.5696 -0.5696 0.8219 18.3202 -38.7698)" fill="#FF0000" width="0.751" height="23.61"/>
	</g>
	<g>
		
			<rect x="77.912" y="-1.892" transform="matrix(0.8219 0.5696 -0.5696 0.8219 19.5891 -42.8283)" fill="#FF0000" width="0.751" height="23.61"/>
	</g>
	<g>
		
			<rect x="85.037" y="-1.892" transform="matrix(0.8219 0.5696 -0.5696 0.8219 20.858 -46.8869)" fill="#FF0000" width="0.751" height="23.61"/>
	</g>
	<g>
		
			<rect x="92.162" y="-1.892" transform="matrix(0.8219 0.5696 -0.5696 0.8219 22.1268 -50.9454)" fill="#FF0000" width="0.751" height="23.61"/>
	</g>
	<g>
		
			<rect x="99.287" y="-1.892" transform="matrix(0.8219 0.5696 -0.5696 0.8219 23.3957 -55.0039)" fill="#FF0000" width="0.751" height="23.61"/>
	</g>
	<g>
		
			<rect x="106.412" y="-1.892" transform="matrix(0.8219 0.5696 -0.5696 0.8219 24.6646 -59.0624)" fill="#FF0000" width="0.751" height="23.61"/>
	</g>
	<g>
		
			<rect x="113.537" y="-1.892" transform="matrix(0.8219 0.5696 -0.5696 0.8219 25.9335 -63.1209)" fill="#FF0000" width="0.751" height="23.61"/>
	</g>
	<g>
		
			<rect x="120.662" y="-1.892" transform="matrix(0.8219 0.5696 -0.5696 0.8219 27.2024 -67.1794)" fill="#FF0000" width="0.751" height="23.61"/>
	</g>
	<g>
		
			<rect x="127.787" y="-1.892" transform="matrix(0.8219 0.5696 -0.5696 0.8219 28.4712 -71.2379)" fill="#FF0000" width="0.751" height="23.61"/>
	</g>
	<g>
		
			<rect x="134.912" y="-1.892" transform="matrix(0.8219 0.5696 -0.5696 0.8219 29.7401 -75.2964)" fill="#FF0000" width="0.751" height="23.61"/>
	</g>
	<g>
		
			<rect x="142.037" y="-1.892" transform="matrix(0.8219 0.5696 -0.5696 0.8219 31.009 -79.3549)" fill="#FF0000" width="0.751" height="23.61"/>
	</g>
	<g>
		
			<rect x="149.162" y="-1.892" transform="matrix(0.8219 0.5696 -0.5696 0.8219 32.2779 -83.4135)" fill="#FF0000" width="0.751" height="23.61"/>
	</g>
	<g>
		
			<rect x="156.287" y="-1.892" transform="matrix(0.8219 0.5696 -0.5696 0.8219 33.5468 -87.472)" fill="#FF0000" width="0.751" height="23.61"/>
	</g>
	<g>
		
			<rect x="163.412" y="-1.892" transform="matrix(0.8219 0.5696 -0.5696 0.8219 34.8157 -91.5305)" fill="#FF0000" width="0.751" height="23.61"/>
	</g>
	<g>
		
			<rect x="170.537" y="-1.892" transform="matrix(0.8219 0.5696 -0.5696 0.8219 36.0845 -95.589)" fill="#FF0000" width="0.751" height="23.61"/>
	</g>
	<g>
		
			<rect x="177.662" y="-1.892" transform="matrix(0.8219 0.5696 -0.5696 0.8219 37.3534 -99.6475)" fill="#FF0000" width="0.751" height="23.61"/>
	</g>
	<g>
		
			<rect x="184.787" y="-1.892" transform="matrix(0.8219 0.5696 -0.5696 0.8219 38.6223 -103.706)" fill="#FF0000" width="0.751" height="23.61"/>
	</g>
	<g>
		
			<rect x="191.912" y="-1.892" transform="matrix(0.8219 0.5696 -0.5696 0.8219 39.8912 -107.7645)" fill="#FF0000" width="0.751" height="23.61"/>
	</g>
	<g>
		
			<rect x="199.037" y="-1.892" transform="matrix(0.8219 0.5696 -0.5696 0.8219 41.1601 -111.823)" fill="#FF0000" width="0.751" height="23.61"/>
	</g>
	<g>
		
			<rect x="206.787" y="-1.892" transform="matrix(0.8219 0.5696 -0.5696 0.8219 42.5403 -116.2376)" fill="#FF0000" width="0.751" height="23.61"/>
	</g>
	<g>
		
			<rect x="213.912" y="-1.892" transform="matrix(0.8219 0.5696 -0.5696 0.8219 43.8091 -120.2961)" fill="#FF0000" width="0.751" height="23.61"/>
	</g>
	<g>
		
			<rect x="221.037" y="-1.892" transform="matrix(0.8219 0.5696 -0.5696 0.8219 45.078 -124.3546)" fill="#FF0000" width="0.751" height="23.61"/>
	</g>
	<g>
		
			<rect x="250.412" y="-1.892" transform="matrix(0.8219 0.5696 -0.5696 0.8219 50.3094 -141.087)" fill="#FF0000" width="0.751" height="23.61"/>
	</g>
	<g>
		
			<rect x="257.537" y="-1.892" transform="matrix(0.8219 0.5696 -0.5696 0.8219 51.5783 -145.1456)" fill="#FF0000" width="0.751" height="23.61"/>
	</g>
	<g>
		
			<rect x="264.662" y="-1.892" transform="matrix(0.8219 0.5696 -0.5696 0.8219 52.8472 -149.2041)" fill="#FF0000" width="0.751" height="23.61"/>
	</g>
	<g>
		
			<rect x="228.412" y="-1.892" transform="matrix(0.8219 0.5696 -0.5696 0.8219 46.3914 -128.5555)" fill="#FF0000" width="0.751" height="23.61"/>
	</g>
	<g>
		
			<rect x="235.537" y="-1.892" transform="matrix(0.8219 0.5696 -0.5696 0.8219 47.6603 -132.614)" fill="#FF0000" width="0.751" height="23.61"/>
	</g>
	<g>
		
			<rect x="242.662" y="-1.892" transform="matrix(0.8219 0.5696 -0.5696 0.8219 48.9292 -136.6725)" fill="#FF0000" width="0.751" height="23.61"/>
	</g>
	<g>
		
			<rect x="271.787" y="-1.892" transform="matrix(0.8219 0.5696 -0.5696 0.8219 54.116 -153.2626)" fill="#FF0000" width="0.751" height="23.61"/>
	</g>
	<g>
		
			<rect x="278.912" y="-1.892" transform="matrix(0.8219 0.5696 -0.5696 0.8219 55.3849 -157.3211)" fill="#FF0000" width="0.751" height="23.61"/>
	</g>
	<g>
		
			<rect x="286.037" y="-1.892" transform="matrix(0.8219 0.5696 -0.5696 0.8219 56.6538 -161.3796)" fill="#FF0000" width="0.751" height="23.61"/>
	</g>
	<g>
		
			<rect x="293.162" y="-1.892" transform="matrix(0.8219 0.5696 -0.5696 0.8219 57.9227 -165.4381)" fill="#FF0000" width="0.751" height="23.61"/>
	</g>
	<g>
		
			<rect x="300.287" y="-1.892" transform="matrix(0.8219 0.5696 -0.5696 0.8219 59.1916 -169.4966)" fill="#FF0000" width="0.751" height="23.61"/>
	</g>
	<g>
		
			<rect x="307.412" y="-1.892" transform="matrix(0.8219 0.5696 -0.5696 0.8219 60.4604 -173.5551)" fill="#FF0000" width="0.751" height="23.61"/>
	</g>
	<g>
		
			<rect x="314.537" y="-1.892" transform="matrix(0.8219 0.5696 -0.5696 0.8219 61.7293 -177.6136)" fill="#FF0000" width="0.751" height="23.61"/>
	</g>
	<g>
		
			<rect x="321.662" y="-1.892" transform="matrix(0.8219 0.5696 -0.5696 0.8219 62.9982 -181.6721)" fill="#FF0000" width="0.751" height="23.61"/>
	</g>
	<g>
		
			<rect x="328.787" y="-1.892" transform="matrix(0.8219 0.5696 -0.5696 0.8219 64.2671 -185.7307)" fill="#FF0000" width="0.751" height="23.61"/>
	</g>
	<g>
		
			<rect x="335.912" y="-1.892" transform="matrix(0.8219 0.5696 -0.5696 0.8219 65.536 -189.7892)" fill="#FF0000" width="0.751" height="23.61"/>
	</g>
	<g>
		
			<rect x="343.037" y="-1.892" transform="matrix(0.8219 0.5696 -0.5696 0.8219 66.8049 -193.8477)" fill="#FF0000" width="0.751" height="23.61"/>
	</g>
	<g>
		
			<rect x="350.162" y="-1.892" transform="matrix(0.8219 0.5696 -0.5696 0.8219 68.0738 -197.9062)" fill="#FF0000" width="0.751" height="23.61"/>
	</g>
	<g>
		
			<rect x="357.287" y="-1.892" transform="matrix(0.8219 0.5696 -0.5696 0.8219 69.3427 -201.9647)" fill="#FF0000" width="0.751" height="23.61"/>
	</g>
	<g>
		
			<rect x="364.412" y="-1.892" transform="matrix(0.8219 0.5696 -0.5696 0.8219 70.6115 -206.0232)" fill="#FF0000" width="0.751" height="23.61"/>
	</g>
	<g>
		
			<rect x="371.537" y="-1.892" transform="matrix(0.8219 0.5696 -0.5696 0.8219 71.8804 -210.0817)" fill="#FF0000" width="0.751" height="23.61"/>
	</g>
	<g>
		
			<rect x="378.662" y="-1.892" transform="matrix(0.8219 0.5696 -0.5696 0.8219 73.1493 -214.1402)" fill="#FF0000" width="0.751" height="23.61"/>
	</g>
	<g>
		
			<rect x="385.787" y="-1.892" transform="matrix(0.8219 0.5696 -0.5696 0.8219 74.4182 -218.1988)" fill="#FF0000" width="0.751" height="23.61"/>
	</g>
	<g>
		
			<rect x="392.912" y="-1.892" transform="matrix(0.8219 0.5696 -0.5696 0.8219 75.687 -222.2573)" fill="#FF0000" width="0.751" height="23.61"/>
	</g>
	<g>
		
			<rect x="400.037" y="-1.892" transform="matrix(0.8219 0.5696 -0.5696 0.8219 76.9559 -226.3158)" fill="#FF0000" width="0.751" height="23.61"/>
	</g>
	<g>
		
			<rect x="407.162" y="-1.892" transform="matrix(0.8219 0.5696 -0.5696 0.8219 78.2248 -230.3743)" fill="#FF0000" width="0.751" height="23.61"/>
	</g>
	<g>
		
			<rect x="414.287" y="-1.892" transform="matrix(0.8219 0.5696 -0.5696 0.8219 79.4937 -234.4328)" fill="#FF0000" width="0.751" height="23.61"/>
	</g>
	<g>
		
			<rect x="421.412" y="-1.892" transform="matrix(0.8219 0.5696 -0.5696 0.8219 80.7626 -238.4913)" fill="#FF0000" width="0.751" height="23.61"/>
	</g>
	<g>
		
			<rect x="428.537" y="-1.892" transform="matrix(0.8219 0.5696 -0.5696 0.8219 82.0315 -242.5498)" fill="#FF0000" width="0.751" height="23.61"/>
	</g>
	<g>
		
			<rect x="435.662" y="-1.892" transform="matrix(0.8219 0.5696 -0.5696 0.8219 83.3004 -246.6083)" fill="#FF0000" width="0.751" height="23.61"/>
	</g>
	<g>
		
			<rect x="442.787" y="-1.892" transform="matrix(0.8219 0.5696 -0.5696 0.8219 84.5692 -250.6669)" fill="#FF0000" width="0.751" height="23.61"/>
	</g>
	<g>
		
			<rect x="449.912" y="-1.892" transform="matrix(0.8219 0.5696 -0.5696 0.8219 85.8381 -254.7254)" fill="#FF0000" width="0.751" height="23.61"/>
	</g>
</g>
</svg>
