<?xml version="1.0" encoding="utf-8"?>
<!-- Generator: Adobe Illustrator 16.0.0, SVG Export Plug-In . SVG Version: 6.00 Build 0)  -->
<!DOCTYPE svg PUBLIC "-//W3C//DTD SVG 1.1//EN" "http://www.w3.org/Graphics/SVG/1.1/DTD/svg11.dtd">
<svg version="1.1" id="Layer_1" xmlns="http://www.w3.org/2000/svg" xmlns:xlink="http://www.w3.org/1999/xlink" x="0px" y="0px"
	 width="1591.995px" height="238.426px" viewBox="0 0 1591.995 238.426" enable-background="new 0 0 1591.995 238.426"
	 xml:space="preserve">
<g>
	<path fill="#D9D9D9" d="M0.007,146.055c0-21.604-0.021-43.209,0.012-64.814c0.014-8.518,5.873-14.232,14.063-13.534
		c1.989,0.169,4.233,0.925,5.78,2.146c27.224,21.476,54.365,43.058,81.492,64.655c1.641,1.305,3.135,2.835,4.516,4.418
		c3.781,4.335,3.91,9.378,0.236,13.776c-1.719,2.058-3.656,3.997-5.752,5.668c-26.584,21.196-53.222,42.328-79.83,63.493
		c-3.81,3.03-7.961,3.414-12.362,1.711c-4.646-1.798-7.3-5.273-8.022-10.18c-0.184-1.243-0.127-2.526-0.129-3.791
		C0.005,188.42,0.007,167.238,0.007,146.055"/>
	<path fill="#D9D9D9" d="M1483.217,159.899c0-21.605-0.022-43.209,0.012-64.814c0.013-8.518,5.872-14.232,14.063-13.534
		c1.988,0.169,4.232,0.925,5.779,2.146c27.225,21.476,54.365,43.058,81.494,64.655c1.64,1.305,3.133,2.835,4.515,4.418
		c3.78,4.335,3.909,9.378,0.235,13.776c-1.719,2.058-3.655,3.997-5.751,5.668c-26.585,21.196-53.222,42.328-79.831,63.493
		c-3.809,3.03-7.96,3.414-12.361,1.711c-4.646-1.798-7.301-5.274-8.022-10.18c-0.184-1.243-0.128-2.526-0.129-3.791
		C1483.215,202.265,1483.217,181.083,1483.217,159.899"/>
	<path fill="#D9D9D9" d="M213.646,165.441c0-14.824-0.015-29.648,0.008-44.472c0.01-5.845,4.029-9.766,9.65-9.287
		c1.364,0.116,2.904,0.635,3.966,1.473c18.679,14.736,37.302,29.544,55.917,44.363c1.125,0.895,2.15,1.945,3.098,3.031
		c2.594,2.975,2.683,6.436,0.162,9.453c-1.18,1.412-2.509,2.742-3.947,3.889c-18.24,14.544-36.518,29.043-54.775,43.566
		c-2.613,2.079-5.462,2.342-8.482,1.174c-3.188-1.234-5.008-3.618-5.504-6.985c-0.127-0.853-0.088-1.734-0.088-2.601
		C213.644,194.511,213.646,179.977,213.646,165.441"/>
	<path fill="#D9D9D9" d="M1213.545,168.497c0-14.824-0.015-29.648,0.008-44.472c0.009-5.845,4.029-9.766,9.65-9.287
		c1.363,0.116,2.903,0.635,3.966,1.473c18.679,14.736,37.302,29.544,55.917,44.363c1.125,0.896,2.149,1.945,3.097,3.031
		c2.594,2.975,2.684,6.435,0.162,9.453c-1.179,1.412-2.508,2.742-3.946,3.889c-18.241,14.544-36.518,29.043-54.775,43.566
		c-2.614,2.079-5.462,2.342-8.482,1.174c-3.188-1.234-5.009-3.618-5.505-6.985c-0.126-0.853-0.088-1.734-0.088-2.601
		C1213.543,197.566,1213.545,183.032,1213.545,168.497"/>
	<path fill="#D9D9D9" d="M120.445,36.243c0-9.987-0.01-19.974,0.005-29.96c0.008-3.938,2.715-6.579,6.502-6.257
		c0.918,0.079,1.957,0.428,2.672,0.992c12.584,9.928,25.129,19.904,37.67,29.887c0.759,0.604,1.449,1.311,2.086,2.043
		c1.748,2.004,1.809,4.335,0.111,6.368c-0.796,0.951-1.69,1.847-2.66,2.62c-12.289,9.798-24.602,19.566-36.901,29.349
		c-1.761,1.401-3.681,1.579-5.714,0.791c-2.147-0.831-3.375-2.437-3.709-4.705c-0.084-0.575-0.059-1.168-0.059-1.753
		C120.444,55.826,120.445,46.036,120.445,36.243"/>
	<path fill="#D9D9D9" d="M368.478,123.661c0-9.987-0.01-19.974,0.006-29.96c0.006-3.938,2.715-6.579,6.5-6.257
		c0.92,0.079,1.957,0.428,2.672,0.992c12.584,9.928,25.131,19.904,37.672,29.887c0.758,0.604,1.447,1.311,2.086,2.043
		c1.748,2.004,1.808,4.335,0.109,6.368c-0.795,0.951-1.689,1.847-2.658,2.62c-12.289,9.798-24.603,19.565-36.902,29.349
		c-1.762,1.401-3.68,1.579-5.715,0.791c-2.146-0.831-3.375-2.437-3.709-4.705c-0.084-0.575-0.059-1.168-0.059-1.753
		C368.477,143.244,368.478,133.453,368.478,123.661"/>
	<path fill="#D9D9D9" d="M1374.344,123.661c0-9.987-0.011-19.974,0.005-29.96c0.007-3.938,2.715-6.579,6.501-6.257
		c0.919,0.079,1.957,0.428,2.672,0.992c12.584,9.928,25.13,19.904,37.671,29.887c0.758,0.604,1.448,1.311,2.086,2.043
		c1.748,2.004,1.808,4.335,0.11,6.368c-0.795,0.951-1.691,1.847-2.659,2.62c-12.289,9.798-24.603,19.565-36.902,29.349
		c-1.761,1.401-3.68,1.579-5.714,0.791c-2.147-0.831-3.375-2.437-3.709-4.705c-0.084-0.575-0.059-1.168-0.059-1.753
		C1374.343,143.244,1374.344,133.453,1374.344,123.661"/>
	<path fill="#D9D9D9" d="M255.241,44.33c0-6.384-0.007-12.768,0.004-19.151c0.004-2.518,1.735-4.206,4.155-4
		c0.588,0.05,1.251,0.274,1.708,0.634c8.044,6.346,16.064,12.723,24.08,19.104c0.484,0.386,0.926,0.838,1.334,1.305
		c1.117,1.282,1.154,2.772,0.07,4.071c-0.508,0.608-1.082,1.181-1.7,1.675c-7.854,6.263-15.726,12.507-23.589,18.761
		c-1.125,0.895-2.352,1.009-3.652,0.506c-1.373-0.532-2.156-1.558-2.371-3.008c-0.054-0.368-0.038-0.747-0.038-1.121
		C255.24,56.848,255.241,50.589,255.241,44.33"/>
	<path fill="#D9D9D9" d="M1262.754,47.971c0-6.384-0.007-12.768,0.004-19.151c0.005-2.518,1.735-4.206,4.155-4
		c0.588,0.05,1.251,0.274,1.708,0.634c8.044,6.346,16.064,12.723,24.08,19.105c0.485,0.386,0.926,0.838,1.334,1.306
		c1.117,1.281,1.156,2.771,0.07,4.07c-0.509,0.608-1.081,1.181-1.7,1.675c-7.855,6.263-15.727,12.507-23.589,18.761
		c-1.125,0.895-2.353,1.009-3.652,0.506c-1.373-0.532-2.157-1.558-2.371-3.008c-0.054-0.368-0.038-0.747-0.038-1.12
		C1262.753,60.489,1262.754,54.229,1262.754,47.971"/>
	<path fill="#D9D9D9" d="M439.911,36.693c0-3.558-0.004-7.116,0.002-10.674c0.002-1.403,0.967-2.344,2.316-2.229
		c0.326,0.028,0.697,0.153,0.951,0.354c4.484,3.537,8.953,7.091,13.422,10.647c0.27,0.215,0.516,0.467,0.742,0.728
		c0.623,0.714,0.645,1.544,0.039,2.269c-0.282,0.339-0.602,0.658-0.946,0.933c-4.378,3.491-8.765,6.971-13.147,10.456
		c-0.627,0.499-1.311,0.563-2.035,0.282c-0.766-0.296-1.203-0.868-1.322-1.676c-0.029-0.205-0.021-0.416-0.021-0.625
		C439.911,43.67,439.911,40.182,439.911,36.693"/>
	<path fill="#D9D9D9" d="M477.128,195.289c0-6.384-0.008-12.768,0.002-19.151c0.004-2.518,1.736-4.206,4.156-4
		c0.588,0.05,1.251,0.274,1.708,0.634c8.044,6.346,16.064,12.723,24.08,19.105c0.485,0.386,0.927,0.838,1.334,1.305
		c1.117,1.282,1.155,2.772,0.07,4.071c-0.509,0.608-1.081,1.181-1.7,1.675c-7.855,6.263-15.727,12.507-23.589,18.761
		c-1.125,0.895-2.353,1.009-3.652,0.506c-1.372-0.532-2.157-1.558-2.37-3.008c-0.055-0.368-0.039-0.747-0.039-1.121
		C477.126,207.806,477.128,201.547,477.128,195.289"/>
	<path fill="#D9D9D9" d="M1475.877,33.51c0-6.384-0.007-12.768,0.004-19.151c0.005-2.518,1.735-4.206,4.155-4
		c0.588,0.05,1.251,0.274,1.708,0.634c8.044,6.346,16.064,12.723,24.08,19.105c0.485,0.386,0.926,0.838,1.334,1.305
		c1.117,1.281,1.156,2.772,0.07,4.071c-0.509,0.608-1.081,1.181-1.7,1.675c-7.855,6.263-15.727,12.507-23.589,18.761
		c-1.125,0.895-2.353,1.009-3.652,0.506c-1.373-0.532-2.157-1.558-2.371-3.008c-0.054-0.368-0.038-0.747-0.038-1.121
		C1475.876,46.028,1475.877,39.769,1475.877,33.51"/>
</g>
</svg>
