<?xml version="1.0" encoding="UTF-8"?>
<!DOCTYPE svg PUBLIC "-//W3C//DTD SVG 1.1//EN" "http://www.w3.org/Graphics/SVG/1.1/DTD/svg11.dtd">
<!-- Creator: CorelDRAW 2017 -->
<svg xmlns="http://www.w3.org/2000/svg" xml:space="preserve" width="124px" height="124px" version="1.1" style="shape-rendering:geometricPrecision; text-rendering:geometricPrecision; image-rendering:optimizeQuality; fill-rule:evenodd; clip-rule:evenodd"
viewBox="0 0 12860 12860"
 xmlns:xlink="http://www.w3.org/1999/xlink">
 <defs>
  <style type="text/css">
   <![CDATA[
    .fil0 {fill:#17354F}
    .fil1 {fill:#FEFEFE;fill-rule:nonzero}
   ]]>
  </style>
 </defs>
 <g id="Camada_x0020_1">
  <metadata id="CorelCorpID_0Corel-Layer"/>
  <path class="fil0" d="M6430 0c3550,0 6430,2880 6430,6430 0,3550 -2880,6430 -6430,6430 -3550,0 -6430,-2880 -6430,-6430 0,-3550 2880,-6430 6430,-6430z"/>
  <g id="_2147991596368">
   <path class="fil1" d="M6430 3430l0 0c-490,0 -970,0 -1460,0 -60,0 -120,0 -180,10 -220,20 -420,80 -600,190 -500,300 -760,740 -760,1320 0,990 0,1970 0,2950 0,120 10,230 30,340 150,680 750,1180 1470,1190 990,0 1980,0 2970,0 70,0 140,-10 210,-20 290,-30 550,-140 770,-330 360,-310 550,-700 550,-1170 0,-990 0,-1970 0,-2960 0,-60 -10,-120 -10,-180 -40,-290 -140,-560 -330,-790 -300,-360 -690,-540 -1160,-550 -500,0 -1000,0 -1500,0zm1580 6540l-3160 0c-30,0 -60,0 -90,0 -230,-20 -450,-80 -670,-180 -410,-190 -730,-490 -950,-890 -130,-240 -210,-490 -240,-760 -10,-40 -10,-90 -20,-130l0 -3160c10,-50 10,-90 20,-130 20,-220 80,-430 170,-630 210,-450 530,-780 970,-1000 210,-100 440,-170 680,-190 40,-10 90,-10 130,-20l3160 0 20 10c180,10 350,40 510,90 500,170 880,480 1150,930 150,250 240,520 270,810 0,40 10,80 10,130l0 3160 0 20c-10,240 -60,460 -150,670 -190,440 -490,780 -910,1010 -240,140 -500,220 -770,250 -40,10 -90,10 -130,10z"/>
   <path class="fil1" d="M5070 6430c0,750 600,1360 1360,1360 750,0 1360,-610 1360,-1360 0,-760 -610,-1360 -1360,-1360 -760,0 -1360,600 -1360,1360zm-550 0c0,-1050 860,-1910 1910,-1910 1050,0 1910,860 1910,1910 0,1050 -860,1910 -1910,1910 -1050,0 -1910,-860 -1910,-1910z"/>
   <path class="fil1" d="M8480 3980c220,0 400,180 400,410 0,220 -180,400 -410,400 -220,0 -410,-180 -410,-410 10,-220 190,-410 420,-400z"/>
  </g>
 </g>
</svg>
