<?xml version="1.0" encoding="UTF-8"?>
<!DOCTYPE svg PUBLIC "-//W3C//DTD SVG 1.1//EN" "http://www.w3.org/Graphics/SVG/1.1/DTD/svg11.dtd">
<!-- Creator: CorelDRAW 2017 -->
<svg xmlns="http://www.w3.org/2000/svg" xml:space="preserve" width="79px" height="76px" version="1.1" style="shape-rendering:geometricPrecision; text-rendering:geometricPrecision; image-rendering:optimizeQuality; fill-rule:evenodd; clip-rule:evenodd"
viewBox="0 0 10680 10180"
 xmlns:xlink="http://www.w3.org/1999/xlink">
 <defs>
  <style type="text/css">
   <![CDATA[
    .fil1 {fill:#FEFEFE;fill-rule:nonzero}
    .fil0 {fill:#17354F;fill-rule:nonzero}
   ]]>
  </style>
 </defs>
 <g id="Camada_x0020_1">
  <metadata id="CorelCorpID_0Corel-Layer"/>
  <g id="_2148182033376">
   <path class="fil0" d="M1880 9710c40,-250 90,-530 140,-810 130,-760 250,-1520 390,-2270 10,-80 0,-130 -60,-180 -600,-580 -1190,-1160 -1790,-1740 -130,-130 -270,-270 -400,-400 -140,-130 -200,-290 -140,-470 60,-180 210,-270 400,-290 1010,-150 2030,-300 3050,-450 40,-10 90,-60 110,-110 450,-900 900,-1810 1350,-2720 110,-220 280,-310 520,-260 150,30 240,140 310,270 440,910 890,1810 1330,2710 40,80 90,110 170,120 1010,140 2020,290 3030,440 190,30 320,120 370,300 60,180 0,340 -140,470 -690,670 -1370,1340 -2060,2000 -150,140 -200,270 -160,480 170,940 330,1890 490,2840 40,190 -10,350 -170,460 -150,110 -320,100 -480,10 -630,-330 -1260,-660 -1880,-990 -270,-140 -550,-280 -820,-430 -70,-40 -120,-40 -200,0 -890,480 -1790,950 -2680,1420 -220,110 -400,90 -550,-50 -90,-80 -130,-190 -130,-350z"/>
   <path class="fil1" d="M6180 5350c-180,-160 -430,-250 -730,-250 -50,0 -100,0 -160,10 -50,0 -100,20 -160,30l120 -630 910 0c50,0 90,0 140,-20 50,-10 90,-30 130,-60 40,-20 80,-50 100,-100 20,-40 40,-90 40,-150 0,-100 -30,-170 -100,-210 -70,-40 -150,-60 -230,-60l-1170 0c-90,0 -180,30 -260,80 -80,60 -140,140 -150,240l-240 1340c-20,100 0,180 60,240 60,60 140,90 240,90 30,0 70,-10 120,-20 40,-10 80,-40 120,-60 40,-30 80,-50 120,-90 50,0 90,-10 140,-20 40,-10 90,-20 140,-20 120,0 210,30 290,100 70,80 110,180 110,330 0,80 -10,150 -30,230 -20,80 -60,160 -110,220 -50,60 -110,120 -200,150 -80,50 -190,70 -310,70 -80,0 -150,-10 -210,-30 -60,-20 -110,-40 -160,-60 -40,-20 -80,-40 -120,-60 -50,-20 -90,-30 -140,-30 -100,0 -180,30 -250,100 -80,70 -120,150 -120,230 0,90 50,170 130,230 90,50 190,100 310,130 110,30 220,50 340,60 110,10 190,10 250,10 220,0 410,-40 580,-120 160,-80 300,-190 400,-320 110,-130 190,-270 250,-430 50,-160 70,-310 70,-460 0,-300 -80,-520 -260,-690z"/>
  </g>
 </g>
</svg>
