<?xml version="1.0" encoding="UTF-8"?>
<!DOCTYPE svg PUBLIC "-//W3C//DTD SVG 1.1//EN" "http://www.w3.org/Graphics/SVG/1.1/DTD/svg11.dtd">
<!-- Creator: CorelDRAW 2017 -->
<svg xmlns="http://www.w3.org/2000/svg" xml:space="preserve" width="35px" height="35px" version="1.1" style="shape-rendering:geometricPrecision; text-rendering:geometricPrecision; image-rendering:optimizeQuality; fill-rule:evenodd; clip-rule:evenodd"
viewBox="0 0 1040 1030"
 xmlns:xlink="http://www.w3.org/1999/xlink">
 <defs>
  <style type="text/css">
   <![CDATA[
    .fil0 {fill:white;fill-rule:nonzero}
   ]]>
  </style>
 </defs>
 <g id="Camada_x0020_1">
  <metadata id="CorelCorpID_0Corel-Layer"/>
  <g id="_2148142846416">
   <path class="fil0" d="M550 1000c-20,0 -40,0 -70,0 -70,0 -140,0 -200,-10 -70,0 -130,-10 -200,-30 -20,-10 -40,-20 -50,-40 -20,-20 -30,-30 -30,-60 0,-20 0,-40 0,-50 10,-30 30,-60 60,-80 40,-30 80,-60 130,-80 20,-10 50,-20 80,-40 40,-10 60,-70 30,-100 -60,-60 -80,-130 -100,-210 0,-50 0,-100 20,-150 20,-90 90,-140 170,-150 60,0 110,10 160,40 50,30 70,80 80,140 20,60 10,120 -10,180 -20,60 -40,110 -80,150 -10,20 -10,40 -10,50 0,10 0,10 0,10 0,20 0,20 -10,30 -50,80 -70,170 -40,260 10,50 30,90 60,120 0,10 10,10 10,20z"/>
   <path class="fil0" d="M820 820l10 0c30,0 60,0 80,0 10,0 10,-10 10,-10 0,-20 0,-40 0,-60 0,0 0,-10 -10,-10 -20,0 -50,0 -80,0l-10 0 0 -100 -70 0 0 100 -110 0 0 80 110 0 0 100 70 0 0 -100zm-40 210c-140,0 -250,-110 -250,-250 0,-140 110,-250 250,-250 140,0 260,110 260,250 0,140 -120,250 -260,250z"/>
  </g>
 </g>
</svg>
