<?xml version="1.0" encoding="UTF-8"?>
<!DOCTYPE svg PUBLIC "-//W3C//DTD SVG 1.1//EN" "http://www.w3.org/Graphics/SVG/1.1/DTD/svg11.dtd">
<!-- Creator: CorelDRAW 2017 -->
<svg xmlns="http://www.w3.org/2000/svg" xml:space="preserve" width="56px" height="63px" version="1.1" style="shape-rendering:geometricPrecision; text-rendering:geometricPrecision; image-rendering:optimizeQuality; fill-rule:evenodd; clip-rule:evenodd"
viewBox="0 0 2470 2790"
 xmlns:xlink="http://www.w3.org/1999/xlink">
 <defs>
  <style type="text/css">
   <![CDATA[
    .fil0 {fill:#17354F;fill-rule:nonzero}
   ]]>
  </style>
 </defs>
 <g id="Camada_x0020_1">
  <metadata id="CorelCorpID_0Corel-Layer"/>
  <path class="fil0" d="M1330 2790c-410,-10 -730,-20 -1040,-120 -40,-10 -80,-30 -120,-50 -220,-100 -210,-430 -60,-560 140,-130 310,-210 480,-280 70,-30 160,-60 230,-90 140,-60 180,-210 80,-320 -140,-150 -240,-320 -270,-520 -20,-260 0,-510 210,-700 250,-240 820,-220 960,270 100,330 50,640 -180,910 -40,30 -70,80 -80,120 -40,130 0,200 130,250 200,90 410,180 600,280 140,70 210,190 200,360 0,130 -60,230 -180,280 -140,50 -290,100 -440,120 -200,30 -410,40 -520,50z"/>
 </g>
</svg>
