<?xml version="1.0" encoding="UTF-8"?>
<!DOCTYPE svg PUBLIC "-//W3C//DTD SVG 1.1//EN" "http://www.w3.org/Graphics/SVG/1.1/DTD/svg11.dtd">
<!-- Creator: CorelDRAW 2017 -->
<svg xmlns="http://www.w3.org/2000/svg" xml:space="preserve" width="100px" height="52px" version="1.1" style="shape-rendering:geometricPrecision; text-rendering:geometricPrecision; image-rendering:optimizeQuality; fill-rule:evenodd; clip-rule:evenodd"
viewBox="0 0 83850 43510"
 xmlns:xlink="http://www.w3.org/1999/xlink">
 <defs>
  <style type="text/css">
   <![CDATA[
    .fil0 {fill:#F2161A;fill-rule:nonzero}
   ]]>
  </style>
 </defs>
 <g id="Camada_x0020_1">
  <metadata id="CorelCorpID_0Corel-Layer"/>
  <g id="_2148052472608">
   <path class="fil0" d="M70720 690c280,690 270,1310 -200,1960 -220,310 -170,810 -210,1220 -270,3190 680,6070 2320,8770 1320,2160 2990,4040 4710,5870 2620,2770 4410,6010 5500,9650 500,1690 850,3410 1000,5170 10,170 10,350 10,590 -380,-170 -720,-320 -1060,-480 -2500,-1160 -5010,-2290 -7650,-3090 -2990,-920 -6050,-1200 -9170,-880 -2420,250 -4780,10 -7010,-1040 -2400,-1120 -4140,-2940 -5370,-5270 -340,-650 -600,-1350 -900,-2020 -60,-150 -120,-290 -200,-490 -4070,4070 -18810,18810 -22860,22860l-2230 -2240c130,-130 250,-250 370,-370 9800,-9800 30320,-30310 40100,-40120 700,-700 1400,-1000 2340,-610 170,170 340,350 510,520z"/>
   <path class="fil0" d="M13130 690c-270,690 -260,1310 200,1960 220,310 180,810 210,1220 270,3190 -670,6070 -2310,8770 -1320,2160 -2990,4040 -4720,5870 -2620,2770 -4410,6010 -5490,9650 -510,1690 -860,3410 -1000,5170 -20,170 -10,350 -20,590 380,-170 720,-320 1060,-480 2500,-1160 5010,-2290 7650,-3090 3000,-920 6060,-1200 9170,-880 2420,250 4780,10 7010,-1040 2410,-1120 4150,-2940 5370,-5270 340,-650 600,-1350 900,-2020 70,-150 120,-290 200,-490 4070,4070 18810,18810 22860,22860l2240 -2240c-140,-130 -260,-250 -380,-370 -9800,-9800 -30310,-30310 -40100,-40120 -700,-700 -1400,-1000 -2330,-610 -180,170 -350,350 -520,520z"/>
  </g>
 </g>
</svg>
