<?xml version="1.0" encoding="UTF-8"?>
<!DOCTYPE svg PUBLIC "-//W3C//DTD SVG 1.1//EN" "http://www.w3.org/Graphics/SVG/1.1/DTD/svg11.dtd">
<!-- Creator: CorelDRAW 2017 -->
<svg xmlns="http://www.w3.org/2000/svg" xml:space="preserve" width="202px" height="150px" version="1.1" style="shape-rendering:geometricPrecision; text-rendering:geometricPrecision; image-rendering:optimizeQuality; fill-rule:evenodd; clip-rule:evenodd"
viewBox="0 0 71940 53640"
 xmlns:xlink="http://www.w3.org/1999/xlink">
 <defs>
  <style type="text/css">
   <![CDATA[
    .fil1 {fill:#FEFEFE;fill-rule:nonzero}
    .fil0 {fill:#F2161A;fill-rule:nonzero}
   ]]>
  </style>
 </defs>
 <g id="Camada_x0020_1">
  <metadata id="CorelCorpID_0Corel-Layer"/>
  <g id="_2148182077696">
   <path class="fil0" d="M71940 28810c0,-11950 -9690,-21640 -21640,-21640 -11950,0 -21640,9690 -21640,21640 0,11950 9690,21640 21640,21640 11950,0 21640,-9690 21640,-21640z"/>
   <path class="fil1" d="M50650 16110c70,40 150,70 220,110 380,190 540,520 540,930 10,260 10,520 0,780 0,140 40,200 180,240 2130,480 3570,1750 4320,3790 230,630 310,1280 310,1940 0,1480 10,2950 -10,4420 0,330 90,600 300,830 460,510 930,1020 1400,1520 850,910 1710,1810 2570,2720 100,100 180,230 260,350 420,610 350,1090 -220,1570 -540,450 -1170,710 -1820,930 -1370,460 -2790,680 -4220,830 -1660,170 -3310,220 -4970,180 -2250,-50 -4490,-220 -6670,-820 -860,-230 -1720,-510 -2420,-1110 -170,-140 -300,-330 -420,-520 -150,-240 -160,-510 0,-740 220,-350 440,-710 720,-1010 1030,-1090 2080,-2160 3120,-3240 210,-220 400,-460 600,-700 190,-220 260,-470 260,-760 -10,-1480 -20,-2950 0,-4420 30,-2500 1190,-4310 3440,-5390 360,-170 750,-270 1140,-360 180,-50 230,-120 220,-290 -10,-240 0,-480 0,-710 10,-540 210,-820 710,-1020l50 -50 390 0z"/>
   <path class="fil0" d="M10220 53630c-650,0 -1300,-290 -1720,-860 -720,-950 -520,-2300 430,-3020l11010 -8240c960,-710 2310,-520 3020,440 710,950 520,2300 -430,3010l-11020 8250c-380,280 -840,420 -1290,420z"/>
   <path class="fil0" d="M22450 12550c-450,0 -900,-140 -1290,-430l-11010 -8240c-950,-710 -1150,-2060 -430,-3020 710,-950 2060,-1140 3010,-430l11020 8240c950,720 1140,2070 430,3020 -420,560 -1070,860 -1730,860z"/>
   <path class="fil0" d="M17040 30000l-14890 0c-1190,0 -2150,-960 -2150,-2150 0,-1190 960,-2160 2150,-2160l14890 0c1190,0 2160,970 2160,2160 0,1190 -970,2150 -2160,2150z"/>
  </g>
 </g>
</svg>
