<?xml version="1.0" encoding="UTF-8"?>
<!DOCTYPE svg PUBLIC "-//W3C//DTD SVG 1.1//EN" "http://www.w3.org/Graphics/SVG/1.1/DTD/svg11.dtd">
<!-- Creator: CorelDRAW 2017 -->
<svg xmlns="http://www.w3.org/2000/svg" xml:space="preserve" width="77px" height="77px" version="1.1" style="shape-rendering:geometricPrecision; text-rendering:geometricPrecision; image-rendering:optimizeQuality; fill-rule:evenodd; clip-rule:evenodd"
viewBox="0 0 5250 5250"
 xmlns:xlink="http://www.w3.org/1999/xlink">
 <defs>
  <style type="text/css">
   <![CDATA[
    .fil0 {fill:white;fill-rule:nonzero}
   ]]>
  </style>
 </defs>
 <g id="Camada_x0020_1">
  <metadata id="CorelCorpID_0Corel-Layer"/>
  <path class="fil0" d="M580 2810c80,1040 970,1810 1860,1860 0,-40 0,-90 10,-130 20,-90 90,-150 190,-150 80,10 150,70 160,160 10,40 10,80 10,130 570,-70 1040,-310 1400,-740 270,-330 420,-700 470,-1130 -60,0 -100,0 -150,-10 -90,-20 -140,-90 -140,-180 10,-90 70,-160 160,-170 40,0 80,-10 120,-10 -20,-400 -230,-970 -720,-1390 -330,-270 -710,-430 -1140,-470 0,50 0,100 -10,140 -20,90 -90,150 -180,140 -90,0 -160,-60 -170,-160 0,-40 -10,-80 -10,-120 -990,70 -1800,930 -1860,1850 70,20 130,20 190,40 60,30 100,90 90,160 0,40 -20,90 -50,120 -60,70 -140,60 -230,60zm1660 -210c0,-100 50,-200 150,-280 30,-20 40,-40 40,-70 20,-340 40,-680 50,-1020 10,-90 70,-150 150,-150 80,0 140,70 140,160 10,160 20,320 20,470 10,180 20,360 30,540 0,20 10,50 20,60 100,70 160,170 170,290 0,30 20,50 30,70 250,270 490,550 730,830 60,60 80,120 40,200 -40,80 -110,130 -190,120 -40,-10 -90,-30 -120,-60 -270,-230 -530,-470 -800,-710 -30,-20 -60,-40 -90,-40 -200,-10 -370,-180 -370,-410zm3010 30c0,1450 -1180,2620 -2620,2620 -1450,0 -2630,-1180 -2630,-2630 10,-1450 1180,-2620 2630,-2620 1450,0 2630,1180 2620,2630z"/>
 </g>
</svg>
