<?xml version="1.0" encoding="UTF-8"?>
<!DOCTYPE svg PUBLIC "-//W3C//DTD SVG 1.1//EN" "http://www.w3.org/Graphics/SVG/1.1/DTD/svg11.dtd">
<!-- Creator: CorelDRAW 2017 -->
<svg xmlns="http://www.w3.org/2000/svg" xml:space="preserve" width="67px" height="67px" version="1.1" style="shape-rendering:geometricPrecision; text-rendering:geometricPrecision; image-rendering:optimizeQuality; fill-rule:evenodd; clip-rule:evenodd"
viewBox="0 0 3780 3770"
 xmlns:xlink="http://www.w3.org/1999/xlink">
 <defs>
  <style type="text/css">
   <![CDATA[
    .fil0 {fill:#FEFEFE;fill-rule:nonzero}
   ]]>
  </style>
 </defs>
 <g id="Camada_x0020_1">
  <metadata id="CorelCorpID_0Corel-Layer"/>
  <g id="_2148182034080">
   <path class="fil0" d="M2020 3630c-90,10 -180,10 -260,10 -250,0 -500,0 -760,-10 -230,-20 -470,-50 -690,-140 -80,-40 -160,-80 -220,-140 -60,-50 -90,-120 -90,-210 0,-60 0,-130 10,-200 30,-110 110,-190 200,-270 140,-120 300,-210 470,-290 100,-50 200,-100 310,-140 150,-60 200,-260 90,-380 -190,-220 -290,-480 -330,-770 -30,-190 -20,-380 30,-560 100,-300 350,-500 660,-530 200,-10 390,20 560,140 170,120 270,300 310,510 40,230 20,450 -50,670 -60,210 -150,390 -290,550 -50,50 -40,120 -40,180 -10,20 -10,30 0,40 20,50 0,80 -30,110 -190,290 -240,600 -160,940 50,160 120,310 230,440 10,10 30,30 50,50z"/>
   <path class="fil0" d="M2980 2980l50 0c100,0 200,0 300,0 30,0 40,-10 40,-40 0,-60 0,-130 0,-190 0,-30 -10,-40 -40,-40 -100,0 -200,0 -290,0l-60 0 0 -380 -260 0 0 380 -380 0 0 270 380 0 0 380 260 0 0 -380zm-130 790c-510,0 -920,-410 -920,-930 0,-510 420,-930 930,-920 510,0 920,420 920,930 0,510 -420,920 -930,920z"/>
  </g>
 </g>
</svg>
