<?xml version="1.0" encoding="UTF-8"?>
<!DOCTYPE svg PUBLIC "-//W3C//DTD SVG 1.1//EN" "http://www.w3.org/Graphics/SVG/1.1/DTD/svg11.dtd">
<!-- Creator: CorelDRAW 2017 -->
<svg xmlns="http://www.w3.org/2000/svg" xml:space="preserve" width="124px" height="124px" version="1.1" style="shape-rendering:geometricPrecision; text-rendering:geometricPrecision; image-rendering:optimizeQuality; fill-rule:evenodd; clip-rule:evenodd"
viewBox="0 0 10410 10410"
 xmlns:xlink="http://www.w3.org/1999/xlink">
 <defs>
  <style type="text/css">
   <![CDATA[
    .fil0 {fill:#17354F}
    .fil1 {fill:#FEFEFE;fill-rule:nonzero}
   ]]>
  </style>
 </defs>
 <g id="Camada_x0020_1">
  <metadata id="CorelCorpID_0Corel-Layer"/>
  <path class="fil0" d="M5210 0c2870,0 5200,2330 5200,5210 0,2870 -2330,5200 -5200,5200 -2880,0 -5210,-2330 -5210,-5200 0,-2880 2330,-5210 5210,-5210z"/>
  <path class="fil1" d="M6620 6510l10 -180c0,-40 10,-80 40,-100 30,-30 70,-40 110,-40l20 0c40,0 80,10 110,40 30,20 50,50 50,100l-10 180 -330 0zm-290 450c0,190 50,330 150,420 100,70 200,110 310,110l30 0c120,0 220,-50 310,-150 70,-70 100,-160 100,-270 0,-10 0,-30 0,-50 0,-20 -10,-40 -10,-60l-260 0 0 170c0,40 -20,70 -50,90 -20,20 -60,40 -100,40l-50 0c-40,0 -80,-20 -100,-40 -30,-20 -40,-50 -40,-90l0 -360 600 0 0 -210c0,-80 0,-150 0,-230 -10,-70 -10,-120 -20,-160 -10,-70 -40,-130 -100,-170 -50,-40 -110,-70 -180,-80 -40,-10 -80,-20 -120,-20 -30,0 -60,0 -90,10 -70,10 -130,30 -190,70 -70,50 -110,110 -140,190 -40,80 -50,180 -50,320l0 470zm-500 -2690c0,-20 0,-40 0,-60l0 -1210 320 0 0 1210c0,30 10,50 40,70 20,30 50,40 90,40 30,0 60,-10 90,-40 20,-20 40,-40 40,-70l0 -1210 300 0 0 1550 -390 0 10 -130c-20,30 -30,50 -50,70 -20,20 -30,40 -50,50 -40,20 -90,40 -130,40 -70,0 -110,-20 -150,-40 -30,-20 -60,-60 -90,-100 -10,-20 -10,-50 -10,-70 -10,-20 -10,-40 -20,-60l0 -40zm-280 2850l0 -880c0,-30 10,-60 40,-80 40,-20 70,-40 110,-40 40,0 80,20 110,40 30,20 50,50 50,80l0 880c0,30 -20,60 -50,80 -30,20 -70,30 -110,30 -40,0 -70,-10 -110,-30 -30,-20 -40,-50 -40,-80zm-340 350l280 -10 30 -130c90,80 170,130 250,150 70,10 140,10 190,-20 50,-30 90,-90 120,-160 30,-70 40,-150 40,-250l0 -770c0,-150 -50,-250 -160,-320 -30,-20 -70,-30 -120,-30 -80,0 -180,40 -290,120l0 -580 -340 0 0 2000zm-220 -3290c0,40 20,70 50,110 30,30 60,40 110,40 40,0 70,-10 100,-40 30,-30 50,-70 50,-110l0 -820c0,-50 -20,-90 -50,-120 -30,-30 -60,-50 -100,-50 -50,0 -80,20 -110,50 -30,30 -50,70 -50,120l0 820zm-310 -210l0 -410c0,-140 10,-260 40,-340 30,-90 80,-160 150,-200 70,-50 150,-80 260,-80 90,0 170,20 230,50 60,20 120,70 160,130 30,40 50,100 60,150 20,70 30,150 30,260l0 400c0,140 -10,240 -30,310 0,50 -20,120 -70,190 -50,60 -100,110 -150,120 -60,30 -140,50 -210,50 -90,0 -170,-10 -230,-40 -60,-20 -110,-50 -140,-110 -30,-40 -60,-100 -80,-170 -10,-70 -20,-170 -20,-310zm-600 2020l10 920c0,80 0,140 0,190 -10,50 -10,80 0,110 0,40 10,80 10,130 10,50 30,80 80,110 40,30 80,40 140,40 50,0 110,-10 160,-30 50,-10 100,-40 140,-70 50,-30 80,-70 100,-100l-10 180 290 10 0 -1490 -350 0 0 930c0,70 0,120 0,160 10,40 0,60 -10,70 -10,40 -40,70 -90,90 -50,20 -80,-10 -110,-80 -10,-10 -10,-40 -10,-80 10,-40 10,-90 10,-150l-10 -940 -350 0zm-640 -3600l400 0 230 760 240 -760 400 0 -430 1020 0 1180 -380 0 0 -1180 -460 -1020zm-410 3330l360 0 0 1760 340 0 0 -1750 420 0 0 -260 -1120 0 0 250zm-350 1580l0 -1660c0,-100 20,-200 60,-280 50,-90 110,-170 180,-240 80,-60 170,-120 270,-150 100,-40 200,-60 320,-60l3390 0c110,0 220,20 320,60 100,30 190,90 270,150 70,70 130,150 180,240 40,80 60,180 60,280l0 1660c0,100 -20,190 -60,280 -50,90 -110,170 -180,230 -80,70 -170,120 -270,160 -100,30 -210,50 -320,50l-3390 0c-120,0 -220,-20 -320,-50 -100,-40 -190,-90 -270,-160 -70,-60 -130,-140 -180,-230 -40,-90 -60,-180 -60,-280z"/>
 </g>
</svg>
