<?xml version="1.0" encoding="UTF-8"?>
<!DOCTYPE svg PUBLIC "-//W3C//DTD SVG 1.1//EN" "http://www.w3.org/Graphics/SVG/1.1/DTD/svg11.dtd">
<!-- Creator: CorelDRAW 2017 -->
<svg xmlns="http://www.w3.org/2000/svg" xml:space="preserve" width="129px" height="129px" version="1.1" style="shape-rendering:geometricPrecision; text-rendering:geometricPrecision; image-rendering:optimizeQuality; fill-rule:evenodd; clip-rule:evenodd"
viewBox="0 0 31980 31980"
 xmlns:xlink="http://www.w3.org/1999/xlink">
 <defs>
  <style type="text/css">
   <![CDATA[
    .fil1 {fill:#FEFEFE;fill-rule:nonzero}
    .fil0 {fill:#F3B644;fill-rule:nonzero}
   ]]>
  </style>
 </defs>
 <g id="Camada_x0020_1">
  <metadata id="CorelCorpID_0Corel-Layer"/>
  <g id="_2148146032080">
   <path class="fil0" d="M31980 15990c0,-8830 -7160,-15990 -15990,-15990 -8830,0 -15990,7160 -15990,15990 0,8830 7160,15990 15990,15990 8830,0 15990,-7160 15990,-15990z"/>
   <path class="fil1" d="M16550 24380c-2460,-50 -4400,-80 -6260,-710 -240,-80 -470,-190 -700,-290 -1340,-590 -1310,-2620 -410,-3390 860,-740 1860,-1230 2890,-1660 470,-200 960,-370 1430,-570 830,-340 1060,-1230 450,-1910 -820,-910 -1460,-1910 -1600,-3150 -160,-1560 10,-3040 1230,-4200 1510,-1450 4950,-1310 5810,1610 590,2000 290,3860 -1120,5470 -200,220 -390,480 -470,760 -240,810 20,1190 790,1520 1230,520 2470,1050 3640,1680 800,420 1250,1120 1200,2120 -40,820 -350,1440 -1070,1710 -870,340 -1790,620 -2710,760 -1190,180 -2410,200 -3100,250z"/>
  </g>
 </g>
</svg>
