<?xml version="1.0" encoding="UTF-8"?>
<!DOCTYPE svg PUBLIC "-//W3C//DTD SVG 1.1//EN" "http://www.w3.org/Graphics/SVG/1.1/DTD/svg11.dtd">
<!-- Creator: CorelDRAW 2017 -->
<svg xmlns="http://www.w3.org/2000/svg" xml:space="preserve" width="80px" height="80px" version="1.1" style="shape-rendering:geometricPrecision; text-rendering:geometricPrecision; image-rendering:optimizeQuality; fill-rule:evenodd; clip-rule:evenodd"
viewBox="0 0 4580 4580"
 xmlns:xlink="http://www.w3.org/1999/xlink">
 <defs>
  <style type="text/css">
   <![CDATA[
    .fil0 {fill:#17354F;fill-rule:nonzero}
   ]]>
  </style>
 </defs>
 <g id="Camada_x0020_1">
  <metadata id="CorelCorpID_0Corel-Layer"/>
  <g id="_2147892761040">
   <path class="fil0" d="M1840 0c390,0 770,50 1140,190 200,70 390,160 540,320 120,120 190,260 150,430 -20,150 -120,250 -230,350 -190,150 -420,240 -660,310 -380,100 -770,130 -1170,110 -320,-20 -630,-70 -930,-180 -190,-80 -370,-170 -520,-320 -100,-100 -170,-220 -160,-370 10,-130 70,-240 160,-330 150,-150 330,-240 530,-320 280,-100 580,-160 890,-180 90,0 170,-10 260,-10z"/>
   <path class="fil0" d="M3720 4080l0 -360 350 0 0 -360 -350 0 0 -350 -360 0 0 350 -350 0 0 360 350 0 0 360 360 0zm-1220 -540c0,-570 470,-1040 1040,-1030 580,0 1040,460 1040,1030 0,580 -470,1040 -1040,1040 -580,0 -1040,-470 -1040,-1040z"/>
   <path class="fil0" d="M0 1190c30,60 60,120 100,180 110,160 280,260 460,340 280,120 570,190 870,220 380,40 760,30 1130,-50 280,-50 550,-140 790,-300 120,-70 220,-160 290,-290 10,-40 30,-80 40,-120 0,200 10,400 0,590 0,150 -80,270 -180,370 -60,60 -130,100 -220,120 -200,30 -380,110 -540,240 -20,10 -50,30 -80,30 -360,90 -740,110 -1110,80 -340,-20 -680,-90 -990,-230 -180,-80 -350,-180 -460,-340 -60,-80 -100,-170 -100,-270 0,-190 0,-370 0,-550l0 -20z"/>
   <path class="fil0" d="M2480 4350c-100,10 -200,30 -300,40 -300,20 -600,20 -900,-30 -290,-40 -580,-120 -840,-260 -160,-90 -310,-190 -390,-370 -30,-50 -50,-110 -50,-160 0,-200 0,-400 0,-610 20,50 30,80 50,110 80,170 230,280 390,370 250,130 510,200 790,250 320,50 640,60 960,30 20,0 40,0 40,30 30,210 120,400 240,570 0,10 10,10 10,30z"/>
   <path class="fil0" d="M2220 3500c-190,0 -370,10 -550,0 -280,-10 -560,-50 -830,-130 -220,-70 -430,-160 -600,-300 -110,-90 -190,-180 -230,-320 0,-20 -10,-40 -10,-60 0,-200 0,-410 0,-600 30,60 60,130 110,190 110,150 270,240 440,320 330,150 680,210 1040,240 280,10 550,0 820,-40 10,0 20,0 30,0 -140,210 -210,440 -220,700z"/>
   <path class="fil0" d="M3680 2220c-20,0 -40,0 -60,0 20,-50 40,-100 60,-150l0 150z"/>
  </g>
 </g>
</svg>
