<?xml version="1.0" encoding="UTF-8"?>
<!DOCTYPE svg PUBLIC "-//W3C//DTD SVG 1.1//EN" "http://www.w3.org/Graphics/SVG/1.1/DTD/svg11.dtd">
<!-- Creator: CorelDRAW 2017 -->
<svg xmlns="http://www.w3.org/2000/svg" xml:space="preserve" width="75px" height="75px" version="1.1" style="shape-rendering:geometricPrecision; text-rendering:geometricPrecision; image-rendering:optimizeQuality; fill-rule:evenodd; clip-rule:evenodd"
viewBox="0 0 5830 5790"
 xmlns:xlink="http://www.w3.org/1999/xlink">
 <defs>
  <style type="text/css">
   <![CDATA[
    .fil0 {fill:#C4DDEE;fill-rule:nonzero}
   ]]>
  </style>
 </defs>
 <g id="Camada_x0020_1">
  <metadata id="CorelCorpID_0Corel-Layer"/>
  <path class="fil0" d="M2680 3350c-20,-30 -40,-50 -50,-60 -180,-190 -360,-370 -540,-550 -100,-90 -180,-90 -280,0 -60,60 -120,120 -180,190 -110,100 -110,190 0,300 290,300 590,590 880,890 20,20 30,40 50,50 150,120 300,110 410,-50 420,-640 840,-1270 1260,-1900 70,-100 50,-200 -50,-270 -70,-50 -140,-100 -220,-150 -120,-80 -200,-70 -290,60 -240,350 -470,710 -710,1060 -90,140 -180,280 -280,430zm-2210 1060c10,-210 30,-400 40,-600 10,-40 0,-60 -30,-90 -130,-120 -260,-250 -390,-370 -110,-100 -120,-180 -40,-300 100,-150 200,-310 290,-460 20,-30 30,-60 10,-90 -50,-170 -110,-340 -170,-520 -50,-140 -20,-210 110,-290 160,-90 320,-180 470,-270 30,-10 50,-40 50,-70 30,-180 60,-370 90,-560 20,-110 80,-170 190,-180 190,-10 370,-10 560,-20 50,0 90,-20 120,-60 100,-150 210,-290 320,-430 80,-110 150,-130 280,-70 160,80 330,160 490,240 40,20 70,20 110,0 160,-80 320,-160 490,-240 120,-60 200,-40 280,70 110,150 220,290 330,440 20,40 50,50 90,50 180,0 350,10 520,20 170,10 220,50 250,210 30,180 50,360 80,530 10,30 30,60 50,70 160,90 320,190 480,280 120,70 150,140 100,280 -50,170 -110,340 -170,510 -10,40 -10,70 10,100 100,160 200,310 300,460 70,120 60,200 -40,290 -130,130 -260,250 -390,380 -30,30 -40,50 -40,100 20,180 30,360 50,540 10,130 -40,200 -170,240 -180,50 -350,100 -530,150 -30,10 -60,30 -70,70 -70,170 -140,330 -220,500 -50,130 -120,170 -250,140 -180,-40 -360,-70 -530,-110 -50,-10 -80,0 -120,30 -130,110 -270,220 -400,330 -120,100 -190,100 -310,0 -140,-110 -270,-220 -410,-330 -40,-30 -70,-40 -120,-30 -180,40 -360,80 -540,110 -110,30 -190,-10 -230,-120 -80,-170 -150,-350 -220,-520 -20,-40 -40,-60 -80,-70 -180,-50 -360,-100 -530,-150 -120,-30 -170,-100 -160,-190z"/>
 </g>
</svg>
