<?xml version="1.0" encoding="UTF-8"?>
<!DOCTYPE svg PUBLIC "-//W3C//DTD SVG 1.1//EN" "http://www.w3.org/Graphics/SVG/1.1/DTD/svg11.dtd">
<!-- Creator: CorelDRAW 2017 -->
<svg xmlns="http://www.w3.org/2000/svg" xml:space="preserve" width="94px" height="116px" version="1.1" style="shape-rendering:geometricPrecision; text-rendering:geometricPrecision; image-rendering:optimizeQuality; fill-rule:evenodd; clip-rule:evenodd"
viewBox="0 0 12780 15740"
 xmlns:xlink="http://www.w3.org/1999/xlink">
 <defs>
  <style type="text/css">
   <![CDATA[
    .fil0 {fill:#17354F;fill-rule:nonzero}
   ]]>
  </style>
 </defs>
 <g id="Camada_x0020_1">
  <metadata id="CorelCorpID_0Corel-Layer"/>
  <g id="_2148182029600">
   <path class="fil0" d="M3290 4870c-40,-130 -80,-250 -120,-380 2160,530 4300,530 6440,10 -110,350 130,680 120,1050 -10,650 -260,1180 -720,1640 -50,40 -100,110 -120,170 -130,510 -390,960 -670,1400 -50,70 -100,130 -140,200 -230,490 -10,900 540,1030 480,120 960,240 1430,410 790,290 1530,690 2120,1300 400,410 640,880 610,1460 -10,210 -20,420 0,630 30,330 -130,550 -390,720 -370,260 -790,420 -1220,550 -920,290 -1870,460 -2830,570 -1590,180 -3180,120 -4770,-10 -890,-70 -1770,-190 -2600,-550 -220,-100 -420,-230 -610,-370 -210,-160 -340,-380 -350,-640 -10,-390 -10,-780 0,-1170 20,-470 270,-850 580,-1180 600,-620 1350,-1010 2150,-1310 470,-160 950,-280 1420,-410 380,-90 720,-630 620,-1010 -20,-50 -50,-100 -80,-150 -370,-460 -610,-980 -760,-1550 -20,-60 -70,-130 -120,-150 -210,-110 -350,-280 -440,-490 -210,-460 -360,-940 -270,-1460 30,-110 90,-220 140,-330l40 20z"/>
   <path class="fil0" d="M2460 590c750,390 1470,770 2190,1140 240,120 180,150 360,-70 440,-520 880,-1040 1320,-1560 30,-30 50,-60 90,-100 510,620 1010,1230 1510,1840 810,-420 1600,-830 2420,-1250 -80,400 -150,770 -230,1140 -110,530 -230,1070 -330,1610 -30,150 -110,240 -230,310 -400,200 -840,290 -1280,340 -1110,140 -2220,140 -3340,50 -520,-50 -1040,-120 -1530,-320 -230,-80 -360,-210 -410,-470 -160,-850 -350,-1700 -530,-2560 0,-20 0,-50 -10,-100z"/>
  </g>
 </g>
</svg>
