<?xml version="1.0" encoding="utf-8"?>
<!-- Generator: Adobe Illustrator 16.0.0, SVG Export Plug-In . SVG Version: 6.00 Build 0)  -->
<!DOCTYPE svg PUBLIC "-//W3C//DTD SVG 1.1//EN" "http://www.w3.org/Graphics/SVG/1.1/DTD/svg11.dtd">
<svg version="1.1" id="Layer_1" xmlns="http://www.w3.org/2000/svg" xmlns:xlink="http://www.w3.org/1999/xlink" x="0px" y="0px"
	 width="44.262px" height="42.178px" viewBox="0 0 44.262 42.178" enable-background="new 0 0 44.262 42.178" xml:space="preserve">
<path fill="#09202C" d="M36.476,40.218c0.016,1.444-1.207,2.302-2.435,1.815c-0.42-0.166-0.815-0.395-1.216-0.605
	c-3.426-1.8-6.852-3.597-10.271-5.407c-0.301-0.16-0.524-0.166-0.831-0.004c-3.699,1.959-7.408,3.898-11.111,5.852
	c-0.711,0.376-1.41,0.46-2.088-0.03c-0.647-0.467-0.83-1.134-0.699-1.889c0.705-4.125,1.416-8.25,2.138-12.372
	c0.067-0.391-0.011-0.657-0.308-0.944c-2.992-2.894-5.969-5.803-8.944-8.711c-0.873-0.854-0.96-1.93-0.162-2.674
	c0.289-0.27,0.722-0.473,1.114-0.531c4.184-0.633,8.371-1.233,12.562-1.83c0.32-0.046,0.498-0.179,0.64-0.469
	c1.844-3.758,3.697-7.51,5.552-11.262c0.507-1.028,1.474-1.405,2.489-0.991c0.482,0.196,0.75,0.581,0.97,1.027
	c1.836,3.727,3.682,7.45,5.507,11.182c0.169,0.347,0.387,0.471,0.75,0.521c3.247,0.458,6.492,0.935,9.736,1.407
	c0.883,0.128,1.764,0.271,2.647,0.384c0.79,0.101,1.382,0.468,1.644,1.229c0.27,0.786-0.014,1.441-0.592,2.003
	c-2.994,2.913-5.979,5.835-8.982,8.738c-0.277,0.268-0.348,0.508-0.284,0.866c0.714,4.107,1.418,8.218,2.124,12.328
	C36.452,40.016,36.471,40.181,36.476,40.218"/>
</svg>
