<?xml version="1.0" encoding="utf-8"?>
<!-- Generator: Adobe Illustrator 16.0.0, SVG Export Plug-In . SVG Version: 6.00 Build 0)  -->
<!DOCTYPE svg PUBLIC "-//W3C//DTD SVG 1.1//EN" "http://www.w3.org/Graphics/SVG/1.1/DTD/svg11.dtd">
<svg version="1.1" id="Layer_1" xmlns="http://www.w3.org/2000/svg" xmlns:xlink="http://www.w3.org/1999/xlink" x="0px" y="0px"
	 width="414.429px" height="136.888px" viewBox="0 0 414.429 136.888" enable-background="new 0 0 414.429 136.888"
	 xml:space="preserve">
<g>
	<defs>
		<rect id="SVGID_231_" x="-891.741" y="-1580.759" width="168" height="86"/>
	</defs>
	<clipPath id="SVGID_2_">
		<use xlink:href="#SVGID_231_"  overflow="visible"/>
	</clipPath>
	<g clip-path="url(#SVGID_2_)">
		<defs>
			<rect id="SVGID_233_" x="-1120.741" y="-1583.759" width="1600" height="1847"/>
		</defs>
		<clipPath id="SVGID_4_">
			<use xlink:href="#SVGID_233_"  overflow="visible"/>
		</clipPath>
		<g clip-path="url(#SVGID_4_)">
			
				<image overflow="visible" width="1600" height="1847" xlink:href="DEB2659F.jpg"  transform="matrix(1 0 0 1 -1120.7412 -1583.7593)">
			</image>
		</g>
	</g>
</g>
<g>
	<defs>
		<rect id="SVGID_235_" x="-864.856" y="251.044" width="118" height="49.001"/>
	</defs>
	<clipPath id="SVGID_6_">
		<use xlink:href="#SVGID_235_"  overflow="visible"/>
	</clipPath>
	<g clip-path="url(#SVGID_6_)">
		<defs>
			<rect id="SVGID_237_" x="-1099.856" y="-1509.955" width="1600" height="1847"/>
		</defs>
		<clipPath id="SVGID_8_">
			<use xlink:href="#SVGID_237_"  overflow="visible"/>
		</clipPath>
		<g clip-path="url(#SVGID_8_)">
			
				<image overflow="visible" width="1600" height="1847" xlink:href="DEB2659D.jpg"  transform="matrix(1 0 0 1 -1099.8564 -1509.9551)">
			</image>
		</g>
	</g>
</g>
<g>
	<defs>
		<rect id="SVGID_239_" x="-1237.498" y="-2591.779" width="1600" height="2679"/>
	</defs>
	<clipPath id="SVGID_10_">
		<use xlink:href="#SVGID_239_"  overflow="visible"/>
	</clipPath>
</g>
<g>
	<g>
		<path fill="#FF0000" d="M252.033,67.894c-0.247,1.871-0.768,3.671-1.562,5.399c-0.794,1.729-1.914,3.255-3.361,4.578
			s-3.255,2.382-5.426,3.176c-2.17,0.794-4.756,1.191-7.754,1.191h-5.982c-1.129,0-2.047-0.379-2.752-1.138
			c-0.706-0.759-0.988-1.649-0.847-2.674l4.182-29.748c0.141-1.023,0.679-1.914,1.614-2.673c0.935-0.759,1.967-1.139,3.097-1.139
			h5.981c2.999,0,5.469,0.38,7.41,1.139s3.459,1.782,4.553,3.07s1.8,2.771,2.117,4.446c0.318,1.676,0.335,3.432,0.053,5.267
			L252.033,67.894z M245.946,58.789c0.141-1.023,0.141-1.967,0-2.832c-0.142-0.864-0.477-1.623-1.006-2.276
			c-0.529-0.652-1.262-1.164-2.197-1.535c-0.936-0.37-2.126-0.556-3.572-0.556h-3.6l-3.388,23.926h3.6
			c1.446,0,2.699-0.202,3.758-0.608c1.059-0.405,1.94-0.953,2.647-1.641c0.705-0.688,1.252-1.491,1.641-2.409
			c0.388-0.917,0.652-1.905,0.793-2.964L245.946,58.789z"/>
		<path fill="#FF0000" d="M278.394,78.48c0,1.023-0.424,1.905-1.27,2.646c-0.848,0.741-1.818,1.111-2.912,1.111h-14.027
			c-0.635,0-1.244-0.062-1.826-0.186c-0.582-0.123-1.085-0.335-1.508-0.635c-0.424-0.3-0.733-0.688-0.927-1.165
			c-0.194-0.476-0.238-1.066-0.132-1.772l4.182-29.802c0.141-0.917,0.652-1.773,1.535-2.567c0.881-0.794,1.904-1.19,3.069-1.19
			h14.345c0.918,0,1.686,0.309,2.303,0.926c0.617,0.618,0.926,1.333,0.926,2.144c0,1.06-0.423,1.933-1.27,2.621
			c-0.848,0.688-1.818,1.031-2.912,1.031h-11.01l-1.217,8.522h10.004c0.882,0,1.641,0.283,2.275,0.847
			c0.636,0.565,0.953,1.289,0.953,2.171c0,1.023-0.415,1.897-1.244,2.62c-0.829,0.724-1.809,1.085-2.938,1.085H264.79l-1.218,8.628
			h11.54c0.917,0,1.693,0.291,2.328,0.874C278.076,76.972,278.394,77.669,278.394,78.48z"/>
		<path fill="#FF0000" d="M300.201,70.752c0-0.917-0.194-1.588-0.582-2.012c-0.389-0.423-0.776-0.723-1.165-0.899
			c-0.529-0.247-1.094-0.494-1.693-0.741c-0.601-0.247-1.253-0.477-1.959-0.688c-1.129-0.388-2.249-0.794-3.361-1.217
			c-1.111-0.424-2.117-0.988-3.017-1.694c-0.899-0.705-1.624-1.579-2.171-2.62c-0.547-1.04-0.82-2.355-0.82-3.943
			c0-1.905,0.336-3.635,1.006-5.188s1.615-2.867,2.832-3.943c1.218-1.076,2.691-1.906,4.42-2.488s3.635-0.873,5.717-0.873
			c0.741,0,1.676,0.062,2.806,0.186c1.129,0.124,2.231,0.344,3.308,0.661s1.994,0.768,2.754,1.35
			c0.758,0.583,1.137,1.333,1.137,2.25c0,0.918-0.389,1.756-1.164,2.515c-0.776,0.759-1.8,1.138-3.07,1.138
			c-0.494,0-0.926-0.053-1.297-0.159c-0.37-0.105-0.768-0.246-1.19-0.423c-0.495-0.177-1.042-0.353-1.642-0.529
			s-1.358-0.265-2.275-0.265c-0.707,0-1.402,0.071-2.092,0.211c-0.688,0.142-1.296,0.39-1.826,0.741
			c-0.529,0.354-0.952,0.83-1.27,1.43c-0.318,0.601-0.477,1.342-0.477,2.223c0,0.953,0.203,1.642,0.609,2.064
			c0.404,0.424,0.802,0.724,1.19,0.9c0.636,0.353,1.252,0.635,1.853,0.847c0.6,0.212,1.182,0.406,1.746,0.582
			c1.13,0.354,2.259,0.76,3.389,1.218c1.129,0.459,2.144,1.041,3.043,1.747c0.9,0.706,1.623,1.579,2.171,2.62
			c0.546,1.041,0.82,2.338,0.82,3.891c0,2.047-0.389,3.882-1.165,5.505s-1.835,2.99-3.176,4.103
			c-1.342,1.111-2.92,1.967-4.737,2.566s-3.767,0.9-5.849,0.9c-0.953,0-2.038-0.089-3.256-0.265c-1.217-0.177-2.373-0.45-3.467-0.82
			c-1.094-0.371-2.021-0.864-2.779-1.482c-0.76-0.617-1.139-1.35-1.139-2.196c0-0.459,0.106-0.908,0.318-1.351
			c0.212-0.44,0.503-0.828,0.873-1.164c0.371-0.335,0.795-0.608,1.271-0.82c0.477-0.212,0.979-0.317,1.509-0.317
			c0.388,0,0.794,0.062,1.217,0.185c0.424,0.124,0.883,0.274,1.377,0.45c0.6,0.212,1.314,0.441,2.144,0.688s1.808,0.37,2.938,0.37
			c2.046,0,3.59-0.458,4.631-1.376S300.201,72.411,300.201,70.752z"/>
		<path fill="#FF0000" d="M316.61,80.227c-0.389,0.777-0.963,1.386-1.721,1.826c-0.76,0.441-1.455,0.662-2.091,0.662
			c-0.952,0-1.756-0.274-2.409-0.82c-0.652-0.547-0.979-1.279-0.979-2.197c0-0.246,0.044-0.52,0.133-0.82
			c0.088-0.299,0.166-0.537,0.238-0.715l14.557-30.118c0.493-1.023,1.093-1.88,1.799-2.567c0.705-0.688,1.693-1.032,2.965-1.032
			c1.27,0,2.178,0.336,2.726,1.006c0.547,0.671,0.927,1.535,1.138,2.594l6.088,30.118v0.583c0,1.199-0.424,2.161-1.271,2.885
			c-0.847,0.723-1.853,1.085-3.017,1.085c-0.707,0-1.387-0.23-2.039-0.688s-1.067-1.059-1.244-1.8l-1.111-5.346h-11.221
			L316.61,80.227z M327.885,59.795c-0.142-0.776-0.212-1.632-0.212-2.567c0-0.935,0-1.808,0-2.62
			c-0.211,0.813-0.459,1.686-0.74,2.62c-0.283,0.936-0.602,1.791-0.953,2.567l-4.076,9.052h7.41L327.885,59.795z"/>
		<path fill="#FF0000" d="M350.804,79.327c-0.141,0.918-0.617,1.712-1.429,2.382c-0.813,0.67-1.729,1.006-2.753,1.006
			s-1.853-0.336-2.487-1.006c-0.636-0.67-0.883-1.464-0.741-2.382l4.287-30.701c0.141-0.917,0.652-1.773,1.535-2.567
			c0.882-0.794,1.906-1.191,3.07-1.191h14.345c0.917,0,1.694,0.31,2.329,0.927c0.635,0.618,0.953,1.332,0.953,2.144
			c0,1.059-0.433,1.933-1.297,2.62c-0.865,0.688-1.845,1.032-2.938,1.032h-11.011l-1.164,8.575h10.004
			c0.847,0,1.589,0.283,2.224,0.847c0.635,0.565,0.953,1.289,0.953,2.171c0,1.023-0.406,1.897-1.219,2.62
			c-0.812,0.724-1.781,1.085-2.91,1.085h-10.005L350.804,79.327z"/>
		<path fill="#FF0000" d="M374.994,47.832c0.141-0.917,0.616-1.711,1.429-2.382c0.812-0.67,1.729-1.006,2.753-1.006
			c1.022,0,1.853,0.336,2.487,1.006c0.636,0.671,0.882,1.465,0.742,2.382l-4.395,31.495c-0.141,0.918-0.617,1.712-1.429,2.382
			c-0.813,0.67-1.729,1.006-2.753,1.006s-1.853-0.336-2.487-1.006c-0.636-0.67-0.883-1.464-0.741-2.382L374.994,47.832z"/>
		<path fill="#FF0000" d="M397.067,82.715c-2.295,0-4.253-0.362-5.876-1.085c-1.624-0.724-2.921-1.712-3.89-2.965
			c-0.972-1.252-1.624-2.726-1.959-4.42c-0.336-1.693-0.362-3.511-0.08-5.452l1.43-10.48c0.282-1.87,0.794-3.644,1.535-5.319
			c0.74-1.676,1.746-3.149,3.018-4.42c1.27-1.271,2.832-2.276,4.684-3.018c1.854-0.741,4.014-1.111,6.484-1.111
			s4.525,0.37,6.167,1.111s2.919,1.747,3.838,3.018c0.917,1.271,1.517,2.744,1.8,4.42c0.281,1.676,0.281,3.449,0,5.319l-1.43,10.48
			c-0.283,1.941-0.83,3.759-1.641,5.452c-0.813,1.694-1.879,3.168-3.203,4.42c-1.322,1.253-2.894,2.241-4.711,2.965
			C401.416,82.353,399.36,82.715,397.067,82.715z M401.46,51.167c-2.328,0-4.058,0.653-5.187,1.958
			c-1.13,1.306-1.853,3.035-2.171,5.188l-1.429,10.48c-0.317,2.117-0.062,3.847,0.768,5.188c0.829,1.342,2.337,2.012,4.526,2.012
			c2.188,0,3.89-0.67,5.107-2.012c1.217-1.341,1.984-3.07,2.303-5.188l1.429-10.48c0.317-2.152,0.088-3.882-0.688-5.188
			C405.343,51.82,403.79,51.167,401.46,51.167z"/>
	</g>
	<g>
		<path fill="#FFFFFF" d="M272.632,89.426c0.478,0,0.908,0.042,1.293,0.125c0.384,0.083,0.846,0.239,1.387,0.467l0.747-5.326
			c0.083-0.54,0.332-0.992,0.747-1.355c0.416-0.363,0.967-0.545,1.652-0.545c0.685,0,1.193,0.187,1.525,0.561s0.457,0.82,0.374,1.34
			l-2.337,16.572c-0.041,0.229-0.02,0.416,0.063,0.561c0.083,0.146,0.208,0.322,0.375,0.529c0.207,0.229,0.311,0.51,0.311,0.842
			s-0.072,0.634-0.218,0.903s-0.327,0.493-0.546,0.67c-0.217,0.177-0.467,0.312-0.747,0.404c-0.28,0.094-0.545,0.141-0.794,0.141
			c-0.395,0-0.732-0.109-1.013-0.327s-0.515-0.503-0.7-0.856c-0.832,0.415-1.605,0.747-2.321,0.997
			c-0.717,0.249-1.47,0.373-2.259,0.373c-1.807,0-3.131-0.561-3.972-1.682c-0.841-1.122-1.138-2.596-0.888-4.424l0.498-3.521
			c0.125-0.935,0.343-1.791,0.654-2.569c0.312-0.779,0.736-1.459,1.277-2.041c0.539-0.581,1.209-1.032,2.01-1.354
			C270.55,89.587,271.511,89.426,272.632,89.426z M274.844,93.383c-0.478-0.146-0.903-0.25-1.277-0.312
			c-0.374-0.063-0.696-0.094-0.966-0.094c-0.769,0-1.34,0.239-1.713,0.717c-0.374,0.478-0.634,1.204-0.779,2.18l-0.498,3.521
			c-0.229,1.662,0.332,2.492,1.682,2.492c0.645,0,1.475-0.218,2.492-0.654c0-0.104,0-0.202,0-0.296s0.011-0.191,0.031-0.296
			L274.844,93.383z"/>
		<path fill="#FFFFFF" d="M286.931,105.5c-1.807,0-3.131-0.561-3.973-1.682c-0.841-1.122-1.137-2.596-0.887-4.424l0.498-3.521
			c0.125-0.935,0.379-1.801,0.764-2.601c0.383-0.8,0.893-1.495,1.525-2.087c0.634-0.592,1.387-1.054,2.259-1.387
			c0.872-0.332,1.869-0.498,2.991-0.498c2.263,0,3.811,0.55,4.641,1.65c0.83,1.102,1.101,2.7,0.811,4.798l-0.811,5.794
			c-0.021,0.229-0.016,0.405,0.016,0.529c0.031,0.125,0.088,0.219,0.172,0.28c0.082,0.063,0.182,0.104,0.295,0.125
			c0.115,0.021,0.234,0.063,0.359,0.125c0.373,0.146,0.561,0.457,0.561,0.935c0,0.561-0.182,1.012-0.545,1.354
			c-0.364,0.343-1.013,0.515-1.947,0.515c-0.582,0-1.064-0.094-1.449-0.28c-0.384-0.188-0.721-0.53-1.012-1.028
			c-0.645,0.478-1.299,0.831-1.963,1.059C288.571,105.386,287.803,105.5,286.931,105.5z M291.354,95.033
			c0.104-0.727-0.006-1.251-0.328-1.573c-0.322-0.321-0.877-0.482-1.666-0.482c-0.77,0-1.34,0.239-1.713,0.717
			c-0.375,0.478-0.635,1.204-0.779,2.18l-0.498,3.521c-0.229,1.662,0.332,2.492,1.682,2.492c0.644,0,1.475-0.218,2.492-0.654
			c0-0.104,0-0.202,0-0.296s0.01-0.191,0.031-0.296L291.354,95.033z"/>
		<path fill="#FFFFFF" d="M308.673,94.753c0-0.789,0.146-1.516,0.438-2.181c0.29-0.664,0.716-1.24,1.276-1.729
			c0.562-0.488,1.262-0.867,2.103-1.138c0.842-0.27,1.813-0.404,2.913-0.404c0.478,0,0.991,0.036,1.542,0.108
			c0.55,0.073,1.059,0.198,1.526,0.374c0.468,0.177,0.856,0.421,1.168,0.732s0.468,0.706,0.468,1.184
			c0,0.395-0.073,0.712-0.219,0.95c-0.145,0.239-0.326,0.426-0.545,0.561c-0.218,0.136-0.447,0.224-0.686,0.265
			c-0.238,0.042-0.451,0.063-0.639,0.063c-0.27,0-0.514-0.036-0.731-0.109c-0.218-0.072-0.437-0.145-0.654-0.218
			c-0.218-0.072-0.462-0.145-0.731-0.218c-0.271-0.072-0.593-0.109-0.967-0.109c-1.309,0-1.962,0.416-1.962,1.246
			c0,0.374,0.259,0.675,0.778,0.903c0.498,0.229,1.07,0.447,1.713,0.654c0.645,0.208,1.252,0.479,1.823,0.81
			c0.571,0.333,1.06,0.769,1.464,1.309c0.405,0.54,0.607,1.257,0.607,2.149c0,1.683-0.592,3.027-1.775,4.034
			c-1.184,1.008-2.866,1.511-5.047,1.511c-0.478,0-1.023-0.031-1.635-0.093c-0.613-0.063-1.189-0.182-1.729-0.358
			s-0.991-0.41-1.354-0.701c-0.364-0.291-0.545-0.664-0.545-1.121c0-0.478,0.212-0.93,0.638-1.355s0.971-0.639,1.636-0.639
			c0.249,0,0.498,0.036,0.748,0.109c0.248,0.073,0.508,0.15,0.778,0.233c0.27,0.083,0.561,0.161,0.872,0.233
			c0.312,0.073,0.654,0.109,1.028,0.109c0.603,0,1.101-0.114,1.495-0.343s0.592-0.581,0.592-1.06c0-0.228-0.053-0.404-0.156-0.529
			c-0.104-0.124-0.229-0.229-0.373-0.312c-0.437-0.27-0.986-0.503-1.651-0.701c-0.665-0.196-1.308-0.451-1.931-0.763
			s-1.158-0.732-1.605-1.262C308.896,96.42,308.673,95.688,308.673,94.753z"/>
		<path fill="#FFFFFF" d="M328.953,99.332c-0.415,0-0.806-0.016-1.168-0.047c-0.364-0.03-0.763-0.077-1.2-0.14l-0.155,1.028
			c-0.083,0.54,0.058,0.965,0.421,1.276s0.971,0.468,1.822,0.468c0.498,0,0.977-0.057,1.434-0.172
			c0.456-0.113,0.954-0.285,1.494-0.514c0.063-0.041,0.166-0.083,0.313-0.124c0.145-0.042,0.353-0.063,0.623-0.063
			c0.664,0,1.115,0.166,1.354,0.498c0.239,0.333,0.358,0.665,0.358,0.997c0,0.581-0.234,1.064-0.701,1.448
			c-0.467,0.385-1.039,0.69-1.713,0.919c-0.676,0.229-1.377,0.384-2.104,0.468c-0.727,0.082-1.35,0.124-1.869,0.124
			c-1.018,0-1.91-0.14-2.678-0.42c-0.77-0.28-1.393-0.665-1.869-1.153c-0.479-0.487-0.816-1.063-1.014-1.729
			c-0.197-0.664-0.244-1.381-0.14-2.149l0.716-5.202c0.104-0.789,0.348-1.521,0.732-2.196s0.889-1.262,1.512-1.76
			c0.623-0.499,1.37-0.889,2.242-1.169c0.873-0.28,1.848-0.42,2.928-0.42c1.849,0,3.22,0.415,4.113,1.246
			c0.893,0.831,1.339,1.931,1.339,3.302c0,1.683-0.534,3.017-1.604,4.003S331.341,99.332,328.953,99.332z M331.445,94.036
			c0-0.498-0.14-0.856-0.421-1.074c-0.279-0.218-0.69-0.327-1.23-0.327c-0.747,0-1.34,0.182-1.775,0.545
			c-0.436,0.364-0.706,0.856-0.811,1.479l-0.186,1.34c0.498,0.042,0.954,0.073,1.37,0.094c0.415,0.021,0.706,0.031,0.872,0.031
			c0.664,0,1.193-0.15,1.589-0.452C331.247,95.371,331.445,94.826,331.445,94.036z"/>
		<path fill="#FFFFFF" d="M355.743,94.939c0.082-0.539-0.006-1.001-0.266-1.386c-0.26-0.384-0.68-0.576-1.262-0.576
			c-0.415,0-0.84,0.094-1.276,0.28s-0.894,0.457-1.371,0.81c-0.021,0.146-0.03,0.28-0.03,0.405s-0.012,0.26-0.031,0.405
			l-1.215,8.691c-0.084,0.54-0.328,0.991-0.732,1.354c-0.405,0.363-0.971,0.545-1.698,0.545s-1.241-0.182-1.542-0.545
			s-0.41-0.814-0.326-1.354l1.121-8.068c0.104-0.727,0.094-1.329-0.031-1.807s-0.529-0.717-1.215-0.717
			c-0.395,0-0.831,0.078-1.309,0.233c-0.479,0.156-0.966,0.348-1.465,0.576c0,0.042,0,0.099,0,0.172c0,0.072-0.01,0.13-0.03,0.171
			l-1.309,9.439c-0.083,0.54-0.327,0.991-0.731,1.354c-0.406,0.363-0.972,0.545-1.698,0.545c-0.728,0-1.241-0.182-1.542-0.545
			s-0.41-0.814-0.327-1.354l1.308-9.439c0.084-0.519,0.104-0.841,0.063-0.966c-0.041-0.124-0.082-0.238-0.124-0.343
			c-0.146-0.228-0.245-0.42-0.296-0.576c-0.053-0.155-0.078-0.306-0.078-0.451c0-0.603,0.238-1.085,0.717-1.449
			c0.477-0.362,1.007-0.545,1.588-0.545c0.354,0,0.654,0.078,0.904,0.233c0.249,0.156,0.456,0.369,0.623,0.639
			c0.768-0.436,1.526-0.773,2.273-1.012c0.748-0.239,1.453-0.358,2.119-0.358c1.266,0,2.408,0.457,3.426,1.37
			c0.914-0.456,1.744-0.799,2.492-1.027s1.547-0.343,2.398-0.343c1.849,0,3.229,0.509,4.144,1.526
			c0.913,1.018,1.257,2.367,1.028,4.05l-0.935,6.572c-0.042,0.333-0.047,0.572-0.016,0.717c0.031,0.146,0.14,0.333,0.327,0.561
			c0.104,0.146,0.197,0.275,0.28,0.39s0.124,0.286,0.124,0.514c0,0.603-0.229,1.064-0.686,1.387
			c-0.457,0.321-1.09,0.482-1.899,0.482c-0.312,0-0.639-0.036-0.981-0.108c-0.343-0.073-0.645-0.239-0.903-0.499
			c-0.26-0.259-0.452-0.633-0.576-1.121s-0.124-1.137,0-1.947L355.743,94.939z"/>
		<path fill="#FFFFFF" d="M367.673,105.5c-1.807,0-3.131-0.561-3.971-1.682c-0.842-1.122-1.138-2.596-0.889-4.424l0.498-3.521
			c0.125-0.935,0.379-1.801,0.764-2.601s0.893-1.495,1.527-2.087c0.633-0.592,1.386-1.054,2.258-1.387
			c0.872-0.332,1.869-0.498,2.99-0.498c2.264,0,3.811,0.55,4.643,1.65c0.83,1.102,1.1,2.7,0.809,4.798l-0.809,5.794
			c-0.021,0.229-0.016,0.405,0.015,0.529c0.031,0.125,0.089,0.219,0.171,0.28c0.084,0.063,0.182,0.104,0.297,0.125
			c0.113,0.021,0.233,0.063,0.357,0.125c0.375,0.146,0.561,0.457,0.561,0.935c0,0.561-0.182,1.012-0.545,1.354
			s-1.012,0.515-1.946,0.515c-0.582,0-1.064-0.094-1.448-0.28c-0.385-0.188-0.723-0.53-1.013-1.028
			c-0.644,0.478-1.298,0.831-1.963,1.059C369.313,105.386,368.546,105.5,367.673,105.5z M372.097,95.033
			c0.104-0.727-0.005-1.251-0.326-1.573c-0.322-0.321-0.879-0.482-1.668-0.482c-0.768,0-1.339,0.239-1.713,0.717
			c-0.373,0.478-0.633,1.204-0.778,2.18l-0.499,3.521c-0.229,1.662,0.332,2.492,1.683,2.492c0.644,0,1.474-0.218,2.492-0.654
			c0-0.104,0-0.202,0-0.296s0.011-0.191,0.031-0.296L372.097,95.033z"/>
		<path fill="#FFFFFF" d="M389.323,95.438c0.104-0.789,0.01-1.407-0.28-1.854c-0.291-0.446-0.747-0.67-1.37-0.67
			s-1.454,0.218-2.492,0.654c0,0.104,0,0.202,0,0.296s-0.012,0.192-0.031,0.296l-1.309,9.408c-0.083,0.54-0.327,0.991-0.732,1.354
			c-0.404,0.363-0.971,0.545-1.697,0.545c-0.728,0-1.241-0.182-1.542-0.545c-0.302-0.363-0.411-0.814-0.327-1.354l1.309-9.439
			c0.082-0.519,0.104-0.841,0.063-0.966c-0.043-0.124-0.084-0.238-0.125-0.343c-0.146-0.228-0.244-0.415-0.296-0.561
			c-0.052-0.145-0.078-0.301-0.078-0.467c0-0.562,0.233-1.033,0.701-1.418c0.468-0.384,1.022-0.576,1.667-0.576
			c0.623,0,1.131,0.302,1.525,0.903c0.769-0.478,1.521-0.82,2.259-1.027c0.737-0.208,1.417-0.312,2.04-0.312
			c1.973,0,3.369,0.556,4.19,1.666c0.82,1.111,1.095,2.581,0.825,4.408l-0.841,6.012c-0.042,0.333-0.047,0.572-0.016,0.717
			c0.031,0.146,0.14,0.333,0.327,0.561c0.104,0.146,0.197,0.275,0.28,0.39s0.124,0.286,0.124,0.514c0,0.603-0.229,1.064-0.685,1.387
			c-0.457,0.321-1.091,0.482-1.9,0.482c-0.312,0-0.639-0.036-0.981-0.108c-0.342-0.073-0.644-0.239-0.903-0.499
			c-0.26-0.259-0.452-0.633-0.576-1.121s-0.124-1.137,0-1.947L389.323,95.438z"/>
		<path fill="#FFFFFF" d="M401.379,105.5c-1.807,0-3.131-0.561-3.972-1.682c-0.842-1.122-1.137-2.596-0.888-4.424l0.498-3.521
			c0.125-0.935,0.379-1.801,0.764-2.601c0.384-0.8,0.893-1.495,1.526-2.087c0.633-0.592,1.387-1.054,2.258-1.387
			c0.873-0.332,1.869-0.498,2.991-0.498c2.263,0,3.811,0.55,4.642,1.65c0.83,1.102,1.1,2.7,0.81,4.798l-0.81,5.794
			c-0.021,0.229-0.016,0.405,0.016,0.529c0.031,0.125,0.088,0.219,0.171,0.28c0.083,0.063,0.182,0.104,0.296,0.125
			c0.114,0.021,0.234,0.063,0.358,0.125c0.374,0.146,0.561,0.457,0.561,0.935c0,0.561-0.182,1.012-0.545,1.354
			c-0.364,0.343-1.013,0.515-1.946,0.515c-0.582,0-1.064-0.094-1.449-0.28c-0.385-0.188-0.722-0.53-1.012-1.028
			c-0.645,0.478-1.299,0.831-1.963,1.059C403.02,105.386,402.251,105.5,401.379,105.5z M405.803,95.033
			c0.104-0.727-0.005-1.251-0.327-1.573c-0.322-0.321-0.878-0.482-1.667-0.482c-0.769,0-1.339,0.239-1.713,0.717
			s-0.634,1.204-0.778,2.18l-0.499,3.521c-0.229,1.662,0.332,2.492,1.683,2.492c0.643,0,1.474-0.218,2.492-0.654
			c0-0.104,0-0.202,0-0.296s0.01-0.191,0.031-0.296L405.803,95.033z"/>
	</g>
	<g>
		<g>
			<path fill="#FF0000" d="M183.606,73.537c0-30.5-24.726-55.225-55.226-55.225S73.155,43.037,73.155,73.537
				s24.726,55.227,55.226,55.227S183.606,104.037,183.606,73.537"/>
		</g>
		<g>
			<path fill="#FFFFFF" d="M129.278,41.127c0.181,0.09,0.363,0.176,0.543,0.268c0.979,0.494,1.385,1.328,1.398,2.387
				c0.01,0.664,0.016,1.328-0.003,1.992c-0.011,0.346,0.087,0.508,0.454,0.592c5.43,1.225,9.107,4.471,11.025,9.686
				c0.587,1.592,0.789,3.262,0.787,4.957c-0.004,3.76,0.018,7.52-0.016,11.279c-0.007,0.824,0.211,1.516,0.745,2.107
				c1.185,1.307,2.38,2.605,3.591,3.891c2.176,2.313,4.371,4.609,6.549,6.922c0.254,0.27,0.457,0.59,0.67,0.898
				c1.074,1.564,0.892,2.791-0.571,4.021c-1.361,1.145-2.966,1.814-4.624,2.369c-3.503,1.17-7.126,1.729-10.785,2.115
				c-4.223,0.443-8.455,0.57-12.693,0.471c-5.736-0.135-11.445-0.572-17.012-2.096c-2.206-0.605-4.383-1.32-6.169-2.834
				c-0.431-0.365-0.78-0.855-1.081-1.342c-0.373-0.604-0.398-1.293-0.008-1.893c0.574-0.885,1.14-1.799,1.855-2.563
				c2.616-2.785,5.299-5.51,7.942-8.268c0.545-0.57,1.042-1.186,1.548-1.791c0.469-0.561,0.668-1.195,0.663-1.949
				c-0.026-3.76-0.054-7.52-0.002-11.279c0.087-6.381,3.031-10.988,8.787-13.748c0.905-0.434,1.912-0.686,2.896-0.926
				c0.473-0.115,0.599-0.301,0.575-0.746c-0.03-0.6-0.017-1.203-0.005-1.807c0.026-1.381,0.52-2.084,1.807-2.598
				c0.051-0.021,0.09-0.078,0.136-0.117H129.278z"/>
		</g>
		<g>
			<path fill="#FFFFFF" d="M128.755,97.828c1.225,0,2.45,0.023,3.676-0.014c0.424-0.012,0.635,0.143,0.813,0.498
				c0.978,1.936,0.115,4.688-1.874,5.861c-1.725,1.016-3.494,1.047-5.186-0.018c-1.625-1.02-2.363-2.563-2.258-4.492
				c0.006-0.123,0.016-0.248,0.041-0.369c0.267-1.287,0.502-1.475,1.795-1.453c0.582,0.008,1.164,0.016,1.746,0.02
				c0.414,0.004,0.83,0,1.246,0C128.755,97.852,128.755,97.84,128.755,97.828"/>
		</g>
		<g>
			<path fill="#FF0000" d="M26.094,136.888c-1.674,0-3.327-0.762-4.407-2.205c-1.82-2.432-1.324-5.879,1.107-7.698L50.9,105.949
				c2.434-1.82,5.879-1.324,7.699,1.107s1.324,5.879-1.107,7.699l-28.106,21.035C28.396,136.53,27.24,136.888,26.094,136.888z"/>
		</g>
		<g>
			<path fill="#FF0000" d="M57.306,32.036c-1.147,0-2.303-0.357-3.292-1.097L25.908,9.904c-2.432-1.82-2.928-5.268-1.107-7.699
				c1.82-2.434,5.266-2.928,7.699-1.107l28.105,21.035c2.432,1.82,2.928,5.267,1.107,7.698
				C60.633,31.274,58.979,32.036,57.306,32.036z"/>
		</g>
		<g>
			<path fill="#FF0000" d="M43.5,76.57h-38c-3.037,0-5.5-2.462-5.5-5.5c0-3.037,2.463-5.5,5.5-5.5h38c3.037,0,5.5,2.463,5.5,5.5
				C49,74.108,46.537,76.57,43.5,76.57z"/>
		</g>
	</g>
</g>
</svg>
