<?xml version="1.0" encoding="utf-8"?>
<!-- Generator: Adobe Illustrator 16.0.0, SVG Export Plug-In . SVG Version: 6.00 Build 0)  -->
<!DOCTYPE svg PUBLIC "-//W3C//DTD SVG 1.1//EN" "http://www.w3.org/Graphics/SVG/1.1/DTD/svg11.dtd">
<svg version="1.1" id="Layer_1" xmlns="http://www.w3.org/2000/svg" xmlns:xlink="http://www.w3.org/1999/xlink" x="0px" y="0px"
	 width="357.259px" height="136.887px" viewBox="0 0 357.259 136.887" enable-background="new 0 0 357.259 136.887"
	 xml:space="preserve">
<g>
	<g>
		<path fill="#11374F" d="M90.372,73.522l-2.126,14.964c-0.219,1.418-0.954,2.671-2.207,3.761c-1.256,1.09-2.672,1.635-4.252,1.635
			c-1.527,0-2.795-0.531-3.803-1.594c-1.01-1.063-1.404-2.331-1.186-3.802l6.623-47.098c0.217-1.581,1.035-2.957,2.453-4.129
			c1.417-1.172,2.997-1.758,4.742-1.758h12.02c3.38,0,6.242,0.437,8.586,1.309c2.344,0.873,4.238,2.058,5.684,3.557
			c1.443,1.5,2.494,3.23,3.147,5.192c0.654,1.962,0.981,4.035,0.981,6.214c0,3.434-0.572,6.5-1.717,9.199
			c-1.145,2.699-2.768,4.975-4.865,6.828c-2.1,1.854-4.594,3.271-7.482,4.252c-2.89,0.981-6.105,1.472-9.648,1.472H90.372z
			 M91.844,63.138h6.951c7.141,0,10.711-3.379,10.711-10.139c0-0.926-0.123-1.812-0.368-2.658c-0.245-0.844-0.683-1.594-1.308-2.249
			c-0.628-0.654-1.486-1.186-2.576-1.594c-1.092-0.409-2.453-0.613-4.088-0.613h-6.951L91.844,63.138z"/>
		<path fill="#11374F" d="M158.238,87.423c0,1.582-0.627,2.931-1.881,4.047c-1.254,1.118-2.727,1.676-4.415,1.676h-23.058
			c-1.637,0-3-0.544-4.089-1.635c-1.091-1.09-1.526-2.425-1.309-4.007l6.705-47.507c0.218-1.417,0.953-2.644,2.208-3.68
			c1.253-1.035,2.67-1.554,4.252-1.554c1.58,0,2.861,0.519,3.843,1.554c0.981,1.036,1.362,2.263,1.145,3.68l-6.051,42.846h17.743
			c1.418,0,2.589,0.437,3.517,1.308C157.775,85.025,158.238,86.115,158.238,87.423z"/>
		<path fill="#11374F" d="M174.265,90.04c-0.601,1.199-1.485,2.14-2.657,2.821c-1.174,0.681-2.249,1.022-3.23,1.022
			c-1.472,0-2.712-0.423-3.721-1.267c-1.009-0.845-1.512-1.976-1.512-3.394c0-0.381,0.067-0.804,0.204-1.268
			c0.136-0.462,0.258-0.831,0.368-1.104l22.486-46.526c0.762-1.581,1.689-2.903,2.779-3.966s2.617-1.595,4.58-1.595
			c1.961,0,3.365,0.519,4.211,1.554c0.844,1.036,1.43,2.371,1.758,4.007l9.402,46.526v0.899c0,1.854-0.654,3.339-1.963,4.456
			c-1.307,1.117-2.861,1.676-4.66,1.676c-1.09,0-2.141-0.355-3.148-1.063c-1.008-0.708-1.648-1.635-1.92-2.78l-1.719-8.259h-17.334
			L174.265,90.04z M191.682,58.478c-0.219-1.199-0.328-2.521-0.328-3.966c0-1.444,0-2.793,0-4.047
			c-0.326,1.254-0.709,2.604-1.145,4.047c-0.438,1.445-0.928,2.767-1.471,3.966l-6.297,13.982h11.447L191.682,58.478z"/>
		<path fill="#11374F" d="M250.472,93.883c-1.091,0-2.1-0.259-3.025-0.777c-0.928-0.517-1.608-1.212-2.044-2.085l-14.392-33.034
			l-4.252,30.581c-0.219,1.418-0.969,2.658-2.249,3.721c-1.281,1.063-2.712,1.594-4.292,1.594c-1.582,0-2.85-0.531-3.803-1.594
			c-0.954-1.063-1.322-2.302-1.104-3.721l6.786-48.243c0.218-1.581,0.953-2.903,2.208-3.966c1.254-1.063,2.752-1.595,4.497-1.595
			c1.09,0,2.112,0.273,3.066,0.818c0.953,0.545,1.648,1.281,2.085,2.208c1.417,3.162,2.685,6.051,3.803,8.667
			c1.116,2.617,2.221,5.192,3.312,7.727c1.09,2.535,2.208,5.151,3.353,7.85s2.425,5.683,3.843,8.954l4.334-30.908
			c0.217-1.417,0.967-2.657,2.248-3.72c1.28-1.063,2.712-1.595,4.293-1.595s2.848,0.532,3.803,1.595
			c0.953,1.063,1.32,2.303,1.104,3.72l-6.787,48.243c-0.218,1.527-0.954,2.835-2.207,3.925
			C253.796,93.337,252.271,93.883,250.472,93.883z"/>
		<path fill="#11374F" d="M286.612,93.883c-3.544,0-6.569-0.56-9.076-1.676c-2.508-1.117-4.512-2.643-6.01-4.579
			c-1.5-1.934-2.508-4.211-3.025-6.828c-0.519-2.616-0.56-5.423-0.123-8.422l2.208-16.19c0.436-2.889,1.227-5.628,2.371-8.218
			c1.145-2.588,2.698-4.865,4.661-6.828c1.962-1.962,4.374-3.516,7.236-4.661c2.861-1.145,6.2-1.717,10.017-1.717
			c3.814,0,6.991,0.572,9.525,1.717c2.535,1.145,4.511,2.698,5.929,4.661c1.417,1.962,2.343,4.239,2.78,6.828
			c0.436,2.59,0.436,5.329,0,8.218l-2.208,16.19c-0.438,2.999-1.281,5.806-2.535,8.422c-1.255,2.617-2.902,4.894-4.946,6.828
			c-2.045,1.936-4.471,3.462-7.277,4.579C293.33,93.323,290.155,93.883,286.612,93.883z M293.399,45.149
			c-3.599,0-6.27,1.009-8.014,3.025c-1.745,2.017-2.862,4.689-3.353,8.013l-2.208,16.19c-0.49,3.271-0.096,5.942,1.186,8.013
			c1.28,2.072,3.611,3.107,6.991,3.107s6.011-1.035,7.891-3.107c1.881-2.071,3.066-4.743,3.558-8.013l2.207-16.19
			c0.491-3.324,0.136-5.996-1.063-8.013C299.395,46.159,296.997,45.149,293.399,45.149z"/>
		<path fill="#11374F" d="M343.03,75.403c0-1.417-0.3-2.453-0.899-3.107c-0.6-0.654-1.199-1.117-1.799-1.39
			c-0.817-0.381-1.689-0.763-2.616-1.145c-0.928-0.38-1.936-0.736-3.025-1.063c-1.745-0.599-3.476-1.227-5.192-1.88
			c-1.717-0.654-3.271-1.525-4.66-2.617c-1.391-1.09-2.509-2.439-3.353-4.047c-0.847-1.607-1.268-3.639-1.268-6.092
			c0-2.944,0.518-5.614,1.554-8.013c1.034-2.398,2.493-4.428,4.374-6.092c1.881-1.662,4.156-2.944,6.828-3.843
			c2.67-0.899,5.613-1.349,8.831-1.349c1.145,0,2.588,0.096,4.333,0.286c1.744,0.192,3.447,0.532,5.11,1.022
			c1.662,0.49,3.079,1.186,4.252,2.085c1.172,0.899,1.759,2.058,1.759,3.475c0,1.418-0.601,2.712-1.8,3.884
			c-1.199,1.173-2.779,1.758-4.742,1.758c-0.764,0-1.431-0.082-2.003-0.246s-1.186-0.38-1.84-0.654
			c-0.765-0.272-1.608-0.544-2.535-0.818c-0.928-0.272-2.099-0.409-3.516-0.409c-1.092,0-2.167,0.11-3.23,0.327
			c-1.063,0.218-2.003,0.6-2.82,1.145c-0.818,0.545-1.472,1.281-1.963,2.208c-0.49,0.928-0.735,2.073-0.735,3.435
			c0,1.472,0.313,2.535,0.94,3.189c0.626,0.654,1.239,1.118,1.839,1.39c0.981,0.545,1.935,0.981,2.862,1.308
			c0.927,0.327,1.826,0.627,2.698,0.899c1.744,0.545,3.488,1.173,5.233,1.881c1.744,0.709,3.312,1.608,4.701,2.698
			c1.391,1.091,2.507,2.44,3.353,4.047c0.845,1.608,1.268,3.612,1.268,6.01c0,3.162-0.601,5.998-1.799,8.504
			c-1.199,2.508-2.835,4.62-4.906,6.337c-2.072,1.717-4.511,3.04-7.318,3.966s-5.819,1.39-9.035,1.39
			c-1.472,0-3.147-0.137-5.028-0.409c-1.881-0.273-3.667-0.695-5.356-1.268s-3.121-1.335-4.292-2.29
			c-1.173-0.953-1.759-2.085-1.759-3.393c0-0.708,0.164-1.403,0.491-2.085c0.327-0.681,0.776-1.28,1.349-1.799
			c0.572-0.517,1.227-0.94,1.963-1.267c0.735-0.327,1.513-0.491,2.33-0.491c0.6,0,1.227,0.096,1.881,0.286
			c0.654,0.192,1.362,0.423,2.126,0.695c0.926,0.327,2.03,0.683,3.312,1.063c1.28,0.382,2.793,0.573,4.538,0.573
			c3.161,0,5.546-0.708,7.154-2.126C342.226,79.956,343.03,77.966,343.03,75.403z"/>
	</g>
	<g>
		<g>
			<path fill="#E42620" d="M25.895,136.887c-1.674,0-3.327-0.762-4.407-2.205c-1.82-2.432-1.324-5.879,1.108-7.699l28.105-21.035
				c2.431-1.82,5.879-1.324,7.699,1.107s1.324,5.879-1.108,7.699L29.186,135.79C28.197,136.53,27.041,136.887,25.895,136.887z"/>
		</g>
		<g>
			<path fill="#E42620" d="M57.106,32.036c-1.146,0-2.303-0.357-3.291-1.097L25.709,9.904c-2.432-1.82-2.928-5.267-1.107-7.699
				c1.818-2.431,5.268-2.928,7.699-1.108l28.105,21.035c2.432,1.82,2.928,5.267,1.107,7.698
				C60.434,31.274,58.781,32.036,57.106,32.036z"/>
		</g>
		<g>
			<path fill="#E42620" d="M43.5,76.571h-38c-3.037,0-5.5-2.463-5.5-5.5s2.463-5.5,5.5-5.5h38c3.037,0,5.5,2.463,5.5,5.5
				S46.537,76.571,43.5,76.571z"/>
		</g>
	</g>
</g>
</svg>
