<?xml version="1.0" encoding="utf-8"?>
<!-- Generator: Adobe Illustrator 16.0.0, SVG Export Plug-In . SVG Version: 6.00 Build 0)  -->
<!DOCTYPE svg PUBLIC "-//W3C//DTD SVG 1.1//EN" "http://www.w3.org/Graphics/SVG/1.1/DTD/svg11.dtd">
<svg version="1.1" id="Layer_1" xmlns="http://www.w3.org/2000/svg" xmlns:xlink="http://www.w3.org/1999/xlink" x="0px" y="0px"
	 width="389.616px" height="136.888px" viewBox="0 0 389.616 136.888" enable-background="new 0 0 389.616 136.888"
	 xml:space="preserve">
<g>
	<g>
		<path fill="#FF0000" d="M246.644,89.767c-0.142,0.918-0.618,1.703-1.43,2.355c-0.813,0.652-1.712,0.979-2.699,0.979
			c-1.024,0-1.862-0.327-2.515-0.979c-0.653-0.652-0.909-1.438-0.768-2.355l2.541-18.209l-7.676,11.857
			c-0.459,0.706-1.023,1.217-1.693,1.535c-0.671,0.317-1.376,0.476-2.117,0.476c-0.707,0-1.342-0.158-1.906-0.476
			c-0.564-0.318-0.971-0.829-1.217-1.535l-4.394-11.857l-2.541,18.209c-0.142,0.918-0.635,1.703-1.482,2.355
			c-0.847,0.652-1.782,0.979-2.805,0.979c-1.024,0-1.836-0.327-2.436-0.979c-0.601-0.652-0.829-1.438-0.688-2.355l4.393-31.442
			c0.141-1.022,0.627-1.86,1.456-2.514s1.791-0.979,2.885-0.979c1.8,0,2.929,0.688,3.388,2.064l6.828,18.686l12.017-18.738
			c0.493-0.776,1.093-1.306,1.799-1.589c0.706-0.281,1.43-0.423,2.171-0.423c1.093,0,1.949,0.344,2.567,1.032
			c0.616,0.688,0.854,1.509,0.714,2.461L246.644,89.767z"/>
		<path fill="#FF0000" d="M257.441,58.219c0.141-0.917,0.617-1.711,1.43-2.382c0.812-0.67,1.729-1.006,2.752-1.006
			s1.853,0.336,2.488,1.006c0.635,0.671,0.882,1.465,0.741,2.382l-4.394,31.495c-0.142,0.918-0.618,1.712-1.43,2.382
			s-1.729,1.006-2.752,1.006c-1.024,0-1.853-0.336-2.488-1.006c-0.635-0.67-0.882-1.464-0.741-2.382L257.441,58.219z"/>
		<path fill="#FF0000" d="M283.537,81.139c0-0.917-0.194-1.588-0.582-2.012c-0.389-0.423-0.776-0.723-1.164-0.899
			c-0.529-0.247-1.095-0.494-1.694-0.741c-0.601-0.247-1.253-0.477-1.958-0.688c-1.13-0.388-2.25-0.794-3.361-1.217
			c-1.112-0.424-2.118-0.988-3.018-1.694c-0.899-0.705-1.623-1.579-2.17-2.62c-0.548-1.04-0.82-2.355-0.82-3.943
			c0-1.906,0.335-3.635,1.005-5.188s1.615-2.867,2.832-3.943c1.218-1.076,2.69-1.906,4.42-2.488
			c1.729-0.582,3.635-0.873,5.717-0.873c0.741,0,1.676,0.062,2.806,0.186c1.129,0.124,2.231,0.344,3.309,0.661
			c1.076,0.317,1.993,0.768,2.752,1.35c0.759,0.583,1.139,1.333,1.139,2.25c0,0.918-0.389,1.756-1.165,2.515s-1.8,1.138-3.07,1.138
			c-0.494,0-0.926-0.053-1.297-0.159c-0.37-0.105-0.768-0.246-1.19-0.423c-0.495-0.177-1.041-0.353-1.641-0.529
			c-0.601-0.177-1.359-0.265-2.276-0.265c-0.707,0-1.403,0.07-2.091,0.211c-0.688,0.142-1.297,0.39-1.826,0.741
			c-0.529,0.354-0.953,0.83-1.271,1.43c-0.317,0.601-0.477,1.342-0.477,2.223c0,0.953,0.203,1.642,0.608,2.064
			c0.405,0.424,0.803,0.724,1.191,0.9c0.635,0.353,1.252,0.635,1.853,0.847c0.6,0.212,1.182,0.406,1.747,0.582
			c1.129,0.354,2.258,0.76,3.388,1.218c1.129,0.459,2.144,1.041,3.043,1.747c0.9,0.706,1.623,1.579,2.171,2.62
			c0.547,1.041,0.82,2.338,0.82,3.891c0,2.047-0.389,3.882-1.165,5.505s-1.835,2.99-3.176,4.103
			c-1.341,1.111-2.92,1.967-4.737,2.566s-3.768,0.9-5.849,0.9c-0.953,0-2.038-0.089-3.256-0.265c-1.218-0.177-2.374-0.45-3.467-0.82
			c-1.095-0.371-2.021-0.864-2.779-1.482c-0.759-0.617-1.138-1.35-1.138-2.196c0-0.459,0.105-0.908,0.317-1.351
			c0.212-0.44,0.503-0.828,0.873-1.164c0.371-0.335,0.794-0.608,1.271-0.82s0.979-0.317,1.509-0.317
			c0.388,0,0.794,0.062,1.218,0.185c0.423,0.124,0.881,0.274,1.376,0.45c0.6,0.212,1.314,0.441,2.144,0.688s1.809,0.37,2.938,0.37
			c2.047,0,3.591-0.458,4.632-1.376S283.537,82.798,283.537,81.139z"/>
		<path fill="#FF0000" d="M311.484,81.139c0-0.917-0.194-1.588-0.582-2.012c-0.389-0.423-0.776-0.723-1.164-0.899
			c-0.529-0.247-1.095-0.494-1.694-0.741c-0.601-0.247-1.253-0.477-1.958-0.688c-1.13-0.388-2.25-0.794-3.361-1.217
			c-1.112-0.424-2.118-0.988-3.018-1.694c-0.899-0.705-1.623-1.579-2.17-2.62c-0.548-1.04-0.82-2.355-0.82-3.943
			c0-1.906,0.335-3.635,1.005-5.188s1.615-2.867,2.832-3.943c1.218-1.076,2.69-1.906,4.42-2.488
			c1.729-0.582,3.635-0.873,5.717-0.873c0.741,0,1.676,0.062,2.806,0.186c1.129,0.124,2.231,0.344,3.309,0.661
			c1.076,0.317,1.993,0.768,2.752,1.35c0.759,0.583,1.139,1.333,1.139,2.25c0,0.918-0.389,1.756-1.165,2.515s-1.8,1.138-3.07,1.138
			c-0.494,0-0.926-0.053-1.297-0.159c-0.37-0.105-0.768-0.246-1.19-0.423c-0.495-0.177-1.041-0.353-1.641-0.529
			c-0.601-0.177-1.359-0.265-2.276-0.265c-0.707,0-1.403,0.07-2.091,0.211c-0.688,0.142-1.297,0.39-1.826,0.741
			c-0.529,0.354-0.953,0.83-1.271,1.43c-0.317,0.601-0.477,1.342-0.477,2.223c0,0.953,0.203,1.642,0.608,2.064
			c0.405,0.424,0.803,0.724,1.191,0.9c0.635,0.353,1.252,0.635,1.853,0.847c0.6,0.212,1.182,0.406,1.747,0.582
			c1.129,0.354,2.258,0.76,3.388,1.218c1.129,0.459,2.144,1.041,3.043,1.747c0.9,0.706,1.623,1.579,2.171,2.62
			c0.547,1.041,0.82,2.338,0.82,3.891c0,2.047-0.389,3.882-1.165,5.505s-1.835,2.99-3.176,4.103
			c-1.341,1.111-2.92,1.967-4.737,2.566s-3.768,0.9-5.849,0.9c-0.953,0-2.038-0.089-3.256-0.265c-1.218-0.177-2.374-0.45-3.467-0.82
			c-1.095-0.371-2.021-0.864-2.779-1.482c-0.759-0.617-1.138-1.35-1.138-2.196c0-0.459,0.105-0.908,0.317-1.351
			c0.212-0.44,0.503-0.828,0.873-1.164c0.371-0.335,0.794-0.608,1.271-0.82s0.979-0.317,1.509-0.317
			c0.388,0,0.794,0.062,1.218,0.185c0.423,0.124,0.881,0.274,1.376,0.45c0.6,0.212,1.314,0.441,2.144,0.688s1.809,0.37,2.938,0.37
			c2.047,0,3.591-0.458,4.632-1.376S311.484,82.798,311.484,81.139z"/>
		<path fill="#FF0000" d="M327.893,90.613c-0.389,0.777-0.962,1.386-1.72,1.826c-0.76,0.441-1.456,0.662-2.092,0.662
			c-0.952,0-1.756-0.274-2.408-0.82c-0.653-0.547-0.979-1.279-0.979-2.197c0-0.246,0.044-0.52,0.133-0.82
			c0.088-0.299,0.167-0.537,0.238-0.715l14.557-30.118c0.493-1.023,1.093-1.88,1.8-2.567c0.705-0.688,1.693-1.032,2.964-1.032
			s2.179,0.336,2.727,1.006c0.546,0.671,0.926,1.535,1.138,2.594l6.087,30.118v0.583c0,1.199-0.423,2.161-1.271,2.885
			c-0.847,0.723-1.853,1.085-3.017,1.085c-0.706,0-1.386-0.23-2.038-0.688c-0.653-0.458-1.067-1.059-1.244-1.8l-1.111-5.346h-11.222
			L327.893,90.613z M349.648,47.738c0,0.564-0.178,1.103-0.529,1.614c-0.354,0.512-0.794,0.952-1.323,1.323
			c-0.529,0.37-1.112,0.661-1.747,0.873c-0.636,0.212-1.218,0.317-1.747,0.317c-0.706,0-1.314-0.097-1.826-0.291
			c-0.512-0.193-0.979-0.423-1.402-0.688c-0.424-0.265-0.82-0.512-1.191-0.741c-0.37-0.229-0.75-0.361-1.138-0.397
			c-0.389-0.07-0.715-0.008-0.979,0.186c-0.265,0.194-0.529,0.424-0.794,0.688s-0.548,0.503-0.847,0.714
			c-0.301,0.212-0.662,0.318-1.085,0.318c-0.565,0-1.068-0.194-1.509-0.583c-0.441-0.388-0.645-0.917-0.609-1.588
			c0.07-0.6,0.273-1.164,0.609-1.693c0.335-0.529,0.749-0.979,1.244-1.35c0.493-0.371,1.032-0.662,1.614-0.874
			s1.173-0.317,1.773-0.317c0.74,0,1.376,0.105,1.905,0.317s0.996,0.45,1.402,0.715c0.405,0.265,0.785,0.512,1.139,0.741
			c0.352,0.229,0.74,0.344,1.164,0.344s0.768-0.097,1.032-0.291c0.265-0.193,0.511-0.414,0.741-0.661
			c0.229-0.247,0.484-0.468,0.768-0.662c0.282-0.193,0.635-0.291,1.059-0.291c0.6,0,1.129,0.212,1.588,0.635
			C349.418,46.521,349.648,47.068,349.648,47.738z M339.167,70.182c-0.141-0.776-0.211-1.632-0.211-2.567c0-0.935,0-1.808,0-2.62
			c-0.212,0.813-0.459,1.686-0.741,2.62c-0.283,0.936-0.601,1.791-0.953,2.567l-4.076,9.052h7.411L339.167,70.182z"/>
		<path fill="#FF0000" d="M366.481,93.102c-2.295,0-4.253-0.362-5.876-1.085c-1.623-0.724-2.92-1.712-3.891-2.965
			c-0.971-1.252-1.623-2.726-1.958-4.42c-0.336-1.693-0.362-3.511-0.08-5.452l1.43-10.48c0.282-1.87,0.794-3.644,1.535-5.319
			s1.747-3.149,3.017-4.42c1.271-1.271,2.832-2.276,4.685-3.018c1.854-0.741,4.015-1.111,6.484-1.111s4.526,0.37,6.167,1.111
			s2.92,1.747,3.838,3.018c0.917,1.271,1.517,2.744,1.8,4.42c0.281,1.676,0.281,3.449,0,5.319l-1.43,10.48
			c-0.282,1.941-0.829,3.759-1.641,5.452c-0.813,1.694-1.879,3.168-3.202,4.42c-1.323,1.253-2.895,2.241-4.712,2.965
			C370.83,92.739,368.774,93.102,366.481,93.102z M370.875,61.554c-2.329,0-4.059,0.653-5.188,1.958
			c-1.13,1.306-1.853,3.035-2.171,5.188l-1.429,10.48c-0.317,2.117-0.063,3.847,0.768,5.188c0.829,1.342,2.337,2.012,4.525,2.012
			c2.188,0,3.891-0.67,5.108-2.012c1.218-1.341,1.985-3.07,2.303-5.188l1.429-10.48c0.317-2.152,0.088-3.882-0.688-5.188
			C374.756,62.207,373.204,61.554,370.875,61.554z"/>
	</g>
	<g>
		<circle fill="#FF0000" cx="128.38" cy="73.538" r="55.226"/>
	</g>
	<g>
		<g>
			<path fill="#FFFFFF" d="M129.278,41.128c0.181,0.089,0.363,0.177,0.543,0.268c0.979,0.494,1.385,1.327,1.398,2.385
				c0.009,0.665,0.017,1.33-0.003,1.994c-0.011,0.345,0.087,0.508,0.455,0.591c5.43,1.227,9.105,4.472,11.025,9.688
				c0.586,1.591,0.789,3.26,0.787,4.955c-0.006,3.76,0.016,7.521-0.016,11.279c-0.008,0.824,0.209,1.518,0.744,2.107
				c1.186,1.308,2.381,2.606,3.59,3.891c2.178,2.313,4.373,4.61,6.55,6.923c0.255,0.27,0.458,0.59,0.669,0.897
				c1.074,1.563,0.893,2.791-0.571,4.022c-1.36,1.145-2.966,1.813-4.624,2.368c-3.502,1.171-7.125,1.729-10.785,2.115
				c-4.221,0.444-8.455,0.571-12.692,0.471c-5.737-0.135-11.446-0.571-17.013-2.096c-2.205-0.604-4.382-1.32-6.168-2.834
				c-0.432-0.365-0.779-0.855-1.081-1.341c-0.374-0.604-0.397-1.294-0.008-1.894c0.574-0.884,1.14-1.799,1.856-2.562
				c2.615-2.786,5.297-5.51,7.941-8.269c0.545-0.569,1.041-1.185,1.548-1.79c0.469-0.562,0.669-1.196,0.663-1.949
				c-0.026-3.76-0.055-7.521-0.002-11.279c0.088-6.382,3.031-10.988,8.787-13.748c0.906-0.435,1.912-0.686,2.895-0.926
				c0.474-0.116,0.6-0.301,0.576-0.746c-0.031-0.601-0.017-1.204-0.005-1.807c0.026-1.382,0.521-2.084,1.806-2.6
				c0.053-0.021,0.091-0.076,0.137-0.115C128.613,41.128,128.945,41.128,129.278,41.128z"/>
		</g>
		<g>
			<path fill="#FFFFFF" d="M128.754,97.828c1.226,0,2.451,0.023,3.676-0.013c0.425-0.012,0.636,0.142,0.814,0.497
				c0.977,1.937,0.115,4.688-1.875,5.86c-1.723,1.017-3.493,1.048-5.186-0.016c-1.623-1.021-2.362-2.563-2.257-4.491
				c0.007-0.124,0.015-0.25,0.04-0.37c0.268-1.288,0.502-1.476,1.797-1.455c0.581,0.01,1.162,0.017,1.744,0.021
				c0.415,0.003,0.831,0,1.246,0C128.754,97.852,128.754,97.84,128.754,97.828z"/>
		</g>
	</g>
	<g>
		<g>
			<path fill="#FF0000" d="M26.094,136.888c-1.674,0-3.327-0.761-4.407-2.204c-1.82-2.432-1.324-5.879,1.107-7.699l28.105-21.036
				c2.431-1.821,5.879-1.324,7.699,1.107s1.324,5.879-1.107,7.699l-28.105,21.036C28.397,136.531,27.24,136.888,26.094,136.888z"/>
		</g>
		<g>
			<path fill="#FF0000" d="M57.307,32.036c-1.146,0-2.303-0.356-3.292-1.097L25.908,9.904c-2.432-1.82-2.928-5.267-1.107-7.699
				s5.266-2.928,7.699-1.107l28.106,21.035c2.432,1.82,2.928,5.267,1.107,7.699C60.634,31.275,58.98,32.036,57.307,32.036z"/>
		</g>
		<g>
			<path fill="#FF0000" d="M43.5,76.571h-38c-3.037,0-5.5-2.463-5.5-5.5s2.463-5.5,5.5-5.5h38c3.037,0,5.5,2.463,5.5,5.5
				S46.537,76.571,43.5,76.571z"/>
		</g>
	</g>
	<g>
		<path fill="#FFFFFF" d="M251.68,99.813c0.478,0,0.908,0.042,1.293,0.125c0.384,0.083,0.846,0.239,1.386,0.467l0.748-5.326
			c0.083-0.54,0.332-0.992,0.748-1.355c0.415-0.363,0.965-0.545,1.65-0.545s1.194,0.187,1.526,0.561s0.457,0.82,0.374,1.34
			l-2.336,16.572c-0.042,0.229-0.021,0.416,0.062,0.561c0.083,0.146,0.208,0.322,0.374,0.529c0.208,0.229,0.312,0.51,0.312,0.842
			s-0.073,0.634-0.218,0.903c-0.146,0.27-0.327,0.493-0.545,0.67c-0.219,0.177-0.468,0.312-0.748,0.404
			c-0.28,0.094-0.545,0.141-0.794,0.141c-0.395,0-0.732-0.109-1.013-0.327s-0.514-0.503-0.701-0.856
			c-0.831,0.415-1.604,0.747-2.32,0.997c-0.717,0.249-1.47,0.373-2.259,0.373c-1.807,0-3.131-0.561-3.972-1.682
			c-0.841-1.122-1.137-2.596-0.888-4.424l0.498-3.521c0.125-0.935,0.343-1.791,0.654-2.569c0.312-0.779,0.737-1.459,1.277-2.041
			c0.54-0.581,1.21-1.032,2.009-1.354C249.598,99.974,250.559,99.813,251.68,99.813z M253.892,103.77
			c-0.478-0.146-0.903-0.25-1.277-0.312c-0.374-0.063-0.696-0.094-0.966-0.094c-0.769,0-1.339,0.239-1.713,0.717
			s-0.634,1.204-0.779,2.18l-0.498,3.521c-0.229,1.662,0.332,2.492,1.682,2.492c0.644,0,1.475-0.218,2.492-0.654
			c0-0.104,0-0.202,0-0.296s0.011-0.191,0.031-0.296L253.892,103.77z"/>
		<path fill="#FFFFFF" d="M265.947,115.887c-1.807,0-3.131-0.561-3.972-1.682c-0.841-1.122-1.137-2.596-0.888-4.424l0.498-3.521
			c0.125-0.935,0.379-1.801,0.764-2.601c0.384-0.8,0.893-1.495,1.526-2.087c0.633-0.592,1.386-1.054,2.258-1.387
			c0.873-0.332,1.869-0.498,2.991-0.498c2.263,0,3.811,0.55,4.642,1.65c0.83,1.102,1.101,2.7,0.81,4.798l-0.81,5.794
			c-0.021,0.229-0.016,0.405,0.016,0.529c0.031,0.125,0.088,0.219,0.171,0.28c0.083,0.063,0.182,0.104,0.296,0.125
			c0.114,0.021,0.233,0.063,0.358,0.125c0.374,0.146,0.561,0.457,0.561,0.935c0,0.561-0.182,1.012-0.545,1.354
			s-1.013,0.515-1.947,0.515c-0.581,0-1.064-0.094-1.448-0.28c-0.385-0.188-0.722-0.53-1.013-1.028
			c-0.644,0.478-1.298,0.831-1.962,1.059C267.588,115.772,266.819,115.887,265.947,115.887z M270.371,105.42
			c0.104-0.727-0.006-1.251-0.327-1.573c-0.322-0.321-0.878-0.482-1.667-0.482c-0.769,0-1.339,0.239-1.713,0.717
			s-0.634,1.204-0.779,2.18l-0.498,3.521c-0.229,1.662,0.332,2.492,1.682,2.492c0.644,0,1.475-0.218,2.492-0.654
			c0-0.104,0-0.202,0-0.296s0.011-0.191,0.031-0.296L270.371,105.42z"/>
		<path fill="#FFFFFF" d="M287.69,105.14c0-0.789,0.145-1.516,0.436-2.181c0.291-0.664,0.717-1.24,1.277-1.729
			s1.262-0.867,2.103-1.138c0.842-0.27,1.812-0.404,2.913-0.404c0.478,0,0.991,0.036,1.542,0.108c0.55,0.073,1.06,0.198,1.526,0.374
			c0.467,0.177,0.856,0.421,1.168,0.732s0.468,0.706,0.468,1.184c0,0.395-0.073,0.712-0.219,0.95
			c-0.146,0.239-0.327,0.426-0.545,0.561c-0.218,0.136-0.446,0.224-0.686,0.265c-0.238,0.042-0.451,0.063-0.639,0.063
			c-0.27,0-0.514-0.036-0.731-0.109c-0.218-0.072-0.437-0.145-0.654-0.218c-0.218-0.072-0.463-0.145-0.732-0.218
			c-0.27-0.072-0.592-0.109-0.966-0.109c-1.308,0-1.962,0.416-1.962,1.246c0,0.374,0.259,0.675,0.778,0.903
			c0.499,0.229,1.069,0.447,1.714,0.654c0.644,0.208,1.251,0.479,1.822,0.81c0.57,0.333,1.059,0.769,1.464,1.309
			s0.607,1.257,0.607,2.149c0,1.683-0.592,3.027-1.775,4.034c-1.184,1.008-2.866,1.511-5.047,1.511
			c-0.478,0-1.022-0.031-1.635-0.093c-0.613-0.063-1.189-0.182-1.729-0.358s-0.992-0.41-1.355-0.701s-0.545-0.664-0.545-1.121
			c0-0.478,0.213-0.93,0.639-1.355s0.971-0.639,1.636-0.639c0.249,0,0.498,0.036,0.747,0.109c0.25,0.073,0.509,0.15,0.779,0.233
			c0.27,0.083,0.561,0.161,0.872,0.233c0.312,0.073,0.654,0.109,1.028,0.109c0.602,0,1.101-0.114,1.495-0.343
			s0.592-0.581,0.592-1.06c0-0.228-0.052-0.404-0.155-0.529c-0.104-0.124-0.229-0.229-0.374-0.312
			c-0.437-0.27-0.987-0.503-1.651-0.701c-0.665-0.196-1.309-0.451-1.932-0.763s-1.157-0.732-1.604-1.262
			C287.913,106.807,287.69,106.074,287.69,105.14z"/>
		<path fill="#FFFFFF" d="M307.97,109.719c-0.416,0-0.805-0.016-1.168-0.047c-0.363-0.03-0.764-0.077-1.199-0.14l-0.156,1.028
			c-0.083,0.54,0.058,0.965,0.421,1.276s0.971,0.468,1.822,0.468c0.498,0,0.976-0.057,1.433-0.172
			c0.457-0.113,0.955-0.285,1.495-0.514c0.063-0.041,0.166-0.083,0.312-0.124c0.146-0.042,0.354-0.063,0.623-0.063
			c0.665,0,1.116,0.166,1.355,0.498c0.238,0.333,0.358,0.665,0.358,0.997c0,0.581-0.233,1.064-0.701,1.448
			c-0.467,0.385-1.038,0.69-1.713,0.919c-0.676,0.229-1.376,0.384-2.103,0.468c-0.728,0.082-1.351,0.124-1.869,0.124
			c-1.019,0-1.911-0.14-2.68-0.42s-1.392-0.665-1.869-1.153c-0.478-0.487-0.815-1.063-1.012-1.729
			c-0.198-0.664-0.245-1.381-0.141-2.149l0.717-5.202c0.104-0.789,0.348-1.521,0.731-2.196c0.385-0.675,0.888-1.262,1.511-1.76
			c0.623-0.499,1.371-0.889,2.243-1.169s1.849-0.42,2.929-0.42c1.848,0,3.219,0.415,4.111,1.246c0.894,0.831,1.34,1.931,1.34,3.302
			c0,1.683-0.535,3.017-1.604,4.003S310.357,109.719,307.97,109.719z M310.462,104.423c0-0.498-0.141-0.856-0.421-1.074
			s-0.69-0.327-1.23-0.327c-0.747,0-1.339,0.182-1.775,0.545c-0.437,0.364-0.706,0.856-0.81,1.479l-0.188,1.34
			c0.499,0.042,0.955,0.073,1.371,0.094c0.415,0.021,0.706,0.031,0.872,0.031c0.664,0,1.194-0.15,1.589-0.452
			C310.265,105.758,310.462,105.213,310.462,104.423z"/>
		<path fill="#FFFFFF" d="M334.76,105.326c0.083-0.539-0.005-1.001-0.265-1.386c-0.26-0.384-0.681-0.576-1.262-0.576
			c-0.415,0-0.841,0.094-1.277,0.28c-0.436,0.187-0.893,0.457-1.37,0.81c-0.021,0.146-0.031,0.28-0.031,0.405
			s-0.011,0.26-0.031,0.405l-1.215,8.691c-0.083,0.54-0.327,0.991-0.732,1.354c-0.404,0.363-0.971,0.545-1.697,0.545
			c-0.728,0-1.241-0.182-1.542-0.545c-0.302-0.363-0.41-0.814-0.327-1.354l1.121-8.068c0.104-0.727,0.094-1.329-0.031-1.807
			c-0.124-0.478-0.529-0.717-1.215-0.717c-0.395,0-0.831,0.078-1.309,0.233c-0.478,0.156-0.965,0.348-1.464,0.576
			c0,0.042,0,0.099,0,0.172c0,0.072-0.011,0.13-0.031,0.171l-1.308,9.439c-0.084,0.54-0.327,0.991-0.732,1.354
			s-0.971,0.545-1.698,0.545c-0.727,0-1.241-0.182-1.542-0.545s-0.41-0.814-0.327-1.354l1.309-9.439
			c0.083-0.519,0.104-0.841,0.063-0.966c-0.042-0.124-0.083-0.238-0.125-0.343c-0.146-0.228-0.244-0.42-0.296-0.576
			c-0.052-0.155-0.077-0.306-0.077-0.451c0-0.603,0.238-1.085,0.716-1.449c0.478-0.362,1.008-0.545,1.589-0.545
			c0.354,0,0.654,0.078,0.903,0.233c0.249,0.156,0.457,0.369,0.623,0.639c0.769-0.436,1.526-0.773,2.274-1.012
			c0.747-0.239,1.453-0.358,2.118-0.358c1.267,0,2.409,0.457,3.427,1.37c0.913-0.456,1.744-0.799,2.492-1.027
			c0.747-0.229,1.547-0.343,2.398-0.343c1.849,0,3.229,0.509,4.144,1.526c0.913,1.018,1.256,2.367,1.027,4.05l-0.935,6.572
			c-0.042,0.333-0.047,0.572-0.016,0.717c0.031,0.146,0.141,0.333,0.327,0.561c0.104,0.146,0.197,0.275,0.28,0.39
			s0.125,0.286,0.125,0.514c0,0.603-0.229,1.064-0.686,1.387c-0.457,0.321-1.09,0.482-1.9,0.482c-0.312,0-0.639-0.036-0.98-0.108
			c-0.343-0.073-0.645-0.239-0.904-0.499c-0.26-0.259-0.451-0.633-0.576-1.121c-0.124-0.488-0.124-1.137,0-1.947L334.76,105.326z"/>
		<path fill="#FFFFFF" d="M346.69,115.887c-1.807,0-3.131-0.561-3.972-1.682c-0.841-1.122-1.137-2.596-0.888-4.424l0.498-3.521
			c0.125-0.935,0.379-1.801,0.764-2.601c0.384-0.8,0.893-1.495,1.526-2.087c0.633-0.592,1.386-1.054,2.258-1.387
			c0.873-0.332,1.869-0.498,2.991-0.498c2.263,0,3.811,0.55,4.642,1.65c0.83,1.102,1.101,2.7,0.81,4.798l-0.81,5.794
			c-0.021,0.229-0.016,0.405,0.016,0.529c0.031,0.125,0.088,0.219,0.171,0.28c0.083,0.063,0.182,0.104,0.296,0.125
			c0.114,0.021,0.233,0.063,0.358,0.125c0.374,0.146,0.561,0.457,0.561,0.935c0,0.561-0.182,1.012-0.545,1.354
			s-1.013,0.515-1.947,0.515c-0.581,0-1.064-0.094-1.448-0.28c-0.385-0.188-0.722-0.53-1.013-1.028
			c-0.644,0.478-1.298,0.831-1.962,1.059C348.331,115.772,347.563,115.887,346.69,115.887z M351.114,105.42
			c0.104-0.727-0.006-1.251-0.327-1.573c-0.322-0.321-0.878-0.482-1.667-0.482c-0.769,0-1.339,0.239-1.713,0.717
			s-0.634,1.204-0.779,2.18l-0.498,3.521c-0.229,1.662,0.332,2.492,1.682,2.492c0.644,0,1.475-0.218,2.492-0.654
			c0-0.104,0-0.202,0-0.296s0.011-0.191,0.031-0.296L351.114,105.42z"/>
		<path fill="#FFFFFF" d="M368.341,105.825c0.104-0.789,0.01-1.407-0.28-1.854c-0.291-0.446-0.748-0.67-1.371-0.67
			s-1.454,0.218-2.492,0.654c0,0.104,0,0.202,0,0.296s-0.011,0.192-0.031,0.296l-1.308,9.408c-0.084,0.54-0.327,0.991-0.732,1.354
			s-0.971,0.545-1.698,0.545c-0.727,0-1.241-0.182-1.542-0.545s-0.41-0.814-0.327-1.354l1.309-9.439
			c0.083-0.519,0.104-0.841,0.063-0.966c-0.042-0.124-0.083-0.238-0.125-0.343c-0.146-0.228-0.244-0.415-0.296-0.561
			c-0.052-0.145-0.077-0.301-0.077-0.467c0-0.562,0.233-1.033,0.7-1.418c0.468-0.384,1.023-0.576,1.667-0.576
			c0.623,0,1.132,0.302,1.526,0.903c0.769-0.478,1.521-0.82,2.259-1.027c0.736-0.208,1.417-0.312,2.04-0.312
			c1.973,0,3.369,0.556,4.19,1.666c0.819,1.111,1.095,2.581,0.825,4.408l-0.841,6.012c-0.042,0.333-0.047,0.572-0.016,0.717
			c0.031,0.146,0.14,0.333,0.327,0.561c0.104,0.146,0.196,0.275,0.28,0.39c0.082,0.114,0.124,0.286,0.124,0.514
			c0,0.603-0.229,1.064-0.686,1.387c-0.457,0.321-1.09,0.482-1.899,0.482c-0.312,0-0.639-0.036-0.981-0.108
			c-0.343-0.073-0.645-0.239-0.903-0.499c-0.26-0.259-0.452-0.633-0.576-1.121c-0.125-0.488-0.125-1.137,0-1.947L368.341,105.825z"
			/>
		<path fill="#FFFFFF" d="M380.396,115.887c-1.807,0-3.131-0.561-3.972-1.682c-0.841-1.122-1.137-2.596-0.888-4.424l0.498-3.521
			c0.125-0.935,0.379-1.801,0.764-2.601c0.384-0.8,0.893-1.495,1.526-2.087c0.633-0.592,1.386-1.054,2.258-1.387
			c0.873-0.332,1.869-0.498,2.991-0.498c2.263,0,3.811,0.55,4.642,1.65c0.83,1.102,1.101,2.7,0.81,4.798l-0.81,5.794
			c-0.021,0.229-0.016,0.405,0.016,0.529c0.031,0.125,0.088,0.219,0.171,0.28c0.083,0.063,0.182,0.104,0.296,0.125
			c0.114,0.021,0.233,0.063,0.358,0.125c0.374,0.146,0.561,0.457,0.561,0.935c0,0.561-0.182,1.012-0.545,1.354
			s-1.013,0.515-1.947,0.515c-0.581,0-1.064-0.094-1.448-0.28c-0.385-0.188-0.722-0.53-1.013-1.028
			c-0.644,0.478-1.298,0.831-1.962,1.059C382.036,115.772,381.268,115.887,380.396,115.887z M384.819,105.42
			c0.104-0.727-0.006-1.251-0.327-1.573c-0.322-0.321-0.878-0.482-1.667-0.482c-0.769,0-1.339,0.239-1.713,0.717
			s-0.634,1.204-0.779,2.18l-0.498,3.521c-0.229,1.662,0.332,2.492,1.682,2.492c0.644,0,1.475-0.218,2.492-0.654
			c0-0.104,0-0.202,0-0.296s0.011-0.191,0.031-0.296L384.819,105.42z"/>
	</g>
</g>
</svg>
