<?xml version="1.0" encoding="utf-8"?>
<!-- Generator: Adobe Illustrator 16.0.0, SVG Export Plug-In . SVG Version: 6.00 Build 0)  -->
<!DOCTYPE svg PUBLIC "-//W3C//DTD SVG 1.1//EN" "http://www.w3.org/Graphics/SVG/1.1/DTD/svg11.dtd">
<svg version="1.1" id="Layer_1" xmlns="http://www.w3.org/2000/svg" xmlns:xlink="http://www.w3.org/1999/xlink" x="0px" y="0px"
	 width="655.871px" height="136.887px" viewBox="0 0 655.871 136.887" enable-background="new 0 0 655.871 136.887"
	 xml:space="preserve">
<g>
	<g>
		<path fill="#E20613" d="M294.332,126.107c-0.145,1.054-0.429,2.077-0.852,3.069c-0.424,0.992-1.023,1.866-1.799,2.62
			c-0.774,0.755-1.736,1.359-2.883,1.813c-1.146,0.455-2.516,0.682-4.107,0.682h-3.503c-0.413,0-0.744-0.145-0.992-0.434
			c-0.247-0.289-0.341-0.64-0.278-1.054l2.635-18.91c0.062-0.413,0.258-0.764,0.589-1.054c0.33-0.289,0.702-0.434,1.116-0.434h3.503
			c1.591,0,2.894,0.217,3.905,0.651c1.013,0.434,1.803,1.013,2.372,1.736c0.567,0.724,0.93,1.565,1.085,2.526
			c0.154,0.961,0.16,1.958,0.016,2.992L294.332,126.107z M292.658,120.31c0.104-0.764,0.109-1.483,0.016-2.155
			c-0.093-0.671-0.325-1.255-0.697-1.751c-0.372-0.496-0.884-0.883-1.535-1.162c-0.65-0.279-1.482-0.418-2.495-0.418h-3.038
			l-2.387,17.05h3.038c1.033,0,1.917-0.15,2.65-0.45c0.733-0.299,1.354-0.713,1.86-1.24c0.506-0.527,0.903-1.136,1.193-1.829
			c0.289-0.692,0.485-1.441,0.589-2.248L292.658,120.31z"/>
		<path fill="#E20613" d="M308.221,132.896c0,0.372-0.15,0.698-0.45,0.977s-0.636,0.418-1.007,0.418h-8.216
			c-0.517,0-0.956-0.103-1.317-0.31c-0.361-0.206-0.502-0.589-0.418-1.147l2.666-18.941c0.041-0.351,0.227-0.682,0.558-0.992
			c0.33-0.31,0.702-0.465,1.116-0.465h8.4c0.311,0,0.563,0.108,0.76,0.326c0.196,0.217,0.295,0.47,0.295,0.759
			c0,0.393-0.145,0.713-0.435,0.961s-0.61,0.372-0.961,0.372h-7.378l-1.023,7.254h6.789c0.289,0,0.537,0.104,0.744,0.31
			c0.207,0.207,0.311,0.465,0.311,0.775c0,0.372-0.14,0.688-0.419,0.946c-0.278,0.258-0.604,0.387-0.977,0.387h-6.788l-1.055,7.347
			h7.688c0.311,0,0.574,0.098,0.791,0.294C308.111,132.364,308.221,132.607,308.221,132.896z"/>
		<path fill="#E20613" d="M321.736,120.031c0.164-1.199,0.459-2.284,0.883-3.255c0.424-0.971,0.966-1.803,1.627-2.496
			c0.662-0.692,1.457-1.224,2.388-1.596c0.93-0.372,1.994-0.558,3.192-0.558c0.683,0,1.328,0.067,1.938,0.202
			c0.609,0.135,1.152,0.315,1.628,0.542c0.475,0.228,0.854,0.496,1.131,0.806c0.279,0.31,0.42,0.641,0.42,0.992
			c0,0.331-0.125,0.615-0.373,0.853c-0.248,0.238-0.547,0.356-0.898,0.356c-0.229,0-0.403-0.046-0.527-0.14
			c-0.124-0.093-0.3-0.222-0.527-0.387c-0.413-0.31-0.862-0.547-1.349-0.713c-0.485-0.166-1.027-0.248-1.627-0.248
			c-0.868,0-1.617,0.129-2.248,0.387c-0.63,0.259-1.162,0.636-1.596,1.132c-0.434,0.496-0.775,1.09-1.023,1.782
			c-0.248,0.693-0.434,1.473-0.558,2.341l-0.931,6.634c-0.123,0.868-0.16,1.648-0.107,2.34c0.051,0.693,0.227,1.287,0.526,1.783
			s0.729,0.873,1.286,1.131c0.559,0.259,1.271,0.388,2.14,0.388c0.599,0,1.162-0.083,1.689-0.248
			c0.526-0.165,1.048-0.403,1.565-0.713c0.289-0.166,0.501-0.294,0.635-0.388c0.135-0.093,0.315-0.14,0.543-0.14
			c0.289,0,0.521,0.093,0.697,0.279s0.265,0.414,0.265,0.682c0,0.372-0.171,0.729-0.513,1.07c-0.34,0.341-0.785,0.641-1.332,0.899
			c-0.549,0.259-1.174,0.46-1.876,0.604s-1.416,0.217-2.14,0.217c-1.198,0-2.205-0.186-3.021-0.558
			c-0.816-0.372-1.469-0.904-1.953-1.597c-0.486-0.692-0.796-1.524-0.93-2.496c-0.135-0.971-0.119-2.056,0.046-3.255
			L321.736,120.031z"/>
		<path fill="#E20613" d="M341.421,134.601c-1.178,0-2.186-0.207-3.022-0.62s-1.504-0.977-2-1.689s-0.821-1.555-0.977-2.526
			c-0.154-0.971-0.16-2.004-0.015-3.1l0.93-6.634c0.165-1.075,0.444-2.093,0.837-3.054s0.925-1.798,1.597-2.511
			c0.671-0.713,1.487-1.281,2.449-1.705c0.961-0.423,2.081-0.636,3.363-0.636c1.281,0,2.345,0.212,3.192,0.636
			c0.848,0.424,1.504,0.992,1.969,1.705c0.465,0.713,0.765,1.55,0.899,2.511c0.134,0.961,0.118,1.979-0.047,3.054l-0.93,6.634
			c-0.146,1.096-0.435,2.129-0.868,3.1c-0.434,0.972-1.003,1.813-1.705,2.526c-0.703,0.713-1.529,1.276-2.48,1.689
			C343.663,134.394,342.599,134.601,341.421,134.601z M344.242,114.544c-1.695,0-2.966,0.501-3.813,1.503
			c-0.848,1.003-1.385,2.331-1.612,3.984l-0.93,6.634c-0.228,1.633-0.036,2.96,0.573,3.983s1.71,1.535,3.302,1.535
			c1.591,0,2.837-0.512,3.735-1.535c0.899-1.023,1.462-2.351,1.689-3.983l0.931-6.634c0.124-0.827,0.149-1.576,0.077-2.248
			c-0.072-0.671-0.259-1.25-0.558-1.736c-0.3-0.485-0.729-0.857-1.287-1.116C345.792,114.673,345.089,114.544,344.242,114.544z"/>
		<path fill="#E20613" d="M364.887,134.601c-0.248,0-0.476-0.062-0.682-0.186c-0.207-0.124-0.362-0.299-0.465-0.527l-6.635-16.523
			l-2.231,15.965c-0.042,0.352-0.207,0.651-0.496,0.899c-0.29,0.248-0.61,0.372-0.961,0.372c-0.352,0-0.62-0.124-0.807-0.372
			c-0.186-0.248-0.258-0.547-0.217-0.899l2.79-19.84c0.041-0.393,0.207-0.718,0.496-0.977s0.63-0.388,1.023-0.388
			c0.268,0,0.511,0.067,0.729,0.202c0.217,0.135,0.377,0.315,0.48,0.542l6.603,16.492l2.232-15.965
			c0.041-0.351,0.206-0.651,0.496-0.899c0.289-0.248,0.609-0.372,0.961-0.372c0.351,0,0.62,0.124,0.806,0.372
			c0.187,0.248,0.258,0.548,0.217,0.899l-2.759,19.84c-0.062,0.372-0.237,0.693-0.527,0.961
			C365.651,134.466,365.3,134.601,364.887,134.601z"/>
		<path fill="#E20613" d="M377.442,114.854h-4.216c-0.331,0-0.595-0.108-0.791-0.326c-0.196-0.217-0.294-0.47-0.294-0.759
			c0-0.289,0.145-0.583,0.434-0.883s0.62-0.45,0.992-0.45h10.912c0.289,0,0.547,0.104,0.775,0.31
			c0.227,0.207,0.341,0.465,0.341,0.775c0,0.352-0.15,0.662-0.45,0.93s-0.635,0.403-1.007,0.403h-4.216l-2.604,18.507
			c-0.042,0.331-0.201,0.62-0.48,0.868s-0.595,0.372-0.945,0.372c-0.352,0-0.626-0.124-0.821-0.372
			c-0.197-0.248-0.274-0.537-0.232-0.868L377.442,114.854z"/>
		<path fill="#E20613" d="M384.509,133.671c-0.124,0.29-0.315,0.517-0.573,0.682c-0.259,0.165-0.501,0.248-0.729,0.248
			c-0.331,0-0.604-0.098-0.821-0.294s-0.325-0.46-0.325-0.791c0-0.103,0.015-0.222,0.046-0.356s0.067-0.222,0.108-0.264
			l8.711-19.127c0.228-0.475,0.48-0.868,0.76-1.178c0.279-0.31,0.646-0.465,1.101-0.465c0.476,0,0.801,0.155,0.977,0.465
			c0.175,0.31,0.314,0.703,0.418,1.178l3.349,19.127c0,0.021,0.005,0.057,0.016,0.108c0.01,0.052,0.016,0.099,0.016,0.14
			c0,0.455-0.146,0.812-0.435,1.069c-0.289,0.258-0.641,0.388-1.054,0.388c-0.228,0-0.455-0.083-0.683-0.248
			s-0.361-0.393-0.402-0.682l-0.713-4.309h-7.844L384.509,133.671z M387.517,126.944h6.386l-1.736-10.509L387.517,126.944z"/>
	</g>
	<g>
		<g>
			<path fill="#11374F" d="M87.51,71.321c-0.49,3.489-0.15,6.27,1.022,8.34c1.171,2.072,3.583,3.107,7.236,3.107
				c1.309,0,2.521-0.177,3.639-0.532c1.116-0.354,2.221-0.831,3.312-1.431l0.981-0.49c0.599-0.272,1.131-0.544,1.595-0.818
				c0.463-0.272,1.157-0.409,2.085-0.409c1.417,0,2.562,0.437,3.435,1.308c0.871,0.873,1.308,1.909,1.308,3.107
				c0,1.254-0.519,2.44-1.554,3.557c-1.036,1.118-2.412,2.099-4.129,2.944c-1.717,0.846-3.667,1.513-5.847,2.003
				c-2.181,0.49-4.415,0.736-6.704,0.736c-3.599,0-6.624-0.505-9.077-1.513c-2.452-1.008-4.402-2.453-5.847-4.334
				c-1.444-1.88-2.398-4.142-2.861-6.787c-0.464-2.644-0.479-5.573-0.041-8.79l2.289-16.19c0.436-3.216,1.254-6.146,2.453-8.79
				c1.199-2.644,2.793-4.906,4.783-6.787c1.99-1.881,4.361-3.325,7.114-4.334c2.753-1.008,5.929-1.513,9.526-1.513
				c2.07,0,4.061,0.219,5.969,0.654c1.908,0.437,3.584,1.036,5.029,1.799c1.443,0.764,2.588,1.635,3.434,2.617
				c0.845,0.981,1.268,2.044,1.268,3.189c0,1.418-0.601,2.671-1.799,3.761c-1.199,1.091-2.645,1.635-4.334,1.635
				c-0.928,0-1.594-0.123-2.003-0.368c-0.409-0.246-0.858-0.532-1.349-0.859l-0.736-0.491c-0.928-0.599-1.909-1.076-2.943-1.431
				c-1.037-0.354-2.209-0.532-3.517-0.532c-3.708,0-6.419,1.022-8.136,3.066c-1.717,2.044-2.821,4.838-3.312,8.381L87.51,71.321z"/>
			<path fill="#11374F" d="M137.633,92.826c-3.544,0-6.569-0.56-9.076-1.676c-2.508-1.117-4.512-2.643-6.01-4.579
				c-1.5-1.934-2.508-4.211-3.025-6.828c-0.52-2.616-0.561-5.423-0.123-8.422l2.208-16.19c0.436-2.889,1.227-5.628,2.371-8.218
				c1.146-2.588,2.698-4.865,4.661-6.828c1.962-1.962,4.374-3.516,7.236-4.661c2.861-1.145,6.2-1.717,10.016-1.717
				c3.816,0,6.992,0.572,9.527,1.717c2.534,1.145,4.51,2.698,5.928,4.661c1.416,1.962,2.343,4.239,2.779,6.828
				c0.436,2.59,0.436,5.329,0,8.218l-2.207,16.19c-0.438,2.999-1.281,5.806-2.535,8.422c-1.254,2.617-2.902,4.894-4.947,6.828
				c-2.043,1.936-4.47,3.462-7.277,4.579S141.176,92.826,137.633,92.826z M144.42,44.092c-3.598,0-6.27,1.009-8.014,3.025
				c-1.745,2.017-2.861,4.689-3.353,8.013l-2.208,16.19c-0.49,3.271-0.096,5.942,1.186,8.013c1.281,2.072,3.611,3.107,6.992,3.107
				c3.379,0,6.01-1.035,7.891-3.107c1.88-2.071,3.066-4.743,3.557-8.013l2.207-16.19c0.49-3.324,0.136-5.996-1.063-8.013
				C150.416,45.102,148.018,44.092,144.42,44.092z"/>
			<path fill="#11374F" d="M203.618,92.826c-1.091,0-2.099-0.259-3.025-0.777c-0.928-0.517-1.608-1.212-2.044-2.085L184.157,56.93
				l-4.252,30.581c-0.218,1.418-0.968,2.658-2.249,3.721s-2.712,1.594-4.293,1.594s-2.849-0.531-3.802-1.594
				c-0.954-1.063-1.322-2.302-1.104-3.721l6.786-48.243c0.218-1.581,0.953-2.903,2.208-3.966c1.253-1.063,2.752-1.595,4.497-1.595
				c1.09,0,2.112,0.273,3.066,0.818c0.953,0.545,1.648,1.281,2.086,2.208c1.416,3.162,2.684,6.051,3.802,8.667
				c1.116,2.617,2.22,5.192,3.312,7.727c1.09,2.535,2.207,5.151,3.353,7.85c1.145,2.698,2.425,5.683,3.843,8.954l4.334-30.908
				c0.217-1.417,0.967-2.657,2.248-3.72s2.711-1.595,4.293-1.595c1.58,0,2.848,0.532,3.803,1.595c0.953,1.063,1.32,2.303,1.104,3.72
				l-6.787,48.243c-0.219,1.527-0.954,2.835-2.207,3.925C206.942,92.28,205.417,92.826,203.618,92.826z"/>
			<path fill="#11374F" d="M232.236,87.593c-0.218,1.418-0.953,2.645-2.207,3.679c-1.255,1.035-2.672,1.554-4.252,1.554
				c-1.582,0-2.861-0.519-3.844-1.554c-0.98-1.035-1.363-2.261-1.145-3.679l6.623-47.425c0.218-1.417,1.008-2.739,2.371-3.966
				s2.944-1.84,4.743-1.84h22.159c1.417,0,2.617,0.478,3.598,1.431c0.981,0.955,1.472,2.059,1.472,3.312
				c0,1.635-0.668,2.984-2.003,4.047c-1.336,1.063-2.85,1.594-4.538,1.594h-17.008l-1.799,13.247h15.454
				c1.309,0,2.453,0.437,3.434,1.308c0.982,0.873,1.473,1.991,1.473,3.353c0,1.582-0.627,2.931-1.881,4.048
				c-1.255,1.118-2.754,1.676-4.498,1.676h-15.453L232.236,87.593z"/>
			<path fill="#11374F" d="M269.604,38.941c0.218-1.417,0.953-2.644,2.208-3.68c1.253-1.035,2.671-1.554,4.252-1.554
				s2.862,0.519,3.843,1.554c0.981,1.036,1.362,2.263,1.145,3.68l-6.786,48.652c-0.218,1.418-0.954,2.645-2.208,3.679
				c-1.254,1.035-2.672,1.554-4.252,1.554c-1.582,0-2.861-0.519-3.843-1.554c-0.981-1.035-1.363-2.261-1.145-3.679L269.604,38.941z"
				/>
			<path fill="#11374F" d="M296.016,71.321c-0.491,3.489-0.151,6.27,1.021,8.34c1.172,2.072,3.584,3.107,7.236,3.107
				c1.417,0,2.685-0.164,3.803-0.491c1.116-0.327,2.166-0.736,3.147-1.227l1.799-12.756h-4.251c-1.256,0-2.305-0.45-3.148-1.349
				c-0.846-0.899-1.268-1.975-1.268-3.23c0-1.58,0.613-2.93,1.84-4.047c1.227-1.117,2.576-1.676,4.047-1.676h8.913
				c1.907,0,3.435,0.464,4.579,1.39c1.145,0.927,1.58,2.371,1.309,4.333l-2.535,18.071c-0.273,1.909-1.077,3.557-2.412,4.947
				c-1.336,1.39-2.958,2.535-4.865,3.435c-1.908,0.899-3.994,1.553-6.256,1.962c-2.262,0.409-4.455,0.613-6.582,0.613
				c-3.598,0-6.623-0.505-9.076-1.513c-2.453-1.008-4.402-2.453-5.846-4.334c-1.445-1.88-2.4-4.142-2.862-6.787
				c-0.464-2.644-0.478-5.573-0.041-8.79l2.29-16.19c0.436-3.216,1.253-6.146,2.453-8.79c1.197-2.644,2.793-4.906,4.783-6.787
				c1.988-1.881,4.36-3.325,7.113-4.334c2.752-1.008,5.928-1.513,9.526-1.513c2.071,0,4.06,0.219,5.969,0.654
				c1.907,0.437,3.584,1.036,5.028,1.799c1.444,0.764,2.589,1.635,3.435,2.617c0.845,0.981,1.268,2.044,1.268,3.189
				c0,1.418-0.601,2.671-1.799,3.761c-1.2,1.091-2.645,1.635-4.334,1.635c-0.927,0-1.581-0.135-1.962-0.409
				c-0.383-0.272-0.818-0.544-1.309-0.818l-0.818-0.491c-0.927-0.599-1.908-1.076-2.943-1.431c-1.035-0.354-2.207-0.532-3.516-0.532
				c-3.707,0-6.419,1.022-8.136,3.066c-1.718,2.044-2.821,4.838-3.312,8.381L296.016,71.321z"/>
			<path fill="#11374F" d="M372.958,72.465c-0.383,2.944-1.213,5.656-2.494,8.136c-1.281,2.481-2.93,4.634-4.947,6.459
				c-2.018,1.827-4.373,3.244-7.072,4.252c-2.699,1.008-5.656,1.513-8.871,1.513c-3.271,0-6.121-0.519-8.545-1.554
				c-2.428-1.035-4.375-2.453-5.848-4.252c-1.471-1.799-2.48-3.938-3.024-6.418c-0.546-2.48-0.627-5.192-0.246-8.136l4.661-33.361
				c0.271-1.581,1.035-2.875,2.289-3.884c1.254-1.008,2.699-1.513,4.334-1.513c1.525,0,2.766,0.532,3.721,1.595
				c0.953,1.063,1.32,2.33,1.104,3.802l-4.66,33.361c-0.438,2.944-0.041,5.343,1.186,7.196c1.227,1.854,3.393,2.78,6.5,2.78
				s5.506-0.926,7.195-2.78c1.689-1.853,2.752-4.252,3.189-7.196l4.66-33.361c0.219-1.417,0.953-2.67,2.209-3.762
				c1.252-1.089,2.67-1.635,4.252-1.635c1.688,0,3.012,0.546,3.965,1.635c0.953,1.091,1.322,2.345,1.104,3.762L372.958,72.465z"/>
			<path fill="#11374F" d="M426.435,49.407c0,4.688-1.24,8.544-3.72,11.57c-2.481,3.025-5.847,5.192-10.099,6.5l8.831,16.844
				c0.544,1.036,0.694,2.059,0.449,3.066c-0.245,1.009-0.695,1.909-1.349,2.698c-0.654,0.791-1.459,1.431-2.412,1.922
				c-0.955,0.49-1.896,0.736-2.821,0.736c-2.126,0-3.626-0.845-4.497-2.535l-10.712-21.505h-5.561l-2.616,18.725
				c-0.219,1.418-0.969,2.671-2.249,3.761c-1.281,1.09-2.712,1.635-4.292,1.635c-1.527,0-2.78-0.531-3.762-1.594
				s-1.363-2.331-1.145-3.802l6.623-47.098c0.217-1.581,1.022-2.957,2.412-4.129c1.39-1.172,2.93-1.758,4.62-1.758h14.228
				c3.379,0,6.227,0.423,8.545,1.268c2.316,0.846,4.183,1.962,5.601,3.353c1.417,1.39,2.425,2.984,3.025,4.783
				C426.135,45.646,426.435,47.5,426.435,49.407z M414.824,50.715c0-0.763-0.123-1.484-0.368-2.167
				c-0.245-0.681-0.683-1.308-1.309-1.88c-0.627-0.572-1.472-1.022-2.535-1.349c-1.063-0.327-2.412-0.491-4.047-0.491h-8.668
				l-1.88,13.573h9.157c3.107,0,5.491-0.667,7.155-2.003C413.992,55.063,414.824,53.168,414.824,50.715z"/>
			<path fill="#11374F" d="M439.107,88.983c-0.601,1.199-1.485,2.14-2.657,2.821c-1.173,0.681-2.248,1.022-3.229,1.022
				c-1.472,0-2.713-0.423-3.721-1.267c-1.009-0.845-1.513-1.976-1.513-3.394c0-0.381,0.067-0.804,0.204-1.268
				c0.136-0.462,0.259-0.831,0.368-1.104l22.486-46.526c0.763-1.581,1.689-2.903,2.78-3.966c1.09-1.063,2.616-1.595,4.579-1.595
				c1.962,0,3.365,0.519,4.211,1.554c0.845,1.036,1.431,2.371,1.758,4.007l9.403,46.526v0.899c0,1.854-0.654,3.339-1.963,4.456
				c-1.308,1.117-2.861,1.676-4.66,1.676c-1.091,0-2.141-0.355-3.148-1.063c-1.009-0.708-1.649-1.635-1.921-2.78l-1.718-8.259
				h-17.335L439.107,88.983z M456.524,57.42c-0.219-1.199-0.327-2.521-0.327-3.966c0-1.444,0-2.793,0-4.047
				c-0.327,1.254-0.709,2.604-1.145,4.047c-0.438,1.445-0.928,2.767-1.472,3.966l-6.297,13.982h11.448L456.524,57.42z"/>
			<path fill="#11374F" d="M507.383,100.757c0,1.308-0.26,2.507-0.776,3.598c-0.52,1.09-1.255,2.03-2.208,2.821
				c-0.954,0.79-2.072,1.417-3.353,1.881c-1.281,0.462-2.686,0.695-4.211,0.695c-1.091,0-2.181-0.096-3.271-0.286
				c-1.092-0.191-2.072-0.463-2.944-0.817c-0.872-0.355-1.581-0.818-2.126-1.39s-0.817-1.241-0.817-2.003
				c0-0.817,0.299-1.472,0.899-1.962c0.6-0.491,1.335-0.736,2.208-0.736c0.763,0,1.662,0.123,2.698,0.368
				c1.035,0.245,2.098,0.368,3.188,0.368c2.726,0,4.089-0.654,4.089-1.962c0-0.601-0.327-1.036-0.981-1.308
				c-0.654-0.273-1.771-0.546-3.353-0.818c-0.601-0.11-1.132-0.218-1.595-0.327c-0.463-0.11-0.831-0.273-1.104-0.491
				c-0.273-0.218-0.449-0.56-0.531-1.022c-0.082-0.464-0.041-1.132,0.122-2.003l0.899-2.862c-5.778-0.708-9.771-2.956-11.979-6.746
				c-2.208-3.788-2.902-8.599-2.085-14.432l2.289-16.19c0.436-3.216,1.254-6.146,2.453-8.79c1.198-2.644,2.793-4.906,4.783-6.787
				c1.989-1.881,4.361-3.325,7.114-4.334c2.752-1.008,5.928-1.513,9.526-1.513c2.07,0,4.047,0.219,5.928,0.654
				c1.881,0.437,3.543,1.036,4.988,1.799c1.443,0.764,2.602,1.635,3.475,2.617c0.871,0.981,1.309,2.044,1.309,3.189
				c0,1.418-0.601,2.671-1.799,3.761c-1.2,1.091-2.645,1.635-4.334,1.635c-0.928,0-1.595-0.123-2.003-0.368
				c-0.409-0.246-0.859-0.532-1.35-0.859l-0.736-0.491c-0.927-0.599-1.908-1.076-2.943-1.431c-1.036-0.354-2.208-0.532-3.516-0.532
				c-3.708,0-6.419,1.022-8.136,3.066c-1.718,2.044-2.821,4.838-3.312,8.381l-2.29,16.19c-0.49,3.489-0.163,6.27,0.981,8.34
				c1.145,2.072,3.543,3.107,7.195,3.107c1.309,0,2.535-0.177,3.68-0.532c1.145-0.354,2.262-0.831,3.353-1.431l0.981-0.49
				c0.599-0.272,1.13-0.544,1.594-0.818c0.463-0.272,1.158-0.409,2.086-0.409c1.416,0,2.562,0.437,3.434,1.308
				c0.871,0.873,1.309,1.909,1.309,3.107c0,1.145-0.438,2.222-1.309,3.229c-0.872,1.009-2.018,1.922-3.434,2.739
				c-1.419,0.818-3.066,1.5-4.947,2.044c-1.881,0.545-3.83,0.899-5.847,1.063l-0.572,2.208c2.616,0.217,4.483,0.872,5.602,1.962
				C506.823,97.84,507.383,99.175,507.383,100.757z"/>
			<path fill="#11374F" d="M542.052,92.826c-3.544,0-6.569-0.56-9.076-1.676c-2.508-1.117-4.512-2.643-6.01-4.579
				c-1.5-1.934-2.508-4.211-3.025-6.828c-0.519-2.616-0.56-5.423-0.123-8.422l2.208-16.19c0.436-2.889,1.227-5.628,2.371-8.218
				c1.145-2.588,2.698-4.865,4.661-6.828c1.962-1.962,4.374-3.516,7.236-4.661c2.861-1.145,6.2-1.717,10.017-1.717
				c3.814,0,6.991,0.572,9.525,1.717c2.535,1.145,4.511,2.698,5.929,4.661c1.417,1.962,2.343,4.239,2.78,6.828
				c0.436,2.59,0.436,5.329,0,8.218l-2.208,16.19c-0.438,2.999-1.281,5.806-2.535,8.422c-1.255,2.617-2.902,4.894-4.946,6.828
				c-2.045,1.936-4.471,3.462-7.277,4.579C548.77,92.266,545.595,92.826,542.052,92.826z M548.839,44.092
				c-3.599,0-6.27,1.009-8.014,3.025c-1.745,2.017-2.862,4.689-3.353,8.013l-2.208,16.19c-0.49,3.271-0.096,5.942,1.186,8.013
				c1.28,2.072,3.611,3.107,6.991,3.107s6.011-1.035,7.891-3.107c1.881-2.071,3.066-4.743,3.558-8.013l2.207-16.19
				c0.491-3.324,0.136-5.996-1.063-8.013C554.834,45.102,552.437,44.092,548.839,44.092z M564.62,22.751
				c0,0.873-0.273,1.704-0.818,2.494c-0.545,0.791-1.227,1.472-2.044,2.044c-0.817,0.572-1.717,1.022-2.698,1.349
				s-1.881,0.49-2.698,0.49c-1.091,0-2.031-0.149-2.821-0.45c-0.791-0.299-1.513-0.654-2.167-1.063
				c-0.654-0.409-1.268-0.79-1.84-1.145c-0.572-0.354-1.158-0.558-1.758-0.613c-0.601-0.108-1.104-0.013-1.513,0.286
				c-0.409,0.3-0.817,0.654-1.227,1.063s-0.846,0.777-1.309,1.104s-1.021,0.491-1.676,0.491c-0.873,0-1.649-0.299-2.33-0.899
				c-0.683-0.6-0.995-1.417-0.94-2.453c0.108-0.926,0.422-1.799,0.94-2.617c0.518-0.818,1.157-1.513,1.921-2.085
				c0.763-0.572,1.595-1.022,2.494-1.349s1.812-0.491,2.739-0.491c1.145,0,2.126,0.164,2.943,0.491
				c0.818,0.327,1.54,0.695,2.167,1.104c0.626,0.409,1.213,0.791,1.758,1.145c0.545,0.355,1.146,0.531,1.799,0.531
				c0.654,0,1.187-0.149,1.595-0.45c0.409-0.299,0.79-0.64,1.145-1.022c0.354-0.381,0.749-0.722,1.187-1.022
				c0.436-0.299,0.98-0.45,1.635-0.45c0.927,0,1.744,0.327,2.453,0.981C564.265,20.87,564.62,21.716,564.62,22.751z"/>
			<path fill="#11374F" d="M607.955,86.284c0,1.582-0.654,2.944-1.962,4.088c-1.309,1.145-2.809,1.717-4.498,1.717h-21.668
				c-0.981,0-1.922-0.095-2.821-0.286c-0.899-0.19-1.676-0.518-2.33-0.981c-0.654-0.462-1.132-1.063-1.431-1.799
				c-0.301-0.736-0.368-1.648-0.205-2.739l6.46-46.035c0.217-1.417,1.008-2.739,2.371-3.966c1.362-1.227,2.943-1.84,4.743-1.84
				h22.158c1.417,0,2.603,0.478,3.558,1.431c0.953,0.955,1.431,2.058,1.431,3.312c0,1.635-0.654,2.984-1.963,4.047
				c-1.308,1.063-2.808,1.595-4.497,1.595h-17.008l-1.88,13.165h15.454c1.361,0,2.534,0.437,3.516,1.308
				c0.981,0.873,1.472,1.991,1.472,3.353c0,1.582-0.642,2.931-1.922,4.048c-1.281,1.118-2.794,1.676-4.538,1.676H586.94
				l-1.88,13.329h17.825c1.417,0,2.616,0.45,3.598,1.349S607.955,85.031,607.955,86.284z"/>
			<path fill="#11374F" d="M641.643,74.346c0-1.417-0.3-2.453-0.899-3.107c-0.6-0.654-1.199-1.117-1.799-1.39
				c-0.817-0.381-1.689-0.763-2.616-1.145c-0.928-0.38-1.936-0.736-3.025-1.063c-1.745-0.599-3.476-1.227-5.192-1.88
				c-1.717-0.654-3.271-1.525-4.66-2.617c-1.391-1.09-2.509-2.439-3.353-4.047c-0.847-1.607-1.268-3.639-1.268-6.092
				c0-2.944,0.518-5.614,1.554-8.013c1.034-2.398,2.493-4.428,4.374-6.092c1.881-1.662,4.156-2.944,6.828-3.843
				c2.67-0.899,5.613-1.349,8.831-1.349c1.145,0,2.588,0.096,4.333,0.286c1.744,0.192,3.447,0.532,5.11,1.022
				c1.662,0.49,3.079,1.186,4.252,2.085c1.172,0.899,1.759,2.058,1.759,3.475c0,1.418-0.601,2.712-1.8,3.884
				c-1.199,1.173-2.779,1.758-4.742,1.758c-0.764,0-1.431-0.082-2.003-0.246s-1.186-0.38-1.84-0.654
				c-0.765-0.272-1.608-0.544-2.535-0.818c-0.928-0.272-2.099-0.409-3.516-0.409c-1.092,0-2.167,0.11-3.23,0.327
				c-1.063,0.218-2.003,0.6-2.82,1.145c-0.818,0.545-1.472,1.281-1.963,2.208c-0.49,0.928-0.735,2.073-0.735,3.435
				c0,1.472,0.313,2.535,0.94,3.189c0.626,0.654,1.239,1.118,1.839,1.39c0.981,0.545,1.935,0.981,2.862,1.308
				c0.927,0.327,1.826,0.627,2.698,0.899c1.744,0.545,3.488,1.173,5.233,1.881c1.744,0.709,3.312,1.608,4.701,2.698
				c1.391,1.091,2.507,2.44,3.353,4.047c0.845,1.608,1.268,3.612,1.268,6.01c0,3.162-0.601,5.998-1.799,8.504
				c-1.199,2.508-2.835,4.62-4.906,6.337c-2.072,1.717-4.511,3.04-7.318,3.966s-5.819,1.39-9.035,1.39
				c-1.472,0-3.147-0.137-5.028-0.409c-1.881-0.273-3.667-0.695-5.356-1.268s-3.121-1.335-4.292-2.29
				c-1.173-0.953-1.759-2.085-1.759-3.393c0-0.708,0.164-1.403,0.491-2.085c0.327-0.681,0.776-1.28,1.349-1.799
				c0.572-0.517,1.227-0.94,1.963-1.267c0.735-0.327,1.513-0.491,2.33-0.491c0.6,0,1.227,0.096,1.881,0.286
				c0.654,0.192,1.362,0.423,2.126,0.695c0.926,0.327,2.03,0.683,3.312,1.063c1.28,0.382,2.793,0.573,4.538,0.573
				c3.161,0,5.546-0.708,7.154-2.126C640.838,78.898,641.643,76.909,641.643,74.346z"/>
		</g>
		<g>
			<g>
				<path fill="#E42620" d="M26.072,136.887c-1.674,0-3.326-0.762-4.406-2.205c-1.82-2.432-1.324-5.879,1.107-7.699l28.105-21.035
					c2.432-1.821,5.879-1.324,7.699,1.108c1.82,2.432,1.324,5.879-1.107,7.699L29.363,135.79
					C28.375,136.529,27.219,136.887,26.072,136.887z"/>
			</g>
			<g>
				<path fill="#E42620" d="M57.285,32.036c-1.146,0-2.303-0.357-3.291-1.097L25.889,9.903c-2.434-1.82-2.93-5.267-1.109-7.699
					c1.82-2.432,5.268-2.927,7.699-1.108l28.105,21.035c2.432,1.82,2.928,5.267,1.107,7.699
					C60.611,31.274,58.959,32.036,57.285,32.036z"/>
			</g>
			<g>
				<path fill="#E42620" d="M43.5,76.57h-38c-3.037,0-5.5-2.462-5.5-5.5s2.463-5.5,5.5-5.5h38c3.037,0,5.5,2.462,5.5,5.5
					S46.537,76.57,43.5,76.57z"/>
			</g>
		</g>
	</g>
</g>
</svg>
