<?xml version="1.0" encoding="utf-8"?>
<!-- Generator: Adobe Illustrator 16.0.0, SVG Export Plug-In . SVG Version: 6.00 Build 0)  -->
<!DOCTYPE svg PUBLIC "-//W3C//DTD SVG 1.1//EN" "http://www.w3.org/Graphics/SVG/1.1/DTD/svg11.dtd">
<svg version="1.1" id="Layer_1" xmlns="http://www.w3.org/2000/svg" xmlns:xlink="http://www.w3.org/1999/xlink" x="0px" y="0px"
	 width="439.274px" height="136.887px" viewBox="0 0 439.274 136.887" enable-background="new 0 0 439.274 136.887"
	 xml:space="preserve">
<g>
	<defs>
		<rect id="SVGID_1_" x="-1691.482" y="-357.875" width="1600" height="2733.65"/>
	</defs>
	<clipPath id="SVGID_2_">
		<use xlink:href="#SVGID_1_"  overflow="visible"/>
	</clipPath>
	<g clip-path="url(#SVGID_2_)">
		<defs>
			<rect id="SVGID_57_" x="-1691.482" y="-357.874" width="1600" height="2733.649"/>
		</defs>
		<clipPath id="SVGID_4_">
			<use xlink:href="#SVGID_57_"  overflow="visible"/>
		</clipPath>
	</g>
</g>
<g>
	<g>
		<path fill="#11374F" d="M102.723,106.991c-3.761,0-6.651-1.255-8.667-3.762c-2.018-2.508-3.08-5.86-3.189-10.057
			c-2.672-0.491-4.934-1.376-6.787-2.658c-1.854-1.28-3.325-2.848-4.415-4.702c-1.091-1.853-1.813-3.952-2.167-6.296
			c-0.355-2.343-0.341-4.824,0.041-7.441l2.289-16.19c0.436-2.889,1.227-5.628,2.372-8.218c1.145-2.588,2.698-4.865,4.661-6.828
			c1.962-1.962,4.374-3.516,7.236-4.661c2.861-1.145,6.199-1.717,10.016-1.717c3.815,0,6.992,0.572,9.526,1.717
			c2.534,1.145,4.511,2.698,5.929,4.661c1.416,1.962,2.343,4.239,2.779,6.828c0.436,2.59,0.436,5.329,0,8.218l-2.289,16.19
			c-0.327,2.508-0.969,4.879-1.922,7.114c-0.954,2.236-2.181,4.266-3.68,6.092c-1.5,1.827-3.285,3.394-5.355,4.702
			c-2.072,1.308-4.389,2.263-6.95,2.862c0.108,1.472,0.409,2.535,0.899,3.189s1.198,0.981,2.126,0.981h2.371
			c1.525,0,2.739,0.381,3.639,1.145c0.899,0.763,1.349,1.826,1.349,3.189c0,1.362-0.244,2.425-0.735,3.189
			c-0.491,0.763-1.173,1.321-2.044,1.676c-0.873,0.354-1.908,0.572-3.107,0.654C105.448,106.95,104.14,106.991,102.723,106.991z
			 M102.642,44.848c-3.599,0-6.284,1.009-8.055,3.025c-1.771,2.017-2.876,4.689-3.312,8.013l-2.29,16.19
			c-0.437,3.271-0.014,5.942,1.268,8.013c1.28,2.072,3.611,3.107,6.991,3.107s6.011-1.035,7.891-3.107
			c1.881-2.071,3.038-4.743,3.476-8.013l2.289-16.19c0.436-3.324,0.068-5.996-1.104-8.013
			C108.622,45.857,106.239,44.848,102.642,44.848z"/>
		<path fill="#11374F" d="M169.116,73.221c-0.381,2.944-1.213,5.656-2.493,8.136c-1.282,2.481-2.931,4.634-4.947,6.459
			c-2.017,1.827-4.374,3.244-7.073,4.252c-2.697,1.008-5.656,1.513-8.871,1.513c-3.271,0-6.12-0.519-8.545-1.554
			c-2.426-1.035-4.375-2.453-5.847-4.252c-1.472-1.799-2.481-3.938-3.025-6.418c-0.546-2.48-0.627-5.192-0.245-8.136l4.66-33.361
			c0.273-1.581,1.035-2.875,2.29-3.884c1.253-1.008,2.698-1.513,4.334-1.513c1.525,0,2.766,0.532,3.72,1.595
			c0.953,1.063,1.322,2.33,1.104,3.802l-4.661,33.361c-0.437,2.944-0.041,5.343,1.186,7.196c1.227,1.854,3.394,2.78,6.501,2.78
			c3.106,0,5.505-0.926,7.195-2.78c1.688-1.853,2.752-4.252,3.188-7.196l4.661-33.361c0.218-1.417,0.953-2.67,2.208-3.762
			c1.254-1.089,2.67-1.635,4.252-1.635c1.689,0,3.012,0.546,3.966,1.635c0.953,1.091,1.321,2.345,1.104,3.762L169.116,73.221z"/>
		<path fill="#11374F" d="M211.718,87.04c0,1.582-0.654,2.944-1.963,4.088c-1.308,1.145-2.808,1.717-4.496,1.717H183.59
			c-0.981,0-1.921-0.095-2.821-0.286c-0.899-0.19-1.676-0.518-2.33-0.981c-0.654-0.462-1.132-1.063-1.432-1.799
			s-0.367-1.648-0.203-2.739l6.459-46.035c0.217-1.417,1.008-2.739,2.371-3.966c1.362-1.227,2.943-1.84,4.742-1.84h22.16
			c1.416,0,2.602,0.478,3.557,1.431c0.953,0.955,1.431,2.058,1.431,3.312c0,1.635-0.654,2.984-1.962,4.047
			c-1.309,1.063-2.809,1.595-4.498,1.595h-17.008l-1.881,13.165h15.455c1.361,0,2.534,0.437,3.516,1.308
			c0.981,0.873,1.472,1.991,1.472,3.353c0,1.582-0.642,2.931-1.921,4.048c-1.281,1.118-2.795,1.676-4.539,1.676h-15.453
			l-1.881,13.329h17.825c1.417,0,2.616,0.45,3.598,1.349S211.718,85.786,211.718,87.04z"/>
		<path fill="#11374F" d="M245.405,75.102c0-1.417-0.3-2.453-0.898-3.107c-0.602-0.654-1.2-1.117-1.799-1.39
			c-0.818-0.381-1.691-0.763-2.617-1.145c-0.928-0.38-1.936-0.736-3.025-1.063c-1.745-0.599-3.475-1.227-5.192-1.88
			c-1.717-0.654-3.271-1.525-4.661-2.617c-1.39-1.09-2.508-2.439-3.352-4.047c-0.846-1.607-1.268-3.639-1.268-6.092
			c0-2.944,0.518-5.614,1.553-8.013c1.035-2.398,2.494-4.428,4.375-6.092c1.881-1.662,4.156-2.944,6.828-3.843
			c2.67-0.899,5.613-1.349,8.83-1.349c1.146,0,2.589,0.096,4.334,0.286c1.744,0.192,3.447,0.532,5.11,1.022
			c1.662,0.49,3.079,1.186,4.252,2.085c1.172,0.899,1.759,2.058,1.759,3.475c0,1.418-0.601,2.712-1.8,3.884
			c-1.199,1.173-2.779,1.758-4.742,1.758c-0.764,0-1.431-0.082-2.003-0.246s-1.186-0.38-1.84-0.654
			c-0.764-0.272-1.609-0.544-2.535-0.818c-0.928-0.272-2.1-0.409-3.516-0.409c-1.092,0-2.167,0.11-3.23,0.327
			c-1.063,0.218-2.003,0.6-2.82,1.145c-0.818,0.545-1.473,1.281-1.963,2.208c-0.49,0.928-0.736,2.073-0.736,3.435
			c0,1.472,0.313,2.535,0.941,3.189c0.625,0.654,1.238,1.118,1.84,1.39c0.98,0.545,1.934,0.981,2.861,1.308
			c0.926,0.327,1.826,0.627,2.698,0.899c1.744,0.545,3.487,1.173,5.233,1.881c1.744,0.709,3.312,1.608,4.701,2.698
			c1.391,1.091,2.507,2.44,3.353,4.047c0.845,1.608,1.268,3.612,1.268,6.01c0,3.162-0.601,5.998-1.799,8.504
			c-1.199,2.508-2.835,4.62-4.906,6.337c-2.072,1.717-4.511,3.04-7.317,3.966c-2.809,0.926-5.82,1.39-9.036,1.39
			c-1.472,0-3.147-0.137-5.028-0.409c-1.881-0.273-3.667-0.695-5.355-1.268c-1.691-0.572-3.121-1.335-4.293-2.29
			c-1.174-0.953-1.758-2.085-1.758-3.393c0-0.708,0.163-1.403,0.49-2.085c0.326-0.681,0.776-1.28,1.35-1.799
			c0.572-0.517,1.227-0.94,1.962-1.267s1.513-0.491,2.33-0.491c0.6,0,1.227,0.096,1.881,0.286c0.654,0.192,1.362,0.423,2.126,0.695
			c0.926,0.327,2.03,0.683,3.312,1.063c1.28,0.382,2.793,0.573,4.538,0.573c3.16,0,5.547-0.708,7.154-2.126
			C244.601,79.654,245.405,77.665,245.405,75.102z"/>
		<path fill="#11374F" d="M280.155,45.583h-8.667c-1.526,0-2.753-0.45-3.68-1.349c-0.928-0.899-1.39-1.975-1.39-3.23
			c0-0.654,0.176-1.321,0.531-2.003c0.354-0.681,0.83-1.308,1.431-1.88c0.6-0.573,1.294-1.035,2.085-1.39
			c0.79-0.354,1.622-0.532,2.494-0.532h28.782c1.362,0,2.548,0.45,3.557,1.349c1.009,0.9,1.513,2.032,1.513,3.394
			c0,0.764-0.191,1.486-0.572,2.167c-0.382,0.682-0.872,1.281-1.472,1.799c-0.601,0.519-1.295,0.928-2.085,1.227
			c-0.791,0.3-1.595,0.45-2.412,0.45h-8.667l-6.051,42.765c-0.219,1.418-0.955,2.645-2.208,3.679
			c-1.255,1.035-2.672,1.554-4.252,1.554c-1.582,0-2.862-0.519-3.843-1.554c-0.981-1.035-1.363-2.261-1.146-3.679L280.155,45.583z"
			/>
		<path fill="#11374F" d="M325.455,93.581c-3.544,0-6.569-0.56-9.076-1.676c-2.508-1.117-4.512-2.643-6.01-4.579
			c-1.5-1.934-2.508-4.211-3.025-6.828c-0.519-2.616-0.56-5.423-0.123-8.422l2.208-16.19c0.436-2.889,1.227-5.628,2.371-8.218
			c1.145-2.588,2.698-4.865,4.661-6.828c1.962-1.962,4.374-3.516,7.236-4.661c2.861-1.145,6.2-1.717,10.017-1.717
			c3.814,0,6.991,0.572,9.525,1.717c2.535,1.145,4.511,2.698,5.929,4.661c1.417,1.962,2.343,4.239,2.78,6.828
			c0.436,2.59,0.436,5.329,0,8.218l-2.208,16.19c-0.438,2.999-1.281,5.806-2.535,8.422c-1.255,2.617-2.902,4.894-4.946,6.828
			c-2.045,1.936-4.471,3.462-7.277,4.579C332.173,93.021,328.998,93.581,325.455,93.581z M332.242,44.848
			c-3.599,0-6.27,1.009-8.014,3.025c-1.745,2.017-2.862,4.689-3.353,8.013l-2.208,16.19c-0.49,3.271-0.096,5.942,1.186,8.013
			c1.28,2.072,3.611,3.107,6.991,3.107s6.011-1.035,7.891-3.107c1.881-2.071,3.066-4.743,3.558-8.013l2.207-16.19
			c0.491-3.324,0.136-5.996-1.063-8.013C338.237,45.857,335.84,44.848,332.242,44.848z M348.023,23.506
			c0,0.873-0.273,1.704-0.818,2.494c-0.545,0.791-1.227,1.472-2.044,2.044c-0.817,0.572-1.717,1.022-2.698,1.349
			s-1.881,0.49-2.698,0.49c-1.091,0-2.031-0.149-2.821-0.45c-0.791-0.299-1.513-0.654-2.167-1.063
			c-0.654-0.409-1.268-0.79-1.84-1.145c-0.572-0.354-1.158-0.558-1.758-0.613c-0.601-0.108-1.104-0.013-1.513,0.286
			c-0.409,0.3-0.817,0.654-1.227,1.063s-0.846,0.777-1.309,1.104s-1.021,0.491-1.676,0.491c-0.873,0-1.649-0.299-2.33-0.899
			c-0.683-0.6-0.995-1.417-0.94-2.453c0.108-0.926,0.422-1.799,0.94-2.617c0.518-0.818,1.157-1.513,1.921-2.085
			c0.763-0.572,1.595-1.022,2.494-1.349s1.812-0.491,2.739-0.491c1.145,0,2.126,0.164,2.943,0.491
			c0.818,0.327,1.54,0.695,2.167,1.104c0.626,0.409,1.213,0.791,1.758,1.145c0.545,0.355,1.146,0.531,1.799,0.531
			c0.654,0,1.187-0.149,1.595-0.45c0.409-0.299,0.79-0.64,1.145-1.022c0.354-0.381,0.749-0.722,1.187-1.022
			c0.436-0.299,0.98-0.45,1.635-0.45c0.927,0,1.744,0.327,2.453,0.981C347.668,21.625,348.023,22.471,348.023,23.506z"/>
		<path fill="#11374F" d="M391.358,87.04c0,1.582-0.654,2.944-1.962,4.088c-1.309,1.145-2.809,1.717-4.498,1.717H363.23
			c-0.981,0-1.922-0.095-2.821-0.286c-0.899-0.19-1.676-0.518-2.33-0.981c-0.654-0.462-1.132-1.063-1.431-1.799
			c-0.301-0.736-0.368-1.648-0.205-2.739l6.46-46.035c0.217-1.417,1.008-2.739,2.371-3.966c1.362-1.227,2.943-1.84,4.743-1.84
			h22.158c1.417,0,2.603,0.478,3.558,1.431c0.953,0.955,1.431,2.058,1.431,3.312c0,1.635-0.654,2.984-1.963,4.047
			c-1.308,1.063-2.808,1.595-4.497,1.595h-17.008l-1.88,13.165h15.454c1.361,0,2.534,0.437,3.516,1.308
			c0.981,0.873,1.472,1.991,1.472,3.353c0,1.582-0.642,2.931-1.922,4.048c-1.281,1.118-2.794,1.676-4.538,1.676h-15.454
			l-1.88,13.329h17.825c1.417,0,2.616,0.45,3.598,1.349S391.358,85.786,391.358,87.04z"/>
		<path fill="#11374F" d="M425.046,75.102c0-1.417-0.3-2.453-0.899-3.107c-0.6-0.654-1.199-1.117-1.799-1.39
			c-0.817-0.381-1.689-0.763-2.616-1.145c-0.928-0.38-1.936-0.736-3.025-1.063c-1.745-0.599-3.476-1.227-5.192-1.88
			c-1.717-0.654-3.271-1.525-4.66-2.617c-1.391-1.09-2.509-2.439-3.353-4.047c-0.847-1.607-1.268-3.639-1.268-6.092
			c0-2.944,0.518-5.614,1.554-8.013c1.034-2.398,2.493-4.428,4.374-6.092c1.881-1.662,4.156-2.944,6.828-3.843
			c2.67-0.899,5.613-1.349,8.831-1.349c1.145,0,2.588,0.096,4.333,0.286c1.744,0.192,3.447,0.532,5.11,1.022
			c1.662,0.49,3.079,1.186,4.252,2.085c1.172,0.899,1.759,2.058,1.759,3.475c0,1.418-0.601,2.712-1.8,3.884
			c-1.199,1.173-2.779,1.758-4.742,1.758c-0.764,0-1.431-0.082-2.003-0.246s-1.186-0.38-1.84-0.654
			c-0.765-0.272-1.608-0.544-2.535-0.818c-0.928-0.272-2.099-0.409-3.516-0.409c-1.092,0-2.167,0.11-3.23,0.327
			c-1.063,0.218-2.003,0.6-2.82,1.145c-0.818,0.545-1.472,1.281-1.963,2.208c-0.49,0.928-0.735,2.073-0.735,3.435
			c0,1.472,0.313,2.535,0.94,3.189c0.626,0.654,1.239,1.118,1.839,1.39c0.981,0.545,1.935,0.981,2.862,1.308
			c0.927,0.327,1.826,0.627,2.698,0.899c1.744,0.545,3.488,1.173,5.233,1.881c1.744,0.709,3.312,1.608,4.701,2.698
			c1.391,1.091,2.507,2.44,3.353,4.047c0.845,1.608,1.268,3.612,1.268,6.01c0,3.162-0.601,5.998-1.799,8.504
			c-1.199,2.508-2.835,4.62-4.906,6.337c-2.072,1.717-4.511,3.04-7.318,3.966s-5.819,1.39-9.035,1.39
			c-1.472,0-3.147-0.137-5.028-0.409c-1.881-0.273-3.667-0.695-5.356-1.268s-3.121-1.335-4.292-2.29
			c-1.173-0.953-1.759-2.085-1.759-3.393c0-0.708,0.164-1.403,0.491-2.085c0.327-0.681,0.776-1.28,1.349-1.799
			c0.572-0.517,1.227-0.94,1.963-1.267c0.735-0.327,1.513-0.491,2.33-0.491c0.6,0,1.227,0.096,1.881,0.286
			c0.654,0.192,1.362,0.423,2.126,0.695c0.926,0.327,2.03,0.683,3.312,1.063c1.28,0.382,2.793,0.573,4.538,0.573
			c3.161,0,5.546-0.708,7.154-2.126C424.241,79.654,425.046,77.665,425.046,75.102z"/>
	</g>
	<g>
		<g>
			<path fill="#E42620" d="M25.896,136.887c-1.675,0-3.327-0.762-4.407-2.205c-1.82-2.432-1.324-5.879,1.107-7.699l28.105-21.035
				c2.432-1.821,5.88-1.323,7.699,1.108c1.82,2.432,1.324,5.879-1.107,7.699L29.188,135.79
				C28.199,136.529,27.042,136.887,25.896,136.887z"/>
		</g>
		<g>
			<path fill="#E42620" d="M57.108,32.036c-1.146,0-2.303-0.357-3.291-1.097L25.712,9.903c-2.433-1.82-2.929-5.267-1.108-7.699
				s5.268-2.928,7.698-1.108l28.105,21.035c2.433,1.82,2.929,5.267,1.108,7.699C60.436,31.274,58.782,32.036,57.108,32.036z"/>
		</g>
		<g>
			<path fill="#E42620" d="M43.5,76.458h-38c-3.038,0-5.5-2.462-5.5-5.5s2.462-5.5,5.5-5.5h38c3.038,0,5.5,2.462,5.5,5.5
				S46.538,76.458,43.5,76.458z"/>
		</g>
	</g>
</g>
</svg>
