<?xml version="1.0" encoding="utf-8"?>
<!-- Generator: Adobe Illustrator 16.0.0, SVG Export Plug-In . SVG Version: 6.00 Build 0)  -->
<!DOCTYPE svg PUBLIC "-//W3C//DTD SVG 1.1//EN" "http://www.w3.org/Graphics/SVG/1.1/DTD/svg11.dtd">
<svg version="1.1" id="Layer_1" xmlns="http://www.w3.org/2000/svg" xmlns:xlink="http://www.w3.org/1999/xlink" x="0px" y="0px"
	 width="450.975px" height="136.888px" viewBox="0 0 450.975 136.888" enable-background="new 0 0 450.975 136.888"
	 xml:space="preserve">
<g>
	<g>
		<g>
			<path fill="#E52620" d="M26.072,136.888c-1.674,0-3.327-0.761-4.407-2.204c-1.82-2.432-1.324-5.879,1.107-7.699l28.105-21.036
				c2.432-1.821,5.88-1.324,7.699,1.107c1.82,2.432,1.324,5.879-1.107,7.699l-28.105,21.036
				C28.376,136.531,27.219,136.888,26.072,136.888z"/>
		</g>
		<g>
			<path fill="#E52620" d="M57.285,32.036c-1.147,0-2.303-0.356-3.292-1.097L25.888,9.904c-2.432-1.82-2.928-5.267-1.107-7.699
				c1.819-2.434,5.266-2.928,7.699-1.107l28.105,21.035c2.432,1.82,2.928,5.267,1.107,7.699
				C60.612,31.275,58.959,32.036,57.285,32.036z"/>
		</g>
		<g>
			<path fill="#E52620" d="M43.5,76.571h-38c-3.037,0-5.5-2.463-5.5-5.5s2.463-5.5,5.5-5.5h38c3.037,0,5.5,2.463,5.5,5.5
				S46.537,76.571,43.5,76.571z"/>
		</g>
	</g>
	<g>
		<path fill="#12384F" d="M88.343,71.88c-0.49,3.488-0.15,6.268,1.022,8.34c1.172,2.072,3.584,3.107,7.236,3.107
			c1.309,0,2.521-0.178,3.639-0.531c1.117-0.355,2.221-0.832,3.312-1.432l0.981-0.49c0.6-0.273,1.131-0.545,1.595-0.818
			c0.462-0.271,1.157-0.408,2.085-0.408c1.417,0,2.562,0.436,3.434,1.309c0.872,0.871,1.309,1.908,1.309,3.105
			c0,1.256-0.519,2.441-1.554,3.559c-1.036,1.117-2.412,2.098-4.129,2.943s-3.667,1.512-5.847,2.002
			c-2.181,0.492-4.415,0.736-6.705,0.736c-3.598,0-6.623-0.504-9.076-1.512s-4.402-2.453-5.846-4.334
			c-1.445-1.881-2.399-4.143-2.862-6.787c-0.464-2.643-0.478-5.572-0.041-8.789l2.29-16.191c0.436-3.215,1.253-6.145,2.452-8.789
			s2.793-4.906,4.784-6.787c1.989-1.881,4.36-3.324,7.113-4.334c2.752-1.008,5.929-1.512,9.526-1.512
			c2.071,0,4.06,0.217,5.969,0.652c1.907,0.438,3.584,1.037,5.028,1.801s2.589,1.635,3.435,2.615
			c0.845,0.982,1.268,2.045,1.268,3.189c0,1.418-0.601,2.672-1.799,3.762c-1.2,1.09-2.645,1.635-4.334,1.635
			c-0.928,0-1.595-0.123-2.003-0.367c-0.409-0.246-0.858-0.531-1.35-0.859l-0.735-0.49c-0.928-0.6-1.909-1.076-2.944-1.432
			c-1.036-0.354-2.207-0.531-3.516-0.531c-3.708,0-6.419,1.021-8.136,3.066s-2.821,4.838-3.312,8.381L88.343,71.88z"/>
		<path fill="#12384F" d="M128.734,89.54c-0.601,1.201-1.485,2.141-2.657,2.822c-1.173,0.68-2.248,1.021-3.229,1.021
			c-1.472,0-2.713-0.422-3.721-1.268c-1.009-0.844-1.513-1.975-1.513-3.393c0-0.381,0.067-0.805,0.204-1.268
			c0.136-0.463,0.259-0.83,0.368-1.104l22.486-46.527c0.763-1.58,1.689-2.902,2.78-3.965c1.09-1.063,2.616-1.594,4.579-1.594
			c1.962,0,3.365,0.518,4.211,1.553c0.845,1.037,1.431,2.371,1.758,4.006l9.403,46.527v0.898c0,1.854-0.654,3.34-1.963,4.457
			c-1.308,1.117-2.861,1.676-4.66,1.676c-1.091,0-2.141-0.355-3.148-1.063c-1.009-0.709-1.649-1.637-1.921-2.781l-1.718-8.258
			h-17.335L128.734,89.54z M146.151,57.978c-0.219-1.197-0.327-2.52-0.327-3.965c0-1.443,0-2.793,0-4.047
			c-0.327,1.254-0.709,2.604-1.145,4.047c-0.438,1.445-0.928,2.768-1.472,3.965l-6.297,13.982h11.448L146.151,57.978z"/>
		<path fill="#12384F" d="M213.117,70.489c-0.382,2.889-1.186,5.67-2.412,8.34c-1.227,2.672-2.958,5.029-5.192,7.072
			c-2.235,2.045-5.028,3.68-8.381,4.906s-7.347,1.84-11.979,1.84h-9.239c-1.745,0-3.162-0.584-4.252-1.758
			c-1.091-1.172-1.526-2.547-1.309-4.129l6.46-45.953c0.217-1.58,1.049-2.957,2.494-4.129c1.443-1.172,3.038-1.76,4.783-1.76h9.239
			c4.633,0,8.449,0.588,11.448,1.76c2.997,1.172,5.342,2.752,7.032,4.742c1.688,1.99,2.779,4.279,3.271,6.867
			c0.49,2.59,0.518,5.303,0.081,8.137L213.117,70.489z M203.714,56.425c0.218-1.58,0.218-3.039,0-4.375
			c-0.219-1.334-0.735-2.506-1.554-3.516c-0.817-1.008-1.949-1.799-3.393-2.371c-1.445-0.572-3.285-0.859-5.52-0.859h-5.561
			l-5.233,36.959h5.561c2.234,0,4.17-0.313,5.806-0.939c1.635-0.627,2.997-1.473,4.088-2.535c1.09-1.063,1.935-2.303,2.535-3.721
			c0.6-1.416,1.008-2.943,1.227-4.578L203.714,56.425z"/>
		<path fill="#12384F" d="M225.545,89.54c-0.601,1.201-1.485,2.141-2.657,2.822c-1.173,0.68-2.248,1.021-3.229,1.021
			c-1.472,0-2.713-0.422-3.721-1.268c-1.009-0.844-1.513-1.975-1.513-3.393c0-0.381,0.067-0.805,0.204-1.268
			c0.136-0.463,0.259-0.83,0.368-1.104l22.486-46.527c0.763-1.58,1.689-2.902,2.78-3.965c1.09-1.063,2.616-1.594,4.579-1.594
			c1.962,0,3.365,0.518,4.211,1.553c0.845,1.037,1.431,2.371,1.758,4.006l9.403,46.527v0.898c0,1.854-0.654,3.34-1.963,4.457
			c-1.308,1.117-2.861,1.676-4.66,1.676c-1.091,0-2.141-0.355-3.148-1.063c-1.009-0.709-1.649-1.637-1.921-2.781l-1.718-8.258
			H229.47L225.545,89.54z M242.962,57.978c-0.219-1.197-0.327-2.52-0.327-3.965c0-1.443,0-2.793,0-4.047
			c-0.327,1.254-0.709,2.604-1.145,4.047c-0.438,1.445-0.928,2.768-1.472,3.965l-6.297,13.982h11.448L242.962,57.978z"/>
		<path fill="#12384F" d="M293.738,74.905c0-1.418-0.3-2.453-0.899-3.107s-1.199-1.117-1.799-1.391
			c-0.817-0.381-1.689-0.764-2.616-1.145c-0.928-0.381-1.936-0.736-3.025-1.063c-1.745-0.6-3.476-1.227-5.192-1.881
			s-3.271-1.525-4.66-2.617c-1.391-1.09-2.509-2.439-3.353-4.047c-0.847-1.607-1.268-3.639-1.268-6.092
			c0-2.943,0.518-5.615,1.554-8.014c1.034-2.398,2.493-4.428,4.374-6.092c1.881-1.662,4.156-2.943,6.828-3.844
			c2.67-0.898,5.613-1.348,8.831-1.348c1.145,0,2.588,0.096,4.333,0.285c1.744,0.191,3.447,0.531,5.11,1.021
			c1.662,0.492,3.079,1.186,4.252,2.086c1.172,0.898,1.759,2.059,1.759,3.475c0,1.418-0.601,2.713-1.8,3.885
			s-2.779,1.758-4.742,1.758c-0.764,0-1.431-0.082-2.003-0.246c-0.572-0.162-1.186-0.381-1.84-0.654
			c-0.765-0.271-1.608-0.543-2.535-0.816c-0.928-0.273-2.099-0.41-3.516-0.41c-1.092,0-2.167,0.111-3.23,0.328
			c-1.063,0.219-2.003,0.6-2.82,1.145c-0.818,0.545-1.472,1.281-1.963,2.207c-0.49,0.928-0.735,2.072-0.735,3.436
			c0,1.471,0.313,2.535,0.94,3.188c0.626,0.654,1.239,1.119,1.839,1.391c0.981,0.545,1.935,0.982,2.862,1.309
			c0.927,0.326,1.826,0.627,2.698,0.9c1.744,0.545,3.488,1.172,5.233,1.879c1.744,0.709,3.312,1.609,4.701,2.699
			c1.391,1.092,2.507,2.439,3.353,4.047c0.845,1.609,1.268,3.613,1.268,6.01c0,3.162-0.601,5.998-1.799,8.504
			c-1.199,2.508-2.835,4.621-4.906,6.338c-2.072,1.717-4.511,3.039-7.318,3.965c-2.808,0.928-5.819,1.391-9.035,1.391
			c-1.472,0-3.147-0.137-5.028-0.408c-1.881-0.273-3.667-0.695-5.356-1.268s-3.121-1.336-4.292-2.289
			c-1.173-0.953-1.759-2.086-1.759-3.395c0-0.707,0.164-1.402,0.491-2.084s0.776-1.281,1.349-1.799s1.227-0.941,1.963-1.268
			c0.735-0.328,1.513-0.492,2.33-0.492c0.6,0,1.227,0.098,1.881,0.287c0.654,0.191,1.362,0.424,2.126,0.695
			c0.926,0.326,2.03,0.682,3.312,1.063c1.28,0.383,2.793,0.572,4.538,0.572c3.161,0,5.546-0.707,7.154-2.125
			C292.934,79.456,293.738,77.468,293.738,74.905z"/>
		<path fill="#12384F" d="M328.569,45.386h-8.667c-1.526,0-2.753-0.449-3.68-1.35c-0.928-0.898-1.39-1.975-1.39-3.229
			c0-0.654,0.176-1.322,0.531-2.004c0.354-0.682,0.83-1.309,1.431-1.881c0.6-0.572,1.294-1.035,2.085-1.391
			c0.79-0.354,1.622-0.531,2.494-0.531h28.782c1.362,0,2.548,0.451,3.557,1.35c1.009,0.9,1.513,2.031,1.513,3.395
			c0,0.764-0.191,1.484-0.572,2.166c-0.382,0.682-0.872,1.281-1.472,1.799c-0.601,0.52-1.295,0.928-2.085,1.227
			c-0.791,0.301-1.595,0.449-2.412,0.449h-8.667l-6.051,42.766c-0.219,1.418-0.955,2.645-2.208,3.68
			c-1.255,1.033-2.672,1.553-4.252,1.553c-1.582,0-2.862-0.52-3.843-1.553c-0.981-1.035-1.363-2.262-1.146-3.68L328.569,45.386z"/>
		<path fill="#12384F" d="M401.178,49.966c0,4.688-1.24,8.545-3.721,11.57s-5.846,5.191-10.098,6.5l8.831,16.844
			c0.544,1.037,0.694,2.059,0.449,3.066c-0.245,1.01-0.695,1.908-1.349,2.699c-0.654,0.789-1.459,1.43-2.412,1.92
			c-0.955,0.492-1.896,0.736-2.821,0.736c-2.126,0-3.626-0.844-4.497-2.535l-10.712-21.504h-5.561l-2.616,18.725
			c-0.219,1.418-0.969,2.672-2.249,3.762c-1.281,1.09-2.712,1.635-4.292,1.635c-1.527,0-2.78-0.531-3.762-1.594
			c-0.981-1.064-1.363-2.33-1.145-3.803l6.623-47.098c0.217-1.582,1.022-2.957,2.412-4.131c1.39-1.17,2.93-1.758,4.62-1.758h14.228
			c3.379,0,6.227,0.424,8.545,1.268c2.316,0.846,4.183,1.963,5.601,3.354c1.417,1.389,2.425,2.984,3.025,4.783
			C400.878,46.204,401.178,48.058,401.178,49.966z M389.567,51.274c0-0.764-0.123-1.486-0.368-2.168s-0.683-1.309-1.309-1.881
			c-0.627-0.572-1.472-1.021-2.535-1.35c-1.063-0.326-2.412-0.49-4.047-0.49h-8.668l-1.88,13.574h9.157
			c3.107,0,5.491-0.668,7.155-2.004C388.735,55.622,389.567,53.726,389.567,51.274z"/>
		<path fill="#12384F" d="M424.154,93.384c-3.544,0-6.569-0.559-9.076-1.676c-2.508-1.117-4.512-2.645-6.01-4.58
			c-1.5-1.934-2.508-4.211-3.025-6.826c-0.519-2.617-0.56-5.424-0.123-8.422l2.208-16.191c0.436-2.889,1.227-5.627,2.371-8.217
			s2.698-4.865,4.661-6.828c1.962-1.963,4.374-3.516,7.236-4.66c2.861-1.145,6.2-1.717,10.017-1.717
			c3.814,0,6.991,0.572,9.525,1.717c2.535,1.145,4.511,2.697,5.929,4.66c1.417,1.963,2.343,4.238,2.78,6.828
			c0.436,2.59,0.436,5.328,0,8.217l-2.208,16.191c-0.438,2.998-1.281,5.805-2.535,8.422c-1.255,2.615-2.902,4.893-4.946,6.826
			c-2.045,1.936-4.471,3.463-7.277,4.58C430.872,92.825,427.697,93.384,424.154,93.384z M430.941,44.649
			c-3.599,0-6.27,1.01-8.014,3.025c-1.745,2.018-2.862,4.689-3.353,8.014l-2.208,16.191c-0.49,3.27-0.096,5.941,1.186,8.012
			c1.28,2.072,3.611,3.107,6.991,3.107s6.011-1.035,7.891-3.107c1.881-2.07,3.066-4.742,3.558-8.012l2.207-16.191
			c0.491-3.324,0.136-5.996-1.063-8.014C436.937,45.659,434.539,44.649,430.941,44.649z"/>
	</g>
	<g>
		<path fill="#E30613" d="M342.279,120.526c-0.145,1.055-0.43,2.077-0.852,3.068c-0.424,0.992-1.023,1.866-1.799,2.62
			c-0.775,0.755-1.736,1.359-2.883,1.813c-1.146,0.455-2.518,0.682-4.107,0.682h-3.504c-0.414,0-0.744-0.145-0.992-0.434
			s-0.34-0.641-0.277-1.054l2.635-18.91c0.061-0.413,0.258-0.765,0.588-1.054s0.703-0.435,1.117-0.435h3.502
			c1.592,0,2.893,0.218,3.906,0.651c1.012,0.434,1.803,1.013,2.371,1.736c0.568,0.723,0.93,1.564,1.086,2.525
			c0.154,0.961,0.16,1.959,0.016,2.992L342.279,120.526z M340.605,114.729c0.104-0.764,0.107-1.482,0.016-2.154
			c-0.094-0.672-0.326-1.256-0.697-1.752c-0.373-0.496-0.885-0.883-1.535-1.162s-1.482-0.418-2.496-0.418h-3.037l-2.387,17.049
			h3.037c1.033,0,1.918-0.149,2.65-0.449c0.734-0.299,1.354-0.713,1.861-1.24c0.506-0.526,0.902-1.136,1.193-1.828
			c0.289-0.693,0.484-1.441,0.588-2.248L340.605,114.729z"/>
		<path fill="#E30613" d="M356.135,127.315c0,0.372-0.148,0.697-0.449,0.977c-0.299,0.279-0.635,0.418-1.008,0.418h-8.215
			c-0.516,0-0.955-0.103-1.316-0.31c-0.361-0.206-0.502-0.589-0.418-1.147l2.666-18.94c0.041-0.351,0.227-0.683,0.557-0.992
			s0.703-0.465,1.117-0.465h8.4c0.311,0,0.563,0.108,0.76,0.325c0.195,0.217,0.295,0.471,0.295,0.76
			c0,0.393-0.146,0.713-0.436,0.961s-0.609,0.372-0.961,0.372h-7.377l-1.023,7.254h6.789c0.289,0,0.537,0.104,0.744,0.31
			c0.207,0.207,0.311,0.465,0.311,0.775c0,0.372-0.141,0.688-0.42,0.945c-0.279,0.259-0.604,0.388-0.977,0.388h-6.789l-1.053,7.347
			h7.688c0.311,0,0.574,0.099,0.791,0.295C356.027,126.784,356.135,127.026,356.135,127.315z"/>
		<path fill="#E30613" d="M369.652,114.45c0.164-1.198,0.459-2.283,0.883-3.255s0.967-1.803,1.627-2.495
			c0.662-0.692,1.457-1.225,2.387-1.597c0.932-0.372,1.994-0.558,3.193-0.558c0.682,0,1.328,0.066,1.938,0.201
			s1.152,0.315,1.629,0.543c0.475,0.227,0.852,0.496,1.131,0.805c0.279,0.311,0.418,0.642,0.418,0.992
			c0,0.332-0.123,0.615-0.371,0.854c-0.248,0.237-0.549,0.355-0.9,0.355c-0.227,0-0.402-0.046-0.525-0.139
			c-0.125-0.094-0.301-0.223-0.527-0.388c-0.414-0.31-0.863-0.548-1.35-0.713c-0.484-0.165-1.027-0.248-1.627-0.248
			c-0.867,0-1.617,0.13-2.248,0.388s-1.162,0.635-1.596,1.131s-0.775,1.091-1.023,1.783s-0.434,1.473-0.559,2.34l-0.93,6.635
			c-0.123,0.867-0.16,1.648-0.107,2.34c0.051,0.693,0.227,1.287,0.527,1.783c0.299,0.496,0.729,0.873,1.285,1.131
			c0.559,0.259,1.271,0.388,2.139,0.388c0.6,0,1.164-0.083,1.689-0.248c0.527-0.165,1.049-0.403,1.566-0.713
			c0.289-0.165,0.5-0.294,0.635-0.388c0.135-0.093,0.316-0.14,0.543-0.14c0.289,0,0.521,0.093,0.697,0.279s0.264,0.413,0.264,0.682
			c0,0.372-0.17,0.729-0.512,1.069c-0.34,0.342-0.785,0.641-1.332,0.899c-0.549,0.259-1.174,0.46-1.877,0.604
			c-0.701,0.145-1.414,0.217-2.139,0.217c-1.197,0-2.205-0.186-3.021-0.558s-1.469-0.903-1.953-1.597
			c-0.486-0.692-0.797-1.523-0.93-2.496c-0.135-0.971-0.119-2.056,0.047-3.254L369.652,114.45z"/>
		<path fill="#E30613" d="M389.307,129.021c-1.178,0-2.186-0.207-3.023-0.62c-0.836-0.413-1.504-0.977-2-1.689
			s-0.82-1.555-0.977-2.526c-0.154-0.971-0.16-2.004-0.014-3.1l0.93-6.635c0.164-1.074,0.443-2.092,0.836-3.053
			s0.926-1.799,1.598-2.512c0.67-0.713,1.486-1.281,2.449-1.705c0.961-0.423,2.08-0.635,3.363-0.635
			c1.281,0,2.344,0.212,3.191,0.635c0.848,0.424,1.504,0.992,1.969,1.705s0.766,1.551,0.9,2.512
			c0.133,0.961,0.117,1.979-0.047,3.053l-0.93,6.635c-0.146,1.096-0.436,2.129-0.869,3.1c-0.434,0.972-1.002,1.813-1.705,2.526
			s-1.529,1.276-2.48,1.689C391.549,128.813,390.484,129.021,389.307,129.021z M392.127,108.964c-1.695,0-2.965,0.501-3.813,1.503
			c-0.848,1.003-1.385,2.331-1.613,3.983l-0.93,6.635c-0.227,1.633-0.035,2.96,0.574,3.982c0.609,1.023,1.709,1.535,3.301,1.535
			s2.838-0.512,3.736-1.535c0.898-1.022,1.461-2.35,1.689-3.982l0.93-6.635c0.125-0.826,0.15-1.575,0.078-2.247
			c-0.072-0.671-0.26-1.251-0.559-1.736s-0.729-0.857-1.287-1.116C393.678,109.093,392.975,108.964,392.127,108.964z"/>
		<path fill="#E30613" d="M412.771,129.021c-0.248,0-0.475-0.063-0.682-0.186c-0.207-0.125-0.361-0.3-0.465-0.527l-6.635-16.523
			l-2.23,15.965c-0.043,0.352-0.207,0.651-0.496,0.899c-0.291,0.248-0.611,0.372-0.961,0.372c-0.352,0-0.621-0.124-0.807-0.372
			s-0.258-0.548-0.217-0.899l2.789-19.84c0.041-0.393,0.207-0.718,0.496-0.977c0.289-0.258,0.631-0.387,1.023-0.387
			c0.268,0,0.512,0.066,0.729,0.201s0.377,0.315,0.48,0.543l6.604,16.491l2.232-15.965c0.041-0.351,0.205-0.651,0.496-0.899
			c0.289-0.248,0.609-0.371,0.961-0.371c0.35,0,0.619,0.123,0.805,0.371c0.188,0.248,0.258,0.549,0.217,0.899l-2.758,19.84
			c-0.063,0.372-0.238,0.692-0.527,0.962C413.537,128.886,413.186,129.021,412.771,129.021z"/>
		<path fill="#E30613" d="M425.297,109.273h-4.217c-0.33,0-0.594-0.108-0.791-0.325c-0.195-0.217-0.293-0.471-0.293-0.76
			s0.145-0.584,0.434-0.883c0.289-0.301,0.619-0.45,0.992-0.45h10.912c0.289,0,0.547,0.104,0.775,0.31
			c0.227,0.207,0.34,0.465,0.34,0.775c0,0.352-0.15,0.662-0.449,0.93c-0.301,0.27-0.635,0.403-1.008,0.403h-4.215l-2.605,18.507
			c-0.041,0.331-0.201,0.62-0.48,0.868s-0.594,0.372-0.945,0.372s-0.625-0.124-0.82-0.372c-0.197-0.248-0.275-0.537-0.232-0.868
			L425.297,109.273z"/>
		<path fill="#E30613" d="M432.332,128.091c-0.123,0.289-0.314,0.517-0.572,0.682c-0.26,0.165-0.502,0.248-0.729,0.248
			c-0.332,0-0.605-0.098-0.822-0.295c-0.217-0.195-0.324-0.459-0.324-0.79c0-0.103,0.014-0.222,0.045-0.356s0.068-0.223,0.109-0.264
			l8.711-19.127c0.227-0.475,0.48-0.868,0.76-1.178c0.279-0.311,0.645-0.465,1.1-0.465c0.477,0,0.801,0.154,0.977,0.465
			c0.176,0.31,0.314,0.703,0.418,1.178l3.35,19.127c0,0.021,0.004,0.057,0.016,0.108c0.01,0.052,0.016,0.099,0.016,0.14
			c0,0.455-0.146,0.812-0.436,1.069c-0.289,0.259-0.641,0.388-1.053,0.388c-0.229,0-0.455-0.083-0.684-0.248
			c-0.227-0.165-0.361-0.393-0.402-0.682l-0.713-4.31h-7.844L432.332,128.091z M435.34,121.363h6.387l-1.736-10.509L435.34,121.363z
			"/>
	</g>
</g>
</svg>
