<?xml version="1.0" encoding="utf-8"?>
<!-- Generator: Adobe Illustrator 16.0.0, SVG Export Plug-In . SVG Version: 6.00 Build 0)  -->
<!DOCTYPE svg PUBLIC "-//W3C//DTD SVG 1.1//EN" "http://www.w3.org/Graphics/SVG/1.1/DTD/svg11.dtd">
<svg version="1.1" id="Layer_1" xmlns="http://www.w3.org/2000/svg" xmlns:xlink="http://www.w3.org/1999/xlink" x="0px" y="0px"
	 width="418.174px" height="136.888px" viewBox="0 0 418.174 136.888" enable-background="new 0 0 418.174 136.888"
	 xml:space="preserve">
<g>
	<g>
		<g>
			<path fill="#E42620" d="M363.439,32.037c-1.674,0-3.327-0.762-4.407-2.205c-1.82-2.432-1.324-5.878,1.107-7.699l28.106-21.036
				c2.434-1.82,5.879-1.324,7.699,1.108s1.324,5.878-1.107,7.699L366.731,30.94C365.742,31.68,364.586,32.037,363.439,32.037z"/>
		</g>
		<g>
			<path fill="#E42620" d="M388.423,136.888c-1.147,0-2.303-0.357-3.292-1.097l-28.105-21.036c-2.432-1.82-2.928-5.267-1.107-7.699
				c1.82-2.433,5.266-2.927,7.699-1.107l28.105,21.036c2.432,1.82,2.928,5.267,1.107,7.699
				C391.75,136.126,390.097,136.888,388.423,136.888z"/>
		</g>
		<g>
			<path fill="#E42620" d="M412.674,71.571h-38c-3.037,0-5.5-2.462-5.5-5.5s2.463-5.5,5.5-5.5h38c3.037,0,5.5,2.462,5.5,5.5
				S415.711,71.571,412.674,71.571z"/>
		</g>
	</g>
	<g>
		<path fill="#11374F" d="M42.819,74.442c-0.382,2.89-1.186,5.67-2.412,8.34c-1.227,2.671-2.958,5.029-5.192,7.073
			c-2.235,2.044-5.028,3.679-8.381,4.906s-7.346,1.84-11.979,1.84h-9.24c-1.745,0-3.162-0.585-4.252-1.758
			c-1.092-1.172-1.527-2.548-1.309-4.129l6.46-45.954c0.218-1.581,1.049-2.957,2.494-4.129c1.443-1.171,3.038-1.758,4.783-1.758
			h9.239c4.633,0,8.449,0.586,11.447,1.758c2.998,1.173,5.342,2.753,7.033,4.743c1.688,1.991,2.779,4.28,3.27,6.869
			c0.491,2.589,0.518,5.302,0.082,8.136L42.819,74.442z M33.416,60.378c0.217-1.581,0.217-3.038,0-4.375
			c-0.219-1.335-0.736-2.507-1.553-3.516c-0.818-1.008-1.95-1.799-3.395-2.371s-3.284-0.859-5.519-0.859H17.39l-5.233,36.959h5.561
			c2.234,0,4.17-0.313,5.806-0.94c1.636-0.626,2.997-1.472,4.089-2.535c1.09-1.063,1.934-2.302,2.534-3.72
			c0.599-1.417,1.009-2.944,1.227-4.579L33.416,60.378z"/>
		<path fill="#11374F" d="M83.621,90.795c0,1.582-0.654,2.944-1.963,4.088c-1.308,1.145-2.808,1.717-4.496,1.717H55.493
			c-0.981,0-1.921-0.095-2.821-0.286c-0.899-0.19-1.676-0.518-2.33-0.981c-0.654-0.462-1.132-1.063-1.432-1.799
			s-0.367-1.648-0.203-2.739l6.459-46.035c0.217-1.417,1.008-2.739,2.371-3.966c1.362-1.227,2.943-1.84,4.742-1.84h22.16
			c1.416,0,2.602,0.478,3.557,1.431c0.953,0.955,1.431,2.058,1.431,3.312c0,1.635-0.654,2.984-1.962,4.047
			c-1.309,1.063-2.809,1.595-4.498,1.595H65.959l-1.881,13.165h15.455c1.361,0,2.534,0.437,3.516,1.308
			c0.981,0.873,1.472,1.991,1.472,3.353c0,1.582-0.642,2.931-1.921,4.048c-1.281,1.118-2.795,1.676-4.539,1.676H62.607
			l-1.881,13.329h17.825c1.417,0,2.616,0.45,3.598,1.349S83.621,89.542,83.621,90.795z"/>
		<path fill="#11374F" d="M117.309,78.857c0-1.417-0.3-2.453-0.898-3.107c-0.602-0.654-1.2-1.117-1.799-1.39
			c-0.818-0.381-1.691-0.763-2.617-1.145c-0.928-0.38-1.936-0.736-3.025-1.063c-1.745-0.599-3.475-1.227-5.192-1.88
			c-1.717-0.654-3.271-1.525-4.661-2.617c-1.39-1.09-2.508-2.439-3.352-4.047c-0.846-1.607-1.268-3.639-1.268-6.092
			c0-2.944,0.518-5.614,1.553-8.013c1.035-2.398,2.494-4.428,4.375-6.092c1.881-1.662,4.156-2.944,6.828-3.843
			c2.67-0.899,5.613-1.349,8.83-1.349c1.146,0,2.589,0.096,4.334,0.286c1.744,0.192,3.447,0.532,5.111,1.022
			c1.662,0.49,3.078,1.186,4.252,2.085c1.171,0.899,1.758,2.058,1.758,3.475c0,1.418-0.602,2.712-1.799,3.884
			c-1.2,1.173-2.781,1.758-4.743,1.758c-0.764,0-1.431-0.082-2.003-0.246s-1.186-0.38-1.84-0.654
			c-0.764-0.272-1.609-0.544-2.535-0.818c-0.928-0.272-2.1-0.409-3.516-0.409c-1.092,0-2.167,0.11-3.23,0.327
			c-1.063,0.218-2.003,0.6-2.82,1.145c-0.818,0.545-1.473,1.281-1.963,2.208c-0.49,0.928-0.736,2.073-0.736,3.435
			c0,1.472,0.313,2.535,0.941,3.189c0.625,0.654,1.238,1.118,1.84,1.39c0.98,0.545,1.934,0.981,2.861,1.308
			c0.926,0.327,1.826,0.627,2.698,0.899c1.744,0.545,3.487,1.173,5.233,1.881c1.744,0.709,3.312,1.608,4.701,2.698
			c1.391,1.091,2.507,2.44,3.354,4.047c0.844,1.608,1.267,3.612,1.267,6.01c0,3.162-0.601,5.998-1.799,8.504
			c-1.2,2.508-2.835,4.62-4.906,6.337c-2.072,1.717-4.511,3.04-7.317,3.966c-2.809,0.926-5.82,1.39-9.036,1.39
			c-1.472,0-3.147-0.137-5.028-0.409c-1.881-0.273-3.667-0.695-5.355-1.268c-1.691-0.572-3.121-1.335-4.293-2.29
			c-1.174-0.953-1.758-2.085-1.758-3.393c0-0.708,0.163-1.403,0.49-2.085c0.326-0.681,0.776-1.28,1.35-1.799
			c0.572-0.517,1.227-0.94,1.962-1.267s1.513-0.491,2.33-0.491c0.6,0,1.227,0.096,1.881,0.286c0.654,0.192,1.362,0.423,2.126,0.695
			c0.926,0.327,2.03,0.683,3.312,1.063c1.28,0.382,2.793,0.573,4.538,0.573c3.16,0,5.547-0.708,7.154-2.126
			C116.504,83.41,117.309,81.42,117.309,78.857z"/>
		<path fill="#11374F" d="M142.574,93.494c-0.601,1.199-1.486,2.14-2.658,2.821s-2.248,1.022-3.229,1.022
			c-1.473,0-2.713-0.423-3.721-1.267c-1.01-0.845-1.514-1.976-1.514-3.394c0-0.381,0.068-0.804,0.205-1.268
			c0.135-0.462,0.258-0.831,0.367-1.104l22.486-46.526c0.764-1.581,1.689-2.903,2.781-3.966c1.09-1.063,2.615-1.595,4.578-1.595
			s3.365,0.519,4.211,1.554c0.845,1.036,1.432,2.371,1.758,4.007l9.404,46.526v0.899c0,1.854-0.654,3.339-1.963,4.456
			s-2.861,1.676-4.66,1.676c-1.092,0-2.141-0.355-3.148-1.063c-1.01-0.708-1.65-1.635-1.922-2.78l-1.717-8.259h-17.335
			L142.574,93.494z M159.99,61.932c-0.219-1.199-0.326-2.521-0.326-3.966c0-1.444,0-2.793,0-4.047
			c-0.328,1.254-0.709,2.604-1.145,4.047c-0.438,1.445-0.928,2.767-1.473,3.966l-6.296,13.982h11.447L159.99,61.932z"/>
		<path fill="#11374F" d="M195.477,92.104c-0.219,1.418-0.954,2.645-2.208,3.679c-1.254,1.035-2.671,1.554-4.252,1.554
			s-2.861-0.519-3.843-1.554c-0.981-1.035-1.363-2.261-1.145-3.679l6.623-47.425c0.217-1.417,1.008-2.739,2.371-3.966
			c1.362-1.227,2.943-1.84,4.743-1.84h22.158c1.417,0,2.617,0.478,3.599,1.431c0.98,0.955,1.472,2.059,1.472,3.312
			c0,1.635-0.669,2.984-2.004,4.047c-1.336,1.063-2.849,1.594-4.538,1.594h-17.008l-1.799,13.247h15.454
			c1.309,0,2.453,0.437,3.435,1.308c0.981,0.873,1.472,1.991,1.472,3.353c0,1.582-0.627,2.931-1.881,4.048
			c-1.254,1.118-2.753,1.676-4.497,1.676h-15.454L195.477,92.104z"/>
		<path fill="#11374F" d="M232.844,43.452c0.218-1.417,0.953-2.644,2.208-3.68c1.254-1.035,2.67-1.554,4.252-1.554
			c1.58,0,2.862,0.519,3.843,1.554c0.981,1.036,1.362,2.263,1.146,3.68l-6.787,48.652c-0.219,1.418-0.954,2.645-2.208,3.679
			c-1.254,1.035-2.671,1.554-4.252,1.554s-2.861-0.519-3.843-1.554c-0.981-1.035-1.363-2.261-1.145-3.679L232.844,43.452z"/>
		<path fill="#11374F" d="M266.941,97.337c-3.544,0-6.569-0.56-9.076-1.676c-2.508-1.117-4.512-2.643-6.01-4.579
			c-1.5-1.934-2.508-4.211-3.025-6.828c-0.519-2.616-0.56-5.423-0.123-8.422l2.208-16.19c0.436-2.889,1.227-5.628,2.371-8.218
			c1.145-2.588,2.698-4.865,4.661-6.828c1.962-1.962,4.374-3.516,7.236-4.661c2.861-1.145,6.2-1.717,10.017-1.717
			c3.814,0,6.991,0.572,9.525,1.717c2.535,1.145,4.511,2.698,5.929,4.661c1.417,1.962,2.343,4.239,2.78,6.828
			c0.436,2.59,0.436,5.329,0,8.218l-2.208,16.19c-0.438,2.999-1.281,5.806-2.535,8.422c-1.255,2.617-2.902,4.894-4.946,6.828
			c-2.045,1.936-4.471,3.462-7.277,4.579C273.659,96.777,270.484,97.337,266.941,97.337z M273.729,48.604
			c-3.599,0-6.27,1.009-8.014,3.025c-1.745,2.017-2.862,4.689-3.353,8.013l-2.208,16.19c-0.49,3.271-0.096,5.942,1.186,8.013
			c1.28,2.072,3.611,3.107,6.991,3.107s6.011-1.035,7.891-3.107c1.881-2.071,3.066-4.743,3.558-8.013l2.207-16.19
			c0.491-3.324,0.136-5.996-1.063-8.013C279.724,49.613,277.326,48.604,273.729,48.604z"/>
		<path fill="#11374F" d="M323.441,78.857c0-1.417-0.3-2.453-0.899-3.107c-0.6-0.654-1.199-1.117-1.799-1.39
			c-0.817-0.381-1.689-0.763-2.616-1.145c-0.928-0.38-1.936-0.736-3.025-1.063c-1.745-0.599-3.476-1.227-5.192-1.88
			c-1.717-0.654-3.271-1.525-4.66-2.617c-1.391-1.09-2.509-2.439-3.353-4.047c-0.847-1.607-1.268-3.639-1.268-6.092
			c0-2.944,0.518-5.614,1.554-8.013c1.034-2.398,2.493-4.428,4.374-6.092c1.881-1.662,4.156-2.944,6.828-3.843
			c2.67-0.899,5.613-1.349,8.831-1.349c1.145,0,2.588,0.096,4.333,0.286c1.744,0.192,3.447,0.532,5.11,1.022
			c1.662,0.49,3.079,1.186,4.252,2.085c1.172,0.899,1.759,2.058,1.759,3.475c0,1.418-0.601,2.712-1.8,3.884
			c-1.199,1.173-2.779,1.758-4.742,1.758c-0.764,0-1.431-0.082-2.003-0.246s-1.186-0.38-1.84-0.654
			c-0.765-0.272-1.608-0.544-2.535-0.818c-0.928-0.272-2.099-0.409-3.516-0.409c-1.092,0-2.167,0.11-3.23,0.327
			c-1.063,0.218-2.003,0.6-2.82,1.145c-0.818,0.545-1.472,1.281-1.963,2.208c-0.49,0.928-0.735,2.073-0.735,3.435
			c0,1.472,0.313,2.535,0.94,3.189c0.626,0.654,1.239,1.118,1.839,1.39c0.981,0.545,1.935,0.981,2.862,1.308
			c0.927,0.327,1.826,0.627,2.698,0.899c1.744,0.545,3.488,1.173,5.233,1.881c1.744,0.709,3.312,1.608,4.701,2.698
			c1.391,1.091,2.507,2.44,3.353,4.047c0.845,1.608,1.268,3.612,1.268,6.01c0,3.162-0.601,5.998-1.799,8.504
			c-1.199,2.508-2.835,4.62-4.906,6.337c-2.072,1.717-4.511,3.04-7.318,3.966s-5.819,1.39-9.035,1.39
			c-1.472,0-3.147-0.137-5.028-0.409c-1.881-0.273-3.667-0.695-5.356-1.268s-3.121-1.335-4.292-2.29
			c-1.173-0.953-1.759-2.085-1.759-3.393c0-0.708,0.164-1.403,0.491-2.085c0.327-0.681,0.776-1.28,1.349-1.799
			c0.572-0.517,1.227-0.94,1.963-1.267c0.735-0.327,1.513-0.491,2.33-0.491c0.6,0,1.227,0.096,1.881,0.286
			c0.654,0.192,1.362,0.423,2.126,0.695c0.926,0.327,2.03,0.683,3.312,1.063c1.28,0.382,2.793,0.573,4.538,0.573
			c3.161,0,5.546-0.708,7.154-2.126C322.637,83.41,323.441,81.42,323.441,78.857z"/>
	</g>
</g>
</svg>
