<?xml version="1.0" encoding="utf-8"?>
<!-- Generator: Adobe Illustrator 16.0.0, SVG Export Plug-In . SVG Version: 6.00 Build 0)  -->
<!DOCTYPE svg PUBLIC "-//W3C//DTD SVG 1.1//EN" "http://www.w3.org/Graphics/SVG/1.1/DTD/svg11.dtd">
<svg version="1.1" id="Layer_1" xmlns="http://www.w3.org/2000/svg" xmlns:xlink="http://www.w3.org/1999/xlink" x="0px" y="0px"
	 width="376.401px" height="136.887px" viewBox="0 0 376.401 136.887" enable-background="new 0 0 376.401 136.887"
	 xml:space="preserve">
<g>
	<g>
		<path fill="#11374F" d="M48.733,75.108c-0.382,2.89-1.186,5.67-2.412,8.34c-1.227,2.671-2.958,5.029-5.192,7.073
			c-2.235,2.044-5.028,3.679-8.381,4.906s-7.346,1.84-11.979,1.84h-9.24c-1.745,0-3.162-0.585-4.252-1.758
			c-1.092-1.172-1.527-2.548-1.309-4.129l6.46-45.954c0.218-1.581,1.049-2.957,2.494-4.129c1.443-1.171,3.038-1.758,4.783-1.758
			h9.239c4.633,0,8.449,0.586,11.447,1.758c2.998,1.173,5.342,2.753,7.033,4.743c1.688,1.991,2.779,4.28,3.27,6.869
			c0.491,2.589,0.518,5.302,0.082,8.136L48.733,75.108z M39.33,61.044c0.217-1.581,0.217-3.038,0-4.375
			c-0.219-1.335-0.736-2.507-1.553-3.516c-0.818-1.008-1.95-1.799-3.395-2.371s-3.284-0.859-5.519-0.859h-5.561L18.07,86.883h5.561
			c2.234,0,4.17-0.313,5.806-0.94c1.636-0.626,2.997-1.472,4.089-2.535c1.09-1.063,1.934-2.302,2.534-3.72
			c0.599-1.417,1.009-2.944,1.227-4.579L39.33,61.044z"/>
		<path fill="#11374F" d="M96.895,77.643c-0.382,2.944-1.214,5.656-2.494,8.136c-1.281,2.481-2.931,4.634-4.947,6.459
			c-2.017,1.827-4.374,3.244-7.072,4.252c-2.698,1.008-5.656,1.513-8.872,1.513c-3.271,0-6.12-0.519-8.544-1.554
			c-2.427-1.035-4.375-2.453-5.848-4.252c-1.471-1.799-2.48-3.938-3.025-6.418c-0.545-2.48-0.627-5.192-0.244-8.136l4.66-33.361
			c0.272-1.581,1.035-2.875,2.289-3.884c1.254-1.008,2.699-1.513,4.334-1.513c1.525,0,2.766,0.532,3.721,1.595
			c0.953,1.063,1.321,2.33,1.104,3.802l-4.66,33.361c-0.438,2.944-0.041,5.343,1.186,7.196c1.227,1.854,3.393,2.78,6.5,2.78
			s5.506-0.926,7.195-2.78c1.689-1.853,2.752-4.252,3.189-7.196l4.66-33.361c0.218-1.417,0.953-2.67,2.209-3.762
			c1.253-1.089,2.67-1.635,4.252-1.635c1.688,0,3.011,0.546,3.965,1.635c0.953,1.091,1.321,2.345,1.104,3.762L96.895,77.643z"/>
		<path fill="#11374F" d="M139.495,91.462c0,1.582-0.654,2.944-1.962,4.088c-1.309,1.145-2.809,1.717-4.498,1.717h-21.668
			c-0.981,0-1.922-0.095-2.821-0.286c-0.899-0.19-1.676-0.518-2.33-0.981c-0.654-0.462-1.132-1.063-1.431-1.799
			c-0.301-0.736-0.368-1.648-0.205-2.739l6.46-46.035c0.218-1.417,1.008-2.739,2.371-3.966c1.362-1.227,2.944-1.84,4.743-1.84
			h22.158c1.417,0,2.603,0.478,3.558,1.431c0.953,0.955,1.431,2.058,1.431,3.312c0,1.635-0.654,2.984-1.963,4.047
			c-1.308,1.063-2.808,1.595-4.497,1.595h-17.007l-1.881,13.165h15.454c1.361,0,2.534,0.437,3.516,1.308
			c0.981,0.873,1.472,1.991,1.472,3.353c0,1.582-0.642,2.931-1.922,4.048c-1.281,1.118-2.794,1.676-4.538,1.676H118.48L116.6,86.883
			h17.826c1.417,0,2.616,0.45,3.598,1.349S139.495,90.208,139.495,91.462z"/>
		<path fill="#11374F" d="M181.278,91.544c0,1.582-0.627,2.931-1.881,4.047c-1.255,1.118-2.727,1.676-4.415,1.676h-23.059
			c-1.636,0-2.999-0.544-4.089-1.635c-1.091-1.09-1.526-2.425-1.308-4.007l6.704-47.507c0.218-1.417,0.953-2.644,2.208-3.68
			c1.254-1.035,2.67-1.554,4.252-1.554c1.58,0,2.862,0.519,3.843,1.554c0.981,1.036,1.362,2.263,1.146,3.68l-6.051,42.846h17.743
			c1.417,0,2.589,0.437,3.517,1.308C180.814,89.146,181.278,90.235,181.278,91.544z"/>
		<path fill="#11374F" d="M205.89,98.003c-3.544,0-6.569-0.56-9.076-1.676c-2.508-1.117-4.512-2.643-6.01-4.579
			c-1.5-1.934-2.508-4.211-3.025-6.828c-0.519-2.616-0.56-5.423-0.123-8.422l2.208-16.19c0.436-2.889,1.227-5.628,2.371-8.218
			c1.145-2.588,2.698-4.865,4.661-6.828c1.962-1.962,4.374-3.516,7.236-4.661c2.861-1.145,6.2-1.717,10.017-1.717
			c3.814,0,6.991,0.572,9.525,1.717c2.535,1.145,4.511,2.698,5.929,4.661c1.417,1.962,2.343,4.239,2.78,6.828
			c0.436,2.59,0.436,5.329,0,8.218l-2.208,16.19c-0.438,2.999-1.281,5.806-2.535,8.422c-1.255,2.617-2.902,4.894-4.946,6.828
			c-2.045,1.936-4.471,3.462-7.277,4.579C212.607,97.444,209.433,98.003,205.89,98.003z M212.677,49.27
			c-3.599,0-6.27,1.009-8.014,3.025c-1.745,2.017-2.862,4.689-3.353,8.013l-2.208,16.19c-0.49,3.271-0.096,5.942,1.186,8.013
			c1.28,2.072,3.611,3.107,6.991,3.107s6.011-1.035,7.891-3.107c1.881-2.071,3.066-4.743,3.558-8.013l2.207-16.19
			c0.491-3.324,0.136-5.996-1.063-8.013C218.672,50.279,216.274,49.27,212.677,49.27z"/>
		<path fill="#11374F" d="M262.39,79.524c0-1.417-0.3-2.453-0.899-3.107c-0.6-0.654-1.199-1.117-1.799-1.39
			c-0.817-0.381-1.689-0.763-2.616-1.145c-0.928-0.38-1.936-0.736-3.025-1.063c-1.745-0.599-3.476-1.227-5.192-1.88
			c-1.717-0.654-3.271-1.525-4.66-2.617c-1.391-1.09-2.509-2.439-3.353-4.047c-0.847-1.607-1.268-3.639-1.268-6.092
			c0-2.944,0.518-5.614,1.554-8.013c1.034-2.398,2.493-4.428,4.374-6.092c1.881-1.662,4.156-2.944,6.828-3.843
			c2.67-0.899,5.613-1.349,8.831-1.349c1.145,0,2.588,0.096,4.333,0.286c1.744,0.192,3.447,0.532,5.11,1.022
			c1.662,0.49,3.079,1.186,4.252,2.085c1.172,0.899,1.759,2.058,1.759,3.475c0,1.418-0.601,2.712-1.8,3.884
			c-1.199,1.173-2.779,1.758-4.742,1.758c-0.764,0-1.431-0.082-2.003-0.246s-1.186-0.38-1.84-0.654
			c-0.765-0.272-1.608-0.544-2.535-0.818c-0.928-0.272-2.099-0.409-3.516-0.409c-1.092,0-2.167,0.11-3.23,0.327
			c-1.063,0.218-2.003,0.6-2.82,1.145c-0.818,0.545-1.472,1.281-1.963,2.208c-0.49,0.928-0.735,2.073-0.735,3.435
			c0,1.472,0.313,2.535,0.94,3.189c0.626,0.654,1.239,1.118,1.839,1.39c0.981,0.545,1.935,0.981,2.862,1.308
			c0.927,0.327,1.826,0.627,2.698,0.899c1.744,0.545,3.488,1.173,5.233,1.881c1.744,0.709,3.312,1.608,4.701,2.698
			c1.391,1.091,2.507,2.44,3.353,4.047c0.845,1.608,1.268,3.612,1.268,6.01c0,3.162-0.601,5.998-1.799,8.504
			c-1.199,2.508-2.835,4.62-4.906,6.337c-2.072,1.717-4.511,3.04-7.318,3.966s-5.819,1.39-9.035,1.39
			c-1.472,0-3.147-0.137-5.028-0.409c-1.881-0.273-3.667-0.695-5.356-1.268s-3.121-1.335-4.292-2.29
			c-1.173-0.953-1.759-2.085-1.759-3.393c0-0.708,0.164-1.403,0.491-2.085c0.327-0.681,0.776-1.28,1.349-1.799
			c0.572-0.517,1.227-0.94,1.963-1.267c0.735-0.327,1.513-0.491,2.33-0.491c0.6,0,1.227,0.096,1.881,0.286
			c0.654,0.192,1.362,0.423,2.126,0.695c0.926,0.327,2.03,0.683,3.312,1.063c1.28,0.382,2.793,0.573,4.538,0.573
			c3.161,0,5.546-0.708,7.154-2.126C261.585,84.076,262.39,82.087,262.39,79.524z"/>
	</g>
	<g>
		<g>
			<path fill="#E42620" d="M321.667,32.036c-1.674,0-3.327-0.762-4.407-2.205c-1.82-2.432-1.324-5.879,1.107-7.699l28.106-21.035
				c2.434-1.82,5.879-1.324,7.699,1.108s1.324,5.879-1.107,7.699l-28.106,21.035C323.97,31.678,322.813,32.036,321.667,32.036z"/>
		</g>
		<g>
			<path fill="#E42620" d="M346.65,136.887c-1.146,0-2.303-0.357-3.292-1.097l-28.105-21.035c-2.432-1.82-2.928-5.267-1.107-7.699
				s5.267-2.928,7.699-1.108l28.105,21.035c2.432,1.82,2.928,5.267,1.107,7.699C349.978,136.125,348.324,136.887,346.65,136.887z"/>
		</g>
		<g>
			<path fill="#E42620" d="M370.901,71.57h-38c-3.037,0-5.5-2.462-5.5-5.5s2.463-5.5,5.5-5.5h38c3.037,0,5.5,2.462,5.5,5.5
				S373.938,71.57,370.901,71.57z"/>
		</g>
	</g>
</g>
</svg>
