<?xml version="1.0" encoding="utf-8"?>
<!-- Generator: Adobe Illustrator 16.0.0, SVG Export Plug-In . SVG Version: 6.00 Build 0)  -->
<!DOCTYPE svg PUBLIC "-//W3C//DTD SVG 1.1//EN" "http://www.w3.org/Graphics/SVG/1.1/DTD/svg11.dtd">
<svg version="1.1" id="Layer_1" xmlns="http://www.w3.org/2000/svg" xmlns:xlink="http://www.w3.org/1999/xlink" x="0px" y="0px"
	 width="320.207px" height="136.887px" viewBox="0 0 320.207 136.887" enable-background="new 0 0 320.207 136.887"
	 xml:space="preserve">
<g>
	<g>
		<g>
			<path fill="#3F71B0" d="M5.616,97.601c-1.799,0-3.229-0.585-4.293-1.758c-1.063-1.172-1.485-2.548-1.268-4.13l6.46-45.871
				c0.272-1.689,1.104-3.094,2.494-4.211c1.39-1.117,2.956-1.677,4.701-1.677H27.53c2.779,0,5.205,0.396,7.277,1.186
				c2.07,0.791,3.773,1.84,5.11,3.148c1.335,1.309,2.33,2.809,2.984,4.497c0.654,1.69,0.981,3.463,0.981,5.315
				c0,1.745-0.273,3.299-0.818,4.66c-0.545,1.363-1.281,2.59-2.207,3.68c-0.928,1.091-2.018,2.059-3.271,2.902
				c-1.254,0.847-2.616,1.595-4.088,2.249c1.09,0.49,2.139,1.063,3.148,1.717c1.008,0.654,1.907,1.445,2.698,2.372
				c0.789,0.927,1.431,1.976,1.921,3.147c0.491,1.173,0.736,2.522,0.736,4.048c0,2.508-0.546,4.894-1.636,7.154
				c-1.091,2.263-2.645,4.252-4.66,5.969c-2.018,1.718-4.43,3.081-7.236,4.089c-2.809,1.01-5.929,1.513-9.363,1.513H5.616z
				 M14.202,72.988l-2.045,14.228h9.158c3.053,0,5.342-0.722,6.868-2.167c1.526-1.443,2.29-3.393,2.29-5.846
				c0-1.963-0.613-3.488-1.84-4.579c-1.227-1.09-2.821-1.636-4.783-1.636H14.202z M25.077,62.522c0.763,0,1.58-0.149,2.453-0.45
				c0.871-0.299,1.662-0.748,2.371-1.349c0.708-0.6,1.294-1.362,1.758-2.29c0.463-0.926,0.695-2.016,0.695-3.271
				c0-1.309-0.368-2.453-1.104-3.435c-0.735-0.98-2.031-1.472-3.884-1.472h-9.976l-1.717,12.266H25.077z"/>
			<path fill="#3F71B0" d="M55.165,94.493c-0.601,1.2-1.485,2.141-2.657,2.821c-1.173,0.681-2.248,1.022-3.229,1.022
				c-1.472,0-2.713-0.423-3.721-1.268c-1.009-0.845-1.513-1.976-1.513-3.394c0-0.381,0.067-0.804,0.204-1.268
				c0.136-0.462,0.259-0.83,0.368-1.104l22.486-46.526c0.763-1.58,1.689-2.902,2.78-3.966c1.09-1.063,2.616-1.594,4.579-1.594
				c1.962,0,3.365,0.519,4.211,1.554c0.845,1.036,1.431,2.371,1.758,4.006l9.403,46.526v0.899c0,1.854-0.654,3.34-1.963,4.456
				c-1.308,1.117-2.861,1.677-4.66,1.677c-1.091,0-2.141-0.355-3.148-1.063c-1.009-0.708-1.649-1.636-1.921-2.78l-1.718-8.258H59.09
				L55.165,94.493z M72.582,62.931c-0.219-1.198-0.327-2.521-0.327-3.966c0-1.443,0-2.792,0-4.047
				c-0.327,1.255-0.709,2.604-1.145,4.047c-0.438,1.445-0.928,2.768-1.472,3.966l-6.297,13.982H74.79L72.582,62.931z"/>
			<path fill="#3F71B0" d="M131.372,98.337c-1.091,0-2.1-0.26-3.025-0.777c-0.928-0.518-1.608-1.212-2.044-2.085L111.911,62.44
				l-4.252,30.581c-0.219,1.418-0.969,2.657-2.249,3.721c-1.281,1.063-2.712,1.595-4.292,1.595c-1.582,0-2.85-0.532-3.803-1.595
				c-0.954-1.063-1.322-2.303-1.104-3.721l6.786-48.243c0.218-1.58,0.953-2.902,2.208-3.966c1.254-1.063,2.752-1.594,4.497-1.594
				c1.09,0,2.112,0.273,3.066,0.817c0.953,0.546,1.648,1.281,2.085,2.208c1.417,3.162,2.685,6.051,3.803,8.667
				c1.116,2.616,2.221,5.192,3.312,7.728c1.09,2.534,2.208,5.151,3.353,7.85s2.425,5.683,3.843,8.953l4.334-30.908
				c0.217-1.417,0.967-2.657,2.248-3.721c1.28-1.063,2.712-1.594,4.293-1.594s2.848,0.531,3.803,1.594
				c0.953,1.063,1.32,2.304,1.104,3.721l-6.787,48.243c-0.218,1.526-0.954,2.835-2.207,3.925
				C134.696,97.791,133.171,98.337,131.372,98.337z"/>
			<path fill="#3F71B0" d="M159.908,76.832c-0.49,3.488-0.15,6.269,1.022,8.34c1.172,2.072,3.584,3.107,7.236,3.107
				c1.309,0,2.521-0.177,3.639-0.531c1.117-0.354,2.221-0.831,3.312-1.432l0.981-0.49c0.6-0.272,1.131-0.544,1.595-0.817
				c0.462-0.272,1.157-0.409,2.085-0.409c1.417,0,2.562,0.437,3.434,1.309s1.309,1.908,1.309,3.106c0,1.255-0.519,2.44-1.554,3.558
				c-1.036,1.117-2.412,2.099-4.129,2.943c-1.717,0.846-3.667,1.513-5.847,2.003c-2.181,0.491-4.415,0.736-6.705,0.736
				c-3.598,0-6.623-0.505-9.076-1.513s-4.402-2.453-5.846-4.334c-1.445-1.881-2.399-4.142-2.862-6.786
				c-0.464-2.644-0.478-5.573-0.041-8.79l2.29-16.19c0.436-3.216,1.253-6.146,2.452-8.79c1.199-2.644,2.793-4.906,4.784-6.787
				c1.989-1.88,4.36-3.324,7.113-4.333c2.752-1.009,5.929-1.513,9.526-1.513c2.071,0,4.06,0.218,5.969,0.653
				c1.907,0.438,3.584,1.037,5.028,1.8c1.444,0.764,2.589,1.635,3.435,2.616c0.845,0.981,1.268,2.044,1.268,3.188
				c0,1.419-0.601,2.672-1.799,3.762c-1.2,1.091-2.645,1.636-4.334,1.636c-0.928,0-1.595-0.123-2.003-0.368
				c-0.409-0.245-0.858-0.531-1.35-0.858l-0.735-0.491c-0.928-0.599-1.909-1.075-2.944-1.431c-1.036-0.354-2.207-0.531-3.516-0.531
				c-3.708,0-6.419,1.021-8.136,3.066c-1.717,2.044-2.821,4.838-3.312,8.381L159.908,76.832z"/>
			<path fill="#3F71B0" d="M209.95,98.337c-3.544,0-6.569-0.56-9.076-1.677c-2.508-1.116-4.512-2.644-6.01-4.579
				c-1.5-1.935-2.508-4.211-3.025-6.827c-0.519-2.617-0.56-5.424-0.123-8.422l2.208-16.19c0.436-2.889,1.227-5.628,2.371-8.218
				c1.145-2.589,2.698-4.865,4.661-6.827c1.962-1.963,4.374-3.517,7.236-4.661c2.861-1.145,6.2-1.717,10.017-1.717
				c3.814,0,6.991,0.572,9.525,1.717c2.535,1.145,4.511,2.698,5.929,4.661c1.417,1.962,2.343,4.238,2.78,6.827
				c0.436,2.59,0.436,5.329,0,8.218l-2.208,16.19c-0.438,2.998-1.281,5.805-2.535,8.422c-1.255,2.616-2.902,4.893-4.946,6.827
				c-2.045,1.936-4.471,3.463-7.277,4.579C216.668,97.777,213.493,98.337,209.95,98.337z M216.737,49.603
				c-3.599,0-6.27,1.01-8.014,3.025c-1.745,2.018-2.862,4.689-3.353,8.014l-2.208,16.19c-0.49,3.271-0.096,5.941,1.186,8.013
				c1.28,2.072,3.611,3.107,6.991,3.107s6.011-1.035,7.891-3.107c1.881-2.071,3.066-4.742,3.558-8.013l2.207-16.19
				c0.491-3.324,0.136-5.996-1.063-8.014C222.732,50.612,220.335,49.603,216.737,49.603z"/>
		</g>
	</g>
	<g>
		<g>
			<g>
				<path fill="#E5452F" d="M264.89,32.036c-1.675,0-3.328-0.762-4.408-2.205c-1.82-2.432-1.324-5.878,1.108-7.699l28.105-21.036
					c2.432-1.82,5.879-1.324,7.698,1.108c1.82,2.432,1.324,5.878-1.107,7.699l-28.105,21.036
					C267.192,31.679,266.036,32.036,264.89,32.036z"/>
			</g>
		</g>
		<g>
			<g>
				<path fill="#E5452F" d="M289.872,136.887c-1.146,0-2.303-0.357-3.291-1.097l-28.105-21.035c-2.433-1.82-2.929-5.267-1.108-7.699
					c1.82-2.432,5.268-2.928,7.699-1.108l28.105,21.035c2.432,1.82,2.928,5.267,1.107,7.699
					C293.199,136.125,291.546,136.887,289.872,136.887z"/>
			</g>
		</g>
		<g>
			<g>
				<path fill="#E5452F" d="M314.707,71.57h-38c-3.038,0-5.5-2.462-5.5-5.5s2.462-5.5,5.5-5.5h38c3.037,0,5.5,2.462,5.5,5.5
					S317.744,71.57,314.707,71.57z"/>
			</g>
		</g>
	</g>
</g>
</svg>
