<?xml version="1.0" encoding="utf-8"?>
<!-- Generator: Adobe Illustrator 16.0.0, SVG Export Plug-In . SVG Version: 6.00 Build 0)  -->
<!DOCTYPE svg PUBLIC "-//W3C//DTD SVG 1.1//EN" "http://www.w3.org/Graphics/SVG/1.1/DTD/svg11.dtd">
<svg version="1.1" id="Layer_1" xmlns="http://www.w3.org/2000/svg" xmlns:xlink="http://www.w3.org/1999/xlink" x="0px" y="0px"
	 width="537.555px" height="141.224px" viewBox="0 0 537.555 141.224" enable-background="new 0 0 537.555 141.224"
	 xml:space="preserve">
<g>
	<g>
		<g>
			<path fill="#E52620" d="M26.284,136.886c-1.674,0-3.327-0.762-4.407-2.205c-1.82-2.432-1.324-5.878,1.107-7.699l28.105-21.035
				c2.434-1.82,5.879-1.324,7.699,1.108s1.324,5.878-1.107,7.699l-28.105,21.035C28.587,136.529,27.431,136.886,26.284,136.886z"/>
		</g>
		<g>
			<path fill="#E52620" d="M57.496,32.036c-1.147,0-2.303-0.357-3.292-1.097L26.099,9.903c-2.432-1.82-2.928-5.267-1.107-7.699
				c1.82-2.433,5.267-2.927,7.699-1.108l28.105,21.035c2.432,1.82,2.928,5.267,1.107,7.699
				C60.823,31.274,59.17,32.036,57.496,32.036z"/>
		</g>
		<g>
			<path fill="#E52620" d="M43.5,76.58h-38c-3.037,0-5.5-2.462-5.5-5.5s2.463-5.5,5.5-5.5h38c3.037,0,5.5,2.462,5.5,5.5
				S46.537,76.58,43.5,76.58z"/>
		</g>
	</g>
	<g>
		<g>
			<path fill="#12384F" d="M125.267,86.84c0,1.582-0.654,2.943-1.962,4.089c-1.309,1.145-2.809,1.717-4.498,1.717H97.139
				c-0.981,0-1.922-0.095-2.821-0.286c-0.899-0.19-1.676-0.518-2.33-0.981c-0.654-0.462-1.132-1.063-1.431-1.799
				c-0.301-0.735-0.368-1.648-0.205-2.739l6.46-46.035c0.217-1.417,1.008-2.739,2.371-3.966c1.362-1.227,2.943-1.84,4.743-1.84
				h22.158c1.417,0,2.603,0.479,3.558,1.432c0.953,0.954,1.431,2.058,1.431,3.312c0,1.635-0.654,2.984-1.963,4.047
				c-1.308,1.063-2.808,1.595-4.497,1.595h-17.008l-1.88,13.165h15.454c1.361,0,2.534,0.437,3.516,1.308
				c0.981,0.873,1.472,1.991,1.472,3.353c0,1.582-0.642,2.931-1.922,4.048c-1.281,1.118-2.794,1.676-4.538,1.676h-15.454
				l-1.88,13.328h17.825c1.417,0,2.616,0.45,3.598,1.35S125.267,85.587,125.267,86.84z"/>
			<path fill="#12384F" d="M171.3,38.106c0.6-1.145,1.499-2.071,2.698-2.78c1.199-0.708,2.344-1.063,3.435-1.063
				c1.525,0,2.767,0.423,3.721,1.267c0.953,0.847,1.431,1.95,1.431,3.313c0,0.437-0.055,0.886-0.163,1.349
				c-0.11,0.464-0.219,0.832-0.327,1.104l-22.486,46.526c-0.764,1.636-1.717,2.972-2.862,4.007c-1.145,1.034-2.698,1.554-4.66,1.554
				c-1.963,0-3.34-0.532-4.13-1.595c-0.79-1.063-1.349-2.384-1.676-3.966l-9.403-46.526c0-0.108-0.014-0.258-0.041-0.449
				c-0.028-0.19-0.041-0.34-0.041-0.45c0-1.907,0.682-3.405,2.044-4.497c1.362-1.09,2.916-1.635,4.661-1.635
				c0.981,0,1.963,0.341,2.943,1.021c0.981,0.683,1.607,1.623,1.881,2.821l5.643,31.563c0.217,1.199,0.34,2.521,0.367,3.966
				s0.013,2.794-0.041,4.047c0.381-1.253,0.777-2.603,1.187-4.047c0.408-1.444,0.885-2.767,1.431-3.966L171.3,38.106z"/>
			<path fill="#12384F" d="M200.572,93.382c-3.544,0-6.569-0.56-9.076-1.677c-2.508-1.116-4.512-2.644-6.01-4.579
				c-1.5-1.935-2.508-4.211-3.025-6.827c-0.519-2.617-0.56-5.424-0.123-8.422l2.208-16.19c0.436-2.889,1.227-5.628,2.371-8.218
				c1.145-2.589,2.698-4.865,4.661-6.827c1.962-1.963,4.374-3.517,7.236-4.661c2.861-1.145,6.2-1.717,10.017-1.717
				c3.814,0,6.991,0.572,9.525,1.717c2.535,1.145,4.511,2.698,5.929,4.661c1.417,1.962,2.343,4.238,2.78,6.827
				c0.436,2.59,0.436,5.329,0,8.218l-2.208,16.19c-0.438,2.998-1.281,5.805-2.535,8.422c-1.255,2.616-2.902,4.893-4.946,6.827
				c-2.045,1.936-4.471,3.463-7.277,4.579C207.29,92.822,204.115,93.382,200.572,93.382z M207.359,44.647
				c-3.599,0-6.27,1.01-8.014,3.025c-1.745,2.018-2.862,4.689-3.353,8.014l-2.208,16.19c-0.49,3.271-0.096,5.941,1.186,8.013
				c1.28,2.072,3.611,3.107,6.991,3.107s6.011-1.035,7.891-3.107c1.881-2.071,3.066-4.742,3.558-8.013l2.207-16.19
				c0.491-3.324,0.136-5.996-1.063-8.014C213.354,45.657,210.957,44.647,207.359,44.647z"/>
			<path fill="#12384F" d="M266.231,86.922c0,1.582-0.627,2.931-1.881,4.048c-1.255,1.117-2.727,1.676-4.415,1.676h-23.059
				c-1.636,0-2.999-0.544-4.089-1.636c-1.091-1.09-1.526-2.425-1.308-4.006l6.704-47.508c0.218-1.417,0.953-2.643,2.208-3.679
				c1.254-1.035,2.67-1.554,4.252-1.554c1.58,0,2.862,0.519,3.843,1.554c0.981,1.036,1.362,2.262,1.146,3.679l-6.051,42.847h17.743
				c1.417,0,2.589,0.437,3.516,1.309S266.231,85.613,266.231,86.922z"/>
			<path fill="#12384F" d="M313.984,73.021c-0.383,2.943-1.214,5.656-2.494,8.136c-1.281,2.481-2.931,4.634-4.947,6.46
				c-2.018,1.826-4.374,3.243-7.073,4.252c-2.698,1.008-5.655,1.513-8.871,1.513c-3.271,0-6.12-0.52-8.545-1.554
				c-2.427-1.035-4.375-2.453-5.847-4.252s-2.48-3.938-3.025-6.419c-0.545-2.479-0.627-5.192-0.245-8.136l4.661-33.361
				c0.271-1.581,1.034-2.875,2.289-3.884c1.253-1.009,2.698-1.513,4.334-1.513c1.525,0,2.766,0.531,3.72,1.594
				c0.953,1.063,1.321,2.331,1.104,3.803l-4.661,33.361c-0.437,2.943-0.041,5.343,1.186,7.195c1.227,1.854,3.394,2.78,6.501,2.78
				s5.505-0.927,7.195-2.78c1.689-1.853,2.752-4.252,3.189-7.195l4.66-33.361c0.218-1.417,0.953-2.67,2.208-3.762
				c1.253-1.09,2.67-1.635,4.252-1.635c1.688,0,3.012,0.545,3.966,1.635c0.953,1.092,1.321,2.345,1.104,3.762L313.984,73.021z"/>
			<path fill="#12384F" d="M348.735,101.313c0,1.309-0.26,2.507-0.776,3.599c-0.52,1.089-1.255,2.029-2.208,2.82
				c-0.954,0.79-2.072,1.417-3.353,1.881c-1.281,0.463-2.686,0.695-4.211,0.695c-1.091,0-2.181-0.096-3.271-0.286
				c-1.092-0.192-2.072-0.464-2.944-0.818s-1.581-0.817-2.126-1.39s-0.817-1.24-0.817-2.003c0-0.818,0.299-1.473,0.899-1.963
				c0.6-0.49,1.335-0.736,2.208-0.736c0.763,0,1.662,0.123,2.698,0.368c1.035,0.245,2.098,0.368,3.188,0.368
				c2.726,0,4.089-0.654,4.089-1.962c0-0.601-0.327-1.037-0.981-1.309c-0.654-0.273-1.772-0.546-3.353-0.817
				c-0.601-0.11-1.132-0.219-1.595-0.327c-0.463-0.11-0.831-0.273-1.104-0.491c-0.273-0.218-0.449-0.56-0.531-1.021
				c-0.082-0.464-0.041-1.133,0.122-2.004l0.899-2.861c-5.778-0.708-9.771-2.957-11.979-6.746
				c-2.208-3.788-2.902-8.599-2.085-14.432l2.289-16.19c0.436-3.216,1.254-6.146,2.453-8.79c1.198-2.644,2.793-4.906,4.783-6.787
				c1.989-1.88,4.361-3.324,7.114-4.333c2.752-1.009,5.928-1.513,9.525-1.513c2.071,0,4.048,0.218,5.929,0.653
				c1.881,0.438,3.543,1.037,4.987,1.8c1.444,0.764,2.603,1.635,3.476,2.616c0.871,0.981,1.309,2.044,1.309,3.188
				c0,1.419-0.601,2.672-1.799,3.762c-1.2,1.091-2.646,1.636-4.334,1.636c-0.928,0-1.595-0.123-2.003-0.368
				c-0.409-0.245-0.859-0.531-1.35-0.858l-0.736-0.491c-0.927-0.599-1.908-1.075-2.943-1.431c-1.036-0.354-2.208-0.531-3.516-0.531
				c-3.708,0-6.419,1.021-8.136,3.066c-1.718,2.044-2.821,4.838-3.312,8.381l-2.29,16.19c-0.49,3.488-0.163,6.269,0.981,8.34
				c1.145,2.072,3.543,3.107,7.195,3.107c1.309,0,2.535-0.177,3.68-0.531s2.262-0.831,3.353-1.432l0.981-0.49
				c0.599-0.272,1.13-0.544,1.594-0.817c0.463-0.272,1.158-0.409,2.086-0.409c1.416,0,2.562,0.437,3.434,1.309
				c0.871,0.872,1.309,1.908,1.309,3.106c0,1.146-0.438,2.222-1.309,3.23c-0.872,1.009-2.018,1.921-3.434,2.739
				c-1.419,0.817-3.066,1.5-4.947,2.044c-1.881,0.546-3.83,0.899-5.847,1.063l-0.572,2.208c2.616,0.218,4.483,0.871,5.602,1.963
				C348.176,98.396,348.735,99.731,348.735,101.313z"/>
			<path fill="#12384F" d="M373.263,89.538c-0.601,1.2-1.485,2.141-2.657,2.821c-1.173,0.681-2.248,1.022-3.229,1.022
				c-1.472,0-2.713-0.423-3.721-1.268c-1.009-0.845-1.513-1.976-1.513-3.394c0-0.381,0.067-0.804,0.204-1.268
				c0.136-0.462,0.259-0.83,0.368-1.104l22.486-46.526c0.763-1.58,1.689-2.902,2.78-3.966c1.09-1.063,2.616-1.594,4.579-1.594
				c1.962,0,3.365,0.519,4.211,1.554c0.845,1.036,1.431,2.371,1.758,4.006l9.403,46.526v0.899c0,1.854-0.654,3.34-1.963,4.456
				c-1.308,1.117-2.861,1.677-4.66,1.677c-1.091,0-2.141-0.355-3.148-1.063c-1.009-0.708-1.649-1.636-1.921-2.78l-1.718-8.258
				h-17.335L373.263,89.538z M406.869,23.307c0,0.872-0.273,1.704-0.817,2.494c-0.545,0.79-1.227,1.472-2.044,2.044
				s-1.717,1.021-2.698,1.349s-1.881,0.491-2.698,0.491c-1.092,0-2.031-0.149-2.821-0.45c-0.791-0.299-1.513-0.654-2.167-1.063
				c-0.654-0.409-1.268-0.79-1.84-1.145s-1.158-0.559-1.758-0.613c-0.601-0.109-1.104-0.014-1.513,0.286s-0.817,0.653-1.227,1.063
				s-0.846,0.777-1.309,1.104c-0.463,0.327-1.021,0.491-1.676,0.491c-0.873,0-1.649-0.299-2.33-0.899
				c-0.683-0.6-0.996-1.417-0.94-2.453c0.108-0.927,0.421-1.799,0.94-2.616c0.517-0.818,1.157-1.513,1.921-2.086
				c0.763-0.572,1.595-1.021,2.494-1.349s1.812-0.491,2.739-0.491c1.145,0,2.126,0.164,2.943,0.491
				c0.818,0.327,1.54,0.695,2.167,1.104c0.626,0.409,1.213,0.791,1.758,1.145c0.545,0.355,1.146,0.532,1.799,0.532
				c0.654,0,1.187-0.149,1.595-0.45c0.409-0.299,0.79-0.64,1.145-1.021c0.354-0.381,0.749-0.723,1.186-1.022
				c0.437-0.299,0.981-0.45,1.636-0.45c0.927,0,1.744,0.327,2.453,0.981C406.515,21.426,406.869,22.271,406.869,23.307z
				 M390.68,57.976c-0.219-1.198-0.327-2.521-0.327-3.966c0-1.443,0-2.792,0-4.047c-0.327,1.255-0.709,2.604-1.145,4.047
				c-0.438,1.445-0.928,2.768-1.472,3.966l-6.297,13.982h11.448L390.68,57.976z"/>
			<path fill="#12384F" d="M432.871,93.382c-3.544,0-6.569-0.56-9.076-1.677c-2.508-1.116-4.512-2.644-6.01-4.579
				c-1.5-1.935-2.508-4.211-3.025-6.827c-0.519-2.617-0.56-5.424-0.123-8.422l2.208-16.19c0.436-2.889,1.227-5.628,2.371-8.218
				c1.145-2.589,2.698-4.865,4.661-6.827c1.962-1.963,4.374-3.517,7.236-4.661c2.861-1.145,6.2-1.717,10.017-1.717
				c3.814,0,6.991,0.572,9.525,1.717c2.535,1.145,4.511,2.698,5.929,4.661c1.417,1.962,2.343,4.238,2.78,6.827
				c0.436,2.59,0.436,5.329,0,8.218l-2.208,16.19c-0.438,2.998-1.281,5.805-2.535,8.422c-1.255,2.616-2.902,4.893-4.946,6.827
				c-2.045,1.936-4.471,3.463-7.277,4.579C439.589,92.822,436.414,93.382,432.871,93.382z M439.658,44.647
				c-3.599,0-6.27,1.01-8.014,3.025c-1.745,2.018-2.862,4.689-3.353,8.014l-2.208,16.19c-0.49,3.271-0.096,5.941,1.186,8.013
				c1.28,2.072,3.611,3.107,6.991,3.107s6.011-1.035,7.891-3.107c1.881-2.071,3.066-4.742,3.558-8.013l2.207-16.19
				c0.491-3.324,0.136-5.996-1.063-8.014C445.653,45.657,443.256,44.647,439.658,44.647z"/>
		</g>
		<g>
			<path fill="#E30613" d="M120.793,124.421c0.102-0.806,0.309-1.555,0.619-2.247s0.729-1.292,1.256-1.798
				c0.527-0.506,1.162-0.909,1.906-1.209c0.744-0.299,1.602-0.449,2.572-0.449c0.352,0,0.76,0.026,1.225,0.077
				c0.465,0.052,0.904,0.15,1.318,0.294c0.412,0.145,0.764,0.326,1.055,0.543c0.289,0.217,0.434,0.501,0.434,0.852
				c0,0.31-0.119,0.584-0.357,0.822c-0.238,0.238-0.521,0.356-0.852,0.356c-0.084,0-0.16-0.005-0.232-0.016
				c-0.074-0.01-0.15-0.036-0.232-0.077c-0.352-0.166-0.709-0.326-1.07-0.481c-0.361-0.155-0.811-0.232-1.348-0.232
				c-1.221,0-2.129,0.31-2.729,0.93s-0.982,1.499-1.146,2.635l-0.684,4.681c-0.164,1.137-0.029,2.015,0.404,2.635
				c0.434,0.62,1.26,0.93,2.48,0.93c0.537,0,1.006-0.077,1.41-0.232c0.402-0.155,0.811-0.315,1.225-0.48
				c0.102-0.041,0.189-0.067,0.264-0.078c0.072-0.01,0.148-0.015,0.232-0.015c0.268,0,0.49,0.093,0.666,0.279
				s0.264,0.403,0.264,0.651c0,0.393-0.172,0.718-0.512,0.977c-0.342,0.259-0.75,0.465-1.225,0.62
				c-0.477,0.155-0.977,0.263-1.504,0.325s-0.977,0.093-1.348,0.093c-0.973,0-1.789-0.15-2.449-0.45
				c-0.662-0.299-1.178-0.702-1.551-1.209c-0.371-0.506-0.619-1.105-0.744-1.798c-0.123-0.692-0.123-1.441,0-2.248L120.793,124.421z
				"/>
			<path fill="#E30613" d="M137.16,134.807c-0.951,0-1.768-0.145-2.449-0.434s-1.229-0.682-1.643-1.178
				c-0.414-0.496-0.697-1.08-0.852-1.752c-0.156-0.671-0.182-1.39-0.078-2.154l0.744-5.177c0.104-0.785,0.33-1.514,0.682-2.186
				c0.352-0.671,0.807-1.256,1.363-1.751c0.559-0.496,1.215-0.884,1.969-1.163c0.754-0.279,1.607-0.418,2.559-0.418
				c0.949,0,1.766,0.139,2.449,0.418c0.682,0.279,1.229,0.667,1.643,1.163c0.412,0.496,0.697,1.08,0.852,1.751
				c0.156,0.672,0.182,1.4,0.078,2.186l-0.744,5.177c-0.104,0.765-0.326,1.483-0.666,2.154c-0.342,0.672-0.791,1.256-1.35,1.752
				c-0.557,0.496-1.219,0.889-1.982,1.178C138.969,134.662,138.111,134.807,137.16,134.807z M137.471,132.575
				c1.115,0,2-0.289,2.65-0.868c0.65-0.578,1.049-1.384,1.193-2.418l0.744-5.208c0.145-1.012-0.031-1.808-0.527-2.387
				c-0.496-0.578-1.301-0.868-2.418-0.868c-1.115,0-1.994,0.29-2.635,0.868c-0.641,0.579-1.033,1.375-1.178,2.387l-0.744,5.208
				c-0.145,1.034,0.025,1.84,0.512,2.418C135.553,132.286,136.355,132.575,137.471,132.575z"/>
			<path fill="#E30613" d="M165.246,123.957c0.125-0.868-0.006-1.601-0.387-2.201c-0.383-0.599-1.049-0.899-2-0.899
				c-0.662,0-1.328,0.155-2,0.465s-1.225,0.703-1.658,1.178c0.041,0.496,0.031,0.961-0.031,1.395l-1.363,9.703
				c-0.043,0.331-0.176,0.61-0.404,0.837c-0.227,0.227-0.547,0.341-0.961,0.341c-0.412,0-0.701-0.114-0.867-0.341
				s-0.229-0.506-0.186-0.837l1.271-8.99c0.082-0.558,0.123-1.064,0.123-1.519c0-0.454-0.066-0.847-0.201-1.178
				s-0.357-0.589-0.666-0.775c-0.311-0.186-0.744-0.279-1.303-0.279c-0.682,0-1.363,0.124-2.047,0.372
				c-0.682,0.248-1.26,0.538-1.734,0.868c0,0.186,0,0.356,0,0.511c0,0.155-0.012,0.305-0.031,0.45l-1.488,10.54
				c-0.041,0.331-0.176,0.61-0.402,0.837c-0.229,0.227-0.549,0.341-0.961,0.341c-0.414,0-0.703-0.114-0.869-0.341
				s-0.227-0.506-0.186-0.837l1.488-10.54c0.061-0.434,0.092-0.764,0.092-0.992c0-0.227-0.016-0.413-0.045-0.558
				c-0.031-0.145-0.074-0.253-0.125-0.326c-0.051-0.072-0.107-0.17-0.17-0.294c-0.021-0.042-0.053-0.108-0.094-0.202
				c-0.041-0.093-0.063-0.202-0.063-0.326c0-0.33,0.129-0.609,0.389-0.837c0.258-0.227,0.563-0.341,0.914-0.341
				c0.268,0,0.496,0.078,0.682,0.232c0.186,0.155,0.342,0.356,0.465,0.604c0.725-0.434,1.488-0.775,2.295-1.023
				c0.805-0.248,1.611-0.372,2.418-0.372c0.867,0,1.564,0.135,2.092,0.403s0.955,0.662,1.287,1.178
				c0.723-0.496,1.473-0.883,2.248-1.163c0.773-0.279,1.596-0.418,2.463-0.418c1.676,0,2.889,0.486,3.643,1.457
				c0.756,0.972,1.018,2.243,0.791,3.813l-1.084,7.75c-0.043,0.352-0.059,0.636-0.047,0.853c0.01,0.217,0.098,0.418,0.264,0.604
				c0.041,0.042,0.076,0.108,0.107,0.202c0.031,0.093,0.047,0.191,0.047,0.294c0,0.331-0.129,0.615-0.387,0.853
				c-0.26,0.237-0.564,0.356-0.916,0.356c-0.186,0-0.387-0.036-0.604-0.108c-0.217-0.073-0.408-0.217-0.574-0.434
				c-0.166-0.217-0.283-0.532-0.355-0.946c-0.072-0.413-0.057-0.971,0.047-1.674L165.246,123.957z"/>
			<path fill="#E30613" d="M176.717,134.775c-0.537,0-1.096-0.052-1.674-0.155c-0.58-0.103-1.137-0.248-1.674-0.434l-0.838,5.859
				c-0.041,0.331-0.182,0.609-0.418,0.837c-0.238,0.227-0.553,0.341-0.945,0.341s-0.678-0.114-0.854-0.341
				c-0.176-0.228-0.242-0.507-0.201-0.837l2.387-16.926c0.082-0.517,0.109-0.935,0.078-1.255s-0.119-0.625-0.264-0.915
				c-0.104-0.166-0.154-0.331-0.154-0.496c0-0.351,0.133-0.64,0.402-0.868c0.268-0.227,0.547-0.341,0.838-0.341
				c0.248,0,0.465,0.067,0.65,0.202s0.34,0.315,0.465,0.542c0.744-0.372,1.514-0.692,2.309-0.961
				c0.797-0.269,1.598-0.403,2.402-0.403c1.633,0,2.791,0.542,3.473,1.627s0.898,2.496,0.65,4.231l-0.588,4.03
				c-0.125,0.93-0.326,1.777-0.605,2.542c-0.277,0.765-0.656,1.421-1.131,1.968c-0.475,0.548-1.064,0.977-1.768,1.287
				S177.709,134.775,176.717,134.775z M173.678,132.017c0.455,0.228,0.973,0.393,1.551,0.496s1.064,0.155,1.457,0.155
				c1.137,0,1.979-0.33,2.527-0.992c0.547-0.661,0.924-1.715,1.131-3.162l0.588-4.03c0.352-2.459-0.484-3.689-2.51-3.689
				c-0.537,0-1.111,0.093-1.721,0.279s-1.205,0.444-1.783,0.775c0.021,0.228,0.037,0.449,0.047,0.667
				c0.01,0.217-0.006,0.418-0.047,0.604L173.678,132.017z"/>
			<path fill="#E30613" d="M192.682,118.625c1.881,0,3.156,0.538,3.828,1.612s0.863,2.625,0.574,4.65l-0.961,6.82
				c-0.084,0.62,0.063,0.93,0.434,0.93c0.041,0,0.078-0.005,0.109-0.016c0.031-0.01,0.076-0.016,0.139-0.016
				c0.268,0,0.465,0.093,0.59,0.279c0.123,0.186,0.186,0.393,0.186,0.62c0,0.455-0.17,0.771-0.512,0.946s-0.688,0.263-1.039,0.263
				c-0.475,0-0.898-0.124-1.27-0.372c-0.373-0.248-0.643-0.6-0.807-1.054c-0.785,0.476-1.529,0.848-2.232,1.116
				c-0.703,0.268-1.447,0.403-2.232,0.403c-1.529,0-2.635-0.542-3.316-1.627s-0.898-2.496-0.65-4.231l0.557-3.937
				c0.125-0.93,0.346-1.783,0.668-2.558c0.32-0.775,0.748-1.446,1.285-2.015c0.537-0.568,1.189-1.012,1.953-1.333
				C190.75,118.785,191.648,118.625,192.682,118.625z M194.789,124.081c0.166-1.116,0.047-1.932-0.355-2.449
				s-1.143-0.775-2.217-0.775c-1.178,0-2.041,0.321-2.588,0.961c-0.549,0.641-0.926,1.705-1.133,3.193l-0.557,3.937
				c-0.352,2.459,0.434,3.689,2.355,3.689c0.641,0,1.256-0.129,1.844-0.388c0.59-0.258,1.133-0.573,1.629-0.945L194.789,124.081z"/>
			<path fill="#E30613" d="M203.189,133.598c-0.041,0.352-0.191,0.641-0.449,0.868c-0.258,0.227-0.563,0.341-0.914,0.341
				s-0.625-0.114-0.822-0.341c-0.195-0.228-0.273-0.517-0.232-0.868l1.488-10.478c0.063-0.517,0.078-0.935,0.047-1.255
				s-0.119-0.625-0.264-0.915c-0.082-0.145-0.123-0.31-0.123-0.496c0-0.351,0.129-0.64,0.387-0.868
				c0.258-0.227,0.553-0.341,0.883-0.341c0.248,0,0.471,0.078,0.668,0.232c0.195,0.155,0.346,0.356,0.449,0.604
				c0.723-0.413,1.492-0.739,2.309-0.977c0.816-0.237,1.523-0.356,2.123-0.356c0.559,0,0.947,0.093,1.164,0.279
				c0.217,0.186,0.324,0.424,0.324,0.713c0,0.434-0.15,0.786-0.449,1.054c-0.299,0.269-0.625,0.393-0.977,0.372
				c-0.641-0.02-1.266,0.016-1.875,0.108c-0.609,0.093-1.348,0.429-2.217,1.008c0,0.166,0,0.315,0,0.449
				c0,0.135-0.01,0.264-0.031,0.388L203.189,133.598z"/>
			<path fill="#E30613" d="M216.115,132.667c0.662,0,1.24-0.082,1.736-0.248c0.496-0.165,1.033-0.372,1.613-0.62
				c0.041-0.021,0.098-0.042,0.17-0.062s0.16-0.031,0.264-0.031c0.289,0,0.516,0.098,0.682,0.294
				c0.166,0.197,0.248,0.418,0.248,0.667c0,0.393-0.197,0.729-0.59,1.008c-0.393,0.279-0.863,0.501-1.41,0.667
				s-1.127,0.284-1.736,0.356c-0.609,0.072-1.131,0.108-1.564,0.108c-0.869,0-1.627-0.129-2.279-0.388
				c-0.65-0.258-1.178-0.62-1.58-1.085c-0.404-0.465-0.688-1.012-0.854-1.643c-0.166-0.63-0.195-1.307-0.092-2.03l0.836-5.797
				c0.104-0.744,0.32-1.437,0.652-2.077c0.33-0.64,0.77-1.193,1.316-1.659c0.547-0.465,1.188-0.832,1.922-1.1
				s1.566-0.403,2.496-0.403c1.529,0,2.666,0.377,3.41,1.131c0.744,0.755,1.115,1.783,1.115,3.085c0,1.633-0.465,2.945-1.395,3.937
				c-0.93,0.992-2.449,1.488-4.557,1.488c-0.477,0-0.982-0.021-1.52-0.062c-0.537-0.041-1.074-0.113-1.611-0.217l-0.248,1.829
				c-0.125,0.868,0.061,1.561,0.557,2.077C214.193,132.409,215,132.667,216.115,132.667z M220.053,123.12
				c0-0.806-0.217-1.39-0.65-1.751c-0.434-0.361-1.045-0.542-1.83-0.542c-1.012,0-1.834,0.253-2.463,0.759
				c-0.631,0.507-1.008,1.194-1.133,2.062l-0.34,2.356c0.578,0.083,1.188,0.14,1.828,0.17c0.641,0.031,1.115,0.047,1.426,0.047
				c1.178,0,2-0.284,2.465-0.853S220.053,124.05,220.053,123.12z"/>
			<path fill="#E30613" d="M238.9,132.667c0.662,0,1.24-0.082,1.736-0.248c0.496-0.165,1.033-0.372,1.613-0.62
				c0.041-0.021,0.098-0.042,0.17-0.062s0.16-0.031,0.264-0.031c0.289,0,0.516,0.098,0.682,0.294
				c0.166,0.197,0.248,0.418,0.248,0.667c0,0.393-0.197,0.729-0.59,1.008c-0.393,0.279-0.863,0.501-1.41,0.667
				s-1.127,0.284-1.736,0.356c-0.609,0.072-1.131,0.108-1.564,0.108c-0.869,0-1.627-0.129-2.279-0.388
				c-0.65-0.258-1.178-0.62-1.58-1.085c-0.404-0.465-0.688-1.012-0.854-1.643c-0.166-0.63-0.195-1.307-0.092-2.03l0.836-5.797
				c0.104-0.744,0.32-1.437,0.652-2.077c0.33-0.64,0.77-1.193,1.316-1.659c0.547-0.465,1.188-0.832,1.922-1.1
				s1.566-0.403,2.496-0.403c1.529,0,2.666,0.377,3.41,1.131c0.744,0.755,1.115,1.783,1.115,3.085c0,1.633-0.465,2.945-1.395,3.937
				c-0.93,0.992-2.449,1.488-4.557,1.488c-0.477,0-0.982-0.021-1.52-0.062c-0.537-0.041-1.074-0.113-1.611-0.217l-0.248,1.829
				c-0.125,0.868,0.061,1.561,0.557,2.077C236.979,132.409,237.785,132.667,238.9,132.667z M242.838,123.12
				c0-0.806-0.217-1.39-0.65-1.751c-0.434-0.361-1.045-0.542-1.83-0.542c-1.012,0-1.834,0.253-2.463,0.759
				c-0.631,0.507-1.008,1.194-1.133,2.062l-0.34,2.356c0.578,0.083,1.188,0.14,1.828,0.17c0.641,0.031,1.115,0.047,1.426,0.047
				c1.178,0,2-0.284,2.465-0.853S242.838,124.05,242.838,123.12z"/>
			<path fill="#E30613" d="M263.578,118.625c1.879,0,3.156,0.538,3.828,1.612s0.861,2.625,0.572,4.65l-0.961,6.82
				c-0.082,0.62,0.063,0.93,0.436,0.93c0.041,0,0.076-0.005,0.107-0.016c0.031-0.01,0.078-0.016,0.141-0.016
				c0.268,0,0.465,0.093,0.588,0.279c0.125,0.186,0.186,0.393,0.186,0.62c0,0.455-0.17,0.771-0.512,0.946
				c-0.34,0.175-0.686,0.263-1.037,0.263c-0.477,0-0.9-0.124-1.271-0.372c-0.371-0.248-0.641-0.6-0.807-1.054
				c-0.785,0.476-1.529,0.848-2.23,1.116c-0.703,0.268-1.447,0.403-2.232,0.403c-1.529,0-2.635-0.542-3.318-1.627
				c-0.682-1.085-0.898-2.496-0.65-4.231l0.559-3.937c0.123-0.93,0.346-1.783,0.666-2.558s0.75-1.446,1.287-2.015
				c0.537-0.568,1.188-1.012,1.953-1.333C261.645,118.785,262.543,118.625,263.578,118.625z M265.686,124.081
				c0.164-1.116,0.047-1.932-0.357-2.449c-0.402-0.517-1.141-0.775-2.215-0.775c-1.18,0-2.043,0.321-2.59,0.961
				c-0.547,0.641-0.924,1.705-1.131,3.193l-0.559,3.937c-0.352,2.459,0.434,3.689,2.355,3.689c0.641,0,1.256-0.129,1.846-0.388
				c0.588-0.258,1.131-0.573,1.627-0.945L265.686,124.081z"/>
			<path fill="#E30613" d="M276.908,133.35c-0.248,0.517-0.508,0.889-0.775,1.116c-0.27,0.227-0.609,0.341-1.023,0.341
				s-0.719-0.114-0.914-0.341c-0.197-0.228-0.346-0.589-0.449-1.085l-2.449-13.237c-0.084-0.372,0.035-0.702,0.355-0.992
				c0.32-0.289,0.656-0.434,1.008-0.434c0.229,0,0.434,0.067,0.621,0.201c0.186,0.135,0.299,0.336,0.34,0.604l1.984,11.687
				l5.238-11.687c0.104-0.227,0.27-0.418,0.496-0.573c0.229-0.155,0.455-0.232,0.684-0.232c0.371,0,0.66,0.15,0.867,0.449
				c0.207,0.3,0.227,0.656,0.063,1.07L276.908,133.35z"/>
			<path fill="#E30613" d="M290.734,118.625c1.879,0,3.156,0.538,3.828,1.612s0.861,2.625,0.572,4.65l-0.961,6.82
				c-0.082,0.62,0.063,0.93,0.436,0.93c0.041,0,0.076-0.005,0.107-0.016c0.031-0.01,0.078-0.016,0.141-0.016
				c0.268,0,0.465,0.093,0.588,0.279c0.125,0.186,0.186,0.393,0.186,0.62c0,0.455-0.17,0.771-0.512,0.946
				c-0.34,0.175-0.686,0.263-1.037,0.263c-0.477,0-0.9-0.124-1.271-0.372c-0.371-0.248-0.641-0.6-0.807-1.054
				c-0.785,0.476-1.529,0.848-2.23,1.116c-0.703,0.268-1.447,0.403-2.232,0.403c-1.529,0-2.635-0.542-3.318-1.627
				c-0.682-1.085-0.898-2.496-0.65-4.231l0.559-3.937c0.123-0.93,0.346-1.783,0.666-2.558s0.75-1.446,1.287-2.015
				c0.537-0.568,1.188-1.012,1.953-1.333C288.801,118.785,289.699,118.625,290.734,118.625z M292.842,124.081
				c0.164-1.116,0.047-1.932-0.357-2.449c-0.402-0.517-1.141-0.775-2.215-0.775c-1.18,0-2.043,0.321-2.59,0.961
				c-0.547,0.641-0.924,1.705-1.131,3.193l-0.559,3.937c-0.352,2.459,0.434,3.689,2.355,3.689c0.641,0,1.256-0.129,1.846-0.388
				c0.588-0.258,1.131-0.573,1.627-0.945L292.842,124.081z"/>
			<path fill="#E30613" d="M301.613,113.292c0.041-0.33,0.191-0.615,0.451-0.853c0.258-0.237,0.563-0.356,0.914-0.356
				s0.625,0.114,0.82,0.341c0.197,0.228,0.273,0.517,0.232,0.868l-2.572,18.352c-0.041,0.352-0.057,0.636-0.047,0.853
				s0.098,0.418,0.264,0.604c0.041,0.042,0.078,0.108,0.109,0.202c0.031,0.093,0.045,0.191,0.045,0.294
				c0,0.331-0.129,0.615-0.387,0.853s-0.563,0.356-0.914,0.356c-0.186,0-0.389-0.036-0.605-0.108
				c-0.217-0.073-0.408-0.217-0.572-0.434c-0.166-0.217-0.285-0.532-0.357-0.946c-0.072-0.413-0.057-0.971,0.047-1.674
				L301.613,113.292z"/>
			<path fill="#E30613" d="M308.031,119.927c0.041-0.331,0.191-0.615,0.449-0.853c0.258-0.237,0.563-0.356,0.914-0.356
				s0.625,0.119,0.822,0.356c0.195,0.238,0.273,0.522,0.232,0.853l-1.643,11.718c-0.041,0.352-0.057,0.636-0.047,0.853
				s0.098,0.418,0.264,0.604c0.041,0.042,0.078,0.108,0.109,0.202c0.029,0.093,0.045,0.191,0.045,0.294
				c0,0.331-0.129,0.615-0.387,0.853c-0.26,0.237-0.564,0.356-0.914,0.356c-0.188,0-0.389-0.036-0.605-0.108
				c-0.217-0.073-0.408-0.217-0.572-0.434c-0.166-0.217-0.285-0.532-0.357-0.946c-0.072-0.413-0.057-0.971,0.047-1.674
				L308.031,119.927z M311.596,113.665c0,0.455-0.17,0.848-0.512,1.178c-0.34,0.331-0.738,0.496-1.193,0.496
				c-0.393,0-0.707-0.128-0.945-0.387c-0.236-0.258-0.355-0.574-0.355-0.946c0-0.454,0.17-0.842,0.512-1.162
				c0.34-0.32,0.738-0.48,1.193-0.48c0.393,0,0.707,0.124,0.945,0.372C311.477,112.982,311.596,113.292,311.596,113.665z"/>
			<path fill="#E30613" d="M318.447,132.667c0.66,0,1.24-0.082,1.736-0.248c0.496-0.165,1.033-0.372,1.611-0.62
				c0.041-0.021,0.098-0.042,0.17-0.062s0.16-0.031,0.264-0.031c0.289,0,0.518,0.098,0.682,0.294
				c0.166,0.197,0.248,0.418,0.248,0.667c0,0.393-0.195,0.729-0.588,1.008c-0.393,0.279-0.863,0.501-1.41,0.667
				c-0.549,0.166-1.127,0.284-1.736,0.356c-0.609,0.072-1.131,0.108-1.566,0.108c-0.867,0-1.627-0.129-2.277-0.388
				c-0.652-0.258-1.178-0.62-1.582-1.085c-0.402-0.465-0.688-1.012-0.852-1.643c-0.166-0.63-0.197-1.307-0.094-2.03l0.838-5.797
				c0.104-0.744,0.32-1.437,0.65-2.077c0.33-0.64,0.77-1.193,1.318-1.659c0.547-0.465,1.188-0.832,1.922-1.1
				c0.732-0.269,1.564-0.403,2.494-0.403c1.529,0,2.666,0.377,3.41,1.131c0.744,0.755,1.117,1.783,1.117,3.085
				c0,1.633-0.465,2.945-1.396,3.937c-0.93,0.992-2.447,1.488-4.557,1.488c-0.475,0-0.98-0.021-1.518-0.062
				c-0.539-0.041-1.076-0.113-1.613-0.217l-0.248,1.829c-0.123,0.868,0.063,1.561,0.559,2.077
				C316.525,132.409,317.332,132.667,318.447,132.667z M322.385,123.12c0-0.806-0.217-1.39-0.652-1.751
				c-0.434-0.361-1.043-0.542-1.828-0.542c-1.014,0-1.834,0.253-2.465,0.759c-0.631,0.507-1.008,1.194-1.131,2.062l-0.342,2.356
				c0.578,0.083,1.188,0.14,1.83,0.17c0.639,0.031,1.115,0.047,1.426,0.047c1.178,0,1.998-0.284,2.465-0.853
				C322.152,124.799,322.385,124.05,322.385,123.12z"/>
			<path fill="#E30613" d="M336.955,123.708c0-1.467,0.496-2.682,1.486-3.643c0.992-0.961,2.398-1.441,4.217-1.441
				c0.393,0,0.816,0.026,1.271,0.078c0.453,0.052,0.877,0.14,1.271,0.264c0.391,0.124,0.717,0.29,0.975,0.496
				c0.26,0.207,0.389,0.465,0.389,0.775c0,0.331-0.129,0.62-0.389,0.868c-0.258,0.248-0.563,0.372-0.914,0.372
				c-0.104,0-0.191-0.016-0.264-0.046c-0.072-0.031-0.16-0.067-0.264-0.108c-0.309-0.166-0.625-0.299-0.945-0.403
				c-0.32-0.103-0.76-0.155-1.316-0.155c-1.076,0-1.861,0.217-2.355,0.651c-0.496,0.434-0.744,1.044-0.744,1.829
				c0,0.703,0.402,1.261,1.209,1.674c0.475,0.248,1.002,0.476,1.58,0.682c0.578,0.207,1.127,0.465,1.643,0.775
				c0.518,0.31,0.951,0.718,1.303,1.225c0.352,0.507,0.527,1.183,0.527,2.03c0,1.55-0.496,2.801-1.488,3.751
				c-0.992,0.951-2.459,1.426-4.402,1.426c-0.371,0-0.807-0.026-1.303-0.078c-0.496-0.052-0.965-0.14-1.41-0.263
				c-0.443-0.124-0.82-0.295-1.131-0.512s-0.465-0.491-0.465-0.821c0-0.29,0.113-0.568,0.34-0.837
				c0.229-0.268,0.549-0.403,0.961-0.403c0.104,0,0.172,0.005,0.203,0.016c0.031,0.011,0.066,0.026,0.107,0.046
				c0.414,0.166,0.863,0.326,1.35,0.48c0.484,0.155,1.037,0.232,1.658,0.232c0.949,0,1.721-0.206,2.309-0.62
				c0.59-0.413,0.885-1.085,0.885-2.015c0-0.434-0.09-0.77-0.264-1.008c-0.176-0.237-0.389-0.429-0.637-0.573
				c-0.412-0.248-0.93-0.47-1.549-0.667c-0.621-0.196-1.215-0.45-1.783-0.76c-0.568-0.31-1.055-0.723-1.457-1.24
				S336.955,124.577,336.955,123.708z"/>
			<path fill="#E30613" d="M353.818,132.667c0.66,0,1.24-0.082,1.736-0.248c0.496-0.165,1.033-0.372,1.611-0.62
				c0.041-0.021,0.098-0.042,0.17-0.062s0.16-0.031,0.264-0.031c0.289,0,0.518,0.098,0.682,0.294
				c0.166,0.197,0.248,0.418,0.248,0.667c0,0.393-0.195,0.729-0.588,1.008c-0.393,0.279-0.863,0.501-1.41,0.667
				c-0.549,0.166-1.127,0.284-1.736,0.356c-0.609,0.072-1.131,0.108-1.566,0.108c-0.867,0-1.627-0.129-2.277-0.388
				c-0.652-0.258-1.178-0.62-1.582-1.085c-0.402-0.465-0.688-1.012-0.852-1.643c-0.166-0.63-0.197-1.307-0.094-2.03l0.838-5.797
				c0.104-0.744,0.32-1.437,0.65-2.077c0.33-0.64,0.77-1.193,1.318-1.659c0.547-0.465,1.188-0.832,1.922-1.1
				c0.732-0.269,1.564-0.403,2.494-0.403c1.529,0,2.666,0.377,3.41,1.131c0.744,0.755,1.117,1.783,1.117,3.085
				c0,1.633-0.465,2.945-1.396,3.937c-0.93,0.992-2.447,1.488-4.557,1.488c-0.475,0-0.98-0.021-1.518-0.062
				c-0.539-0.041-1.076-0.113-1.613-0.217l-0.248,1.829c-0.123,0.868,0.063,1.561,0.559,2.077
				C351.896,132.409,352.703,132.667,353.818,132.667z M357.756,123.12c0-0.806-0.217-1.39-0.652-1.751
				c-0.434-0.361-1.043-0.542-1.828-0.542c-1.014,0-1.834,0.253-2.465,0.759c-0.631,0.507-1.008,1.194-1.131,2.062l-0.342,2.356
				c0.578,0.083,1.188,0.14,1.83,0.17c0.639,0.031,1.115,0.047,1.426,0.047c1.178,0,1.998-0.284,2.465-0.853
				C357.523,124.799,357.756,124.05,357.756,123.12z"/>
			<path fill="#E30613" d="M372.389,119.896c0.041-0.33,0.174-0.609,0.402-0.837c0.227-0.227,0.547-0.341,0.961-0.341
				s0.703,0.114,0.867,0.341c0.166,0.228,0.229,0.507,0.188,0.837l-1.52,10.85c-0.063,0.434-0.094,0.765-0.094,0.992
				s0.016,0.414,0.047,0.558c0.031,0.145,0.078,0.253,0.141,0.326c0.061,0.073,0.113,0.17,0.154,0.294
				c0.02,0.042,0.047,0.114,0.078,0.217c0.029,0.104,0.045,0.207,0.045,0.31c0,0.31-0.129,0.584-0.387,0.822
				c-0.258,0.238-0.563,0.356-0.914,0.356c-0.291,0-0.527-0.083-0.713-0.248c-0.188-0.165-0.352-0.392-0.496-0.682
				c-0.725,0.393-1.484,0.677-2.279,0.853s-1.555,0.264-2.277,0.264c-1.633,0-2.785-0.537-3.457-1.612s-0.885-2.49-0.637-4.247
				l1.271-9.052c0.041-0.33,0.182-0.609,0.418-0.837c0.238-0.227,0.553-0.341,0.947-0.341c0.391,0,0.676,0.114,0.852,0.341
				c0.176,0.228,0.242,0.507,0.201,0.837l-1.271,9.052c-0.164,1.178-0.051,2.087,0.342,2.728s1.055,0.961,1.984,0.961
				c0.6,0,1.203-0.088,1.813-0.264c0.609-0.175,1.193-0.429,1.752-0.759c0-0.166,0.006-0.32,0.016-0.465
				c0.01-0.144,0.025-0.279,0.047-0.403L372.389,119.896z"/>
			<path fill="#E30613" d="M393.281,118.749c0.516,0,1.068,0.052,1.658,0.155s1.152,0.248,1.689,0.434l0.867-6.076
				c0.043-0.331,0.182-0.609,0.42-0.837c0.236-0.228,0.553-0.341,0.945-0.341s0.676,0.114,0.852,0.341s0.244,0.506,0.203,0.837
				l-2.512,17.763c-0.063,0.434-0.057,0.796,0.016,1.085c0.072,0.29,0.252,0.548,0.543,0.775c0.041,0.083,0.072,0.16,0.092,0.232
				c0.021,0.073,0.031,0.16,0.031,0.263c0,0.352-0.135,0.641-0.402,0.868c-0.27,0.228-0.549,0.341-0.838,0.341
				c-0.352,0-0.65-0.093-0.898-0.279s-0.445-0.423-0.59-0.713c-0.723,0.352-1.473,0.641-2.246,0.868
				c-0.775,0.227-1.557,0.341-2.342,0.341c-1.633,0-2.785-0.542-3.455-1.627c-0.672-1.085-0.885-2.496-0.637-4.231l0.559-3.937
				c0.123-0.93,0.326-1.777,0.604-2.542c0.279-0.765,0.656-1.421,1.133-1.969c0.475-0.547,1.064-0.977,1.766-1.287
				C391.441,118.904,392.289,118.749,393.281,118.749z M396.318,121.508c-0.475-0.228-1.006-0.393-1.596-0.496
				s-1.07-0.155-1.441-0.155c-1.137,0-1.975,0.331-2.512,0.992c-0.537,0.662-0.908,1.716-1.115,3.162l-0.559,3.937
				c-0.352,2.459,0.475,3.689,2.48,3.689c0.496,0,1.043-0.078,1.643-0.232c0.6-0.155,1.178-0.377,1.736-0.667
				c-0.021-0.124-0.025-0.248-0.016-0.372s0.025-0.237,0.047-0.341L396.318,121.508z"/>
			<path fill="#E30613" d="M407.076,132.667c0.66,0,1.24-0.082,1.736-0.248c0.496-0.165,1.033-0.372,1.611-0.62
				c0.041-0.021,0.098-0.042,0.17-0.062s0.16-0.031,0.264-0.031c0.289,0,0.518,0.098,0.682,0.294
				c0.166,0.197,0.248,0.418,0.248,0.667c0,0.393-0.195,0.729-0.588,1.008c-0.393,0.279-0.863,0.501-1.41,0.667
				c-0.549,0.166-1.127,0.284-1.736,0.356c-0.609,0.072-1.131,0.108-1.566,0.108c-0.867,0-1.627-0.129-2.277-0.388
				c-0.652-0.258-1.178-0.62-1.582-1.085c-0.402-0.465-0.688-1.012-0.852-1.643c-0.166-0.63-0.197-1.307-0.094-2.03l0.838-5.797
				c0.104-0.744,0.32-1.437,0.65-2.077c0.33-0.64,0.77-1.193,1.318-1.659c0.547-0.465,1.188-0.832,1.922-1.1
				c0.732-0.269,1.564-0.403,2.494-0.403c1.529,0,2.666,0.377,3.41,1.131c0.744,0.755,1.117,1.783,1.117,3.085
				c0,1.633-0.465,2.945-1.396,3.937c-0.93,0.992-2.447,1.488-4.557,1.488c-0.475,0-0.98-0.021-1.518-0.062
				c-0.539-0.041-1.076-0.113-1.613-0.217l-0.248,1.829c-0.123,0.868,0.063,1.561,0.559,2.077
				C405.154,132.409,405.961,132.667,407.076,132.667z M411.014,123.12c0-0.806-0.217-1.39-0.652-1.751
				c-0.434-0.361-1.043-0.542-1.828-0.542c-1.014,0-1.834,0.253-2.465,0.759c-0.631,0.507-1.008,1.194-1.131,2.062l-0.342,2.356
				c0.578,0.083,1.188,0.14,1.83,0.17c0.639,0.031,1.115,0.047,1.426,0.047c1.178,0,1.998-0.284,2.465-0.853
				C410.781,124.799,411.014,124.05,411.014,123.12z"/>
			<path fill="#E30613" d="M416.221,123.708c0-1.467,0.496-2.682,1.488-3.643s2.396-1.441,4.217-1.441
				c0.391,0,0.814,0.026,1.27,0.078c0.455,0.052,0.879,0.14,1.271,0.264c0.393,0.124,0.719,0.29,0.977,0.496
				c0.258,0.207,0.387,0.465,0.387,0.775c0,0.331-0.129,0.62-0.387,0.868s-0.563,0.372-0.914,0.372
				c-0.104,0-0.191-0.016-0.264-0.046c-0.072-0.031-0.16-0.067-0.264-0.108c-0.311-0.166-0.625-0.299-0.945-0.403
				c-0.32-0.103-0.76-0.155-1.318-0.155c-1.074,0-1.859,0.217-2.355,0.651s-0.744,1.044-0.744,1.829
				c0,0.703,0.402,1.261,1.209,1.674c0.475,0.248,1.002,0.476,1.582,0.682c0.578,0.207,1.125,0.465,1.643,0.775
				c0.516,0.31,0.949,0.718,1.301,1.225c0.352,0.507,0.527,1.183,0.527,2.03c0,1.55-0.496,2.801-1.488,3.751
				c-0.992,0.951-2.459,1.426-4.4,1.426c-0.373,0-0.807-0.026-1.303-0.078c-0.496-0.052-0.967-0.14-1.41-0.263
				c-0.445-0.124-0.822-0.295-1.133-0.512c-0.309-0.217-0.465-0.491-0.465-0.821c0-0.29,0.113-0.568,0.342-0.837
				c0.227-0.268,0.547-0.403,0.961-0.403c0.104,0,0.17,0.005,0.201,0.016c0.031,0.011,0.066,0.026,0.109,0.046
				c0.412,0.166,0.861,0.326,1.348,0.48c0.486,0.155,1.039,0.232,1.658,0.232c0.951,0,1.721-0.206,2.311-0.62
				c0.588-0.413,0.883-1.085,0.883-2.015c0-0.434-0.088-0.77-0.264-1.008c-0.176-0.237-0.387-0.429-0.635-0.573
				c-0.414-0.248-0.93-0.47-1.551-0.667c-0.619-0.196-1.215-0.45-1.781-0.76c-0.57-0.31-1.055-0.723-1.457-1.24
				C416.422,125.269,416.221,124.577,416.221,123.708z"/>
			<path fill="#E30613" d="M433.084,132.667c0.662,0,1.24-0.082,1.736-0.248c0.496-0.165,1.033-0.372,1.613-0.62
				c0.041-0.021,0.098-0.042,0.17-0.062s0.16-0.031,0.264-0.031c0.289,0,0.516,0.098,0.682,0.294
				c0.166,0.197,0.248,0.418,0.248,0.667c0,0.393-0.197,0.729-0.59,1.008c-0.393,0.279-0.863,0.501-1.41,0.667
				s-1.127,0.284-1.736,0.356c-0.609,0.072-1.131,0.108-1.564,0.108c-0.869,0-1.627-0.129-2.279-0.388
				c-0.65-0.258-1.178-0.62-1.58-1.085c-0.404-0.465-0.688-1.012-0.854-1.643c-0.166-0.63-0.195-1.307-0.092-2.03l0.836-5.797
				c0.104-0.744,0.32-1.437,0.652-2.077c0.33-0.64,0.77-1.193,1.316-1.659c0.547-0.465,1.188-0.832,1.922-1.1
				s1.566-0.403,2.496-0.403c1.529,0,2.666,0.377,3.41,1.131c0.744,0.755,1.115,1.783,1.115,3.085c0,1.633-0.465,2.945-1.395,3.937
				c-0.93,0.992-2.449,1.488-4.557,1.488c-0.477,0-0.982-0.021-1.52-0.062c-0.537-0.041-1.074-0.113-1.611-0.217l-0.248,1.829
				c-0.125,0.868,0.061,1.561,0.557,2.077C431.162,132.409,431.969,132.667,433.084,132.667z M437.021,123.12
				c0-0.806-0.217-1.39-0.65-1.751c-0.434-0.361-1.045-0.542-1.83-0.542c-1.012,0-1.834,0.253-2.463,0.759
				c-0.631,0.507-1.008,1.194-1.133,2.062l-0.34,2.356c0.578,0.083,1.188,0.14,1.828,0.17c0.641,0.031,1.115,0.047,1.426,0.047
				c1.178,0,2-0.284,2.465-0.853S437.021,124.05,437.021,123.12z"/>
			<path fill="#E30613" d="M459.963,123.957c0.123-0.868-0.006-1.601-0.389-2.201c-0.383-0.599-1.049-0.899-2-0.899
				c-0.66,0-1.328,0.155-1.998,0.465c-0.672,0.31-1.225,0.703-1.658,1.178c0.041,0.496,0.029,0.961-0.031,1.395l-1.365,9.703
				c-0.041,0.331-0.176,0.61-0.402,0.837c-0.229,0.227-0.547,0.341-0.961,0.341s-0.703-0.114-0.867-0.341
				c-0.166-0.227-0.229-0.506-0.188-0.837l1.271-8.99c0.082-0.558,0.125-1.064,0.125-1.519c0-0.454-0.068-0.847-0.203-1.178
				s-0.355-0.589-0.666-0.775s-0.744-0.279-1.301-0.279c-0.684,0-1.365,0.124-2.047,0.372s-1.262,0.538-1.736,0.868
				c0,0.186,0,0.356,0,0.511c0,0.155-0.01,0.305-0.031,0.45l-1.488,10.54c-0.041,0.331-0.176,0.61-0.402,0.837
				s-0.547,0.341-0.961,0.341s-0.703-0.114-0.867-0.341c-0.166-0.227-0.229-0.506-0.188-0.837l1.488-10.54
				c0.063-0.434,0.094-0.764,0.094-0.992c0-0.227-0.016-0.413-0.047-0.558s-0.072-0.253-0.123-0.326
				c-0.053-0.072-0.109-0.17-0.172-0.294c-0.02-0.042-0.051-0.108-0.092-0.202c-0.043-0.093-0.063-0.202-0.063-0.326
				c0-0.33,0.129-0.609,0.387-0.837c0.258-0.227,0.563-0.341,0.916-0.341c0.268,0,0.494,0.078,0.682,0.232
				c0.186,0.155,0.34,0.356,0.465,0.604c0.723-0.434,1.488-0.775,2.293-1.023c0.807-0.248,1.613-0.372,2.418-0.372
				c0.869,0,1.566,0.135,2.094,0.403s0.955,0.662,1.285,1.178c0.725-0.496,1.473-0.883,2.248-1.163
				c0.775-0.279,1.598-0.418,2.465-0.418c1.674,0,2.889,0.486,3.643,1.457c0.754,0.972,1.018,2.243,0.791,3.813l-1.086,7.75
				c-0.041,0.352-0.057,0.636-0.047,0.853c0.012,0.217,0.098,0.418,0.264,0.604c0.041,0.042,0.078,0.108,0.109,0.202
				c0.031,0.093,0.047,0.191,0.047,0.294c0,0.331-0.131,0.615-0.389,0.853s-0.563,0.356-0.914,0.356
				c-0.186,0-0.387-0.036-0.605-0.108c-0.217-0.073-0.408-0.217-0.572-0.434c-0.166-0.217-0.285-0.532-0.357-0.946
				c-0.072-0.413-0.057-0.971,0.047-1.674L459.963,123.957z"/>
			<path fill="#E30613" d="M471.432,134.775c-0.537,0-1.096-0.052-1.674-0.155s-1.137-0.248-1.674-0.434l-0.836,5.859
				c-0.043,0.331-0.182,0.609-0.42,0.837c-0.236,0.227-0.553,0.341-0.945,0.341s-0.676-0.114-0.852-0.341
				c-0.176-0.228-0.244-0.507-0.201-0.837l2.387-16.926c0.082-0.517,0.107-0.935,0.076-1.255c-0.029-0.32-0.119-0.625-0.262-0.915
				c-0.105-0.166-0.156-0.331-0.156-0.496c0-0.351,0.135-0.64,0.402-0.868c0.27-0.227,0.549-0.341,0.838-0.341
				c0.248,0,0.465,0.067,0.65,0.202c0.188,0.134,0.342,0.315,0.465,0.542c0.744-0.372,1.514-0.692,2.311-0.961
				c0.795-0.269,1.596-0.403,2.402-0.403c1.633,0,2.789,0.542,3.473,1.627c0.682,1.085,0.898,2.496,0.65,4.231l-0.59,4.03
				c-0.123,0.93-0.324,1.777-0.604,2.542s-0.656,1.421-1.131,1.968c-0.477,0.548-1.066,0.977-1.768,1.287
				C473.271,134.621,472.424,134.775,471.432,134.775z M468.395,132.017c0.453,0.228,0.971,0.393,1.549,0.496
				c0.58,0.104,1.064,0.155,1.457,0.155c1.137,0,1.98-0.33,2.527-0.992c0.547-0.661,0.924-1.715,1.131-3.162l0.59-4.03
				c0.352-2.459-0.486-3.689-2.512-3.689c-0.537,0-1.111,0.093-1.721,0.279s-1.203,0.444-1.781,0.775
				c0.02,0.228,0.035,0.449,0.047,0.667c0.01,0.217-0.006,0.418-0.047,0.604L468.395,132.017z"/>
			<path fill="#E30613" d="M485.506,132.667c0.662,0,1.24-0.082,1.736-0.248c0.496-0.165,1.033-0.372,1.613-0.62
				c0.041-0.021,0.098-0.042,0.17-0.062s0.16-0.031,0.264-0.031c0.289,0,0.516,0.098,0.682,0.294
				c0.166,0.197,0.248,0.418,0.248,0.667c0,0.393-0.197,0.729-0.59,1.008c-0.393,0.279-0.863,0.501-1.41,0.667
				s-1.127,0.284-1.736,0.356c-0.609,0.072-1.131,0.108-1.564,0.108c-0.869,0-1.627-0.129-2.279-0.388
				c-0.65-0.258-1.178-0.62-1.58-1.085c-0.404-0.465-0.688-1.012-0.854-1.643c-0.166-0.63-0.195-1.307-0.092-2.03l0.836-5.797
				c0.104-0.744,0.32-1.437,0.652-2.077c0.33-0.64,0.77-1.193,1.316-1.659c0.547-0.465,1.188-0.832,1.922-1.1
				s1.566-0.403,2.496-0.403c1.529,0,2.666,0.377,3.41,1.131c0.744,0.755,1.115,1.783,1.115,3.085c0,1.633-0.465,2.945-1.395,3.937
				c-0.93,0.992-2.449,1.488-4.557,1.488c-0.477,0-0.982-0.021-1.52-0.062c-0.537-0.041-1.074-0.113-1.611-0.217l-0.248,1.829
				c-0.125,0.868,0.061,1.561,0.557,2.077C483.584,132.409,484.391,132.667,485.506,132.667z M489.443,123.12
				c0-0.806-0.217-1.39-0.65-1.751c-0.434-0.361-1.045-0.542-1.83-0.542c-1.012,0-1.834,0.253-2.463,0.759
				c-0.631,0.507-1.008,1.194-1.133,2.062l-0.34,2.356c0.578,0.083,1.188,0.14,1.828,0.17c0.641,0.031,1.115,0.047,1.426,0.047
				c1.178,0,2-0.284,2.465-0.853S489.443,124.05,489.443,123.12z"/>
			<path fill="#E30613" d="M503.922,124.545c0.164-1.178,0.051-2.087-0.342-2.728c-0.393-0.64-1.055-0.961-1.984-0.961
				c-0.6,0-1.209,0.114-1.828,0.341c-0.621,0.228-1.221,0.548-1.799,0.961c0,0.166,0,0.325,0,0.48c0,0.155-0.01,0.294-0.031,0.418
				l-1.488,10.54c-0.041,0.331-0.176,0.61-0.402,0.837s-0.547,0.341-0.961,0.341s-0.703-0.114-0.867-0.341
				c-0.166-0.227-0.229-0.506-0.188-0.837l1.488-10.54c0.063-0.434,0.094-0.764,0.094-0.992c0-0.227-0.016-0.413-0.047-0.558
				s-0.072-0.253-0.123-0.326c-0.053-0.072-0.109-0.17-0.172-0.294c-0.02-0.042-0.051-0.108-0.092-0.202
				c-0.043-0.093-0.063-0.202-0.063-0.326c0-0.33,0.129-0.609,0.387-0.837c0.258-0.227,0.563-0.341,0.916-0.341
				c0.289,0,0.525,0.083,0.713,0.248c0.186,0.166,0.34,0.383,0.465,0.651c0.764-0.475,1.545-0.826,2.34-1.054
				s1.566-0.341,2.309-0.341c1.654,0,2.811,0.538,3.473,1.612s0.869,2.49,0.621,4.247l-0.992,7.099
				c-0.043,0.352-0.059,0.636-0.047,0.853c0.01,0.217,0.098,0.418,0.264,0.604c0.041,0.042,0.076,0.108,0.107,0.202
				c0.031,0.093,0.047,0.191,0.047,0.294c0,0.331-0.129,0.615-0.387,0.853c-0.26,0.237-0.564,0.356-0.914,0.356
				c-0.188,0-0.389-0.036-0.605-0.108c-0.217-0.073-0.408-0.217-0.574-0.434c-0.164-0.217-0.283-0.532-0.355-0.946
				c-0.072-0.413-0.057-0.971,0.047-1.674L503.922,124.545z"/>
			<path fill="#E30613" d="M519.793,123.802c0.123-0.951,0.016-1.674-0.326-2.17c-0.342-0.496-0.998-0.744-1.969-0.744
				c-0.641,0-1.307,0.145-2,0.434c-0.691,0.29-1.307,0.734-1.844,1.333l-1.551,10.943c-0.041,0.352-0.186,0.641-0.434,0.868
				c-0.248,0.227-0.547,0.341-0.898,0.341s-0.625-0.114-0.822-0.341c-0.195-0.228-0.273-0.517-0.232-0.868l2.883-20.491
				c0.041-0.31,0.188-0.589,0.436-0.837s0.547-0.372,0.898-0.372s0.625,0.114,0.82,0.341c0.197,0.228,0.275,0.517,0.234,0.868
				l-0.963,6.82c0.6-0.414,1.24-0.733,1.924-0.961c0.682-0.228,1.395-0.341,2.139-0.341c1.652,0,2.811,0.48,3.471,1.441
				c0.662,0.961,0.879,2.196,0.652,3.705l-1.117,7.874c-0.041,0.352-0.057,0.636-0.047,0.853c0.012,0.217,0.1,0.418,0.264,0.604
				c0.041,0.042,0.078,0.108,0.109,0.202c0.031,0.093,0.047,0.191,0.047,0.294c0,0.331-0.125,0.615-0.373,0.853
				s-0.547,0.356-0.898,0.356c-0.186,0-0.393-0.036-0.619-0.108c-0.229-0.073-0.424-0.217-0.59-0.434
				c-0.166-0.217-0.285-0.532-0.357-0.946c-0.072-0.413-0.057-0.971,0.047-1.674L519.793,123.802z"/>
			<path fill="#E30613" d="M530.178,134.807c-0.951,0-1.768-0.145-2.449-0.434s-1.23-0.682-1.643-1.178
				c-0.414-0.496-0.699-1.08-0.854-1.752c-0.154-0.671-0.182-1.39-0.078-2.154l0.744-5.177c0.104-0.785,0.33-1.514,0.684-2.186
				c0.35-0.671,0.805-1.256,1.363-1.751c0.559-0.496,1.213-0.884,1.969-1.163c0.754-0.279,1.605-0.418,2.557-0.418
				s1.768,0.139,2.449,0.418c0.682,0.279,1.23,0.667,1.643,1.163c0.414,0.496,0.697,1.08,0.854,1.751
				c0.154,0.672,0.18,1.4,0.076,2.186l-0.742,5.177c-0.105,0.765-0.326,1.483-0.668,2.154c-0.34,0.672-0.789,1.256-1.348,1.752
				c-0.559,0.496-1.221,0.889-1.984,1.178C531.984,134.662,531.127,134.807,530.178,134.807z M530.486,132.575
				c1.117,0,2-0.289,2.65-0.868c0.652-0.578,1.049-1.384,1.195-2.418l0.742-5.208c0.145-1.012-0.029-1.808-0.525-2.387
				c-0.496-0.578-1.303-0.868-2.418-0.868c-1.117,0-1.996,0.29-2.637,0.868c-0.641,0.579-1.033,1.375-1.178,2.387l-0.744,5.208
				c-0.145,1.034,0.027,1.84,0.512,2.418C528.57,132.286,529.371,132.575,530.486,132.575z"/>
		</g>
	</g>
</g>
</svg>
