<?xml version="1.0" encoding="utf-8"?>
<!-- Generator: Adobe Illustrator 16.0.0, SVG Export Plug-In . SVG Version: 6.00 Build 0)  -->
<!DOCTYPE svg PUBLIC "-//W3C//DTD SVG 1.1//EN" "http://www.w3.org/Graphics/SVG/1.1/DTD/svg11.dtd">
<svg version="1.1" id="Layer_1" xmlns="http://www.w3.org/2000/svg" xmlns:xlink="http://www.w3.org/1999/xlink" x="0px" y="0px"
	 width="498.414px" height="139.807px" viewBox="0 0 498.414 139.807" enable-background="new 0 0 498.414 139.807"
	 xml:space="preserve">
<g>
	<g>
		<path fill="#11374F" d="M88.437,74.11c-0.491,3.489-0.151,6.27,1.021,8.34c1.172,2.072,3.584,3.107,7.236,3.107
			c1.309,0,2.521-0.177,3.639-0.532c1.117-0.354,2.221-0.831,3.312-1.431l0.981-0.49c0.6-0.272,1.131-0.544,1.594-0.818
			c0.463-0.272,1.158-0.409,2.086-0.409c1.416,0,2.562,0.437,3.434,1.308c0.871,0.873,1.309,1.909,1.309,3.107
			c0,1.254-0.519,2.44-1.553,3.557c-1.037,1.118-2.413,2.099-4.13,2.944c-1.718,0.846-3.667,1.513-5.847,2.003
			c-2.181,0.49-4.415,0.736-6.705,0.736c-3.598,0-6.623-0.505-9.076-1.513c-2.453-1.008-4.402-2.453-5.846-4.334
			c-1.445-1.88-2.4-4.142-2.862-6.787c-0.464-2.644-0.478-5.573-0.041-8.79l2.29-16.19c0.436-3.216,1.253-6.146,2.453-8.79
			c1.197-2.644,2.793-4.906,4.783-6.787c1.988-1.881,4.36-3.325,7.113-4.334c2.752-1.008,5.928-1.513,9.526-1.513
			c2.071,0,4.06,0.219,5.969,0.654c1.907,0.437,3.584,1.036,5.028,1.799c1.444,0.764,2.589,1.635,3.435,2.617
			c0.845,0.981,1.268,2.044,1.268,3.189c0,1.418-0.601,2.671-1.799,3.761c-1.2,1.091-2.645,1.635-4.334,1.635
			c-0.927,0-1.595-0.123-2.003-0.368c-0.409-0.246-0.859-0.532-1.35-0.859l-0.736-0.491c-0.927-0.599-1.908-1.076-2.943-1.431
			c-1.035-0.354-2.207-0.532-3.516-0.532c-3.707,0-6.419,1.022-8.136,3.066c-1.718,2.044-2.821,4.838-3.312,8.381L88.437,74.11z"/>
		<path fill="#11374F" d="M138.559,95.615c-3.544,0-6.569-0.56-9.076-1.676c-2.508-1.117-4.511-2.643-6.01-4.579
			c-1.5-1.934-2.509-4.211-3.026-6.828c-0.518-2.616-0.559-5.423-0.122-8.422l2.208-16.19c0.436-2.889,1.227-5.628,2.371-8.218
			c1.145-2.588,2.698-4.865,4.66-6.828c1.963-1.962,4.375-3.516,7.237-4.661c2.862-1.145,6.2-1.717,10.017-1.717
			c3.814,0,6.99,0.572,9.525,1.717c2.535,1.145,4.51,2.698,5.929,4.661c1.417,1.962,2.343,4.239,2.78,6.828
			c0.436,2.59,0.436,5.329,0,8.218l-2.208,16.19c-0.437,2.999-1.282,5.806-2.535,8.422c-1.255,2.617-2.902,4.894-4.946,6.828
			c-2.045,1.936-4.471,3.462-7.277,4.579C145.276,95.056,142.102,95.615,138.559,95.615z M145.345,46.882
			c-3.598,0-6.269,1.009-8.013,3.025c-1.745,2.017-2.862,4.689-3.353,8.013l-2.207,16.19c-0.491,3.271-0.096,5.942,1.186,8.013
			c1.279,2.072,3.609,3.107,6.99,3.107c3.38,0,6.01-1.035,7.891-3.107c1.881-2.071,3.066-4.743,3.557-8.013l2.209-16.19
			c0.49-3.324,0.135-5.996-1.063-8.013C151.341,47.891,148.942,46.882,145.345,46.882z"/>
		<path fill="#11374F" d="M204.544,95.615c-1.092,0-2.1-0.259-3.025-0.777c-0.928-0.517-1.609-1.212-2.045-2.085l-14.391-33.034
			L180.831,90.3c-0.219,1.418-0.969,2.658-2.248,3.721c-1.281,1.063-2.713,1.594-4.293,1.594c-1.582,0-2.85-0.531-3.803-1.594
			c-0.954-1.063-1.322-2.302-1.104-3.721l6.787-48.243c0.217-1.581,0.953-2.903,2.207-3.966s2.752-1.595,4.498-1.595
			c1.09,0,2.111,0.273,3.065,0.818c0.953,0.545,1.648,1.281,2.085,2.208c1.417,3.162,2.685,6.051,3.803,8.667
			c1.116,2.617,2.221,5.192,3.312,7.727c1.09,2.535,2.208,5.151,3.353,7.85s2.425,5.683,3.843,8.954l4.334-30.908
			c0.217-1.417,0.967-2.657,2.249-3.72c1.279-1.063,2.711-1.595,4.292-1.595s2.849,0.532,3.802,1.595s1.322,2.303,1.104,3.72
			l-6.786,48.243c-0.219,1.527-0.955,2.835-2.209,3.925S206.343,95.615,204.544,95.615z"/>
		<path fill="#11374F" d="M233.081,74.11c-0.49,3.489-0.15,6.27,1.021,8.34c1.172,2.072,3.584,3.107,7.236,3.107
			c1.309,0,2.521-0.177,3.639-0.532c1.117-0.354,2.221-0.831,3.313-1.431l0.98-0.49c0.6-0.272,1.131-0.544,1.595-0.818
			c0.463-0.272,1.157-0.409,2.085-0.409c1.418,0,2.563,0.437,3.434,1.308c0.873,0.873,1.309,1.909,1.309,3.107
			c0,1.254-0.518,2.44-1.553,3.557c-1.037,1.118-2.412,2.099-4.129,2.944c-1.718,0.846-3.668,1.513-5.848,2.003
			c-2.18,0.49-4.414,0.736-6.704,0.736c-3.599,0-6.624-0.505-9.077-1.513c-2.452-1.008-4.402-2.453-5.846-4.334
			c-1.445-1.88-2.399-4.142-2.861-6.787c-0.465-2.644-0.479-5.573-0.041-8.79l2.289-16.19c0.436-3.216,1.254-6.146,2.453-8.79
			c1.198-2.644,2.793-4.906,4.783-6.787c1.989-1.881,4.361-3.325,7.113-4.334c2.753-1.008,5.929-1.513,9.527-1.513
			c2.07,0,4.06,0.219,5.969,0.654c1.906,0.437,3.584,1.036,5.029,1.799c1.443,0.764,2.588,1.635,3.434,2.617
			c0.844,0.981,1.268,2.044,1.268,3.189c0,1.418-0.602,2.671-1.799,3.761c-1.201,1.091-2.645,1.635-4.334,1.635
			c-0.928,0-1.596-0.123-2.004-0.368c-0.408-0.246-0.857-0.532-1.35-0.859l-0.734-0.491c-0.928-0.599-1.91-1.076-2.944-1.431
			c-1.036-0.354-2.208-0.532-3.517-0.532c-3.707,0-6.418,1.022-8.135,3.066c-1.718,2.044-2.822,4.838-3.313,8.381L233.081,74.11z"/>
		<path fill="#11374F" d="M306.917,75.255c-0.383,2.944-1.214,5.656-2.494,8.136c-1.281,2.481-2.931,4.634-4.947,6.459
			c-2.018,1.827-4.374,3.244-7.073,4.252c-2.698,1.008-5.655,1.513-8.871,1.513c-3.271,0-6.12-0.519-8.545-1.554
			c-2.427-1.035-4.375-2.453-5.847-4.252c-1.472-1.799-2.48-3.938-3.025-6.418c-0.545-2.48-0.627-5.192-0.245-8.136l4.661-33.361
			c0.271-1.581,1.034-2.875,2.289-3.884c1.253-1.008,2.698-1.513,4.334-1.513c1.525,0,2.766,0.532,3.72,1.595
			c0.953,1.063,1.321,2.33,1.104,3.802l-4.661,33.361c-0.437,2.944-0.041,5.343,1.186,7.196c1.227,1.854,3.394,2.78,6.501,2.78
			s5.505-0.926,7.195-2.78c1.689-1.853,2.752-4.252,3.189-7.196l4.66-33.361c0.218-1.417,0.953-2.67,2.208-3.762
			c1.253-1.089,2.67-1.635,4.252-1.635c1.688,0,3.012,0.546,3.966,1.635c0.953,1.091,1.321,2.345,1.104,3.762L306.917,75.255z"/>
		<path fill="#11374F" d="M360.393,52.197c0,4.688-1.24,8.544-3.72,11.57c-2.481,3.025-5.847,5.192-10.099,6.5l8.831,16.844
			c0.544,1.036,0.694,2.059,0.449,3.066c-0.245,1.009-0.695,1.909-1.349,2.698c-0.654,0.791-1.459,1.431-2.412,1.922
			c-0.955,0.49-1.896,0.736-2.821,0.736c-2.126,0-3.626-0.845-4.497-2.535l-10.712-21.505h-5.561l-2.616,18.725
			c-0.219,1.418-0.969,2.671-2.249,3.761c-1.281,1.09-2.712,1.635-4.292,1.635c-1.527,0-2.78-0.531-3.762-1.594
			s-1.363-2.331-1.145-3.802l6.623-47.098c0.217-1.581,1.022-2.957,2.412-4.129c1.39-1.172,2.93-1.758,4.62-1.758h14.228
			c3.379,0,6.227,0.423,8.545,1.268c2.316,0.846,4.183,1.962,5.601,3.353c1.417,1.39,2.425,2.984,3.025,4.783
			C360.093,48.435,360.393,50.289,360.393,52.197z M348.782,53.505c0-0.763-0.123-1.484-0.368-2.167
			c-0.245-0.681-0.683-1.308-1.309-1.88c-0.627-0.572-1.472-1.022-2.535-1.349c-1.063-0.327-2.412-0.491-4.047-0.491h-8.668
			l-1.88,13.573h9.157c3.107,0,5.491-0.667,7.155-2.003C347.95,57.853,348.782,55.958,348.782,53.505z"/>
		<path fill="#11374F" d="M390.481,77.136c0-1.417-0.3-2.453-0.899-3.107c-0.6-0.654-1.199-1.117-1.799-1.39
			c-0.817-0.381-1.689-0.763-2.616-1.145c-0.928-0.38-1.936-0.736-3.025-1.063c-1.745-0.599-3.476-1.227-5.192-1.88
			c-1.717-0.654-3.271-1.525-4.66-2.617c-1.391-1.09-2.509-2.439-3.353-4.047c-0.847-1.607-1.268-3.639-1.268-6.092
			c0-2.944,0.518-5.614,1.554-8.013c1.034-2.398,2.493-4.428,4.374-6.092c1.881-1.662,4.156-2.944,6.828-3.843
			c2.67-0.899,5.613-1.349,8.831-1.349c1.145,0,2.588,0.096,4.333,0.286c1.744,0.192,3.447,0.532,5.11,1.022
			c1.662,0.49,3.079,1.186,4.252,2.085c1.172,0.899,1.759,2.058,1.759,3.475c0,1.418-0.601,2.712-1.8,3.884
			c-1.199,1.173-2.779,1.758-4.742,1.758c-0.764,0-1.431-0.082-2.003-0.246s-1.186-0.38-1.84-0.654
			c-0.765-0.272-1.608-0.544-2.535-0.818c-0.928-0.272-2.099-0.409-3.516-0.409c-1.092,0-2.167,0.11-3.23,0.327
			c-1.063,0.218-2.003,0.6-2.82,1.145c-0.818,0.545-1.472,1.281-1.963,2.208c-0.49,0.928-0.735,2.073-0.735,3.435
			c0,1.472,0.313,2.535,0.94,3.189c0.626,0.654,1.239,1.118,1.839,1.39c0.981,0.545,1.935,0.981,2.862,1.308
			c0.927,0.327,1.826,0.627,2.698,0.899c1.744,0.545,3.488,1.173,5.233,1.881c1.744,0.709,3.312,1.608,4.701,2.698
			c1.391,1.091,2.507,2.44,3.353,4.047c0.845,1.608,1.268,3.612,1.268,6.01c0,3.162-0.601,5.998-1.799,8.504
			c-1.199,2.508-2.835,4.62-4.906,6.337c-2.072,1.717-4.511,3.04-7.318,3.966s-5.819,1.39-9.035,1.39
			c-1.472,0-3.147-0.137-5.028-0.409c-1.881-0.273-3.667-0.695-5.356-1.268s-3.121-1.335-4.292-2.29
			c-1.173-0.953-1.759-2.085-1.759-3.393c0-0.708,0.164-1.403,0.491-2.085c0.327-0.681,0.776-1.28,1.349-1.799
			c0.572-0.517,1.227-0.94,1.963-1.267c0.735-0.327,1.513-0.491,2.33-0.491c0.6,0,1.227,0.096,1.881,0.286
			c0.654,0.192,1.362,0.423,2.126,0.695c0.926,0.327,2.03,0.683,3.312,1.063c1.28,0.382,2.793,0.573,4.538,0.573
			c3.161,0,5.546-0.708,7.154-2.126C389.677,81.688,390.481,79.699,390.481,77.136z"/>
		<path fill="#11374F" d="M427.686,95.615c-3.544,0-6.569-0.56-9.076-1.676c-2.508-1.117-4.512-2.643-6.01-4.579
			c-1.5-1.934-2.508-4.211-3.025-6.828c-0.519-2.616-0.56-5.423-0.123-8.422l2.208-16.19c0.436-2.889,1.227-5.628,2.371-8.218
			c1.145-2.588,2.698-4.865,4.661-6.828c1.962-1.962,4.374-3.516,7.236-4.661c2.861-1.145,6.2-1.717,10.017-1.717
			c3.814,0,6.991,0.572,9.525,1.717c2.535,1.145,4.511,2.698,5.929,4.661c1.417,1.962,2.343,4.239,2.78,6.828
			c0.436,2.59,0.436,5.329,0,8.218l-2.208,16.19c-0.438,2.999-1.281,5.806-2.535,8.422c-1.255,2.617-2.902,4.894-4.946,6.828
			c-2.045,1.936-4.471,3.462-7.277,4.579C434.403,95.056,431.229,95.615,427.686,95.615z M434.473,46.882
			c-3.599,0-6.27,1.009-8.014,3.025c-1.745,2.017-2.862,4.689-3.353,8.013l-2.208,16.19c-0.49,3.271-0.096,5.942,1.186,8.013
			c1.28,2.072,3.611,3.107,6.991,3.107s6.011-1.035,7.891-3.107c1.881-2.071,3.066-4.743,3.558-8.013l2.207-16.19
			c0.491-3.324,0.136-5.996-1.063-8.013C440.468,47.891,438.07,46.882,434.473,46.882z"/>
		<path fill="#11374F" d="M484.186,77.136c0-1.417-0.3-2.453-0.899-3.107c-0.6-0.654-1.199-1.117-1.799-1.39
			c-0.817-0.381-1.689-0.763-2.616-1.145c-0.928-0.38-1.936-0.736-3.025-1.063c-1.745-0.599-3.476-1.227-5.192-1.88
			c-1.717-0.654-3.271-1.525-4.66-2.617c-1.391-1.09-2.509-2.439-3.353-4.047c-0.847-1.607-1.268-3.639-1.268-6.092
			c0-2.944,0.518-5.614,1.554-8.013c1.034-2.398,2.493-4.428,4.374-6.092c1.881-1.662,4.156-2.944,6.828-3.843
			c2.67-0.899,5.613-1.349,8.831-1.349c1.145,0,2.588,0.096,4.333,0.286c1.744,0.192,3.447,0.532,5.11,1.022
			c1.662,0.49,3.079,1.186,4.252,2.085c1.172,0.899,1.759,2.058,1.759,3.475c0,1.418-0.601,2.712-1.8,3.884
			c-1.199,1.173-2.779,1.758-4.742,1.758c-0.764,0-1.431-0.082-2.003-0.246s-1.186-0.38-1.84-0.654
			c-0.765-0.272-1.608-0.544-2.535-0.818c-0.928-0.272-2.099-0.409-3.516-0.409c-1.092,0-2.167,0.11-3.23,0.327
			c-1.063,0.218-2.003,0.6-2.82,1.145c-0.818,0.545-1.472,1.281-1.963,2.208c-0.49,0.928-0.735,2.073-0.735,3.435
			c0,1.472,0.313,2.535,0.94,3.189c0.626,0.654,1.239,1.118,1.839,1.39c0.981,0.545,1.935,0.981,2.862,1.308
			c0.927,0.327,1.826,0.627,2.698,0.899c1.744,0.545,3.488,1.173,5.233,1.881c1.744,0.709,3.312,1.608,4.701,2.698
			c1.391,1.091,2.507,2.44,3.353,4.047c0.845,1.608,1.268,3.612,1.268,6.01c0,3.162-0.601,5.998-1.799,8.504
			c-1.199,2.508-2.835,4.62-4.906,6.337c-2.072,1.717-4.511,3.04-7.318,3.966s-5.819,1.39-9.035,1.39
			c-1.472,0-3.147-0.137-5.028-0.409c-1.881-0.273-3.667-0.695-5.356-1.268s-3.121-1.335-4.292-2.29
			c-1.173-0.953-1.759-2.085-1.759-3.393c0-0.708,0.164-1.403,0.491-2.085c0.327-0.681,0.776-1.28,1.349-1.799
			c0.572-0.517,1.227-0.94,1.963-1.267c0.735-0.327,1.513-0.491,2.33-0.491c0.6,0,1.227,0.096,1.881,0.286
			c0.654,0.192,1.362,0.423,2.126,0.695c0.926,0.327,2.03,0.683,3.312,1.063c1.28,0.382,2.793,0.573,4.538,0.573
			c3.161,0,5.546-0.708,7.154-2.126C483.381,81.688,484.186,79.699,484.186,77.136z"/>
	</g>
	<g>
		<path fill="#E20613" d="M193.655,29.078c-0.248,0-0.476-0.062-0.682-0.186c-0.207-0.124-0.362-0.299-0.465-0.527l-6.635-16.523
			l-2.231,15.965c-0.042,0.352-0.207,0.651-0.496,0.899c-0.29,0.248-0.61,0.372-0.961,0.372c-0.353,0-0.62-0.124-0.806-0.372
			c-0.187-0.248-0.26-0.547-0.217-0.899l2.789-19.84c0.041-0.393,0.207-0.718,0.496-0.977s0.631-0.388,1.023-0.388
			c0.268,0,0.512,0.067,0.729,0.202c0.217,0.135,0.377,0.315,0.48,0.542l6.603,16.492l2.232-15.965
			c0.041-0.351,0.206-0.651,0.495-0.899c0.29-0.248,0.609-0.372,0.961-0.372s0.621,0.124,0.807,0.372s0.258,0.548,0.217,0.899
			l-2.759,19.84c-0.062,0.372-0.237,0.693-0.526,0.961C194.42,28.943,194.068,29.078,193.655,29.078z"/>
		<path fill="#E20613" d="M205.621,29.078c-1.179,0-2.186-0.207-3.022-0.62c-0.838-0.413-1.504-0.977-2-1.689
			s-0.821-1.555-0.977-2.526c-0.154-0.971-0.16-2.004-0.016-3.1l0.931-6.634c0.165-1.075,0.444-2.093,0.837-3.054
			s0.925-1.798,1.596-2.511c0.672-0.713,1.488-1.281,2.449-1.705c0.961-0.423,2.082-0.636,3.363-0.636s2.346,0.212,3.193,0.636
			c0.848,0.424,1.504,0.992,1.969,1.705c0.465,0.713,0.765,1.55,0.898,2.511c0.135,0.961,0.119,1.979-0.046,3.054l-0.93,6.634
			c-0.146,1.096-0.435,2.129-0.868,3.1c-0.434,0.972-1.003,1.813-1.705,2.526c-0.703,0.713-1.529,1.276-2.48,1.689
			C207.863,28.871,206.799,29.078,205.621,29.078z M208.442,9.021c-1.695,0-2.967,0.501-3.813,1.503
			c-0.848,1.003-1.385,2.331-1.612,3.984l-0.93,6.634c-0.228,1.633-0.036,2.96,0.574,3.983c0.609,1.023,1.709,1.535,3.301,1.535
			s2.836-0.512,3.735-1.535s1.462-2.351,1.689-3.983l0.931-6.634c0.123-0.827,0.149-1.576,0.077-2.248
			c-0.073-0.671-0.259-1.25-0.558-1.736c-0.301-0.485-0.729-0.857-1.287-1.116C209.992,9.15,209.289,9.021,208.442,9.021z"/>
		<path fill="#E20613" d="M222.578,9.331h-4.216c-0.331,0-0.595-0.108-0.791-0.326c-0.196-0.217-0.294-0.47-0.294-0.759
			c0-0.289,0.144-0.583,0.434-0.883s0.62-0.45,0.992-0.45h10.912c0.289,0,0.548,0.104,0.774,0.31
			c0.228,0.207,0.342,0.465,0.342,0.775c0,0.352-0.15,0.662-0.449,0.93c-0.301,0.269-0.637,0.403-1.008,0.403h-4.217l-2.604,18.507
			c-0.041,0.331-0.201,0.62-0.48,0.868s-0.594,0.372-0.945,0.372s-0.625-0.124-0.822-0.372c-0.196-0.248-0.273-0.537-0.232-0.868
			L222.578,9.331z"/>
		<path fill="#E20613" d="M233.706,7.843c0.041-0.331,0.197-0.62,0.465-0.868c0.27-0.248,0.579-0.372,0.931-0.372
			c0.351,0,0.63,0.124,0.837,0.372s0.289,0.538,0.248,0.868l-2.82,19.995c-0.043,0.331-0.202,0.62-0.48,0.868
			c-0.279,0.248-0.596,0.372-0.946,0.372c-0.352,0-0.626-0.124-0.821-0.372c-0.197-0.248-0.274-0.537-0.232-0.868L233.706,7.843z
			 M237.023,0.713c0.228-0.206,0.419-0.376,0.573-0.511C237.752,0.067,237.974,0,238.264,0c0.206,0,0.397,0.083,0.573,0.248
			c0.176,0.166,0.264,0.383,0.264,0.651c0,0.083-0.016,0.186-0.047,0.31s-0.098,0.238-0.201,0.341l-2.883,2.666
			c-0.207,0.186-0.388,0.325-0.543,0.418c-0.154,0.093-0.336,0.139-0.542,0.139c-0.248,0-0.455-0.082-0.62-0.248
			c-0.166-0.165-0.248-0.392-0.248-0.682c0-0.166,0.021-0.29,0.063-0.372c0.041-0.083,0.103-0.165,0.186-0.248L237.023,0.713z"/>
		<path fill="#E20613" d="M238.945,14.508c0.165-1.199,0.46-2.284,0.884-3.255c0.423-0.971,0.965-1.803,1.627-2.496
			c0.661-0.692,1.457-1.224,2.387-1.596s1.994-0.558,3.193-0.558c0.682,0,1.328,0.067,1.938,0.202
			c0.609,0.135,1.152,0.315,1.627,0.542c0.476,0.228,0.854,0.496,1.132,0.806c0.279,0.31,0.419,0.641,0.419,0.992
			c0,0.331-0.124,0.615-0.372,0.853c-0.248,0.238-0.548,0.356-0.899,0.356c-0.228,0-0.402-0.046-0.527-0.14
			c-0.123-0.093-0.299-0.222-0.526-0.387c-0.413-0.31-0.863-0.547-1.349-0.713c-0.486-0.166-1.028-0.248-1.627-0.248
			c-0.869,0-1.617,0.129-2.248,0.387c-0.631,0.259-1.162,0.636-1.596,1.132c-0.435,0.496-0.775,1.09-1.023,1.782
			c-0.248,0.693-0.434,1.473-0.559,2.341l-0.93,6.634c-0.124,0.868-0.16,1.648-0.108,2.34c0.052,0.693,0.228,1.287,0.526,1.783
			c0.3,0.496,0.729,0.873,1.287,1.131c0.559,0.259,1.271,0.388,2.139,0.388c0.6,0,1.162-0.083,1.689-0.248
			c0.527-0.165,1.049-0.403,1.566-0.713c0.289-0.166,0.5-0.294,0.635-0.388c0.135-0.093,0.314-0.14,0.543-0.14
			c0.289,0,0.521,0.093,0.697,0.279s0.264,0.414,0.264,0.682c0,0.372-0.171,0.729-0.512,1.07c-0.341,0.341-0.785,0.641-1.333,0.899
			c-0.548,0.259-1.173,0.46-1.876,0.604c-0.702,0.145-1.416,0.217-2.139,0.217c-1.199,0-2.206-0.186-3.022-0.558
			c-0.816-0.372-1.468-0.904-1.953-1.597c-0.485-0.692-0.796-1.524-0.93-2.496c-0.135-0.971-0.119-2.056,0.046-3.255L238.945,14.508
			z"/>
		<path fill="#E20613" d="M255.685,7.843c0.041-0.331,0.197-0.62,0.465-0.868c0.27-0.248,0.578-0.372,0.93-0.372
			s0.631,0.124,0.838,0.372s0.289,0.538,0.248,0.868l-2.82,19.995c-0.043,0.331-0.203,0.62-0.48,0.868
			c-0.279,0.248-0.596,0.372-0.945,0.372c-0.354,0-0.627-0.124-0.822-0.372c-0.197-0.248-0.273-0.537-0.232-0.868L255.685,7.843z"/>
		<path fill="#E20613" d="M260.737,28.148c-0.124,0.29-0.315,0.517-0.573,0.682c-0.259,0.165-0.501,0.248-0.729,0.248
			c-0.331,0-0.604-0.098-0.821-0.294s-0.325-0.46-0.325-0.791c0-0.103,0.015-0.222,0.046-0.356s0.067-0.222,0.108-0.264
			l8.711-19.127c0.228-0.475,0.48-0.868,0.76-1.178c0.279-0.31,0.646-0.465,1.101-0.465c0.476,0,0.801,0.155,0.977,0.465
			c0.175,0.31,0.314,0.703,0.418,1.178l3.349,19.127c0,0.021,0.005,0.057,0.016,0.108c0.01,0.052,0.016,0.099,0.016,0.14
			c0,0.455-0.146,0.812-0.435,1.069c-0.289,0.258-0.641,0.388-1.054,0.388c-0.228,0-0.455-0.083-0.683-0.248
			s-0.361-0.393-0.402-0.682l-0.713-4.309h-7.844L260.737,28.148z M263.745,21.421h6.386l-1.736-10.509L263.745,21.421z"/>
		<path fill="#E20613" d="M286.839,22.258c0-0.786-0.154-1.364-0.465-1.736c-0.31-0.372-0.62-0.64-0.93-0.806
			c-0.641-0.352-1.375-0.656-2.201-0.915c-0.827-0.258-1.607-0.589-2.341-0.992s-1.354-0.93-1.859-1.581
			c-0.507-0.651-0.76-1.555-0.76-2.712c0-1.054,0.171-2.004,0.512-2.852c0.341-0.847,0.826-1.57,1.457-2.17
			c0.63-0.599,1.39-1.064,2.278-1.395s1.87-0.496,2.945-0.496c0.372,0,0.842,0.026,1.41,0.078c0.568,0.052,1.121,0.15,1.658,0.294
			c0.537,0.145,0.997,0.346,1.38,0.604c0.382,0.259,0.573,0.594,0.573,1.007c0,0.331-0.135,0.631-0.402,0.899
			c-0.27,0.269-0.61,0.403-1.023,0.403c-0.248,0-0.48-0.046-0.697-0.14c-0.217-0.093-0.465-0.191-0.744-0.294
			c-0.279-0.103-0.6-0.202-0.961-0.294c-0.362-0.093-0.812-0.14-1.349-0.14c-0.558,0-1.101,0.062-1.628,0.186
			c-0.526,0.124-0.997,0.341-1.41,0.651c-0.414,0.31-0.749,0.724-1.008,1.24c-0.258,0.517-0.387,1.168-0.387,1.953
			c0,0.806,0.165,1.39,0.495,1.751c0.331,0.362,0.641,0.625,0.931,0.791c0.641,0.372,1.374,0.687,2.201,0.945
			c0.826,0.259,1.611,0.584,2.355,0.977s1.369,0.915,1.876,1.565c0.506,0.651,0.759,1.555,0.759,2.712
			c0,1.137-0.201,2.155-0.604,3.054c-0.402,0.899-0.956,1.664-1.658,2.294c-0.703,0.63-1.529,1.111-2.479,1.441
			c-0.951,0.331-1.964,0.496-3.038,0.496c-0.476,0-1.023-0.042-1.644-0.124c-0.62-0.083-1.209-0.207-1.767-0.372
			c-0.559-0.165-1.028-0.388-1.411-0.667c-0.382-0.279-0.573-0.615-0.573-1.007c0-0.331,0.129-0.636,0.388-0.915
			c0.258-0.279,0.563-0.418,0.914-0.418c0.228,0,0.471,0.057,0.729,0.17c0.259,0.114,0.563,0.238,0.915,0.372
			c0.351,0.135,0.76,0.259,1.225,0.372c0.465,0.114,0.997,0.17,1.597,0.17c1.57,0,2.753-0.393,3.549-1.178
			C286.441,24.697,286.839,23.622,286.839,22.258z"/>
		<path fill="#E20613" d="M316.04,20.584c-0.145,1.054-0.429,2.077-0.852,3.069c-0.424,0.992-1.023,1.866-1.799,2.62
			c-0.774,0.755-1.735,1.359-2.883,1.813c-1.146,0.455-2.517,0.682-4.107,0.682h-3.503c-0.414,0-0.744-0.145-0.992-0.434
			c-0.248-0.289-0.341-0.64-0.278-1.054l2.635-18.91c0.062-0.413,0.258-0.764,0.589-1.054c0.33-0.289,0.702-0.434,1.116-0.434h3.503
			c1.591,0,2.893,0.217,3.905,0.651s1.804,1.013,2.372,1.736c0.568,0.724,0.93,1.565,1.085,2.526s0.16,1.958,0.016,2.992
			L316.04,20.584z M314.366,14.787c0.104-0.764,0.108-1.483,0.016-2.155c-0.093-0.671-0.325-1.255-0.697-1.751
			c-0.372-0.496-0.884-0.883-1.534-1.162c-0.651-0.279-1.483-0.418-2.496-0.418h-3.038l-2.387,17.05h3.038
			c1.033,0,1.917-0.15,2.65-0.45c0.733-0.299,1.354-0.713,1.86-1.24c0.506-0.527,0.903-1.136,1.193-1.829
			c0.289-0.692,0.485-1.441,0.589-2.248L314.366,14.787z"/>
		<path fill="#E20613" d="M329.929,27.373c0,0.372-0.149,0.698-0.449,0.977s-0.636,0.418-1.008,0.418h-8.215
			c-0.517,0-0.956-0.103-1.317-0.31c-0.361-0.206-0.501-0.589-0.418-1.147l2.666-18.941c0.041-0.351,0.227-0.682,0.558-0.992
			c0.33-0.31,0.702-0.465,1.116-0.465h8.4c0.311,0,0.563,0.108,0.76,0.326c0.196,0.217,0.295,0.47,0.295,0.759
			c0,0.393-0.146,0.713-0.435,0.961s-0.609,0.372-0.961,0.372h-7.378l-1.023,7.254h6.789c0.29,0,0.537,0.104,0.744,0.31
			c0.207,0.207,0.311,0.465,0.311,0.775c0,0.372-0.14,0.688-0.419,0.946s-0.604,0.387-0.977,0.387h-6.789l-1.054,7.347h7.688
			c0.31,0,0.573,0.098,0.79,0.294C329.82,26.841,329.929,27.084,329.929,27.373z"/>
	</g>
	<g>
		<g>
			<path fill="#E42620" d="M25.896,139.807c-1.675,0-3.327-0.762-4.407-2.205c-1.82-2.432-1.324-5.878,1.107-7.699l28.105-21.036
				c2.432-1.821,5.879-1.324,7.699,1.108s1.324,5.878-1.107,7.699L29.188,138.71C28.199,139.45,27.043,139.807,25.896,139.807z"/>
		</g>
		<g>
			<path fill="#E42620" d="M57.108,34.956c-1.146,0-2.303-0.357-3.291-1.097L25.712,12.824c-2.433-1.82-2.929-5.267-1.108-7.699
				c1.82-2.432,5.268-2.928,7.698-1.108l28.105,21.035c2.433,1.82,2.929,5.267,1.108,7.699
				C60.436,34.194,58.782,34.956,57.108,34.956z"/>
		</g>
		<g>
			<path fill="#E42620" d="M43.5,79.491h-38c-3.038,0-5.5-2.462-5.5-5.5s2.462-5.5,5.5-5.5h38c3.038,0,5.5,2.462,5.5,5.5
				S46.538,79.491,43.5,79.491z"/>
		</g>
	</g>
</g>
</svg>
