<?xml version="1.0" encoding="utf-8"?>
<!-- Generator: Adobe Illustrator 16.0.0, SVG Export Plug-In . SVG Version: 6.00 Build 0)  -->
<!DOCTYPE svg PUBLIC "-//W3C//DTD SVG 1.1//EN" "http://www.w3.org/Graphics/SVG/1.1/DTD/svg11.dtd">
<svg version="1.1" id="Layer_1" xmlns="http://www.w3.org/2000/svg" xmlns:xlink="http://www.w3.org/1999/xlink" x="0px" y="0px"
	 width="651.276px" height="156.203px" viewBox="0 0 651.276 156.203" enable-background="new 0 0 651.276 156.203"
	 xml:space="preserve">
<g>
	<g>
		<path fill="#225073" d="M7.687,8.165H1.747c-0.496,0-0.91-0.167-1.244-0.502C0.167,7.328,0,6.927,0,6.461
			c0-0.378,0.167-0.757,0.503-1.135c0.334-0.378,0.748-0.568,1.244-0.568H17.12c0.466,0,0.881,0.16,1.245,0.48
			c0.364,0.321,0.546,0.728,0.546,1.223c0,0.466-0.175,0.867-0.523,1.201c-0.35,0.335-0.772,0.502-1.268,0.502h-5.939v26.074
			c0,0.466-0.168,0.874-0.502,1.223c-0.336,0.35-0.75,0.524-1.245,0.524s-0.91-0.174-1.245-0.524
			c-0.334-0.349-0.502-0.757-0.502-1.223V8.165z"/>
		<path fill="#225073" d="M39.132,33.758c0,0.495-0.168,0.917-0.502,1.267c-0.335,0.349-0.75,0.524-1.244,0.524H25.812
			c-0.729,0-1.369-0.146-1.922-0.437s-0.83-0.83-0.83-1.616V6.811c0-0.495,0.197-0.961,0.59-1.397
			c0.393-0.437,0.881-0.655,1.463-0.655h11.836c0.494,0,0.91,0.168,1.244,0.502c0.335,0.335,0.503,0.75,0.503,1.245
			S38.527,7.4,38.192,7.706c-0.334,0.306-0.75,0.459-1.244,0.459H26.554v10.22h9.564c0.438,0,0.83,0.16,1.18,0.48
			c0.35,0.321,0.523,0.728,0.523,1.223c0,0.496-0.16,0.903-0.48,1.223c-0.32,0.321-0.728,0.48-1.223,0.48h-9.564v10.351h10.832
			c0.465,0,0.873,0.161,1.223,0.48C38.958,32.943,39.132,33.321,39.132,33.758z"/>
		<path fill="#225073" d="M56.602,27.207c0-0.699-0.081-1.295-0.24-1.791c-0.16-0.495-0.356-0.917-0.589-1.267
			c-0.234-0.35-0.503-0.626-0.809-0.83c-0.306-0.203-0.59-0.378-0.852-0.524c-1.049-0.553-2.228-1.019-3.537-1.397
			c-1.311-0.378-2.549-0.88-3.713-1.507c-1.165-0.626-2.147-1.478-2.948-2.555c-0.801-1.077-1.2-2.577-1.2-4.499
			c0-2.649,0.785-4.731,2.357-6.245c1.572-1.514,3.727-2.271,6.465-2.271c0.553,0,1.251,0.037,2.096,0.109
			c0.844,0.073,1.666,0.218,2.468,0.437c0.8,0.219,1.485,0.524,2.053,0.917s0.852,0.895,0.852,1.507
			c0,0.437-0.153,0.823-0.458,1.157c-0.307,0.335-0.736,0.502-1.289,0.502c-0.35,0-0.685-0.066-1.004-0.197
			c-0.321-0.131-0.692-0.269-1.114-0.415c-0.423-0.145-0.896-0.284-1.419-0.415c-0.524-0.131-1.166-0.197-1.922-0.197
			c-0.699,0-1.376,0.081-2.031,0.24c-0.655,0.161-1.238,0.422-1.747,0.786c-0.51,0.364-0.917,0.859-1.223,1.485
			c-0.306,0.626-0.458,1.419-0.458,2.38c0,0.728,0.087,1.34,0.262,1.834c0.174,0.495,0.385,0.91,0.633,1.245
			c0.247,0.335,0.517,0.597,0.809,0.786c0.29,0.19,0.567,0.357,0.83,0.502c1.047,0.553,2.233,1.02,3.559,1.397
			c1.324,0.379,2.563,0.881,3.713,1.507c1.149,0.626,2.125,1.471,2.926,2.533c0.801,1.063,1.201,2.555,1.201,4.477
			c0,1.427-0.24,2.708-0.721,3.843s-1.143,2.089-1.987,2.861s-1.856,1.361-3.035,1.769c-1.179,0.408-2.454,0.611-3.821,0.611
			c-0.699,0-1.508-0.059-2.424-0.174c-0.918-0.117-1.791-0.306-2.621-0.568s-1.536-0.597-2.118-1.004
			c-0.583-0.408-0.874-0.902-0.874-1.485c0-0.437,0.153-0.83,0.459-1.179c0.307-0.349,0.678-0.524,1.113-0.524
			c0.32,0,0.678,0.081,1.07,0.24c0.394,0.16,0.852,0.335,1.376,0.524c0.524,0.19,1.12,0.365,1.791,0.524
			c0.669,0.16,1.426,0.24,2.271,0.24c1.951,0,3.414-0.465,4.39-1.398C56.114,30.25,56.602,28.925,56.602,27.207z"/>
		<path fill="#225073" d="M70.752,8.165h-5.94c-0.495,0-0.91-0.167-1.244-0.502c-0.335-0.334-0.502-0.735-0.502-1.201
			c0-0.378,0.167-0.757,0.502-1.135c0.334-0.378,0.749-0.568,1.244-0.568h15.374c0.466,0,0.88,0.16,1.245,0.48
			c0.363,0.321,0.545,0.728,0.545,1.223c0,0.466-0.174,0.867-0.523,1.201c-0.35,0.335-0.771,0.502-1.267,0.502h-5.94v26.074
			c0,0.466-0.168,0.874-0.502,1.223c-0.335,0.35-0.75,0.524-1.244,0.524c-0.496,0-0.91-0.174-1.245-0.524
			c-0.335-0.349-0.502-0.757-0.502-1.223V8.165z"/>
		<path fill="#225073" d="M102.197,33.758c0,0.495-0.168,0.917-0.503,1.267c-0.334,0.349-0.75,0.524-1.244,0.524H88.876
			c-0.729,0-1.369-0.146-1.922-0.437s-0.829-0.83-0.829-1.616V6.811c0-0.495,0.196-0.961,0.589-1.397
			c0.394-0.437,0.881-0.655,1.463-0.655h11.836c0.495,0,0.91,0.168,1.245,0.502c0.335,0.335,0.503,0.75,0.503,1.245
			s-0.168,0.895-0.503,1.201c-0.335,0.306-0.75,0.459-1.245,0.459H89.618v10.22h9.565c0.437,0,0.829,0.16,1.179,0.48
			c0.35,0.321,0.524,0.728,0.524,1.223c0,0.496-0.16,0.903-0.48,1.223c-0.321,0.321-0.728,0.48-1.223,0.48h-9.565v10.351h10.832
			c0.465,0,0.873,0.161,1.223,0.48C102.022,32.943,102.197,33.321,102.197,33.758z"/>
		<path fill="#225073" d="M128.751,35.985c-1.66,0-3.123-0.291-4.39-0.873c-1.267-0.583-2.314-1.376-3.145-2.38
			c-0.829-1.004-1.456-2.19-1.878-3.56c-0.422-1.368-0.633-2.824-0.633-4.368v-9.346c0-1.514,0.182-2.948,0.545-4.302
			c0.364-1.354,0.954-2.533,1.77-3.538c0.814-1.005,1.855-1.805,3.123-2.402c1.266-0.596,2.802-0.896,4.607-0.896
			c1.805,0,3.341,0.299,4.607,0.896c1.267,0.597,2.307,1.397,3.123,2.402c0.814,1.004,1.404,2.184,1.769,3.538
			c0.364,1.354,0.546,2.788,0.546,4.302v9.346c0,1.544-0.211,3-0.633,4.368c-0.423,1.369-1.049,2.555-1.879,3.56
			s-1.877,1.798-3.145,2.38C131.874,35.694,130.41,35.985,128.751,35.985z M128.751,7.728c-1.194,0-2.205,0.182-3.035,0.546
			c-0.83,0.365-1.508,0.889-2.031,1.572c-0.524,0.685-0.902,1.5-1.136,2.446c-0.233,0.947-0.349,2.002-0.349,3.167v9.346
			c0,2.301,0.53,4.171,1.594,5.612c1.063,1.441,2.715,2.162,4.957,2.162s3.894-0.721,4.957-2.162
			c1.063-1.441,1.594-3.312,1.594-5.612v-9.346c0-1.164-0.117-2.22-0.35-3.167c-0.232-0.946-0.611-1.761-1.135-2.446
			c-0.524-0.684-1.201-1.208-2.031-1.572C130.956,7.91,129.944,7.728,128.751,7.728z"/>
		<path fill="#225073" d="M169.629,27.207c0-0.699-0.081-1.295-0.24-1.791c-0.16-0.495-0.356-0.917-0.589-1.267
			c-0.234-0.35-0.503-0.626-0.809-0.83c-0.306-0.203-0.59-0.378-0.852-0.524c-1.049-0.553-2.228-1.019-3.537-1.397
			c-1.311-0.378-2.549-0.88-3.713-1.507c-1.165-0.626-2.147-1.478-2.948-2.555c-0.801-1.077-1.2-2.577-1.2-4.499
			c0-2.649,0.785-4.731,2.357-6.245c1.572-1.514,3.727-2.271,6.465-2.271c0.553,0,1.251,0.037,2.096,0.109
			c0.844,0.073,1.666,0.218,2.468,0.437c0.8,0.219,1.485,0.524,2.053,0.917s0.852,0.895,0.852,1.507
			c0,0.437-0.153,0.823-0.458,1.157c-0.307,0.335-0.736,0.502-1.289,0.502c-0.35,0-0.685-0.066-1.004-0.197
			c-0.321-0.131-0.692-0.269-1.114-0.415c-0.423-0.145-0.896-0.284-1.419-0.415c-0.524-0.131-1.166-0.197-1.922-0.197
			c-0.699,0-1.376,0.081-2.031,0.24c-0.655,0.161-1.238,0.422-1.747,0.786c-0.51,0.364-0.917,0.859-1.223,1.485
			c-0.306,0.626-0.458,1.419-0.458,2.38c0,0.728,0.087,1.34,0.262,1.834c0.174,0.495,0.385,0.91,0.633,1.245
			c0.247,0.335,0.517,0.597,0.809,0.786c0.29,0.19,0.567,0.357,0.83,0.502c1.047,0.553,2.233,1.02,3.559,1.397
			c1.324,0.379,2.563,0.881,3.713,1.507c1.149,0.626,2.125,1.471,2.926,2.533c0.801,1.063,1.201,2.555,1.201,4.477
			c0,1.427-0.24,2.708-0.721,3.843s-1.143,2.089-1.987,2.861s-1.856,1.361-3.035,1.769c-1.179,0.408-2.454,0.611-3.821,0.611
			c-0.699,0-1.508-0.059-2.424-0.174c-0.918-0.117-1.791-0.306-2.621-0.568s-1.536-0.597-2.118-1.004
			c-0.583-0.408-0.874-0.902-0.874-1.485c0-0.437,0.153-0.83,0.459-1.179c0.307-0.349,0.678-0.524,1.113-0.524
			c0.32,0,0.678,0.081,1.07,0.24c0.394,0.16,0.852,0.335,1.376,0.524c0.524,0.19,1.12,0.365,1.791,0.524
			c0.669,0.16,1.426,0.24,2.271,0.24c1.951,0,3.414-0.465,4.39-1.398C169.142,30.25,169.629,28.925,169.629,27.207z"/>
		<path fill="#225073" d="M194.393,33.758c0,0.495-0.168,0.917-0.503,1.267c-0.334,0.349-0.75,0.524-1.244,0.524h-11.574
			c-0.729,0-1.369-0.146-1.922-0.437s-0.829-0.83-0.829-1.616V6.811c0-0.495,0.196-0.961,0.589-1.397
			c0.394-0.437,0.881-0.655,1.463-0.655h11.836c0.495,0,0.91,0.168,1.245,0.502c0.335,0.335,0.503,0.75,0.503,1.245
			s-0.168,0.895-0.503,1.201c-0.335,0.306-0.75,0.459-1.245,0.459h-10.395v10.22h9.565c0.437,0,0.829,0.16,1.179,0.48
			c0.35,0.321,0.524,0.728,0.524,1.223c0,0.496-0.16,0.903-0.48,1.223c-0.321,0.321-0.728,0.48-1.223,0.48h-9.565v10.351h10.832
			c0.465,0,0.873,0.161,1.223,0.48C194.218,32.943,194.393,33.321,194.393,33.758z"/>
		<path fill="#225073" d="M217.977,25.503c0,1.514-0.218,2.912-0.655,4.192c-0.437,1.282-1.07,2.388-1.9,3.319
			c-0.829,0.932-1.842,1.66-3.035,2.184c-1.193,0.524-2.548,0.786-4.062,0.786c-1.544,0-2.919-0.262-4.127-0.786
			c-1.208-0.524-2.221-1.251-3.036-2.184c-0.814-0.932-1.434-2.038-1.855-3.319c-0.422-1.281-0.633-2.678-0.633-4.192V6.155
			c0-0.524,0.174-0.961,0.523-1.31c0.35-0.35,0.771-0.524,1.267-0.524c0.466,0,0.866,0.183,1.201,0.546
			c0.335,0.365,0.503,0.794,0.503,1.289v19.348c0,2.096,0.502,3.799,1.506,5.11c1.005,1.31,2.555,1.965,4.651,1.965
			s3.64-0.669,4.63-2.009c0.989-1.339,1.484-3.028,1.484-5.066V6.155c0-0.495,0.16-0.924,0.48-1.289
			c0.32-0.363,0.729-0.546,1.223-0.546c0.525,0,0.961,0.183,1.311,0.546c0.35,0.365,0.524,0.794,0.524,1.289V25.503z"/>
	</g>
	<g>
		<path fill="#A2C4DF" d="M113.534,60.741c0.291-1.937,0.848-3.753,1.672-5.449c0.822-1.695,1.936-3.161,3.342-4.396
			c1.404-1.235,3.1-2.216,5.086-2.942c1.985-0.727,4.287-1.09,6.902-1.09c1.018,0,2.191,0.072,3.523,0.218s2.592,0.425,3.779,0.835
			c1.186,0.412,2.19,0.994,3.015,1.744c0.823,0.751,1.235,1.732,1.235,2.942c0,0.436-0.072,0.908-0.219,1.417
			c-0.145,0.508-0.398,0.98-0.762,1.417s-0.873,0.788-1.526,1.054c-0.653,0.267-1.515,0.399-2.579,0.399
			c-0.389,0-0.752-0.023-1.09-0.072c-0.34-0.048-0.752-0.169-1.235-0.363c-0.727-0.291-1.417-0.569-2.071-0.836
			c-0.653-0.266-1.537-0.399-2.651-0.399c-2.034,0-3.549,0.497-4.541,1.489c-0.993,0.994-1.611,2.338-1.853,4.033l-1.381,9.809
			c-0.243,1.696-0.013,3.041,0.689,4.033c0.702,0.993,2.071,1.489,4.105,1.489c1.114,0,2.059-0.133,2.834-0.399
			c0.774-0.266,1.55-0.545,2.325-0.835c0.388-0.146,0.737-0.254,1.054-0.327c0.314-0.073,0.738-0.109,1.271-0.109
			c1.646,0,2.748,0.339,3.306,1.017c0.556,0.679,0.835,1.405,0.835,2.18c0,1.406-0.484,2.556-1.453,3.451
			c-0.969,0.897-2.155,1.599-3.56,2.107c-1.405,0.508-2.87,0.847-4.396,1.017c-1.526,0.169-2.87,0.254-4.033,0.254
			c-2.568,0-4.734-0.363-6.502-1.09c-1.77-0.727-3.186-1.708-4.251-2.943s-1.78-2.7-2.144-4.396
			c-0.363-1.695-0.399-3.511-0.109-5.449L113.534,60.741z"/>
		<path fill="#A2C4DF" d="M158.437,84.428c-2.568,0-4.784-0.352-6.648-1.054c-1.865-0.702-3.379-1.659-4.541-2.87
			c-1.162-1.21-1.975-2.639-2.434-4.287c-0.461-1.646-0.545-3.415-0.255-5.304l1.526-10.826c0.241-1.889,0.822-3.657,1.743-5.304
			c0.92-1.646,2.118-3.075,3.597-4.287c1.477-1.21,3.258-2.167,5.34-2.87c2.082-0.702,4.408-1.054,6.976-1.054
			s4.783,0.352,6.648,1.054c1.864,0.703,3.378,1.66,4.541,2.87c1.163,1.211,1.962,2.641,2.397,4.287
			c0.436,1.647,0.533,3.415,0.291,5.304l-1.525,10.826c-0.291,1.889-0.885,3.658-1.781,5.304c-0.896,1.647-2.096,3.077-3.596,4.287
			c-1.502,1.211-3.283,2.168-5.341,2.87C163.315,84.076,161.003,84.428,158.437,84.428z M159.599,75.854
			c1.889,0,3.379-0.436,4.469-1.308c1.09-0.872,1.755-2.082,1.998-3.633l1.525-10.898c0.242-1.501-0.072-2.688-0.944-3.56
			c-0.872-0.872-2.253-1.308-4.142-1.308s-3.367,0.436-4.432,1.308c-1.066,0.872-1.721,2.059-1.962,3.56l-1.526,10.898
			c-0.242,1.551,0.061,2.761,0.908,3.633C156.341,75.418,157.71,75.854,159.599,75.854z"/>
		<path fill="#A2C4DF" d="M205.808,60.959c0.242-1.84,0.023-3.281-0.654-4.323c-0.678-1.042-1.743-1.563-3.196-1.563
			s-3.392,0.509-5.813,1.526c0,0.243,0,0.472,0,0.69c0,0.218-0.025,0.448-0.073,0.69l-3.051,21.943
			c-0.195,1.26-0.764,2.313-1.708,3.161c-0.944,0.847-2.265,1.271-3.96,1.271s-2.895-0.425-3.596-1.271
			c-0.703-0.847-0.957-1.9-0.764-3.161l3.052-22.015c0.192-1.21,0.241-1.962,0.146-2.252c-0.098-0.291-0.194-0.557-0.291-0.799
			c-0.34-0.533-0.57-0.968-0.689-1.308c-0.122-0.338-0.182-0.701-0.182-1.09c0-1.308,0.545-2.409,1.635-3.306
			c1.09-0.896,2.385-1.344,3.887-1.344c1.453,0,2.639,0.703,3.561,2.107c1.791-1.114,3.547-1.913,5.268-2.397
			c1.719-0.484,3.306-0.727,4.759-0.727c4.601,0,7.858,1.296,9.772,3.887c1.912,2.592,2.555,6.019,1.926,10.281l-1.963,14.023
			c-0.098,0.775-0.108,1.333-0.035,1.671c0.072,0.339,0.326,0.775,0.762,1.308c0.242,0.339,0.461,0.643,0.654,0.908
			c0.193,0.267,0.291,0.667,0.291,1.199c0,1.406-0.533,2.483-1.599,3.233s-2.543,1.126-4.433,1.126
			c-0.727,0-1.488-0.085-2.288-0.254c-0.8-0.17-1.502-0.556-2.106-1.163c-0.607-0.605-1.055-1.477-1.345-2.616
			c-0.29-1.138-0.29-2.652,0-4.541L205.808,60.959z"/>
		<path fill="#A2C4DF" d="M245.987,58.707c0.193-1.404,0.023-2.445-0.508-3.124c-0.534-0.678-1.551-1.017-3.053-1.017
			c-1.017,0-2.131,0.194-3.342,0.581c-1.211,0.388-2.301,0.994-3.27,1.816l-3.197,22.96c-0.193,1.26-0.824,2.325-1.889,3.197
			c-1.066,0.872-2.301,1.308-3.705,1.308c-1.406,0-2.532-0.436-3.379-1.308c-0.848-0.872-1.176-1.937-0.98-3.197l6.248-44.321
			c0.145-1.163,0.75-2.204,1.816-3.124c1.064-0.92,2.3-1.381,3.705-1.381c1.404,0,2.543,0.436,3.416,1.308
			c0.871,0.872,1.209,1.938,1.017,3.197l-1.816,13.006c1.114-0.629,2.264-1.114,3.451-1.453c1.187-0.338,2.409-0.509,3.669-0.509
			c4.65,0,7.907,1.188,9.772,3.561c1.864,2.374,2.53,5.425,1.998,9.155l-2.252,15.621c-0.098,0.775-0.109,1.333-0.036,1.671
			c0.072,0.339,0.326,0.775,0.763,1.308c0.241,0.339,0.46,0.643,0.653,0.908c0.193,0.267,0.291,0.667,0.291,1.199
			c0,1.406-0.533,2.483-1.599,3.233s-2.543,1.126-4.433,1.126c-0.727,0-1.488-0.085-2.288-0.254c-0.8-0.17-1.502-0.556-2.106-1.163
			c-0.607-0.605-1.055-1.477-1.345-2.616c-0.29-1.138-0.29-2.652,0-4.541L245.987,58.707z"/>
		<path fill="#A2C4DF" d="M278.028,70.042c-0.969,0-1.877-0.037-2.725-0.109c-0.848-0.072-1.779-0.182-2.797-0.327l-0.363,2.397
			c-0.193,1.26,0.133,2.252,0.98,2.979s2.264,1.09,4.251,1.09c1.163,0,2.276-0.133,3.343-0.399c1.064-0.266,2.227-0.666,3.487-1.199
			c0.146-0.097,0.387-0.193,0.727-0.291c0.339-0.096,0.823-0.145,1.452-0.145c1.551,0,2.604,0.388,3.162,1.163
			c0.555,0.775,0.834,1.551,0.834,2.325c0,1.357-0.545,2.483-1.635,3.379c-1.09,0.896-2.422,1.611-3.995,2.143
			c-1.575,0.534-3.21,0.896-4.905,1.09c-1.695,0.193-3.148,0.291-4.359,0.291c-2.373,0-4.457-0.327-6.248-0.981
			c-1.793-0.654-3.246-1.55-4.359-2.688c-1.115-1.138-1.901-2.481-2.361-4.032c-0.461-1.55-0.57-3.221-0.327-5.014l1.671-12.134
			c0.242-1.84,0.811-3.548,1.708-5.123c0.896-1.573,2.071-2.942,3.524-4.105s3.196-2.071,5.23-2.725
			c2.035-0.654,4.311-0.981,6.83-0.981c4.311,0,7.508,0.97,9.59,2.906c2.084,1.938,3.125,4.505,3.125,7.702
			c0,3.924-1.248,7.037-3.742,9.337C287.632,68.891,283.599,70.042,278.028,70.042z M283.842,57.689
			c0-1.163-0.327-1.998-0.981-2.506c-0.653-0.509-1.61-0.763-2.869-0.763c-1.744,0-3.125,0.425-4.143,1.271
			c-1.017,0.848-1.646,1.998-1.889,3.451l-0.436,3.125c1.162,0.098,2.227,0.17,3.197,0.218c0.968,0.049,1.646,0.073,2.033,0.073
			c1.551,0,2.785-0.351,3.706-1.054C283.381,60.802,283.842,59.531,283.842,57.689z"/>
		<path fill="#A2C4DF" d="M299.244,60.741c0.291-1.937,0.847-3.753,1.671-5.449c0.823-1.695,1.938-3.161,3.343-4.396
			c1.404-1.235,3.1-2.216,5.086-2.942c1.985-0.727,4.287-1.09,6.902-1.09c1.018,0,2.191,0.072,3.524,0.218
			c1.331,0.146,2.59,0.425,3.777,0.835c1.187,0.412,2.191,0.994,3.016,1.744c0.823,0.751,1.235,1.732,1.235,2.942
			c0,0.436-0.073,0.908-0.218,1.417c-0.146,0.508-0.4,0.98-0.764,1.417s-0.871,0.788-1.525,1.054
			c-0.654,0.267-1.515,0.399-2.579,0.399c-0.389,0-0.752-0.023-1.09-0.072c-0.34-0.048-0.752-0.169-1.235-0.363
			c-0.727-0.291-1.417-0.569-2.071-0.836c-0.653-0.266-1.538-0.399-2.651-0.399c-2.034,0-3.549,0.497-4.541,1.489
			c-0.993,0.994-1.611,2.338-1.853,4.033l-1.381,9.809c-0.243,1.696-0.013,3.041,0.69,4.033c0.701,0.993,2.07,1.489,4.104,1.489
			c1.114,0,2.059-0.133,2.834-0.399c0.774-0.266,1.55-0.545,2.325-0.835c0.387-0.146,0.738-0.254,1.054-0.327
			c0.314-0.073,0.737-0.109,1.271-0.109c1.646,0,2.748,0.339,3.306,1.017c0.557,0.679,0.836,1.405,0.836,2.18
			c0,1.406-0.485,2.556-1.453,3.451c-0.97,0.897-2.156,1.599-3.561,2.107c-1.405,0.508-2.87,0.847-4.396,1.017
			c-1.526,0.169-2.87,0.254-4.033,0.254c-2.567,0-4.735-0.363-6.503-1.09c-1.769-0.727-3.186-1.708-4.25-2.943
			c-1.066-1.235-1.78-2.7-2.144-4.396c-0.363-1.695-0.399-3.511-0.109-5.449L299.244,60.741z"/>
		<path fill="#A2C4DF" d="M334.773,51.296c0.192-1.21,0.835-2.252,1.925-3.125s2.337-1.308,3.742-1.308
			c1.404,0,2.53,0.436,3.379,1.308c0.847,0.872,1.174,1.914,0.98,3.125l-3.342,23.686c-0.098,0.775-0.122,1.333-0.073,1.671
			c0.048,0.339,0.291,0.775,0.727,1.308c0.242,0.339,0.46,0.643,0.654,0.908c0.192,0.267,0.29,0.667,0.29,1.199
			c0,1.406-0.533,2.483-1.598,3.233c-1.066,0.75-2.544,1.126-4.433,1.126c-0.727,0-1.489-0.085-2.289-0.254
			c-0.799-0.17-1.502-0.556-2.106-1.163c-0.606-0.605-1.054-1.477-1.345-2.616c-0.29-1.138-0.29-2.652,0-4.541L334.773,51.296z
			 M347.488,36.619c0,1.551-0.63,2.87-1.89,3.96s-2.761,1.635-4.504,1.635c-1.503,0-2.714-0.447-3.634-1.344
			c-0.92-0.896-1.38-1.973-1.38-3.233c0-1.55,0.642-2.87,1.925-3.96s2.798-1.635,4.542-1.635c1.453,0,2.639,0.448,3.56,1.344
			C347.027,34.282,347.488,35.36,347.488,36.619z"/>
		<path fill="#A2C4DF" d="M393.698,59.796c0.192-1.259-0.013-2.336-0.618-3.233c-0.605-0.896-1.587-1.344-2.942-1.344
			c-0.97,0-1.962,0.218-2.979,0.654c-1.018,0.436-2.084,1.066-3.197,1.889c-0.049,0.339-0.072,0.654-0.072,0.944
			c0,0.291-0.025,0.606-0.073,0.945l-2.834,20.271c-0.193,1.26-0.763,2.313-1.707,3.161c-0.944,0.847-2.265,1.271-3.96,1.271
			c-1.696,0-2.895-0.425-3.597-1.271c-0.702-0.847-0.957-1.9-0.763-3.161l2.616-18.818c0.241-1.695,0.218-3.099-0.073-4.214
			c-0.29-1.113-1.235-1.671-2.834-1.671c-0.92,0-1.938,0.182-3.051,0.545c-1.115,0.363-2.253,0.812-3.415,1.344
			c0,0.098,0,0.23,0,0.399c0,0.17-0.025,0.303-0.073,0.4l-3.052,22.015c-0.193,1.26-0.763,2.313-1.707,3.161
			c-0.944,0.847-2.265,1.271-3.96,1.271c-1.696,0-2.895-0.425-3.597-1.271c-0.702-0.847-0.957-1.9-0.763-3.161l3.052-22.015
			c0.193-1.21,0.242-1.962,0.146-2.252c-0.098-0.291-0.194-0.557-0.291-0.799c-0.339-0.533-0.569-0.981-0.69-1.344
			s-0.182-0.714-0.182-1.054c0-1.404,0.557-2.53,1.672-3.378c1.113-0.847,2.349-1.271,3.705-1.271c0.823,0,1.525,0.182,2.107,0.545
			c0.581,0.363,1.064,0.86,1.453,1.49c1.791-1.018,3.56-1.804,5.304-2.362c1.744-0.556,3.39-0.835,4.94-0.835
			c2.954,0,5.619,1.066,7.992,3.197c2.132-1.065,4.069-1.864,5.813-2.398c1.743-0.532,3.607-0.799,5.594-0.799
			c4.312,0,7.532,1.188,9.664,3.561c2.131,2.374,2.93,5.522,2.397,9.445l-2.18,15.331c-0.098,0.775-0.109,1.333-0.036,1.671
			c0.072,0.339,0.327,0.775,0.763,1.308c0.242,0.339,0.46,0.643,0.654,0.908c0.192,0.267,0.29,0.667,0.29,1.199
			c0,1.406-0.533,2.483-1.599,3.233s-2.543,1.126-4.432,1.126c-0.727,0-1.489-0.085-2.289-0.254
			c-0.799-0.17-1.502-0.556-2.106-1.163c-0.606-0.605-1.054-1.477-1.345-2.616c-0.29-1.138-0.29-2.652,0-4.541L393.698,59.796z"/>
		<path fill="#A2C4DF" d="M425.885,70.042c-0.97,0-1.878-0.037-2.725-0.109c-0.848-0.072-1.78-0.182-2.797-0.327L420,72.003
			c-0.194,1.26,0.133,2.252,0.98,2.979c0.847,0.727,2.264,1.09,4.251,1.09c1.162,0,2.275-0.133,3.342-0.399
			c1.064-0.266,2.228-0.666,3.487-1.199c0.146-0.097,0.388-0.193,0.727-0.291c0.339-0.096,0.823-0.145,1.453-0.145
			c1.55,0,2.604,0.388,3.161,1.163c0.556,0.775,0.835,1.551,0.835,2.325c0,1.357-0.545,2.483-1.635,3.379
			c-1.09,0.896-2.422,1.611-3.996,2.143c-1.574,0.534-3.209,0.896-4.904,1.09c-1.696,0.193-3.149,0.291-4.359,0.291
			c-2.374,0-4.457-0.327-6.248-0.981c-1.793-0.654-3.246-1.55-4.359-2.688c-1.115-1.138-1.902-2.481-2.361-4.032
			c-0.461-1.55-0.57-3.221-0.327-5.014l1.671-12.134c0.242-1.84,0.811-3.548,1.707-5.123c0.896-1.573,2.071-2.942,3.524-4.105
			s3.196-2.071,5.231-2.725c2.034-0.654,4.311-0.981,6.829-0.981c4.312,0,7.508,0.97,9.591,2.906
			c2.083,1.938,3.125,4.505,3.125,7.702c0,3.924-1.248,7.037-3.742,9.337C435.487,68.891,431.455,70.042,425.885,70.042z
			 M431.697,57.689c0-1.163-0.326-1.998-0.98-2.506c-0.654-0.509-1.611-0.763-2.87-0.763c-1.744,0-3.124,0.425-4.142,1.271
			c-1.017,0.848-1.647,1.998-1.889,3.451l-0.437,3.125c1.163,0.098,2.228,0.17,3.197,0.218c0.969,0.049,1.646,0.073,2.034,0.073
			c1.55,0,2.785-0.351,3.706-1.054C431.236,60.802,431.697,59.531,431.697,57.689z"/>
		<path fill="#A2C4DF" d="M468.533,60.959c0.242-1.84,0.024-3.281-0.653-4.323c-0.68-1.042-1.744-1.563-3.197-1.563
			s-3.392,0.509-5.813,1.526c0,0.243,0,0.472,0,0.69c0,0.218-0.025,0.448-0.073,0.69l-3.052,21.943
			c-0.193,1.26-0.763,2.313-1.707,3.161c-0.944,0.847-2.265,1.271-3.96,1.271c-1.696,0-2.895-0.425-3.597-1.271
			c-0.702-0.847-0.957-1.9-0.763-3.161l3.052-22.015c0.193-1.21,0.242-1.962,0.146-2.252c-0.098-0.291-0.194-0.557-0.291-0.799
			c-0.339-0.533-0.569-0.968-0.69-1.308c-0.121-0.338-0.182-0.701-0.182-1.09c0-1.308,0.545-2.409,1.635-3.306
			c1.09-0.896,2.386-1.344,3.888-1.344c1.453,0,2.64,0.703,3.561,2.107c1.791-1.114,3.547-1.913,5.268-2.397
			c1.719-0.484,3.306-0.727,4.759-0.727c4.602,0,7.858,1.296,9.772,3.887c1.913,2.592,2.555,6.019,1.926,10.281l-1.962,14.023
			c-0.098,0.775-0.109,1.333-0.037,1.671c0.073,0.339,0.327,0.775,0.764,1.308c0.241,0.339,0.46,0.643,0.653,0.908
			c0.193,0.267,0.291,0.667,0.291,1.199c0,1.406-0.533,2.483-1.599,3.233c-1.066,0.75-2.543,1.126-4.432,1.126
			c-0.727,0-1.49-0.085-2.289-0.254c-0.799-0.17-1.502-0.556-2.107-1.163c-0.605-0.605-1.053-1.477-1.344-2.616
			c-0.291-1.138-0.291-2.652,0-4.541L468.533,60.959z"/>
		<path fill="#A2C4DF" d="M490.911,40.615c0.193-1.259,0.774-2.313,1.744-3.161c0.969-0.847,2.252-1.271,3.851-1.271
			s2.785,0.436,3.561,1.308c0.774,0.872,1.064,1.914,0.872,3.125l-1.163,8.065h5.377c1.259,0,2.276,0.363,3.052,1.09
			c0.774,0.727,1.162,1.647,1.162,2.761c0,1.406-0.545,2.556-1.635,3.451c-1.09,0.897-2.361,1.344-3.814,1.344h-5.376l-1.526,10.971
			c-0.388,2.713-0.436,4.603-0.146,5.667c0.291,1.066,1.309,1.599,3.052,1.599c0.339,0,0.605-0.012,0.8-0.037
			c0.192-0.024,0.338-0.036,0.436-0.036c2.034,0,3.451,0.254,4.25,0.763c0.8,0.509,1.199,1.32,1.199,2.434
			c0,1.211-0.218,2.18-0.654,2.906c-0.436,0.727-1.006,1.284-1.707,1.671c-0.703,0.388-1.515,0.643-2.434,0.763
			c-0.921,0.121-1.89,0.182-2.906,0.182c-2.811,0-5.087-0.338-6.83-1.017c-1.744-0.678-3.052-1.671-3.924-2.979
			c-0.872-1.308-1.38-2.917-1.525-4.832c-0.146-1.913-0.049-4.105,0.29-6.576L490.911,40.615z"/>
		<path fill="#A2C4DF" d="M525.859,84.428c-2.568,0-4.784-0.352-6.648-1.054c-1.865-0.702-3.379-1.659-4.541-2.87
			c-1.162-1.21-1.975-2.639-2.434-4.287c-0.461-1.646-0.546-3.415-0.255-5.304l1.526-10.826c0.241-1.889,0.822-3.657,1.743-5.304
			c0.92-1.646,2.118-3.075,3.597-4.287c1.477-1.21,3.257-2.167,5.341-2.87c2.082-0.702,4.406-1.054,6.975-1.054
			c2.567,0,4.783,0.352,6.648,1.054c1.864,0.703,3.378,1.66,4.541,2.87c1.162,1.211,1.962,2.641,2.397,4.287
			c0.437,1.647,0.532,3.415,0.291,5.304l-1.526,10.826c-0.29,1.889-0.884,3.658-1.78,5.304c-0.896,1.647-2.096,3.077-3.596,4.287
			c-1.502,1.211-3.282,2.168-5.341,2.87C530.738,84.076,528.426,84.428,525.859,84.428z M527.021,75.854
			c1.89,0,3.379-0.436,4.469-1.308c1.09-0.872,1.755-2.082,1.998-3.633l1.525-10.898c0.242-1.501-0.072-2.688-0.944-3.56
			c-0.872-0.872-2.252-1.308-4.142-1.308c-1.889,0-3.367,0.436-4.432,1.308c-1.066,0.872-1.72,2.059-1.962,3.56l-1.526,10.898
			c-0.242,1.551,0.061,2.761,0.909,3.633C523.764,75.418,525.133,75.854,527.021,75.854z"/>
	</g>
	<g>
		<path fill="#11374F" d="M83.624,138.459c-4.742,0-8.218-1.472-10.426-4.416c-2.207-2.943-2.984-6.813-2.33-11.611l1.309-9.24
			c0.326-2.453,0.994-4.729,2.003-6.828c1.008-2.098,2.343-3.925,4.007-5.479c1.662-1.554,3.639-2.766,5.928-3.639
			c2.289-0.871,4.906-1.308,7.85-1.308c5.941,0,10.003,1.445,12.184,4.333c2.18,2.89,2.889,7.087,2.126,12.592l-2.126,15.209
			c-0.055,0.601-0.041,1.063,0.041,1.39c0.082,0.327,0.23,0.572,0.449,0.736c0.218,0.164,0.477,0.273,0.777,0.327
			c0.299,0.055,0.613,0.163,0.94,0.327c0.981,0.382,1.472,1.2,1.472,2.453c0,1.472-0.479,2.658-1.432,3.557
			s-2.656,1.349-5.109,1.349c-1.527,0-2.795-0.246-3.803-0.736c-1.01-0.491-1.895-1.39-2.657-2.698
			c-1.69,1.254-3.407,2.181-5.151,2.78C87.929,138.159,85.913,138.459,83.624,138.459z M95.235,110.986
			c0.271-1.908-0.015-3.284-0.859-4.129c-0.846-0.845-2.303-1.268-4.375-1.268c-2.017,0-3.516,0.627-4.496,1.881
			c-0.981,1.254-1.664,3.162-2.045,5.724l-1.309,9.24c-0.6,4.362,0.872,6.542,4.416,6.542c1.689,0,3.87-0.572,6.541-1.717
			c0-0.272,0-0.531,0-0.777c0-0.245,0.027-0.503,0.082-0.777L95.235,110.986z"/>
		<path fill="#11374F" d="M147.156,140.585c-0.327,2.18-0.954,4.224-1.88,6.133c-0.928,1.907-2.182,3.557-3.762,4.947
			c-1.582,1.39-3.504,2.494-5.766,3.312c-2.262,0.818-4.893,1.227-7.89,1.227c-1.146,0-2.453-0.096-3.925-0.286
			c-1.473-0.191-2.876-0.531-4.211-1.022c-1.337-0.491-2.467-1.132-3.394-1.922c-0.928-0.791-1.39-1.758-1.39-2.902
			c0-1.418,0.584-2.631,1.758-3.639c1.172-1.009,2.547-1.513,4.129-1.513c0.271,0,0.613,0.027,1.021,0.082
			c0.409,0.054,0.912,0.19,1.514,0.409c0.762,0.381,1.525,0.708,2.289,0.981c0.763,0.272,1.717,0.409,2.861,0.409
			c2.344,0,4.089-0.545,5.234-1.635c1.145-1.091,1.852-2.617,2.125-4.579l0.49-3.516c-2.563,0.872-5.287,1.309-8.176,1.309
			c-2.943,0-5.355-0.396-7.236-1.186s-3.326-1.867-4.334-3.23c-1.01-1.362-1.649-2.998-1.922-4.906
			c-0.273-1.907-0.245-3.952,0.082-6.132l1.635-11.529c0.328-2.18,0.982-4.211,1.963-6.092c0.981-1.881,2.303-3.516,3.966-4.906
			c1.662-1.39,3.639-2.479,5.929-3.271c2.289-0.79,4.877-1.186,7.768-1.186c2.779,0,5.191,0.355,7.236,1.063
			c2.044,0.709,3.721,1.704,5.029,2.984c1.308,1.281,2.234,2.768,2.779,4.457c0.545,1.69,0.682,3.516,0.409,5.479L147.156,140.585z
			 M140.206,109.923c0.164-1.362-0.245-2.425-1.227-3.189c-0.98-0.763-2.426-1.145-4.334-1.145c-2.072,0-3.68,0.519-4.824,1.554
			c-1.145,1.036-1.854,2.453-2.125,4.252l-1.637,11.529c-0.273,1.909-0.055,3.407,0.654,4.497c0.709,1.091,2.072,1.635,4.089,1.635
			c1.253,0,2.466-0.164,3.639-0.49c1.171-0.327,2.275-0.872,3.312-1.636L140.206,109.923z"/>
		<path fill="#11374F" d="M174.466,138.459c-2.89,0-5.383-0.396-7.48-1.186c-2.1-0.79-3.803-1.867-5.111-3.23
			c-1.309-1.362-2.222-2.97-2.739-4.824c-0.519-1.853-0.613-3.843-0.286-5.969l1.717-12.184c0.272-2.126,0.927-4.115,1.963-5.969
			c1.035-1.853,2.384-3.461,4.047-4.824c1.662-1.362,3.666-2.439,6.011-3.229c2.343-0.79,4.96-1.186,7.85-1.186
			c2.889,0,5.382,0.396,7.481,1.186c2.098,0.791,3.803,1.868,5.111,3.229c1.308,1.363,2.207,2.972,2.697,4.824
			c0.491,1.854,0.6,3.843,0.328,5.969l-1.718,12.184c-0.327,2.126-0.995,4.116-2.003,5.969c-1.01,1.854-2.359,3.462-4.048,4.824
			c-1.69,1.363-3.694,2.44-6.01,3.23C179.958,138.063,177.354,138.459,174.466,138.459z M175.774,128.811
			c2.127,0,3.803-0.491,5.029-1.472c1.227-0.981,1.975-2.343,2.248-4.088l1.717-12.265c0.273-1.689-0.081-3.026-1.063-4.007
			c-0.98-0.981-2.535-1.472-4.66-1.472c-2.127,0-3.79,0.49-4.988,1.472c-1.199,0.981-1.936,2.317-2.208,4.007l-1.717,12.265
			c-0.273,1.745,0.067,3.107,1.022,4.088C172.108,128.32,173.649,128.811,175.774,128.811z"/>
		<path fill="#11374F" d="M224.835,106.325c-0.873-0.054-1.636-0.094-2.289-0.123c-0.654-0.027-1.268-0.013-1.84,0.041
			c-0.572,0.055-1.159,0.151-1.759,0.286c-0.601,0.137-1.281,0.341-2.044,0.613c0,0.273,0,0.531,0,0.777
			c0,0.245-0.028,0.504-0.082,0.777l-3.434,24.694c-0.219,1.418-0.941,2.616-2.168,3.598c-1.227,0.981-2.63,1.472-4.211,1.472
			s-2.849-0.491-3.802-1.472c-0.954-0.981-1.322-2.18-1.104-3.598l3.435-24.694c0.107-0.926,0.148-1.676,0.122-2.249
			c-0.028-0.572-0.178-1.104-0.45-1.594c-0.218-0.381-0.408-0.736-0.572-1.063c-0.163-0.327-0.245-0.708-0.245-1.145
			c0-1.581,0.654-2.875,1.962-3.884c1.309-1.008,2.753-1.513,4.334-1.513c0.871,0,1.636,0.232,2.29,0.695
			c0.653,0.463,1.227,1.077,1.717,1.839c2.017-1.089,3.966-1.948,5.847-2.576c1.881-0.626,3.475-0.94,4.783-0.94
			c2.289,0,3.87,0.396,4.742,1.186c0.872,0.791,1.309,1.786,1.309,2.984c0,1.799-0.668,3.258-2.003,4.375
			C228.036,105.93,226.524,106.435,224.835,106.325z"/>
		<path fill="#11374F" d="M245.522,138.459c-4.743,0-8.219-1.472-10.426-4.416c-2.208-2.943-2.984-6.813-2.33-11.611l1.308-9.24
			c0.327-2.453,0.994-4.729,2.003-6.828c1.008-2.098,2.344-3.925,4.007-5.479s3.639-2.766,5.929-3.639
			c2.289-0.871,4.906-1.308,7.85-1.308c5.941,0,10.002,1.445,12.184,4.333c2.18,2.89,2.889,7.087,2.125,12.592l-2.125,15.209
			c-0.055,0.601-0.041,1.063,0.041,1.39c0.081,0.327,0.23,0.572,0.449,0.736c0.217,0.164,0.477,0.273,0.777,0.327
			c0.299,0.055,0.613,0.163,0.939,0.327c0.981,0.382,1.473,1.2,1.473,2.453c0,1.472-0.479,2.658-1.432,3.557
			c-0.954,0.899-2.657,1.349-5.11,1.349c-1.526,0-2.794-0.246-3.802-0.736c-1.01-0.491-1.895-1.39-2.658-2.698
			c-1.689,1.254-3.407,2.181-5.15,2.78C249.827,138.159,247.812,138.459,245.522,138.459z M257.133,110.986
			c0.272-1.908-0.015-3.284-0.858-4.129c-0.846-0.845-2.304-1.268-4.375-1.268c-2.018,0-3.516,0.627-4.497,1.881
			c-0.981,1.254-1.663,3.162-2.044,5.724l-1.309,9.24c-0.601,4.362,0.871,6.542,4.416,6.542c1.688,0,3.869-0.572,6.541-1.717
			c0-0.272,0-0.531,0-0.777c0-0.245,0.027-0.503,0.082-0.777L257.133,110.986z"/>
		<path fill="#11374F" d="M349.201,110.74c0.218-1.417-0.014-2.629-0.694-3.639c-0.683-1.008-1.786-1.513-3.312-1.513
			c-1.092,0-2.208,0.246-3.353,0.736c-1.146,0.491-2.345,1.2-3.598,2.126c-0.056,0.382-0.082,0.736-0.082,1.063
			s-0.028,0.682-0.082,1.063l-3.188,22.813c-0.219,1.418-0.859,2.604-1.922,3.557c-1.063,0.953-2.549,1.431-4.456,1.431
			c-1.909,0-3.258-0.478-4.048-1.431c-0.791-0.953-1.077-2.139-0.858-3.557l2.943-21.178c0.272-1.907,0.245-3.488-0.082-4.742
			c-0.327-1.253-1.39-1.881-3.188-1.881c-1.036,0-2.181,0.205-3.435,0.613s-2.534,0.914-3.843,1.513c0,0.11,0,0.259,0,0.45
			c0,0.192-0.028,0.341-0.082,0.45l-3.434,24.776c-0.219,1.418-0.859,2.604-1.922,3.557c-1.063,0.953-2.549,1.431-4.456,1.431
			c-1.909,0-3.259-0.478-4.048-1.431c-0.791-0.953-1.077-2.139-0.858-3.557l3.434-24.776c0.218-1.362,0.272-2.208,0.164-2.535
			c-0.11-0.327-0.219-0.626-0.327-0.899c-0.382-0.599-0.642-1.104-0.776-1.513c-0.137-0.409-0.205-0.804-0.205-1.186
			c0-1.581,0.626-2.848,1.881-3.802c1.253-0.953,2.644-1.431,4.17-1.431c0.927,0,1.718,0.205,2.371,0.613
			c0.654,0.409,1.199,0.968,1.636,1.676c2.017-1.145,4.007-2.03,5.969-2.657c1.963-0.626,3.815-0.94,5.561-0.94
			c3.324,0,6.323,1.2,8.994,3.598c2.398-1.198,4.579-2.098,6.542-2.698c1.962-0.599,4.06-0.899,6.296-0.899
			c4.852,0,8.476,1.336,10.875,4.006c2.398,2.672,3.298,6.214,2.698,10.63l-2.453,17.253c-0.109,0.873-0.122,1.5-0.041,1.881
			c0.082,0.382,0.368,0.873,0.859,1.472c0.271,0.382,0.517,0.723,0.735,1.022c0.218,0.3,0.327,0.75,0.327,1.35
			c0,1.582-0.601,2.794-1.799,3.639c-1.199,0.844-2.862,1.267-4.988,1.267c-0.817,0-1.676-0.096-2.575-0.286
			c-0.899-0.191-1.69-0.626-2.371-1.308c-0.683-0.681-1.186-1.662-1.513-2.944c-0.327-1.28-0.327-2.984,0-5.11L349.201,110.74z"/>
		<path fill="#11374F" d="M385.425,122.27c-1.092,0-2.113-0.041-3.066-0.123c-0.955-0.082-2.004-0.205-3.148-0.368l-0.409,2.698
			c-0.218,1.418,0.149,2.535,1.104,3.353c0.953,0.818,2.548,1.227,4.783,1.227c1.309,0,2.562-0.149,3.762-0.45
			c1.198-0.299,2.506-0.749,3.925-1.349c0.163-0.108,0.436-0.217,0.817-0.327c0.381-0.108,0.926-0.164,1.636-0.164
			c1.743,0,2.929,0.437,3.557,1.309c0.626,0.873,0.94,1.745,0.94,2.616c0,1.527-0.613,2.794-1.84,3.802
			c-1.227,1.009-2.727,1.813-4.497,2.412c-1.772,0.601-3.612,1.008-5.52,1.227c-1.909,0.217-3.544,0.327-4.906,0.327
			c-2.672,0-5.016-0.368-7.032-1.104c-2.018-0.736-3.652-1.744-4.906-3.026c-1.254-1.28-2.14-2.792-2.657-4.538
			c-0.519-1.744-0.642-3.625-0.368-5.642l1.881-13.655c0.272-2.071,0.912-3.993,1.922-5.765c1.008-1.771,2.33-3.312,3.966-4.62
			c1.635-1.308,3.598-2.33,5.887-3.066c2.29-0.736,4.852-1.104,7.687-1.104c4.852,0,8.449,1.091,10.793,3.271
			c2.344,2.181,3.517,5.07,3.517,8.667c0,4.416-1.404,7.919-4.211,10.507C396.23,120.975,391.692,122.27,385.425,122.27z
			 M391.966,108.369c0-1.309-0.368-2.249-1.104-2.821c-0.736-0.572-1.813-0.858-3.23-0.858c-1.962,0-3.516,0.478-4.66,1.431
			c-1.146,0.954-1.854,2.249-2.126,3.884l-0.491,3.516c1.309,0.11,2.507,0.191,3.598,0.245c1.09,0.055,1.853,0.082,2.29,0.082
			c1.744,0,3.134-0.395,4.17-1.186C391.447,111.872,391.966,110.441,391.966,108.369z"/>
		<path fill="#11374F" d="M409.789,110.25c0-2.071,0.381-3.979,1.145-5.724c0.763-1.744,1.881-3.257,3.353-4.538
			c1.472-1.28,3.312-2.275,5.52-2.984c2.208-0.708,4.756-1.063,7.646-1.063c1.253,0,2.603,0.096,4.048,0.286
			c1.443,0.191,2.779,0.519,4.006,0.981c1.227,0.464,2.249,1.104,3.066,1.922c0.818,0.817,1.227,1.854,1.227,3.107
			c0,1.036-0.191,1.868-0.572,2.494c-0.382,0.627-0.858,1.118-1.431,1.472c-0.572,0.355-1.173,0.586-1.799,0.695
			c-0.628,0.11-1.186,0.164-1.677,0.164c-0.709,0-1.349-0.094-1.921-0.286c-0.573-0.19-1.146-0.38-1.718-0.572
			c-0.572-0.19-1.214-0.381-1.921-0.572c-0.71-0.19-1.554-0.286-2.535-0.286c-3.435,0-5.151,1.091-5.151,3.271
			c0,0.981,0.681,1.772,2.044,2.372c1.309,0.6,2.808,1.173,4.497,1.717c1.689,0.545,3.284,1.255,4.784,2.126
			c1.498,0.873,2.779,2.018,3.843,3.434c1.063,1.418,1.595,3.299,1.595,5.642c0,4.416-1.554,7.946-4.661,10.589
			c-3.107,2.645-7.522,3.966-13.246,3.966c-1.255,0-2.686-0.082-4.293-0.245c-1.608-0.164-3.121-0.477-4.538-0.94
			c-1.418-0.462-2.604-1.076-3.557-1.84c-0.955-0.763-1.432-1.744-1.432-2.943c0-1.253,0.559-2.439,1.677-3.557
			c1.116-1.117,2.548-1.676,4.293-1.676c0.653,0,1.308,0.096,1.962,0.286c0.654,0.192,1.335,0.396,2.044,0.613
			c0.708,0.219,1.473,0.423,2.29,0.613c0.817,0.192,1.717,0.286,2.698,0.286c1.58,0,2.889-0.299,3.925-0.899
			c1.035-0.599,1.554-1.525,1.554-2.78c0-0.6-0.137-1.063-0.409-1.39c-0.273-0.327-0.601-0.599-0.981-0.818
			c-1.145-0.708-2.589-1.321-4.333-1.84c-1.745-0.517-3.435-1.186-5.07-2.003c-1.635-0.817-3.039-1.921-4.211-3.312
			C410.374,114.625,409.789,112.703,409.789,110.25z"/>
		<path fill="#11374F" d="M492.865,110.74c0.218-1.417-0.014-2.629-0.694-3.639c-0.683-1.008-1.786-1.513-3.312-1.513
			c-1.092,0-2.208,0.246-3.353,0.736c-1.146,0.491-2.345,1.2-3.598,2.126c-0.056,0.382-0.082,0.736-0.082,1.063
			s-0.028,0.682-0.082,1.063l-3.188,22.813c-0.219,1.418-0.859,2.604-1.922,3.557c-1.063,0.953-2.549,1.431-4.456,1.431
			c-1.909,0-3.258-0.478-4.048-1.431c-0.791-0.953-1.077-2.139-0.858-3.557l2.943-21.178c0.272-1.907,0.245-3.488-0.082-4.742
			c-0.327-1.253-1.39-1.881-3.188-1.881c-1.036,0-2.181,0.205-3.435,0.613s-2.534,0.914-3.843,1.513c0,0.11,0,0.259,0,0.45
			c0,0.192-0.028,0.341-0.082,0.45l-3.434,24.776c-0.219,1.418-0.859,2.604-1.922,3.557c-1.063,0.953-2.549,1.431-4.456,1.431
			c-1.909,0-3.259-0.478-4.048-1.431c-0.791-0.953-1.077-2.139-0.858-3.557l3.434-24.776c0.218-1.362,0.272-2.208,0.164-2.535
			c-0.11-0.327-0.219-0.626-0.327-0.899c-0.382-0.599-0.642-1.104-0.776-1.513c-0.137-0.409-0.205-0.804-0.205-1.186
			c0-1.581,0.626-2.848,1.881-3.802c1.253-0.953,2.644-1.431,4.17-1.431c0.927,0,1.718,0.205,2.371,0.613
			c0.654,0.409,1.199,0.968,1.636,1.676c2.017-1.145,4.007-2.03,5.969-2.657c1.963-0.626,3.815-0.94,5.561-0.94
			c3.324,0,6.323,1.2,8.994,3.598c2.398-1.198,4.579-2.098,6.542-2.698c1.962-0.599,4.06-0.899,6.296-0.899
			c4.852,0,8.476,1.336,10.875,4.006c2.398,2.672,3.298,6.214,2.698,10.63l-2.453,17.253c-0.109,0.873-0.122,1.5-0.041,1.881
			c0.082,0.382,0.368,0.873,0.859,1.472c0.271,0.382,0.517,0.723,0.735,1.022c0.218,0.3,0.327,0.75,0.327,1.35
			c0,1.582-0.601,2.794-1.799,3.639c-1.199,0.844-2.862,1.267-4.988,1.267c-0.817,0-1.676-0.096-2.575-0.286
			c-0.899-0.191-1.69-0.626-2.371-1.308c-0.683-0.681-1.186-1.662-1.513-2.944c-0.327-1.28-0.327-2.984,0-5.11L492.865,110.74z"/>
		<path fill="#11374F" d="M526.963,138.459c-2.891,0-5.385-0.396-7.482-1.186c-2.099-0.79-3.802-1.867-5.11-3.23
			c-1.309-1.362-2.222-2.97-2.739-4.824c-0.519-1.853-0.613-3.843-0.286-5.969l1.717-12.184c0.272-2.126,0.927-4.115,1.963-5.969
			c1.035-1.853,2.384-3.461,4.048-4.824c1.662-1.362,3.665-2.439,6.01-3.229c2.343-0.79,4.96-1.186,7.85-1.186
			c2.889,0,5.383,0.396,7.481,1.186c2.098,0.791,3.803,1.868,5.11,3.229c1.309,1.363,2.208,2.972,2.698,4.824
			c0.491,1.854,0.6,3.843,0.327,5.969l-1.717,12.184c-0.327,2.126-0.995,4.116-2.003,5.969c-1.01,1.854-2.358,3.462-4.048,4.824
			c-1.69,1.363-3.693,2.44-6.01,3.23C532.454,138.063,529.852,138.459,526.963,138.459z M528.271,128.811
			c2.126,0,3.803-0.491,5.029-1.472c1.227-0.981,1.975-2.343,2.248-4.088l1.718-12.265c0.271-1.689-0.082-3.026-1.063-4.007
			c-0.981-0.981-2.535-1.472-4.661-1.472s-3.789,0.49-4.987,1.472c-1.2,0.981-1.936,2.317-2.208,4.007l-1.717,12.265
			c-0.273,1.745,0.067,3.107,1.022,4.088C524.604,128.32,526.145,128.811,528.271,128.811z"/>
		<path fill="#11374F" d="M567.108,131.591c0,0.927-0.218,1.813-0.653,2.657c-0.438,0.846-1.01,1.594-1.718,2.249
			c-0.709,0.654-1.526,1.173-2.453,1.554s-1.88,0.572-2.861,0.572c-1.745,0-3.189-0.56-4.334-1.676s-1.717-2.466-1.717-4.047
			c0-0.926,0.217-1.812,0.654-2.658c0.436-0.844,1.008-1.58,1.717-2.208c0.708-0.626,1.539-1.131,2.494-1.513
			c0.953-0.381,1.948-0.572,2.984-0.572c1.688,0,3.093,0.545,4.211,1.635C566.549,128.676,567.108,130.011,567.108,131.591z
			 M561.058,84.82c0.218-1.417,0.953-2.657,2.208-3.72c1.254-1.063,2.67-1.595,4.252-1.595c1.58,0,2.862,0.532,3.843,1.595
			c0.981,1.063,1.362,2.303,1.146,3.72l-5.643,34.424c-0.218,1.254-0.887,2.331-2.003,3.23c-1.118,0.899-2.304,1.349-3.557,1.349
			c-1.419,0-2.522-0.45-3.312-1.349c-0.791-0.899-1.104-1.976-0.94-3.23L561.058,84.82z"/>
	</g>
	<g>
		<g>
			<g>
				<path fill="#E42620" d="M596.895,32.037c-1.674,0-3.327-0.762-4.407-2.205c-1.82-2.432-1.324-5.879,1.107-7.699L621.7,1.097
					c2.434-1.82,5.88-1.325,7.699,1.108c1.82,2.432,1.324,5.878-1.107,7.699l-28.105,21.035
					C599.197,31.679,598.041,32.037,596.895,32.037z"/>
			</g>
		</g>
		<g>
			<g>
				<path fill="#E42620" d="M621.878,136.887c-1.146,0-2.303-0.357-3.292-1.097l-28.105-21.035c-2.432-1.82-2.928-5.268-1.107-7.699
					c1.819-2.432,5.266-2.928,7.699-1.107l28.105,21.035c2.432,1.819,2.928,5.267,1.107,7.698
					C625.205,136.125,623.552,136.887,621.878,136.887z"/>
			</g>
		</g>
		<g>
			<g>
				<path fill="#E42620" d="M645.776,71.571h-38c-3.037,0-5.5-2.462-5.5-5.5s2.463-5.5,5.5-5.5h38c3.037,0,5.5,2.462,5.5,5.5
					S648.813,71.571,645.776,71.571z"/>
			</g>
		</g>
	</g>
</g>
</svg>
