<?xml version="1.0" encoding="utf-8"?>
<!-- Generator: Adobe Illustrator 16.0.0, SVG Export Plug-In . SVG Version: 6.00 Build 0)  -->
<!DOCTYPE svg PUBLIC "-//W3C//DTD SVG 1.1//EN" "http://www.w3.org/Graphics/SVG/1.1/DTD/svg11.dtd">
<svg version="1.1" id="Layer_1" xmlns="http://www.w3.org/2000/svg" xmlns:xlink="http://www.w3.org/1999/xlink" x="0px" y="0px"
	 width="539.721px" height="136.887px" viewBox="0 0 539.721 136.887" enable-background="new 0 0 539.721 136.887"
	 xml:space="preserve">
<g>
	<g>
		<g>
			<path fill="#E42620" d="M26.285,136.887c-1.676,0-3.328-0.761-4.408-2.205c-1.82-2.432-1.324-5.879,1.107-7.699l28.105-21.035
				c2.432-1.822,5.879-1.325,7.699,1.108c1.82,2.432,1.324,5.879-1.107,7.699L29.576,135.79
				C28.588,136.53,27.43,136.887,26.285,136.887z"/>
		</g>
		<g>
			<path fill="#E42620" d="M57.496,32.036c-1.146,0-2.303-0.357-3.291-1.097L26.1,9.904c-2.434-1.82-2.93-5.267-1.109-7.699
				c1.82-2.433,5.268-2.928,7.699-1.108l28.105,21.035c2.432,1.82,2.928,5.267,1.107,7.699
				C60.822,31.274,59.17,32.036,57.496,32.036z"/>
		</g>
		<g>
			<path fill="#E42620" d="M43.5,76.571h-38c-3.037,0-5.5-2.462-5.5-5.5s2.463-5.5,5.5-5.5h38c3.037,0,5.5,2.462,5.5,5.5
				S46.537,76.571,43.5,76.571z"/>
		</g>
	</g>
	<g>
		<g>
			<path fill="#11374F" d="M104.373,73.326l-2.127,14.964c-0.218,1.418-0.953,2.671-2.207,3.761
				c-1.255,1.09-2.672,1.635-4.252,1.635c-1.527,0-2.795-0.531-3.803-1.594c-1.009-1.063-1.404-2.331-1.186-3.802l6.623-47.098
				c0.218-1.581,1.035-2.957,2.453-4.129c1.418-1.172,2.998-1.758,4.743-1.758h12.02c3.38,0,6.241,0.437,8.586,1.309
				c2.343,0.873,4.237,2.058,5.683,3.557c1.443,1.5,2.494,3.23,3.148,5.192s0.98,4.035,0.98,6.214c0,3.434-0.572,6.5-1.717,9.199
				c-1.145,2.699-2.768,4.975-4.865,6.828c-2.1,1.854-4.593,3.271-7.481,4.252c-2.89,0.981-6.106,1.472-9.649,1.472H104.373z
				 M105.844,62.942h6.951c7.141,0,10.711-3.379,10.711-10.139c0-0.926-0.122-1.812-0.367-2.658
				c-0.246-0.844-0.683-1.594-1.309-2.249c-0.627-0.654-1.486-1.186-2.576-1.594c-1.091-0.409-2.453-0.613-4.088-0.613h-6.95
				L105.844,62.942z"/>
			<path fill="#11374F" d="M141.413,89.844c-0.601,1.199-1.485,2.14-2.657,2.821c-1.174,0.681-2.249,1.022-3.23,1.022
				c-1.472,0-2.712-0.423-3.721-1.267c-1.009-0.845-1.512-1.976-1.512-3.394c0-0.381,0.067-0.804,0.204-1.268
				c0.136-0.462,0.258-0.831,0.368-1.104l22.486-46.526c0.762-1.581,1.688-2.903,2.779-3.966c1.09-1.063,2.617-1.595,4.579-1.595
				s3.365,0.519,4.212,1.554c0.844,1.036,1.43,2.371,1.758,4.007l9.402,46.526v0.899c0,1.854-0.654,3.339-1.962,4.456
				s-2.862,1.676-4.661,1.676c-1.091,0-2.14-0.355-3.148-1.063c-1.009-0.708-1.648-1.635-1.921-2.78l-1.718-8.259h-17.334
				L141.413,89.844z M158.83,58.281c-0.219-1.199-0.328-2.521-0.328-3.966c0-1.444,0-2.793,0-4.047
				c-0.326,1.254-0.709,2.604-1.145,4.047c-0.437,1.445-0.928,2.767-1.472,3.966l-6.296,13.982h11.447L158.83,58.281z"/>
			<path fill="#11374F" d="M228.821,50.268c0,4.688-1.24,8.544-3.72,11.57c-2.481,3.025-5.847,5.192-10.099,6.5l8.831,16.844
				c0.544,1.036,0.695,2.059,0.449,3.066c-0.245,1.009-0.695,1.909-1.35,2.698c-0.653,0.791-1.459,1.431-2.412,1.922
				c-0.953,0.49-1.895,0.736-2.82,0.736c-2.126,0-3.626-0.845-4.497-2.535l-10.712-21.505h-5.561l-2.616,18.725
				c-0.218,1.418-0.968,2.671-2.249,3.761s-2.712,1.635-4.293,1.635c-1.525,0-2.779-0.531-3.761-1.594s-1.363-2.331-1.145-3.802
				l6.623-47.098c0.218-1.581,1.022-2.957,2.412-4.129c1.39-1.172,2.93-1.758,4.62-1.758h14.228c3.38,0,6.228,0.423,8.544,1.268
				c2.316,0.846,4.184,1.962,5.602,3.353c1.417,1.39,2.426,2.984,3.025,4.783S228.821,48.36,228.821,50.268z M217.211,51.576
				c0-0.763-0.123-1.484-0.368-2.167c-0.245-0.681-0.683-1.308-1.309-1.88c-0.628-0.572-1.472-1.022-2.534-1.349
				c-1.063-0.327-2.412-0.491-4.048-0.491h-8.667l-1.881,13.573h9.158c3.106,0,5.49-0.667,7.154-2.003
				C216.379,55.924,217.211,54.029,217.211,51.576z"/>
			<path fill="#11374F" d="M241.576,89.844c-0.6,1.199-1.484,2.14-2.656,2.821c-1.174,0.681-2.25,1.022-3.23,1.022
				c-1.473,0-2.713-0.423-3.721-1.267c-1.01-0.845-1.512-1.976-1.512-3.394c0-0.381,0.066-0.804,0.203-1.268
				c0.137-0.462,0.258-0.831,0.369-1.104l22.486-46.526c0.762-1.581,1.689-2.903,2.779-3.966s2.617-1.595,4.58-1.595
				c1.961,0,3.365,0.519,4.211,1.554c0.844,1.036,1.43,2.371,1.758,4.007l9.402,46.526v0.899c0,1.854-0.654,3.339-1.963,4.456
				c-1.307,1.117-2.861,1.676-4.66,1.676c-1.09,0-2.141-0.355-3.148-1.063c-1.008-0.708-1.648-1.635-1.92-2.78l-1.719-8.259h-17.334
				L241.576,89.844z M258.994,58.281c-0.219-1.199-0.328-2.521-0.328-3.966c0-1.444,0-2.793,0-4.047
				c-0.326,1.254-0.709,2.604-1.145,4.047c-0.438,1.445-0.928,2.767-1.471,3.966l-6.297,13.982h11.447L258.994,58.281z"/>
			<path fill="#11374F" d="M288.674,92.951c-1.799,0-3.229-0.585-4.293-1.758c-1.063-1.172-1.484-2.548-1.268-4.129l6.461-45.872
				c0.271-1.689,1.104-3.093,2.494-4.211c1.389-1.117,2.955-1.676,4.701-1.676h13.818c2.779,0,5.205,0.396,7.277,1.186
				c2.07,0.791,3.773,1.839,5.111,3.148c1.334,1.308,2.33,2.808,2.984,4.497c0.654,1.69,0.98,3.462,0.98,5.315
				c0,1.745-0.273,3.299-0.818,4.661c-0.545,1.363-1.281,2.59-2.207,3.68c-0.928,1.091-2.018,2.058-3.271,2.903
				c-1.254,0.846-2.615,1.594-4.088,2.249c1.09,0.491,2.139,1.063,3.148,1.717c1.008,0.654,1.908,1.445,2.699,2.371
				c0.789,0.928,1.43,1.977,1.92,3.148c0.492,1.173,0.736,2.522,0.736,4.048c0,2.508-0.545,4.893-1.635,7.154
				c-1.092,2.263-2.645,4.252-4.66,5.969c-2.018,1.717-4.43,3.081-7.236,4.088c-2.809,1.009-5.93,1.513-9.363,1.513H288.674z
				 M297.26,68.338l-2.045,14.228h9.158c3.053,0,5.342-0.722,6.869-2.167c1.525-1.444,2.289-3.394,2.289-5.847
				c0-1.962-0.613-3.488-1.84-4.579c-1.227-1.09-2.82-1.636-4.783-1.636H297.26z M308.135,57.872c0.764,0,1.58-0.149,2.453-0.45
				c0.871-0.299,1.662-0.749,2.371-1.349c0.709-0.599,1.295-1.362,1.758-2.29c0.463-0.926,0.695-2.016,0.695-3.271
				c0-1.308-0.367-2.453-1.104-3.434c-0.736-0.981-2.031-1.472-3.885-1.472h-9.975l-1.717,12.265H308.135z"/>
			<path fill="#11374F" d="M365.617,87.145c0,1.582-0.654,2.944-1.963,4.088c-1.309,1.145-2.809,1.717-4.498,1.717h-21.668
				c-0.98,0-1.922-0.095-2.82-0.286c-0.9-0.19-1.676-0.518-2.33-0.981c-0.654-0.462-1.133-1.063-1.432-1.799
				c-0.301-0.736-0.367-1.648-0.205-2.739l6.461-46.035c0.217-1.417,1.008-2.739,2.371-3.966c1.361-1.227,2.943-1.84,4.742-1.84
				h22.158c1.418,0,2.604,0.478,3.559,1.431c0.953,0.955,1.43,2.058,1.43,3.312c0,1.635-0.654,2.984-1.963,4.047
				c-1.307,1.063-2.807,1.595-4.496,1.595h-17.008l-1.881,13.165h15.455c1.361,0,2.533,0.437,3.516,1.308
				c0.98,0.873,1.471,1.991,1.471,3.353c0,1.582-0.641,2.931-1.922,4.048c-1.281,1.118-2.793,1.676-4.537,1.676h-15.455
				l-1.879,13.329h17.824c1.418,0,2.617,0.45,3.598,1.349C365.127,84.815,365.617,85.892,365.617,87.145z M361.201,18.542
				l0.736-0.654c0.6-0.49,1.117-0.871,1.553-1.145c0.436-0.272,1.117-0.409,2.045-0.409c0.871,0,1.662,0.341,2.371,1.022
				c0.707,0.682,1.063,1.541,1.063,2.576c0,0.327-0.068,0.723-0.203,1.186c-0.137,0.464-0.424,0.968-0.859,1.513l-7.604,6.705
				c-0.709,0.545-1.309,0.968-1.799,1.267c-0.492,0.3-1.201,0.45-2.127,0.45c-1.092,0-1.977-0.313-2.658-0.94
				c-0.682-0.626-1.021-1.485-1.021-2.576c0-0.654,0.096-1.158,0.287-1.513c0.189-0.354,0.422-0.695,0.693-1.022L361.201,18.542z"/>
			<path fill="#11374F" d="M407.727,93.687c-1.092,0-2.1-0.259-3.025-0.777c-0.928-0.517-1.609-1.212-2.045-2.085l-14.391-33.034
				l-4.252,30.581c-0.219,1.418-0.969,2.658-2.25,3.721s-2.711,1.594-4.291,1.594c-1.582,0-2.85-0.531-3.803-1.594
				c-0.955-1.063-1.322-2.302-1.104-3.721l6.785-48.243c0.219-1.581,0.953-2.903,2.209-3.966c1.254-1.063,2.752-1.595,4.496-1.595
				c1.09,0,2.113,0.273,3.066,0.818c0.953,0.545,1.648,1.281,2.086,2.208c1.416,3.162,2.684,6.051,3.803,8.667
				c1.115,2.617,2.221,5.192,3.311,7.727s2.209,5.151,3.354,7.85s2.424,5.683,3.842,8.954l4.334-30.908
				c0.217-1.417,0.967-2.657,2.248-3.72s2.713-1.595,4.293-1.595c1.582,0,2.848,0.532,3.803,1.595
				c0.953,1.063,1.32,2.303,1.104,3.72l-6.787,48.243c-0.217,1.527-0.953,2.835-2.207,3.925S409.525,93.687,407.727,93.687z"/>
			<path fill="#11374F" d="M450.162,75.207c0-1.417-0.299-2.453-0.898-3.107c-0.6-0.654-1.199-1.117-1.799-1.39
				c-0.818-0.381-1.689-0.763-2.617-1.145c-0.928-0.38-1.936-0.736-3.025-1.063c-1.744-0.599-3.475-1.227-5.191-1.88
				c-1.717-0.654-3.271-1.525-4.66-2.617c-1.391-1.09-2.51-2.439-3.354-4.047c-0.846-1.607-1.268-3.639-1.268-6.092
				c0-2.944,0.518-5.614,1.555-8.013c1.033-2.398,2.492-4.428,4.373-6.092c1.881-1.662,4.156-2.944,6.828-3.843
				c2.67-0.899,5.613-1.349,8.832-1.349c1.145,0,2.588,0.096,4.332,0.286c1.744,0.192,3.447,0.532,5.111,1.022
				c1.662,0.49,3.078,1.186,4.252,2.085c1.172,0.899,1.758,2.058,1.758,3.475c0,1.418-0.6,2.712-1.799,3.884
				c-1.199,1.173-2.779,1.758-4.742,1.758c-0.764,0-1.432-0.082-2.004-0.246s-1.186-0.38-1.84-0.654
				c-0.764-0.272-1.607-0.544-2.535-0.818c-0.928-0.272-2.098-0.409-3.516-0.409c-1.092,0-2.166,0.11-3.23,0.327
				c-1.063,0.218-2.002,0.6-2.82,1.145c-0.818,0.545-1.471,1.281-1.963,2.208c-0.49,0.928-0.734,2.073-0.734,3.435
				c0,1.472,0.313,2.535,0.939,3.189c0.627,0.654,1.24,1.118,1.84,1.39c0.98,0.545,1.934,0.981,2.861,1.308s1.826,0.627,2.699,0.899
				c1.744,0.545,3.488,1.173,5.232,1.881c1.744,0.709,3.313,1.608,4.701,2.698c1.391,1.091,2.508,2.44,3.354,4.047
				c0.844,1.608,1.268,3.612,1.268,6.01c0,3.162-0.602,5.998-1.799,8.504c-1.199,2.508-2.836,4.62-4.906,6.337
				c-2.072,1.717-4.512,3.04-7.318,3.966c-2.809,0.926-5.82,1.39-9.035,1.39c-1.473,0-3.148-0.137-5.029-0.409
				c-1.881-0.273-3.666-0.695-5.355-1.268s-3.121-1.335-4.293-2.29c-1.172-0.953-1.758-2.085-1.758-3.393
				c0-0.708,0.164-1.403,0.49-2.085c0.328-0.681,0.777-1.28,1.35-1.799c0.572-0.517,1.227-0.94,1.963-1.267
				c0.734-0.327,1.512-0.491,2.33-0.491c0.6,0,1.227,0.096,1.881,0.286c0.654,0.192,1.361,0.423,2.125,0.695
				c0.926,0.327,2.031,0.683,3.313,1.063c1.279,0.382,2.793,0.573,4.537,0.573c3.162,0,5.547-0.708,7.154-2.126
				C449.357,79.759,450.162,77.77,450.162,75.207z"/>
			<path fill="#11374F" d="M480.742,86.655c0,0.927-0.217,1.813-0.652,2.657c-0.438,0.846-1.01,1.594-1.719,2.249
				s-1.525,1.173-2.453,1.554c-0.926,0.381-1.879,0.572-2.861,0.572c-1.744,0-3.189-0.56-4.334-1.676s-1.717-2.466-1.717-4.047
				c0-0.926,0.217-1.812,0.654-2.658c0.436-0.844,1.008-1.58,1.717-2.208c0.709-0.626,1.539-1.131,2.494-1.513
				c0.953-0.381,1.949-0.572,2.984-0.572c1.689,0,3.094,0.545,4.211,1.635C480.184,83.739,480.742,85.074,480.742,86.655z
				 M474.691,39.883c0.219-1.417,0.953-2.657,2.209-3.72c1.254-1.063,2.67-1.595,4.252-1.595c1.58,0,2.861,0.532,3.842,1.595
				c0.982,1.063,1.363,2.303,1.146,3.72l-5.643,34.424c-0.219,1.254-0.887,2.331-2.004,3.23s-2.303,1.349-3.557,1.349
				c-1.418,0-2.521-0.45-3.311-1.349c-0.791-0.899-1.105-1.976-0.941-3.23L474.691,39.883z"/>
		</g>
		<g>
			<path fill="#E20613" d="M125.123,122.655c-0.248,0.517-0.508,0.889-0.775,1.116c-0.27,0.227-0.609,0.341-1.023,0.341
				s-0.719-0.114-0.914-0.341c-0.197-0.228-0.347-0.589-0.449-1.085l-2.449-13.237c-0.083-0.372,0.035-0.702,0.355-0.992
				c0.32-0.289,0.656-0.434,1.008-0.434c0.228,0,0.435,0.067,0.621,0.201c0.186,0.135,0.299,0.336,0.34,0.604l1.984,11.687
				l5.239-11.687c0.103-0.227,0.269-0.418,0.495-0.573c0.229-0.155,0.455-0.232,0.683-0.232c0.372,0,0.661,0.15,0.868,0.449
				c0.206,0.3,0.227,0.656,0.063,1.07L125.123,122.655z"/>
			<path fill="#E20613" d="M136.965,124.112c-0.951,0-1.768-0.145-2.449-0.434c-0.683-0.289-1.23-0.682-1.644-1.178
				c-0.413-0.496-0.697-1.08-0.853-1.752c-0.154-0.671-0.182-1.39-0.077-2.154l0.743-5.177c0.104-0.785,0.331-1.514,0.683-2.186
				c0.351-0.671,0.806-1.256,1.364-1.751c0.558-0.496,1.214-0.884,1.969-1.163c0.754-0.279,1.606-0.418,2.557-0.418
				c0.951,0,1.768,0.139,2.449,0.418c0.682,0.279,1.229,0.667,1.643,1.163c0.414,0.496,0.698,1.08,0.854,1.751
				c0.154,0.672,0.18,1.4,0.077,2.186l-0.744,5.177c-0.104,0.765-0.325,1.483-0.667,2.154c-0.34,0.672-0.79,1.256-1.348,1.752
				c-0.559,0.496-1.22,0.889-1.984,1.178S137.914,124.112,136.965,124.112z M137.274,121.88c1.116,0,1.999-0.289,2.65-0.868
				c0.651-0.578,1.049-1.384,1.193-2.418l0.744-5.208c0.144-1.012-0.031-1.808-0.526-2.387c-0.496-0.578-1.303-0.868-2.419-0.868
				s-1.995,0.29-2.635,0.868c-0.641,0.579-1.034,1.375-1.179,2.387l-0.743,5.208c-0.146,1.034,0.025,1.84,0.511,2.418
				C135.357,121.591,136.158,121.88,137.274,121.88z"/>
			<path fill="#E20613" d="M147.008,113.727c0.104-0.806,0.311-1.555,0.62-2.247s0.729-1.292,1.255-1.798
				c0.527-0.506,1.163-0.909,1.907-1.209c0.744-0.299,1.601-0.449,2.573-0.449c0.352,0,0.76,0.026,1.225,0.077
				c0.465,0.052,0.903,0.15,1.316,0.294c0.414,0.145,0.766,0.326,1.055,0.543c0.289,0.217,0.434,0.501,0.434,0.852
				c0,0.31-0.119,0.584-0.355,0.822c-0.238,0.238-0.523,0.356-0.854,0.356c-0.082,0-0.16-0.005-0.232-0.016
				c-0.072-0.01-0.15-0.036-0.232-0.077c-0.352-0.166-0.708-0.326-1.069-0.481c-0.362-0.155-0.812-0.232-1.349-0.232
				c-1.219,0-2.129,0.31-2.728,0.93c-0.601,0.62-0.981,1.499-1.147,2.635l-0.682,4.681c-0.166,1.137-0.031,2.015,0.402,2.635
				c0.435,0.62,1.261,0.93,2.48,0.93c0.537,0,1.008-0.077,1.41-0.232c0.403-0.155,0.811-0.315,1.225-0.48
				c0.104-0.041,0.191-0.067,0.264-0.078c0.072-0.01,0.15-0.015,0.232-0.015c0.269,0,0.49,0.093,0.666,0.279
				s0.264,0.403,0.264,0.651c0,0.393-0.17,0.718-0.512,0.977c-0.34,0.259-0.748,0.465-1.224,0.62
				c-0.476,0.155-0.977,0.263-1.503,0.325c-0.527,0.062-0.977,0.093-1.35,0.093c-0.971,0-1.787-0.15-2.449-0.45
				c-0.661-0.299-1.178-0.702-1.549-1.209c-0.373-0.506-0.621-1.105-0.744-1.798c-0.125-0.692-0.125-1.441,0-2.248L147.008,113.727z
				"/>
			<path fill="#E20613" d="M163.717,121.973c0.661,0,1.24-0.082,1.736-0.248c0.496-0.165,1.033-0.372,1.611-0.62
				c0.041-0.021,0.098-0.042,0.17-0.062s0.16-0.031,0.264-0.031c0.289,0,0.518,0.098,0.683,0.294
				c0.165,0.197,0.248,0.418,0.248,0.667c0,0.393-0.196,0.729-0.589,1.008c-0.393,0.279-0.863,0.501-1.41,0.667
				c-0.549,0.166-1.127,0.284-1.736,0.356c-0.609,0.072-1.132,0.108-1.566,0.108c-0.867,0-1.627-0.129-2.277-0.388
				c-0.651-0.258-1.179-0.62-1.582-1.085c-0.402-0.465-0.688-1.012-0.852-1.643c-0.166-0.63-0.197-1.307-0.094-2.03l0.838-5.797
				c0.103-0.744,0.32-1.437,0.65-2.077c0.33-0.64,0.77-1.193,1.317-1.659c0.548-0.465,1.188-0.832,1.923-1.1
				c0.732-0.269,1.564-0.403,2.494-0.403c1.529,0,2.666,0.377,3.41,1.131c0.744,0.755,1.117,1.783,1.117,3.085
				c0,1.633-0.466,2.945-1.396,3.937c-0.931,0.992-2.449,1.488-4.558,1.488c-0.475,0-0.981-0.021-1.519-0.062
				c-0.538-0.041-1.075-0.113-1.612-0.217l-0.248,1.829c-0.123,0.868,0.063,1.561,0.559,2.077
				C161.795,121.714,162.601,121.973,163.717,121.973z M167.654,112.425c0-0.806-0.218-1.39-0.652-1.751
				c-0.434-0.361-1.043-0.542-1.828-0.542c-1.014,0-1.834,0.253-2.465,0.759c-0.631,0.507-1.008,1.194-1.131,2.062l-0.342,2.356
				c0.578,0.083,1.188,0.14,1.829,0.17c0.641,0.031,1.116,0.047,1.427,0.047c1.178,0,1.999-0.284,2.464-0.853
				S167.654,113.355,167.654,112.425z M165.731,104.148l2.046,1.891c0.041,0.042,0.124,0.083,0.248,0.124
				c0.124,0.042,0.228,0.062,0.311,0.062c0.227,0,0.434-0.093,0.619-0.279c0.187-0.186,0.279-0.393,0.279-0.62
				c0-0.144-0.041-0.289-0.123-0.434c-0.084-0.144-0.187-0.279-0.311-0.403l-2.139-2.077c-0.084-0.062-0.176-0.119-0.279-0.17
				c-0.104-0.051-0.229-0.078-0.372-0.078c-0.146,0-0.274,0.026-0.388,0.078c-0.113,0.052-0.223,0.108-0.326,0.17l-2.727,2.077
				c-0.207,0.166-0.378,0.326-0.512,0.48c-0.135,0.155-0.202,0.336-0.202,0.542c0,0.166,0.067,0.326,0.202,0.48
				c0.134,0.155,0.294,0.232,0.48,0.232c0.103,0,0.217-0.02,0.34-0.062c0.125-0.041,0.218-0.082,0.279-0.124L165.731,104.148z"/>
			<path fill="#E20613" d="M181.852,113.727c0.104-0.806,0.31-1.555,0.619-2.247c0.311-0.692,0.729-1.292,1.256-1.798
				c0.527-0.506,1.162-0.909,1.906-1.209c0.744-0.299,1.602-0.449,2.573-0.449c0.352,0,0.76,0.026,1.225,0.077
				c0.466,0.052,0.903,0.15,1.317,0.294c0.414,0.145,0.765,0.326,1.055,0.543c0.289,0.217,0.434,0.501,0.434,0.852
				c0,0.31-0.119,0.584-0.356,0.822c-0.237,0.238-0.522,0.356-0.853,0.356c-0.083,0-0.16-0.005-0.232-0.016
				c-0.072-0.01-0.15-0.036-0.232-0.077c-0.352-0.166-0.709-0.326-1.07-0.481c-0.361-0.155-0.811-0.232-1.348-0.232
				c-1.22,0-2.129,0.31-2.729,0.93s-0.981,1.499-1.146,2.635l-0.682,4.681c-0.166,1.137-0.031,2.015,0.402,2.635
				c0.434,0.62,1.26,0.93,2.48,0.93c0.537,0,1.007-0.077,1.41-0.232c0.402-0.155,0.811-0.315,1.225-0.48
				c0.104-0.041,0.19-0.067,0.264-0.078c0.072-0.01,0.149-0.015,0.232-0.015c0.268,0,0.49,0.093,0.666,0.279
				s0.264,0.403,0.264,0.651c0,0.393-0.17,0.718-0.512,0.977c-0.341,0.259-0.749,0.465-1.225,0.62
				c-0.475,0.155-0.977,0.263-1.503,0.325c-0.527,0.062-0.977,0.093-1.349,0.093c-0.972,0-1.788-0.15-2.449-0.45
				c-0.662-0.299-1.178-0.702-1.55-1.209c-0.372-0.506-0.62-1.105-0.744-1.798c-0.124-0.692-0.124-1.441,0-2.248L181.852,113.727z"
				/>
			<path fill="#E20613" d="M198.25,124.112c-0.951,0-1.768-0.145-2.449-0.434s-1.23-0.682-1.643-1.178
				c-0.414-0.496-0.697-1.08-0.854-1.752c-0.154-0.671-0.181-1.39-0.076-2.154l0.743-5.177c0.104-0.785,0.331-1.514,0.683-2.186
				c0.351-0.671,0.806-1.256,1.363-1.751c0.559-0.496,1.215-0.884,1.969-1.163c0.754-0.279,1.607-0.418,2.558-0.418
				s1.767,0.139,2.448,0.418c0.683,0.279,1.23,0.667,1.644,1.163c0.413,0.496,0.698,1.08,0.853,1.751
				c0.155,0.672,0.181,1.4,0.078,2.186l-0.744,5.177c-0.104,0.765-0.326,1.483-0.667,2.154c-0.341,0.672-0.79,1.256-1.349,1.752
				c-0.558,0.496-1.219,0.889-1.984,1.178C200.059,123.967,199.2,124.112,198.25,124.112z M198.561,121.88
				c1.115,0,1.999-0.289,2.65-0.868c0.65-0.578,1.049-1.384,1.193-2.418l0.744-5.208c0.144-1.012-0.031-1.808-0.527-2.387
				c-0.496-0.578-1.303-0.868-2.418-0.868c-1.116,0-1.995,0.29-2.635,0.868c-0.641,0.579-1.034,1.375-1.179,2.387l-0.743,5.208
				c-0.146,1.034,0.025,1.84,0.511,2.418C196.643,121.591,197.443,121.88,198.561,121.88z"/>
			<path fill="#E20613" d="M217.873,113.851c0.164-1.178,0.051-2.087-0.342-2.728c-0.393-0.64-1.054-0.961-1.983-0.961
				c-0.6,0-1.209,0.114-1.829,0.341s-1.22,0.548-1.798,0.961c0,0.166,0,0.325,0,0.48c0,0.155-0.011,0.294-0.031,0.418l-1.487,10.54
				c-0.043,0.331-0.177,0.61-0.404,0.837c-0.227,0.227-0.547,0.341-0.961,0.341c-0.413,0-0.702-0.114-0.867-0.341
				c-0.166-0.227-0.229-0.506-0.186-0.837l1.487-10.54c0.062-0.434,0.093-0.764,0.093-0.992c0-0.227-0.016-0.413-0.047-0.558
				c-0.03-0.145-0.072-0.253-0.123-0.326c-0.053-0.072-0.109-0.17-0.171-0.294c-0.021-0.042-0.052-0.108-0.093-0.202
				c-0.042-0.093-0.063-0.202-0.063-0.326c0-0.33,0.129-0.609,0.388-0.837c0.259-0.227,0.563-0.341,0.915-0.341
				c0.289,0,0.526,0.083,0.713,0.248c0.186,0.166,0.341,0.383,0.465,0.651c0.764-0.475,1.545-0.826,2.34-1.054
				c0.796-0.228,1.566-0.341,2.311-0.341c1.652,0,2.81,0.538,3.472,1.612c0.661,1.075,0.868,2.49,0.62,4.247l-0.992,7.099
				c-0.042,0.352-0.057,0.636-0.047,0.853s0.098,0.418,0.264,0.604c0.041,0.042,0.078,0.108,0.108,0.202
				c0.031,0.093,0.047,0.191,0.047,0.294c0,0.331-0.13,0.615-0.388,0.853c-0.259,0.237-0.563,0.356-0.914,0.356
				c-0.187,0-0.389-0.036-0.605-0.108c-0.217-0.073-0.408-0.217-0.573-0.434c-0.165-0.217-0.284-0.532-0.356-0.946
				c-0.072-0.413-0.057-0.971,0.047-1.674L217.873,113.851z"/>
			<path fill="#E20613" d="M224.443,113.014c0-1.467,0.496-2.682,1.488-3.643s2.397-1.441,4.217-1.441
				c0.393,0,0.816,0.026,1.271,0.078c0.453,0.052,0.877,0.14,1.27,0.264c0.393,0.124,0.719,0.29,0.977,0.496
				c0.26,0.207,0.389,0.465,0.389,0.775c0,0.331-0.129,0.62-0.389,0.868c-0.258,0.248-0.563,0.372-0.914,0.372
				c-0.104,0-0.191-0.016-0.264-0.046c-0.072-0.031-0.16-0.067-0.264-0.108c-0.309-0.166-0.625-0.299-0.945-0.403
				c-0.32-0.103-0.76-0.155-1.317-0.155c-1.075,0-1.86,0.217-2.356,0.651s-0.744,1.044-0.744,1.829c0,0.703,0.404,1.261,1.209,1.674
				c0.477,0.248,1.003,0.476,1.582,0.682c0.578,0.207,1.127,0.465,1.643,0.775c0.518,0.31,0.951,0.718,1.303,1.225
				c0.352,0.507,0.527,1.183,0.527,2.03c0,1.55-0.496,2.801-1.488,3.751c-0.992,0.951-2.461,1.426-4.402,1.426
				c-0.373,0-0.807-0.026-1.303-0.078c-0.496-0.052-0.966-0.14-1.41-0.263c-0.445-0.124-0.821-0.295-1.131-0.512
				c-0.311-0.217-0.466-0.491-0.466-0.821c0-0.29,0.113-0.568,0.341-0.837c0.228-0.268,0.548-0.403,0.961-0.403
				c0.104,0,0.171,0.005,0.202,0.016c0.03,0.011,0.066,0.026,0.108,0.046c0.413,0.166,0.862,0.326,1.348,0.48
				c0.486,0.155,1.039,0.232,1.659,0.232c0.95,0,1.721-0.206,2.31-0.62c0.59-0.413,0.883-1.085,0.883-2.015
				c0-0.434-0.088-0.77-0.262-1.008c-0.176-0.237-0.389-0.429-0.637-0.573c-0.414-0.248-0.93-0.47-1.55-0.667
				c-0.62-0.196-1.214-0.45-1.782-0.76c-0.568-0.31-1.055-0.723-1.457-1.24C224.646,114.574,224.443,113.882,224.443,113.014z"/>
			<path fill="#E20613" d="M241.309,121.973c0.66,0,1.24-0.082,1.736-0.248c0.496-0.165,1.033-0.372,1.611-0.62
				c0.041-0.021,0.098-0.042,0.17-0.062s0.16-0.031,0.264-0.031c0.289,0,0.518,0.098,0.682,0.294
				c0.166,0.197,0.248,0.418,0.248,0.667c0,0.393-0.195,0.729-0.588,1.008c-0.393,0.279-0.863,0.501-1.41,0.667
				c-0.549,0.166-1.127,0.284-1.736,0.356c-0.609,0.072-1.133,0.108-1.566,0.108c-0.867,0-1.627-0.129-2.277-0.388
				c-0.652-0.258-1.18-0.62-1.582-1.085c-0.402-0.465-0.688-1.012-0.852-1.643c-0.166-0.63-0.197-1.307-0.094-2.03l0.838-5.797
				c0.102-0.744,0.32-1.437,0.65-2.077c0.33-0.64,0.77-1.193,1.316-1.659c0.549-0.465,1.189-0.832,1.924-1.1
				c0.732-0.269,1.564-0.403,2.494-0.403c1.529,0,2.666,0.377,3.41,1.131c0.744,0.755,1.117,1.783,1.117,3.085
				c0,1.633-0.467,2.945-1.396,3.937c-0.93,0.992-2.449,1.488-4.557,1.488c-0.475,0-0.982-0.021-1.52-0.062
				c-0.537-0.041-1.074-0.113-1.611-0.217l-0.248,1.829c-0.123,0.868,0.063,1.561,0.559,2.077
				C239.387,121.714,240.191,121.973,241.309,121.973z M245.246,112.425c0-0.806-0.219-1.39-0.652-1.751
				c-0.434-0.361-1.043-0.542-1.828-0.542c-1.014,0-1.834,0.253-2.465,0.759c-0.631,0.507-1.008,1.194-1.131,2.062l-0.342,2.356
				c0.578,0.083,1.188,0.14,1.828,0.17c0.641,0.031,1.117,0.047,1.428,0.047c1.178,0,1.998-0.284,2.463-0.853
				S245.246,113.355,245.246,112.425z"/>
			<path fill="#E20613" d="M259.814,125.104c-0.104,0.806-0.309,1.555-0.619,2.247s-0.729,1.292-1.256,1.798
				c-0.527,0.506-1.158,0.909-1.891,1.209c-0.734,0.299-1.586,0.449-2.557,0.449c-0.354,0-0.76-0.026-1.227-0.077
				c-0.465-0.052-0.908-0.15-1.332-0.295s-0.781-0.325-1.07-0.542c-0.289-0.217-0.434-0.501-0.434-0.853
				c0-0.31,0.119-0.584,0.357-0.821c0.236-0.238,0.521-0.356,0.852-0.356c0.166,0,0.32,0.031,0.465,0.093
				c0.352,0.186,0.709,0.352,1.07,0.496s0.811,0.217,1.348,0.217c1.221,0,2.129-0.31,2.729-0.93s0.982-1.499,1.146-2.635l0.311-2.17
				c-0.6,0.352-1.24,0.631-1.922,0.837c-0.682,0.206-1.416,0.31-2.201,0.31c-0.93,0-1.695-0.145-2.295-0.434
				c-0.6-0.29-1.053-0.682-1.363-1.178s-0.502-1.09-0.574-1.783c-0.072-0.692-0.045-1.441,0.078-2.247l0.682-4.898
				c0.104-0.785,0.32-1.519,0.652-2.201c0.33-0.682,0.77-1.276,1.316-1.783c0.547-0.506,1.193-0.904,1.938-1.193
				c0.744-0.289,1.592-0.434,2.543-0.434c0.908,0,1.693,0.129,2.355,0.388s1.203,0.61,1.627,1.054
				c0.424,0.445,0.725,0.972,0.9,1.581c0.174,0.61,0.211,1.266,0.107,1.969L259.814,125.104z M259.133,112.921
				c0.125-0.868-0.072-1.545-0.588-2.031c-0.518-0.485-1.283-0.729-2.295-0.729c-1.115,0-1.979,0.3-2.588,0.899
				c-0.611,0.6-0.988,1.426-1.133,2.48l-0.682,4.898c-0.166,1.116-0.063,1.984,0.311,2.604c0.371,0.62,1.115,0.93,2.232,0.93
				c0.641,0,1.275-0.113,1.906-0.341c0.631-0.227,1.213-0.589,1.752-1.085L259.133,112.921z"/>
			<path fill="#E20613" d="M275.283,109.201c0.041-0.33,0.176-0.609,0.402-0.837c0.229-0.227,0.549-0.341,0.961-0.341
				c0.414,0,0.703,0.114,0.869,0.341c0.164,0.228,0.227,0.507,0.186,0.837l-1.52,10.85c-0.061,0.434-0.092,0.765-0.092,0.992
				s0.016,0.414,0.047,0.558c0.029,0.145,0.076,0.253,0.139,0.326c0.063,0.073,0.113,0.17,0.154,0.294
				c0.021,0.042,0.047,0.114,0.078,0.217s0.047,0.207,0.047,0.31c0,0.31-0.129,0.584-0.389,0.822
				c-0.258,0.238-0.563,0.356-0.914,0.356c-0.289,0-0.527-0.083-0.713-0.248c-0.186-0.165-0.352-0.392-0.496-0.682
				c-0.723,0.393-1.482,0.677-2.277,0.853c-0.797,0.175-1.557,0.264-2.279,0.264c-1.633,0-2.785-0.537-3.457-1.612
				s-0.883-2.49-0.635-4.247l1.271-9.052c0.041-0.33,0.18-0.609,0.418-0.837c0.236-0.227,0.553-0.341,0.945-0.341
				s0.678,0.114,0.854,0.341c0.174,0.228,0.242,0.507,0.201,0.837l-1.271,9.052c-0.166,1.178-0.053,2.087,0.342,2.728
				c0.391,0.641,1.053,0.961,1.982,0.961c0.6,0,1.205-0.088,1.814-0.264c0.609-0.175,1.193-0.429,1.752-0.759
				c0-0.166,0.004-0.32,0.016-0.465c0.01-0.144,0.025-0.279,0.045-0.403L275.283,109.201z"/>
			<path fill="#E20613" d="M282.723,109.232c0.041-0.331,0.191-0.615,0.449-0.853c0.258-0.237,0.563-0.356,0.914-0.356
				s0.625,0.119,0.822,0.356c0.195,0.238,0.273,0.522,0.232,0.853l-1.643,11.718c-0.041,0.352-0.057,0.636-0.047,0.853
				s0.098,0.418,0.264,0.604c0.041,0.042,0.078,0.108,0.109,0.202c0.029,0.093,0.045,0.191,0.045,0.294
				c0,0.331-0.129,0.615-0.387,0.853c-0.26,0.237-0.564,0.356-0.914,0.356c-0.188,0-0.389-0.036-0.605-0.108
				c-0.217-0.073-0.408-0.217-0.572-0.434c-0.166-0.217-0.285-0.532-0.357-0.946c-0.072-0.413-0.057-0.971,0.047-1.674
				L282.723,109.232z M286.287,102.97c0,0.455-0.17,0.848-0.512,1.178c-0.34,0.331-0.738,0.496-1.193,0.496
				c-0.393,0-0.707-0.128-0.945-0.387c-0.236-0.258-0.355-0.574-0.355-0.946c0-0.454,0.17-0.842,0.512-1.162
				c0.34-0.32,0.738-0.48,1.193-0.48c0.393,0,0.707,0.124,0.945,0.372C286.168,102.288,286.287,102.598,286.287,102.97z"/>
			<path fill="#E20613" d="M298.656,109.201c0.041-0.33,0.176-0.609,0.402-0.837c0.229-0.227,0.549-0.341,0.961-0.341
				c0.414,0,0.703,0.114,0.869,0.341c0.164,0.228,0.227,0.507,0.186,0.837l-1.52,10.85c-0.061,0.434-0.092,0.765-0.092,0.992
				s0.016,0.414,0.047,0.558c0.029,0.145,0.076,0.253,0.139,0.326c0.063,0.073,0.113,0.17,0.154,0.294
				c0.021,0.042,0.047,0.114,0.078,0.217s0.047,0.207,0.047,0.31c0,0.31-0.129,0.584-0.389,0.822
				c-0.258,0.238-0.563,0.356-0.914,0.356c-0.289,0-0.527-0.083-0.713-0.248c-0.186-0.165-0.352-0.392-0.496-0.682
				c-0.723,0.393-1.482,0.677-2.277,0.853c-0.797,0.175-1.557,0.264-2.279,0.264c-1.633,0-2.785-0.537-3.457-1.612
				s-0.883-2.49-0.635-4.247l1.271-9.052c0.041-0.33,0.18-0.609,0.418-0.837c0.236-0.227,0.553-0.341,0.945-0.341
				s0.678,0.114,0.854,0.341c0.174,0.228,0.242,0.507,0.201,0.837l-1.271,9.052c-0.166,1.178-0.053,2.087,0.342,2.728
				c0.391,0.641,1.053,0.961,1.982,0.961c0.6,0,1.205-0.088,1.814-0.264c0.609-0.175,1.193-0.429,1.752-0.759
				c0-0.166,0.004-0.32,0.016-0.465c0.01-0.144,0.025-0.279,0.045-0.403L298.656,109.201z"/>
			<path fill="#E20613" d="M331.609,113.262c0.123-0.868-0.006-1.601-0.389-2.201c-0.383-0.599-1.049-0.899-2-0.899
				c-0.66,0-1.328,0.155-1.998,0.465c-0.672,0.31-1.225,0.703-1.658,1.178c0.041,0.496,0.029,0.961-0.031,1.395l-1.365,9.703
				c-0.041,0.331-0.176,0.61-0.402,0.837c-0.229,0.227-0.547,0.341-0.961,0.341s-0.703-0.114-0.867-0.341
				c-0.166-0.227-0.229-0.506-0.188-0.837l1.271-8.99c0.082-0.558,0.125-1.064,0.125-1.519c0-0.454-0.068-0.847-0.203-1.178
				s-0.355-0.589-0.666-0.775s-0.744-0.279-1.301-0.279c-0.684,0-1.365,0.124-2.047,0.372s-1.262,0.538-1.736,0.868
				c0,0.186,0,0.356,0,0.511c0,0.155-0.01,0.305-0.031,0.45l-1.488,10.54c-0.041,0.331-0.176,0.61-0.402,0.837
				s-0.547,0.341-0.961,0.341s-0.703-0.114-0.867-0.341c-0.166-0.227-0.229-0.506-0.188-0.837l1.488-10.54
				c0.063-0.434,0.094-0.764,0.094-0.992c0-0.227-0.016-0.413-0.047-0.558s-0.072-0.253-0.123-0.326
				c-0.053-0.072-0.109-0.17-0.172-0.294c-0.02-0.042-0.051-0.108-0.092-0.202c-0.043-0.093-0.063-0.202-0.063-0.326
				c0-0.33,0.129-0.609,0.387-0.837c0.258-0.227,0.563-0.341,0.916-0.341c0.268,0,0.494,0.078,0.682,0.232
				c0.186,0.155,0.34,0.356,0.465,0.604c0.723-0.434,1.488-0.775,2.293-1.023c0.807-0.248,1.613-0.372,2.418-0.372
				c0.869,0,1.566,0.135,2.094,0.403s0.955,0.662,1.285,1.178c0.725-0.496,1.473-0.883,2.248-1.163
				c0.775-0.279,1.598-0.418,2.465-0.418c1.674,0,2.889,0.486,3.643,1.457c0.754,0.972,1.018,2.243,0.791,3.813l-1.086,7.75
				c-0.041,0.352-0.057,0.636-0.047,0.853c0.012,0.217,0.098,0.418,0.264,0.604c0.041,0.042,0.078,0.108,0.109,0.202
				c0.031,0.093,0.047,0.191,0.047,0.294c0,0.331-0.131,0.615-0.389,0.853s-0.563,0.356-0.914,0.356
				c-0.186,0-0.387-0.036-0.605-0.108c-0.217-0.073-0.408-0.217-0.572-0.434c-0.166-0.217-0.285-0.532-0.357-0.946
				c-0.072-0.413-0.057-0.971,0.047-1.674L331.609,113.262z"/>
			<path fill="#E20613" d="M344.227,107.93c1.879,0,3.156,0.538,3.828,1.612s0.861,2.625,0.572,4.65l-0.961,6.82
				c-0.082,0.62,0.063,0.93,0.436,0.93c0.041,0,0.076-0.005,0.107-0.016c0.031-0.01,0.078-0.016,0.141-0.016
				c0.268,0,0.465,0.093,0.588,0.279c0.125,0.186,0.186,0.393,0.186,0.62c0,0.455-0.17,0.771-0.512,0.946
				c-0.34,0.175-0.686,0.263-1.037,0.263c-0.477,0-0.9-0.124-1.271-0.372c-0.371-0.248-0.641-0.6-0.807-1.054
				c-0.785,0.476-1.529,0.848-2.23,1.116c-0.703,0.268-1.447,0.403-2.232,0.403c-1.529,0-2.635-0.542-3.318-1.627
				c-0.682-1.085-0.898-2.496-0.65-4.231l0.559-3.937c0.123-0.93,0.346-1.783,0.666-2.558s0.75-1.446,1.287-2.015
				c0.537-0.568,1.188-1.012,1.953-1.333C342.293,108.09,343.191,107.93,344.227,107.93z M346.334,113.386
				c0.164-1.116,0.047-1.932-0.357-2.449c-0.402-0.517-1.141-0.775-2.215-0.775c-1.18,0-2.043,0.321-2.59,0.961
				c-0.547,0.641-0.924,1.705-1.131,3.193l-0.559,3.937c-0.352,2.459,0.434,3.689,2.355,3.689c0.641,0,1.256-0.129,1.846-0.388
				c0.588-0.258,1.131-0.573,1.627-0.945L346.334,113.386z"/>
			<path fill="#E20613" d="M354.457,109.232c0.041-0.331,0.189-0.615,0.449-0.853c0.258-0.237,0.563-0.356,0.914-0.356
				s0.625,0.119,0.822,0.356c0.195,0.238,0.273,0.522,0.232,0.853l-1.645,11.718c-0.041,0.352-0.057,0.636-0.045,0.853
				c0.01,0.217,0.098,0.418,0.262,0.604c0.043,0.042,0.078,0.108,0.109,0.202c0.031,0.093,0.047,0.191,0.047,0.294
				c0,0.331-0.129,0.615-0.389,0.853c-0.258,0.237-0.563,0.356-0.914,0.356c-0.186,0-0.387-0.036-0.604-0.108
				c-0.217-0.073-0.408-0.217-0.574-0.434c-0.166-0.217-0.285-0.532-0.355-0.946c-0.074-0.413-0.059-0.971,0.045-1.674
				L354.457,109.232z M358.021,102.97c0,0.455-0.17,0.848-0.512,1.178s-0.74,0.496-1.193,0.496c-0.393,0-0.709-0.128-0.945-0.387
				c-0.238-0.258-0.357-0.574-0.357-0.946c0-0.454,0.172-0.842,0.512-1.162c0.342-0.32,0.738-0.48,1.193-0.48
				c0.393,0,0.709,0.124,0.945,0.372C357.902,102.288,358.021,102.598,358.021,102.97z"/>
			<path fill="#E20613" d="M360.594,113.014c0-1.467,0.496-2.682,1.488-3.643s2.396-1.441,4.217-1.441
				c0.391,0,0.814,0.026,1.27,0.078c0.455,0.052,0.879,0.14,1.271,0.264c0.393,0.124,0.719,0.29,0.977,0.496
				c0.258,0.207,0.387,0.465,0.387,0.775c0,0.331-0.129,0.62-0.387,0.868s-0.563,0.372-0.914,0.372
				c-0.104,0-0.191-0.016-0.264-0.046c-0.072-0.031-0.16-0.067-0.264-0.108c-0.311-0.166-0.625-0.299-0.945-0.403
				c-0.32-0.103-0.76-0.155-1.318-0.155c-1.074,0-1.859,0.217-2.355,0.651s-0.744,1.044-0.744,1.829
				c0,0.703,0.402,1.261,1.209,1.674c0.475,0.248,1.002,0.476,1.582,0.682c0.578,0.207,1.125,0.465,1.643,0.775
				c0.516,0.31,0.949,0.718,1.301,1.225c0.352,0.507,0.527,1.183,0.527,2.03c0,1.55-0.496,2.801-1.488,3.751
				c-0.992,0.951-2.459,1.426-4.4,1.426c-0.373,0-0.807-0.026-1.303-0.078c-0.496-0.052-0.967-0.14-1.41-0.263
				c-0.445-0.124-0.822-0.295-1.133-0.512c-0.309-0.217-0.465-0.491-0.465-0.821c0-0.29,0.113-0.568,0.342-0.837
				c0.227-0.268,0.547-0.403,0.961-0.403c0.104,0,0.17,0.005,0.201,0.016c0.031,0.011,0.066,0.026,0.109,0.046
				c0.412,0.166,0.861,0.326,1.348,0.48c0.486,0.155,1.039,0.232,1.658,0.232c0.951,0,1.721-0.206,2.311-0.62
				c0.588-0.413,0.883-1.085,0.883-2.015c0-0.434-0.088-0.77-0.264-1.008c-0.176-0.237-0.387-0.429-0.635-0.573
				c-0.414-0.248-0.93-0.47-1.551-0.667c-0.619-0.196-1.215-0.45-1.781-0.76c-0.57-0.31-1.055-0.723-1.457-1.24
				C360.795,114.574,360.594,113.882,360.594,113.014z"/>
			<path fill="#E20613" d="M388.09,108.054c0.516,0,1.068,0.052,1.658,0.155s1.152,0.248,1.689,0.434l0.867-6.076
				c0.043-0.331,0.182-0.609,0.42-0.837c0.236-0.228,0.553-0.341,0.945-0.341s0.676,0.114,0.852,0.341s0.244,0.506,0.203,0.837
				l-2.512,17.763c-0.063,0.434-0.057,0.796,0.016,1.085c0.072,0.29,0.252,0.548,0.543,0.775c0.041,0.083,0.072,0.16,0.092,0.232
				c0.021,0.073,0.031,0.16,0.031,0.263c0,0.352-0.135,0.641-0.402,0.868c-0.27,0.228-0.549,0.341-0.838,0.341
				c-0.352,0-0.65-0.093-0.898-0.279s-0.445-0.423-0.59-0.713c-0.723,0.352-1.473,0.641-2.246,0.868
				c-0.775,0.227-1.557,0.341-2.342,0.341c-1.633,0-2.785-0.542-3.455-1.627c-0.672-1.085-0.885-2.496-0.637-4.231l0.559-3.937
				c0.123-0.93,0.326-1.777,0.604-2.542c0.279-0.765,0.656-1.421,1.133-1.969c0.475-0.547,1.064-0.977,1.766-1.287
				C386.25,108.209,387.098,108.054,388.09,108.054z M391.127,110.813c-0.475-0.228-1.006-0.393-1.596-0.496
				s-1.07-0.155-1.441-0.155c-1.137,0-1.975,0.331-2.512,0.992c-0.537,0.662-0.908,1.716-1.115,3.162l-0.559,3.937
				c-0.352,2.459,0.475,3.689,2.48,3.689c0.496,0,1.043-0.078,1.643-0.232c0.6-0.155,1.178-0.377,1.736-0.667
				c-0.021-0.124-0.025-0.248-0.016-0.372s0.025-0.237,0.047-0.341L391.127,110.813z"/>
			<path fill="#E20613" d="M401.885,121.973c0.66,0,1.24-0.082,1.736-0.248c0.496-0.165,1.033-0.372,1.611-0.62
				c0.041-0.021,0.098-0.042,0.17-0.062s0.16-0.031,0.264-0.031c0.289,0,0.518,0.098,0.682,0.294
				c0.166,0.197,0.248,0.418,0.248,0.667c0,0.393-0.195,0.729-0.588,1.008c-0.393,0.279-0.863,0.501-1.41,0.667
				c-0.549,0.166-1.127,0.284-1.736,0.356c-0.609,0.072-1.131,0.108-1.566,0.108c-0.867,0-1.627-0.129-2.277-0.388
				c-0.652-0.258-1.178-0.62-1.582-1.085c-0.402-0.465-0.688-1.012-0.852-1.643c-0.166-0.63-0.197-1.307-0.094-2.03l0.838-5.797
				c0.104-0.744,0.32-1.437,0.65-2.077c0.33-0.64,0.77-1.193,1.318-1.659c0.547-0.465,1.188-0.832,1.922-1.1
				c0.732-0.269,1.564-0.403,2.494-0.403c1.529,0,2.666,0.377,3.41,1.131c0.744,0.755,1.117,1.783,1.117,3.085
				c0,1.633-0.465,2.945-1.396,3.937c-0.93,0.992-2.447,1.488-4.557,1.488c-0.475,0-0.98-0.021-1.518-0.062
				c-0.539-0.041-1.076-0.113-1.613-0.217l-0.248,1.829c-0.123,0.868,0.063,1.561,0.559,2.077
				C399.963,121.714,400.77,121.973,401.885,121.973z M405.822,112.425c0-0.806-0.217-1.39-0.652-1.751
				c-0.434-0.361-1.043-0.542-1.828-0.542c-1.014,0-1.834,0.253-2.465,0.759c-0.631,0.507-1.008,1.194-1.131,2.062l-0.342,2.356
				c0.578,0.083,1.188,0.14,1.83,0.17c0.639,0.031,1.115,0.047,1.426,0.047c1.178,0,1.998-0.284,2.465-0.853
				C405.59,114.104,405.822,113.355,405.822,112.425z"/>
			<path fill="#E20613" d="M430.188,109.201c0.041-0.33,0.174-0.609,0.402-0.837c0.227-0.227,0.547-0.341,0.961-0.341
				s0.703,0.114,0.867,0.341c0.166,0.228,0.229,0.507,0.188,0.837l-1.52,10.85c-0.063,0.434-0.094,0.765-0.094,0.992
				s0.016,0.414,0.047,0.558c0.031,0.145,0.078,0.253,0.141,0.326c0.061,0.073,0.113,0.17,0.154,0.294
				c0.02,0.042,0.047,0.114,0.078,0.217c0.029,0.104,0.045,0.207,0.045,0.31c0,0.31-0.129,0.584-0.387,0.822
				c-0.258,0.238-0.563,0.356-0.914,0.356c-0.291,0-0.527-0.083-0.713-0.248c-0.188-0.165-0.352-0.392-0.496-0.682
				c-0.725,0.393-1.484,0.677-2.279,0.853s-1.555,0.264-2.277,0.264c-1.633,0-2.785-0.537-3.457-1.612s-0.885-2.49-0.637-4.247
				l1.271-9.052c0.041-0.33,0.182-0.609,0.418-0.837c0.238-0.227,0.553-0.341,0.947-0.341c0.391,0,0.676,0.114,0.852,0.341
				c0.176,0.228,0.242,0.507,0.201,0.837l-1.271,9.052c-0.164,1.178-0.051,2.087,0.342,2.728s1.055,0.961,1.984,0.961
				c0.6,0,1.203-0.088,1.813-0.264c0.609-0.175,1.193-0.429,1.752-0.759c0-0.166,0.006-0.32,0.016-0.465
				c0.01-0.144,0.025-0.279,0.047-0.403L430.188,109.201z"/>
			<path fill="#E20613" d="M453.84,113.262c0.125-0.868-0.006-1.601-0.387-2.201c-0.383-0.599-1.049-0.899-2-0.899
				c-0.662,0-1.328,0.155-2,0.465s-1.225,0.703-1.658,1.178c0.041,0.496,0.031,0.961-0.031,1.395l-1.363,9.703
				c-0.043,0.331-0.176,0.61-0.404,0.837c-0.227,0.227-0.547,0.341-0.961,0.341c-0.412,0-0.701-0.114-0.867-0.341
				s-0.229-0.506-0.186-0.837l1.271-8.99c0.082-0.558,0.123-1.064,0.123-1.519c0-0.454-0.066-0.847-0.201-1.178
				s-0.357-0.589-0.666-0.775c-0.311-0.186-0.744-0.279-1.303-0.279c-0.682,0-1.363,0.124-2.047,0.372
				c-0.682,0.248-1.26,0.538-1.734,0.868c0,0.186,0,0.356,0,0.511c0,0.155-0.012,0.305-0.031,0.45l-1.488,10.54
				c-0.041,0.331-0.176,0.61-0.402,0.837c-0.229,0.227-0.549,0.341-0.961,0.341c-0.414,0-0.703-0.114-0.869-0.341
				s-0.227-0.506-0.186-0.837l1.488-10.54c0.061-0.434,0.092-0.764,0.092-0.992c0-0.227-0.016-0.413-0.045-0.558
				c-0.031-0.145-0.074-0.253-0.125-0.326c-0.051-0.072-0.107-0.17-0.17-0.294c-0.021-0.042-0.053-0.108-0.094-0.202
				c-0.041-0.093-0.063-0.202-0.063-0.326c0-0.33,0.129-0.609,0.389-0.837c0.258-0.227,0.563-0.341,0.914-0.341
				c0.268,0,0.496,0.078,0.682,0.232c0.186,0.155,0.342,0.356,0.465,0.604c0.725-0.434,1.488-0.775,2.295-1.023
				c0.805-0.248,1.611-0.372,2.418-0.372c0.867,0,1.564,0.135,2.092,0.403s0.955,0.662,1.287,1.178
				c0.723-0.496,1.473-0.883,2.248-1.163c0.773-0.279,1.596-0.418,2.463-0.418c1.676,0,2.889,0.486,3.643,1.457
				c0.756,0.972,1.018,2.243,0.791,3.813l-1.084,7.75c-0.043,0.352-0.059,0.636-0.047,0.853c0.01,0.217,0.098,0.418,0.264,0.604
				c0.041,0.042,0.076,0.108,0.107,0.202c0.031,0.093,0.047,0.191,0.047,0.294c0,0.331-0.129,0.615-0.387,0.853
				c-0.26,0.237-0.564,0.356-0.916,0.356c-0.186,0-0.387-0.036-0.604-0.108c-0.217-0.073-0.408-0.217-0.574-0.434
				c-0.166-0.217-0.283-0.532-0.355-0.946c-0.072-0.413-0.057-0.971,0.047-1.674L453.84,113.262z"/>
			<path fill="#E20613" d="M471.385,104.613c0.041-0.331,0.182-0.609,0.418-0.837c0.238-0.227,0.553-0.341,0.947-0.341
				c0.391,0,0.676,0.114,0.852,0.341c0.176,0.228,0.242,0.506,0.201,0.837l-0.588,4.278h3.223c0.289,0,0.521,0.093,0.697,0.279
				s0.264,0.424,0.264,0.713c0,0.372-0.129,0.682-0.387,0.93c-0.26,0.248-0.564,0.372-0.914,0.372h-3.225l-0.867,6.169
				c-0.104,0.806-0.166,1.483-0.188,2.03c-0.02,0.548,0.037,0.998,0.172,1.349c0.133,0.352,0.355,0.604,0.666,0.759
				c0.311,0.155,0.744,0.232,1.303,0.232c0.102,0,0.201-0.005,0.293-0.015c0.094-0.01,0.191-0.016,0.295-0.016
				c0.33,0,0.656,0.057,0.977,0.17c0.32,0.114,0.48,0.377,0.48,0.791c0,0.579-0.207,0.945-0.619,1.101
				c-0.414,0.155-0.859,0.232-1.334,0.232c-1.074,0-1.943-0.134-2.604-0.403c-0.662-0.269-1.158-0.671-1.488-1.209
				s-0.518-1.204-0.559-2s0.012-1.731,0.156-2.806L471.385,104.613z"/>
			<path fill="#E20613" d="M481.336,122.903c-0.041,0.352-0.191,0.641-0.449,0.868c-0.258,0.227-0.563,0.341-0.914,0.341
				s-0.625-0.114-0.822-0.341c-0.195-0.228-0.273-0.517-0.232-0.868l1.488-10.478c0.063-0.517,0.078-0.935,0.047-1.255
				s-0.119-0.625-0.264-0.915c-0.082-0.145-0.123-0.31-0.123-0.496c0-0.351,0.129-0.64,0.387-0.868
				c0.258-0.227,0.553-0.341,0.883-0.341c0.248,0,0.471,0.078,0.668,0.232c0.195,0.155,0.346,0.356,0.449,0.604
				c0.723-0.413,1.492-0.739,2.309-0.977c0.816-0.237,1.523-0.356,2.123-0.356c0.559,0,0.947,0.093,1.164,0.279
				c0.217,0.186,0.324,0.424,0.324,0.713c0,0.434-0.15,0.786-0.449,1.054c-0.299,0.269-0.625,0.393-0.977,0.372
				c-0.641-0.02-1.266,0.016-1.875,0.108c-0.609,0.093-1.348,0.429-2.217,1.008c0,0.166,0,0.315,0,0.449
				c0,0.135-0.01,0.264-0.031,0.388L481.336,122.903z"/>
			<path fill="#E20613" d="M493.891,124.112c-0.951,0-1.768-0.145-2.449-0.434s-1.229-0.682-1.643-1.178
				c-0.414-0.496-0.697-1.08-0.852-1.752c-0.156-0.671-0.182-1.39-0.078-2.154l0.744-5.177c0.104-0.785,0.33-1.514,0.682-2.186
				c0.352-0.671,0.807-1.256,1.363-1.751c0.559-0.496,1.215-0.884,1.969-1.163c0.754-0.279,1.607-0.418,2.559-0.418
				c0.949,0,1.766,0.139,2.449,0.418c0.682,0.279,1.229,0.667,1.643,1.163c0.412,0.496,0.697,1.08,0.852,1.751
				c0.156,0.672,0.182,1.4,0.078,2.186l-0.744,5.177c-0.104,0.765-0.326,1.483-0.666,2.154c-0.342,0.672-0.791,1.256-1.35,1.752
				c-0.557,0.496-1.219,0.889-1.982,1.178C495.699,123.967,494.842,124.112,493.891,124.112z M494.201,121.88
				c1.115,0,2-0.289,2.65-0.868c0.65-0.578,1.049-1.384,1.193-2.418l0.744-5.208c0.145-1.012-0.031-1.808-0.527-2.387
				c-0.496-0.578-1.301-0.868-2.418-0.868c-1.115,0-1.994,0.29-2.635,0.868c-0.641,0.579-1.033,1.375-1.178,2.387l-0.744,5.208
				c-0.145,1.034,0.025,1.84,0.512,2.418C492.283,121.591,493.086,121.88,494.201,121.88z"/>
			<path fill="#E20613" d="M505.732,107.217c0.145-0.992,0.404-1.845,0.775-2.558s0.838-1.307,1.395-1.782
				c0.559-0.476,1.184-0.837,1.875-1.085c0.693-0.248,1.432-0.382,2.217-0.403c0.125,0,0.33,0.005,0.621,0.016
				c0.289,0.011,0.584,0.052,0.883,0.124c0.299,0.073,0.563,0.197,0.791,0.372c0.227,0.176,0.34,0.429,0.34,0.759
				c0,0.393-0.139,0.703-0.418,0.93c-0.279,0.228-0.594,0.341-0.945,0.341c-0.27,0-0.537-0.036-0.807-0.108
				c-0.268-0.072-0.619-0.108-1.053-0.108c-0.93,0-1.67,0.321-2.217,0.961c-0.549,0.641-0.883,1.406-1.008,2.294l-0.279,1.922h3.256
				c0.289,0,0.521,0.093,0.697,0.279s0.264,0.424,0.264,0.713c0,0.372-0.129,0.682-0.389,0.93c-0.258,0.248-0.563,0.372-0.914,0.372
				h-3.225l-2.541,18.166c-0.041,0.331-0.182,0.609-0.418,0.837c-0.238,0.227-0.553,0.341-0.945,0.341
				c-0.395,0-0.678-0.114-0.854-0.341c-0.176-0.228-0.242-0.507-0.201-0.837L505.732,107.217z"/>
			<path fill="#E20613" d="M518.689,121.973c0.662,0,1.24-0.082,1.736-0.248c0.496-0.165,1.033-0.372,1.613-0.62
				c0.041-0.021,0.098-0.042,0.17-0.062s0.16-0.031,0.264-0.031c0.289,0,0.516,0.098,0.682,0.294
				c0.166,0.197,0.248,0.418,0.248,0.667c0,0.393-0.197,0.729-0.59,1.008c-0.393,0.279-0.863,0.501-1.41,0.667
				s-1.127,0.284-1.736,0.356c-0.609,0.072-1.131,0.108-1.564,0.108c-0.869,0-1.627-0.129-2.279-0.388
				c-0.65-0.258-1.178-0.62-1.58-1.085c-0.404-0.465-0.688-1.012-0.854-1.643c-0.166-0.63-0.195-1.307-0.092-2.03l0.836-5.797
				c0.104-0.744,0.32-1.437,0.652-2.077c0.33-0.64,0.77-1.193,1.316-1.659c0.547-0.465,1.188-0.832,1.922-1.1
				s1.566-0.403,2.496-0.403c1.529,0,2.666,0.377,3.41,1.131c0.744,0.755,1.115,1.783,1.115,3.085c0,1.633-0.465,2.945-1.395,3.937
				c-0.93,0.992-2.449,1.488-4.557,1.488c-0.477,0-0.982-0.021-1.52-0.062c-0.537-0.041-1.074-0.113-1.611-0.217l-0.248,1.829
				c-0.125,0.868,0.061,1.561,0.557,2.077C516.768,121.714,517.574,121.973,518.689,121.973z M522.627,112.425
				c0-0.806-0.217-1.39-0.65-1.751c-0.434-0.361-1.045-0.542-1.83-0.542c-1.012,0-1.834,0.253-2.463,0.759
				c-0.631,0.507-1.008,1.194-1.133,2.062l-0.34,2.356c0.578,0.083,1.188,0.14,1.828,0.17c0.641,0.031,1.115,0.047,1.426,0.047
				c1.178,0,2-0.284,2.465-0.853S522.627,113.355,522.627,112.425z M519.65,104.52c-0.082,0.083-0.145,0.166-0.186,0.248
				c-0.041,0.083-0.063,0.207-0.063,0.372c0,0.29,0.084,0.517,0.248,0.682c0.166,0.166,0.373,0.248,0.621,0.248
				c0.207,0,0.387-0.046,0.543-0.14c0.154-0.093,0.334-0.232,0.541-0.418l2.883-2.666c0.104-0.103,0.172-0.217,0.203-0.341
				s0.045-0.227,0.045-0.31c0-0.269-0.088-0.485-0.262-0.651c-0.176-0.166-0.367-0.248-0.574-0.248
				c-0.289,0-0.512,0.067-0.666,0.201c-0.156,0.135-0.348,0.305-0.574,0.512L519.65,104.52z"/>
			<path fill="#E20613" d="M537.291,109.201c0.041-0.33,0.174-0.609,0.402-0.837c0.227-0.227,0.547-0.341,0.961-0.341
				s0.703,0.114,0.867,0.341c0.166,0.228,0.229,0.507,0.188,0.837l-1.52,10.85c-0.063,0.434-0.094,0.765-0.094,0.992
				s0.016,0.414,0.047,0.558c0.031,0.145,0.078,0.253,0.141,0.326c0.061,0.073,0.113,0.17,0.154,0.294
				c0.02,0.042,0.047,0.114,0.078,0.217c0.029,0.104,0.045,0.207,0.045,0.31c0,0.31-0.129,0.584-0.387,0.822
				c-0.258,0.238-0.563,0.356-0.914,0.356c-0.291,0-0.527-0.083-0.713-0.248c-0.188-0.165-0.352-0.392-0.496-0.682
				c-0.725,0.393-1.484,0.677-2.279,0.853s-1.555,0.264-2.277,0.264c-1.633,0-2.785-0.537-3.457-1.612s-0.885-2.49-0.637-4.247
				l1.271-9.052c0.041-0.33,0.182-0.609,0.418-0.837c0.238-0.227,0.553-0.341,0.947-0.341c0.391,0,0.676,0.114,0.852,0.341
				c0.176,0.228,0.242,0.507,0.201,0.837l-1.271,9.052c-0.164,1.178-0.051,2.087,0.342,2.728s1.055,0.961,1.984,0.961
				c0.6,0,1.203-0.088,1.813-0.264c0.609-0.175,1.193-0.429,1.752-0.759c0-0.166,0.006-0.32,0.016-0.465
				c0.01-0.144,0.025-0.279,0.047-0.403L537.291,109.201z"/>
		</g>
	</g>
</g>
</svg>
