<?xml version="1.0" encoding="utf-8"?>
<!-- Generator: Adobe Illustrator 16.0.0, SVG Export Plug-In . SVG Version: 6.00 Build 0)  -->
<!DOCTYPE svg PUBLIC "-//W3C//DTD SVG 1.1//EN" "http://www.w3.org/Graphics/SVG/1.1/DTD/svg11.dtd">
<svg version="1.1" id="Layer_1" xmlns="http://www.w3.org/2000/svg" xmlns:xlink="http://www.w3.org/1999/xlink" x="0px" y="0px"
	 width="97.403px" height="79.028px" viewBox="0 0 97.403 79.028" enable-background="new 0 0 97.403 79.028" xml:space="preserve">
<g>
	<path fill="#08202B" d="M97.403,4.81c0,1.764,0,3.527,0,5.291c-0.044,0.174-0.111,0.345-0.131,0.522
		c-0.397,3.847-1.061,7.636-2.293,11.318c-1.515,4.525-3.688,8.657-7.023,12.118c-2.354,2.439-5.102,4.292-8.285,5.471
		c-3.674,1.359-7.468,1.915-11.376,1.566c-0.735-0.066-1.201,0.11-1.688,0.744c-3.069,4-6.681,7.359-11.45,9.265
		c-0.512,0.204-0.675,0.507-0.672,1.053c0.021,4.148,0.024,8.297-0.002,12.445c-0.005,0.649,0.191,0.835,0.835,0.832
		c4.07-0.026,8.142-0.013,12.212-0.012c0.306,0,0.611,0,0.99,0c0.016,0.362,0.039,0.639,0.039,0.916
		c0.003,2.359,0.021,4.719-0.011,7.078c-0.007,0.611,0.175,0.813,0.793,0.792c1.26-0.043,2.522-0.013,3.816-0.013
		c0,1.667,0,3.235,0,4.833c-16.327,0-32.601,0-48.919,0c0-1.612,0-3.181,0-4.833c1.259,0,2.473-0.038,3.684,0.015
		c0.7,0.03,0.943-0.159,0.929-0.898c-0.046-2.333-0.017-4.667-0.017-7c0-0.274,0-0.548,0-0.896c0.396,0,0.677,0,0.957-0.001
		c4.097,0,8.193-0.013,12.29,0.012c0.642,0.004,0.841-0.184,0.837-0.833c-0.026-4.174-0.021-8.349-0.004-12.522
		c0.002-0.487-0.146-0.762-0.602-0.94c-0.625-0.245-1.24-0.524-1.838-0.83c-3.936-2.01-7.041-4.985-9.683-8.467
		c-0.481-0.635-0.948-0.82-1.687-0.741c-3.027,0.323-6.013-0.013-8.938-0.777c-6.43-1.681-11.153-5.617-14.525-11.249
		c-2.92-4.877-4.445-10.226-5.188-15.824C0.317,12.193,0.152,11.147,0,10.1C0,8.336,0,6.573,0,4.81
		c6.196,0.004,12.394,0.002,18.591,0.023c0.579,0.002,0.77-0.179,0.755-0.758C19.311,2.732,19.335,1.388,19.335,0
		c19.619,0,39.109,0,58.734,0c0,1.393,0.023,2.735-0.012,4.076c-0.015,0.579,0.175,0.759,0.755,0.757
		C85.01,4.812,91.206,4.814,97.403,4.81z M6.688,11.199c0,0.275-0.015,0.431,0.003,0.582c0.528,4.535,1.689,8.884,3.826,12.945
		c2.365,4.497,5.765,7.818,10.742,9.245c1.565,0.449,3.212,0.619,4.822,0.916c0.034-0.082,0.068-0.165,0.104-0.246
		c-0.104-0.225-0.21-0.447-0.309-0.673c-0.945-2.153-2.002-4.267-2.812-6.47c-1.829-4.987-2.716-10.193-3.262-15.458
		c-0.067-0.653-0.249-0.865-0.931-0.859c-3.782,0.036-7.566,0.017-11.35,0.017C7.269,11.199,7.015,11.199,6.688,11.199z
		 M90.823,11.296c-0.258-0.049-0.381-0.093-0.504-0.093c-4.017-0.003-8.033,0.007-12.05-0.014c-0.571-0.003-0.583,0.311-0.646,0.727
		c-0.442,2.916-0.818,5.845-1.385,8.737c-0.831,4.257-2.184,8.355-4.182,12.224c-0.301,0.583-0.562,1.187-0.882,1.87
		c3.29-0.092,6.276-0.851,8.972-2.506c3.763-2.311,6.191-5.759,7.786-9.79c0.843-2.131,1.493-4.349,2.086-6.566
		C90.417,14.399,90.562,12.845,90.823,11.296z"/>
	<g>
		<path fill="#FFFFFF" d="M47.319,7.16c0.615,0,1.23,0,1.846,0c0.083,0.019,0.165,0.044,0.248,0.056
			c0.684,0.101,1.377,0.157,2.048,0.306C58.87,9.175,63.809,16.164,62.9,23.69c-0.368,3.046-1.559,5.731-3.599,8.016
			c-2.75,3.08-6.213,4.735-10.332,4.973c-2.167,0.125-4.281-0.206-6.277-1.071c-5.069-2.197-8.091-6.029-9.049-11.476
			c-0.074-0.424-0.115-0.853-0.172-1.278c0-0.616,0-1.231,0-1.847c0.037-0.273,0.078-0.547,0.111-0.821
			c0.355-2.984,1.51-5.624,3.477-7.891c2.39-2.755,5.401-4.412,9.01-4.969C46.485,7.263,46.902,7.215,47.319,7.16z M58.464,21.927
			c-0.004-5.629-4.592-10.215-10.219-10.218c-5.625-0.002-10.215,4.583-10.225,10.213c-0.01,5.632,4.604,10.244,10.234,10.231
			C53.888,32.14,58.469,27.552,58.464,21.927z"/>
		<path fill="#FFFFFF" d="M53.345,21.722c0.113,2.676-1.874,4.992-4.534,5.283c-2.935,0.321-5.363-1.839-5.645-4.52
			c-0.307-2.916,1.83-5.338,4.508-5.63C50.66,16.529,53.235,18.809,53.345,21.722z"/>
	</g>
</g>
</svg>
